<svg xmlns="http://www.w3.org/2000/svg" fill="none" viewBox="0 0 24 24">
  <path fill="currentColor" d="m18.25 12.437-3.715 1.742a5.921 5.921 0 0 1-5.071 0L5.75 12.437v4.187c0 1.01.82 1.913 2.22 2.61 1.36.68 2.996 1.015 4.03 1.015 1.034 0 2.67-.336 4.03-1.014 1.4-.698 2.22-1.602 2.22-2.611v-4.188Zm3 1.063v-2.47l-.023.013-1.477.69v4.892c0 1.908-1.527 3.193-3.05 3.953-1.564.78-3.428 1.172-4.7 1.172-1.272 0-3.136-.393-4.7-1.172-1.523-.76-3.05-2.045-3.05-3.953v-4.891l-1.477-.691C1.721 10.549 1.25 9.476 1.25 8.5c0-.978.471-2.05 1.523-2.542L9.465 2.82A5.918 5.918 0 0 1 12 2.25l.33.008a5.92 5.92 0 0 1 2.204.563l.001-.001 6.692 3.137c1.052.493 1.523 1.564 1.523 2.542v5a.75.75 0 0 1-1.5 0Zm-9.495-9.743a4.42 4.42 0 0 0-1.65.42l-.003.002L3.41 7.316c-.403.189-.66.64-.66 1.184 0 .544.257.995.66 1.184l6.69 3.137.004.002a4.421 4.421 0 0 0 3.792 0l.002-.002 6.692-3.137.144-.083c.32-.22.516-.625.516-1.101s-.197-.88-.516-1.101l-.144-.083-6.692-3.137-.002-.002A4.42 4.42 0 0 0 12 3.75l-.245.007Z"/>
</svg>
