<svg xmlns="http://www.w3.org/2000/svg" fill="none" viewBox="0 0 24 24">
  <path fill="currentColor" d="M20.25 12a8.25 8.25 0 1 0-16.5-.001 8.25 8.25 0 0 0 16.5.001Zm-4.394-3.236a.75.75 0 0 1 .288 1.472l-3.394.66v1.566l1.544 3.753a.75.75 0 0 1-1.388.57L12 14.582l-.906 2.203a.75.75 0 0 1-1.388-.57l1.544-3.753v-1.566l-3.394-.66-.074-.018a.75.75 0 0 1 .285-1.465l.077.01 3.856.75 3.856-.75ZM11.25 7.75v-.5a.75.75 0 0 1 1.5 0v.5a.75.75 0 0 1-1.5 0ZM21.75 12a9.75 9.75 0 1 1-19.502 0 9.75 9.75 0 0 1 19.502 0Z"/>
</svg>
