<svg xmlns="http://www.w3.org/2000/svg" fill="none" viewBox="0 0 24 24">
  <path fill="currentColor" d="M2.25 12A9.75 9.75 0 0 1 12 2.25 9.75 9.75 0 0 1 21.75 12 9.75 9.75 0 0 1 12 21.75 9.75 9.75 0 0 1 2.25 12Zm10.5-4.75a.75.75 0 1 0-1.5 0v.5a.75.75 0 1 0 1.5 0v-.5ZM8.143 8.764a.75.75 0 0 0-.286 1.472l3.393.66v1.567l-1.544 3.752a.75.75 0 1 0 1.388.57L12 14.582l.906 2.203a.75.75 0 0 0 1.387-.57l-1.543-3.752v-1.567l3.393-.66a.748.748 0 0 0 .498-1.157.749.749 0 0 0-.784-.315L12 9.514l-3.857-.75Z"/>
</svg>
