<svg xmlns="http://www.w3.org/2000/svg" fill="none" viewBox="0 0 24 24">
  <path fill="currentColor" d="M9.484 2.264c.17.026.332.09.476.185.002 0 .003.002.004.003l.006.002-.001.001c.185.125.296.29.361.41.07.126.123.267.168.4.045.133.09.29.138.466l.154.586 3.873 14.99.035.137.037-.136 1.817-6.845v-.002c.041-.152.094-.384.21-.588l.053-.085a1.25 1.25 0 0 1 .496-.424h.002c.155-.074.302-.097.416-.106.101-.008.216-.008.31-.008H21l.077.004a.75.75 0 0 1 0 1.492L21 12.75h-2.972l-.027.097-1.816 6.847c-.114.425-.209.785-.3 1.05-.045.133-.1.272-.17.399a1.144 1.144 0 0 1-.364.407l-.001.002-.007.005-.001-.001a1.184 1.184 0 0 1-1.303-.005l-.009-.005a1.152 1.152 0 0 1-.36-.411 2.515 2.515 0 0 1-.168-.402c-.089-.265-.181-.625-.291-1.05L9.338 4.693 9.3 4.555l-.036.137-1.817 6.844v.001c-.047.175-.11.452-.261.673h-.001a1.188 1.188 0 0 1-.914.533c-.102.008-.217.007-.31.007H3a.75.75 0 0 1 0-1.5h2.971l.027-.1 1.817-6.843c.114-.426.208-.787.3-1.051.045-.133.1-.273.17-.4.066-.118.177-.284.363-.407.002 0 .003-.002.004-.003.002 0 .004-.002.005-.003a1.18 1.18 0 0 1 .653-.193l.174.014Z"/>
</svg>
