<svg xmlns="http://www.w3.org/2000/svg" fill="none" viewBox="0 0 24 24">
  <path fill="currentColor" d="M20.25 12c0-2.142-.002-3.674-.158-4.838-.154-1.142-.444-1.817-.94-2.313-.497-.497-1.172-.787-2.314-.94-1.164-.157-2.696-.159-4.838-.159s-3.674.002-4.838.158c-1.142.154-1.817.444-2.313.94-.497.497-.787 1.172-.94 2.314C3.751 8.326 3.75 9.857 3.75 12c0 2.142.002 3.674.158 4.838.154 1.142.444 1.817.94 2.313.497.497 1.172.787 2.314.94 1.164.157 2.696.159 4.838.159s3.674-.002 4.838-.158c1.142-.154 1.817-.444 2.313-.94.497-.497.787-1.172.94-2.314.157-1.164.159-2.696.159-4.838Zm-9.182-5.747a.75.75 0 0 1 .667.6l1.505 7.526 1.064-2.657.05-.103A.75.75 0 0 1 15 11.25h2a.75.75 0 0 1 0 1.5h-1.492l-1.812 4.528a.75.75 0 0 1-1.431-.13L10.759 9.62l-1.063 2.658A.75.75 0 0 1 9 12.75H7a.75.75 0 0 1 0-1.5h1.492l1.812-4.528.054-.11a.75.75 0 0 1 .71-.36ZM21.75 12c0 2.1.001 3.75-.172 5.037-.176 1.309-.544 2.353-1.366 3.175-.822.822-1.866 1.19-3.175 1.366-1.287.173-2.937.172-5.037.172s-3.75.001-5.037-.172c-1.309-.176-2.353-.544-3.175-1.366-.822-.822-1.19-1.866-1.366-3.175C2.249 15.75 2.25 14.1 2.25 12s-.001-3.751.172-5.038c.176-1.308.545-2.352 1.366-3.174.822-.822 1.866-1.19 3.175-1.366C8.25 2.249 9.9 2.25 12 2.25s3.75-.001 5.037.172c1.309.176 2.353.544 3.175 1.366.822.822 1.19 1.866 1.366 3.175.173 1.287.172 2.937.172 5.037Z"/>
</svg>
