<svg xmlns="http://www.w3.org/2000/svg" fill="none" viewBox="0 0 24 24">
  <path fill="currentColor" d="M2.25 19.4V9a.75.75 0 0 1 1.5 0v10.4c0 .293 0 .467.01.596.01.12.026.134.017.117a.251.251 0 0 0 .11.11c-.017-.009-.003.006.117.016.129.01.303.011.594.011H15a.75.75 0 0 1 0 1.5H4.598c-.267 0-.512 0-.716-.017a1.775 1.775 0 0 1-.676-.173 1.754 1.754 0 0 1-.766-.765 1.778 1.778 0 0 1-.173-.677c-.017-.204-.017-.45-.017-.718Zm18-13.2c0-.572 0-.957-.024-1.253-.024-.287-.066-.424-.113-.514a1.249 1.249 0 0 0-.546-.546c-.09-.046-.227-.09-.514-.113-.296-.024-.68-.024-1.253-.024h-7.6c-.572 0-.957 0-1.253.024-.287.024-.424.067-.514.113-.236.12-.426.31-.546.546-.046.09-.09.227-.113.514-.024.296-.024.68-.024 1.253v7.6c0 .572 0 .957.024 1.253.024.287.067.424.113.514.105.206.264.378.46.498l.086.048c.09.046.227.09.513.113.296.024.68.024 1.251.024h7.607c.571 0 .955 0 1.25-.024.286-.024.422-.066.513-.113.235-.12.427-.31.546-.546.047-.09.09-.227.113-.514.024-.296.024-.68.024-1.253V6.2Zm-7 6.8v-2.25H11a.75.75 0 0 1 0-1.5h2.25V7a.75.75 0 0 1 1.5 0v2.25H17a.75.75 0 0 1 0 1.5h-2.25V13a.75.75 0 0 1-1.5 0Zm8.5.8c0 .547.001 1.004-.03 1.375-.03.38-.098.736-.27 1.073a2.752 2.752 0 0 1-1.202 1.202c-.337.172-.693.24-1.072.27-.37.031-.826.03-1.372.03h-7.607c-.546 0-1.002.001-1.373-.03-.38-.03-.736-.098-1.073-.27a2.753 2.753 0 0 1-1.201-1.202c-.172-.337-.24-.693-.27-1.073-.031-.371-.03-.828-.03-1.375V6.2c0-.547-.001-1.004.03-1.375.03-.38.098-.736.27-1.073A2.746 2.746 0 0 1 7.752 2.55c.337-.172.693-.24 1.073-.27.371-.031.828-.03 1.375-.03h7.6c.547 0 1.004-.001 1.375.03.38.03.736.098 1.073.27.517.263.938.685 1.202 1.202.172.337.24.693.27 1.073.031.371.03.828.03 1.375v7.6Z"/>
</svg>
