<svg xmlns="http://www.w3.org/2000/svg" fill="none" viewBox="0 0 24 24">
  <path fill="currentColor" d="M18.967 2.261a2.785 2.785 0 0 1 1.972 4.735L20.935 7l-3.113 3.11 1.759 8.752c.11.553-.084 1.076-.333 1.462a3.126 3.126 0 0 1-1.027.978c-.393.231-.905.405-1.431.322-.586-.094-1.045-.484-1.281-1.091l-2.274-5.835-2.435 2.436c.066.83.103 1.54-.059 2.198-.196.798-.654 1.442-1.41 2.198a.751.751 0 0 1-1.173-.145l-2.08-3.466-3.464-2.078a.75.75 0 0 1-.145-1.174c.756-.755 1.4-1.214 2.198-1.41.657-.161 1.367-.125 2.197-.058L9.3 10.764 3.467 8.491c-.608-.237-.999-.696-1.092-1.282-.084-.526.091-1.037.322-1.43.237-.404.583-.772.979-1.028.386-.249.908-.444 1.461-.333l8.75 1.758L17 3.065l.004-.005a2.783 2.783 0 0 1 1.963-.799Zm-.006 1.5a1.284 1.284 0 0 0-.902.364l-3.395 3.397a.75.75 0 0 1-.678.205L4.841 5.89c-.032-.006-.153-.006-.353.123a1.63 1.63 0 0 0-.497.526c-.13.22-.145.374-.135.436 0 .006-.007.056.155.12l6.904 2.69a.751.751 0 0 1 .258 1.23L7.68 14.504a.752.752 0 0 1-.593.217c-1.059-.088-1.603-.12-2.062-.008a2.133 2.133 0 0 0-.759.37l2.745 1.647.077.052a.751.751 0 0 1 .181.205l1.646 2.744c.206-.286.312-.52.37-.757.113-.46.08-1.004-.008-2.062a.751.751 0 0 1 .218-.593l3.492-3.493.071-.063a.75.75 0 0 1 1.159.32l2.69 6.905c.065.167.117.154.12.154.06.01.215-.005.435-.134a1.63 1.63 0 0 0 .525-.498.684.684 0 0 0 .125-.312l-.002-.04-1.838-9.145a.751.751 0 0 1 .205-.679l3.393-3.391a1.284 1.284 0 0 0-.91-2.183Z"/>
</svg>
