<svg xmlns="http://www.w3.org/2000/svg" fill="none" viewBox="0 0 24 24">
  <path fill="currentColor" d="M11.25 19.5v-4.04a.75.75 0 0 1 1.5 0v4.04a.75.75 0 0 1-1.5 0Zm-3.463-4.04a.75.75 0 0 1 1.5 0c0 .626-.015 1.49-.305 2.206a2.277 2.277 0 0 1-.778 1.021c-.388.277-.86.41-1.397.41a.75.75 0 0 1 0-1.5c.283 0 .437-.067.527-.131.094-.067.183-.178.258-.364.164-.406.195-.984.195-1.641Zm6.924 0a.75.75 0 0 1 1.5 0c0 .658.03 1.236.195 1.642.075.186.164.296.258.363a.727.727 0 0 0 .338.12l.19.01.076.005a.75.75 0 0 1 0 1.492l-.077.004-.198-.006a2.281 2.281 0 0 1-1.2-.404 2.276 2.276 0 0 1-.777-1.02c-.29-.716-.305-1.58-.305-2.205Zm1.154-5.191a.416.416 0 0 0-.403-.404H8.537a.416.416 0 0 0-.403.404v1.558h7.731V10.27Zm1.5 1.558h.98c.216 0 .405-.19.405-.404v-5.77a.416.416 0 0 0-.404-.403H5.654a.416.416 0 0 0-.404.404v5.77c0 .213.19.403.404.403h.98V10.27c0-1.042.86-1.904 1.903-1.904h6.925c1.043 0 1.903.862 1.903 1.904v1.558Zm2.885-.404a1.915 1.915 0 0 1-1.904 1.904H5.654a1.915 1.915 0 0 1-1.904-1.903v-5.77c0-1.043.861-1.904 1.904-1.904h12.692c1.043 0 1.904.86 1.904 1.903v5.77Z"/>
</svg>
