<svg xmlns="http://www.w3.org/2000/svg" fill="none" viewBox="0 0 24 24">
  <path fill="currentColor" d="M13.25 18V8a4.25 4.25 0 1 1 4.5 4.24V18a2.25 2.25 0 0 1-4.5 0Zm-5.5 0a.75.75 0 0 0 1.5 0V8a2.75 2.75 0 1 0-2.75 2.75 1.239 1.239 0 0 1 1.25 1.238V18Zm3 0a2.25 2.25 0 0 1-4.5 0v-5.76a4.247 4.247 0 0 1-2.111-.706 4.252 4.252 0 0 1-.644-6.539A4.25 4.25 0 0 1 10.75 8v10Zm4 0a.75.75 0 0 0 1.5 0v-6.015c0-.164.035-.328.099-.48l.053-.11a1.24 1.24 0 0 1 .222-.293l.092-.082c.096-.076.204-.138.318-.183l.117-.04a1.24 1.24 0 0 1 .35-.047A2.75 2.75 0 1 0 14.75 8v10Z"/>
</svg>
