<svg xmlns="http://www.w3.org/2000/svg" fill="none" viewBox="0 0 24 24">
  <path fill="currentColor" d="M11.549 15.336a1.23 1.23 0 0 1 .9-.001c.223.087.378.235.479.346.097.107.201.245.3.376l2.364 3.107c.159.209.31.406.416.575.1.159.24.41.242.722l-.007.142a1.29 1.29 0 0 1-.447.852l-.005.005c-.252.21-.549.255-.733.272-.196.02-.441.018-.695.018H9.637c-.254 0-.499.001-.695-.018-.184-.017-.481-.062-.733-.272l-.002-.002a1.295 1.295 0 0 1-.457-.991c0-.315.142-.57.242-.728.106-.168.257-.366.415-.575h.001l2.364-3.107c.1-.132.203-.27.301-.377.076-.083.18-.186.322-.269l.154-.075Zm.416 1.629-2.363 3.104v.001l-.134.179.169.001h4.726l.167-.001-.132-.177-2.363-3.107-.036-.046-.034.046ZM20.25 15V6A2.25 2.25 0 0 0 18 3.75H6A2.25 2.25 0 0 0 3.75 6v9A2.25 2.25 0 0 0 6 17.25h.6a.75.75 0 0 1 0 1.5H6A3.75 3.75 0 0 1 2.25 15V6A3.75 3.75 0 0 1 6 2.25h12A3.75 3.75 0 0 1 21.75 6v9A3.75 3.75 0 0 1 18 18.75h-.6a.75.75 0 0 1 0-1.5h.6l.223-.01a2.25 2.25 0 0 0 2.016-2.017L20.25 15Z"/>
</svg>
