<svg xmlns="http://www.w3.org/2000/svg" fill="none" viewBox="0 0 24 24">
  <path fill="currentColor" d="M19.241 12.64A7.25 7.25 0 1 0 12 20.25l.36-.009A7.251 7.251 0 0 0 19.25 13l-.009-.36Zm-5.204-2.08a.75.75 0 0 1 1.216.88l-2.8 3.875-.003.004a1.053 1.053 0 0 1-1.632.077l-.003-.004-1.38-1.575-.047-.06a.75.75 0 0 1 1.123-.984l.054.056 1.003 1.148 2.47-3.417ZM5.781 2.348a.75.75 0 0 1 .802 1.265l-3.15 2.23-.064.042a.75.75 0 0 1-.803-1.265l3.15-2.231.065-.041Zm11.457.22a.75.75 0 0 1 .98-.22l.065.04 3.15 2.232.061.047a.75.75 0 0 1-.928 1.177l-3.149-2.23-.06-.049a.75.75 0 0 1-.119-.998Zm3.501 10.867a8.75 8.75 0 0 1-8.305 8.305l-.434.01A8.75 8.75 0 1 1 20.75 13l-.01.434Z"/>
</svg>
