<svg xmlns="http://www.w3.org/2000/svg" fill="none" viewBox="0 0 24 24">
  <path fill="currentColor" d="M19.241 12.64A7.25 7.25 0 1 0 12 20.25l.36-.009A7.251 7.251 0 0 0 19.25 13l-.009-.36ZM11.25 8.5a.75.75 0 0 1 1.5 0v4.599l2.666 1.777.062.046a.75.75 0 0 1-.828 1.241l-.066-.039-3-2a.75.75 0 0 1-.334-.624v-5ZM5.781 2.347a.75.75 0 0 1 .802 1.265l-3.15 2.23-.064.042a.75.75 0 0 1-.803-1.265l3.15-2.231.065-.041Zm11.457.22a.75.75 0 0 1 .98-.22l.065.04 3.15 2.232.061.047a.75.75 0 0 1-.928 1.177l-3.149-2.23-.06-.049a.75.75 0 0 1-.119-.998Zm3.501 10.867a8.75 8.75 0 0 1-8.305 8.305L12 21.75A8.75 8.75 0 1 1 20.75 13l-.01.434Z"/>
</svg>
