<svg xmlns="http://www.w3.org/2000/svg" fill="none" viewBox="0 0 24 24">
  <path fill="currentColor" d="M6.2 11.477a.75.75 0 0 1 1.004.039l.052.056.159.199c.76.986 1.005 1.919.883 2.829-.121.901-.602 1.687-.974 2.311-.406.681-.703 1.2-.776 1.743-.064.474.037 1.062.708 1.866a.75.75 0 0 1-1.152.96c-.884-1.06-1.173-2.056-1.042-3.026.12-.901.602-1.688.974-2.311.406-.681.702-1.2.776-1.744.055-.415-.014-.916-.482-1.574l-.226-.292-.046-.06a.75.75 0 0 1 .141-.996Zm5.32 0a.75.75 0 0 1 1.003.039l.053.056.158.199c.76.986 1.007 1.919.884 2.829-.121.901-.602 1.687-.973 2.311-.406.681-.704 1.2-.777 1.743-.056.415.015.916.483 1.573l.225.293.046.061a.75.75 0 0 1-1.198.9c-.885-1.06-1.173-2.057-1.042-3.027.121-.901.602-1.688.973-2.311.406-.681.704-1.2.777-1.744.064-.474-.037-1.062-.708-1.866a.75.75 0 0 1 .096-1.056Zm5.32 0a.75.75 0 0 1 1.055.095c.885 1.06 1.174 2.057 1.044 3.028-.122.901-.603 1.687-.975 2.311-.406.681-.702 1.2-.775 1.743-.056.415.014.917.48 1.573l.226.293.047.061a.75.75 0 0 1-1.198.9c-.884-1.06-1.172-2.057-1.042-3.027.121-.901.602-1.688.974-2.311.406-.681.703-1.2.776-1.744.064-.474-.037-1.062-.708-1.866a.75.75 0 0 1 .096-1.056ZM19 2.25a.75.75 0 0 1 0 1.5h-.842c-.133 1.44-.652 2.813-1.55 3.884-1.066 1.27-2.637 2.08-4.608 2.08-1.97 0-3.542-.81-4.607-2.08-.9-1.071-1.418-2.444-1.551-3.884H5a.75.75 0 0 1 0-1.5h14ZM7.349 3.75c.128 1.12.541 2.142 1.193 2.919.783.933 1.934 1.545 3.458 1.545 1.524 0 2.675-.612 3.458-1.545.652-.777 1.065-1.799 1.193-2.919H7.35Z"/>
</svg>
