<svg xmlns="http://www.w3.org/2000/svg" fill="none" viewBox="0 0 24 24">
  <path fill="currentColor" d="M19.241 12.64A7.25 7.25 0 1 0 12 20.25l.36-.009A7.251 7.251 0 0 0 19.25 13l-.009-.36Zm-5.771-2.17a.75.75 0 1 1 1.06 1.06L13.06 13l1.47 1.47.052.056a.75.75 0 0 1-1.056 1.056l-.056-.052L12 14.06l-1.47 1.47a.75.75 0 1 1-1.06-1.06L10.94 13l-1.47-1.47-.052-.056a.75.75 0 0 1 1.056-1.056l.056.052L12 11.94l1.47-1.47ZM5.78 2.347a.75.75 0 0 1 .802 1.265l-3.15 2.23-.064.042a.75.75 0 0 1-.803-1.265l3.15-2.231.065-.041Zm11.457.22a.75.75 0 0 1 .98-.22l.065.04 3.15 2.232.061.047a.75.75 0 0 1-.928 1.177l-3.149-2.23-.06-.049a.75.75 0 0 1-.119-.998Zm3.501 10.867a8.75 8.75 0 0 1-8.305 8.305L12 21.75A8.75 8.75 0 1 1 20.75 13l-.01.434Z"/>
</svg>
