<svg xmlns="http://www.w3.org/2000/svg" fill="none" viewBox="0 0 24 24">
  <path fill="currentColor" d="M18.284 2.388a.75.75 0 0 0-.867 1.224l3.15 2.23a.75.75 0 0 0 .867-1.223l-3.15-2.231Zm-11.7 1.224a.75.75 0 0 0-.867-1.224l-3.15 2.23a.75.75 0 0 0 .867 1.225l3.15-2.231ZM3.25 13a8.75 8.75 0 1 0 17.5 0 8.75 8.75 0 0 0-17.5 0Zm6.22-2.53a.75.75 0 0 1 1.06 0L12 11.94l1.47-1.47a.752.752 0 0 1 1.244.23.75.75 0 0 1-.184.83L13.06 13l1.47 1.47a.75.75 0 1 1-1.06 1.06L12 14.06l-1.47 1.47a.75.75 0 1 1-1.06-1.06L10.94 13l-1.47-1.47a.75.75 0 0 1 0-1.06Z"/>
</svg>
