<svg xmlns="http://www.w3.org/2000/svg" fill="none" viewBox="0 0 24 24">
  <path fill="currentColor" d="M18 18.542H6V21h12v-2.458Z"/>
  <path fill="currentColor" fill-rule="evenodd" d="M6 18.542h12V21H6v-2.458ZM14.197 4.8C13.854 3.794 13.46 3 12.108 3c-1.352 0-1.771.791-2.132 1.8L6.265 15.203h2.462l.857-2.473h4.737l.795 2.473h2.618L14.196 4.8Zm-3.895 5.841 1.683-4.93h.062l1.59 4.93h-3.335Z" clip-rule="evenodd"/>
  <path fill="currentColor" d="M14.197 4.8C13.854 3.794 13.46 3 12.108 3c-1.352 0-1.771.791-2.132 1.8L6.265 15.203h2.462l.857-2.473h4.737l.795 2.473h2.618L14.196 4.8Zm-3.895 5.841 1.683-4.93h.062l1.59 4.93h-3.335Z"/>
</svg>
