<svg xmlns="http://www.w3.org/2000/svg" fill="none" viewBox="0 0 24 24">
  <path fill="currentColor" d="M9.25 10c0-.476 0-.796-.018-1.043-.016-.24-.045-.358-.077-.435a1.254 1.254 0 0 0-.676-.677c-.077-.032-.196-.061-.436-.077A17.062 17.062 0 0 0 7 7.75c-.476 0-.796 0-1.043.018-.24.016-.358.045-.435.077a1.254 1.254 0 0 0-.677.676c-.032.077-.061.196-.077.436A16.85 16.85 0 0 0 4.75 10v8c0 .476 0 .796.018 1.043.016.24.045.358.077.434a1.254 1.254 0 0 0 .676.678c.077.032.196.061.436.077.247.017.567.018 1.043.018s.796 0 1.043-.018c.24-.016.358-.045.435-.077a1.254 1.254 0 0 0 .677-.677c.032-.076.061-.195.077-.435.017-.247.018-.567.018-1.043v-8Zm10 0c0-.476 0-.796-.018-1.043-.016-.24-.045-.358-.077-.435a1.254 1.254 0 0 0-.677-.677c-.076-.032-.195-.061-.435-.077A17.063 17.063 0 0 0 17 7.75c-.476 0-.796 0-1.043.018-.24.016-.358.045-.434.077a1.254 1.254 0 0 0-.678.676c-.032.077-.061.196-.077.436A17.01 17.01 0 0 0 14.75 10v4c0 .476 0 .796.018 1.043.016.24.045.358.077.434a1.254 1.254 0 0 0 .676.678c.077.032.196.061.436.077.247.017.567.018 1.043.018s.796 0 1.043-.018c.24-.016.358-.045.434-.077a1.254 1.254 0 0 0 .678-.677c.032-.076.061-.195.077-.435.017-.247.018-.567.018-1.043v-4ZM21 2.25a.75.75 0 0 1 0 1.5H3a.75.75 0 0 1 0-1.5h18ZM10.75 18c0 .456 0 .835-.02 1.145a2.823 2.823 0 0 1-.189.907 2.751 2.751 0 0 1-1.49 1.489c-.29.12-.589.167-.905.189-.31.02-.69.02-1.146.02-.456 0-.835 0-1.146-.02a2.823 2.823 0 0 1-.906-.189 2.749 2.749 0 0 1-1.489-1.49 2.805 2.805 0 0 1-.188-.905c-.022-.31-.021-.69-.021-1.146v-8c0-.456 0-.835.02-1.146.022-.316.069-.616.189-.906a2.75 2.75 0 0 1 1.49-1.489c.29-.12.589-.167.905-.188.31-.022.69-.021 1.146-.021.456 0 .835 0 1.146.02.316.022.616.069.906.189a2.75 2.75 0 0 1 1.489 1.49c.12.29.167.589.188.905.022.31.021.69.021 1.146v8Zm10-4c0 .456 0 .835-.02 1.146a2.823 2.823 0 0 1-.189.906 2.75 2.75 0 0 1-1.49 1.489c-.29.12-.589.167-.905.189-.31.02-.69.02-1.146.02-.456 0-.835 0-1.146-.02a2.823 2.823 0 0 1-.906-.189 2.75 2.75 0 0 1-1.489-1.49 2.805 2.805 0 0 1-.188-.905c-.022-.31-.021-.69-.021-1.146v-4c0-.456 0-.835.02-1.146.022-.316.069-.616.189-.906a2.75 2.75 0 0 1 1.49-1.489c.29-.12.589-.167.905-.188.31-.022.69-.021 1.146-.021.456 0 .835 0 1.145.02.317.022.617.069.907.189a2.75 2.75 0 0 1 1.489 1.49c.12.29.167.589.189.905.02.31.02.69.02 1.146v4Z"/>
</svg>
