<svg xmlns="http://www.w3.org/2000/svg" fill="none" viewBox="0 0 24 24">
  <path fill="currentColor" d="M6.658 8.525c0-.706-.589-1.275-1.214-1.275S4.23 7.82 4.23 8.525a.751.751 0 0 1-.007.103c-.087.626.117 1.316.605 2.084.059.092.12.185.186.277.146-.135.29-.27.429-.41.78-.786 1.214-1.469 1.214-2.054Zm10 0c0-.706-.589-1.275-1.215-1.275-.624 0-1.212.57-1.212 1.275a.748.748 0 0 1-.007.103c-.087.626.117 1.316.605 2.084a6.7 6.7 0 0 0 .186.277c.146-.135.29-.27.428-.41.781-.786 1.215-1.469 1.215-2.054Zm-11.802 4.61c-.238.21-.443.396-.609.566-.662.684-.663 1.851 0 2.535a1.688 1.688 0 0 0 2.39.004l.76-.81a36.655 36.655 0 0 1-1.527-1.304 19.6 19.6 0 0 1-1.014-.991Zm10 0c-.238.21-.443.396-.609.566-.662.684-.663 1.851 0 2.535a1.688 1.688 0 0 0 2.39.004l.76-.81a36.628 36.628 0 0 1-1.527-1.304c-.348-.318-.69-.65-1.014-.991Zm-6.698-4.61c0 1.245-.86 2.315-1.65 3.11-.172.174-.352.342-.53.506.28.293.584.586.903.877.499.455 1.025.893 1.545 1.316l2.027-2.16.055-.054a.75.75 0 0 1 1.039 1.08l-1.95 2.077c.66.53 1.29 1.043 1.754 1.506l.2.21.05.058a.75.75 0 0 1-1.098 1.01l-.055-.053-.166-.172c-.406-.404-1-.888-1.714-1.461l-.841.898-.01.008c-1.226 1.265-3.305 1.279-4.546 0-1.227-1.266-1.228-3.358 0-4.624.206-.213.457-.44.718-.669a8.528 8.528 0 0 1-.326-.471c-.585-.92-.968-1.959-.828-3.056.034-1.466 1.237-2.71 2.709-2.711 1.492 0 2.714 1.28 2.714 2.775Zm10 0c0 1.245-.86 2.315-1.65 3.11-.172.174-.351.342-.53.506.28.293.584.586.903.877.499.455 1.025.893 1.545 1.316l2.027-2.16.055-.054a.75.75 0 0 1 1.039 1.08l-1.95 2.077c.66.53 1.29 1.043 1.754 1.506l.2.21.05.058a.75.75 0 0 1-1.098 1.01l-.055-.053-.166-.172c-.406-.404-1-.888-1.715-1.461l-.84.898-.01.008c-1.226 1.265-3.305 1.279-4.546 0-1.227-1.266-1.228-3.358 0-4.624.206-.213.457-.44.718-.669a8.538 8.538 0 0 1-.326-.471c-.585-.92-.97-1.959-.83-3.056.035-1.466 1.239-2.71 2.71-2.711 1.493 0 2.715 1.28 2.715 2.775Z"/>
</svg>
