<svg xmlns="http://www.w3.org/2000/svg" fill="none" viewBox="0 0 24 24">
  <path fill="currentColor" d="M20.25 9.4c0-1.132 0-1.937-.052-2.566-.044-.543-.124-.905-.247-1.191l-.056-.119A3.25 3.25 0 0 0 18.7 4.23l-.223-.125c-.305-.155-.69-.252-1.31-.302-.63-.052-1.434-.052-2.566-.052H9.4c-1.132 0-1.937 0-2.566.052-.543.044-.905.124-1.191.247l-.119.055A3.25 3.25 0 0 0 4.23 5.301l-.125.223c-.155.305-.252.69-.302 1.31-.052.63-.052 1.434-.052 2.566v5.2c0 1.132 0 1.937.052 2.566.05.62.147 1.005.302 1.31l.125.223c.313.51.76.924 1.295 1.196l.119.056c.286.123.648.203 1.191.247.63.052 1.434.052 2.566.052h5.2c1.132 0 1.937 0 2.566-.052.62-.05 1.005-.147 1.31-.303l.223-.125a3.25 3.25 0 0 0 1.196-1.294l.056-.119c.123-.286.203-.648.247-1.191.052-.63.052-1.434.052-2.566V9.4Zm-8.618-.56c0-.583-.51-1.09-1.091-1.09-.58 0-1.09.506-1.09 1.09a.757.757 0 0 1-.008.106c-.076.54.103 1.146.556 1.837.046.071.096.142.147.213.126-.113.25-.227.37-.344.734-.717 1.116-1.319 1.116-1.812ZM9 14.7c0 .41.16.804.447 1.098.59.588 1.607.582 2.192-.002l.646-.669a33.525 33.525 0 0 1-1.368-1.137 18.187 18.187 0 0 1-.929-.879 9.948 9.948 0 0 0-.543.491A1.575 1.575 0 0 0 9 14.7Zm12.75-.1c0 1.107 0 1.984-.057 2.688-.058.713-.18 1.317-.46 1.868a4.751 4.751 0 0 1-2.077 2.076c-.551.281-1.155.403-1.868.461-.704.058-1.58.057-2.688.057H9.4c-1.107 0-1.983 0-2.688-.057-.713-.058-1.317-.18-1.868-.46a4.752 4.752 0 0 1-2.076-2.077c-.281-.551-.403-1.155-.461-1.868-.058-.704-.057-1.58-.057-2.688V9.4c0-1.107 0-1.983.057-2.688.058-.713.18-1.317.46-1.868a4.752 4.752 0 0 1 2.077-2.076c.551-.281 1.155-.403 1.868-.461.705-.058 1.58-.057 2.688-.057h5.2c1.107 0 1.984 0 2.688.057.713.058 1.317.18 1.868.46a4.752 4.752 0 0 1 2.076 2.077c.281.551.403 1.155.461 1.868.058.705.057 1.58.057 2.688v5.2Zm-8.618-5.76c0 1.171-.83 2.165-1.567 2.886-.143.139-.291.273-.438.405.245.246.508.492.784.736.46.407.944.798 1.423 1.176l1.877-1.94a.75.75 0 0 1 1.078 1.043l-1.767 1.826c.595.462 1.16.912 1.582 1.32l.19.191.05.059a.75.75 0 0 1-1.082 1.027l-.056-.052-.154-.156c-.374-.36-.918-.792-1.578-1.305l-.766.792-.009.008c-1.166 1.167-3.135 1.18-4.314 0l-.005-.004a3.076 3.076 0 0 1 0-4.305l.005-.005c.18-.18.396-.372.62-.565a7.724 7.724 0 0 1-.26-.372c-.553-.843-.926-1.807-.79-2.834C7.991 7.386 9.16 6.25 10.54 6.25c1.403 0 2.59 1.173 2.59 2.59Z"/>
</svg>
