<svg xmlns="http://www.w3.org/2000/svg" fill="none" viewBox="0 0 24 24">
  <path fill="currentColor" d="M11.81 7.26c0-1.1-.92-2.01-1.949-2.01-1.027 0-1.949.91-1.949 2.01a.76.76 0 0 1-.007.105c-.13.94.182 1.946.871 3.023.139.215.292.429.456.644.283-.254.564-.513.83-.78 1.077-1.074 1.749-2.075 1.749-2.991Zm-2.738 5.904c-.416.36-.778.68-1.06.968-1.015 1.038-1.015 2.794 0 3.833 1 1.024 2.707 1.015 3.7 0l1.24-1.313A52.41 52.41 0 0 1 10.64 14.7a25.642 25.642 0 0 1-1.567-1.536Zm4.239-5.903c0 1.58-1.105 2.97-2.189 4.052a22.86 22.86 0 0 1-.92.863c.443.474.928.947 1.443 1.412a51.943 51.943 0 0 0 2.341 1.97l2.97-3.136.055-.054a.75.75 0 0 1 1.034 1.084l-2.882 3.046.036.028c.984.781 1.912 1.525 2.58 2.186l.27.278.05.059a.75.75 0 0 1-1.149.96c-.58-.624-1.53-1.393-2.683-2.308l-.138-.11-1.336 1.414-.009.009c-1.577 1.612-4.252 1.63-5.845 0-1.585-1.622-1.585-4.308 0-5.93.326-.335.735-.695 1.16-1.063-.21-.271-.407-.545-.585-.824-.785-1.225-1.282-2.58-1.1-3.992.03-1.875 1.582-3.455 3.447-3.455 1.884 0 3.45 1.61 3.45 3.51Z"/>
</svg>
