<svg xmlns="http://www.w3.org/2000/svg" fill="none" viewBox="0 0 24 24">
  <path fill="currentColor" d="M13.25 5A1.25 1.25 0 1 0 12 6.25l.124-.006A1.25 1.25 0 0 0 13.25 5Zm1.5 0a2.75 2.75 0 0 1-2 2.643v12.57a8.25 8.25 0 0 0 5.084-2.379 8.25 8.25 0 0 0 2.38-5.084H19a.75.75 0 0 1 0-1.5h2a.75.75 0 0 1 .75.75 9.75 9.75 0 0 1-9.27 9.738l-.48.012A9.751 9.751 0 0 1 2.25 12a.75.75 0 0 1 .75-.75h2a.75.75 0 0 1 0 1.5H3.785a8.249 8.249 0 0 0 5.058 6.872 8.25 8.25 0 0 0 2.407.592V7.643a2.746 2.746 0 0 1-1.194-4.587A2.75 2.75 0 0 1 14.75 5Z"/>
</svg>
