<svg xmlns="http://www.w3.org/2000/svg" fill="none" viewBox="0 0 24 24">
  <path fill="currentColor" d="M20.25 18.56v-6.516c0-4.583-3.698-8.294-8.25-8.294s-8.25 3.71-8.25 8.294v6.517c0 .4.176.852.425 1.134.24.272.388.246.488.196l.186-.088c.938-.422 2.053-.544 3.068.134.622.416 1.544.416 2.166 0 .507-.339 1.053-.558 1.65-.562.598-.004 1.156.208 1.685.563.622.415 1.544.415 2.165 0 .565-.378 1.28-.493 1.912-.479.643.015 1.31.165 1.842.432l.085.029c.095.015.223-.022.403-.226.25-.282.425-.735.425-1.133ZM12 14.25c1.204 0 2.325.375 3.262 1.016l.184.132.06.048a.75.75 0 0 1-.889 1.2l-.063-.044-.28-.19a4.247 4.247 0 0 0-4.828.19.75.75 0 0 1-.892-1.204A5.768 5.768 0 0 1 12 14.25ZM8.75 10.5V10a.75.75 0 0 1 .33-.622L7.665 8.67l-.067-.038a.75.75 0 0 1 .737-1.304l3 1.5a.75.75 0 0 1-.6 1.372l-.07-.03-.417-.21.002.039v.5a.75.75 0 0 1-1.5 0Zm5 0V10l.001-.038-.416.209a.75.75 0 0 1-.67-1.342l3-1.5a.75.75 0 0 1 .67 1.342l-1.416.707a.75.75 0 0 1 .331.622v.5a.75.75 0 0 1-1.5 0Zm8 8.06a3.33 3.33 0 0 1-.8 2.129c-.47.53-1.25.955-2.113.62l-.174-.078c-.304-.152-.748-.263-1.202-.273-.464-.01-.832.084-1.044.227-1.126.753-2.708.753-3.834 0l-.001-.001c-.355-.238-.622-.31-.84-.309-.219.002-.481.08-.825.31-1.126.753-2.708.753-3.834 0-.412-.276-.907-.302-1.49-.07l-.256.116c-.933.469-1.785.024-2.286-.543a3.327 3.327 0 0 1-.801-2.127v-6.517C2.25 6.639 6.612 2.25 12 2.25s9.75 4.39 9.75 9.794v6.517Z"/>
</svg>
