<svg xmlns="http://www.w3.org/2000/svg" fill="none" viewBox="0 0 24 24">
  <path fill="currentColor" d="M4.726 8.104A8.2 8.2 0 0 0 3.75 12c0 1.002.179 1.962.506 2.85h4.366l-1.42-2.457-.019-.034-2.457-4.255ZM4.111 6.27a9.74 9.74 0 0 1 8.925-3.966 9.76 9.76 0 0 1 7.924 5.844A9.7 9.7 0 0 1 21.75 12a9.707 9.707 0 0 1-1.95 5.85 9.74 9.74 0 0 1-8.836 3.846 9.76 9.76 0 0 1-7.924-5.844A9.7 9.7 0 0 1 2.25 12c0-2.142.691-4.122 1.861-5.73Zm1.548.451 2.182 3.78 1.425-2.468.008-.015 2.463-4.264a8.23 8.23 0 0 0-6.078 2.967Zm7.744-2.852L11.22 7.65h7.792a8.26 8.26 0 0 0-5.609-3.781Zm6.341 5.281h-4.366l1.42 2.457.019.034 2.457 4.255A8.2 8.2 0 0 0 20.25 12a8.2 8.2 0 0 0-.506-2.85Zm-1.404 8.129-2.182-3.78-3.896 6.747a8.23 8.23 0 0 0 6.078-2.967Zm-7.743 2.852 2.183-3.78H4.988a8.26 8.26 0 0 0 5.609 3.78Z"/>
</svg>
