<svg xmlns="http://www.w3.org/2000/svg" fill="none" viewBox="0 0 24 24">
  <path fill="currentColor" d="M20.25 12a8.25 8.25 0 0 0-.51-2.85h-4.362l3.895 6.744A8.25 8.25 0 0 0 20.25 12Zm-7.986 8.243a8.249 8.249 0 0 0 5.57-2.409c.178-.178.345-.364.505-.557L16.157 13.5l-3.893 6.744ZM4.992 16.35a8.249 8.249 0 0 0 1.174 1.484 8.25 8.25 0 0 0 2.677 1.788 8.253 8.253 0 0 0 1.756.505l2.181-3.777H4.992Zm3.715-4.351 1.646 2.85h3.293L15.293 12l-1.646-2.85h-3.293L8.707 12Zm3.028-8.243A8.249 8.249 0 0 0 5.66 6.722L7.842 10.5l3.893-6.744ZM11.22 7.65h7.788a8.244 8.244 0 0 0-1.174-1.484A8.249 8.249 0 0 0 13.4 3.872L11.22 7.65ZM3.75 12c0 .973.174 1.938.51 2.85h4.362L4.727 8.105A8.25 8.25 0 0 0 3.75 12Zm18 0a9.75 9.75 0 0 1-.742 3.731 9.744 9.744 0 0 1-1.13 2.01 9.747 9.747 0 0 1-.983 1.154 9.75 9.75 0 0 1-7.944 2.796 9.749 9.749 0 0 1-2.683-.684 9.751 9.751 0 0 1-3.163-2.112 9.748 9.748 0 0 1-2.005-2.92.74.74 0 0 1-.065-.146c-.014-.033-.03-.065-.043-.098A9.75 9.75 0 0 1 12 2.25a9.75 9.75 0 0 1 1.15.071 9.747 9.747 0 0 1 5.745 2.784 9.744 9.744 0 0 1 2.008 2.928.74.74 0 0 1 .057.13A9.746 9.746 0 0 1 21.75 12Z"/>
</svg>
