<svg xmlns="http://www.w3.org/2000/svg" fill="none" viewBox="0 0 24 24">
  <path fill="currentColor" d="M6.526 10.918a.75.75 0 0 1 1.004.052l5.5 5.5a.75.75 0 0 1 0 1.06l-1.5 1.5c-.5.5-1.527 1.065-2.699 1.242-1.025.156-2.216.02-3.288-.755L3.53 21.53a.75.75 0 1 1-1.06-1.06l2.012-2.014c-.774-1.072-.91-2.262-.755-3.287.178-1.172.743-2.2 1.243-2.7l1.5-1.5.056-.051ZM6.03 13.53c-.25.25-.685.973-.82 1.864-.129.85.025 1.78.82 2.576.796.795 1.725.949 2.576.82.89-.135 1.614-.57 1.864-.82l.97-.97L7 12.56l-.97.97ZM20.47 2.47a.75.75 0 1 1 1.06 1.06l-2.014 2.013c.775 1.072.912 2.263.756 3.288-.177 1.172-.742 2.2-1.242 2.7l-1.5 1.5a.75.75 0 0 1-1.06 0l-.47-.47-1.47 1.47a.75.75 0 1 1-1.06-1.061l1.47-1.47-2.44-2.44-1.47 1.47a.75.75 0 1 1-1.06-1.06L11.44 8l-.47-.47a.75.75 0 0 1 0-1.06l1.5-1.5c.5-.5 1.527-1.065 2.699-1.243 1.025-.155 2.215-.019 3.287.755L20.47 2.47Zm-2.5 3.56c-.796-.795-1.726-.949-2.576-.82-.89.135-1.614.57-1.864.82l-.97.97L17 11.44l.97-.97c.25-.25.685-.973.82-1.864.129-.85-.025-1.78-.82-2.576Z"/>
</svg>
