<svg xmlns="http://www.w3.org/2000/svg" fill="none" viewBox="0 0 24 24">
  <path fill="currentColor" d="M2.25 14.6a.75.75 0 0 1 1.5 0c0 1.132 0 1.937.052 2.566.05.62.147 1.005.302 1.31l.125.223c.313.51.76.924 1.295 1.196l.119.056c.286.123.648.203 1.191.247.315.026.673.039 1.095.045l1.471.007.077.004a.75.75 0 0 1 0 1.492l-.077.004-1.495-.007a18.54 18.54 0 0 1-1.193-.05c-.713-.058-1.317-.18-1.868-.46a4.752 4.752 0 0 1-2.076-2.077c-.281-.551-.403-1.155-.461-1.868-.058-.704-.057-1.58-.057-2.688Zm18 0a.75.75 0 0 1 1.5 0c0 1.107 0 1.984-.057 2.688-.058.713-.18 1.317-.46 1.868a4.751 4.751 0 0 1-2.077 2.076c-.551.281-1.155.403-1.868.461-.704.058-1.58.057-2.688.057a.75.75 0 0 1 0-1.5c1.132 0 1.937 0 2.566-.052.62-.05 1.005-.147 1.31-.303l.223-.125a3.25 3.25 0 0 0 1.196-1.294l.056-.119c.123-.286.203-.648.247-1.191.052-.63.052-1.434.052-2.566Zm-11.5-1.064 2.5 1.25v-2.323l-2.5-1.25v2.323Zm4-1.073v2.323l2.5-1.25v-2.323l-2.5 1.25ZM9.677 10 12 11.161 14.323 10 12 8.838 9.677 10ZM2.25 9.4c0-1.107 0-1.983.057-2.688.058-.713.18-1.317.46-1.868a4.752 4.752 0 0 1 2.077-2.076c.551-.281 1.155-.403 1.868-.461.705-.058 1.58-.057 2.688-.057a.75.75 0 0 1 0 1.5c-1.132 0-1.937 0-2.566.052-.543.044-.905.124-1.191.247l-.119.055A3.25 3.25 0 0 0 4.23 5.301l-.125.223c-.155.305-.252.69-.302 1.31-.052.63-.052 1.434-.052 2.566a.75.75 0 0 1-1.5 0Zm18 0c0-1.132 0-1.937-.052-2.566-.044-.543-.124-.905-.247-1.191l-.056-.119A3.25 3.25 0 0 0 18.7 4.23l-.223-.125c-.305-.155-.69-.252-1.31-.302-.63-.052-1.434-.052-2.566-.052a.75.75 0 0 1 0-1.5c1.107 0 1.984 0 2.688.057.713.058 1.317.18 1.868.46a4.752 4.752 0 0 1 2.076 2.077c.281.551.403 1.155.461 1.868.058.705.057 1.58.057 2.688a.75.75 0 0 1-1.5 0Zm-3.5 4.6a.75.75 0 0 1-.415.67l-4 2a.75.75 0 0 1-.67 0l-4-2A.75.75 0 0 1 7.25 14v-4a.75.75 0 0 1 .415-.67l4-2 .08-.035a.75.75 0 0 1 .59.034l4 2a.75.75 0 0 1 .415.671v4Z"/>
</svg>
