<svg xmlns="http://www.w3.org/2000/svg" fill="none" viewBox="0 0 24 24">
  <path fill="currentColor" d="M2.25 12A9.75 9.75 0 0 0 12 21.75 9.75 9.75 0 0 0 21.75 12 9.75 9.75 0 0 0 12 2.25 9.75 9.75 0 0 0 2.25 12ZM12 7.75a.75.75 0 0 1 .75.75v2.194l1.872-1.092a.75.75 0 1 1 .756 1.296L13.488 12l1.89 1.102a.75.75 0 1 1-.756 1.296l-1.872-1.092V15.5a.75.75 0 1 1-1.5 0v-2.194l-1.872 1.092a.751.751 0 0 1-.756-1.296L10.512 12l-1.89-1.102a.75.75 0 0 1 .756-1.296l1.872 1.092V8.5a.75.75 0 0 1 .75-.75Z"/>
</svg>
