<svg xmlns="http://www.w3.org/2000/svg" fill="none" viewBox="0 0 24 24">
  <path fill="currentColor" d="M21.25 12a1.66 1.66 0 0 0-.377-1.053l-.11-.122-7.589-7.588a1.66 1.66 0 0 0-2.348 0l-7.588 7.588a1.664 1.664 0 0 0-.001 2.35l7.589 7.588.12.11a1.663 1.663 0 0 0 1.69.25c.202-.083.384-.206.538-.36l7.59-7.588A1.663 1.663 0 0 0 21.25 12Zm-10 3.5v-2.195l-1.872 1.093-.068.035a.75.75 0 0 1-.687-1.331l1.888-1.103-1.888-1.101a.75.75 0 1 1 .755-1.296l1.873 1.092V8.5a.75.75 0 0 1 1.5 0v2.194l1.872-1.092a.75.75 0 0 1 .755 1.296l-1.89 1.101 1.89 1.103.065.042a.75.75 0 0 1-.752 1.289l-.068-.035-1.872-1.093V15.5a.75.75 0 0 1-1.5 0Zm11.5-3.5a3.16 3.16 0 0 1-.926 2.236l-7.588 7.587a3.16 3.16 0 0 1-4.472 0l-7.587-7.587a3.16 3.16 0 0 1-.107-4.359l.107-.113 7.587-7.587.113-.107a3.16 3.16 0 0 1 4.359.107l7.587 7.587A3.166 3.166 0 0 1 22.75 12Z"/>
</svg>
