<svg xmlns="http://www.w3.org/2000/svg" fill="none" viewBox="0 0 24 24">
  <path fill="currentColor" d="M20.25 12a8.25 8.25 0 1 0-16.5-.001 8.25 8.25 0 0 0 16.5.001Zm-9 3.5v-2.195l-1.872 1.093a.75.75 0 0 1-.756-1.296L10.512 12l-1.89-1.102a.75.75 0 0 1 .688-1.332l.068.037 1.872 1.091V8.5a.75.75 0 0 1 1.5 0v2.194l1.872-1.091a.75.75 0 1 1 .756 1.295L13.488 12l1.89 1.102.064.043a.75.75 0 0 1-.82 1.253l-1.872-1.093V15.5a.75.75 0 0 1-1.5 0Zm10.5-3.5a9.75 9.75 0 1 1-19.502 0 9.75 9.75 0 0 1 19.502 0Z"/>
</svg>
