<svg xmlns="http://www.w3.org/2000/svg" fill="none" viewBox="0 0 24 24">
  <path fill="currentColor" d="M15.25 11.996c0-1.077-.41-1.834-.99-2.332-.595-.511-1.413-.786-2.26-.786-.847 0-1.665.275-2.26.786-.58.498-.99 1.255-.99 2.332 0 1.08.41 1.834.987 2.328.594.508 1.413.779 2.26.776.848-.003 1.668-.28 2.265-.791.58-.498.988-1.25.988-2.313Zm1.513.413c.123 1.972 1.128 2.587 1.737 2.587.65 0 1.75-.7 1.75-3A8.248 8.248 0 0 0 12 3.75a8.248 8.248 0 0 0-8.25 8.246c0 4.411 3.466 8.013 7.825 8.234l.425.011.037.001c1.518.076 3.601-.388 5.282-1.678a.75.75 0 0 1 .913 1.19c-1.99 1.527-4.425 2.075-6.255 1.986-5.373-.012-9.727-4.37-9.727-9.744C2.25 6.612 6.616 2.25 12 2.25s9.75 4.362 9.75 9.746c0 2.7-1.4 4.5-3.25 4.5-1.102 0-2.044-.64-2.626-1.727-.188.25-.4.477-.636.678-.903.775-2.083 1.148-3.235 1.153-1.152.004-2.334-.36-3.24-1.135-.922-.789-1.513-1.965-1.513-3.469 0-1.502.59-2.679 1.51-3.47.905-.777 2.087-1.148 3.24-1.148s2.335.37 3.24 1.148l.01.01v-.538a.75.75 0 0 1 1.5 0v3.998l.013.413Z"/>
</svg>
