<svg xmlns="http://www.w3.org/2000/svg" fill="none" viewBox="0 0 24 24">
  <path fill="currentColor" d="M8.81 3.01c1.016.426 2.094 1.023 3.19 1.768 1.096-.745 2.175-1.342 3.19-1.767 1.115-.468 2.19-.744 3.145-.76.96-.016 1.865.232 2.523.89.66.66.908 1.565.892 2.524-.016.956-.293 2.03-.76 3.145-.426 1.016-1.023 2.095-1.768 3.19.745 1.096 1.342 2.175 1.767 3.19.468 1.115.744 2.189.76 3.145.016.959-.232 1.864-.89 2.523-.66.659-1.565.907-2.524.891-.956-.016-2.03-.292-3.145-.76-1.015-.425-2.094-1.022-3.19-1.767-1.095.745-2.174 1.342-3.19 1.767-1.114.468-2.188.744-3.144.76-.96.016-1.865-.232-2.524-.89-.658-.66-.907-1.565-.89-2.524.015-.956.292-2.03.76-3.145.425-1.015 1.021-2.094 1.766-3.19-.745-1.095-1.34-2.174-1.767-3.19-.468-1.115-.744-2.189-.76-3.145-.016-.959.232-1.864.89-2.523.66-.659 1.565-.907 2.524-.891.956.016 2.03.291 3.145.759ZM4.203 4.204c-.282.282-.464.738-.452 1.437.011.702.22 1.582.643 2.59.327.78.773 1.616 1.327 2.477.694-.89 1.478-1.78 2.342-2.644a29 29 0 0 1 2.644-2.342c-.862-.554-1.697-1-2.477-1.327-1.008-.423-1.888-.632-2.59-.643-.699-.012-1.155.17-1.437.452Zm11.734 3.86a28.988 28.988 0 0 1 2.342 2.644c.554-.861 1-1.697 1.327-2.477.423-1.008.632-1.888.644-2.59.011-.699-.17-1.155-.452-1.437-.282-.282-.739-.464-1.438-.452-.702.011-1.58.22-2.59.643a16.3 16.3 0 0 0-2.477 1.327c.89.694 1.78 1.478 2.644 2.342Zm0 7.874a29.018 29.018 0 0 1-2.644 2.342c.862.554 1.697 1 2.477 1.327 1.008.423 1.888.632 2.59.643.7.012 1.155-.17 1.437-.452.282-.282.464-.738.453-1.437-.012-.702-.22-1.582-.644-2.59a16.296 16.296 0 0 0-1.327-2.477c-.693.89-1.478 1.78-2.342 2.644Zm-7.874 0a29.01 29.01 0 0 1-2.342-2.644c-.554.862-1 1.697-1.327 2.477-.423 1.008-.63 1.888-.643 2.59-.012.699.17 1.155.452 1.437.282.282.74.464 1.438.453.702-.012 1.581-.221 2.59-.644a16.007 16.007 0 0 0 2.476-1.327 29.023 29.023 0 0 1-2.644-2.342Zm3.687-4.687a.75.75 0 1 0 0 1.5h.5a.75.75 0 1 0 0-1.5h-.5Z"/>
</svg>
