<svg xmlns="http://www.w3.org/2000/svg" fill="none" viewBox="0 0 24 24">
  <path fill="currentColor" d="M18.334 2.25c.96-.016 1.865.233 2.524.892s.907 1.564.891 2.524c-.016.956-.292 2.03-.76 3.145-.425 1.015-1.024 2.093-1.769 3.188.745 1.097 1.344 2.175 1.77 3.19.467 1.116.743 2.19.76 3.145.015.96-.234 1.865-.892 2.524-.659.659-1.565.908-2.524.892-.956-.017-2.03-.294-3.144-.761-1.016-.426-2.095-1.024-3.19-1.769-1.096.745-2.174 1.344-3.19 1.77-1.114.467-2.188.744-3.144.76-.959.015-1.864-.233-2.523-.892s-.908-1.564-.892-2.524c.016-.955.293-2.03.76-3.144.426-1.015 1.023-2.094 1.768-3.19-.745-1.095-1.342-2.174-1.768-3.189-.467-1.115-.744-2.19-.76-3.145-.016-.96.233-1.865.892-2.524.658-.659 1.563-.908 2.522-.892.956.017 2.03.294 3.145.761 1.015.426 2.093 1.023 3.19 1.768 1.095-.746 2.174-1.343 3.19-1.769 1.114-.467 2.188-.743 3.144-.76ZM5.722 13.293a16.289 16.289 0 0 0-1.328 2.477c-.423 1.008-.631 1.888-.643 2.59-.011.699.17 1.155.452 1.437.283.282.739.464 1.438.453.702-.012 1.581-.221 2.59-.644a16.28 16.28 0 0 0 2.475-1.328 28.616 28.616 0 0 1-2.643-2.341 28.63 28.63 0 0 1-2.341-2.644Zm12.556 0c-.694.89-1.477 1.78-2.341 2.644a28.619 28.619 0 0 1-2.645 2.34 16.276 16.276 0 0 0 2.478 1.329c1.008.423 1.888.632 2.59.643.698.012 1.155-.17 1.436-.452.282-.282.465-.738.453-1.437-.011-.702-.22-1.581-.643-2.59a16.28 16.28 0 0 0-1.328-2.477ZM12 6.622a26.825 26.825 0 0 0-2.876 2.502 26.82 26.82 0 0 0-2.503 2.875c.717.958 1.555 1.93 2.502 2.877A26.794 26.794 0 0 0 12 17.378a26.797 26.797 0 0 0 2.877-2.5A26.798 26.798 0 0 0 17.378 12a26.807 26.807 0 0 0-2.5-2.875A26.818 26.818 0 0 0 12 6.622Zm.25 4.627.076.004a.75.75 0 0 1 0 1.493l-.076.003h-.5a.75.75 0 0 1 0-1.5h.5ZM5.64 3.75c-.699-.011-1.155.17-1.437.452-.282.282-.463.74-.452 1.438.012.702.22 1.582.643 2.591.327.78.773 1.614 1.327 2.476a28.532 28.532 0 0 1 2.343-2.644 28.645 28.645 0 0 1 2.643-2.342c-.862-.554-1.697-1-2.477-1.327-1.009-.423-1.888-.632-2.59-.644Zm12.72 0c-.702.012-1.582.221-2.59.644-.78.327-1.616.773-2.478 1.327.891.694 1.78 1.478 2.645 2.342a28.627 28.627 0 0 1 2.34 2.643 16.287 16.287 0 0 0 1.329-2.475c.423-1.009.631-1.889.643-2.59.012-.7-.17-1.156-.452-1.438-.282-.283-.739-.464-1.437-.453Z"/>
</svg>
