<svg xmlns="http://www.w3.org/2000/svg" fill="none" viewBox="0 0 24 24">
  <path fill="currentColor" d="M20.25 12a8.249 8.249 0 0 0-8.072-8.246 1.49 1.49 0 0 0-.626.168 1.5 1.5 0 1 0 1.698 2.446l.06-.049a.75.75 0 0 1 .94 1.167l-.14.118a3.002 3.002 0 0 1-2.568.561 3 3 0 0 1-2.084-4.012 8.248 8.248 0 0 0-3.292 2.013A8.25 8.25 0 1 0 20.25 12Zm-5.696 2.398a.75.75 0 0 1 .892 1.204A5.768 5.768 0 0 1 12 16.75a5.757 5.757 0 0 1-3.262-1.016l-.184-.132-.06-.048a.75.75 0 0 1 .889-1.2l.063.044.28.19a4.247 4.247 0 0 0 4.828-.19ZM9 9.25c.484 0 .916.194 1.248.49a.75.75 0 0 1-.996 1.121A.38.38 0 0 0 9 10.75a.38.38 0 0 0-.252.111.75.75 0 0 1-.996-1.122A1.875 1.875 0 0 1 9 9.25Zm6 0c.484 0 .916.194 1.248.49a.75.75 0 0 1-.996 1.121.38.38 0 0 0-.252-.111.38.38 0 0 0-.252.111.75.75 0 0 1-.996-1.122A1.875 1.875 0 0 1 15 9.25ZM21.75 12A9.75 9.75 0 1 1 12 2.25c.048 0 .095.003.143.004.035-.001.071-.004.107-.004.036 0 .072.004.106.009A9.748 9.748 0 0 1 21.75 12Z"/>
</svg>
