<svg xmlns="http://www.w3.org/2000/svg" fill="none" viewBox="0 0 24 24">
  <path fill="currentColor" d="m12.161 2.251.089-.001a.75.75 0 0 1 .095.006C17.57 2.438 21.75 6.731 21.75 12A9.75 9.75 0 0 1 12 21.75 9.75 9.75 0 0 1 2.25 12 9.75 9.75 0 0 1 12 2.25l.161.001ZM9.46 4.15a3 3 0 0 0 4.791 3.337.749.749 0 1 0-1-1.118 1.5 1.5 0 1 1-1.074-2.616 8.3 8.3 0 0 0-2.717.397ZM9 9.25c-.486 0-.916.195-1.247.488a.75.75 0 0 0 .994 1.124A.38.38 0 0 1 9 10.75a.38.38 0 0 1 .253.112.75.75 0 0 0 .994-1.124A1.88 1.88 0 0 0 9 9.25Zm6 0c-.486 0-.916.195-1.247.488a.75.75 0 0 0 .994 1.124.38.38 0 0 1 .253-.112.38.38 0 0 1 .253.112.748.748 0 0 0 1.206-.318.748.748 0 0 0-.212-.806A1.88 1.88 0 0 0 15 9.25Zm-5.553 5.148a.748.748 0 0 0-1.189.413.75.75 0 0 0 .295.791A5.77 5.77 0 0 0 12 16.75a5.77 5.77 0 0 0 3.447-1.148.751.751 0 1 0-.894-1.204A4.27 4.27 0 0 1 12 15.25a4.27 4.27 0 0 1-2.553-.852Z"/>
</svg>
