<svg xmlns="http://www.w3.org/2000/svg" fill="none" viewBox="0 0 24 24">
  <path fill="currentColor" d="M14.464 17.556c0-.84-.65-1.473-1.393-1.473H10.93c-.744 0-1.393.633-1.393 1.473v3.694h4.927v-3.694Zm0-7.223c0-.531-.41-.916-.857-.916h-3.214c-.449 0-.857.384-.857.916s.41.917.857.917h3.214c.448 0 .857-.384.857-.917ZM12 2.75c-1.094 0-2.048.76-2.357 1.833h4.714C14.048 3.51 13.094 2.75 12 2.75Zm3.964 18.5h1.393c.451 0 .829-.134 1.075-.313s.318-.362.318-.493V9.778c0-2.066-1.609-3.695-3.536-3.695H8.786c-1.927 0-3.536 1.629-3.536 3.695v10.666c0 .13.071.314.318.494.247.178.624.312 1.075.312h1.394v-3.694c0-1.616 1.269-2.973 2.893-2.973h2.141c1.623 0 2.893 1.357 2.893 2.973v3.694Zm0-10.917c0 1.309-1.029 2.417-2.357 2.417h-3.214c-1.327 0-2.357-1.11-2.357-2.417 0-1.308 1.03-2.416 2.357-2.416h3.214c1.327 0 2.357 1.108 2.357 2.416Zm4.286 10.111c0 .73-.408 1.324-.936 1.707-.53.385-1.224.599-1.957.599H6.643c-.733 0-1.426-.215-1.955-.599-.529-.383-.938-.977-.938-1.707V9.778c0-2.605 1.872-4.798 4.345-5.146C8.416 2.729 10.022 1.25 12 1.25c1.978 0 3.583 1.479 3.904 3.383 2.474.348 4.346 2.54 4.346 5.145v10.666Z"/>
</svg>
