<svg xmlns="http://www.w3.org/2000/svg" fill="none" viewBox="0 0 24 24">
  <path fill="currentColor" d="M8.25 18.5a1.25 1.25 0 0 0-2.5 0l.006.124A1.25 1.25 0 0 0 8.25 18.5Zm9 0a1.25 1.25 0 1 0-2.5 0 1.25 1.25 0 0 0 2.5 0Zm0-11a.25.25 0 0 0-.25-.25H6a.25.25 0 0 0-.25.25v5a.25.25 0 0 0 .25.25h11a.25.25 0 0 0 .25-.25v-5ZM11.5 4.387c-.435 0-.864.166-1.184.492-.2.204-.374.489-.474.871h3.317a1.92 1.92 0 0 0-.475-.873 1.65 1.65 0 0 0-1.184-.49ZM18.75 18.5a2.75 2.75 0 1 1-5.197-1.25H9.447a2.748 2.748 0 0 1-4.391 3.194 2.75 2.75 0 0 1-.792-1.672L4.25 18.5c0-.439.107-.866.303-1.25H3a.75.75 0 0 1 0-1.5h16a1.25 1.25 0 0 0 1.25-1.25v-11a.75.75 0 0 1 1.5 0v11A2.75 2.75 0 0 1 19 17.25h-.553c.196.384.303.811.303 1.25Zm0-6A1.75 1.75 0 0 1 17 14.25H6a1.75 1.75 0 0 1-1.75-1.75v-5A1.75 1.75 0 0 1 6 5.75h2.31c.129-.784.458-1.435.936-1.922a3.155 3.155 0 0 1 2.254-.941c.815 0 1.636.31 2.254.94.479.486.809 1.138.936 1.923H17a1.75 1.75 0 0 1 1.75 1.75v5Z"/>
</svg>
