<svg xmlns="http://www.w3.org/2000/svg" fill="none" viewBox="0 0 24 24">
  <path fill="currentColor" d="M20.25 19.5a.751.751 0 0 0-.75-.75h-15a.75.75 0 0 0 0 1.5h15a.75.75 0 0 0 .75-.75Zm-7.5-2.25h3.5V9.67h-3.5v7.579Zm-5 0h3.5V9.67h-3.5v7.579ZM12 3.75a.25.25 0 0 0-.111.027L4.126 7.684c-.076.039-.107.082-.123.12a.282.282 0 0 0-.01.17.277.277 0 0 0 .084.147c.03.024.075.05.16.05h15.527c.084 0 .13-.026.159-.05a.277.277 0 0 0 .084-.147.282.282 0 0 0-.01-.17c-.015-.038-.047-.081-.123-.12l-7.763-3.907-.053-.02A.25.25 0 0 0 12 3.75Zm9.75 15.75a2.252 2.252 0 0 1-2.25 2.25h-15a2.25 2.25 0 1 1 0-4.5h1.75V9.67H4.236c-1.857 0-2.423-2.502-.784-3.327l7.764-3.908h.002a1.75 1.75 0 0 1 1.564 0h.002l7.764 3.908c1.64.825 1.073 3.327-.784 3.327H17.75v7.579h1.75a2.25 2.25 0 0 1 2.25 2.25Z"/>
</svg>
