<svg xmlns="http://www.w3.org/2000/svg" fill="none" viewBox="0 0 24 24">
  <path fill="currentColor" d="M20.25 12a8.25 8.25 0 0 0-5.412-7.745c-1.38 4.243.922 8.232 5.287 9.16A8.28 8.28 0 0 0 20.25 12ZM12 3.75a8.25 8.25 0 0 0-7.735 5.385c5.158 1.138 7.942 5.959 6.348 10.995a8.25 8.25 0 0 0 9.009-4.973c.04-.097.076-.195.112-.294-5.158-1.138-7.942-5.958-6.348-10.994A8.246 8.246 0 0 0 12 3.75ZM3.75 12a8.25 8.25 0 0 0 5.093 7.622c.105.044.212.083.32.122 1.379-4.243-.924-8.232-5.289-9.159-.08.464-.124.937-.124 1.415Zm18 0a9.75 9.75 0 1 1-19.502 0 9.75 9.75 0 0 1 19.502 0Z"/>
</svg>
