<svg xmlns="http://www.w3.org/2000/svg" fill="none" viewBox="0 0 24 24">
  <path fill="currentColor" d="M2.25 6.036c0-1.247.4-2.234 1.089-2.898.683-.659 1.584-.933 2.455-.882 1.55.09 3.073 1.212 3.394 3.107h.37l.078.004a.75.75 0 0 1 0 1.492l-.077.004h-2.12a.75.75 0 1 1 0-1.5h.212a2.145 2.145 0 0 0-1.945-1.61c-.504-.03-.98.13-1.327.465-.342.33-.63.898-.63 1.818v5.236h17.25l.078.003a.75.75 0 0 1 0 1.493l-.078.002h-.31c-.005 1.062-.044 2.27-.355 3.347-.348 1.2-1.043 2.288-2.366 2.905l.569 1.745a.75.75 0 1 1-1.427.464l-.57-1.752c-3.024.707-7.167.673-10.138-.005l-.57 1.757a.75.75 0 0 1-1.427-.464l.567-1.745c-1.322-.618-2.018-1.705-2.365-2.905-.361-1.253-.36-2.683-.357-3.853V6.036Z"/>
</svg>
