<svg xmlns="http://www.w3.org/2000/svg" fill="none" viewBox="0 0 24 24">
  <path fill="currentColor" d="M2.25 6.037c0-1.248.4-2.235 1.089-2.9.683-.658 1.583-.932 2.454-.881 1.551.09 3.074 1.211 3.394 3.107h.372l.077.004a.75.75 0 0 1 0 1.492l-.077.004H7.44a.75.75 0 0 1 0-1.5h.211a2.144 2.144 0 0 0-1.945-1.61c-.504-.03-.98.13-1.327.465-.342.33-.63.898-.63 1.819l.001 5.235H21l.077.004a.75.75 0 0 1 0 1.492l-.077.004h-.31c-.005 1.061-.045 2.268-.356 3.346-.347 1.2-1.043 2.287-2.365 2.905l.568 1.744a.75.75 0 0 1-1.398.537l-.028-.072-.571-1.752c-3.024.708-7.167.673-10.138-.006l-.57 1.758a.75.75 0 1 1-1.427-.465l.568-1.744c-1.323-.618-2.02-1.705-2.366-2.906-.386-1.342-.356-2.884-.356-4.095L2.25 6.037Zm1.503 6.735c.005 1.035.042 2.05.296 2.93.297 1.028.866 1.804 2.061 2.153 2.955.837 7.712.88 10.714.002 1.2-.348 1.772-1.125 2.07-2.155.254-.88.29-1.895.296-2.93H3.752Z"/>
</svg>
