<svg xmlns="http://www.w3.org/2000/svg" fill="none" viewBox="0 0 24 24">
  <path fill="currentColor" d="M18.25 8a.25.25 0 0 0-.25-.25H4a.25.25 0 0 0-.25.25v8l.005.049A.25.25 0 0 0 4 16.25h14a.25.25 0 0 0 .25-.25V8Zm-6.114 2.06a.751.751 0 0 1 1.216.88l-2.1 2.906h-.001a.974.974 0 0 1-1.522.07l-1.034-1.18-.047-.06a.75.75 0 0 1 1.123-.984l.053.056.599.684 1.713-2.372ZM20.25 13v-2a.75.75 0 0 1 1.5 0v2a.75.75 0 0 1-1.5 0Zm-.5 3A1.75 1.75 0 0 1 18 17.75H4A1.75 1.75 0 0 1 2.25 16V8A1.75 1.75 0 0 1 4 6.25h14A1.75 1.75 0 0 1 19.75 8v8Z"/>
</svg>
