<svg xmlns="http://www.w3.org/2000/svg" fill="none" viewBox="0 0 24 24">
  <path fill="currentColor" d="M2.25 16V8A1.75 1.75 0 0 1 4 6.25h3.5a.75.75 0 0 1 0 1.5H4a.25.25 0 0 0-.25.25v8l.005.049A.25.25 0 0 0 4 16.25h3.5a.75.75 0 1 1 0 1.5H4A1.75 1.75 0 0 1 2.25 16Zm16 0V8a.25.25 0 0 0-.25-.25h-3.5a.75.75 0 0 1 0-1.5H18A1.75 1.75 0 0 1 19.75 8v8A1.75 1.75 0 0 1 18 17.75h-3.5a.75.75 0 0 1 0-1.5H18a.25.25 0 0 0 .25-.25Zm-7.92-9.336a.75.75 0 0 1 1.342.672L9.714 11.25h3.788a.75.75 0 0 1 .67 1.086l-2.501 5a.75.75 0 0 1-1.342-.672l1.96-3.914H8.5a.75.75 0 0 1-.67-1.086l2.5-5ZM20.25 13v-2a.75.75 0 1 1 1.5 0v2a.75.75 0 0 1-1.5 0Z"/>
</svg>
