<svg xmlns="http://www.w3.org/2000/svg" fill="none" viewBox="0 0 24 24">
  <path fill="currentColor" d="M10.989 6.25H4A1.75 1.75 0 0 0 2.25 8v8c0 .966.784 1.75 1.75 1.75h5.293a.82.82 0 0 1 .036-.086l2.959-4.913H8.5a.75.75 0 0 1-.67-1.086l3.159-5.415Z"/>
  <path fill="currentColor" d="M11.013 17.75H18A1.75 1.75 0 0 0 19.75 16V8A1.75 1.75 0 0 0 18 6.25h-5.292c-.01.029-.023.057-.036.085l-2.958 4.916h3.788a.75.75 0 0 1 .67 1.085l-3.159 5.414ZM21.75 11a.75.75 0 1 0-1.5 0v2a.75.75 0 1 0 1.5 0v-2Z"/>
</svg>
