<svg xmlns="http://www.w3.org/2000/svg" fill="none" viewBox="0 0 24 24">
  <path fill="currentColor" d="M18.25 8a.25.25 0 0 0-.25-.25H4a.25.25 0 0 0-.25.25v8l.005.049A.25.25 0 0 0 4 16.25h14a.25.25 0 0 0 .25-.25V8Zm-6.28 1.97a.75.75 0 1 1 1.06 1.06l-.97.97.97.97.052.056a.75.75 0 0 1-1.056 1.056l-.056-.052-.97-.97-.97.97a.75.75 0 1 1-1.06-1.06l.97-.97-.97-.97-.052-.056a.75.75 0 0 1 1.056-1.056l.056.052.97.97.97-.97ZM20.25 13v-2a.75.75 0 0 1 1.5 0v2a.75.75 0 0 1-1.5 0Zm-.5 3A1.75 1.75 0 0 1 18 17.75H4A1.75 1.75 0 0 1 2.25 16V8A1.75 1.75 0 0 1 4 6.25h14A1.75 1.75 0 0 1 19.75 8v8Z"/>
</svg>
