<svg xmlns="http://www.w3.org/2000/svg" fill="none" viewBox="0 0 24 24">
  <path fill="currentColor" d="M12 2.25c2.269 0 3.817.51 4.831 1.48 1.008.966 1.352 2.26 1.508 3.501.078.625.113 1.272.147 1.888.036.627.072 1.225.148 1.796.143 1.075.42 1.956 1.014 2.62l.123.13c.588.584 1.028 1.485.975 2.334-.028.449-.2.916-.602 1.264-.396.34-.924.487-1.511.487h-2.896c-.07.813-.27 1.653-.696 2.36-.592.98-1.589 1.64-3.042 1.64-1.453 0-2.45-.66-3.042-1.64-.426-.707-.625-1.547-.696-2.36H5.366c-.596 0-1.13-.148-1.526-.497-.404-.355-.566-.831-.587-1.28-.04-.846.405-1.743.975-2.309l.123-.13c.594-.663.871-1.544 1.014-2.619.076-.572.112-1.17.147-1.796.034-.616.07-1.263.148-1.888.156-1.24.5-2.535 1.507-3.5 1.014-.972 2.562-1.481 4.832-1.481Zm-2.23 15.5c.065.61.216 1.16.471 1.584.325.538.84.916 1.758.916.919 0 1.433-.378 1.758-.916.255-.423.406-.975.472-1.584h-4.46Zm2.23-14c-2.072 0-3.172.466-3.796 1.063-.63.604-.913 1.472-1.056 2.605a26.71 26.71 0 0 0-.138 1.785c-.035.62-.073 1.273-.157 1.91-.17 1.27-.54 2.593-1.568 3.614-.343.342-.55.848-.534 1.176.007.14.048.195.08.224.04.035.176.123.535.123h13.267c.35 0 .487-.086.53-.123.036-.03.078-.087.086-.222.02-.317-.174-.818-.535-1.178-1.028-1.02-1.398-2.343-1.567-3.614a25.256 25.256 0 0 1-.158-1.909 26.69 26.69 0 0 0-.138-1.786c-.143-1.133-.427-2.001-1.057-2.605-.624-.597-1.724-1.063-3.795-1.063Zm1.5 5.77L12 8.429 10.5 9.52v1.98a.25.25 0 0 0 .25.25h2.5a.25.25 0 0 0 .25-.25V9.52ZM15 11.5a1.75 1.75 0 0 1-1.75 1.75h-2.5A1.75 1.75 0 0 1 9 11.5V9.14a.75.75 0 0 1 .309-.606l2.25-1.64.102-.063a.75.75 0 0 1 .78.063l2.25 1.64A.75.75 0 0 1 15 9.14v2.36Z"/>
</svg>
