<svg xmlns="http://www.w3.org/2000/svg" fill="none" viewBox="0 0 24 24">
  <path fill="currentColor" d="M20.47 2.47a.75.75 0 1 1 1.06 1.06l-3.258 3.257c.094.56.142 1.135.177 1.693.045.713.07 1.38.138 2.043.127 1.24.39 2.252 1.048 2.996l.136.145c.588.585 1.028 1.486.975 2.335-.028.449-.2.916-.604 1.264-.395.34-.922.487-1.51.487h-2.894c-.07.813-.27 1.653-.696 2.36-.592.98-1.589 1.64-3.042 1.64-1.453 0-2.45-.66-3.042-1.64-.427-.707-.625-1.547-.696-2.36H7.31l-3.78 3.78a.75.75 0 1 1-1.06-1.06L16.919 6.02l.01-.011 3.54-3.54ZM9.77 17.75c.065.61.216 1.16.472 1.584.325.538.84.916 1.758.916.919 0 1.433-.378 1.758-.916.255-.423.406-.975.471-1.584H9.77Zm-.96-1.5h9.823c.35 0 .487-.086.53-.123.036-.03.078-.087.086-.222.02-.317-.174-.818-.535-1.178-1.143-1.135-1.475-2.645-1.62-4.05-.071-.702-.1-1.438-.142-2.102l-.032-.435-8.11 8.11Zm-3.974-.81a.75.75 0 0 1-1.412-.507l1.412.507ZM12 2.25c1.636 0 2.895.263 3.854.776a.75.75 0 0 1-.638 1.356l-.07-.032-.265-.13c-.657-.285-1.577-.47-2.881-.47-2.07 0-3.17.466-3.794 1.063-.63.604-.915 1.472-1.058 2.605a26.71 26.71 0 0 0-.138 1.785 25.29 25.29 0 0 1-.158 1.91c-.169 1.27-.54 2.59-1.565 3.61l.001.002a1.95 1.95 0 0 0-.452.715l-.706-.255-.706-.252c.17-.476.445-.908.8-1.266l.003-.003c.681-.676.986-1.602 1.14-2.749.075-.571.11-1.17.146-1.796.034-.616.069-1.264.147-1.889.156-1.24.5-2.535 1.508-3.5C8.182 2.76 9.73 2.25 12 2.25Z"/>
</svg>
