<svg xmlns="http://www.w3.org/2000/svg" fill="none" viewBox="0 0 24 24">
  <path fill="currentColor" d="M6.65 3.189C7.86 2.03 9.63 1.5 12 1.5c2.368 0 4.14.53 5.35 1.689.44.421.77.892 1.017 1.383L20.47 2.47a.749.749 0 1 1 1.06 1.06l-2.616 2.617c.075.337.128.67.17.99.078.628.114 1.274.147 1.862l.004.078c.036.63.07 1.2.141 1.74.145 1.084.417 1.812.924 2.315.701.697 1.264 1.799 1.194 2.914-.038.604-.274 1.278-.86 1.784-.574.494-1.296.67-2 .67h-2.238c-.119.678-.336 1.373-.713 1.997C14.957 21.698 13.72 22.5 12 22.5c-1.72 0-2.958-.802-3.683-2.003-.377-.624-.595-1.319-.713-1.997H6.561l-3.03 3.03a.75.75 0 0 1-1.06-1.06l2.06-2.06a2.7 2.7 0 0 1-1.186-.594c-.59-.52-.813-1.206-.842-1.807-.052-1.106.513-2.198 1.196-2.877.507-.503.78-1.231.923-2.316.072-.539.106-1.108.142-1.739L4.768 9c.033-.588.07-1.234.148-1.861.163-1.296.536-2.803 1.733-3.95Z"/>
</svg>
