<svg xmlns="http://www.w3.org/2000/svg" fill="none" viewBox="0 0 24 24">
  <path fill="currentColor" d="M20.498 16.106c0-1.6-1.292-2.894-2.882-2.894a2.887 2.887 0 0 0-2.867 2.597l-.015.297.015.295a2.887 2.887 0 0 0 2.867 2.597 2.887 2.887 0 0 0 2.882-2.893m-7.268-3.374a4.199 4.199 0 0 1-1.23.183c-.475 0-.886-.076-1.23-.183v2.016c.027.017.057.034.09.052.244.123.624.257 1.14.257.516 0 .896-.134 1.14-.257.032-.018.063-.035.09-.052v-2.016Zm-9.728 3.374c0 1.6 1.292 2.892 2.882 2.892a2.887 2.887 0 0 0 2.882-2.893c0-1.6-1.293-2.893-2.882-2.893a2.89 2.89 0 0 0-2.882 2.894Zm7.268-5.004a.94.94 0 0 0 .09.052 2.51 2.51 0 0 0 1.14.256 2.51 2.51 0 0 0 1.14-.256l.09-.05V6.157c0-.884.25-1.62.783-2.108s1.22-.608 1.847-.529c1.133.145 2.326.968 2.888 2.125l.104.237.017.048.006.017.017.054.065.203c.34 1.064.682 2.126 1.028 3.188.59 1.811 1.284 3.902 1.745 5.186l.01.026.05.146.024.073.005.028a4.39 4.39 0 0 1-4.203 5.65 4.39 4.39 0 0 1-4.377-4.127 4.14 4.14 0 0 1-1.24.185c-.478 0-.893-.077-1.24-.185a4.39 4.39 0 0 1-4.375 4.127 4.391 4.391 0 0 1-4.175-5.75l.05-.147.01-.026c.462-1.284 1.155-3.375 1.746-5.186a598.5 598.5 0 0 0 1.028-3.188l.065-.203.017-.054.004-.012.018-.053c.506-1.28 1.784-2.207 2.993-2.362.626-.08 1.314.04 1.847.53.533.486.783 1.223.783 2.107V11.1Z"/>
</svg>
