<svg xmlns="http://www.w3.org/2000/svg" fill="none" viewBox="0 0 24 24">
  <path fill="currentColor" d="M9.268 6.16c0-.617-.17-.887-.294-1-.124-.114-.328-.189-.644-.148-.672.085-1.475.655-1.78 1.41a.263.263 0 0 1-.01.037l-.065.205a585.477 585.477 0 0 1-1.032 3.195c-.229.703-.478 1.45-.72 2.18a4.388 4.388 0 0 1 1.66-.33h.002a4.39 4.39 0 0 1 2.883 1.088V6.16Zm-2.884 7.05A2.89 2.89 0 0 0 3.5 16.104v.002A2.89 2.89 0 0 0 6.384 19a2.89 2.89 0 0 0 2.884-2.893v-.002a2.89 2.89 0 0 0-2.884-2.894Zm11.232 0a2.89 2.89 0 0 0-2.884 2.894v.002l.014.285A2.89 2.89 0 0 0 17.616 19a2.889 2.889 0 0 0 2.884-2.893v-.002a2.891 2.891 0 0 0-2.884-2.894Zm-4.384-.479a4.144 4.144 0 0 1-1.232.183c-.476 0-.888-.076-1.232-.183v2.02c.028.016.058.035.091.052.244.123.624.256 1.141.256s.897-.133 1.14-.256c.034-.017.064-.036.092-.052v-2.02Zm-2.464-1.626c.028.017.058.036.091.053.244.123.624.256 1.141.256s.897-.133 1.14-.256c.034-.017.064-.036.092-.053V6.16c0-.884.25-1.62.782-2.107.532-.488 1.22-.61 1.845-.53 1.133.145 2.326.969 2.887 2.126l.104.236.016.048h.001l.001.004.004.013.018.054.064.203.24.747c.201.63.481 1.494.79 2.44.617 1.894 1.346 4.095 1.806 5.359a4.391 4.391 0 0 1 .21 1.352l-.005.216a4.391 4.391 0 0 1-4.378 4.179h-.002a4.392 4.392 0 0 1-4.375-4.127c-.346.108-.76.186-1.24.186s-.895-.078-1.241-.186A4.39 4.39 0 0 1 6.385 20.5h-.002A4.39 4.39 0 0 1 2 16.104a4.39 4.39 0 0 1 .21-1.351c.46-1.264 1.189-3.465 1.807-5.36.308-.945.588-1.81.79-2.439l.239-.747.064-.203.018-.054.004-.013v-.004h.002a.751.751 0 0 1 .016-.048c.506-1.28 1.783-2.207 2.99-2.362.626-.08 1.314.042 1.846.53.532.487.782 1.223.782 2.107v4.945Zm3.964 1.692a4.39 4.39 0 0 1 2.883-1.087h.002c.575 0 1.138.114 1.66.328-.243-.73-.491-1.476-.72-2.179a601.689 601.689 0 0 1-1.032-3.195l-.065-.205-.012-.036c-.305-.756-1.107-1.326-1.778-1.411-.316-.04-.52.034-.644.147-.123.114-.294.384-.294 1.001v6.637Z"/>
</svg>
