<svg xmlns="http://www.w3.org/2000/svg" fill="none" viewBox="0 0 24 24">
  <path fill="currentColor" d="M20.25 12a8.25 8.25 0 1 0-16.5-.001 8.25 8.25 0 0 0 16.5.001Zm-5 2A1.25 1.25 0 0 0 14 12.75H9.75v2.5H14A1.25 1.25 0 0 0 15.25 14Zm-1-4a1.25 1.25 0 0 0-1.126-1.244L13 8.75H9.75v2.5H13A1.25 1.25 0 0 0 14.25 10Zm7.5 2a9.75 9.75 0 1 1-19.502 0 9.75 9.75 0 0 1 19.502 0Zm-6-2c0 .561-.174 1.103-.487 1.559A2.744 2.744 0 0 1 16.75 14 2.75 2.75 0 0 1 14 16.75h-1.25V18a.75.75 0 0 1-1.5 0v-1.25H9a.75.75 0 0 1-.75-.75V8A.75.75 0 0 1 9 7.25h2.25V6a.75.75 0 0 1 1.5 0v1.25H13A2.75 2.75 0 0 1 15.75 10Z"/>
</svg>
