<svg xmlns="http://www.w3.org/2000/svg" fill="none" viewBox="0 0 24 24">
  <path fill="currentColor" d="M9.75 11.25v-2.5H13a1.25 1.25 0 0 1 0 2.5H9.75Zm0 4v-2.5H14a1.25 1.25 0 0 1 0 2.5H9.75Z"/>
  <path fill="currentColor" d="M10.79 1.49a3.16 3.16 0 0 1 3.445.687l7.588 7.588a3.16 3.16 0 0 1 0 4.47l-7.588 7.588a3.16 3.16 0 0 1-4.47 0l-7.588-7.588a3.16 3.16 0 0 1 0-4.47l7.588-7.589a3.2 3.2 0 0 1 1.025-.685m1.96 4.51a.75.75 0 0 0-1.5 0v1.25H9a.75.75 0 0 0-.75.75v8c0 .413.336.75.75.75h2.25V18a.75.75 0 1 0 1.5 0v-1.25H14a2.75 2.75 0 0 0 1.266-5.193A2.751 2.751 0 0 0 13 7.25h-.25V6Z"/>
</svg>
