<svg xmlns="http://www.w3.org/2000/svg" fill="none" viewBox="0 0 24 24">
  <path fill="currentColor" d="M17.25 15.375c0-1.472-1.151-2.625-2.523-2.625H8.932V18h5.795c1.372 0 2.523-1.153 2.523-2.625Zm-1.09-6.75C16.16 7.153 15.007 6 13.635 6H8.932v5.25h4.704c1.372 0 2.523-1.153 2.523-2.625Zm1.5 0a4.171 4.171 0 0 1-1.262 2.997c1.395.654 2.352 2.099 2.352 3.753 0 2.256-1.78 4.125-4.023 4.125h-.341V21a.75.75 0 1 1-1.5 0v-1.5h-2.863V21a.75.75 0 0 1-1.5 0v-1.5H6A.75.75 0 0 1 6 18h1.432V6H6a.75.75 0 0 1 0-1.5h2.523V3a.75.75 0 1 1 1.5 0v1.5h2.863V3a.75.75 0 0 1 1.5 0v1.572c1.877.362 3.273 2.055 3.273 4.053Z"/>
</svg>
