<svg xmlns="http://www.w3.org/2000/svg" fill="none" viewBox="0 0 24 24">
  <path fill="currentColor" d="M9.75 11.25v-2.5H13a1.25 1.25 0 0 1 0 2.5H9.75Zm0 4v-2.5H14a1.25 1.25 0 0 1 0 2.5H9.75Z"/>
  <path fill="currentColor" d="M2.25 12A9.75 9.75 0 0 1 12 2.25 9.75 9.75 0 0 1 21.75 12 9.75 9.75 0 0 1 12 21.75 9.75 9.75 0 0 1 2.25 12Zm10.5-6a.75.75 0 1 0-1.5 0v1.25H9a.75.75 0 0 0-.75.75v8c0 .414.336.75.75.75h2.25V18a.75.75 0 1 0 1.5 0v-1.25H14a2.75 2.75 0 0 0 1.266-5.192A2.75 2.75 0 0 0 13 7.25h-.25V6Z"/>
</svg>
