<svg xmlns="http://www.w3.org/2000/svg" fill="none" viewBox="0 0 24 24">
  <path fill="currentColor" d="m11.37 10.665-4.397-3.57a.75.75 0 1 0-.946 1.165l4.938 4.009-4.966 4.456A.75.75 0 1 0 7 17.84l4.368-3.92v5.98c0 .247 0 .484.018.675.018.18.062.492.288.748.258.292.633.442 1.01.426.322-.014.575-.176.727-.284.158-.113.342-.27.54-.44l3.608-3.083c.103-.088.213-.182.3-.27a1.24 1.24 0 0 0 .298-.453 1.2 1.2 0 0 0-.011-.844 1.241 1.241 0 0 0-.31-.444 4.527 4.527 0 0 0-.307-.263l-4.256-3.456L17.62 8.31c.096-.087.2-.18.282-.267.09-.097.21-.24.28-.442a1.2 1.2 0 0 0-.01-.821c-.076-.2-.198-.34-.291-.435a5.019 5.019 0 0 0-.29-.26l-3.64-3.112a9.04 9.04 0 0 0-.54-.44c-.152-.107-.405-.27-.727-.283a1.27 1.27 0 0 0-1.01.426c-.226.256-.27.567-.288.748-.018.19-.018.428-.018.675v6.565Z"/>
</svg>
