<svg xmlns="http://www.w3.org/2000/svg" fill="none" viewBox="0 0 24 24">
  <path fill="currentColor" d="M12.803 2.262c.266.042.475.178.608.273.165.117.357.282.563.458l3.602 3.08c.104.088.216.182.305.272.093.094.215.235.29.433l.004.007c.095.257.101.546.008.815v.001c-.07.2-.188.345-.28.442a3.048 3.048 0 0 1-.144.142l-.154.14-4.332 3.886 4.239 3.442c.11.09.23.187.325.277.073.07.167.169.242.3l.069.145v.001c.103.267.11.564.01.842v.001a1.24 1.24 0 0 1-.298.451 4.977 4.977 0 0 1-.316.285l-.001.002-3.57 3.05v-.002c-.205.176-.396.342-.56.46a1.444 1.444 0 0 1-.61.273l-.117.012a1.283 1.283 0 0 1-.906-.322l-.104-.104c-.227-.256-.272-.568-.29-.75-.018-.198-.017-.447-.017-.706V13.92l-4.368 3.921a.75.75 0 0 1-1.002-1.116l4.965-4.457L6.027 8.26l-.057-.052a.75.75 0 0 1 .94-1.158l.062.046 4.396 3.57V4.131c0-.259-.001-.508.018-.707.017-.181.062-.493.289-.749l.104-.104a1.278 1.278 0 0 1 .906-.322l.117.012Zm.066 17.713.13-.11 3.567-3.048-3.697-3.002v6.16Zm0-9.416 3.73-3.348L13 4.133l-.13-.11v6.536Z"/>
</svg>
