<svg xmlns="http://www.w3.org/2000/svg" fill="none" viewBox="0 0 24 24">
  <path fill="currentColor" d="M13.642 19.834c1.216-.425 2.709-.417 3.92.088l.243.093a4.002 4.002 0 0 0 1.597.225c.563-.042.915-.216 1.063-.367a.75.75 0 0 1 1.07 1.05c-.498.508-1.257.756-2.02.813a5.564 5.564 0 0 1-2.53-.43c-.848-.354-1.96-.367-2.853-.054l-.006.002a6.58 6.58 0 0 1-4.252 0l-.006-.002c-.836-.293-1.866-.3-2.692-.007l-.162.063a5.565 5.565 0 0 1-2.53.428c-.762-.058-1.52-.306-2.018-.811l1.068-1.052c.149.151.502.325 1.065.367a4.065 4.065 0 0 0 1.837-.317l.23-.089c1.168-.415 2.551-.399 3.692 0l.2.064a5.08 5.08 0 0 0 3.084-.064Zm-11.168.03a.75.75 0 0 1 1.06.009l-1.068 1.052a.75.75 0 0 1 .008-1.06ZM17.55 7.747a1.25 1.25 0 0 0-1.25-1.25H7.7a1.25 1.25 0 0 0-1.25 1.25V10.5l4.667-1.583.217-.064a2.75 2.75 0 0 1 1.549.064L17.55 10.5V7.747ZM13.05 4.8a1.05 1.05 0 0 0-.947-1.045L12 3.75a1.05 1.05 0 0 0-1.05 1.05v.197h2.1V4.8Zm1.5.197h1.75a2.75 2.75 0 0 1 2.75 2.75v3.291a2.75 2.75 0 0 1 1.146 1.063c.335.566.455 1.235.34 1.882l-.598 3.342a.75.75 0 0 1-1.476-.264l.596-3.342a1.25 1.25 0 0 0-.829-1.404h-.002l-5.826-1.978a1.25 1.25 0 0 0-.803 0L5.94 12.256l-.169.059a1.25 1.25 0 0 0-.844 1.293l.014.11.597 3.345.01.076a.75.75 0 0 1-1.469.261l-.018-.074-.596-3.343-.032-.244a2.748 2.748 0 0 1 1.517-2.701v-3.29a2.75 2.75 0 0 1 2.75-2.75h1.75V4.8A2.55 2.55 0 0 1 12 2.25l.252.013A2.55 2.55 0 0 1 14.55 4.8v.197Z"/>
</svg>
