<svg xmlns="http://www.w3.org/2000/svg" fill="none" viewBox="0 0 24 24">
  <path fill="currentColor" d="M8.17 2.25h9.23c.667 0 1.336.109 1.803.593.46.478.547 1.14.547 1.757v11.8c0 .543-.072 1.077-.35 1.509-.16.25-.385.45-.65.583v.908c0 .666-.108 1.335-.591 1.802-.478.462-1.14.548-1.757.548H5.75a1.5 1.5 0 0 1-1.5-1.5V6.017c-.003-.498-.006-1.12.13-1.687.167-.692.552-1.363 1.37-1.78.339-.172.695-.24 1.075-.27.365-.03.81-.03 1.345-.03Zm-2.42 18h10.652c.547 0 .683-.096.714-.126.025-.024.134-.155.134-.724v-.65h-10a1.5 1.5 0 0 0-1.5 1.5Z"/>
</svg>
