<svg xmlns="http://www.w3.org/2000/svg" fill="none" viewBox="0 0 24 24">
  <path fill="currentColor" fill-rule="evenodd" d="M17.4 2.25H8.17c-.535 0-.98 0-1.345.03-.38.03-.736.098-1.074.27-.819.417-1.204 1.088-1.37 1.78-.137.567-.134 1.189-.13 1.687V20.25a1.5 1.5 0 0 0 1.5 1.5h10.651c.617 0 1.28-.086 1.757-.548.483-.467.591-1.136.591-1.802v-.908a1.65 1.65 0 0 0 .65-.583c.278-.432.35-.966.35-1.509V4.6c0-.617-.087-1.279-.547-1.757-.467-.484-1.136-.593-1.803-.593Zm-.998 18H5.75a1.5 1.5 0 0 1 1.5-1.5h10v.65c0 .569-.109.7-.134.724-.03.03-.167.126-.714.126Zm-4.366-6.478a13.71 13.71 0 0 1-.193-.015 12.407 12.407 0 0 1-.192-.028c-.721-.109-1.983-.355-2.522-.804a2.233 2.233 0 0 1-.111-.099s-.323-.384-.397-.543a1.61 1.61 0 0 1-.143-.527c-.019-.19-.012-.687-.012-.687-.001-.487.04-.99.41-1.418a.195.195 0 0 1-.087.027c-.217.008-.285-.488-.294-.722l-.001-.017v-.02l.006-.804c.007-.717.503-.961.928-.957.233.002.599.217.923.408.23.135.44.26.573.288a.263.263 0 0 0 .052.007h.026a2.02 2.02 0 0 0 .32-.023c.153-.018.335-.04.716-.037l.069.001a6.831 6.831 0 0 1 .4.02 4.666 4.666 0 0 1 .394.07l.068.014c.372.08.545.142.69.193a2.019 2.019 0 0 0 .307.093l.025.006a.262.262 0 0 0 .053.006c.136 0 .374-.076.628-.157.358-.114.757-.242.985-.192.414.09.845.438.692 1.138l-.17.786a.4.4 0 0 1-.006.02l-.007.027c-.061.226-.234.684-.443.628a.196.196 0 0 1-.08-.046c.267.5.196 1 .087 1.474l-.164.668c-.06.182-.147.342-.255.482-.108.139-.508.442-.508.442a2.325 2.325 0 0 1-.13.071c-.625.32-1.91.28-2.637.227Z" clip-rule="evenodd"/>
</svg>
