<svg xmlns="http://www.w3.org/2000/svg" fill="none" viewBox="0 0 24 24">
  <path fill="currentColor" d="M17.25 19.4v-.65h-10a1.5 1.5 0 0 0-1.493 1.352l-.007.148h10.653c.546 0 .683-.096.714-.126.025-.024.133-.155.133-.724ZM13.5 9.52 12 8.429 10.5 9.52v1.98a.25.25 0 0 0 .25.25h2.5a.25.25 0 0 0 .25-.25V9.52Zm4.75-4.92c0-.547-.096-.684-.127-.715-.024-.025-.154-.135-.723-.135H8.2c-.572 0-.957 0-1.252.024-.287.024-.424.067-.515.113-.344.175-.505.427-.594.794-.101.42-.089.906-.089 1.52v11.454a2.997 2.997 0 0 1 1.5-.405h10.153c.193 0 .347-.014.466-.034.223-.04.256-.1.27-.121.042-.065.111-.243.111-.695V4.6ZM15 11.5a1.75 1.75 0 0 1-1.75 1.75h-2.5A1.75 1.75 0 0 1 9 11.5V9.14a.75.75 0 0 1 .309-.606l2.25-1.64.103-.063a.75.75 0 0 1 .78.063l2.25 1.64A.75.75 0 0 1 15 9.14v2.36Zm4.75 4.9c0 .544-.072 1.078-.35 1.51a1.647 1.647 0 0 1-.65.58v.91c0 .666-.108 1.335-.591 1.802-.478.461-1.14.548-1.756.548H5.75a1.5 1.5 0 0 1-1.5-1.5V6.2c0-.522-.023-1.232.13-1.87.167-.691.552-1.363 1.371-1.78.337-.172.695-.24 1.075-.27.37-.031.827-.03 1.375-.03H17.4c.666 0 1.337.11 1.803.594.46.477.547 1.14.547 1.756v11.8Z"/>
</svg>
