<svg xmlns="http://www.w3.org/2000/svg" fill="none" viewBox="0 0 24 24">
  <path fill="currentColor" d="M12 17.372c.332 0 .657.098.935.28l3.947 2.56a.2.2 0 0 0 .226.007.296.296 0 0 0 .142-.267V3.942c0-.095-.03-.16-.053-.192H6.803a.337.337 0 0 0-.053.192v16.01c0 .134.066.222.142.267a.203.203 0 0 0 .226-.007l3.947-2.56a1.71 1.71 0 0 1 .935-.28ZM13.25 9a1.25 1.25 0 0 0-1.126-1.244L12 7.75A1.25 1.25 0 1 0 13.25 9Zm1.5 0c0 .699-.268 1.367-.744 1.876.191.11.374.237.545.383.733.629 1.199 1.563 1.199 2.741a.75.75 0 0 1-1.5 0c0-.752-.284-1.266-.676-1.602-.408-.35-.977-.543-1.574-.543-.597 0-1.166.193-1.574.543-.392.336-.676.85-.676 1.602a.75.75 0 0 1-1.5 0c0-1.178.466-2.112 1.2-2.741.17-.146.352-.273.543-.383A2.747 2.747 0 0 1 12 6.25l.271.014A2.75 2.75 0 0 1 14.75 9Zm4 10.952c0 1.351-1.468 2.31-2.686 1.52l-3.946-2.563-.003-.002a.209.209 0 0 0-.055-.026l-.06-.009a.21.21 0 0 0-.115.035l-.004.002-3.945 2.56c-1.218.792-2.686-.166-2.686-1.517V3.942c0-.765.521-1.692 1.5-1.692h10.5c.979 0 1.5.927 1.5 1.692v16.01Z"/>
</svg>
