<svg xmlns="http://www.w3.org/2000/svg" fill="none" viewBox="0 0 24 24">
  <path fill="currentColor" d="M17.25 18.75h-10a1.5 1.5 0 0 0-1.5 1.5h10.652c.547 0 .683-.096.714-.126.025-.024.134-.155.134-.724v-.65Zm1-11.94L7.81 17.25h9.592c.193 0 .346-.014.466-.034.224-.04.258-.1.272-.121.041-.065.11-.244.11-.695V6.81Zm1.5 9.59c0 .544-.072 1.078-.35 1.51a1.647 1.647 0 0 1-.65.58v.91c0 .666-.109 1.335-.592 1.802-.477.461-1.14.548-1.756.548H5.75a1.5 1.5 0 0 1-1.421-1.02l-.799.8a.75.75 0 1 1-1.06-1.06l1.78-1.78V6.2c0-.522-.024-1.232.13-1.87.166-.692.552-1.363 1.372-1.78.337-.172.693-.24 1.073-.27.371-.031.828-.03 1.375-.03h9.2c.667 0 1.336.11 1.803.594.157.162.267.347.349.543l.918-.917a.75.75 0 1 1 1.06 1.06l-1.78 1.78V16.4Zm-14 .79 12.5-12.5V4.6c0-.545-.095-.683-.126-.715-.024-.025-.155-.135-.724-.135H8.2c-.572 0-.957 0-1.253.024-.287.024-.424.067-.514.113-.345.175-.506.427-.594.794-.101.42-.09.906-.09 1.52V17.19Z"/>
</svg>
