<svg xmlns="http://www.w3.org/2000/svg" fill="none" viewBox="0 0 24 24">
  <path fill="currentColor" d="M12 17.372c.332 0 .657.098.935.28l3.947 2.56a.2.2 0 0 0 .226.007.296.296 0 0 0 .142-.267V7.811l-10.5 10.5v1.641c0 .134.066.222.142.267a.203.203 0 0 0 .226-.007l3.946-2.56a1.71 1.71 0 0 1 .936-.28Zm5.25-13.43c0-.095-.03-.16-.053-.192H6.803a.337.337 0 0 0-.053.192V16.19l10.5-10.5V3.942Zm1.5.247 1.72-1.72a.75.75 0 1 1 1.06 1.061l-2.78 2.78v13.642c0 1.351-1.468 2.31-2.686 1.52l-3.946-2.563-.003-.002a.212.212 0 0 0-.055-.026l-.06-.009a.21.21 0 0 0-.115.035l-.004.002-3.946 2.56c-1.217.792-2.685-.166-2.685-1.517v-.142l-1.72 1.72a.75.75 0 1 1-1.06-1.06l2.78-2.78V3.941c0-.765.521-1.692 1.5-1.692h10.5c.979 0 1.5.927 1.5 1.692v.247Z"/>
</svg>
