<svg xmlns="http://www.w3.org/2000/svg" fill="none" viewBox="0 0 24 24">
  <path fill="currentColor" d="M17.25 19.4v-.65h-10a1.5 1.5 0 0 0-1.493 1.352l-.007.148h10.653c.546 0 .683-.096.714-.126.025-.024.133-.155.133-.724Zm-4-10.4a1.25 1.25 0 1 0-2.5 0 1.25 1.25 0 0 0 2.5 0Zm5-4.4c0-.547-.096-.684-.127-.715-.024-.025-.154-.135-.723-.135H8.2c-.572 0-.957 0-1.252.024-.287.024-.424.067-.515.113-.344.175-.505.427-.594.794-.101.42-.089.906-.089 1.52v11.454a2.997 2.997 0 0 1 1.5-.405h10.153c.193 0 .347-.014.466-.034.223-.04.256-.1.27-.121.042-.065.111-.243.111-.695V4.6ZM14.75 9c0 .699-.268 1.367-.744 1.876.191.11.375.237.545.383.733.629 1.2 1.563 1.2 2.741a.75.75 0 0 1-1.5 0c0-.752-.284-1.266-.676-1.602-.408-.35-.977-.543-1.575-.543-.597 0-1.166.193-1.574.543-.392.336-.676.85-.676 1.602a.75.75 0 0 1-1.5 0c0-1.178.467-2.112 1.2-2.741.17-.146.352-.273.544-.383A2.747 2.747 0 0 1 12 6.25 2.75 2.75 0 0 1 14.75 9Zm5 7.4c0 .544-.072 1.078-.35 1.51a1.647 1.647 0 0 1-.65.58v.91c0 .666-.108 1.335-.591 1.802-.478.461-1.14.548-1.756.548H5.75a1.5 1.5 0 0 1-1.5-1.5V6.2c0-.522-.023-1.232.13-1.87.167-.691.552-1.363 1.371-1.78.337-.172.695-.24 1.075-.27.37-.031.827-.03 1.375-.03H17.4c.666 0 1.337.11 1.803.594.46.477.547 1.14.547 1.756v11.8Z"/>
</svg>
