<svg xmlns="http://www.w3.org/2000/svg" fill="none" viewBox="0 0 24 24">
  <path fill="currentColor" d="M20.25 6.6c0-.546-.096-.683-.126-.715-.024-.025-.155-.135-.724-.135h-2.6c-.852 0-1.447 0-1.91.038-.454.037-.715.106-.913.207-.635.324-.933.807-1.085 1.439-.118.492-.14 1.036-.142 1.636v8.708a5.37 5.37 0 0 1 .688-.617c.838-.62 1.82-.911 3.131-.911h2.833c.292 0 .466 0 .595-.01.12-.01.133-.025.115-.016l.002-.001a.157.157 0 0 0 .062-.047.312.312 0 0 0 .04-.105c.037-.156.034-.343.034-.67V6.6Zm-16.5 8.8c0 .33-.004.516.034.672a.293.293 0 0 0 .041.104.17.17 0 0 0 .061.047h.008a.73.73 0 0 0 .11.016c.128.01.303.011.594.011H7.43c1.311 0 2.293.29 3.131.911.246.182.472.39.689.617v-7.96l-.001-.018v-.726c-.003-.602-.024-1.147-.143-1.64-.152-.632-.45-1.115-1.084-1.439-.197-.1-.459-.17-.913-.207C8.647 5.75 8.052 5.75 7.2 5.75H4.6c-.569 0-.7.11-.723.135-.03.031-.127.169-.127.715v8.8Zm18 0c0 .24.015.65-.075 1.023-.103.426-.352.867-.88 1.137l-.001-.001a1.77 1.77 0 0 1-.675.174c-.204.017-.45.017-.717.017H16.57c-1.066 0-1.714.228-2.24.616-.561.416-1.045 1.058-1.703 2.045a.729.729 0 0 1-.113.133.74.74 0 0 1-.083.07l-.038.023a.745.745 0 0 1-.076.04.75.75 0 0 1-.205.063l-.024.004a.755.755 0 0 1-.087.006L12 20.749h-.005a.731.731 0 0 1-.08-.005c-.014-.001-.027-.004-.041-.007l-.028-.005a.74.74 0 0 1-.13-.039l-.02-.01a.754.754 0 0 1-.108-.058l-.01-.005a.739.739 0 0 1-.081-.063l-.027-.027-.004-.006a.746.746 0 0 1-.09-.108c-.66-.99-1.143-1.633-1.706-2.05-.525-.388-1.173-.616-2.239-.616H4.598c-.267 0-.512 0-.716-.017a1.957 1.957 0 0 1-.503-.1l-.173-.073c-.53-.27-.777-.71-.88-1.137-.09-.373-.076-.784-.076-1.023V6.6c0-.616.086-1.279.547-1.756.467-.484 1.137-.594 1.803-.594h2.6c.827 0 1.493 0 2.031.043.547.045 1.028.14 1.472.366.578.295.995.68 1.296 1.117.3-.437.72-.823 1.298-1.118.444-.226.925-.32 1.471-.365.538-.044 1.205-.043 2.033-.043h2.6c.665 0 1.335.109 1.802.593.46.477.547 1.14.547 1.757v8.8Z"/>
</svg>
