<svg xmlns="http://www.w3.org/2000/svg" fill="none" viewBox="0 0 24 24">
  <path fill="currentColor" d="M12 17.372c.332 0 .657.098.935.28l3.947 2.56a.2.2 0 0 0 .226.007.296.296 0 0 0 .142-.267V3.942c0-.095-.03-.16-.053-.192H6.803a.337.337 0 0 0-.053.192v16.01c0 .134.066.222.142.267a.203.203 0 0 0 .226-.007l3.947-2.56a1.71 1.71 0 0 1 .935-.28Zm1.5-7.851L12 8.428 10.5 9.52v1.98a.25.25 0 0 0 .25.25h2.5a.25.25 0 0 0 .25-.25V9.52ZM15 11.5a1.75 1.75 0 0 1-1.75 1.75h-2.5A1.75 1.75 0 0 1 9 11.5V9.14a.75.75 0 0 1 .309-.606l2.25-1.64.102-.063a.75.75 0 0 1 .78.063l2.25 1.64A.75.75 0 0 1 15 9.14v2.36Zm3.75 8.452c0 1.351-1.468 2.31-2.686 1.52l-3.946-2.563-.003-.002a.209.209 0 0 0-.055-.026l-.06-.009a.21.21 0 0 0-.115.035l-.004.002-3.945 2.56c-1.218.792-2.686-.166-2.686-1.517V3.942c0-.765.521-1.692 1.5-1.692h10.5c.979 0 1.5.927 1.5 1.692v16.01Z"/>
</svg>
