<svg xmlns="http://www.w3.org/2000/svg" fill="none" viewBox="0 0 24 24">
  <path fill="currentColor" d="M8.17 2.25h9.23c.667 0 1.336.109 1.803.593.157.162.27.346.35.542l.917-.915a.75.75 0 1 1 1.06 1.06l-1.78 1.78V16.4c0 .543-.072 1.077-.35 1.509-.16.25-.385.45-.65.583v.908c0 .666-.108 1.335-.591 1.802-.478.462-1.14.548-1.757.548H5.75a1.5 1.5 0 0 1-1.421-1.018l-.8.798a.75.75 0 0 1-1.06-1.06l1.78-1.78V6.016c-.002-.498-.005-1.12.13-1.687.168-.692.553-1.363 1.372-1.78.338-.172.694-.24 1.074-.27.365-.03.81-.03 1.345-.03Zm8.232 17.999c.547 0 .683-.096.714-.126.025-.024.134-.155.134-.724v-.65h-10a1.5 1.5 0 0 0-1.5 1.5h10.652Z"/>
</svg>
