<svg xmlns="http://www.w3.org/2000/svg" fill="none" viewBox="0 0 24 24">
  <path fill="currentColor" d="M17.25 19.4v-.65h-10a1.5 1.5 0 0 0-1.493 1.352l-.007.148h10.653c.546 0 .683-.096.714-.126.025-.024.133-.155.133-.724Zm-6.419-4.067c-1.119-1.609-2.978-2.647-5.08-2.58v4.902a2.997 2.997 0 0 1 1.5-.405h3.106c.1-.664.259-1.304.474-1.917ZM11.751 8a1.25 1.25 0 1 0-2.5 0 1.25 1.25 0 0 0 2.5 0Zm6.5 2.11c-3.291 1.05-5.771 3.733-6.376 7.14h5.528c.193 0 .347-.014.466-.034.223-.04.256-.1.27-.121.042-.065.111-.243.111-.695v-6.29Zm0-5.51c0-.547-.097-.684-.128-.715-.024-.025-.154-.135-.723-.135H8.2c-.572 0-.957 0-1.252.024-.287.024-.424.067-.515.113-.344.175-.505.427-.594.794-.101.42-.089.906-.089 1.52v5.052c2.301-.06 4.366.938 5.772 2.531 1.4-2.553 3.828-4.443 6.728-5.237V4.6Zm-5 3.4a2.75 2.75 0 1 1-5.5 0 2.75 2.75 0 0 1 5.5 0Zm6.5 8.4c0 .544-.073 1.078-.351 1.51a1.647 1.647 0 0 1-.65.58v.91c0 .666-.108 1.335-.591 1.802-.478.461-1.14.548-1.756.548H5.75a1.5 1.5 0 0 1-1.5-1.5V6.2c0-.522-.023-1.232.13-1.87.167-.691.552-1.363 1.371-1.78.337-.172.695-.24 1.075-.27.37-.031.827-.03 1.375-.03H17.4c.666 0 1.337.11 1.803.594.46.477.547 1.14.547 1.756v11.8Z"/>
</svg>
