<svg xmlns="http://www.w3.org/2000/svg" fill="none" viewBox="0 0 24 24">
  <path fill="currentColor" d="M17.947 2.46a2.75 2.75 0 0 1 2.58 4.826c-.24.16-.502.28-.777.358v8.712a2.748 2.748 0 0 1 1.195 4.588 2.752 2.752 0 0 1-2.998.597 2.75 2.75 0 0 1-1.591-1.79H7.645a2.749 2.749 0 1 1-3.395-3.395V7.644a2.747 2.747 0 0 1 .214-5.341 2.751 2.751 0 0 1 2.822 1.17c.16.24.28.502.359.777h8.71a2.747 2.747 0 0 1 1.592-1.79ZM5 17.75a1.25 1.25 0 1 0 .001 2.5 1.25 1.25 0 0 0 0-2.5Zm14 0a1.25 1.25 0 1 0 0 2.5 1.25 1.25 0 0 0 0-2.5Zm-11.356-12c-.127.447-.365.86-.7 1.194a2.746 2.746 0 0 1-1.194.699v8.714a2.741 2.741 0 0 1 1.894 1.893h8.713c.127-.447.364-.86.699-1.194a2.746 2.746 0 0 1 1.194-.7V7.644a2.747 2.747 0 0 1-1.194-.699 2.747 2.747 0 0 1-.7-1.194H7.645Zm11.6-1.975a1.251 1.251 0 0 0-1.283.53 1.25 1.25 0 1 0 1.283-.53Zm-14.488 0a1.25 1.25 0 1 0 .487 2.45 1.25 1.25 0 0 0-.487-2.45Z"/>
</svg>
