<svg xmlns="http://www.w3.org/2000/svg" fill="none" viewBox="0 0 24 24">
  <path fill="currentColor" d="M15.272 19.55c0-.604.333-1.097.814-1.368l.001-.001a8.25 8.25 0 0 0 1.782-1.348l.001-.002a8.2 8.2 0 0 0 2.378-4.916l-.005-.05a.131.131 0 0 0-.03-.05.235.235 0 0 0-.169-.065H3.955a.235.235 0 0 0-.168.066.115.115 0 0 0-.036.099 8.2 8.2 0 0 0 2.133 4.664l.244.252.001.002c.44.438.927.825 1.453 1.153l.228.137.002.002c.53.31.921.886.919 1.565v.307a.253.253 0 0 0 .254.253h6.032a.253.253 0 0 0 .255-.25v-.45ZM5.249 7V5a.75.75 0 0 1 1.5 0v2a.75.75 0 0 1-1.5 0Zm6 0V3a.75.75 0 0 1 1.5 0v4a.75.75 0 0 1-1.5 0Zm6 0V5a.75.75 0 0 1 1.5 0v2a.75.75 0 0 1-1.5 0Zm-.477 13c0 .97-.79 1.75-1.755 1.75H8.986a1.754 1.754 0 0 1-1.755-1.753v-.31c0-.081-.048-.192-.175-.267a9.746 9.746 0 0 1-1.985-1.525 9.702 9.702 0 0 1-2.81-5.814c-.118-1.052.755-1.83 1.694-1.831h16.09c.88 0 1.701.684 1.704 1.637l-.01.194a9.7 9.7 0 0 1-2.812 5.814h.001a9.753 9.753 0 0 1-2.105 1.594.128.128 0 0 0-.046.038.023.023 0 0 0-.003.006.057.057 0 0 0-.002.017V20Z"/>
</svg>
