<svg xmlns="http://www.w3.org/2000/svg" fill="none" viewBox="0 0 24 24">
  <path fill="currentColor" d="m20.25 8.735-7.5 3.67v7.362l7.035-3.641c.167-.087.262-.135.331-.177.06-.036.067-.046.06-.04l.003-.002a.253.253 0 0 0 .056-.094v-.001a.345.345 0 0 0 .01-.078c.005-.08.005-.186.005-.373V8.735Zm-8.297-4.98a.491.491 0 0 0-.056.022c-.063.029-.143.07-.285.143v-.001L4.667 7.514 12 11.102l7.331-3.588-6.945-3.595a6.855 6.855 0 0 0-.282-.142.526.526 0 0 0-.056-.022.255.255 0 0 0-.095 0Zm-8.198 11.98.01.077v.002a.249.249 0 0 0 .023.05l.033.043.002.002c-.006-.006 0 .004.06.04.07.042.165.09.332.177l7.035 3.64v-7.362l-7.5-3.669v6.624c0 .188 0 .295.005.375Zm17.995-.143a2.238 2.238 0 0 1-.094.7h.001a1.753 1.753 0 0 1-.395.653h-.001c-.223.232-.52.376-.784.513l-8.132 4.208a.75.75 0 0 1-.69 0l-8.13-4.208c-.265-.137-.563-.28-.786-.514a1.752 1.752 0 0 1-.396-.652 2.245 2.245 0 0 1-.093-.701V7.533a.75.75 0 0 1 .405-.666l8.269-4.28.002-.001c.224-.115.472-.252.743-.305.218-.042.444-.042.662 0v.001c.273.053.52.19.743.305l8.27 4.28a.75.75 0 0 1 .406.666v8.059Z"/>
</svg>
