<svg xmlns="http://www.w3.org/2000/svg" fill="none" viewBox="0 0 24 24">
  <path fill="currentColor" d="m5.34 14.776 5.91 3.841V15.19L8 12.914l-2.66 1.862Zm7.41.413v3.428l5.91-3.84L16 12.913l-3.25 2.275ZM9.307 12 12 13.886 14.692 12 12 10.114 9.307 12ZM4.75 13.36 6.692 12 4.75 10.64v2.72ZM17.307 12l1.943 1.36v-2.72L17.307 12ZM5.34 9.224 8 11.085l3.25-2.275V5.382l-5.91 3.84Zm7.41-.413L16 11.085l2.66-1.862-5.91-3.841V8.81Zm8 5.99a.75.75 0 0 1-.34.629l-8 5.2a.751.751 0 0 1-.82 0l-8-5.2a.75.75 0 0 1-.34-.63V9.2a.75.75 0 0 1 .34-.629l8-5.2.098-.053a.75.75 0 0 1 .721.053l8 5.2a.75.75 0 0 1 .341.63V14.8Z"/>
</svg>
