<svg xmlns="http://www.w3.org/2000/svg" fill="none" viewBox="0 0 24 24">
  <path fill="currentColor" d="M20 2.25a.75.75 0 0 1 .75.75v10.8a.75.75 0 0 1-.217.527l-3.556 3.6a.75.75 0 0 1-.533.223h-4.131l-3.335 3.377A.75.75 0 0 1 7.694 21v-2.85H4a.75.75 0 0 1-.75-.75V3A.75.75 0 0 1 4 2.25h16ZM4.75 16.65h3.694a.75.75 0 0 1 .75.75v1.773l2.273-2.3.114-.095A.75.75 0 0 1 12 16.65h4.13l3.12-3.159V3.75H4.75v12.9Zm5.611-5.55V7.5a.75.75 0 0 1 1.5 0v3.6a.75.75 0 0 1-1.5 0Zm4.445 0V7.5a.75.75 0 0 1 1.5 0v3.6a.75.75 0 0 1-1.5 0Z"/>
</svg>
