<svg xmlns="http://www.w3.org/2000/svg" fill="none" viewBox="0 0 24 24">
  <path fill="currentColor" d="M7.249 8.669c1.05-1.557 2.99-2.576 5.78-2.18 1.608.229 2.78 1.039 3.517 2.135.725 1.08 1.005 2.398.93 3.647-.076 1.247-.51 2.489-1.295 3.412-.8.94-1.96 1.54-3.389 1.435-.838-.06-1.48-.409-1.94-.922a704.02 704.02 0 0 0-.917 3.79 8.25 8.25 0 1 0-1.42-.509c.437-1.831.958-3.98 1.397-5.742-.094-.998.034-1.989.196-2.556l.06-.19c.067-.188.151-.365.258-.51.067-.09.185-.227.368-.318a.828.828 0 0 1 .834.05c.236.16.324.392.358.51.04.138.051.275.051.395 0 .243-.045.53-.129.85h.001c-.134.516-.298 1.156-.476 1.87.072.501.216.93.436 1.235.19.264.45.46.852.53l.18.021.167.007c.822.012 1.479-.339 1.97-.917.54-.634.881-1.55.94-2.531.06-.979-.165-1.958-.677-2.72-.5-.745-1.297-1.318-2.483-1.486-2.281-.324-3.63.5-4.326 1.532-.69 1.024-.782 2.303-.44 3.175l.074.168.03.07a.75.75 0 0 1-1.378.59c-.682-1.393-.538-3.345.471-4.841ZM21.75 12A9.75 9.75 0 0 1 12 21.75a9.746 9.746 0 0 1-3.125-.518h-.008a9.838 9.838 0 0 1-.599-.224A9.751 9.751 0 1 1 21.75 12Z"/>
</svg>
