<svg xmlns="http://www.w3.org/2000/svg" fill="none" viewBox="0 0 24 24">
  <path fill="currentColor" d="M2.25 11.556V4.889c0-.689.26-1.356.733-1.853a2.513 2.513 0 0 1 1.814-.786H19.2c.688 0 1.34.287 1.816.785.475.498.734 1.166.734 1.855v6.667c0 2.691-1.018 5.282-2.843 7.196-1.825 1.915-4.31 2.997-6.907 2.997a9.351 9.351 0 0 1-3.744-.781 9.753 9.753 0 0 1-2.82-1.873l-.343-.345c-1.824-1.914-2.843-4.504-2.843-7.195ZM14.47 9.72a.75.75 0 1 1 1.06 1.06l-3 3a.75.75 0 0 1-1.06 0l-3-3-.052-.056a.75.75 0 0 1 1.056-1.056l.056.052L12 12.19l2.47-2.47ZM3.75 11.556c0 2.316.877 4.533 2.429 6.16l.292.293a8.253 8.253 0 0 0 2.385 1.585l.375.152A7.85 7.85 0 0 0 12 20.25c2.176 0 4.271-.906 5.821-2.532 1.552-1.628 2.429-3.845 2.429-6.161V4.89c0-.316-.12-.609-.32-.819-.2-.21-.464-.32-.73-.321H4.804l-.103.006a1.012 1.012 0 0 0-.628.311l-.003.003c-.2.211-.32.505-.32.819v6.667Z"/>
</svg>
