<svg xmlns="http://www.w3.org/2000/svg" fill="none" viewBox="0 0 24 24">
  <path fill="currentColor" d="M20.25 12a8.25 8.25 0 1 0-16.5-.001 8.25 8.25 0 0 0 16.5.001ZM8.443 14.687c2.264-.898 4.741-.553 6.745.771a.75.75 0 0 1-.76 1.291l-.067-.039-.308-.192c-1.564-.912-3.395-1.096-5.057-.437a.75.75 0 0 1-.553-1.394Zm-.613-3.104c2.864-.959 6.033-.61 8.498 1.196a.75.75 0 1 1-.887 1.21c-2.097-1.536-4.856-1.824-7.37-.901a.75.75 0 1 1-.517-1.408l.276-.097ZM6.595 8.45c3.776-1.32 8.004-.75 11.327 1.514a.75.75 0 0 1-.778 1.28l-.066-.04-.287-.19c-2.985-1.901-6.728-2.3-10.021-1.03a.75.75 0 1 1-.54-1.4l.365-.134ZM21.75 12a9.75 9.75 0 1 1-19.502 0 9.75 9.75 0 0 1 19.502 0Z"/>
</svg>
