<svg xmlns="http://www.w3.org/2000/svg" fill="none" viewBox="0 0 24 24">
  <path fill="currentColor" d="M9.297 7.933c1.305-1.061 2.936-1.333 4.322-.857 1.404.482 2.493 1.71 2.718 3.48.028.219.05.437.066.654.06.025.121.049.18.075l.284.136.068.038c1.35.868 2.18 1.96 2.51 3.152.328 1.19.134 2.4-.413 3.46-1.085 2.101-3.582 3.679-6.513 3.679-2.332 0-4.554-.593-6.192-2.18C4.684 17.978 3.75 15.503 3.75 12s.934-5.978 2.577-7.57c1.638-1.587 3.86-2.18 6.193-2.18 3.287 0 6.346 1.676 7.58 5.067l.115.334.02.075a.75.75 0 0 1-1.45.38c-.92-2.89-3.41-4.356-6.265-4.356-2.098 0-3.885.533-5.149 1.758C6.111 6.728 5.25 8.753 5.25 12c0 3.246.861 5.272 2.12 6.492 1.264 1.225 3.052 1.758 5.149 1.758 2.414 0 4.373-1.303 5.181-2.868.4-.774.512-1.595.298-2.371-.195-.706-.68-1.44-1.598-2.1-.073.77-.254 1.49-.583 2.11-.687 1.3-1.944 2.05-3.744 2.05-.835 0-1.509-.184-2.042-.5a2.963 2.963 0 0 1-1.107-1.155 3.474 3.474 0 0 1-.407-1.586v-.056c.008-.906.408-1.63 1.029-2.147.605-.503 1.4-.796 2.22-.94.965-.168 2.05-.143 3.083.06v-.003c-.154-1.21-.861-1.955-1.717-2.249-.873-.3-1.965-.15-2.889.602l-.062.046a.75.75 0 0 1-.884-1.21Zm5.638 4.369c-.954-.24-2.006-.295-2.91-.137-.662.116-1.182.334-1.52.615-.317.264-.488.588-.488 1.02v.073a1.979 1.979 0 0 0 .226.831c.117.215.289.42.553.577.264.157.665.29 1.277.29 1.32 0 2.024-.506 2.418-1.25.274-.52.422-1.202.444-2.02Z"/>
</svg>
