<svg xmlns="http://www.w3.org/2000/svg" fill="none" viewBox="0 0 24 24">
  <path fill="currentColor" d="M12 2.25a9.75 9.75 0 0 1 6.895 16.645 9.744 9.744 0 0 1-2.442 1.775 9.778 9.778 0 0 1-.722.338A9.75 9.75 0 0 1 2.25 12c0-.387.026-.772.071-1.152v-.018a.752.752 0 0 1 .016-.105 9.747 9.747 0 0 1 2.768-5.62A9.747 9.747 0 0 1 12 2.25Zm1.996 11.031a9.765 9.765 0 0 0-.873.334c-3 1.316-5.258 3.274-6.46 4.673a8.248 8.248 0 0 0 8.494 1.334c.025-.01.049-.023.073-.033-.04-.236-.082-.504-.128-.792-.095-.593-.207-1.302-.346-2.075a40.205 40.205 0 0 0-.76-3.44Zm6.22-.556c-1.184-.055-2.931-.156-4.766.186.332 1.22.586 2.454.782 3.545.143.79.257 1.514.351 2.105l.043.267a8.25 8.25 0 0 0 1.208-.994 8.25 8.25 0 0 0 2.382-5.11ZM18.294 6.67c-.858.734-2.322 1.945-4.066 2.956.285.552.534 1.114.73 1.678.02.056.037.113.056.17 2.064-.409 4.018-.315 5.198-.255a8.25 8.25 0 0 0-.59-2.376 8.248 8.248 0 0 0-1.328-2.173ZM8.47 4.542a8.25 8.25 0 0 0-4.512 5.621c.843.026 1.963.028 3.156-.055 1.67-.115 3.416-.392 4.74-.958.098-.041.194-.088.291-.132C10.968 7.169 9.47 5.516 8.47 4.542ZM12 3.75c-.667 0-1.326.082-1.964.238 1.027 1.06 2.36 2.608 3.445 4.338 1.554-.9 2.884-1.986 3.74-2.714A8.25 8.25 0 0 0 12 3.75ZM3.75 12c0 1.91.662 3.75 1.858 5.216 1.363-1.555 3.768-3.593 6.913-4.975.342-.15.69-.28 1.038-.392l-.017-.052c-.171-.492-.39-.986-.642-1.475-.15.071-.302.142-.456.207-1.555.665-3.499.957-5.224 1.076a33.765 33.765 0 0 1-3.462.052A8.269 8.269 0 0 0 3.75 12Z"/>
</svg>
