<svg xmlns="http://www.w3.org/2000/svg" fill="none" viewBox="0 0 24 24">
  <path fill="currentColor" d="M19.712 4.308a.75.75 0 0 1 1.028.81l-2.064 13.048c-.018.112-.038.248-.067.362a1.05 1.05 0 0 1-1.023.816h-.003l-.003.002a1.093 1.093 0 0 1-.52-.145c-.102-.056-.216-.133-.312-.197l-2.47-1.649-2.333 1.906c-.117.096-.246.202-.359.279-.1.068-.319.206-.608.209a1.062 1.062 0 0 1-.832-.389 1.09 1.09 0 0 1-.228-.605 4.98 4.98 0 0 1-.012-.428l-.136-3.76-5.257-1.55c-.192-.056-.382-.111-.528-.167-.11-.043-.399-.154-.575-.433v-.001a1.051 1.051 0 0 1-.056-1.016c.143-.296.416-.439.521-.494.14-.073.324-.149.509-.225l15.328-6.373Zm-8.325 13.47 1.576-1.286-1.662-1.078.086 2.364Zm.32-3.888 2.936 1.905.007.005 2.606 1.74 1.657-10.478-7.206 6.828Zm-6.071-2.106 4.661 1.374 6.23-5.903-10.891 4.53Z"/>
</svg>
