<svg xmlns="http://www.w3.org/2000/svg" fill="none" viewBox="0 0 24 24">
  <path fill="currentColor" d="M19.955 6.033c0-.119.006-.238.02-.356.023-.23.061-.472.102-.736.025-.153.05-.316.074-.487.056-.397.12-.907.048-1.298-.033-.185-.132-.554-.49-.77-.39-.234-.789-.118-1.015-.013-.546.254-1.19.536-1.79.725-.3.094-.572.16-.8.188-.239.03-.383.016-.455-.005a11.1 11.1 0 0 0-3.149-.447c-.962 0-1.89.119-2.758.34-.394.1-.811.05-1.31-.115-.359-.127-.71-.273-1.054-.436-.18-.083-.375-.17-.582-.26-.285-.121-.65-.168-1.001.022-.314.17-.472.457-.553.662-.16.402-.2.929-.214 1.355-.008.255-.008.56-.009.83 0 .172 0 .33-.002.452a3.949 3.949 0 0 1-.023.409v.005c-.78 1-1.244 2.188-1.244 3.474 0 1.917 1.03 3.803 2.644 5.01.789.59 1.71 1.016 2.709 1.295a2.8 2.8 0 0 0-.352 1.327v.858H7.413c-.347 0-.801-.275-1.296-.817-.462-.506-.814-1.082-.976-1.348-.347-.572-.894-.894-1.55-.974a.75.75 0 0 0-.182 1.49c.243.029.363.12.45.263l.002.004c.166.272.581.956 1.148 1.576.535.587 1.375 1.306 2.404 1.306H8.75L8.751 21c0 .414.336.75.75.75h6.497a.75.75 0 0 0 .748-.75v-3.765c0-.492-.142-.983-.388-1.468.886-.275 1.708-.663 2.404-1.184 1.65-1.235 2.488-3.14 2.488-5.011 0-1.315-.485-2.526-1.295-3.54Z"/>
</svg>
