<svg xmlns="http://www.w3.org/2000/svg" fill="none" viewBox="0 0 24 24">
  <path fill="currentColor" d="M5.908 11.91c0-3.342 2.926-6.24 6.275-6.24 1.593 0 2.726.533 3.534 1.105l1.496-1.462c-1.352-.952-3.061-1.563-5.03-1.563-3.313 0-6.18 1.825-7.524 4.533l-.006.012a8.051 8.051 0 0 0-.21 6.975l.21.435.006.012.13.25c1.394 2.57 4.184 4.283 7.394 4.283 2.324 0 4.253-.756 5.571-1.963l.013-.012c1.991-1.742 2.713-4.475 2.418-7.145h-7.252v1.83h4.315a.75.75 0 0 1 .745.835c-.114 1-.764 2.454-2.145 3.4h.001c-.892.654-2.162 1.045-3.666 1.045-3.509 0-6.275-2.924-6.275-6.33Zm1.5 0c0 2.61 2.126 4.83 4.775 4.83 1.258 0 2.197-.328 2.78-.755l.023-.016a3.675 3.675 0 0 0 1.27-1.509h-4.073a.75.75 0 0 1-.75-.75v-3.33a.75.75 0 0 1 .75-.75h8.655a.75.75 0 0 1 .74.624c.546 3.2-.169 6.816-2.812 9.139h.001c-1.63 1.493-3.936 2.357-6.584 2.357-3.869 0-7.264-2.135-8.868-5.366a9.554 9.554 0 0 1 .006-8.78C4.927 4.38 8.319 2.25 12.183 2.25c2.674 0 4.963.97 6.66 2.432a.75.75 0 0 1 .034 1.104l-2.579 2.52a.75.75 0 0 1-1.011.034c-.654-.56-1.593-1.17-3.104-1.17-2.53 0-4.775 2.236-4.775 4.74Z"/>
</svg>
