<svg xmlns="http://www.w3.org/2000/svg" fill="none" viewBox="0 0 24 24">
  <path fill="currentColor" d="M14.094 4.377c1.456-.548 3.152-.594 4.423.527.793-.221 1.45-.382 2.152-.727a.75.75 0 0 1 1.06.852c-.163.66-.618 1.592-.982 2.31-.197.389-.362.704-.496.972a6.893 6.893 0 0 0-.139.29c-.02 4.754-2.733 9.256-7.409 10.85l-.463.145c-3.045.89-6.497.267-9.6-1.434a.75.75 0 0 1 .39-1.407c1.389.055 2.607-.328 3.834-1-1.274-.746-2.17-1.625-2.768-2.575-.775-1.23-1.018-2.522-1.007-3.676.011-1.149.275-2.174.53-2.904a9.564 9.564 0 0 1 .474-1.121l.036-.069.01-.02.005-.006V5.38l.58.323-.579-.324a.75.75 0 0 1 1.266-.07c1.4 1.966 3.49 3.144 5.865 3.288.053-.722.193-1.448.498-2.108.429-.924 1.165-1.678 2.32-2.113Zm3.643 1.865c-.721-.818-1.834-.943-3.115-.46-.776.291-1.218.762-1.486 1.34-.282.606-.386 1.37-.386 2.242a.75.75 0 0 1-.73.75c-2.734.07-5.215-1.003-7.014-2.933a7.658 7.658 0 0 0-.417 2.338c-.01.93.186 1.923.776 2.86.59.937 1.608 1.872 3.336 2.63a.75.75 0 0 1 .116 1.31c-.982.657-1.994 1.214-3.093 1.56 2.111.704 4.226.823 6.095.277 4.259-1.242 6.82-5.278 6.795-9.673V8.48c0-.151.046-.279.056-.31a2.87 2.87 0 0 1 .066-.166 7.86 7.86 0 0 1 .174-.365c.13-.26.322-.626.5-.977.088-.175.175-.352.259-.525-.405.117-.794.22-1.155.328a.75.75 0 0 1-.777-.223Z"/>
</svg>
