<svg xmlns="http://www.w3.org/2000/svg" fill="none" viewBox="0 0 24 24">
  <path fill="currentColor" d="M14.85 12a2.85 2.85 0 0 0-2.569-2.836L12 9.15a2.85 2.85 0 1 0 0 5.7l.281-.014a2.85 2.85 0 0 0 1.735-.82c.165-.166.305-.353.424-.55l.024-.041A2.846 2.846 0 0 0 14.85 12ZM12 3.75a8.25 8.25 0 0 0-6.34 2.972l2.229 3.855a4.35 4.35 0 0 1 3.895-2.922L12 7.65h7.008a8.248 8.248 0 0 0-1.174-1.484A8.251 8.251 0 0 0 12 3.75ZM3.75 12a8.25 8.25 0 0 0 2.416 5.834 8.248 8.248 0 0 0 4.433 2.293l2.223-3.857a4.216 4.216 0 0 1-.606.075L12 16.35a4.35 4.35 0 0 1-3.844-2.312l-3.43-5.934A8.25 8.25 0 0 0 3.75 12Zm12.6 0c0 .812-.229 1.6-.648 2.28l-3.44 5.963A8.25 8.25 0 0 0 20.25 12c0-.973-.174-1.938-.51-2.85h-4.455A4.349 4.349 0 0 1 16.35 12Zm5.4 0A9.75 9.75 0 0 1 12 21.75a9.737 9.737 0 0 1-1.151-.071 9.748 9.748 0 0 1-5.744-2.784 9.75 9.75 0 0 1 13.79-13.79 9.745 9.745 0 0 1 2.007 2.927.73.73 0 0 1 .059.13c.015.036.032.07.047.107A9.751 9.751 0 0 1 21.75 12Z"/>
</svg>
