<svg xmlns="http://www.w3.org/2000/svg" fill="none" viewBox="0 0 24 24">
  <path fill="currentColor" d="M2.25 12A9.75 9.75 0 0 1 12 2.25 9.75 9.75 0 0 1 21.75 12 9.75 9.75 0 0 1 12 21.75 9.75 9.75 0 0 1 2.25 12Zm4.52-2.016c3.4-1.31 7.279-.844 10.308 1.22a.75.75 0 0 0 .844-1.24c-3.43-2.336-7.825-2.87-11.692-1.38a.75.75 0 1 0 .54 1.4Zm1.3 3.104c2.515-.923 5.275-.635 7.372.901a.75.75 0 0 0 .886-1.21c-2.544-1.864-5.84-2.176-8.775-1.1a.751.751 0 1 0 .517 1.409Zm6.292 3.623a.75.75 0 0 0 .826-1.252c-2.004-1.324-4.48-1.668-6.744-.771a.75.75 0 1 0 .552 1.394c1.773-.702 3.737-.447 5.366.629Z"/>
</svg>
