<svg xmlns="http://www.w3.org/2000/svg" fill="none" viewBox="0 0 24 24">
  <path fill="currentColor" d="M21.25 12c0-1.68-.003-2.833-.17-3.7-.156-.81-.44-1.285-.975-1.66-.573-.401-1.373-.641-2.689-.765-1.318-.124-3.044-.125-5.416-.125-2.372 0-4.098.001-5.416.125-1.316.124-2.116.362-2.69.764-.536.375-.819.852-.974 1.662-.166.866-.17 2.02-.17 3.699 0 1.68.003 2.833.169 3.7.155.81.439 1.285.975 1.66.573.402 1.374.641 2.69.765 1.318.124 3.044.125 5.416.125 2.372 0 4.098-.001 5.416-.125 1.316-.124 2.116-.364 2.689-.765.535-.375.82-.85.975-1.66.167-.867.17-2.02.17-3.7ZM10.692 8.77c.3-.057.612.006.867.175l3.171 2.109c.12.079.226.18.308.297l.075.122.06.13a1.158 1.158 0 0 1-.065.97 1.155 1.155 0 0 1-.383.412l-3.167 2.069c-.19.127-.414.195-.643.195h-.007l-.005.001a1.162 1.162 0 0 1-1.153-1.154V9.908a1.159 1.159 0 0 1 .942-1.137Zm.558 4.694 2.218-1.448-2.218-1.475v2.923ZM22.75 12c0 1.62.003 2.943-.196 3.982-.21 1.096-.66 1.958-1.59 2.608v-.001c-.89.623-2 .897-3.407 1.03-1.405.131-3.215.131-5.557.131-2.342 0-4.152 0-5.557-.132-1.406-.132-2.517-.405-3.409-1.028-.929-.65-1.377-1.512-1.588-2.608-.2-1.04-.196-2.362-.196-3.982s-.003-2.943.196-3.982c.21-1.096.66-1.958 1.588-2.608.892-.623 2.003-.896 3.41-1.028C7.847 4.25 9.657 4.25 12 4.25s4.152 0 5.557.132c1.406.132 2.517.405 3.408 1.028.928.65 1.377 1.512 1.588 2.608.2 1.04.197 2.362.197 3.982Z"/>
</svg>
