<svg xmlns="http://www.w3.org/2000/svg" fill="none" viewBox="0 0 24 24">
  <path fill="currentColor" d="M18.517 4.903c-1.27-1.12-2.966-1.074-4.423-.526-1.155.435-1.89 1.19-2.32 2.113-.306.66-.446 1.389-.498 2.112C8.9 8.459 6.811 7.276 5.411 5.31a.75.75 0 0 0-.652-.313c-.307.016-.532.22-.666.48l-.12.247c-.131.286-.25.578-.354.875-.255.73-.519 1.756-.53 2.904-.012 1.154.233 2.446 1.007 3.676.6.95 1.494 1.832 2.77 2.578-1.228.672-2.448 1.052-3.837.998a.75.75 0 0 0-.39 1.407c3.105 1.7 6.555 2.323 9.602 1.435 4.96-1.45 7.853-6.09 7.873-11.001a7.11 7.11 0 0 1 .137-.285c.07-.14.15-.296.238-.467.08-.153.166-.321.258-.504.364-.72.818-1.65.981-2.31a.75.75 0 0 0-1.06-.853c-.612.302-1.193.462-1.859.645l-.292.08Z"/>
</svg>
