<svg xmlns="http://www.w3.org/2000/svg" fill="none" viewBox="0 0 24 24">
  <path fill="currentColor" d="M15.245 21v-3.765c0-.336-.166-.822-.669-1.481a.75.75 0 0 1 .444-1.19c1.128-.234 2.108-.631 2.842-1.181a4.753 4.753 0 0 0 1.888-3.81c0-.962-.363-1.88-1.03-2.68-.216-.26-.25-.58-.261-.746a3.852 3.852 0 0 1 .022-.625c.042-.395.13-.902.184-1.279.012-.081.02-.158.03-.227-.424.183-.887.37-1.343.513-.35.11-.713.201-1.06.245a2.783 2.783 0 0 1-.936-.021l-.132-.033a9.649 9.649 0 0 0-2.724-.386 9.68 9.68 0 0 0-2.389.294c-.78.198-1.512.067-2.151-.146-.469-.155-.962-.383-1.393-.578a5.748 5.748 0 0 0-.04.548c-.015.447-.002.816-.01 1.26a5.39 5.39 0 0 1-.036.574c-.011.089-.029.19-.058.29-.027.089-.08.233-.19.37h.001c-.637.79-.984 1.689-.984 2.626 0 1.39.76 2.852 2.042 3.81.844.631 1.928 1.053 3.187 1.267h.002l.013.003.075.017c.01.002.018.006.027.009l.039.012c.01.004.018.01.027.013a.746.746 0 0 1 .213.134l.007.007.01.01a.745.745 0 0 1 .221.625c0 .008 0 .016-.002.024 0 .004 0 .01-.002.014a.75.75 0 0 1-.03.116l-.004.01c-.01.03-.026.058-.04.086-.01.019-.017.038-.028.056l-.015.022a.755.755 0 0 1-.068.09l-.177.206c-.375.465-.496.829-.496 1.1V21a.75.75 0 0 1-1.5 0v-1.438H7.413c-1.029 0-1.869-.72-2.404-1.306-.569-.623-.985-1.31-1.15-1.58v-.001a.504.504 0 0 0-.363-.248l-.086-.014-.075-.014a.75.75 0 0 1 .178-1.481l.077.006.24.04c.55.123 1.007.431 1.31.932.162.267.515.844.976 1.35.495.541.95.817 1.297.817h1.338v-.859c0-.461.13-.904.354-1.328-1-.28-1.922-.702-2.711-1.293-1.615-1.207-2.644-3.094-2.644-5.01 0-1.286.465-2.474 1.242-3.474l.002-.006c.012-.092.02-.226.023-.41.005-.312-.003-.863.011-1.28.015-.427.052-.954.213-1.356.082-.204.24-.492.554-.662.306-.167.624-.15.89-.063l.11.041v.001c.63.27 1.108.519 1.638.695.497.165.914.215 1.308.115.87-.222 1.798-.34 2.759-.34 1.107 0 2.17.158 3.148.446.072.022.217.037.454.006.23-.03.5-.094.8-.188.6-.189 1.245-.47 1.791-.725.227-.105.627-.221 1.017.014.357.215.456.584.49.77.07.39.007.9-.05 1.297-.066.463-.138.86-.176 1.224a2.67 2.67 0 0 0-.019.357c.81 1.013 1.295 2.223 1.295 3.537 0 1.872-.838 3.775-2.488 5.011-.696.52-1.52.907-2.407 1.183.247.485.39.977.39 1.47V21a.75.75 0 0 1-1.5 0Z"/>
</svg>
