<svg xmlns="http://www.w3.org/2000/svg" fill="none" viewBox="0 0 24 24">
  <path fill="currentColor" d="M15.57 19.56a.672.672 0 0 0-.69-.69h-.69v.69c0 .395.294.69.69.69.396 0 .69-.295.69-.69Zm-4.95-4.59a.96.96 0 1 0-1.92 0v4.091c.072.598.54 1.01.96 1.01a.96.96 0 0 0 .96-.96V14.97Zm9.63-.45a.96.96 0 0 0-.96-.96h-4.14a.96.96 0 1 0 0 1.92h4.14c.486 0 .96-.475.96-.96Zm-14.94-.51h-.69a.673.673 0 0 0-.69.69c0 .396.294.69.69.69.396 0 .69-.294.69-.69v-.69Zm4.5-4.53a.96.96 0 0 0-.96-.96H4.757c-.653.068-1.007.513-1.007.96 0 .512.41.96.96.96h4.14a.96.96 0 0 0 .96-.96Zm5.4-4.59c0-.46-.357-.87-.96-.87a.96.96 0 0 0-.96.96v4.14a.959.959 0 1 0 1.92 0V4.89Zm4.86 4.41a.672.672 0 0 0-.69-.69.671.671 0 0 0-.69.69v.69h.69c.396 0 .69-.294.69-.69ZM9.81 4.44a.672.672 0 0 0-.69-.69.673.673 0 0 0-.69.69c0 .396.294.69.69.69h.69v-.69Zm7.26 15.12c0 1.224-.966 2.19-2.19 2.19a2.171 2.171 0 0 1-2.19-2.19v-1.44a.75.75 0 0 1 .75-.75h1.44c1.224 0 2.19.966 2.19 2.19Zm-4.95-.45c0 1.43-1.172 2.46-2.46 2.46-1.373 0-2.337-1.197-2.456-2.385a.748.748 0 0 1-.004-.075v-4.14c0-1.43 1.172-2.46 2.46-2.46 1.43 0 2.46 1.172 2.46 2.46v4.14ZM6.81 14.7a2.17 2.17 0 0 1-2.19 2.19 2.171 2.171 0 0 1-2.19-2.19c0-1.224.966-2.19 2.19-2.19h1.44a.75.75 0 0 1 .75.75v1.44Zm14.94-.18c0 1.314-1.146 2.46-2.46 2.46h-4.14c-1.43 0-2.46-1.172-2.46-2.46 0-1.43 1.172-2.46 2.46-2.46h4.14c1.43 0 2.46 1.171 2.46 2.46ZM11.31 9.48c0 1.43-1.172 2.46-2.46 2.46H4.71c-1.43 0-2.46-1.171-2.46-2.46 0-1.347 1.079-2.337 2.393-2.457l.067-.003h4.14c1.43 0 2.46 1.172 2.46 2.46Zm10.26-.18c0 1.224-.966 2.19-2.19 2.19h-1.44a.75.75 0 0 1-.75-.75V9.3a2.17 2.17 0 0 1 2.19-2.19c1.224 0 2.19.966 2.19 2.19Zm-4.86-.18c0 1.43-1.172 2.46-2.46 2.46-1.43 0-2.46-1.172-2.46-2.46V4.98c0-1.43 1.172-2.46 2.46-2.46 1.377 0 2.46 1.03 2.46 2.37v4.23Zm-5.4-3.24a.75.75 0 0 1-.75.75H9.12a2.172 2.172 0 0 1-2.19-2.19c0-1.224.966-2.19 2.19-2.19s2.19.966 2.19 2.19v1.44Z"/>
</svg>
