<svg xmlns="http://www.w3.org/2000/svg" fill="none" viewBox="0 0 24 24">
  <path fill="currentColor" d="M12.75 8c0-.96.79-1.75 1.75-1.75h2.25v-2.5H14.5c-2.309 0-4.25 1.941-4.25 4.25v2a.75.75 0 0 1-.75.75H7.25v2.5H9.5a.75.75 0 0 1 .75.75v6.25h2.5V14a.75.75 0 0 1 .75-.75h2.415l.625-2.5H13.5a.75.75 0 0 1-.75-.75V8Zm1.5 1.25h3.25a.75.75 0 0 1 .727.932l-1 4a.75.75 0 0 1-.727.568h-2.25V21a.75.75 0 0 1-.75.75h-4a.75.75 0 0 1-.75-.75v-6.25H6.5a.75.75 0 0 1-.75-.75v-4a.75.75 0 0 1 .75-.75h2.25V8c0-3.137 2.613-5.75 5.75-5.75h3a.75.75 0 0 1 .75.75v4a.75.75 0 0 1-.75.75h-3a.247.247 0 0 0-.174.076.247.247 0 0 0-.076.174v1.25Z"/>
</svg>
