<svg xmlns="http://www.w3.org/2000/svg" fill="none" viewBox="0 0 24 24">
  <path fill="currentColor" d="M2.25 12a10 10 0 0 1 .077-1.234C2.934 5.964 7.033 2.25 12 2.25a9.72 9.72 0 0 1 6.882 2.844l.01.01A9.72 9.72 0 0 1 21.75 12a9.75 9.75 0 1 1-19.5 0Zm4.97-.395c1.725-.12 3.669-.411 5.224-1.075.154-.067.307-.135.458-.206.251.488.469.982.64 1.473l.018.051c-.353.114-.7.245-1.04.394-3.144 1.38-5.55 3.419-6.912 4.974L6.66 18.29c1.202-1.399 3.463-3.357 6.463-4.675.286-.125.578-.236.875-.334a40.01 40.01 0 0 1 .757 3.44c.133.739.241 1.418.333 1.994l.013.081c.046.29.09.56.13.797l1.395-.761-.057-.356c-.092-.574-.202-1.266-.337-2.02a42.012 42.012 0 0 0-.78-3.544c1.757-.328 3.433-.249 4.612-.194l.154.007-.005-1.506c-1.18-.06-3.134-.154-5.198.254l-.057-.17a12.997 12.997 0 0 0-.73-1.676c1.746-1.011 3.211-2.223 4.069-2.957l-1.075-1.056c-.855.727-2.185 1.812-3.738 2.712-1.087-1.732-2.424-3.28-3.451-4.34L8.47 4.54c1 .975 2.502 2.629 3.68 4.479-.098.045-.196.088-.295.13-1.324.566-3.07.843-4.74.959-1.052.07-2.106.089-3.16.055l-.198 1.494c.899.032 2.135.04 3.462-.053"/>
</svg>
