<svg xmlns="http://www.w3.org/2000/svg" fill="none" viewBox="0 0 24 24">
  <path fill="currentColor" d="M11.25 15.75H9a2.25 2.25 0 0 0 0 4.5l.223-.01A2.25 2.25 0 0 0 11.25 18v-2.25Zm4.19-5.955a2.253 2.253 0 0 0-2.69 2.194l.001.012a2.252 2.252 0 0 0 3.112 2.083 2.252 2.252 0 0 0-.423-4.29Zm1.8-4.018A2.25 2.25 0 0 0 15 3.75h-2.25v4.5H15A2.25 2.25 0 0 0 17.25 6l-.01-.223ZM6.75 12A2.25 2.25 0 0 0 9 14.25h2.25v-4.5H9A2.25 2.25 0 0 0 6.75 12Zm0-6A2.25 2.25 0 0 0 9 8.25h2.25v-4.5H9A2.25 2.25 0 0 0 6.75 6Zm11.995.186A3.75 3.75 0 0 1 17.248 9a3.753 3.753 0 0 1-.81 6.47 3.753 3.753 0 0 1-3.522-.349 3.849 3.849 0 0 1-.166-.119V18a3.75 3.75 0 0 1-3.564 3.745L9 21.75A3.75 3.75 0 0 1 6.751 15a3.75 3.75 0 0 1-.402-5.651A3.75 3.75 0 0 1 6.75 9 3.75 3.75 0 0 1 9 2.25h6A3.75 3.75 0 0 1 18.75 6l-.005.186Z"/>
</svg>
