<svg xmlns="http://www.w3.org/2000/svg" fill="none" viewBox="0 0 24 24">
  <path fill="currentColor" d="M6.481 3.25c.507 0 1.012.206 1.357.598l5.223 5.937 5.369-6.272a.75.75 0 0 1 1.14.974l-5.508 6.436 6.287 7.146c.478.544.505 1.25.203 1.796-.295.533-.879.885-1.559.885h-1.475a1.808 1.808 0 0 1-1.356-.598l-5.225-5.938-5.367 6.273a.75.75 0 0 1-1.14-.974l5.506-6.437L3.65 5.931a1.548 1.548 0 0 1-.203-1.795c.295-.534.879-.886 1.56-.886H6.48Zm-1.474 1.5c-.156 0-.226.074-.246.111-.011.02-.011.031-.011.034 0 0 0 .004.003.01a.138.138 0 0 0 .023.034l12.512 14.222c.036.04.117.089.23.089h1.475c.155 0 .225-.073.246-.111.011-.02.011-.031.01-.034l-.002-.01a.148.148 0 0 0-.024-.035L6.712 4.839a.315.315 0 0 0-.23-.089H5.006Z"/>
</svg>
