<svg xmlns="http://www.w3.org/2000/svg" fill="none" viewBox="0 0 24 24">
  <path fill="currentColor" d="M21 18.25a.75.75 0 0 1 0 1.5h-2.786l.457.915a.75.75 0 0 1-1.342.67l-.793-1.585h-2.322l.457.915a.75.75 0 0 1-1.342.67l-.793-1.585h-2.322l.457.915a.75.75 0 0 1-1.342.67l-.793-1.585H6.214l.457.915a.75.75 0 0 1-1.342.67l-.793-1.585H3a.75.75 0 0 1 0-1.5h18ZM18.75 8.7c0-.294-.218-.466-.404-.466H5.654c-.186 0-.404.172-.404.466v6.083c0 .296.218.467.404.467h12.692c.186 0 .404-.171.404-.467V8.7ZM12 4.75c-.518 0-1.039.208-1.435.633-.285.306-.523.748-.633 1.351h4.136c-.11-.604-.348-1.047-.633-1.353A1.95 1.95 0 0 0 12 4.75Zm8.25 10.033c0 1.048-.816 1.967-1.904 1.967H5.654c-1.088 0-1.904-.919-1.904-1.967V8.7c0-1.048.816-1.966 1.904-1.966h2.758c.127-.976.502-1.778 1.056-2.373A3.455 3.455 0 0 1 12 3.25c.924 0 1.846.372 2.532 1.108.554.595.93 1.398 1.056 2.376h2.758c1.087 0 1.904.918 1.904 1.966v6.083Z"/>
</svg>
