<svg xmlns="http://www.w3.org/2000/svg" fill="none" viewBox="0 0 24 24">
  <path fill="currentColor" d="M12.739 2.25c1.541 0 2.607.33 3.196 1.16.28.395.399.837.454 1.248.053.393.053.813.053 1.192h.174c2.053 0 3.472.463 4.307 1.43.833.965.908 2.232.776 3.392l-.69 7.186-.002.011c-.103.933-.346 1.973-1.213 2.745-.856.763-2.174 1.136-4.102 1.136H8.308c-1.928 0-3.245-.373-4.102-1.136-.867-.773-1.11-1.812-1.213-2.745v-.01l-.693-7.2h.001c-.13-1.157-.053-2.417.776-3.379.835-.967 2.255-1.43 4.308-1.43h.173c0-.379 0-.799.053-1.192.055-.41.174-.853.455-1.249.588-.83 1.654-1.159 3.196-1.159h1.476ZM4.485 17.705l.039.299c.103.67.294 1.147.68 1.491.453.403 1.323.755 3.104.755h7.384c1.78 0 2.652-.352 3.104-.755.441-.393.629-.96.72-1.79l.517-5.383a16.006 16.006 0 0 1-5.336 1.705 2.748 2.748 0 0 1-5.397-.005 16.008 16.008 0 0 1-5.336-1.727l.52 5.41ZM12 12.25a1.25 1.25 0 1 0 1.25 1.25l-.006-.124A1.25 1.25 0 0 0 12 12.25Zm-4.615-4.9c-1.887 0-2.76.433-3.172.91-.408.473-.534 1.187-.425 2.2a14.505 14.505 0 0 0 5.643 2.065 2.747 2.747 0 0 1 4.514-.97c.279.28.489.614.626.977 2-.28 3.92-.975 5.637-2.04.116-1.03-.009-1.755-.42-2.232-.412-.477-1.286-.91-3.172-.91H7.385Zm3.877-3.6c-1.412 0-1.823.315-1.973.526-.088.125-.154.303-.191.581-.037.279-.04.596-.04.993h5.884c0-.397-.002-.714-.04-.993-.037-.278-.102-.456-.19-.58-.15-.212-.562-.527-1.973-.527h-1.477Z"/>
</svg>
