<svg xmlns="http://www.w3.org/2000/svg" fill="none" viewBox="0 0 24 24">
  <path fill="currentColor" d="M11.25 21v-1a.75.75 0 0 1 1.5 0v1a.75.75 0 0 1-1.5 0Zm-6.073-3.237a.75.75 0 1 1 1.06 1.06l-.707.707a.75.75 0 1 1-1.06-1.06l.707-.707Zm12.586 0a.75.75 0 0 1 1.004-.052l.056.052.707.707.052.056a.75.75 0 0 1-1.056 1.056l-.056-.052-.707-.707-.052-.056a.75.75 0 0 1 .052-1.004ZM14.25 12a2.25 2.25 0 1 0-4.5 0 2.25 2.25 0 0 0 4.5 0ZM4 11.25a.75.75 0 0 1 0 1.5H3a.75.75 0 0 1 0-1.5h1Zm17 0a.75.75 0 0 1 0 1.5h-1a.75.75 0 0 1 0-1.5h1ZM4.47 4.47a.75.75 0 0 1 1.004-.052l.056.052.707.707.052.056A.75.75 0 0 1 5.233 6.29l-.056-.052-.707-.707-.052-.056A.75.75 0 0 1 4.47 4.47Zm14 0a.75.75 0 1 1 1.06 1.06l-.707.707a.75.75 0 1 1-1.06-1.06l.707-.707ZM11.25 4V3a.75.75 0 0 1 1.5 0v1a.75.75 0 0 1-1.5 0Zm4.5 8a3.75 3.75 0 1 1-7.5 0 3.75 3.75 0 0 1 7.5 0Z"/>
</svg>
