<svg xmlns="http://www.w3.org/2000/svg" fill="none" viewBox="0 0 24 24">
  <path fill="currentColor" d="M11.25 21v-3a.75.75 0 0 1 1.5 0v3a.75.75 0 0 1-1.5 0Zm-4.66-4.651a.75.75 0 0 1 1.061 1.06l-2.12 2.121a.75.75 0 1 1-1.061-1.06l2.12-2.121Zm9.759 0a.75.75 0 0 1 1.06 0l2.121 2.12.052.057a.75.75 0 0 1-1.056 1.056l-.056-.052-2.121-2.12a.75.75 0 0 1 0-1.061ZM14.25 12a2.25 2.25 0 1 0-4.5 0 2.25 2.25 0 0 0 4.5 0ZM6 11.25a.75.75 0 0 1 0 1.5H3a.75.75 0 0 1 0-1.5h3Zm15 0a.75.75 0 0 1 0 1.5h-3a.75.75 0 0 1 0-1.5h3ZM4.47 4.47a.75.75 0 0 1 1.004-.052l.056.052 2.121 2.12.052.057a.75.75 0 0 1-1.056 1.056l-.056-.052-2.121-2.12-.052-.057A.75.75 0 0 1 4.47 4.47Zm14 0a.75.75 0 1 1 1.06 1.06l-2.12 2.121a.75.75 0 0 1-1.061-1.06l2.12-2.121ZM11.25 6V3a.75.75 0 0 1 1.5 0v3a.75.75 0 0 1-1.5 0Zm4.5 6a3.75 3.75 0 1 1-7.5 0 3.75 3.75 0 0 1 7.5 0Z"/>
</svg>
