<svg xmlns="http://www.w3.org/2000/svg" fill="none" viewBox="0 0 24 24">
  <path fill="currentColor" d="M18.219 17.5a2.75 2.75 0 0 0-5.5 0l.013.271a2.75 2.75 0 0 0 5.487-.271ZM12.25 8A4.25 4.25 0 1 0 8 12.25l.21-.005A4.25 4.25 0 0 0 12.25 8Zm8 .863a1.75 1.75 0 1 0-3.5.001 1.75 1.75 0 0 0 3.5 0Zm-.536 8.848a4.25 4.25 0 0 1-8.49 0l-.005-.211a4.25 4.25 0 0 1 8.5 0l-.005.21Zm2.036-8.848a3.25 3.25 0 1 1-6.5-.001 3.25 3.25 0 0 1 6.5.001Zm-8-.863a5.749 5.749 0 0 1-5.465 5.743L8 13.75A5.75 5.75 0 1 1 13.75 8Z"/>
</svg>
