<svg xmlns="http://www.w3.org/2000/svg" fill="none" viewBox="0 0 24 24">
  <path fill="currentColor" d="M14.023 4a.677.677 0 0 1 .669.58l.006.091v.673c0 .545-.166 1.077-.477 1.525a3.374 3.374 0 0 1 1.58 1.132c.404.524.644 1.154.689 1.812h.23a2.03 2.03 0 0 0 1.429-.595c.378-.38.59-.892.587-1.426l-.006-1.33a.67.67 0 0 1 .672-.674.677.677 0 0 1 .678.668l.007 1.33a3.346 3.346 0 0 1-.917 2.314 3.383 3.383 0 0 1-2.265 1.051l-.193.005h-.214V12.5h3.827a.677.677 0 0 1 .669.58l.006.092a.67.67 0 0 1-.583.665l-.092.006h-3.827v1.789h.214l.193.006a3.383 3.383 0 0 1 2.203.987c.586.588.933 1.372.974 2.199l.005.179-.007 1.329a.67.67 0 0 1-.632.663.677.677 0 0 1-.711-.578l-.006-.091.006-1.33a2.007 2.007 0 0 0-.54-1.376 2.029 2.029 0 0 0-1.338-.64l-.139-.005h-.428a4.477 4.477 0 0 1-1.631 2.265 4.518 4.518 0 0 1-5.325 0 4.477 4.477 0 0 1-1.63-2.265h-.44a2.03 2.03 0 0 0-1.43.596 2.012 2.012 0 0 0-.586 1.426l.004 1.329a.668.668 0 0 1-.414.622.678.678 0 0 1-.883-.36.668.668 0 0 1-.053-.256l-.004-1.33a3.346 3.346 0 0 1 .916-2.313 3.383 3.383 0 0 1 2.265-1.052l.193-.004.225-.001v-1.79H3.675a.677.677 0 0 1-.669-.58L3 13.172a.669.669 0 0 1 .583-.666l.092-.005 3.824-.001v-1.344h-.225l-.193-.005a3.383 3.383 0 0 1-2.202-.987 3.347 3.347 0 0 1-.975-2.199l-.004-.18.005-1.33a.67.67 0 0 1 .633-.669.677.677 0 0 1 .712.585l.005.092-.005 1.329c-.003.51.19 1.002.539 1.377a2.03 2.03 0 0 0 1.339.64l.138.005h.241c.045-.658.284-1.29.688-1.814a3.374 3.374 0 0 1 1.581-1.133 2.649 2.649 0 0 1-.472-1.337L9.3 5.344v-.673a.67.67 0 0 1 .629-.67.678.678 0 0 1 .715.579l.006.091v.673c0 .345.133.677.372.926a1.353 1.353 0 0 0 2.321-.796l.006-.13v-.673A.67.67 0 0 1 14.023 4Z"/>
</svg>
