<svg xmlns="http://www.w3.org/2000/svg" fill="none" viewBox="0 0 24 24">
  <path fill="currentColor" d="M10.65 4.671A.67.67 0 0 0 9.975 4a.677.677 0 0 0-.675.671v.674c0 .566.176 1.092.477 1.524A3.374 3.374 0 0 0 8.198 8a3.347 3.347 0 0 0-.69 1.81h-.23a2.034 2.034 0 0 1-1.43-.596 2.013 2.013 0 0 1-.586-1.427l.005-1.33a.668.668 0 0 0-.414-.621.678.678 0 0 0-.884.36.669.669 0 0 0-.052.256l-.006 1.33a3.342 3.342 0 0 0 .978 2.378 3.376 3.376 0 0 0 2.383.993H7.5v1.352H3.675a.677.677 0 0 0-.675.671.67.67 0 0 0 .675.672H7.5v1.783h-.228a3.39 3.39 0 0 0-2.382.993 3.356 3.356 0 0 0-.98 2.378l.007 1.33a.67.67 0 0 0 .678.669.676.676 0 0 0 .672-.674l-.006-1.33a2.005 2.005 0 0 1 .587-1.428 2.026 2.026 0 0 1 1.43-.596h.425c.286.91.858 1.707 1.63 2.272a4.517 4.517 0 0 0 5.333 0 4.478 4.478 0 0 0 1.63-2.272h.426a2.035 2.035 0 0 1 1.429.596 2.012 2.012 0 0 1 .587 1.427l-.006 1.33a.67.67 0 0 0 .672.675.677.677 0 0 0 .678-.669l.005-1.33a3.348 3.348 0 0 0-.978-2.378 3.383 3.383 0 0 0-2.382-.993h-.228v-1.784h3.826a.677.677 0 0 0 .675-.671.67.67 0 0 0-.675-.672h-3.826v-1.352h.228a3.39 3.39 0 0 0 2.383-.993 3.356 3.356 0 0 0 .978-2.378l-.007-1.329a.666.666 0 0 0-.419-.618.678.678 0 0 0-.88.366.67.67 0 0 0-.05.258l.005 1.33a2.009 2.009 0 0 1-.587 1.426 2.03 2.03 0 0 1-1.43.596h-.23A3.347 3.347 0 0 0 15.801 8a3.374 3.374 0 0 0-1.579-1.13c.3-.433.476-.958.476-1.524V4.67a.67.67 0 0 0-.674-.67.677.677 0 0 0-.675.671v.674c0 .356-.143.697-.396.95a1.354 1.354 0 0 1-1.909 0 1.34 1.34 0 0 1-.395-.95V4.67Zm-1.8 5.374c0-.534.213-1.047.593-1.425a2.03 2.03 0 0 1 1.432-.59h2.25a2.03 2.03 0 0 1 1.431.59c.38.378.593.89.593 1.425v5.592a3.119 3.119 0 0 1-.922 2.216 3.152 3.152 0 0 1-2.227.918 3.163 3.163 0 0 1-2.228-.918 3.132 3.132 0 0 1-.922-2.216v-5.592Z"/>
</svg>
