<svg xmlns="http://www.w3.org/2000/svg" fill="none" viewBox="0 0 24 24">
  <path fill="currentColor" d="M19.05 11.444c0-1.101-.198-1.643-.463-1.926-.251-.27-.72-.472-1.712-.472H14.75V21.25h4.3v-9.806ZM10 13.25a.75.75 0 0 1 0 1.5H8a.75.75 0 0 1 0-1.5h2Zm0-4a.75.75 0 0 1 0 1.5H8a.75.75 0 0 1 0-1.5h2Zm0-4a.75.75 0 0 1 0 1.5H8a.75.75 0 0 1 0-1.5h2Zm3.25 1.728c0-.884 0-1.502-.038-1.985-.037-.474-.108-.751-.212-.963l-.001-.003a2.31 2.31 0 0 0-.988-1.024l-.16-.071c-.176-.066-.406-.113-.745-.142-.46-.04-1.053-.04-1.906-.04h-.4c-.853 0-1.445 0-1.906.04-.452.038-.71.11-.905.213v-.001A2.312 2.312 0 0 0 5 4.027v.001c-.104.213-.175.49-.212.965-.038.483-.038 1.101-.038 1.985V21.25h8.5V6.978Zm1.5.568h2.125c1.134 0 2.13.22 2.809.948.665.714.866 1.747.866 2.95v9.806h1.2a.75.75 0 0 1 0 1.5H2.25a.75.75 0 0 1 0-1.5h1V6.978c0-.86 0-1.548.043-2.103.044-.563.138-1.054.36-1.508a3.81 3.81 0 0 1 1.632-1.69h.002c.447-.237.93-.335 1.48-.382.539-.046 1.206-.045 2.033-.045h.4c.827 0 1.494 0 2.033.045.48.04.912.122 1.31.3l.17.082h.002a3.81 3.81 0 0 1 1.63 1.691l.079.172c.168.405.244.843.283 1.335.044.555.043 1.243.043 2.103v.568Z"/>
</svg>
