<svg xmlns="http://www.w3.org/2000/svg" fill="none" viewBox="0 0 24 24">
  <path fill="currentColor" d="M19.75 13.063a2.44 2.44 0 0 0-2.198-2.426l-.24-.012H6.688a2.44 2.44 0 0 0-2.438 2.438v1.375h15.5v-1.375Zm-15.5 4.25.012.24a2.44 2.44 0 0 0 2.426 2.197H7v-3.812H4.25v1.374ZM17 19.75h.312a2.44 2.44 0 0 0 2.438-2.436v-1.376H17v3.812Zm-8.5 0h7v-3.812h-7v3.812Zm12.75-2.436-.005.195a3.94 3.94 0 0 1-3.736 3.736l-.196.005H6.687a3.94 3.94 0 0 1-3.937-3.936v-4.252l.005-.195a3.94 3.94 0 0 1 3.932-3.742h4.824l1.53-3.46-9.65-1.423-.076-.015a.75.75 0 0 1 .218-1.476l.076.007L14.205 4.32l6.355.514.077.01a.75.75 0 0 1-.198 1.485l-5.845-.473-1.443 3.268h4.162a3.941 3.941 0 0 1 3.937 3.938v4.25Z"/>
</svg>
