<svg xmlns="http://www.w3.org/2000/svg" fill="none" viewBox="0 0 24 24">
  <path fill="currentColor" d="M6.25 7a.75.75 0 0 1 1.5 0v3.25h3.5V7a.75.75 0 0 1 1.5 0v3.25h3.5V7a.75.75 0 0 1 1.5 0v3.25H18c1.465 0 2.68 1.182 2.743 2.633.002.015.002.031.003.047 0 .023.004.046.004.07v7.25H22a.75.75 0 0 1 0 1.5H2a.75.75 0 0 1 0-1.5h1.25V13c0-.023.002-.045.003-.067a.75.75 0 0 1 .007-.126A2.766 2.766 0 0 1 6 10.25h.25V7Zm8.76 5.82c-.776 1.29-1.873 1.997-3.117 1.925-1.152-.066-2.163-.794-2.88-1.925-.554.923-1.273 1.545-2.11 1.803-.745.229-1.485.14-2.153-.18v5.807h14.5v-5.763a2.888 2.888 0 0 1-2.28.054c-.77-.301-1.441-.902-1.96-1.72ZM6 11.75c-.561 0-1.052.396-1.202.917.568.549 1.166.675 1.664.523.453-.14.987-.56 1.433-1.44H6Zm10.121 0c.408.757.921 1.21 1.396 1.395.524.204 1.125.133 1.697-.43A1.272 1.272 0 0 0 18 11.75h-1.879Zm-6 0c.546 1.015 1.273 1.464 1.857 1.498.557.032 1.32-.307 1.92-1.498H10.12ZM6.25 4.5V4a.75.75 0 0 1 1.5 0v.5a.75.75 0 0 1-1.5 0Zm5 0V4a.75.75 0 0 1 1.5 0v.5a.75.75 0 0 1-1.5 0Zm5 0V4a.75.75 0 0 1 1.5 0v.5a.75.75 0 0 1-1.5 0Z"/>
</svg>
