<svg xmlns="http://www.w3.org/2000/svg" fill="none" viewBox="0 0 24 24">
  <path fill="currentColor" d="M8.25 3a.75.75 0 0 0-1.5 0v.301l-.035.003c-.71.054-1.309.169-1.856.432a4.65 4.65 0 0 0-2.083 1.97c-.287.532-.41 1.113-.469 1.793-.057.662-.057 1.482-.057 2.51v4.981c0 1.029 0 1.85.057 2.511.06.68.182 1.261.469 1.792a4.65 4.65 0 0 0 2.083 1.971c.547.263 1.146.378 1.856.432.696.054 1.56.054 2.654.054h5.262c1.094 0 1.958 0 2.654-.054.71-.055 1.309-.169 1.856-.432a4.65 4.65 0 0 0 2.083-1.97c.287-.532.41-1.113.469-1.793.057-.662.057-1.482.057-2.51V10.01c0-1.029 0-1.85-.057-2.511-.06-.68-.182-1.261-.469-1.792a4.65 4.65 0 0 0-2.083-1.971c-.547-.263-1.146-.378-1.856-.432L17.25 3.3V3a.75.75 0 1 0-1.5 0v.253c-.343-.003-.716-.004-1.119-.003H9.37c-.403 0-.776.001-1.119.003L8.25 3ZM5.51 5.088c.294-.142.663-.232 1.24-.282V5a.75.75 0 0 0 1.5 0v-.247c.383-.002.767-.003 1.15-.003h5.2c.426 0 .81.001 1.15.003V5a.75.75 0 1 0 1.5 0v-.194c.577.05.946.14 1.24.282a3.15 3.15 0 0 1 1.414 1.33c.114.212.196.466.25.832H3.846c.055-.366.137-.62.251-.831A3.15 3.15 0 0 1 5.51 5.088Zm8.671 6.804a.75.75 0 0 1 .169 1.047l-2.1 2.907a.975.975 0 0 1-1.522.071l-1.034-1.181a.75.75 0 1 1 1.129-.988l.598.684 1.713-2.371a.75.75 0 0 1 1.047-.169Z"/>
</svg>
