<svg xmlns="http://www.w3.org/2000/svg" fill="none" viewBox="0 0 24 24">
  <path fill="currentColor" d="M2.25 14.955v-4.911c0-1.044 0-1.875.058-2.545.051-.595.151-1.114.368-1.59l.102-.206a4.65 4.65 0 0 1 1.76-1.799l.324-.17c.547-.262 1.144-.376 1.853-.43L6.75 3.3V3a.75.75 0 0 1 1.5 0v.255c.353-.003.735-.005 1.15-.005h5.2c.415 0 .797.002 1.15.005V3a.75.75 0 0 1 1.5 0v.3l.035.004c.71.055 1.31.169 1.857.432a4.646 4.646 0 0 1 2.082 1.97c.287.532.41 1.113.468 1.793.058.67.058 1.502.058 2.546v4.912c0 1.044 0 1.875-.058 2.545-.051.595-.151 1.114-.368 1.59l-.102.206a4.65 4.65 0 0 1-2.084 1.969l-.001-.001c-.547.261-1.144.376-1.853.43-.702.054-1.576.054-2.684.054H9.4c-1.108 0-1.983 0-2.685-.054-.709-.054-1.306-.169-1.853-.431a4.65 4.65 0 0 1-2.084-1.967l-.003-.004c-.286-.532-.409-1.113-.467-1.793-.058-.67-.058-1.502-.058-2.546Zm10.72-2.985a.75.75 0 1 1 1.06 1.06l-.97.97.97.97.052.056a.75.75 0 0 1-1.056 1.056l-.056-.052-.97-.97-.97.97a.75.75 0 1 1-1.06-1.06l.97-.97-.97-.97-.052-.056a.75.75 0 0 1 1.056-1.056l.056.052.97.97.97-.97ZM15.75 5v-.245a130.43 130.43 0 0 0-1.15-.005H9.4c-.427 0-.808.002-1.15.005V5a.75.75 0 0 1-1.5 0v-.193c-.577.05-.946.139-1.241.28l-.003.003a3.15 3.15 0 0 0-1.412 1.333c-.113.21-.194.464-.248.827h16.308c-.054-.365-.136-.62-.25-.831l-.123-.208a3.148 3.148 0 0 0-1.065-1.004l-.225-.12c-.295-.141-.664-.23-1.241-.28V5a.75.75 0 0 1-1.5 0Zm-12 9.955c0 1.07 0 1.826.052 2.416.05.58.144.933.294 1.211a3.15 3.15 0 0 0 1.19 1.213l.22.115.003.002c.308.149.698.241 1.322.29.631.048 1.438.048 2.57.048H14.6c1.131 0 1.938 0 2.569-.049.624-.048 1.014-.14 1.322-.288l.003-.002a3.15 3.15 0 0 0 1.412-1.333c.149-.276.242-.628.292-1.205.051-.59.052-1.345.052-2.416v-4.912c0-.494-.002-.92-.007-1.295H3.757c-.005.374-.007.8-.007 1.294v4.911Z"/>
</svg>
