<svg xmlns="http://www.w3.org/2000/svg" fill="none" viewBox="0 0 24 24">
  <path fill="currentColor" d="M20.243 8.75h-3.932L5.273 19.786c.077.045.155.088.235.126.308.149.7.241 1.323.29.631.048 1.438.048 2.57.048H14.6c1.131 0 1.938 0 2.569-.049.624-.048 1.014-.14 1.322-.288l.003-.002a3.15 3.15 0 0 0 1.412-1.333c.149-.276.242-.628.292-1.205.051-.59.052-1.345.052-2.416v-4.912c0-.494-.002-.92-.007-1.295Zm-2.432-1.5h2.343c-.055-.366-.137-.621-.25-.833a3.05 3.05 0 0 0-.543-.719l-1.55 1.552ZM6.75 5v-.193c-.577.05-.946.139-1.241.28l-.003.003a3.15 3.15 0 0 0-1.41 1.327l-.053.108c-.087.19-.151.42-.197.725H11a.75.75 0 0 1 0 1.5H3.757a98.49 98.49 0 0 0-.007 1.295v4.912c0 .625 0 1.144.01 1.588l.015.42v.078a.75.75 0 0 1-1.49.07l-.009-.077-.014-.451a71.091 71.091 0 0 1-.012-1.628v-4.912c0-1.044 0-1.876.058-2.546.058-.68.181-1.261.467-1.793l.003-.004a4.65 4.65 0 0 1 2.084-1.968c.547-.262 1.144-.376 1.853-.43L6.75 3.3V3a.75.75 0 0 1 1.5 0v.255c.353-.003.735-.005 1.15-.005h5.2a.75.75 0 0 1 0 1.5H9.4c-.427 0-.808.002-1.15.005V5a.75.75 0 0 1-1.5 0Zm15 9.957c0 1.044 0 1.875-.058 2.545-.051.595-.151 1.114-.368 1.59l-.102.206a4.65 4.65 0 0 1-2.084 1.969l-.001-.001c-.547.261-1.144.376-1.853.43-.702.054-1.576.054-2.684.054H9.4c-1.108 0-1.983 0-2.685-.054-.71-.055-1.31-.169-1.857-.432a4.758 4.758 0 0 1-.67-.393l-.658.66a.75.75 0 1 1-1.06-1.061l18-18a.75.75 0 1 1 1.06 1.06l-1.11 1.11c.318.314.59.672.804 1.066v.001c.287.532.41 1.113.468 1.793.058.67.058 1.502.058 2.546v4.912Z"/>
</svg>
