<svg xmlns="http://www.w3.org/2000/svg" fill="none" viewBox="0 0 24 24">
  <path fill="currentColor" d="M7.5 2.25a.75.75 0 0 1 .75.75v.253c.343-.003.716-.004 1.119-.003H14.6a.75.75 0 1 1 0 1.5H9.4c-.426 0-.81 0-1.15.003V5a.75.75 0 0 1-1.5 0v-.194c-.577.05-.946.14-1.24.282a3.15 3.15 0 0 0-1.414 1.33c-.114.212-.196.466-.25.832H11a.75.75 0 1 1 0 1.5H3.755c-.005.374-.005.8-.005 1.294v4.912c0 .833 0 1.478.025 2.009a.75.75 0 0 1-1.498.07c-.027-.57-.027-1.25-.027-2.063V10.01c0-1.03 0-1.85.057-2.511.06-.68.182-1.261.469-1.792a4.65 4.65 0 0 1 2.083-1.971c.547-.263 1.146-.378 1.856-.432L6.75 3.3V3a.75.75 0 0 1 .75-.75Zm12.97.22a.75.75 0 1 1 1.06 1.06l-1.107 1.108c.317.314.588.674.801 1.069.287.53.41 1.112.469 1.792.057.662.057 1.482.057 2.51v4.98c0 1.03 0 1.85-.057 2.512-.06.68-.182 1.26-.469 1.792a4.65 4.65 0 0 1-2.083 1.97c-.547.264-1.146.379-1.856.433-.696.054-1.56.054-2.654.054H9.37c-1.094 0-1.958 0-2.654-.054-.71-.055-1.309-.17-1.856-.432a5.003 5.003 0 0 1-.67-.392l-.659.658a.75.75 0 0 1-1.06-1.06l17.999-18Z"/>
</svg>
