<svg xmlns="http://www.w3.org/2000/svg" fill="none" viewBox="0 0 24 24">
  <path fill="currentColor" d="m6.256 3.748-.234.002c-.487 0-.813 0-1.066.018-.246.017-.366.048-.444.08a1.25 1.25 0 0 0-.663.664c-.033.078-.064.198-.08.444-.019.253-.019.58-.019 1.066v9.734a.75.75 0 1 1-1.5 0v-9.76c0-.454 0-.833.022-1.145.022-.324.071-.63.197-.926A2.75 2.75 0 0 1 3.925 2.47c.296-.126.602-.175.926-.197.312-.022.691-.022 1.146-.022h.025l.131-.001c.212-.004.515-.01.794.036.933.152 1.54.743 1.969 1.158l.122.118c.463.44.792.689 1.345.689h4.309a.75.75 0 1 1 0 1.5h-4.309c-1.17 0-1.871-.618-2.38-1.103l-.079-.075c-.49-.468-.768-.733-1.217-.806-.136-.022-.262-.02-.451-.018m8.994-.75a.75.75 0 0 1 .75-.75h1.5a.75.75 0 1 1 0 1.5H16a.75.75 0 0 1-.75-.75Zm5.22-.53a.75.75 0 1 1 1.06 1.06l-1.042 1.043c.23.142.438.324.613.539.427.522.649 1.203.649 1.889v12c0 .686-.222 1.367-.649 1.89-.43.525-1.05.86-1.737.86H4.636c-.375 0-.732-.1-1.048-.277l-.058.057a.75.75 0 0 1-1.06-1.06l18-18Zm-9.873 11.995a3.251 3.251 0 1 0 4.367-4.367l-4.367 4.367Z"/>
</svg>
