<svg xmlns="http://www.w3.org/2000/svg" fill="none" viewBox="0 0 24 24">
  <path fill="currentColor" d="M6.153 2.25a4.47 4.47 0 0 1 .794.035c.933.152 1.54.743 1.969 1.158l.122.118c.463.441.792.69 1.345.69h8.98c.688 0 1.308.334 1.738.86.427.522.649 1.203.649 1.89v12c0 .685-.222 1.366-.649 1.89-.43.524-1.05.86-1.737.86H4.636c-.687 0-1.307-.336-1.737-.86a3.004 3.004 0 0 1-.649-1.89V5.996c0-.455 0-.834.022-1.146.022-.324.071-.63.197-.926A2.75 2.75 0 0 1 3.925 2.47c.296-.126.602-.175.926-.197.312-.022.691-.022 1.146-.022h.025l.131-.002ZM15.25 3a.75.75 0 0 1 .75-.75h3a.75.75 0 1 1 0 1.5h-3a.75.75 0 0 1-.75-.75ZM13.5 9.75a3.25 3.25 0 1 0 0 6.5 3.25 3.25 0 0 0 0-6.5Z"/>
</svg>
