<svg xmlns="http://www.w3.org/2000/svg" fill="none" viewBox="0 0 24 24">
  <path fill="currentColor" d="M2.25 19V6.02c0-.466 0-.854.021-1.17.023-.324.072-.63.198-.926a2.75 2.75 0 0 1 1.456-1.457l.224-.08a3.2 3.2 0 0 1 .702-.116c.317-.022.705-.022 1.171-.022.203 0 .582-.02.925.036l.188.037c.915.215 1.497.852 1.902 1.238.463.441.793.689 1.347.689h8.981c.684 0 1.304.332 1.734.86.43.521.65 1.205.651 1.89v12c0 .685-.221 1.368-.65 1.89h-.001c-.431.526-1.048.86-1.735.86H4.636c-.687 0-1.308-.335-1.738-.862H2.9c-.428-.523-.649-1.205-.649-1.888Zm14.5-6a3.25 3.25 0 0 0-3.089-3.246L13.5 9.75A3.25 3.25 0 1 0 16.75 13ZM19 2.25l.077.004A.75.75 0 0 1 19 3.75h-3a.75.75 0 0 1 0-1.5h3ZM18.25 13a4.752 4.752 0 0 1-4.75 4.75 4.75 4.75 0 1 1 0-9.5l.235.006A4.75 4.75 0 0 1 18.25 13Zm-14.5 6c0 .375.123.712.309.937l.003.003c.182.223.393.31.574.31h14.728c.181 0 .392-.086.575-.31l.001-.002c.187-.227.31-.563.31-.938V7c0-.375-.123-.711-.309-.937l-.003-.005c-.18-.221-.391-.308-.573-.308h-8.981c-1.171 0-1.872-.618-2.381-1.103-.54-.514-.823-.804-1.296-.88-.184-.03-.353-.017-.685-.017-.487 0-.814 0-1.067.018-.245.017-.364.048-.443.081a1.25 1.25 0 0 0-.662.662l-.001.002c-.033.078-.064.196-.081.442-.018.252-.018.58-.018 1.066V19Z"/>
</svg>
