<svg xmlns="http://www.w3.org/2000/svg" fill="none" viewBox="0 0 24 24">
  <path fill="currentColor" d="M20.25 7c0-.375-.123-.711-.309-.937l-.003-.005c-.18-.221-.391-.308-.573-.308h-.054L16.06 9a4.75 4.75 0 0 1 2.189 4 4.756 4.756 0 0 1-3.977 4.68A4.752 4.752 0 0 1 9.5 15.558L4.81 20.25h14.553c.182 0 .394-.086.576-.31a1.5 1.5 0 0 0 .31-.94V7Zm-18 8.756V6.02c0-.466 0-.854.021-1.17.023-.324.072-.63.198-.926a2.75 2.75 0 0 1 1.456-1.457l.224-.08a3.2 3.2 0 0 1 .702-.116c.317-.022.705-.022 1.171-.022.203 0 .582-.02.925.036l.188.037c.915.215 1.497.852 1.902 1.238.463.442.793.689 1.346.689h4.31l.076.004a.75.75 0 0 1 0 1.492l-.077.004h-4.31c-1.17 0-1.87-.618-2.38-1.103-.54-.514-.822-.804-1.295-.88-.184-.03-.353-.017-.685-.017-.487 0-.814 0-1.067.018-.245.017-.364.048-.443.081a1.25 1.25 0 0 0-.662.662l-.001.002c-.033.078-.064.196-.081.442-.018.252-.018.58-.018 1.066v9.735a.75.75 0 0 1-1.5 0Zm8.35-1.296a3.249 3.249 0 1 0 5.543-3.353 3.249 3.249 0 0 0-1.181-1.009L10.6 14.46Zm6.9-12.21a.75.75 0 0 1 0 1.5H16a.75.75 0 0 1 0-1.5h1.5ZM21.75 19c0 .685-.22 1.367-.648 1.89l-.001-.002c-.431.528-1.05.862-1.737.862H4.636c-.376 0-.731-.102-1.047-.28l-.059.06a.75.75 0 1 1-1.06-1.06l18-18a.75.75 0 0 1 1.06 1.06l-1.044 1.043c.23.14.438.321.613.536.43.522.65 1.206.651 1.89v12Z"/>
</svg>
