<svg xmlns="http://www.w3.org/2000/svg" fill="none" viewBox="0 0 24 24">
  <path fill="currentColor" d="M18.843 15.267a.75.75 0 0 1 .314 1.466 53.63 53.63 0 0 0-4.922 1.307 65.44 65.44 0 0 1 5.1 2.29.75.75 0 0 1-.6 1.371l-.07-.03-.83-.408a61.848 61.848 0 0 0-5.833-2.467 62.583 62.583 0 0 0-6.667 2.875.75.75 0 0 1-.67-1.342 65.372 65.372 0 0 1 5.103-2.289 54.05 54.05 0 0 0-4.023-1.105l-.902-.201-.074-.02a.75.75 0 0 1 .388-1.447 55.874 55.874 0 0 1 6.844 1.937 55.836 55.836 0 0 1 6.842-1.937Zm-9.59-12.27a.75.75 0 0 1 .857-.183c1.735.761 2.57 2.274 2.97 3.502.048.148.089.294.126.435.519-.545 1.228-1.137 2.137-1.55a.752.752 0 0 1 1.021.442c.302.891.697 1.932.907 2.957.213 1.04.26 2.164-.194 3.255a5.501 5.501 0 0 1-5.076 3.395c-3.04 0-5.5-2.472-5.5-5.517 0-2.896 1.161-4.188 2.67-6.627l.082-.11ZM8 9.732a4.008 4.008 0 0 0 4 4.016 4 4 0 0 0 3.693-2.468c.293-.704.29-1.492.108-2.38-.13-.634-.34-1.265-.565-1.92a6.04 6.04 0 0 0-1.206 1.096 6.402 6.402 0 0 0-.603.848l-.025.046-.005.006a.75.75 0 0 1-1.405-.216l-.01-.128V8.63l-.001-.023-.004-.103a7.03 7.03 0 0 0-.324-1.726c-.275-.845-.755-1.713-1.588-2.282C8.7 6.652 8 7.56 8 9.733Z"/>
</svg>
