<svg xmlns="http://www.w3.org/2000/svg" fill="none" viewBox="0 0 24 24">
  <path fill="currentColor" d="M11.25 21.5v-3.992l-2.234.67c-1.884.566-3.307-.325-4.44-1.228l-.469-.384a1.252 1.252 0 0 1-.442-1.105l.028-.153c.037-.15.101-.294.19-.421l.098-.121c.104-.115.229-.21.368-.28l2.384-1.192-2.765-2.766c-.93-.929.022-2.488 1.278-2.07l4.666 1.556 1.35-7.644.035-.13a.75.75 0 0 1 1.441.13l1.35 7.644 4.665-1.556c1.252-.417 2.211 1.138 1.279 2.07l-2.767 2.766 2.386 1.193c.14.07.264.165.368.28l.097.12.081.133a1.251 1.251 0 0 1-.304 1.544c-1.167.974-2.66 2.183-4.71 1.668l-.2-.054-2.233-.67V21.5a.75.75 0 1 1-1.5 0Zm.028-10.598a.951.951 0 0 1-1.234.737l-4.267-1.422 2.558 2.556c.08.08.144.175.191.277l.04.104.028.109a.95.95 0 0 1-.409.975l-.097.057-2.724 1.361c1.126.912 2.026 1.444 3.222 1.085l3.198-.96a.754.754 0 0 1 .432 0l3.198.96c1.196.358 2.095-.174 3.22-1.086l-2.721-1.36a.954.954 0 0 1-.513-.697.95.95 0 0 1 .033-.444l.041-.104a.95.95 0 0 1 .19-.276l2.558-2.557-4.265 1.422a.953.953 0 0 1-1.082-.363.951.951 0 0 1-.154-.374L12 6.812l-.722 4.09Z"/>
</svg>
