<svg xmlns="http://www.w3.org/2000/svg" fill="none" viewBox="0 0 24 24">
  <path fill="currentColor" d="M21.25 7A2.25 2.25 0 0 0 19 4.75h-.472V9a.75.75 0 0 1-.75.75H12.43a.75.75 0 0 1-.75-.75V4.791c-3.252.358-5.43 3.046-5.43 6.605v5.854h2.106a2.747 2.747 0 0 1 2.644-2l.271.014a2.749 2.749 0 0 1 2.373 1.986H19l.223-.01a2.25 2.25 0 0 0 2.016-2.017L21.25 15V7Zm-10.374 9.756A1.25 1.25 0 1 0 11 16.75l-.124.006ZM13.18 8.25h3.848v-3.5H13.18v3.5ZM22.75 15A3.75 3.75 0 0 1 19 18.75h-5.356a2.747 2.747 0 0 1-5.288 0H3A1.75 1.75 0 0 1 1.25 17v-1a.75.75 0 0 1 1.5 0v1l.005.049A.25.25 0 0 0 3 17.25h1.75v-5.854c0-4.528 3.067-8.146 7.68-8.146H19A3.75 3.75 0 0 1 22.75 7v8Z"/>
</svg>
