<svg xmlns="http://www.w3.org/2000/svg" fill="none" viewBox="0 0 24 24">
  <path fill="currentColor" d="M9.236 19.353a.75.75 0 1 0 .014.147l-.014-.147Zm8.014.147a.75.75 0 0 0-1.5 0l.015.148a.75.75 0 0 0 1.485-.148ZM2.787 2.281a.75.75 0 0 1 .907.434l.025.072.55 1.863h14.655c1.84 0 3.246 1.716 2.715 3.511l-1.654 5.6c-.354 1.193-1.473 1.989-2.715 1.989H8.112c-1.243 0-2.363-.796-2.715-1.99L2.99 5.613h.001l-.71-2.4-.018-.074a.75.75 0 0 1 .524-.857Zm4.048 11.054c.155.525.667.915 1.277.915h9.158c.609 0 1.12-.388 1.276-.915l1.654-5.6.033-.143c.117-.718-.451-1.442-1.309-1.442H4.714l2.121 7.185ZM13.47 7.97a.75.75 0 1 1 1.06 1.06l-.97.97.97.97.052.056a.75.75 0 0 1-1.055 1.056l-.057-.052-.97-.97-.97.97a.75.75 0 1 1-1.06-1.06l.97-.97-.97-.97-.052-.056a.75.75 0 0 1 1.056-1.056l.056.052.97.97.97-.97Zm-2.73 11.753a2.25 2.25 0 1 1 .01-.223l-.01.223Zm8.01-.223a2.25 2.25 0 0 1-4.49.223l-.01-.223a2.25 2.25 0 0 1 4.5 0Z"/>
</svg>
