<svg xmlns="http://www.w3.org/2000/svg" fill="none" viewBox="0 0 24 24">
  <path fill="currentColor" d="M2.823 19.12a.751.751 0 0 1 1.062 1.06l-.355.354a.75.75 0 1 1-1.06-1.06l.353-.354ZM6.25 20A3.25 3.25 0 0 0 3 16.75a.75.75 0 0 1 0-1.5A4.75 4.75 0 0 1 7.75 20a.75.75 0 0 1-1.5 0Zm4 0A7.25 7.25 0 0 0 3 12.75a.75.75 0 0 1 0-1.5A8.75 8.75 0 0 1 11.75 20a.75.75 0 0 1-1.5 0Zm-8-11.972c0-.906-.007-1.51.135-2.025a3.751 3.751 0 0 1 2.618-2.618c.514-.142 1.119-.135 2.025-.135H16.2c.828 0 1.494 0 2.032.043.546.045 1.026.14 1.47.366a3.75 3.75 0 0 1 1.639 1.639c.226.444.321.924.366 1.47.044.538.043 1.204.043 2.032v6.4c0 .828.001 1.494-.043 2.032-.045.546-.14 1.026-.366 1.47a3.75 3.75 0 0 1-1.639 1.639c-.444.226-.924.321-1.47.366-.538.044-1.204.043-2.032.043h-2.052a.75.75 0 0 1 0-1.5H16.2c.852 0 1.447 0 1.91-.038.453-.037.714-.106.912-.207a2.25 2.25 0 0 0 .983-.983c.1-.198.17-.459.207-.913.038-.462.038-1.057.038-1.909V8.8c0-.852 0-1.447-.038-1.91-.037-.453-.106-.714-.207-.911a2.25 2.25 0 0 0-.983-.984c-.198-.1-.459-.17-.913-.207-.462-.038-1.057-.038-1.909-.038H7.028c-.88 0-1.26.006-1.521.057L5.4 4.83a2.25 2.25 0 0 0-1.527 1.432L3.83 6.4c-.074.27-.081.622-.081 1.627a.75.75 0 0 1-1.5 0Z"/>
</svg>
