<svg xmlns="http://www.w3.org/2000/svg" fill="none" viewBox="0 0 24 24">
  <path fill="currentColor" d="M2.25 14.6V3a.75.75 0 0 1 1.5 0v11.6c0 1.132 0 1.937.052 2.566.05.62.147 1.005.302 1.31l.125.223c.313.51.76.924 1.295 1.196l.119.056c.286.123.648.203 1.191.247.63.052 1.434.052 2.566.052H21a.75.75 0 0 1 0 1.5H9.4c-1.107 0-1.983 0-2.688-.057-.713-.058-1.317-.18-1.868-.46a4.752 4.752 0 0 1-2.076-2.077c-.281-.551-.403-1.155-.461-1.868-.058-.704-.057-1.58-.057-2.688Zm13 .9a1.75 1.75 0 1 0-3.5 0 1.75 1.75 0 0 0 3.5 0Zm5-6a1.75 1.75 0 0 0-3.5 0l.009.173A1.75 1.75 0 0 0 20.25 9.5Zm-8-2a2.75 2.75 0 1 0-5.499 0 2.75 2.75 0 0 0 5.499 0Zm4.5 8a3.25 3.25 0 1 1-6.5 0 3.25 3.25 0 0 1 6.5 0Zm5-6a3.25 3.25 0 0 1-6.496.161L15.25 9.5a3.25 3.25 0 0 1 6.5 0Zm-8-2a4.251 4.251 0 0 1-5.876 3.927A4.253 4.253 0 0 1 5.25 7.5a4.25 4.25 0 0 1 8.5 0Z"/>
</svg>
