<svg xmlns="http://www.w3.org/2000/svg" fill="none" viewBox="0 0 24 24">
  <path fill="currentColor" d="M2.25 14.6V3a.75.75 0 0 1 1.5 0v11.6c0 1.132 0 1.937.052 2.566.05.62.147 1.005.302 1.31l.125.223c.313.51.76.924 1.295 1.196l.119.056c.286.123.648.203 1.191.247.63.052 1.434.052 2.566.052H21a.75.75 0 0 1 0 1.5H9.4c-1.107 0-1.983 0-2.688-.057-.713-.058-1.317-.18-1.868-.46a4.752 4.752 0 0 1-2.076-2.077c-.281-.551-.403-1.155-.461-1.868-.058-.704-.057-1.58-.057-2.688Zm16 1.4a1.25 1.25 0 0 0-1.126-1.244L17 14.75A1.25 1.25 0 1 0 18.25 16Zm-7-4c0-.277-.09-.533-.243-.741l-.07-.086a1.25 1.25 0 1 0 0 1.654l.07-.086c.153-.208.243-.464.243-.741Zm5-6a1.25 1.25 0 0 0-1.126-1.244L15 4.75a1.25 1.25 0 0 0 0 2.5l.124-.006A1.25 1.25 0 0 0 16.25 6Zm1.5 0a2.75 2.75 0 0 1-2.479 2.736L15 8.75c-.428 0-.844-.103-1.22-.29l-1.382 2.197A2.738 2.738 0 0 1 12.562 13l2.406 1.153c.029-.032.057-.066.088-.096A2.75 2.75 0 0 1 17 13.25l.271.014a2.749 2.749 0 1 1-2.973 2.231l-2.672-1.28a2.751 2.751 0 1 1-.964-4.884c.224.056.44.14.64.25l1.354-2.15A2.746 2.746 0 0 1 12.25 6 2.75 2.75 0 0 1 15 3.25l.271.014A2.75 2.75 0 0 1 17.75 6Z"/>
</svg>
