<svg xmlns="http://www.w3.org/2000/svg" fill="none" viewBox="0 0 24 24">
  <path fill="currentColor" d="M2.25 14.6V3a.75.75 0 0 1 1.5 0v11.6c0 1.132 0 1.937.052 2.566.05.62.147 1.005.302 1.31l.125.223c.313.51.76.924 1.295 1.196l.119.056c.286.123.648.203 1.191.247.63.052 1.434.052 2.566.052H21a.75.75 0 0 1 0 1.5H9.4c-1.107 0-1.983 0-2.688-.057-.713-.058-1.317-.18-1.868-.46a4.752 4.752 0 0 1-2.076-2.077c-.281-.551-.403-1.155-.461-1.868-.058-.704-.057-1.58-.057-2.688Zm16-.1a.75.75 0 0 0-.602-.735l-.148-.015h-9a.75.75 0 0 0-.75.75v1a.75.75 0 0 0 .75.75h9l.148-.015a.75.75 0 0 0 .602-.735v-1Zm-4-7a.75.75 0 0 0-.75-.75h-5a.75.75 0 0 0-.75.75v1a.75.75 0 0 0 .75.75h5l.148-.015a.75.75 0 0 0 .587-.588l.015-.147v-1Zm5.5 8a2.25 2.25 0 0 1-2.25 2.25h-9a2.25 2.25 0 0 1-2.25-2.25v-1a2.25 2.25 0 0 1 2.25-2.25h9a2.25 2.25 0 0 1 2.25 2.25v1Zm-4-7a2.25 2.25 0 0 1-2.25 2.25h-5A2.25 2.25 0 0 1 6.25 8.5v-1A2.25 2.25 0 0 1 8.5 5.25h5a2.25 2.25 0 0 1 2.25 2.25v1Z"/>
</svg>
