<svg xmlns="http://www.w3.org/2000/svg" fill="none" viewBox="0 0 24 24">
  <path fill="currentColor" d="M2.25 3a.75.75 0 0 1 1.5 0v10.898l2.627-2.187.326-.259c.761-.571 1.526-.911 2.345-.86.928.06 1.714.61 2.458 1.353l.007.007c.72.72 1.201.921 1.567.926.375.005.854-.191 1.58-.827l5.846-5.115a.75.75 0 0 1 .988 1.128l-5.846 5.115c-.806.705-1.643 1.211-2.588 1.199-.952-.012-1.79-.548-2.608-1.365l-.007-.007c-.667-.667-1.122-.893-1.492-.916-.362-.023-.852.136-1.616.773l-3.582 2.984c.005.52.017.95.047 1.319.05.62.147 1.005.302 1.31l.125.223c.313.51.76.924 1.295 1.196l.119.056c.286.123.648.203 1.191.247.63.052 1.434.052 2.566.052H21a.75.75 0 0 1 0 1.5H9.4c-1.107 0-1.983 0-2.688-.057-.713-.058-1.317-.18-1.868-.46a4.752 4.752 0 0 1-2.076-2.077c-.281-.551-.403-1.155-.461-1.868a23.55 23.55 0 0 1-.052-1.71.752.752 0 0 1-.001-.151c-.001-.26-.004-.536-.004-.827V3Z"/>
</svg>
