<svg xmlns="http://www.w3.org/2000/svg" fill="none" viewBox="0 0 24 24">
  <path fill="currentColor" d="M2.25 14.6V3a.75.75 0 0 1 1.5 0v11.6c0 1.132 0 1.937.052 2.566.05.62.147 1.005.302 1.31l.125.223c.313.51.76.924 1.295 1.196l.119.056c.286.123.648.203 1.191.247.63.052 1.434.052 2.566.052H21a.75.75 0 0 1 0 1.5H9.4c-1.107 0-1.983 0-2.688-.057-.713-.058-1.317-.18-1.868-.46a4.752 4.752 0 0 1-2.076-2.077c-.281-.551-.403-1.155-.461-1.868-.058-.704-.057-1.58-.057-2.688Zm8.5-4.6h-2.5v6a.75.75 0 0 0 .75.75h1a.75.75 0 0 0 .75-.75v-6Zm7 4.25h-2.5V16l.015.148a.751.751 0 0 0 .735.602h1a.75.75 0 0 0 .75-.75v-1.75Zm-7-7.25a.75.75 0 0 0-.75-.75H9a.75.75 0 0 0-.75.75v1.5h2.5V7Zm7 4a.75.75 0 0 0-.602-.735L17 10.25h-1a.75.75 0 0 0-.75.75v1.75h2.5V11Zm1.5 5A2.25 2.25 0 0 1 17 18.25h-1A2.25 2.25 0 0 1 13.75 16v-5A2.25 2.25 0 0 1 16 8.75h1A2.25 2.25 0 0 1 19.25 11v5Zm-7 0A2.25 2.25 0 0 1 10 18.25H9A2.25 2.25 0 0 1 6.75 16V7A2.25 2.25 0 0 1 9 4.75h1l.223.01A2.25 2.25 0 0 1 12.25 7v9Z"/>
</svg>
