<svg xmlns="http://www.w3.org/2000/svg" fill="none" viewBox="0 0 24 24">
  <path fill="currentColor" d="M2.25 14.6V3a.75.75 0 0 1 1.5 0v11.6c0 1.132 0 1.937.052 2.566.05.62.147 1.005.302 1.31l.125.223c.313.51.76.924 1.295 1.196l.119.056c.286.123.648.203 1.191.247.63.052 1.434.052 2.566.052H21a.75.75 0 0 1 0 1.5H9.4c-1.107 0-1.983 0-2.688-.057-.713-.058-1.317-.18-1.868-.46a4.752 4.752 0 0 1-2.076-2.077c-.281-.551-.403-1.155-.461-1.868-.058-.704-.057-1.58-.057-2.688Zm8-5.1c0-.055-.01-.14-.22-.249-.229-.118-.593-.194-1.01-.184L9 9.068h-.001c-.408.012-.778.106-1.02.236a.65.65 0 0 0-.21.159c-.021.027-.019.034-.019.037v4c0 .055.01.14.22.249.229.118.593.194 1.01.184l.02-.001c.408-.013.779-.106 1.021-.236a.65.65 0 0 0 .21-.159c.021-.027.019-.035.019-.037v-4Zm6 8v-3.148a3.487 3.487 0 0 1-.979-.332c-.494-.264-1.021-.757-1.021-1.52v-6c0-.855.644-1.353 1.146-1.592.27-.128.565-.219.854-.274V3.5a.75.75 0 0 1 1.5 0v1.168c.292.067.591.167.862.3.452.223 1.138.7 1.138 1.532v6c0 .784-.49 1.302-1.03 1.581-.296.153-.63.248-.97.3V17.5a.75.75 0 0 1-1.5 0Zm-4.5-4c0 .763-.527 1.256-1.021 1.52a3.487 3.487 0 0 1-.979.332V17.5a.75.75 0 0 1-1.5 0v-2.118a3.176 3.176 0 0 1-.97-.3c-.54-.28-1.03-.799-1.03-1.582v-4c0-.763.527-1.256 1.021-1.52a3.49 3.49 0 0 1 .979-.334V5.5a.75.75 0 0 1 1.5 0v2.117c.34.053.673.149.97.302.54.279 1.03.797 1.03 1.581v4Zm4-1c0 .002-.002.01.019.037a.65.65 0 0 0 .21.16c.242.129.612.222 1.02.235h.02c.418.011.782-.065 1.011-.183.21-.109.22-.194.22-.249V6.53c-.014-.023-.074-.104-.3-.216-.305-.15-.7-.237-.975-.247a2.208 2.208 0 0 0-.933.195.804.804 0 0 0-.263.18c-.031.037-.029.051-.029.058v6Z"/>
</svg>
