<svg xmlns="http://www.w3.org/2000/svg" fill="none" viewBox="0 0 24 24">
  <path fill="currentColor" d="M2.25 14.6V3a.75.75 0 0 1 1.5 0v11.6c0 1.132 0 1.937.052 2.566.05.62.147 1.005.302 1.31l.125.223c.313.51.76.924 1.295 1.196l.119.056c.286.123.648.203 1.191.247.63.052 1.434.052 2.566.052H21a.75.75 0 0 1 0 1.5H9.4c-1.107 0-1.983 0-2.688-.057-.713-.058-1.317-.18-1.868-.46a4.752 4.752 0 0 1-2.076-2.077c-.281-.551-.403-1.155-.461-1.868-.058-.704-.057-1.58-.057-2.688Zm3-6.92c0-1.62 2.011-2.369 3.072-1.146l.001.001 4.134 4.77a.25.25 0 0 0 .338.036l2.272-1.704a1.752 1.752 0 0 1 2.634.655l2.136 4.536.068.16a2.751 2.751 0 0 1-2.384 3.756l-.173.006H8A2.75 2.75 0 0 1 5.25 16V7.68ZM6.75 16l.006.124A1.25 1.25 0 0 0 8 17.25h9.349a1.25 1.25 0 0 0 1.13-1.782l-2.134-4.537a.252.252 0 0 0-.33-.122l-.047.028-2.273 1.704a1.753 1.753 0 0 1-2.258-.134l-.114-.12-4.134-4.77a.25.25 0 0 0-.439.163V16Z"/>
</svg>
