<svg xmlns="http://www.w3.org/2000/svg" fill="none" viewBox="0 0 24 24">
  <path fill="currentColor" d="M4.25 21v-6a.75.75 0 0 1 1.5 0v6a.75.75 0 0 1-1.5 0Zm5 0v-8a.75.75 0 0 1 1.5 0v8a.75.75 0 0 1-1.5 0Zm4.5 0v-7a.75.75 0 0 1 1.5 0v7a.75.75 0 0 1-1.5 0Zm4.5 0V11a.75.75 0 0 1 1.5 0v10a.75.75 0 0 1-1.5 0Zm2.256-17.064a.75.75 0 0 1 .988 1.129l-5.846 5.114c-.806.705-1.643 1.211-2.587 1.199-.953-.012-1.791-.548-2.609-1.365l-.007-.007c-.667-.667-1.122-.893-1.492-.916-.362-.023-.852.136-1.616.773L3.48 13.076a.75.75 0 0 1-.961-1.152L6.377 8.71l.326-.259c.761-.571 1.526-.911 2.345-.86.928.06 1.714.61 2.458 1.353l.007.007c.72.72 1.201.921 1.567.926.375.005.854-.191 1.58-.827l5.846-5.115Z"/>
</svg>
