<svg xmlns="http://www.w3.org/2000/svg" fill="none" viewBox="0 0 24 24">
  <path fill="currentColor" d="M20.25 11.429a1.251 1.251 0 0 0-1.25-1.25h-3.25V20.25H19A1.25 1.25 0 0 0 20.25 19v-7.571ZM3.75 19A1.25 1.25 0 0 0 5 20.25h3.25v-6.214H5a1.25 1.25 0 0 0-1.25 1.25V19Zm10.5-14A1.25 1.25 0 0 0 13 3.75h-2A1.25 1.25 0 0 0 9.75 5v15.25h4.5V5Zm1.5 3.679H19a2.75 2.75 0 0 1 2.75 2.75V19A2.75 2.75 0 0 1 19 21.75H5A2.75 2.75 0 0 1 2.25 19v-3.714A2.75 2.75 0 0 1 5 12.536h3.25V5A2.75 2.75 0 0 1 11 2.25h2A2.75 2.75 0 0 1 15.75 5v3.679Z"/>
</svg>
