<svg xmlns="http://www.w3.org/2000/svg" fill="none" viewBox="0 0 24 24">
  <path fill="currentColor" d="M2.25 14.6V3a.75.75 0 0 1 1.5 0v11.6c0 1.132 0 1.937.052 2.566.05.62.147 1.005.302 1.31l.125.223c.313.51.76.924 1.295 1.196l.119.056c.286.123.648.203 1.191.247.63.052 1.434.052 2.566.052H21a.75.75 0 0 1 0 1.5H9.4c-1.107 0-1.983 0-2.688-.057-.713-.058-1.317-.18-1.868-.46a4.752 4.752 0 0 1-2.076-2.077c-.281-.551-.403-1.155-.461-1.868-.058-.704-.057-1.58-.057-2.688Zm8.134-7.434c.714-1.983 3.518-1.983 4.232 0 .301.836.564 1.762.83 2.668.269.918.546 1.828.885 2.683.64 1.613 1.463 2.923 2.742 3.67l.263.142.066.038a.75.75 0 0 1-.668 1.334l-.07-.03-.35-.19c-1.706-.998-2.691-2.684-3.377-4.41-.367-.926-.661-1.895-.931-2.814-.274-.932-.52-1.802-.8-2.583-.239-.66-1.173-.66-1.411 0-.282.781-.527 1.651-.8 2.583-.27.919-.565 1.888-.932 2.813-.732 1.842-1.803 3.638-3.727 4.6a.75.75 0 0 1-.672-1.34c1.43-.716 2.322-2.093 3.005-3.813.34-.855.616-1.765.886-2.683.265-.906.528-1.832.829-2.668Z"/>
</svg>
