<svg xmlns="http://www.w3.org/2000/svg" fill="none" viewBox="0 0 24 24">
  <path fill="currentColor" d="M13.263 2.254a8.75 8.75 0 0 1 8.06 11.45l-.085.25c-.177.492-.186 1.125-.085 1.878.102.76.291 1.507.45 2.285a1.2 1.2 0 0 1-1.542 1.392c-.688-.215-1.34-.44-1.985-.56-.56-.103-1.03-.109-1.422.011l-.163.06c-1.356.57-2.754.707-4.13.726A5.741 5.741 0 0 1 8 21.75a5.75 5.75 0 0 1-1.745-.268l-.24-.083c-.616-.226-1.24-.104-2.101.131a1.218 1.218 0 0 1-1.526-1.407c.184-.974.324-1.751.119-2.417l-.06-.208a5.75 5.75 0 0 1-.194-1.281L2.25 16a5.75 5.75 0 0 1 2.007-4.363c.07-2.36.828-4.64 2.24-6.368C7.994 3.435 10.205 2.25 13 2.25l.263.004Zm7.166 16.111.44-.097-.437.088-.003.01Zm0 0 .003-.009.437-.088-.44.097ZM13 3.75c-2.33 0-4.12.972-5.34 2.468-.983 1.202-1.61 2.762-1.826 4.456a5.752 5.752 0 0 1 7.901 4.919 5.749 5.749 0 0 1-.426 2.612c.922-.067 1.78-.224 2.6-.568.81-.342 1.674-.304 2.44-.162.576.106 1.16.287 1.68.452-.129-.588-.277-1.256-.363-1.896-.112-.833-.139-1.752.16-2.585A7.25 7.25 0 0 0 13 3.75ZM3.75 16c0 .32.036.64.107.952l.083.309c.285.92.15 1.903.001 2.71.758-.187 1.656-.324 2.591.02.47.172.967.26 1.467.259h.002l.247-.007A4.24 4.24 0 0 0 11.4 18.55a4.251 4.251 0 1 0-7.202-4.45A4.25 4.25 0 0 0 3.75 16Z"/>
</svg>
