<svg xmlns="http://www.w3.org/2000/svg" fill="none" viewBox="0 0 24 24">
  <path fill="currentColor" d="M8.269 2.992a9.751 9.751 0 0 1 12.739 12.74A9.75 9.75 0 0 1 12 21.75a9.75 9.75 0 0 1-4.34-1.018c-.21-.104-.525-.114-1.013.005a9.308 9.308 0 0 0-.728.22c-.243.082-.516.177-.769.244A1.922 1.922 0 0 1 2.8 18.85c.067-.252.161-.525.243-.768.086-.256.163-.496.22-.73.12-.486.11-.8.007-1.01l-.12-.246A9.751 9.751 0 0 1 8.27 2.992ZM7.25 12.75v-.5a.75.75 0 0 1 1.5 0v.5a.75.75 0 0 1-1.5 0Zm4 0v-.5a.75.75 0 0 1 1.5 0v.5a.75.75 0 0 1-1.5 0Zm4 0v-.5a.75.75 0 0 1 1.5 0v.5a.75.75 0 0 1-1.5 0ZM3.75 12c0 1.156.237 2.254.666 3.25l.195.422c.349.701.25 1.459.109 2.038-.074.3-.17.592-.256.848-.09.267-.165.484-.217.68a.422.422 0 0 0 .297.515.424.424 0 0 0 .218 0l.313-.095c.112-.036.234-.077.367-.122.256-.086.549-.182.849-.256.579-.142 1.335-.24 2.036.11a8.249 8.249 0 0 0 3.673.86l.306-.006A8.25 8.25 0 1 0 3.75 12Z"/>
</svg>
