<svg xmlns="http://www.w3.org/2000/svg" fill="none" viewBox="0 0 24 24">
  <path fill="currentColor" d="M2.25 12A9.75 9.75 0 0 1 12 2.25 9.75 9.75 0 0 1 21.75 12 9.75 9.75 0 0 1 12 21.75a9.7 9.7 0 0 1-4.342-1.018c-.21-.104-.523-.114-1.01.005a8.74 8.74 0 0 0-.729.22l-.086.03c-.22.074-.46.154-.683.214-1.427.382-2.733-.924-2.351-2.35.06-.224.14-.463.214-.684l.03-.086c.085-.255.163-.495.22-.729.12-.487.11-.8.005-1.01A9.7 9.7 0 0 1 2.25 12Zm6.5.25a.75.75 0 1 0-1.5 0v.5a.75.75 0 1 0 1.5 0v-.5Zm4 0a.75.75 0 1 0-1.5 0v.5a.75.75 0 1 0 1.5 0v-.5Zm4 0a.75.75 0 1 0-1.5 0v.5a.75.75 0 1 0 1.5 0v-.5Z"/>
</svg>
