<svg xmlns="http://www.w3.org/2000/svg" fill="none" viewBox="0 0 24 24">
  <path fill="currentColor" d="M2.25 14.6V9.4c0-1.107 0-1.983.057-2.688.058-.713.18-1.317.46-1.868a4.752 4.752 0 0 1 2.077-2.076c.551-.281 1.155-.403 1.868-.461.705-.058 1.58-.057 2.688-.057a.75.75 0 0 1 0 1.5c-1.132 0-1.937 0-2.566.052-.543.044-.905.124-1.191.247l-.119.056A3.25 3.25 0 0 0 4.23 5.3l-.125.223c-.155.305-.252.69-.302 1.31-.052.63-.052 1.434-.052 2.566v5.2c0 1.132 0 1.937.052 2.566.05.62.147 1.005.302 1.31l.125.223c.313.51.76.924 1.295 1.196l.119.056c.286.123.648.203 1.191.247.63.052 1.434.052 2.566.052h5.2c1.132 0 1.937 0 2.566-.052.62-.05 1.005-.147 1.31-.303l.223-.125a3.25 3.25 0 0 0 1.196-1.294l.056-.118c.123-.287.203-.649.247-1.192.052-.63.052-1.434.052-2.566v-1.1a.75.75 0 0 1 1.5 0v1.1c0 1.107 0 1.984-.057 2.688-.058.713-.18 1.317-.46 1.868a4.752 4.752 0 0 1-2.077 2.077c-.551.28-1.155.402-1.868.46-.704.058-1.58.057-2.688.057H9.4c-1.107 0-1.983.001-2.688-.057-.713-.058-1.317-.18-1.868-.46a4.752 4.752 0 0 1-2.076-2.077c-.281-.551-.403-1.154-.461-1.868-.058-.704-.057-1.58-.057-2.688ZM20.398 2.552a.75.75 0 0 1 1.204.896l-7.233 9.692-.005.006a1.54 1.54 0 0 1-2.354.108l-.004-.005-3.563-3.94a.75.75 0 0 1 1.059-1.06l.055.054 3.556 3.935a.05.05 0 0 0 .015.01c.005.002.01.002.016.002a.037.037 0 0 0 .028-.015l7.226-9.683Z"/>
</svg>
