<svg xmlns="http://www.w3.org/2000/svg" fill="none" viewBox="0 0 24 24">
  <path fill="currentColor" d="M17.388 6.567a.75.75 0 1 1 1.224.866l-5.641 7.986c-.373.527-.679.96-.952 1.286-.277.33-.572.615-.952.795a2.584 2.584 0 0 1-1.852.14h-.001c-.403-.122-.735-.363-1.052-.649-.313-.282-.67-.666-1.104-1.131L5.45 14.138l-.049-.059a.75.75 0 0 1 1.091-1.018l.056.053 1.605 1.723c.452.484.76.812 1.013 1.041.25.226.388.298.481.326.225.068.461.06.683-.02l.095-.04c.093-.045.224-.14.444-.403.224-.267.488-.64.875-1.188l5.643-7.986Z"/>
</svg>
