<svg xmlns="http://www.w3.org/2000/svg" fill="none" viewBox="0 0 24 24">
  <path fill="currentColor" d="M17.25 4a.25.25 0 0 0-.201-.245L17 3.75H7a.25.25 0 0 0-.25.25v16a.25.25 0 0 0 .25.25h10a.25.25 0 0 0 .25-.25V4Zm1.5 1.25H21a.75.75 0 0 1 0 1.5h-2.25v2.5H21a.75.75 0 0 1 0 1.5h-2.25v2.5H21a.75.75 0 0 1 0 1.5h-2.25v2.5H21a.75.75 0 0 1 0 1.5h-2.25V20A1.75 1.75 0 0 1 17 21.75H7A1.75 1.75 0 0 1 5.25 20v-1.25H3a.75.75 0 0 1 0-1.5h2.25v-2.5H3a.75.75 0 0 1 0-1.5h2.25v-2.5H3a.75.75 0 0 1 0-1.5h2.25v-2.5H3a.75.75 0 0 1 0-1.5h2.25V4A1.75 1.75 0 0 1 7 2.25h10A1.75 1.75 0 0 1 18.75 4v1.25Z"/>
</svg>
