<svg xmlns="http://www.w3.org/2000/svg" fill="none" viewBox="0 0 24 24">
  <path fill="currentColor" d="M20.25 14a.25.25 0 0 0-.25-.25h-3.25v2.5H20a.25.25 0 0 0 .25-.25v-2ZM8.81 16.25h6.44v-2.5h-3.94l-2.5 2.5ZM2.25 10c0-.53.173-1.05.377-1.508.206-.463.476-.934.722-1.364.254-.445.484-.849.653-1.23.171-.385.248-.678.248-.898a.75.75 0 0 1 1.5 0c0 .53-.173 1.05-.377 1.508-.206.463-.476.934-.722 1.364-.254.445-.484.849-.653 1.23-.171.385-.248.678-.248.898a.75.75 0 1 1-1.5 0Zm3.5 0c0-.53.173-1.05.377-1.508.206-.463.476-.934.722-1.364.254-.445.484-.849.653-1.23.171-.385.248-.678.248-.898a.75.75 0 0 1 1.5 0c0 .53-.173 1.05-.377 1.508-.206.463-.476.934-.722 1.364-.254.445-.484.849-.653 1.23-.171.385-.248.678-.248.898a.75.75 0 1 1-1.5 0Zm-2 6 .005.049a.25.25 0 0 0 .245.2h2.69l2.5-2.5H4a.25.25 0 0 0-.25.25v2Zm18 0A1.75 1.75 0 0 1 20 17.75H7.31l-3.78 3.78a.75.75 0 1 1-1.06-1.06l2.72-2.72H4A1.75 1.75 0 0 1 2.25 16v-2A1.75 1.75 0 0 1 4 12.25h6.69l9.78-9.78a.75.75 0 1 1 1.06 1.06l-8.72 8.72H20A1.75 1.75 0 0 1 21.75 14v2Z"/>
</svg>
