<svg xmlns="http://www.w3.org/2000/svg" fill="none" viewBox="0 0 24 24">
  <path fill="currentColor" d="M11.25 3a.75.75 0 0 1 .75-.75 9.7 9.7 0 0 1 3.792.765.749.749 0 0 1-.297 1.441.75.75 0 0 1-.287-.059A8.2 8.2 0 0 0 12 3.75a.75.75 0 0 1-.75-.75Zm-2.06.414a.75.75 0 0 1-.398.983 8.3 8.3 0 0 0-2.626 1.77.75.75 0 0 1-1.06-1.061 9.8 9.8 0 0 1 3.102-2.091.75.75 0 0 1 .983.399m8.644 1.692a.75.75 0 0 1 1.06 0 9.8 9.8 0 0 1 2.091 3.102.75.75 0 1 1-1.382.584 8.3 8.3 0 0 0-1.77-2.626.75.75 0 0 1 .001-1.06ZM3.998 7.809a.75.75 0 0 1 .399.983A8.2 8.2 0 0 0 3.75 12a.75.75 0 1 1-1.5 0 9.7 9.7 0 0 1 .765-3.792.75.75 0 0 1 .983-.399ZM21 11.25a.75.75 0 0 1 .75.75 9.7 9.7 0 0 1-.765 3.792.75.75 0 1 1-1.382-.584A8.2 8.2 0 0 0 20.25 12a.75.75 0 0 1 .75-.75ZM3.414 14.81a.75.75 0 0 1 .983.398 8.3 8.3 0 0 0 1.77 2.626.75.75 0 0 1-1.061 1.06 9.8 9.8 0 0 1-2.091-3.102.75.75 0 0 1 .399-.983m15.48 3.024a.75.75 0 0 1 0 1.06c-.89.89-1.943 1.6-3.102 2.091a.75.75 0 1 1-.584-1.382 8.3 8.3 0 0 0 2.626-1.77.75.75 0 0 1 1.06.001ZM7.81 20.002a.75.75 0 0 1 .983-.399A8.199 8.199 0 0 0 12 20.25a.75.75 0 1 1 0 1.5 9.7 9.7 0 0 1-3.792-.765.749.749 0 0 1-.398-.983Z"/>
</svg>
