<svg xmlns="http://www.w3.org/2000/svg" fill="none" viewBox="0 0 24 24">
  <path fill="currentColor" d="M7.809 20.003a.75.75 0 0 1 .982-.4 8.25 8.25 0 0 0 2.796.637l.413.01.076.004a.75.75 0 0 1 .001 1.492L12 21.75l-.487-.012a9.75 9.75 0 0 1-2.85-.575l-.454-.178-.07-.033a.75.75 0 0 1-.33-.95Zm10.024-2.169a.75.75 0 0 1 1.062 1.06 9.77 9.77 0 0 1-3.103 2.09.75.75 0 1 1-.584-1.38 8.25 8.25 0 0 0 2.625-1.77ZM3.414 14.81a.75.75 0 0 1 .95.329l.032.069.165.363a8.25 8.25 0 0 0 1.605 2.262.75.75 0 0 1-1.06 1.062 9.752 9.752 0 0 1-1.897-2.673l-.193-.43-.027-.072a.75.75 0 0 1 .425-.91ZM20.25 12a.75.75 0 0 1 1.5 0c0 1.302-.26 2.591-.765 3.791a.75.75 0 0 1-1.383-.582A8.252 8.252 0 0 0 20.25 12Zm-18 0c0-1.343.272-2.625.766-3.792a.75.75 0 1 1 1.38.584A8.216 8.216 0 0 0 3.75 12a.75.75 0 0 1-1.5 0Zm15.583-6.894a.75.75 0 0 1 1.06 0 9.75 9.75 0 0 1 1.898 2.672l.193.43.027.072a.75.75 0 0 1-1.374.581l-.034-.069-.164-.363a8.252 8.252 0 0 0-1.605-2.262.75.75 0 0 1-.001-1.06Zm-9.625-2.09a.75.75 0 1 1 .584 1.38 8.25 8.25 0 0 0-2.625 1.77.75.75 0 0 1-1.062-1.06 9.75 9.75 0 0 1 3.103-2.09ZM12 2.25a9.73 9.73 0 0 1 3.35.59l.442.176.07.033a.75.75 0 0 1-.582 1.374l-.072-.027-.374-.147A8.23 8.23 0 0 0 12 3.75a.75.75 0 0 1 0-1.5Z"/>
</svg>
