<svg xmlns="http://www.w3.org/2000/svg" fill="none" viewBox="0 0 24 24">
  <path fill="currentColor" d="M8.853 3.259v-.001h.019v.002c.19.01.42.027.662.112.259.09.48.236.7.427.303.263.672.677 1.196 1.3l.579.697.181.235c.163.225.322.483.475.747.004-.043.007-.088.014-.13.02-.126.07-.393.264-.609l.097-.101c.499-.492 1.18-.728 1.808-.747.658-.02 1.42.198 1.878.826l.002.003.024.034c.02.026.05.066.078.11.12.183.19.369.283.666.093.3.23.787.465 1.62l.121.429c.612 2.184.814 3.115.816 4.207l-.012.482c-.14 3.186-1.985 5.85-4.847 6.859h-.003c-.31.109-.554.188-.83.237-.271.049-.55.066-.923.08-1.082.037-1.756-.075-2.685-.49-1.339-.596-2.105-1.32-4.661-4.125l-.003-.003c-.28-.31-.609-.67-.911-.999l-.76-.817c-.197-.21-.392-.435-.549-.632a5.423 5.423 0 0 1-.212-.282 1.82 1.82 0 0 1-.167-.29 2.448 2.448 0 0 1-.122-1.596 2.26 2.26 0 0 1 .738-1.188 2.796 2.796 0 0 1-.393-1.375c-.004-.648.253-1.246.721-1.725.244-.249.574-.501.915-.609l.005-.002a.816.816 0 0 1 .099-.023c-.008-.045-.017-.09-.024-.136-.052-.334-.078-.712-.013-1.067.066-.361.242-.78.66-1.046l.004-.002a2.482 2.482 0 0 1 2.234-.167 2.549 2.549 0 0 1 1.05-.78l.018-.007c.31-.128.691-.145 1.009-.124Zm-.357 1.498c-.078.008-.097.02-.076.01l-.033.014c-.169.066-.32.176-.434.317a5 5 0 0 0 .172.488 20.097 20.097 0 0 0 .284.671.812.812 0 0 1 .06.441.75.75 0 0 1-1.326.354c-.023-.028-.04-.054-.041-.055l-.02-.03-.042-.064-.126-.192c-.1-.155-.23-.356-.365-.557-.136-.202-.27-.396-.38-.54-.028-.04-.054-.071-.075-.097a.996.996 0 0 0-.723.073c-.004.012-.012.032-.018.062-.022.122-.02.312.02.57.079.507.275 1.084.433 1.505a.75.75 0 0 1-.985.972c-.09-.037-.16-.086-.166-.09-.044-.03-.094-.07-.134-.1-.093-.072-.196-.154-.313-.241a5.735 5.735 0 0 0-.133-.096 1.57 1.57 0 0 0-.105.099c-.215.22-.296.445-.295.668.001.216.082.49.305.807.036.012.078.027.136.044.058.017.136.04.211.065.13.043.376.128.577.304a1.02 1.02 0 0 1 .329.999.964.964 0 0 1-.385.594c-.21.147-.43.176-.582.176-.277 0-.546-.102-.698-.163-.071-.029-.14-.06-.203-.088a.953.953 0 0 0-.047.813c-.006-.013 0 .001.035.051.036.052.087.12.152.202.13.163.296.357.467.537.365.388 1.124 1.213 1.69 1.838 2.274 2.495 2.988 3.166 3.804 3.593l.36.173h.002c.691.31 1.131.391 2.018.36l.435-.022a2.87 2.87 0 0 0 .277-.034c.152-.028.303-.072.602-.176 2.227-.787 3.73-2.875 3.845-5.51.048-1.077-.056-1.74-.75-4.217l-.12-.427a78.567 78.567 0 0 0-.454-1.582 3.332 3.332 0 0 0-.084-.249c-.013-.03-.017-.034-.019-.037a1.548 1.548 0 0 0-.037-.051l-.027-.038-.034-.039c-.091-.089-.284-.182-.587-.172a1.243 1.243 0 0 0-.74.263c-.002.043-.004.1-.004.17.003.245.032.56.066.903.032.324.072.683.087.962a3.02 3.02 0 0 1-.002.431 1.25 1.25 0 0 1-.055.27.839.839 0 0 1-.36.456c-.496.296-.927-.036-1.02-.116a1.927 1.927 0 0 1-.33-.39c-.17-.252-.358-.603-.539-.946-.391-.742-.784-1.506-1.144-1.94-.89-1.076-1.315-1.573-1.601-1.822a.676.676 0 0 0-.211-.143.926.926 0 0 0-.257-.032h-.009l-.01-.001a1.56 1.56 0 0 0-.268.002Z"/>
  <path fill="currentColor" d="M18.618 7.869c-.168.184-.147.321.16 1.39.905 3.137.979 5.754.215 7.48-.301.671-.65 1.185-1.253 1.822-.314.335-.562.657-.562.733 0 .226.368.753.582.753.456 0 1.887-.928 2.68-1.955 1.42-1.84 1.12-3.604.802-5.912-.247-1.803-1.393-4.16-1.587-4.38-.14-.164-.883-.11-1.037.069Z"/>
</svg>
