<svg xmlns="http://www.w3.org/2000/svg" fill="none" viewBox="0 0 24 24">
  <path fill="currentColor" d="M18.611 7.815c-.167.185-.147.322.161 1.39.904 3.138.978 5.754.214 7.48-.301.672-.65 1.185-1.252 1.822-.315.336-.563.658-.563.733 0 .226.369.754.583.754.455 0 1.887-.928 2.68-1.956 1.419-1.84 1.119-3.603.802-5.911-.248-1.804-1.393-4.161-1.588-4.38-.14-.165-.883-.11-1.037.068Z"/>
  <path fill="currentColor" fill-rule="evenodd" d="M8.115 4.082a1.8 1.8 0 0 0-.917.801c-.155.274-.201.316-.268.233-.04-.048-.235-.164-.422-.246a1.732 1.732 0 0 0-1.568.102c-.723.46-.984 1.316-.663 2.172.027.068-.04.123-.241.185-.174.054-.402.212-.603.418-.683.698-.676 1.643.014 2.54.214.281.107.336.107.336s-.228.096-.409.206c-.583.377-.817 1.28-.509 1.973.067.157.422.602.79.993.362.383 1.119 1.205 1.682 1.829 2.579 2.828 3.242 3.424 4.414 3.945.81.363 1.366.459 2.35.425.744-.028.925-.062 1.535-.274 2.545-.898 4.22-3.274 4.347-6.186.053-1.205-.08-1.965-.777-4.452l-.12-.428c-.474-1.68-.535-1.898-.653-2.076a2.03 2.03 0 0 0-.058-.082l-.026-.037c-.53-.726-1.93-.685-2.62.082-.314.35-.259 1.459-.488 1.596-.326.194-.737-.843-1.581-1.863C9.689 4.17 9.54 4.04 8.819 4.007c-.289-.02-.55.007-.704.075Z" clip-rule="evenodd"/>
</svg>
