<svg xmlns="http://www.w3.org/2000/svg" fill="none" viewBox="0 0 24 24">
  <path fill="currentColor" d="M18.611 7.679c-.167.187-.147.326.161 1.406.904 3.172.978 5.818.214 7.563-.301.679-.65 1.198-1.252 1.843-.315.339-.563.664-.563.74 0 .23.369.762.583.762.455 0 1.887-.938 2.68-1.977 1.419-1.86 1.119-3.643.802-5.977-.248-1.824-1.393-4.208-1.588-4.43-.14-.165-.883-.11-1.037.07Z"/>
  <path fill="currentColor" fill-rule="evenodd" d="M8.115 3.904a1.806 1.806 0 0 0-.917.81c-.155.278-.201.32-.268.236-.04-.048-.235-.166-.422-.25a1.716 1.716 0 0 0-1.568.105c-.723.464-.984 1.33-.663 2.195.027.07-.04.125-.241.187-.174.056-.402.215-.603.423-.683.706-.676 1.662.014 2.57.214.283.107.339.107.339s-.228.097-.409.207c-.583.381-.817 1.296-.509 1.995.067.16.422.61.79 1.004.362.388 1.119 1.22 1.682 1.85 2.579 2.86 3.242 3.463 4.414 3.989.81.367 1.366.464 2.35.43.744-.028.925-.063 1.535-.278 2.545-.907 4.22-3.31 4.347-6.254.053-1.219-.08-1.988-.777-4.502l-.12-.433c-.474-1.699-.535-1.919-.653-2.1a2.057 2.057 0 0 0-.058-.082l-.026-.037c-.53-.735-1.93-.693-2.62.083-.314.353-.259 1.475-.488 1.614-.326.196-.737-.852-1.581-1.884-1.742-2.127-1.89-2.258-2.612-2.293-.289-.02-.55.007-.704.076Z" clip-rule="evenodd"/>
  <path fill="currentColor" d="M18.82 1.844a.737.737 0 0 1 1.054-.022c.297.29.306.771.02 1.073L18.02 4.881a.735.735 0 0 1-1.053.022.767.767 0 0 1-.02-1.072l1.873-1.987ZM11.881.006a.748.748 0 0 1 .835.656l.33 2.623a.756.756 0 0 1-.644.85.749.749 0 0 1-.834-.657l-.33-2.623a.756.756 0 0 1 .644-.849Zm4.226.134a.762.762 0 0 1 .484.953l-.79 2.52a.743.743 0 0 1-.938.491.762.762 0 0 1-.483-.953l.79-2.52a.743.743 0 0 1 .94-.491Z"/>
</svg>
