<svg xmlns="http://www.w3.org/2000/svg" fill="none" viewBox="0 0 24 24">
  <path fill="currentColor" d="M11.266 10.014c.12-.008.24.001.356.028l.173.053.004.002 9.165 3.614.004.002a1.245 1.245 0 0 1 0 2.313l-.003.001-3.51 1.385-1.373 3.542c-.409 1.06-1.901 1.061-2.31.002l-3.582-9.25a1.245 1.245 0 0 1-.06-.702l.049-.174c.06-.169.158-.323.286-.452l.136-.118c.143-.108.31-.184.487-.222l.178-.024Zm3.66 9.772 1.25-3.222.032-.07a.75.75 0 0 1 .392-.355l3.213-1.27-8.013-3.161 3.127 8.078Zm-8.945-2.905a.75.75 0 0 1-1.065-1.056l1.065 1.056Zm.405-2.54a.751.751 0 0 1 1.066 1.056l-1.47 1.484-.533-.529-.533-.527 1.47-1.484Zm-1.427-4.178.077.004a.75.75 0 0 1 0 1.492l-.077.004H3a.75.75 0 0 1 0-1.5h1.959ZM4.922 4.94a.75.75 0 0 1 1.004-.046l.056.051 1.471 1.483a.75.75 0 0 1-1.065 1.056L4.917 6.001a.75.75 0 0 1 .005-1.06Zm10.83-.046A.75.75 0 0 1 16.763 6l-1.47 1.483-.057.052a.75.75 0 0 1-1.008-1.108l1.47-1.483.056-.051Zm-5.663.085V3a.75.75 0 0 1 1.5 0v1.979a.75.75 0 0 1-1.5 0Z"/>
</svg>
