<svg xmlns="http://www.w3.org/2000/svg" fill="none" viewBox="0 0 24 24">
  <path fill="currentColor" d="M18.25 7a1.25 1.25 0 0 0-1.126-1.244L17 5.75h-1.25V7a.75.75 0 0 1-.75.75H9A.75.75 0 0 1 8.25 7V5.75H7A1.25 1.25 0 0 0 5.75 7v12l.006.124A1.25 1.25 0 0 0 7 20.25h10A1.25 1.25 0 0 0 18.25 19V7ZM11 3.75A1.25 1.25 0 0 0 9.75 5v1.25h4.5V5a1.25 1.25 0 0 0-1.126-1.244L13 3.75h-2ZM19.75 19A2.75 2.75 0 0 1 17 21.75H7A2.75 2.75 0 0 1 4.25 19V7A2.75 2.75 0 0 1 7 4.25h1.356a2.747 2.747 0 0 1 2.644-2h2a2.75 2.75 0 0 1 2.644 2H17A2.75 2.75 0 0 1 19.75 7v12Z"/>
</svg>
