<svg xmlns="http://www.w3.org/2000/svg" fill="none" viewBox="0 0 24 24">
  <path fill="currentColor" d="M10.68 2.105a2.63 2.63 0 0 1 2.64 0l.001.001 6.611 3.8A2.65 2.65 0 0 1 21.25 8.2v7.603a2.66 2.66 0 0 1-1.318 2.291l-.003.002-6.608 3.799h-.002a2.63 2.63 0 0 1-2.639 0h-.001l-6.608-3.8h-.003A2.64 2.64 0 0 1 2.75 15.8V8.198a2.66 2.66 0 0 1 1.318-2.291l.003-.002 6.609-3.8ZM12.75 6a.75.75 0 1 0-1.5 0v6c0 .284.16.544.415.67l4 2a.749.749 0 0 0 1.074-.908.751.751 0 0 0-.404-.432l-3.585-1.793V6Z"/>
</svg>
