<svg xmlns="http://www.w3.org/2000/svg" fill="none" viewBox="0 0 24 24">
  <path fill="currentColor" d="M9.75 21v-1a.75.75 0 0 1 1.5 0v1a.75.75 0 0 1-1.5 0Zm-3.981-9.89c1.5-.792 3.317-1.12 4.953-.63 1.546.464 2.829 1.631 3.492 3.59 1.56.164 3.035.993 3.86 2.138.469.653.75 1.445.658 2.29-.093.853-.554 1.652-1.369 2.334a.75.75 0 0 1-.963-1.15c.582-.487.799-.955.841-1.347.044-.4-.08-.829-.384-1.251-.625-.868-1.9-1.546-3.208-1.546a.75.75 0 0 1-.724-.56c-.481-1.825-1.505-2.721-2.635-3.06-1.175-.352-2.583-.135-3.821.519-1.24.653-2.203 1.687-2.563 2.834-.345 1.098-.171 2.41 1.074 3.78a.75.75 0 0 1-1.112 1.01c-1.565-1.724-1.914-3.581-1.393-5.24.505-1.61 1.794-2.92 3.294-3.712ZM6.75 19v-1a.75.75 0 0 1 1.5 0v1a.75.75 0 0 1-1.5 0Zm6 0v-1a.75.75 0 0 1 1.5 0v1a.75.75 0 0 1-1.5 0Zm5.248-7.001a.751.751 0 0 1 1.062 0l.706.706a.75.75 0 0 1-1.062 1.06l-.706-.705a.75.75 0 0 1 0-1.061ZM14.933 6.25l.146.004c1.504.078 2.67 1.347 2.671 2.864l-.006.194a2.882 2.882 0 0 1-1.488 2.345l-.07.034a.75.75 0 0 1-.652-1.348l.156-.1a1.381 1.381 0 0 0 .56-1.117v-.004c0-.776-.607-1.371-1.315-1.372a1.32 1.32 0 0 0-1.229.874.75.75 0 0 1-1.412-.508 2.82 2.82 0 0 1 2.634-1.866h.005Zm6.067 2a.75.75 0 0 1 0 1.5h-1.06a.75.75 0 0 1 0-1.5H21Zm-8.999-3.309a.75.75 0 0 1-1.061 1.06L12 4.941Zm7.059 1.06a.751.751 0 0 1-1.062-1.06L19.06 6Zm-8.825-1.767a.75.75 0 0 1 1.003-.05l.058.051.705.706-.531.53-.53.53-.706-.706-.051-.057a.75.75 0 0 1 .052-1.004Zm8.47 0a.751.751 0 0 1 1.06 1.06l-.705.707-1.062-1.06.706-.707ZM14.25 4.06V3a.75.75 0 0 1 1.5 0v1.059a.75.75 0 0 1-1.5 0Z"/>
</svg>
