<svg xmlns="http://www.w3.org/2000/svg" fill="none" viewBox="0 0 24 24">
  <path fill="currentColor" d="M5.768 11.11c1.5-.792 3.318-1.12 4.954-.63 1.546.464 2.83 1.63 3.493 3.588 1.56.165 3.034.995 3.858 2.14.47.653.751 1.444.66 2.289-.093.853-.555 1.653-1.37 2.335a.75.75 0 1 1-.962-1.15l.201-.182c.432-.42.602-.822.64-1.165.042-.4-.083-.829-.387-1.251-.624-.868-1.897-1.547-3.205-1.547a.75.75 0 0 1-.725-.56c-.481-1.825-1.504-2.721-2.634-3.06-1.175-.352-2.584-.135-3.822.518-1.24.654-2.203 1.69-2.563 2.835-.345 1.099-.172 2.411 1.073 3.782l-.555.504-.555.504c-1.566-1.723-1.915-3.58-1.395-5.239.506-1.61 1.795-2.92 3.294-3.712Zm-.789 7.942a.75.75 0 0 1-1.11 1.008l1.11-1.008Zm5.27-10.963c0-2.704 1.79-5.526 5.19-5.836a.75.75 0 0 1 .667 1.196c-1.041 1.39-.685 2.985.363 4.025 1.049 1.04 2.67 1.403 4.09.369a.75.75 0 0 1 1.188.675c-.174 1.857-1.255 3.408-2.719 4.323a.75.75 0 1 1-.795-1.272 4.4 4.4 0 0 0 1.603-1.744c-1.66.428-3.317-.19-4.423-1.287-1.11-1.101-1.733-2.756-1.29-4.408-1.545.724-2.373 2.32-2.373 3.959a.75.75 0 0 1-1.5 0Z"/>
</svg>
