<svg xmlns="http://www.w3.org/2000/svg" fill="none" viewBox="0 0 24 24">
  <path fill="currentColor" d="M16.596 8.388c-.832-2.66-2.494-4.222-4.493-4.836-2.087-.641-4.42-.215-6.354.832-1.934 1.047-3.576 2.77-4.216 4.859-.65 2.13-.228 4.533 1.773 6.796a6.14 6.14 0 0 0 4.003 2.169.8.8 0 0 0-.059.298l.004.5a.75.75 0 0 0 1.5-.012l-.004-.5a.8.8 0 0 0-.043-.244H12a.75.75 0 0 1-.745-.744l-.004-.5a.75.75 0 1 1 1.5-.012l.004.5a.75.75 0 0 1-.743.756h-.002 3.284a.802.802 0 0 0-.043.256l.004.5a.75.75 0 0 0 1.5-.012l-.004-.5a.795.795 0 0 0-.043-.244h.165c1.218 0 2.778-.227 3.894-1.184 1.036-.888 1.6-1.91 1.713-2.974.112-1.057-.23-2.06-.82-2.9-1.065-1.52-3.013-2.627-5.064-2.804Zm.112 9.862a.75.75 0 0 0-1.414 0h1.414Zm-8 0a.75.75 0 0 0-1.399-.042c.238.028.478.042.718.042h.681Zm4.043 2.244a.75.75 0 1 0-1.5.012l.004.5a.75.75 0 0 0 1.5-.012l-.004-.5ZM7.994 14.25a.75.75 0 0 1 .756.744l.004.5a.75.75 0 1 1-1.5.012l-.004-.5a.75.75 0 0 1 .744-.756Zm8 0a.751.751 0 0 1 .756.744l.004.5a.75.75 0 1 1-1.5.012l-.004-.5a.751.751 0 0 1 .744-.756Z"/>
</svg>
