<svg xmlns="http://www.w3.org/2000/svg" fill="none" viewBox="0 0 24 24">
  <path fill="currentColor" d="m17.257 20.789.013.075a.75.75 0 0 1-1.46.311l-.02-.074-1.043-4.89.733-.156.733-.157 1.044 4.89Zm-4-2 .013.075a.75.75 0 0 1-1.46.311l-.02-.074-1.043-4.89.733-.156.733-.157 1.044 4.89ZM5.928 4.57c1.92-1.04 4.236-1.464 6.307-.827 1.985.61 3.632 2.162 4.457 4.803 2.128.186 4.149 1.38 5.169 3.004.566.901.842 1.967.602 3.068-.239 1.1-.97 2.126-2.207 2.995l-.065.04a.75.75 0 0 1-.797-1.268l.183-.133c.883-.669 1.29-1.349 1.42-1.954.14-.644-.007-1.313-.407-1.95-.82-1.305-2.622-2.329-4.471-2.329a.75.75 0 0 1-.727-.563c-.65-2.531-2.044-3.802-3.598-4.28-1.599-.491-3.495-.184-5.15.712-1.656.897-2.969 2.328-3.464 3.948-.481 1.575-.222 3.432 1.455 5.328a.75.75 0 0 1-1.123.994c-1.991-2.25-2.414-4.642-1.766-6.76C2.38 7.321 4.008 5.61 5.928 4.57Zm3.33 12.218.012.075a.75.75 0 0 1-1.46.311l-.02-.074-1.043-4.89.733-.156.733-.157 1.044 4.89Zm6.066-1.467a.75.75 0 0 1 .89.576l-1.467.314a.75.75 0 0 1 .577-.89Zm-4-2a.75.75 0 0 1 .89.576l-1.467.313a.75.75 0 0 1 .577-.89Zm-4-2a.75.75 0 0 1 .89.576l-1.467.313a.75.75 0 0 1 .577-.89Z"/>
</svg>
