<svg xmlns="http://www.w3.org/2000/svg" fill="none" viewBox="0 0 24 24">
  <path fill="currentColor" d="M5.749 5.384c1.934-1.047 4.266-1.473 6.353-.832 2 .614 3.662 2.176 4.493 4.838 2.051.178 3.998 1.283 5.064 2.801.59.841.932 1.844.82 2.9-.113 1.066-.677 2.087-1.713 2.975a.75.75 0 0 1-.976-1.138c.802-.689 1.131-1.38 1.197-1.995.066-.623-.128-1.27-.556-1.88-.872-1.244-2.623-2.19-4.41-2.19a.75.75 0 0 1-.726-.563c-.655-2.551-2.063-3.831-3.633-4.314-1.615-.496-3.529-.187-5.2.717-1.67.904-2.995 2.346-3.495 3.978-.486 1.59-.224 3.46 1.469 5.372a.75.75 0 1 1-1.123.995c-2.007-2.266-2.433-4.673-1.78-6.806.64-2.09 2.28-3.812 4.216-4.858Z"/>
</svg>
