<svg xmlns="http://www.w3.org/2000/svg" fill="none" viewBox="0 0 24 24">
  <path fill="currentColor" d="M9.75 21v-1a.75.75 0 0 1 1.5 0v1a.75.75 0 0 1-1.5 0Zm-3.981-9.89c1.5-.792 3.317-1.12 4.953-.63 1.546.464 2.829 1.631 3.492 3.59 1.56.164 3.035.993 3.86 2.138.469.653.75 1.445.658 2.29-.093.853-.554 1.652-1.369 2.334a.75.75 0 0 1-.963-1.15c.582-.487.799-.955.841-1.347.044-.4-.08-.829-.384-1.251-.625-.868-1.9-1.546-3.208-1.546a.75.75 0 0 1-.724-.56c-.481-1.825-1.505-2.721-2.635-3.06-1.175-.352-2.583-.135-3.821.519-1.24.653-2.203 1.687-2.563 2.833-.345 1.1-.171 2.411 1.074 3.782a.75.75 0 0 1-1.112 1.009c-1.565-1.724-1.914-3.581-1.393-5.24.505-1.61 1.794-2.92 3.294-3.712ZM6.75 19v-1a.75.75 0 0 1 1.5 0v1a.75.75 0 0 1-1.5 0Zm6 0v-1a.75.75 0 0 1 1.5 0v1a.75.75 0 0 1-1.5 0Zm-2.5-10.911c0-2.703 1.788-5.526 5.188-5.836a.75.75 0 0 1 .668 1.196c-1.041 1.39-.685 2.985.363 4.025 1.049 1.04 2.67 1.403 4.089.369a.752.752 0 0 1 1.188.675c-.174 1.857-1.254 3.408-2.718 4.323a.75.75 0 0 1-.795-1.272 4.399 4.399 0 0 0 1.602-1.744c-1.66.427-3.317-.19-4.423-1.287-1.11-1.1-1.733-2.755-1.289-4.407-1.545.724-2.373 2.319-2.373 3.958a.75.75 0 0 1-1.5 0Z"/>
</svg>
