<svg xmlns="http://www.w3.org/2000/svg" fill="none" viewBox="0 0 24 24">
  <path fill="currentColor" d="M13.37 5.349c-3.002-1.71-6.924-.662-9.428 1.54C2.67 8.01 1.697 9.478 1.37 11.148c-.311 1.58-.03 3.285 1.034 4.952l.224.333.047.06a.75.75 0 0 0 1.22-.86l-.04-.064-.184-.272c-.87-1.36-1.062-2.678-.83-3.86.253-1.28 1.016-2.47 2.094-3.42C7.13 6.085 10.36 5.36 12.63 6.65a.75.75 0 1 0 .74-1.302m7.03-2.931a.75.75 0 0 1 1.057 1.056l-.052.056-5.16 5.16c.13.3.246.617.35.95 2.052.178 3.999 1.283 5.064 2.8.59.843.932 1.845.82 2.9-.107 1-.608 1.96-1.524 2.808l-.19.168c-1.116.957-2.676 1.184-3.893 1.184H8.026a6.098 6.098 0 0 1-2.186-.405L3.405 21.53a.75.75 0 1 1-1.06-1.06l18-18 .056-.052Z"/>
</svg>
