<svg xmlns="http://www.w3.org/2000/svg" fill="none" viewBox="0 0 24 24">
  <path fill="currentColor" d="M16.596 8.388c-.832-2.66-2.494-4.222-4.493-4.836-2.087-.641-4.42-.215-6.354.832-1.934 1.047-3.576 2.77-4.216 4.859-.65 2.13-.228 4.533 1.773 6.796a6.14 6.14 0 0 0 4.72 2.211h3.228V19a.75.75 0 0 0 1.5 0v-.75h2.498l.002 2.75a.75.75 0 0 0 1.5 0l-.002-2.75h.12c1.218 0 2.778-.227 3.894-1.184 1.036-.888 1.6-1.91 1.713-2.974.112-1.057-.23-2.06-.82-2.9-1.065-1.52-3.012-2.627-5.063-2.804Zm.156 9.862h-1.5L15.25 16a.75.75 0 0 1 1.5 0l.002 2.25Zm-3.998 0h-1.5L11.25 14a.75.75 0 0 1 1.5 0l.004 4.25ZM8 11.25a.747.747 0 0 1 .751.75l.004 5a.75.75 0 0 1-1.5 0l-.004-5a.75.75 0 0 1 .75-.75Z"/>
</svg>
