<svg xmlns="http://www.w3.org/2000/svg" fill="none" viewBox="0 0 24 24">
  <path fill="currentColor" d="M5.768 11.11c1.5-.792 3.318-1.12 4.954-.63 1.546.464 2.83 1.63 3.493 3.588 1.56.165 3.034.995 3.858 2.14.47.653.751 1.444.66 2.29-.093.852-.555 1.652-1.37 2.334a.75.75 0 1 1-.962-1.15l.201-.182c.432-.42.602-.822.64-1.165.042-.4-.083-.829-.387-1.251-.624-.868-1.897-1.547-3.205-1.547a.75.75 0 0 1-.725-.56c-.481-1.825-1.504-2.721-2.634-3.06-1.175-.352-2.584-.135-3.822.518-1.24.654-2.203 1.69-2.563 2.835-.345 1.1-.172 2.411 1.073 3.782l-.555.504-.555.505c-1.566-1.724-1.915-3.581-1.395-5.24.506-1.61 1.795-2.92 3.294-3.712Zm-.789 7.942a.75.75 0 0 1-1.11 1.009l1.11-1.01ZM18 11.999a.75.75 0 0 1 1.004-.052l.056.052.706.706.052.057a.75.75 0 0 1-1.055 1.054l-.057-.05L18 13.06l-.052-.058A.75.75 0 0 1 18 11.999Zm-1.743-.342a.75.75 0 1 1-.722-1.314l.722 1.314ZM14.934 6.25l.146.004c1.503.078 2.668 1.347 2.67 2.864a2.882 2.882 0 0 1-1.494 2.54l-.36-.658-.362-.657a1.381 1.381 0 0 0 .716-1.217v-.004c0-.776-.606-1.37-1.315-1.372a1.322 1.322 0 0 0-1.23.874.75.75 0 0 1-1.411-.508 2.82 2.82 0 0 1 2.634-1.866h.005Zm6.066 2a.75.75 0 0 1 0 1.5h-1.06a.75.75 0 0 1 0-1.5H21Zm-9-3.309a.75.75 0 0 1-1.06 1.06L12 4.941Zm6.705-.707a.75.75 0 0 1 1.06 1.06l-.706.707A.75.75 0 1 1 18 4.941l.706-.707Zm-8.47 0a.75.75 0 0 1 1.004-.05l.057.051.705.706-.531.53-.53.53-.706-.706a.75.75 0 0 1 .001-1.06Zm4.015-.175V3a.75.75 0 0 1 1.5 0v1.059a.75.75 0 0 1-1.5 0Z"/>
</svg>
