<svg xmlns="http://www.w3.org/2000/svg" fill="none" viewBox="0 0 24 24">
  <path fill="currentColor" d="M16.755 21a.75.75 0 0 1-1.5 0h1.5ZM16 15.25a.75.75 0 0 1 .75.75l.005 5h-1.5l-.005-5 .004-.077A.751.751 0 0 1 16 15.25ZM12.755 19a.75.75 0 0 1-1.5 0h1.5ZM12 13.25a.75.75 0 0 1 .75.75l.005 5h-1.5l-.005-5 .004-.077A.751.751 0 0 1 12 13.25ZM8.755 17a.75.75 0 0 1-1.5 0h1.5ZM5.928 4.57c1.92-1.039 4.236-1.463 6.307-.826 1.985.61 3.632 2.162 4.457 4.803 2.128.186 4.149 1.38 5.169 3.004.566.901.842 1.967.602 3.068-.239 1.1-.97 2.126-2.207 2.995l-.065.04a.75.75 0 0 1-.797-1.268l.183-.133c.883-.669 1.29-1.349 1.42-1.954.14-.644-.007-1.313-.407-1.95-.82-1.305-2.622-2.329-4.471-2.329a.75.75 0 0 1-.727-.563c-.65-2.531-2.044-3.802-3.598-4.28-1.599-.491-3.495-.184-5.15.712-1.656.897-2.969 2.328-3.464 3.948-.481 1.575-.222 3.432 1.455 5.328a.75.75 0 0 1-1.123.994c-1.991-2.25-2.414-4.642-1.766-6.76C2.38 7.321 4.008 5.61 5.928 4.57ZM8 11.25a.75.75 0 0 1 .75.75l.005 5h-1.5l-.005-5 .004-.077A.75.75 0 0 1 8 11.25Z"/>
</svg>
