<svg xmlns="http://www.w3.org/2000/svg" fill="none" viewBox="0 0 24 24">
  <path fill="currentColor" d="M20.345 2.47a.75.75 0 1 1 1.06 1.06l-5.16 5.16c.13.3.247.618.35.95 2.052.178 3.999 1.282 5.064 2.801.59.842.932 1.844.82 2.9-.106.999-.608 1.96-1.524 2.807l-.19.168c-1.116.957-2.675 1.184-3.893 1.184H8.026a6.136 6.136 0 0 1-2.186-.405L3.405 21.53a.75.75 0 0 1-1.06-1.06l18-18ZM7.042 17.892c.32.07.65.108.984.108h8.846c1.105 0 2.215-.22 2.918-.822.803-.689 1.132-1.38 1.197-1.995.067-.623-.128-1.27-.556-1.88-.873-1.244-2.623-2.19-4.408-2.19a.75.75 0 0 1-.726-.561 9.527 9.527 0 0 0-.213-.702l-8.042 8.042Zm-3.1-11.001c2.426-2.135 6.183-3.185 9.145-1.695l.284.153.065.04a.75.75 0 0 1-.807 1.262c-2.27-1.291-5.5-.567-7.695 1.366-1.078.948-1.841 2.139-2.093 3.418-.233 1.183-.041 2.5.829 3.86l.184.273.04.065a.75.75 0 0 1-1.22.86l-.047-.061-.224-.333c-1.064-1.667-1.345-3.37-1.034-4.953.329-1.669 1.302-3.137 2.574-4.255Z"/>
</svg>
