<svg xmlns="http://www.w3.org/2000/svg" fill="none" viewBox="0 0 24 24">
  <path fill="currentColor" d="M9.86 2.534c1.54-.422 3.226-.41 4.695.282 1.362.64 2.462 1.833 3.075 3.63 1.76.161 3.434 1.063 4.365 2.319.524.706.837 1.563.735 2.478-.104.922-.617 1.787-1.526 2.524v-.001a3.48 3.48 0 0 1-.203.15c.722.72 1.255 1.6 1.434 2.572.26 1.411-.25 2.862-1.668 4.079-1.117.957-2.677 1.183-3.895 1.183H8.026a6.15 6.15 0 0 1-4.727-2.22c-1.78-2.018-2.314-4.154-1.933-6.118.351-1.806 1.457-3.378 2.886-4.532-.025-1.48.608-2.824 1.564-3.889C6.86 3.828 8.318 2.956 9.86 2.534Zm1.289 5.823c-1.853-.367-4 .235-5.681 1.478l-.001.001-.25.192c-1.227.984-2.107 2.274-2.378 3.67-.265 1.368.034 2.929 1.326 4.533l.273.322.015.017a4.652 4.652 0 0 0 3.574 1.68h8.845c1.105 0 2.215-.22 2.918-.822 1.076-.923 1.32-1.86 1.17-2.668-.158-.859-.789-1.73-1.753-2.39a5.854 5.854 0 0 0-1.18-.62l-.003-.002a5.55 5.55 0 0 0-2.005-.385.75.75 0 0 1-.723-.563c-.721-2.807-2.357-4.089-4.147-4.443Zm2.767-4.184c-1.072-.505-2.377-.544-3.66-.192-1.283.35-2.486 1.077-3.324 2.012-.499.556-.856 1.172-1.04 1.818 1.712-.891 3.698-1.292 5.548-.926 2.275.45 4.228 2.039 5.155 5.005a7.05 7.05 0 0 1 1.977.462c.399.154.782.344 1.147.565a2.27 2.27 0 0 0 .539-.314v-.001c.676-.548.931-1.08.981-1.527.051-.454-.096-.94-.449-1.417-.723-.976-2.199-1.74-3.72-1.74a.75.75 0 0 1-.725-.555c-.466-1.716-1.38-2.696-2.429-3.19Z"/>
</svg>
