<svg xmlns="http://www.w3.org/2000/svg" fill="none" viewBox="0 0 24 24">
  <path fill="currentColor" d="M13.151 4.806a.75.75 0 0 1 1.45.388l-3.751 14a.75.75 0 0 1-1.45-.388l3.751-14ZM3.247 12c0-.786.327-1.446.825-2.099.485-.635 1.199-1.347 2.077-2.227l.23-.23a.75.75 0 0 1 1.061 1.06l-.23.23c-.908.91-1.536 1.54-1.945 2.078-.397.52-.518.862-.518 1.188 0 .326.121.67.518 1.189.41.536 1.037 1.167 1.947 2.077l.23.23.052.057a.75.75 0 0 1-1.056 1.055l-.056-.051-.23-.23c-.88-.88-1.595-1.593-2.08-2.228-.498-.653-.825-1.313-.825-2.099Zm16.007 0c0-.326-.121-.669-.518-1.188-.41-.537-1.037-1.168-1.946-2.078l-.23-.23a.75.75 0 0 1 1.06-1.06l.23.23c.88.88 1.594 1.592 2.079 2.227.498.653.825 1.313.825 2.1 0 .785-.327 1.445-.825 2.098-.485.635-1.2 1.348-2.078 2.227l-.23.23a.75.75 0 0 1-1.061-1.06l.23-.23c.91-.91 1.537-1.54 1.946-2.077.397-.52.518-.863.518-1.189Z"/>
</svg>
