<svg xmlns="http://www.w3.org/2000/svg" fill="none" viewBox="0 0 24 24">
  <path fill="currentColor" d="M20.25 8.937a.85.85 0 0 0-.046-.33.846.846 0 0 0-.203-.272l-4.336-4.336a.846.846 0 0 0-.271-.203.851.851 0 0 0-.33-.046H8.936a.85.85 0 0 0-.33.046.859.859 0 0 0-.272.204l-.001-.001-4.335 4.336a.852.852 0 0 0-.201.267.849.849 0 0 0-.048.335v6.127c0 .183.022.271.046.329.023.057.07.138.204.272l4.335 4.336a.85.85 0 0 0 .267.201.846.846 0 0 0 .335.048h6.127a.85.85 0 0 0 .33-.046.846.846 0 0 0 .271-.203L20 15.665a.85.85 0 0 0 .201-.267.845.845 0 0 0 .048-.335V8.938Zm-7.902-1.131a.75.75 0 1 1 1.449.388l-2.144 8a.75.75 0 1 1-1.449-.388l2.144-8ZM6.677 12c0-.547.23-.992.537-1.394.293-.384.72-.809 1.216-1.305l.002-.002.131-.131a.75.75 0 0 1 1.057 1.064l-.132.131c-.524.526-.864.867-1.082 1.153-.204.268-.23.396-.23.484 0 .088.026.217.23.485.217.285.556.627 1.08 1.15l.132.13a.75.75 0 1 1-1.053 1.069l-.131-.13-.004-.004c-.497-.497-.924-.922-1.217-1.306-.306-.402-.536-.847-.536-1.394Zm9.147 0c0-.087-.025-.216-.23-.484-.218-.286-.558-.628-1.082-1.153l-.132-.13-.052-.057a.75.75 0 0 1 1.05-1.06l.059.052.131.13.002.003c.496.496.923.92 1.216 1.304.307.402.538.847.538 1.395s-.232.993-.538 1.395c-.293.384-.72.809-1.216 1.305l-.004.004-.131.13a.75.75 0 0 1-1.053-1.068l.132-.13c.523-.524.862-.866 1.08-1.152.205-.268.23-.397.23-.484Zm5.926 3.063c0 .313-.04.616-.164.914-.124.297-.31.535-.524.749l-4.336 4.335a2.32 2.32 0 0 1-.763.53 2.32 2.32 0 0 1-.9.159H8.938c-.313 0-.616-.04-.914-.164a2.321 2.321 0 0 1-.749-.524L2.94 16.725a2.326 2.326 0 0 1-.53-.763 2.316 2.316 0 0 1-.159-.9V8.938c0-.313.04-.616.164-.914.124-.297.31-.535.524-.749l4.337-4.337c.222-.22.464-.406.762-.529.298-.122.598-.158.9-.158h6.127c.301 0 .6.036.899.158.299.123.541.31.763.53l4.335 4.336c.222.222.408.464.53.763.123.298.159.598.159.9v6.127Z"/>
</svg>
