<svg xmlns="http://www.w3.org/2000/svg" fill="none" viewBox="0 0 24 24">
  <path fill="currentColor" d="M20.25 9.4c0-1.132 0-1.937-.052-2.566-.044-.543-.124-.905-.247-1.191l-.056-.119A3.25 3.25 0 0 0 18.7 4.23l-.223-.125c-.305-.155-.69-.252-1.31-.302-.63-.052-1.434-.052-2.566-.052H9.4c-1.132 0-1.937 0-2.566.052-.543.044-.905.124-1.191.247l-.119.055A3.25 3.25 0 0 0 4.23 5.301l-.125.223c-.155.305-.252.69-.302 1.31-.052.63-.052 1.434-.052 2.566v5.2c0 1.132 0 1.937.052 2.566.05.62.147 1.005.302 1.31l.125.223c.313.51.76.924 1.295 1.196l.119.056c.286.123.648.203 1.191.247.63.052 1.434.052 2.566.052h5.2c1.132 0 1.937 0 2.566-.052.62-.05 1.005-.147 1.31-.303l.223-.125a3.25 3.25 0 0 0 1.196-1.294l.056-.119c.123-.286.203-.648.247-1.191.052-.63.052-1.434.052-2.566V9.4Zm-7.902-1.594a.75.75 0 1 1 1.449.388l-2.144 8a.75.75 0 1 1-1.449-.388l2.144-8ZM6.677 12c0-.547.23-.993.537-1.395.293-.384.72-.808 1.216-1.304l.002-.002.131-.131a.75.75 0 0 1 1.057 1.064l-.132.131c-.524.525-.864.867-1.082 1.153-.204.268-.23.396-.23.484 0 .088.026.216.23.484.218.286.558.628 1.084 1.155l.132.132a.75.75 0 1 1-1.06 1.06L8.43 14.7c-.497-.496-.923-.921-1.216-1.305-.307-.402-.537-.847-.537-1.394Zm9.147 0c0-.087-.025-.216-.23-.484-.218-.286-.557-.628-1.082-1.153l-.132-.13-.052-.057a.75.75 0 0 1 1.05-1.06l.059.052.131.13.002.003c.496.496.923.92 1.216 1.304.307.402.538.847.538 1.395s-.231.993-.538 1.395a7.656 7.656 0 0 1-.531.61l-.685.694-.132.132a.75.75 0 0 1-1.06-1.06l.132-.132.657-.668a6.14 6.14 0 0 0 .427-.487c.205-.268.23-.397.23-.484Zm5.926 2.6c0 1.107 0 1.984-.057 2.688-.058.713-.18 1.317-.46 1.868a4.751 4.751 0 0 1-2.077 2.076c-.551.281-1.155.403-1.868.461-.704.058-1.58.057-2.688.057H9.4c-1.107 0-1.983 0-2.688-.057-.713-.058-1.317-.18-1.868-.46a4.752 4.752 0 0 1-2.076-2.077c-.281-.551-.403-1.155-.461-1.868-.058-.704-.057-1.58-.057-2.688V9.4c0-1.107 0-1.983.057-2.688.058-.713.18-1.317.46-1.868a4.752 4.752 0 0 1 2.077-2.076c.551-.281 1.155-.403 1.868-.461.705-.058 1.58-.057 2.688-.057h5.2c1.107 0 1.984 0 2.688.057.713.058 1.317.18 1.868.46a4.752 4.752 0 0 1 2.076 2.077c.281.551.403 1.155.461 1.868.058.705.057 1.58.057 2.688v5.2Z"/>
</svg>
