<svg xmlns="http://www.w3.org/2000/svg" fill="none" viewBox="0 0 24 24">
  <path fill="currentColor" d="M12 1.75c.463 0 .916.124 1.316.355h.001l6.613 3.8.006.003a2.661 2.661 0 0 1 1.314 2.291v7.6l-.005.173a2.652 2.652 0 0 1-1.311 2.123l-.004.001-6.613 3.8a2.628 2.628 0 0 1-2.634 0l-6.613-3.8-.006-.003a2.659 2.659 0 0 1-1.314-2.29V8.2a2.65 2.65 0 0 1 1.316-2.293l.004-.002 6.613-3.8c.4-.233.854-.354 1.317-.354Zm0 1.5c-.2 0-.395.053-.567.153l-.003.002-6.61 3.797h.001a1.151 1.151 0 0 0-.571.997V15.8l.01.15a1.16 1.16 0 0 0 .563.849l6.607 3.797.003.001a1.13 1.13 0 0 0 1.134 0l.003-.002 6.609-3.797.125-.084a1.15 1.15 0 0 0 .446-.912V8.2a1.16 1.16 0 0 0-.573-1L12.57 3.406l-.003-.002A1.13 1.13 0 0 0 12 3.251Zm.348 4.555a.75.75 0 0 1 1.449.39l-2.144 8a.75.75 0 1 1-1.449-.39l2.144-8ZM6.677 12c0-.547.23-.992.537-1.394.293-.384.72-.809 1.216-1.305l.002-.002.131-.131a.75.75 0 0 1 1.057 1.064l-.132.131c-.524.525-.864.867-1.082 1.152-.204.269-.23.397-.23.485 0 .088.026.217.23.485.217.285.556.627 1.08 1.15l.132.13a.75.75 0 0 1-1.053 1.07l-.131-.131-.004-.004c-.497-.497-.924-.92-1.217-1.306-.306-.402-.536-.847-.536-1.394Zm9.147 0c0-.088-.025-.215-.23-.484-.218-.285-.557-.627-1.082-1.153l-.132-.13-.052-.058a.75.75 0 0 1 1.05-1.059l.059.052.131.13.002.003c.496.496.923.921 1.216 1.305.306.402.538.846.538 1.394 0 .547-.232.993-.538 1.394-.293.385-.72.81-1.216 1.306l-.004.004-.131.13a.75.75 0 0 1-1.053-1.069l.132-.13c.523-.524.862-.866 1.08-1.15.205-.27.23-.398.23-.485Z"/>
</svg>
