<svg xmlns="http://www.w3.org/2000/svg" fill="none" viewBox="0 0 24 24">
  <path fill="currentColor" d="M2.25 12A9.75 9.75 0 0 1 12 2.25 9.75 9.75 0 0 1 21.75 12 9.75 9.75 0 0 1 12 21.75 9.75 9.75 0 0 1 2.25 12Zm11.547-3.806a.75.75 0 1 0-1.45-.388l-2.143 8a.75.75 0 1 0 1.449.388l2.144-8Zm1.641.975a.75.75 0 1 0-1.06 1.06l.131.132c.527.526.867.869 1.085 1.155.205.268.23.396.23.484 0 .088-.025.216-.23.484-.218.286-.558.629-1.085 1.155l-.131.131a.75.75 0 1 0 1.06 1.06l.167-.166c.482-.48.895-.894 1.181-1.27.307-.402.537-.846.537-1.394 0-.548-.23-.992-.537-1.394-.286-.376-.7-.79-1.18-1.27l-.168-.167Zm-5.816 0a.75.75 0 0 0-1.06 0l-.167.167c-.481.48-.895.894-1.181 1.27-.307.402-.537.846-.537 1.394 0 .548.23.992.537 1.394.286.376.7.79 1.18 1.27l.168.167a.75.75 0 0 0 1.06-1.06l-.131-.132c-.527-.526-.867-.869-1.085-1.155-.205-.268-.23-.396-.23-.484 0-.088.025-.216.23-.484.218-.286.558-.629 1.085-1.155l.131-.131a.751.751 0 0 0 0-1.061Z"/>
</svg>
