<svg xmlns="http://www.w3.org/2000/svg" fill="none" viewBox="0 0 24 24">
  <path fill="currentColor" d="M20.25 12a8.25 8.25 0 1 0-16.5-.001 8.25 8.25 0 0 0 16.5.001Zm-7.902-4.194a.75.75 0 1 1 1.449.388l-2.144 8a.75.75 0 1 1-1.449-.388l2.144-8ZM6.677 12c0-.547.23-.993.537-1.395.293-.384.72-.808 1.216-1.304l.002-.002.131-.131a.75.75 0 0 1 1.057 1.064l-.132.131c-.524.525-.864.867-1.082 1.153-.204.268-.23.396-.23.484 0 .088.026.216.23.484.218.286.558.628 1.084 1.155l.132.132a.75.75 0 1 1-1.06 1.06L8.43 14.7c-.497-.496-.923-.921-1.216-1.305-.307-.402-.537-.847-.537-1.394Zm9.147 0c0-.087-.025-.216-.23-.484-.218-.286-.557-.628-1.082-1.153l-.132-.13-.052-.057a.75.75 0 0 1 1.05-1.06l.059.052.131.13.002.003c.496.496.923.92 1.216 1.304.307.402.538.847.538 1.395s-.231.993-.538 1.395a7.676 7.676 0 0 1-.531.61l-.685.694-.132.132a.75.75 0 0 1-1.06-1.06l.132-.132.657-.668c.178-.187.318-.344.427-.487.205-.268.23-.397.23-.484Zm5.926 0a9.75 9.75 0 1 1-19.502 0 9.75 9.75 0 0 1 19.502 0Z"/>
</svg>
