<svg xmlns="http://www.w3.org/2000/svg" fill="none" viewBox="0 0 24 24">
  <path fill="currentColor" d="M21.25 12a1.66 1.66 0 0 0-.377-1.053l-.11-.122-7.589-7.588a1.66 1.66 0 0 0-2.348 0l-7.588 7.588a1.664 1.664 0 0 0-.001 2.35l7.589 7.588.12.11a1.663 1.663 0 0 0 1.69.25c.202-.083.384-.206.538-.36l7.59-7.588A1.663 1.663 0 0 0 21.25 12Zm-8.178-4 .724.194-2.142 8-.024.073a.75.75 0 0 1-1.425-.461l2.143-8 .724.194Zm-6.395 4c0-.547.231-.993.537-1.394.293-.384.72-.809 1.215-1.305l.003-.002.132-.132a.75.75 0 0 1 1.057 1.066l-.132.13h-.001c-.525.525-.864.868-1.081 1.153-.205.268-.23.397-.23.484 0 .088.026.217.23.485.217.285.556.627 1.08 1.151l.132.13.051.056a.75.75 0 0 1-1.104 1.012l-.132-.13-.004-.004c-.497-.496-.923-.921-1.217-1.306-.306-.402-.536-.847-.536-1.394Zm9.148 0c0-.087-.026-.216-.23-.484-.219-.286-.558-.627-1.083-1.152l-.132-.131a.75.75 0 0 1 1.057-1.066l.134.134c.496.496.922.92 1.216 1.305.306.401.538.847.538 1.394 0 .548-.232.993-.538 1.395-.294.384-.72.81-1.216 1.305l-.004.004-.133.13a.75.75 0 1 1-1.052-1.068l.127-.126c.526-.527.867-.87 1.085-1.155.205-.269.23-.397.23-.485Zm-3.477-4.194a.75.75 0 0 1 1.448.388l-1.448-.388ZM22.75 12a3.16 3.16 0 0 1-.926 2.236l-7.588 7.587a3.16 3.16 0 0 1-4.472 0l-7.587-7.587a3.16 3.16 0 0 1-.107-4.359l.107-.113 7.587-7.587.113-.107a3.16 3.16 0 0 1 4.359.107l7.587 7.587A3.166 3.166 0 0 1 22.75 12Z"/>
</svg>
