<svg xmlns="http://www.w3.org/2000/svg" fill="none" viewBox="0 0 24 24">
  <path fill="currentColor" d="M21.25 12.5a1.75 1.75 0 0 0-1.75-1.75h-.75v3.5h.75a1.75 1.75 0 0 0 1.75-1.75ZM9.376 2.584a.75.75 0 1 1 1.248.832l-2 3a.75.75 0 1 1-1.248-.832l2-3Zm3 0a.75.75 0 1 1 1.248.832l-2 3a.75.75 0 1 1-1.248-.832l2-3Zm3 0a.75.75 0 1 1 1.248.832l-2 3a.75.75 0 1 1-1.248-.832l2-3ZM22.75 12.5a3.25 3.25 0 0 1-3.25 3.25h-.75V17A4.75 4.75 0 0 1 14 21.75H8A4.75 4.75 0 0 1 3.25 17V9.923A1.673 1.673 0 0 1 4.923 8.25h12.154c.749 0 1.268.444 1.513 1h.91a3.25 3.25 0 0 1 3.25 3.25Zm-18 4.5A3.25 3.25 0 0 0 8 20.25h6A3.25 3.25 0 0 0 17.25 17v-7c0-.1-.034-.17-.065-.206a.125.125 0 0 0-.041-.032.157.157 0 0 0-.067-.012H4.923a.174.174 0 0 0-.067.013.174.174 0 0 0-.055.038.173.173 0 0 0-.038.056.174.174 0 0 0-.013.066V17Z"/>
</svg>
