<svg xmlns="http://www.w3.org/2000/svg" fill="none" viewBox="0 0 24 24">
  <path fill="currentColor" d="M13.231 4.89c0-.426-.156-.689-.354-.855-.215-.18-.53-.289-.878-.285-.348.003-.67.118-.89.306-.206.174-.358.435-.358.834 0 .02-.002.042-.004.063-.026 1.013-.66 1.841-1.425 2.295-.778.461-1.832.619-2.752.094-.392-.212-.704-.201-.937-.116-.252.093-.487.302-.646.596-.326.603-.24 1.323.368 1.734.877.535 1.25 1.53 1.25 2.42 0 .899-.382 1.906-1.281 2.437v.001c-.36.219-.511.491-.558.753-.05.281.014.607.186.904.172.297.427.518.7.62.255.094.562.1.918-.092.99-.565 2.062-.354 2.835.176.764.524 1.346 1.43 1.346 2.44 0 .372.143.605.339.76.215.172.537.278.895.275.358-.003.685-.114.905-.29.203-.162.341-.395.341-.745 0-1.015.568-1.927 1.336-2.455.778-.535 1.85-.729 2.843-.162.369.2.681.19.936.091.276-.106.534-.337.706-.646.174-.31.232-.644.18-.92-.049-.253-.196-.503-.543-.69l-.022-.012c-.909-.53-1.291-1.546-1.291-2.45 0-.9.38-1.912 1.28-2.443.361-.219.512-.49.559-.753a1.364 1.364 0 0 0-.185-.905 1.403 1.403 0 0 0-.701-.62c-.255-.093-.563-.099-.92.093v-.001c-.91.518-1.963.354-2.736-.1-.78-.459-1.441-1.307-1.442-2.352ZM13.75 12a1.75 1.75 0 1 0-3.5 0 1.75 1.75 0 0 0 3.5 0Zm1.5 0a3.25 3.25 0 1 1-6.5 0 3.25 3.25 0 0 1 6.5 0Zm-.507-6.966c.055.34.299.684.69.913.445.262.916.278 1.244.087l.023-.013c.734-.394 1.49-.42 2.15-.176a2.9 2.9 0 0 1 1.478 1.273c.323.558.483 1.24.363 1.919-.124.698-.537 1.337-1.258 1.773l-.01.007c-.317.185-.547.613-.547 1.154 0 .54.23.969.547 1.154.729.4 1.15 1.025 1.282 1.718.128.676-.027 1.366-.344 1.932-.317.567-.825 1.062-1.474 1.313-.668.258-1.437.236-2.188-.17l-.022-.01c-.404-.237-.86-.188-1.261.088-.418.287-.685.763-.685 1.219 0 .824-.36 1.48-.903 1.916-.526.42-1.194.614-1.831.619-.637.005-1.31-.179-1.841-.6-.55-.438-.905-1.102-.905-1.935 0-.434-.266-.909-.695-1.202-.414-.285-.868-.33-1.253-.106l-.021.012c-.734.395-1.49.423-2.15.179a2.896 2.896 0 0 1-1.478-1.274c-.323-.557-.484-1.24-.364-1.919.124-.698.537-1.337 1.258-1.773l.01-.007c.317-.186.546-.613.546-1.15 0-.537-.228-.964-.546-1.149l-.04-.026c-1.398-.941-1.453-2.58-.85-3.693.305-.563.802-1.051 1.449-1.289.582-.213 1.234-.204 1.886.07l.279.133.021.013c.347.202.82.18 1.254-.077.438-.26.693-.674.693-1.067v-.04c.011-.823.355-1.488.887-1.939.525-.445 1.2-.656 1.846-.662.647-.007 1.327.19 1.858.638.549.46.89 1.148.89 2.002l.012.144Z"/>
</svg>
