<svg xmlns="http://www.w3.org/2000/svg" fill="none" viewBox="0 0 24 24">
  <path fill="currentColor" d="M11.25 21v-1.117a7.945 7.945 0 0 1-2.555-.661l-.546.948a.75.75 0 0 1-1.298-.75l.543-.943a7.945 7.945 0 0 1-1.867-1.865l-.95.54a.75.75 0 0 1-.741-1.304l.94-.534a7.95 7.95 0 0 1-.455-1.256 7.949 7.949 0 0 1-.233-1.308H3a.75.75 0 0 1 0-1.5h1.087a7.91 7.91 0 0 1 .683-2.558l-.94-.543a.75.75 0 0 1 .68-1.334l.07.036.94.543a7.948 7.948 0 0 1 1.873-1.872l-.542-.942.649-.374.65-.375.541.941a7.95 7.95 0 0 1 2.558-.685V3a.75.75 0 0 1 1.5 0v1.087c.88.083 1.744.312 2.557.684l.544-.94a.75.75 0 0 1 1.298.75l-.547.946a7.946 7.946 0 0 1 1.85 1.881l.967-.557a.75.75 0 0 1 .75 1.298l-.978.564c.178.396.326.807.438 1.232.113.43.187.867.226 1.305H21l.076.004a.75.75 0 0 1 0 1.492L21 12.75h-1.15a7.946 7.946 0 0 1-.685 2.53l1 .568.064.04a.75.75 0 0 1-.804 1.264l-1.01-.573a7.946 7.946 0 0 1-1.84 1.843l.575.997a.75.75 0 0 1-1.257.814l-.041-.064-.573-.991a7.97 7.97 0 0 1-1.244.457 7.954 7.954 0 0 1-1.284.237V21a.75.75 0 0 1-1.5 0Zm3.048-6.702a3.25 3.25 0 0 1-4.596 0c-.01-.01-.02-.023-.031-.033l-2.83 1.603a6.447 6.447 0 0 0 1.928 1.714l.28.15a6.448 6.448 0 0 0 8.048-1.897l-2.769-1.57-.03.033ZM11.25 5.594a6.451 6.451 0 0 0-5.164 8.979L8.9 12.976a3.25 3.25 0 0 1 2.35-4.14V5.595ZM7.126 3.557a.75.75 0 0 1 1.024.274l-1.298.75a.75.75 0 0 1 .274-1.024ZM10.25 12a1.75 1.75 0 0 0 3.491.173L13.75 12a1.75 1.75 0 0 0-3.5 0Zm5 0c0 .335-.053.663-.151.977l2.753 1.56a6.447 6.447 0 0 0-2.633-8.126 6.45 6.45 0 0 0-2.469-.815v3.242A3.25 3.25 0 0 1 15.25 12Z"/>
</svg>
