<svg xmlns="http://www.w3.org/2000/svg" fill="none" viewBox="0 0 24 24">
  <path fill="currentColor" d="M9.391 3.646a1.75 1.75 0 0 1 1.714-1.396h1.79a1.75 1.75 0 0 1 1.714 1.396c.502.156.988.358 1.453.602a1.75 1.75 0 0 1 2.2.225l1.265 1.266a1.75 1.75 0 0 1 .225 2.199c.243.462.444.946.602 1.453a1.75 1.75 0 0 1 1.396 1.714v1.79a1.75 1.75 0 0 1-1.396 1.714 8.615 8.615 0 0 1-.602 1.453 1.75 1.75 0 0 1-.225 2.2l-1.266 1.265a1.75 1.75 0 0 1-2.199.225 8.705 8.705 0 0 1-1.453.602 1.75 1.75 0 0 1-1.714 1.396h-1.79a1.75 1.75 0 0 1-1.714-1.396 8.703 8.703 0 0 1-1.453-.602 1.75 1.75 0 0 1-2.2-.225l-1.265-1.266a1.75 1.75 0 0 1-.225-2.199 8.702 8.702 0 0 1-.602-1.453 1.75 1.75 0 0 1-1.396-1.714v-1.79a1.75 1.75 0 0 1 1.396-1.714 8.7 8.7 0 0 1 .602-1.453 1.75 1.75 0 0 1 .225-2.2l1.266-1.265a1.75 1.75 0 0 1 2.199-.225 8.7 8.7 0 0 1 1.453-.602ZM8.75 12a3.25 3.25 0 1 0 6.5 0 3.25 3.25 0 0 0-6.5 0Z"/>
</svg>
