<svg xmlns="http://www.w3.org/2000/svg" fill="none" viewBox="0 0 24 24">
  <path fill="currentColor" d="M20.25 11.105a.251.251 0 0 0-.226-.249l-.332-.033a.75.75 0 0 1-.653-.566 7.205 7.205 0 0 0-.829-2 .75.75 0 0 1 .06-.861l.212-.261.001-.001a.25.25 0 0 0-.016-.335L17.2 5.533a.25.25 0 0 0-.296-.042l-.038.026-.259.212a.75.75 0 0 1-.862.061 7.253 7.253 0 0 0-2.002-.83.75.75 0 0 1-.566-.653l-.033-.332a.25.25 0 0 0-.25-.225h-1.789a.251.251 0 0 0-.249.225l-.032.33a.75.75 0 0 1-.565.656 7.252 7.252 0 0 0-2.001.829.75.75 0 0 1-.862-.06l-.26-.212a.252.252 0 0 0-.336.015L5.533 6.8v-.001a.251.251 0 0 0-.016.335l.212.259c.2.245.225.59.061.862a7.253 7.253 0 0 0-.83 2.002.75.75 0 0 1-.653.566l-.333.032v.001a.25.25 0 0 0-.224.25v1.789a.251.251 0 0 0 .225.249l.33.032.116.02a.75.75 0 0 1 .54.545 7.25 7.25 0 0 0 .829 2.001.75.75 0 0 1-.06.861l-.212.261a.251.251 0 0 0-.014.3l.03.036L6.8 18.467a.249.249 0 0 0 .334.016l.259-.212a.75.75 0 0 1 .862-.061 7.28 7.28 0 0 0 1.74.759l.262.07.112.037a.75.75 0 0 1 .454.617l.033.332.01.045a.25.25 0 0 0 .24.18h1.789a.251.251 0 0 0 .249-.226l.033-.332.02-.115a.75.75 0 0 1 .545-.538 7.253 7.253 0 0 0 2.001-.829l.106-.053a.75.75 0 0 1 .756.113l.26.212.001.001a.25.25 0 0 0 .334-.016l1.267-1.267a.25.25 0 0 0 .042-.296l-.026-.038-.212-.259a.75.75 0 0 1-.061-.862 7.256 7.256 0 0 0 .83-2.002l.036-.112a.75.75 0 0 1 .617-.454l.332-.033.045-.01a.25.25 0 0 0 .18-.24v-1.789Zm-6.509.722a1.75 1.75 0 1 0 .009.173l-.009-.173ZM15.25 12a3.25 3.25 0 1 1-6.5 0 3.25 3.25 0 0 1 6.5 0Zm6.5.895-.008.162a1.748 1.748 0 0 1-1.39 1.55 8.742 8.742 0 0 1-.602 1.454 1.75 1.75 0 0 1-.113 2.08l-.11.12-1.265 1.266a1.752 1.752 0 0 1-2.202.223 8.73 8.73 0 0 1-1.452.602 1.749 1.749 0 0 1-1.713 1.398h-1.79a1.752 1.752 0 0 1-1.713-1.398 8.752 8.752 0 0 1-1.454-.602 1.75 1.75 0 0 1-2.08-.113l-.12-.11-1.265-1.267a1.75 1.75 0 0 1-.224-2.201 8.747 8.747 0 0 1-.602-1.452 1.748 1.748 0 0 1-1.397-1.712v-1.79a1.752 1.752 0 0 1 1.397-1.713c.157-.502.358-.988.602-1.454a1.75 1.75 0 0 1 .224-2.2l1.266-1.265.12-.11A1.75 1.75 0 0 1 7.94 4.25a8.75 8.75 0 0 1 1.452-.602 1.75 1.75 0 0 1 1.713-1.397h1.79a1.748 1.748 0 0 1 1.713 1.397c.5.157.987.358 1.453.602a1.75 1.75 0 0 1 2.08.114l.12.11 1.266 1.265a1.752 1.752 0 0 1 .223 2.2c.242.462.444.947.602 1.453a1.75 1.75 0 0 1 1.398 1.713v1.79Z"/>
</svg>
