<svg xmlns="http://www.w3.org/2000/svg" fill="none" viewBox="0 0 24 24">
  <path fill="currentColor" d="M9.75 4a.25.25 0 0 0-.201-.245L9.5 3.75h-3a.25.25 0 0 0-.25.25v16a.25.25 0 0 0 .25.25h3a.25.25 0 0 0 .25-.25V4Zm8 0a.25.25 0 0 0-.201-.245L17.5 3.75h-3a.25.25 0 0 0-.25.25v16a.25.25 0 0 0 .25.25h3a.25.25 0 0 0 .25-.25V4Zm-6.5 16a1.75 1.75 0 0 1-1.75 1.75h-3A1.75 1.75 0 0 1 4.75 20V4A1.75 1.75 0 0 1 6.5 2.25h3A1.75 1.75 0 0 1 11.25 4v16Zm8 0a1.75 1.75 0 0 1-1.75 1.75h-3A1.75 1.75 0 0 1 12.75 20V4a1.75 1.75 0 0 1 1.75-1.75h3A1.75 1.75 0 0 1 19.25 4v16Z"/>
</svg>
