<svg xmlns="http://www.w3.org/2000/svg" fill="none" viewBox="0 0 24 24">
  <path fill="currentColor" d="M8.24 15.762H5.977c-1.959 0-2.961 2.496-1.598 3.86 1.364 1.365 3.86.36 3.861-1.6v-2.26Zm1.5-1.5h4.521V9.74H9.74v4.522Zm9.884-9.883c-1.364-1.364-3.861-.36-3.861 1.6l-.002.018V8.24h2.263c1.96 0 2.963-2.498 1.6-3.861Zm-3.862 13.644c0 1.96 2.497 2.963 3.86 1.6 1.364-1.364.36-3.86-1.6-3.861h-2.26v2.261ZM8.24 5.978c0-1.96-2.497-2.962-3.861-1.6-1.364 1.366-.36 3.862 1.6 3.862H8.24V5.978Zm1.5 2.262h4.521V5.977c0-.027.002-.054.004-.08.067-3.276 4.154-4.844 6.42-2.579 2.284 2.285.67 6.422-2.66 6.422h-2.263v4.522h2.26c3.331 0 4.946 4.136 2.66 6.422-2.284 2.284-6.42.67-6.42-2.66v-2.262H9.74v2.26c0 3.332-4.138 4.946-6.423 2.66-2.283-2.284-.67-6.42 2.66-6.42H8.24V9.74H5.978c-3.331 0-4.943-4.138-2.66-6.423 2.284-2.282 6.422-.67 6.422 2.66V8.24Z"/>
</svg>
