<svg xmlns="http://www.w3.org/2000/svg" fill="none" viewBox="0 0 24 24">
  <path fill="currentColor" d="M12 13.95c.199 0 .39.08.53.22l3.15 3.15a.75.75 0 0 1 0 1.06l-3.15 3.15a.75.75 0 0 1-1.06 0l-3.15-3.15a.75.75 0 0 1 0-1.06l3.15-3.15.114-.094A.75.75 0 0 1 12 13.95Zm-2.09 3.9L12 19.94l2.089-2.09L12 15.76l-2.09 2.09Zm7.41-9.08a.75.75 0 0 1 1.06 0l3.15 3.15a.75.75 0 0 1 0 1.06l-3.15 3.15a.75.75 0 0 1-1.06 0l-3.15-3.15a.75.75 0 0 1 0-1.06l3.15-3.15ZM5.676 8.269a.75.75 0 0 1 1.004.05l3.15 3.15a.75.75 0 0 1 0 1.061l-3.15 3.15a.75.75 0 0 1-1.06 0l-3.15-3.15a.75.75 0 0 1 0-1.06l3.15-3.15.057-.051Zm10.083 4.18 2.09 2.09 2.088-2.09-2.088-2.089-2.09 2.09ZM4.06 12l2.09 2.089L8.24 12 6.15 9.91 4.06 12ZM12 2.25c.199 0 .39.08.53.22l3.15 3.15a.75.75 0 0 1 0 1.06l-3.15 3.15a.75.75 0 0 1-1.06 0L8.32 6.68a.75.75 0 0 1 0-1.06l3.15-3.15.114-.094A.75.75 0 0 1 12 2.25Zm-2.09 3.9L12 8.24l2.089-2.09L12 4.06 9.91 6.15Z"/>
</svg>
