<svg xmlns="http://www.w3.org/2000/svg" fill="none" viewBox="0 0 24 24">
  <path fill="currentColor" d="M12.53 2.47a.75.75 0 0 0-1.06 0L8.32 5.62a.75.75 0 0 0 0 1.06l3.15 3.15a.75.75 0 0 0 1.06 0l3.15-3.15a.75.75 0 0 0 0-1.06l-3.15-3.15Zm5.85 6.3a.75.75 0 0 0-1.06 0l-3.15 3.15a.75.75 0 0 0 0 1.06l3.15 3.15a.75.75 0 0 0 1.06 0l3.15-3.15a.75.75 0 0 0 0-1.06l-3.15-3.15Zm-5.85 5.4a.75.75 0 0 0-1.06 0l-3.15 3.15a.75.75 0 0 0 0 1.06l3.15 3.15a.75.75 0 0 0 1.06 0l3.15-3.15a.75.75 0 0 0 0-1.06l-3.15-3.15ZM6.68 8.32a.75.75 0 0 0-1.06 0l-3.15 3.15a.75.75 0 0 0 0 1.06l3.15 3.15a.75.75 0 0 0 1.06 0l3.15-3.15a.75.75 0 0 0 0-1.06L6.68 8.32Z"/>
</svg>
