<svg xmlns="http://www.w3.org/2000/svg" fill="none" viewBox="0 0 24 24">
  <path fill="currentColor" d="M13 21v-1.25H3a.75.75 0 0 1 0-1.5h10V17a.75.75 0 0 1 1.5 0v4a.75.75 0 0 1-1.5 0Zm8-2.75a.75.75 0 0 1 0 1.5h-3a.75.75 0 0 1 0-1.5h3ZM10 14v-4a.75.75 0 0 1 1.5 0v1.25H21a.75.75 0 0 1 0 1.5h-9.5V14a.75.75 0 0 1-1.5 0Zm-3-2.75a.75.75 0 0 1 0 1.5H3a.75.75 0 0 1 0-1.5h4ZM13 7V5.75H3a.75.75 0 0 1 0-1.5h10V3a.75.75 0 0 1 1.5 0v4A.75.75 0 0 1 13 7Zm8-2.75a.75.75 0 0 1 0 1.5h-3a.75.75 0 0 1 0-1.5h3Z"/>
</svg>
