<svg xmlns="http://www.w3.org/2000/svg" fill="none" viewBox="0 0 24 24">
  <path fill="currentColor" d="M13.273 2.448a.75.75 0 0 1 1.06.044c.606.658.907 1.44.793 2.305-.108.826-.58 1.618-1.274 2.372l-2.406 2.615a.75.75 0 0 1-1.104-1.016l2.406-2.615c.59-.64.84-1.157.89-1.551.048-.354-.052-.706-.41-1.094a.749.749 0 0 1 .045-1.06ZM8 4a.75.75 0 0 1 .75.75v.5a.75.75 0 1 1-1.5 0v-.5A.75.75 0 0 1 8 4Zm12-.75a.75.75 0 0 1 .75.75v.5a.75.75 0 0 1-1.5 0V4a.75.75 0 0 1 .75-.75Zm0 9a.75.75 0 0 1 .75.75v.5a.75.75 0 0 1-1.5 0V13a.75.75 0 0 1 .75-.75Zm-2 5a.75.75 0 0 1 .75.75v.5a.75.75 0 0 1-1.5 0V18a.75.75 0 0 1 .75-.75Zm.594-8.009c-.51 0-1.126.274-1.855 1.066l-2.406 2.614a.748.748 0 0 1-1.312-.472.75.75 0 0 1 .208-.543l2.407-2.615c.876-.952 1.863-1.55 2.958-1.55 1.095 0 2.082.598 2.958 1.55a.75.75 0 0 1-1.104 1.016c-.728-.792-1.345-1.066-1.854-1.066ZM4.9 8.98a1.258 1.258 0 0 1 2.114-.477l7.74 7.53.037.037c.6.67.325 1.735-.526 2.03L3.92 21.68c-.97.336-1.904-.567-1.62-1.54l2.585-11.1a.5.5 0 0 1 .016-.06Z"/>
</svg>
