<svg xmlns="http://www.w3.org/2000/svg" fill="none" viewBox="0 0 24 24">
  <path fill="currentColor" d="M4.9 8.98a1.256 1.256 0 0 1 2.098-.49H7l7.756 7.543a1.26 1.26 0 0 1 .275.434l.045.147.027.153a1.262 1.262 0 0 1-.833 1.332h-.003L3.92 21.68a1.257 1.257 0 0 1-1.635-.888 1.256 1.256 0 0 1 .01-.627h-.001L4.885 9.04l.015-.06ZM3.845 20.119l9.558-3.307-7.165-6.97-2.393 10.277ZM17.25 18.5V18a.75.75 0 0 1 1.5 0v.5a.75.75 0 0 1-1.5 0Zm2-5V13a.75.75 0 0 1 1.5 0v.5a.75.75 0 0 1-1.5 0Zm-.656-5.759c1.095 0 2.082.598 2.958 1.55a.75.75 0 0 1-1.05 1.07l-.054-.054-.268-.274c-.613-.582-1.14-.792-1.586-.792-.51 0-1.126.274-1.855 1.066l-2.406 2.615a.75.75 0 0 1-1.104-1.016l2.406-2.615c.876-.952 1.864-1.55 2.959-1.55ZM13.27 2.448a.75.75 0 0 1 1.005-.01l.056.054.212.252c.462.602.681 1.295.582 2.053-.095.722-.468 1.42-1.024 2.087l-.25.284-2.406 2.616-.054.054a.751.751 0 0 1-1.05-1.07l2.406-2.616.206-.234c.444-.533.64-.971.685-1.316.04-.31-.031-.618-.288-.95l-.123-.144-.05-.059a.75.75 0 0 1 .093-1ZM7.25 5.25v-.5a.75.75 0 1 1 1.5 0v.5a.75.75 0 0 1-1.5 0Zm12-.75V4a.75.75 0 0 1 1.5 0v.5a.75.75 0 0 1-1.5 0Z"/>
</svg>
