<svg xmlns="http://www.w3.org/2000/svg" fill="none" viewBox="0 0 24 24">
  <path fill="currentColor" d="M13.75 2.25a.75.75 0 0 1 .75.75v4A.75.75 0 1 1 13 7V5.75H3a.75.75 0 0 1 0-1.5h10V3a.75.75 0 0 1 .75-.75ZM17.25 5a.75.75 0 0 1 .75-.75h3a.75.75 0 1 1 0 1.5h-3a.75.75 0 0 1-.75-.75Zm-6.5 4.25a.75.75 0 0 1 .75.75v1.25H21a.75.75 0 1 1 0 1.5h-9.5V14a.75.75 0 1 1-1.5 0v-4a.75.75 0 0 1 .75-.75ZM2.25 12a.75.75 0 0 1 .75-.75h4a.75.75 0 1 1 0 1.5H3a.75.75 0 0 1-.75-.75Zm11.5 4.25a.75.75 0 0 1 .75.75v4a.75.75 0 1 1-1.5 0v-1.25H3a.75.75 0 1 1 0-1.5h10V17a.75.75 0 0 1 .75-.75Zm3.5 2.75a.75.75 0 0 1 .75-.75h3a.75.75 0 1 1 0 1.5h-3a.75.75 0 0 1-.75-.75Z"/>
</svg>
