<svg xmlns="http://www.w3.org/2000/svg" fill="none" viewBox="0 0 24 24">
  <path fill="currentColor" d="M18.75 12c0-3.132-.696-6.136-1.96-8.665a.75.75 0 0 1 1.303-.737l.038.067.25.522c1.215 2.634 1.87 5.674 1.87 8.813 0 3.355-.747 6.465-2.114 9.323a.75.75 0 0 1-1.354-.646A19.881 19.881 0 0 0 18.75 12Zm-4.8 0c0-2.14-.504-4.398-1.327-6.382l-.168-.393-.028-.072a.75.75 0 0 1 1.398-.538C14.823 6.86 15.45 9.483 15.45 12c0 2.522-.63 5.026-1.625 7.265l-.034.068a.751.751 0 0 1-1.336-.678l.17-.392c.824-1.976 1.325-4.128 1.325-6.263Zm-4.449 5.234a.75.75 0 0 1-1.362-.629l1.362.63ZM9.151 12c0-1.586-.343-3.267-1.001-4.585l.67-.335.671-.336c.782 1.563 1.16 3.482 1.16 5.256 0 1.787-.384 3.575-1.15 5.234l-1.362-.629A10.988 10.988 0 0 0 9.15 12ZM5.19 15.056a.75.75 0 0 1-1.38-.591l1.38.59ZM4.35 12c0-.852-.217-1.832-.54-2.585l.69-.295.69-.296A8.48 8.48 0 0 1 5.85 12c0 1.08-.269 2.142-.66 3.056l-.69-.296-.69-.295c.329-.766.54-1.626.54-2.465Zm-.146-3.57a.75.75 0 0 1 .986.394l-1.38.591a.75.75 0 0 1 .394-.984Zm4.28-2.02a.75.75 0 0 1 1.007.334l-1.341.671a.75.75 0 0 1 .335-1.006Z"/>
</svg>
