<svg xmlns="http://www.w3.org/2000/svg" fill="none" viewBox="0 0 24 24">
  <path fill="currentColor" d="M2.25 12A9.75 9.75 0 0 1 12 2.25 9.75 9.75 0 0 1 21.75 12 9.75 9.75 0 0 1 12 21.75 9.75 9.75 0 0 1 2.25 12Zm12.69-5.367a.75.75 0 0 0-1.43.453c.49 1.55.755 3.2.755 4.914 0 1.714-.265 3.365-.756 4.914a.752.752 0 0 0 .78.974.75.75 0 0 0 .65-.521c.537-1.694.826-3.498.826-5.367 0-1.87-.288-3.673-.825-5.367Zm-3.245 1.581a.75.75 0 1 0-1.442.412c.306 1.071.47 2.203.47 3.374 0 1.17-.164 2.302-.47 3.373a.75.75 0 1 0 1.442.412A13.75 13.75 0 0 0 12.223 12c0-1.312-.184-2.582-.528-3.786ZM7.833 9.258a.75.75 0 0 0-.564.899 8.3 8.3 0 0 1 0 3.687.75.75 0 0 0 1.462.333 9.8 9.8 0 0 0 0-4.354.75.75 0 0 0-.898-.565Z"/>
</svg>
