<svg xmlns="http://www.w3.org/2000/svg" fill="none" viewBox="0 0 24 24">
  <path fill="currentColor" d="M20.25 12a8.25 8.25 0 1 0-16.5-.001 8.25 8.25 0 0 0 16.5.001Zm-5.31 5.366a.75.75 0 0 1-1.43-.452l1.43.452ZM14.265 12c0-1.714-.265-3.365-.755-4.914l1.43-.452A17.75 17.75 0 0 1 15.765 12c0 1.87-.289 3.673-.825 5.366l-1.43-.452c.49-1.549.755-3.2.755-4.914Zm-3.496-4.3a.75.75 0 0 1 .902.442l.025.072.124.464a13.78 13.78 0 0 1-.124 7.108l-.025.072a.75.75 0 0 1-1.417-.484l.11-.413c.24-.968.361-1.962.36-2.96v-.002c.001-.998-.12-1.992-.36-2.96l-.11-.413-.018-.075a.75.75 0 0 1 .533-.852ZM8.73 14.176a.75.75 0 0 1-1.462-.333l1.462.333Zm0-4.354c.16.7.244 1.429.244 2.176 0 .733-.08 1.463-.244 2.178L8 14.01l-.731-.166a8.313 8.313 0 0 0 0-3.688L8 9.99l.731-.167Zm-.897-.564a.75.75 0 0 1 .897.564l-1.462.333a.75.75 0 0 1 .565-.897Zm6.165-3.114a.75.75 0 0 1 .941.489l-1.43.452a.75.75 0 0 1 .489-.941ZM21.75 12a9.75 9.75 0 1 1-19.502 0 9.75 9.75 0 0 1 19.502 0Z"/>
</svg>
