<svg xmlns="http://www.w3.org/2000/svg" fill="none" viewBox="0 0 24 24">
  <path fill="currentColor" d="M12 3.032a.75.75 0 0 1 .75.75v3.715c.428-.109.867-.296 1.37-.51.147-.063.299-.127.456-.192.952-.395 2.122-.801 3.44-.374 1.37.444 2.475 1.472 3.204 3.157.718 1.66 1.08 3.97 1.024 7.062-.023 1.255-.34 3.057-1.996 3.78-1.79.782-3.198-.024-4.296-.774-.169-.116-.33-.228-.483-.337-.376-.265-.72-.507-1.09-.714-.498-.28-.956-.44-1.43-.44h-1.9c-.474 0-.934.16-1.434.44-.37.207-.716.45-1.094.716a37.1 37.1 0 0 1-.48.334c-1.097.748-2.506 1.555-4.29.776-1.656-.724-1.973-2.526-1.996-3.78-.057-3.093.306-5.403 1.024-7.063.73-1.685 1.833-2.713 3.203-3.157 1.32-.427 2.489-.02 3.44.374.159.065.31.13.456.192.504.214.943.401 1.37.51V3.782a.75.75 0 0 1 .75-.75M8.25 11.5a.75.75 0 1 0-1.5 0v.75H6a.75.75 0 1 0 0 1.5h.75v.75a.75.75 0 1 0 1.5 0v-.75H9a.75.75 0 1 0 0-1.5h-.75v-.75Zm6.624.75a.75.75 0 0 0 0 1.5h3a.75.75 0 1 0 0-1.5h-3Z"/>
</svg>
