<svg xmlns="http://www.w3.org/2000/svg" fill="none" viewBox="0 0 24 24">
  <path fill="currentColor" d="M11.25 3.782a.75.75 0 0 1 1.5 0v3.71c.55-.14 1.121-.406 1.825-.697.952-.395 2.122-.8 3.442-.373 1.37.443 2.473 1.472 3.202 3.157.717 1.66 1.081 3.97 1.024 7.061-.022 1.255-.338 3.058-1.995 3.78-1.789.781-3.198-.024-4.296-.774-.582-.398-1.05-.76-1.572-1.052-.5-.28-.958-.439-1.432-.439h-1.897c-.475 0-.935.16-1.435.44-.522.291-.992.653-1.574 1.05-1.097.749-2.506 1.555-4.289.776-1.656-.723-1.974-2.525-1.997-3.78l-.006-.572c-.005-2.807.357-4.935 1.03-6.491.73-1.684 1.832-2.713 3.202-3.156 1.32-.428 2.49-.022 3.442.373.704.292 1.275.558 1.826.698V3.782Zm6.305 4.066c-.767-.248-1.488-.048-2.405.332-.846.35-1.956.917-3.15.917s-2.304-.566-3.15-.917c-.918-.38-1.639-.58-2.405-.332-.893.29-1.7.968-2.288 2.326-.56 1.296-.911 3.196-.907 5.89l.006.548.021.435c.085.977.408 1.707 1.076 1.999 1 .437 1.79.08 2.843-.64.494-.337 1.089-.786 1.688-1.121.621-.347 1.34-.63 2.167-.63h1.897c.827 0 1.545.283 2.165.63.598.336 1.192.787 1.685 1.123 1.052.719 1.841 1.078 2.85.638.763-.333 1.075-1.24 1.096-2.433.055-2.987-.303-5.056-.901-6.44-.55-1.272-1.294-1.948-2.121-2.266l-.167-.059ZM6.75 14.5v-.75H6a.75.75 0 0 1 0-1.5h.75v-.75a.75.75 0 0 1 1.5 0v.75H9l.076.004a.75.75 0 0 1 0 1.492L9 13.75h-.75v.75a.75.75 0 0 1-1.5 0Zm11.124-2.25.076.004a.75.75 0 0 1 0 1.492l-.076.004h-3a.75.75 0 0 1 0-1.5h3Z"/>
</svg>
