<svg xmlns="http://www.w3.org/2000/svg" fill="none" viewBox="0 0 24 24">
  <path fill="currentColor" d="M17.125 2.33a.75.75 0 0 1 1.006.335c1.375 2.75 2.12 5.987 2.12 9.335 0 3.355-.747 6.465-2.114 9.324a.748.748 0 0 1-1 .353.75.75 0 0 1-.354-1.001A19.899 19.899 0 0 0 18.75 12c0-3.132-.697-6.136-1.96-8.665a.75.75 0 0 1 .335-1.005Zm-4.29 1.904a.75.75 0 0 1 .99.38C14.823 6.86 15.45 9.484 15.45 12c0 2.522-.63 5.026-1.625 7.265a.75.75 0 0 1-1.37-.61c.925-2.08 1.495-4.377 1.495-6.655 0-2.283-.573-4.7-1.495-6.775a.75.75 0 0 1 .38-.991Zm-4.35 2.175a.75.75 0 0 1 1.006.336c.781 1.562 1.16 3.48 1.16 5.255a12.5 12.5 0 0 1-1.15 5.234.75.75 0 1 1-1.362-.628A11 11 0 0 0 9.15 12c0-1.586-.342-3.267-1-4.585a.75.75 0 0 1 .335-1.006ZM4.205 8.43a.75.75 0 0 1 .984.394c.398.927.66 2.107.66 3.175 0 1.08-.268 2.142-.66 3.056a.749.749 0 1 1-1.378-.591c.328-.766.54-1.626.54-2.465 0-.852-.218-1.832-.54-2.584a.75.75 0 0 1 .394-.985Z"/>
</svg>
