<svg xmlns="http://www.w3.org/2000/svg" fill="none" viewBox="0 0 24 24">
  <path fill="currentColor" d="M11.654 2.25c.756-.024 1.113.724.95 1.263a3.134 3.134 0 0 0 .026 1.752c.182.543.525.914 1.183.973h.004c.1.01.198.034.29.073l.09.044.085.053a.978.978 0 0 1 .151.13l.066.076.056.082a.977.977 0 0 1 .133.673c0 .006-.003.012-.004.018-.145.757.004 1.266.254 1.547.236.267.72.503 1.65.374l.027-.004a.98.98 0 0 1 .327.021l.105.032.102.043a.978.978 0 0 1 .185.118l.082.075.072.083c.045.057.084.12.115.186l.041.103.03.106a.982.982 0 0 1 .014.328v.012c-.093.655.147 1.103.5 1.315.362.218 1.074.32 2.176-.235h.002c.552-.277 1.311.047 1.379.737l.004.143a9.754 9.754 0 0 1-9.275 9.367l-.471.012a9.754 9.754 0 0 1-.351-19.5h.002Zm-.63 1.555a8.251 8.251 0 1 0 6.701 14.138 8.25 8.25 0 0 0 2.442-4.756c-1.043.332-2 .276-2.753-.176-.785-.472-1.196-1.283-1.242-2.17-.97.015-1.793-.278-2.355-.91-.55-.62-.74-1.444-.676-2.294-1.048-.28-1.653-1.06-1.933-1.895-.215-.64-.252-1.335-.184-1.937Zm-1.2 12.665a.75.75 0 0 1 1.06 1.06l-.354.355a.75.75 0 0 1-1.06-1.06l.354-.355Zm5-1a.75.75 0 0 1 1.06 1.06l-.354.355a.75.75 0 0 1-1.06-1.06l.354-.355Zm-8.002-3a.75.75 0 0 1 1.062 1.06l-.353.354-.057.051a.75.75 0 0 1-1.006-1.11l.354-.354Zm5.002-1a.75.75 0 0 1 1.06 1.06l-.354.355a.75.75 0 0 1-1.06-1.06l.354-.355Zm-4.002-4a.75.75 0 0 1 1.062 1.06l-.353.354-.057.051a.75.75 0 0 1-1.006-1.11l.354-.354Z"/>
</svg>
