<svg xmlns="http://www.w3.org/2000/svg" fill="none" viewBox="0 0 24 24">
  <path fill="currentColor" d="M20.25 12a8.25 8.25 0 1 0-16.5-.001 8.25 8.25 0 0 0 16.5.001ZM12 7.25c1.057 0 1.794.419 2.355 1.016l.23.265.046.063a.75.75 0 0 1-1.166.932l-.05-.057-.142-.165c-.332-.36-.703-.554-1.273-.554-.766 0-1.331.352-1.731.928-.416.597-.648 1.44-.648 2.322 0 .883.232 1.725.648 2.322.4.576.965.928 1.731.928.652 0 1.042-.254 1.414-.719a.75.75 0 0 1 1.172.938c-.588.734-1.378 1.281-2.586 1.281-1.32 0-2.32-.648-2.963-1.572-.627-.902-.916-2.061-.916-3.178s.289-2.276.916-3.178C9.68 7.898 10.68 7.25 12 7.25ZM21.75 12a9.75 9.75 0 1 1-19.502 0 9.75 9.75 0 0 1 19.502 0Z"/>
</svg>
