<svg xmlns="http://www.w3.org/2000/svg" fill="none" viewBox="0 0 24 24">
  <path fill="currentColor" d="M20.25 10.875c0-.534 0-.897-.02-1.18-.018-.276-.053-.42-.094-.52a1.498 1.498 0 0 0-.812-.81c-.1-.042-.243-.077-.52-.095-.282-.02-.645-.02-1.179-.02H11.1c-.642 0-1.079 0-1.416.028-.247.02-.403.053-.515.093l-.1.042a1.501 1.501 0 0 0-.656.656c-.06.117-.108.285-.135.614-.027.337-.028.774-.028 1.417v6.525c0 .534 0 .897.02 1.18.018.276.053.42.094.52.154.367.446.66.812.81l.085.031c.095.028.228.05.434.064.283.02.646.02 1.18.02.534 0 .897 0 1.18-.02.276-.018.42-.053.52-.094a1.496 1.496 0 0 0 .81-.812c.042-.1.077-.243.095-.52.02-.282.02-.645.02-1.179 0-.514 0-.937.023-1.282.024-.352.076-.677.206-.99a3.002 3.002 0 0 1 1.623-1.624c.314-.13.64-.182.99-.206.346-.023.77-.023 1.283-.023.534 0 .897 0 1.18-.02.276-.018.42-.053.52-.094a1.496 1.496 0 0 0 .81-.812c.042-.1.077-.243.095-.52.02-.282.02-.645.02-1.179ZM15 17.625c0 .514 0 .937-.023 1.282a5.164 5.164 0 0 1-.022.233 10.93 10.93 0 0 0 2.46-1.878 10.93 10.93 0 0 0 1.727-2.307 5.098 5.098 0 0 1-.235.022c-.345.023-.768.023-1.282.023-.534 0-.897 0-1.18.02-.276.018-.42.053-.52.094a1.496 1.496 0 0 0-.81.812c-.042.1-.077.243-.095.52-.02.282-.02.645-.02 1.179ZM15.75 6.6c0-.642 0-1.079-.028-1.416a2.032 2.032 0 0 0-.093-.515l-.042-.1a1.502 1.502 0 0 0-.654-.656c-.118-.06-.288-.108-.617-.135-.337-.027-.774-.028-1.416-.028H6.6c-.642 0-1.079 0-1.416.028-.247.02-.403.053-.515.093l-.1.042a1.501 1.501 0 0 0-.656.656c-.06.117-.108.285-.135.614-.027.337-.028.774-.028 1.417v6.3c0 .642 0 1.079.028 1.416.027.33.075.497.135.615a1.5 1.5 0 0 0 .656.656c.117.06.286.108.615.135.337.027.774.028 1.417.028h.149V11.1c0-.618 0-1.127.033-1.54.03-.368.09-.711.23-1.035l.064-.137a3 3 0 0 1 1.312-1.31c.364-.186.751-.26 1.173-.295.412-.033.92-.033 1.538-.033h4.65V6.6Zm1.5.15h.375c.514 0 .937 0 1.282.023.352.024.677.076.99.206a3 3 0 0 1 1.625 1.624c.13.313.18.638.205.99.023.345.023.768.023 1.282s0 .937-.023 1.282c-.022.323-.07.623-.178.912a12.432 12.432 0 0 1-8.247 8.408H13.3l-.217.068-.001-.001c-.294.111-.598.16-.926.183-.345.023-.768.023-1.282.023s-.937 0-1.282-.023c-.352-.024-.677-.076-.99-.206a3.004 3.004 0 0 1-1.624-1.623c-.13-.313-.182-.64-.206-.99-.023-.346-.023-.77-.023-1.283v-.375H6.6c-.617 0-1.126 0-1.538-.033-.422-.035-.81-.108-1.174-.294a3 3 0 0 1-1.31-1.312c-.186-.364-.26-.751-.295-1.173-.033-.412-.033-.92-.033-1.538V6.6c0-.618 0-1.127.033-1.54.035-.42.109-.809.294-1.172a3 3 0 0 1 1.312-1.31c.364-.186.751-.26 1.173-.295.412-.033.92-.033 1.538-.033h6.3c.618 0 1.126 0 1.538.033.37.03.713.09 1.037.229l.137.064a3.003 3.003 0 0 1 1.312 1.313c.185.364.258.751.293 1.173.034.412.033.92.033 1.538v.15Z"/>
</svg>
