<svg xmlns="http://www.w3.org/2000/svg" fill="none" viewBox="0 0 24 24">
  <path fill="currentColor" d="M3.53 21.53a.751.751 0 0 1-1.06-1.06l1.06 1.06ZM20.25 12a8.251 8.251 0 0 0-1.912-5.279l-7.859 7.86c.38.419.88.669 1.522.669.651 0 1.042-.254 1.414-.719l.05-.057a.75.75 0 0 1 1.12.995c-.587.734-1.377 1.28-2.584 1.28a3.465 3.465 0 0 1-2.584-1.106L6.72 18.34A8.248 8.248 0 0 0 20.25 12ZM10 2.452a9.75 9.75 0 0 1 5.55.465.75.75 0 1 1-.546 1.396A8.25 8.25 0 0 0 4.21 14.722l.103.282.024.072a.75.75 0 0 1-1.39.545l-.03-.07-.123-.333A9.75 9.75 0 0 1 10 2.452Zm2 6.298c-.766 0-1.33.353-1.73.928-.416.598-.65 1.44-.65 2.322 0 .406.053.803.146 1.173l3.674-3.675-.025-.03-.141-.164c-.333-.36-.703-.554-1.273-.554ZM21.75 12a9.751 9.751 0 0 1-13.48 9.008 9.746 9.746 0 0 1-2.612-1.606L3.53 21.53l-1.062-1.06 6.116-6.116A6.03 6.03 0 0 1 8.12 12c0-1.117.29-2.276.917-3.178C9.68 7.897 10.68 7.25 12 7.25c1.153 0 1.923.5 2.502 1.185l5.966-5.965.058-.052A.75.75 0 0 1 21.53 3.53l-2.129 2.128a9.752 9.752 0 0 1 1.606 2.611 9.75 9.75 0 0 1 .743 3.73Z"/>
</svg>
