<svg xmlns="http://www.w3.org/2000/svg" fill="none" viewBox="0 0 24 24">
  <path fill="currentColor" d="M20.25 8.197c0-.571 0-.955-.024-1.25-.024-.287-.066-.424-.112-.514a1.25 1.25 0 0 0-.548-.546c-.09-.046-.226-.09-.513-.113-.296-.024-.68-.024-1.253-.024H6.2c-.572 0-.957 0-1.253.024-.287.024-.424.067-.514.113-.236.12-.426.31-.546.546-.046.09-.09.227-.113.514-.024.296-.024.68-.024 1.253v.05h16.5v-.053ZM10 14.25a.75.75 0 0 1 0 1.5H6a.75.75 0 0 1 0-1.5h4ZM3.75 15.8c0 .572 0 .957.024 1.253.024.287.067.424.113.514.105.206.264.378.46.498l.086.048c.09.046.227.09.513.113.296.024.68.024 1.251.024h11.606c.571 0 .955 0 1.25-.024.286-.024.423-.066.513-.112.236-.12.427-.312.547-.547.047-.09.09-.227.113-.513.024-.295.024-.679.024-1.25V9.75H3.75v6.05Zm18 .004c0 .546.001 1.001-.03 1.372-.03.38-.098.735-.27 1.072a2.754 2.754 0 0 1-1.203 1.201c-.337.172-.692.24-1.071.272-.37.03-.827.029-1.373.029H6.197c-.546 0-1.002.001-1.373-.03-.38-.03-.736-.098-1.073-.27a2.753 2.753 0 0 1-1.201-1.202c-.172-.337-.24-.693-.27-1.073-.031-.371-.03-.828-.03-1.375V8.2c0-.547-.001-1.004.03-1.375.03-.38.098-.736.27-1.073A2.746 2.746 0 0 1 3.752 4.55c.337-.172.693-.24 1.073-.27.371-.031.828-.03 1.375-.03h11.6c.547 0 1.004-.001 1.375.03.38.03.736.098 1.073.27a2.75 2.75 0 0 1 1.201 1.201c.172.337.24.694.272 1.073.03.371.029.827.029 1.373v7.607Z"/>
</svg>
