<svg xmlns="http://www.w3.org/2000/svg" fill="none" viewBox="0 0 24 24">
  <path fill="currentColor" d="M16.65 15.6c0-.191-.05-.28-.109-.345-.08-.09-.229-.194-.515-.312l-.023-.01-1.663-.748-2.64 4.761c1.01.75 2.26 1.242 3.466 1.303.822-.002 1.11-.17 1.23-.302.135-.148.254-.457.254-1.197V15.6Zm-3.955-4.293c-.602-.596-1.27-.756-1.698-.58l-.082.039-5.21 2.89h-.002c-.281.156-.41.337-.472.517-.067.195-.078.463.01.81.177.707.719 1.558 1.466 2.302.747.745 1.604 1.286 2.315 1.467.35.089.618.08.812.016.178-.06.353-.184.503-.454l2.897-5.228.001-.002c.244-.436.1-1.144-.54-1.777ZM5.25 7.35c-.74 0-1.049.12-1.197.254-.131.12-.3.408-.303 1.23.06 1.204.555 2.455 1.305 3.466l4.767-2.645-.755-1.654-.011-.026c-.118-.287-.222-.438-.31-.517C8.68 7.4 8.59 7.35 8.4 7.35H5.25Zm1.35-3.6c-.3 0-.508.081-.668.198-.17.124-.324.317-.454.593-.173.365-.28.823-.334 1.31l.106-.001h2.403c.002-.502-.01-.972-.12-1.375-.076-.277-.18-.444-.293-.542-.102-.089-.28-.183-.64-.183Zm11.548 15.105c.487-.054.945-.16 1.311-.332.276-.131.47-.286.593-.455.117-.16.198-.369.198-.668 0-.36-.094-.538-.183-.64-.098-.114-.265-.217-.542-.292-.403-.11-.873-.124-1.375-.122v2.404l-.002.105ZM21.75 17.4c0 .601-.173 1.124-.487 1.554-.309.422-.726.717-1.162.924-.684.323-1.488.462-2.226.505-.092.207-.212.4-.371.574-.555.608-1.388.793-2.354.793l-.036-.001c-1.6-.075-3.201-.735-4.457-1.712a2.28 2.28 0 0 1-.348.153c-.545.182-1.12.153-1.657.016-1.06-.27-2.143-1.001-3.004-1.858-.86-.857-1.594-1.937-1.862-3-.135-.538-.161-1.115.026-1.662.041-.119.092-.233.15-.342-.976-1.256-1.637-2.86-1.711-4.46a.764.764 0 0 1-.001-.034c0-.966.185-1.8.793-2.354a2.13 2.13 0 0 1 .573-.372c.044-.738.183-1.541.506-2.225.207-.436.502-.853.924-1.162A2.58 2.58 0 0 1 6.6 2.25c.648 0 1.199.181 1.624.55.412.358.633.83.755 1.28.167.609.18 1.32.176 1.902.216.082.412.2.587.356.33.294.539.677.69 1.04l.812 1.78c.957-.042 1.89.473 2.506 1.083.624.617 1.151 1.557 1.098 2.529l1.771.796c.365.152.748.36 1.043.692.155.175.273.37.355.586.581-.005 1.294.01 1.904.177.449.122.92.342 1.28.755.368.425.549.976.549 1.624Z"/>
</svg>
