<svg xmlns="http://www.w3.org/2000/svg" fill="none" viewBox="0 0 24 24">
  <path fill="currentColor" d="M5.046 2.737A2.58 2.58 0 0 1 6.6 2.25c.649 0 1.199.18 1.623.55.413.358.634.83.757 1.28.166.609.181 1.32.177 1.902.215.081.41.2.585.356.334.297.544.685.696 1.052l.805 1.765c.957-.042 1.89.475 2.507 1.086.624.617 1.154 1.557 1.1 2.53l1.758.79c.368.152.757.362 1.054.697.156.175.275.37.356.585.582-.005 1.293.01 1.902.177.45.123.922.344 1.28.757.369.424.55.974.55 1.623 0 .6-.173 1.123-.487 1.553-.309.422-.725.718-1.162.925-.684.323-1.487.463-2.225.506-.092.206-.213.4-.372.573-.554.609-1.389.793-2.354.793h-.035c-1.6-.076-3.201-.734-4.456-1.71-.112.06-.23.11-.35.15-.545.182-1.12.152-1.657.016-1.06-.27-2.143-1.001-3.003-1.858-.86-.857-1.595-1.938-1.863-3-.136-.54-.161-1.116.026-1.663.04-.119.09-.233.15-.342-.976-1.255-1.636-2.86-1.711-4.458L2.25 8.85c0-.965.184-1.8.793-2.354a2.1 2.1 0 0 1 .573-.372c.043-.738.183-1.541.506-2.225.207-.437.503-.853.924-1.162Zm-.555 4.675c-.225.048-.356.117-.438.192-.13.12-.3.407-.303 1.228.06 1.205.554 2.458 1.303 3.468l4.77-2.644L9.068 8l-.012-.026c-.117-.286-.221-.436-.31-.515-.066-.06-.156-.11-.346-.11H5.25a4 4 0 0 0-.759.063ZM11.7 18.948c1.01.75 2.262 1.24 3.468 1.302.82-.002 1.108-.172 1.228-.303.075-.082.144-.213.192-.438l.004-.02c.042-.244.062-.492.058-.74V15.6c0-.19-.05-.28-.108-.344-.08-.09-.23-.194-.516-.311l-.023-.01-1.663-.75-2.64 4.764Z"/>
</svg>
