<svg xmlns="http://www.w3.org/2000/svg" fill="none" viewBox="0 0 24 24">
  <path fill="currentColor" d="M16.65 21v-2.85H11.4c-.827 0-1.493 0-2.03-.044-.548-.044-1.028-.139-1.473-.365a3.75 3.75 0 0 1-1.638-1.639c-.227-.444-.32-.925-.365-1.471-.044-.538-.044-1.204-.044-2.031V7.35H3a.75.75 0 0 1 0-1.5h2.85V3a.75.75 0 0 1 1.5 0v9.6c0 .852 0 1.446.039 1.909.037.454.106.715.207.913.215.423.56.767.982.982.198.101.46.17.913.207.463.038 1.057.04 1.91.04H21l.077.003a.75.75 0 0 1 0 1.492L21 18.15h-2.85V21a.75.75 0 0 1-1.5 0Zm0-6.2v-3.4c0-.852 0-1.446-.039-1.909-.037-.454-.106-.715-.207-.913a2.25 2.25 0 0 0-.982-.982c-.198-.101-.46-.17-.913-.207-.463-.038-1.057-.04-1.91-.04H9.2a.75.75 0 1 1 0-1.5h3.4c.827 0 1.493 0 2.03.045.547.044 1.028.138 1.472.365a3.75 3.75 0 0 1 1.64 1.638c.226.445.32.925.364 1.472.044.538.044 1.204.044 2.031v3.4a.75.75 0 0 1-1.5 0Z"/>
</svg>
