<svg xmlns="http://www.w3.org/2000/svg" fill="none" viewBox="0 0 24 24">
  <path fill="currentColor" d="M18.25 8.042c0-2.31-2.064-4.292-4.75-4.292h-.003a5.082 5.082 0 0 0-2.664.74c-.515.316-1.024.326-1.423.286-.185-.018-.385-.052-.523-.073a2.694 2.694 0 0 0-.387-.036c-1.029 0-1.75.75-1.75 1.541v.01a1.54 1.54 0 0 1-.994 1.42l-.003.002c-1.209.453-2.003 1.513-2.003 2.694 0 1.202.567 2.425 1.434 2.916h13.713c.835-.237 1.353-1.017 1.353-2 0-.442-.243-.73-.747-1.177-.223-.197-.538-.461-.776-.758-.256-.32-.477-.737-.477-1.273ZM6.547 19.52c.066.46.16.579.198.613.033.03.159.117.64.117h1.75l-.785-5.5H5.864l.683 4.77Zm8.317.73h1.751c.464 0 .593-.077.632-.11.034-.028.138-.141.206-.617l.683-4.773H15.65l-.786 5.5Zm-4.214 0h2.7l.786-5.5H9.864l.786 5.5Zm9.1-12.208c0 .091.03.188.148.335.136.17.322.328.6.573.494.44 1.252 1.128 1.252 2.3 0 1.382-.705 2.75-2.073 3.313l-.738 5.171c-.084.589-.26 1.162-.724 1.553-.46.387-1.045.463-1.6.463h-9.23c-.596 0-1.189-.094-1.64-.499-.448-.4-.605-.97-.683-1.519l-.751-5.255c-1.406-.877-2.061-2.67-2.061-4.143 0-1.89 1.264-3.458 2.975-4.1a.04.04 0 0 0 .018-.012.041.041 0 0 0 .007-.023c.005-1.735 1.522-3.032 3.25-3.032.224 0 .433.027.605.053.19.028.316.05.454.063.246.025.373 0 .489-.071l.003-.001a6.58 6.58 0 0 1 3.449-.96l.003-.001-.001.001c3.389.001 6.248 2.532 6.248 5.791Z"/>
</svg>
