<svg xmlns="http://www.w3.org/2000/svg" fill="none" viewBox="0 0 24 24">
  <path fill="currentColor" d="M19.25 14.3c-.445.313-.954.57-1.479.774C16.159 15.702 14.06 16 12 16c-2.059 0-4.158-.298-5.771-.926a7.007 7.007 0 0 1-1.479-.773v3.864c0 .174.082.393.41.657.334.272.86.532 1.566.754 1.403.442 3.32.674 5.274.674 1.953 0 3.871-.232 5.274-.674.706-.222 1.232-.482 1.567-.754.326-.264.409-.483.409-.657v-3.864Zm0-6.077a7.212 7.212 0 0 1-1.504.706c-1.604.556-3.694.821-5.746.821-2.052 0-4.142-.265-5.746-.821a7.21 7.21 0 0 1-1.504-.706v3.527c0 .664.574 1.363 2.021 1.926 1.387.539 3.288.824 5.229.824 1.941 0 3.842-.285 5.229-.824 1.447-.563 2.021-1.262 2.021-1.926V8.223ZM12 3.75c-2.146 0-4.055.315-5.402.8-.677.243-1.171.515-1.483.78-.314.267-.365.456-.365.55 0 .25.112.516.437.806.335.299.86.583 1.56.826 1.395.483 3.305.738 5.253.738s3.858-.255 5.254-.738c.7-.243 1.224-.527 1.56-.826.324-.29.436-.556.436-.806 0-.094-.051-.283-.365-.55-.312-.265-.806-.537-1.483-.78-1.347-.485-3.256-.8-5.402-.8Zm8.75 14.415c0 .771-.418 1.38-.966 1.823-.54.438-1.264.768-2.058 1.019-1.597.503-3.68.743-5.726.743s-4.129-.24-5.726-.743c-.794-.25-1.518-.581-2.058-1.019-.548-.444-.966-1.052-.966-1.823V6l.003-.048-.003-.072c0-.701.397-1.27.893-1.692.498-.424 1.175-.773 1.946-1.05C7.637 2.58 9.728 2.25 12 2.25s4.363.33 5.911.888c.771.277 1.448.626 1.946 1.05.496.422.893.99.893 1.692l-.003.072.003.048v12.165Z"/>
</svg>
