<svg xmlns="http://www.w3.org/2000/svg" fill="none" viewBox="0 0 24 24">
  <path fill="currentColor" d="M20.25 9.4c0-1.132 0-1.937-.052-2.566-.044-.543-.124-.905-.247-1.191l-.056-.119A3.25 3.25 0 0 0 18.7 4.23l-.223-.125c-.305-.155-.69-.252-1.31-.302-.63-.052-1.434-.052-2.566-.052H9.4c-1.132 0-1.937 0-2.566.052-.543.044-.905.124-1.191.247l-.119.055A3.25 3.25 0 0 0 4.23 5.301l-.125.223c-.155.305-.252.69-.302 1.31-.052.63-.052 1.434-.052 2.566v5.2c0 1.132 0 1.937.052 2.566.05.62.147 1.005.302 1.31l.125.223c.313.51.76.924 1.295 1.196l.119.056c.286.123.648.203 1.191.247.63.052 1.434.052 2.566.052h5.2c1.132 0 1.937 0 2.566-.052.62-.05 1.005-.147 1.31-.303l.223-.125a3.25 3.25 0 0 0 1.196-1.294l.056-.119c.123-.286.203-.648.247-1.191.052-.63.052-1.434.052-2.566V9.4Zm-6.033 5.25a.75.75 0 0 1 .9 0l1.333 1 .059.05a.75.75 0 0 1-.96 1.15l-.882-.663-.884.664a.75.75 0 0 1-.9-.001L12 16.186l-.883.664a.75.75 0 0 1-.9 0l-.885-.663-.882.663a.75.75 0 0 1-.9-1.2l1.333-1 .104-.066a.751.751 0 0 1 .796.065l.884.663.883-.662.104-.066a.75.75 0 0 1 .796.066l.882.662.885-.663ZM7.4 8.55a.75.75 0 0 1 .987-.193l.063.043 2 1.5a.75.75 0 0 1 0 1.2l-2 1.5a.75.75 0 0 1-.9-1.2l1.2-.9-1.2-.9a.75.75 0 0 1-.15-1.05Zm8.15-.15a.75.75 0 0 1 .9 1.2l-1.201.9 1.201.9.059.05a.75.75 0 0 1-.96 1.15l-2-1.5a.75.75 0 0 1 0-1.2l2-1.5Zm6.2 6.2c0 1.107 0 1.984-.057 2.688-.058.713-.18 1.317-.46 1.868a4.751 4.751 0 0 1-2.077 2.076c-.551.281-1.155.403-1.868.461-.704.058-1.58.057-2.688.057H9.4c-1.107 0-1.983 0-2.688-.057-.713-.058-1.317-.18-1.868-.46a4.752 4.752 0 0 1-2.076-2.077c-.281-.551-.403-1.155-.461-1.868-.058-.704-.057-1.58-.057-2.688V9.4c0-1.107 0-1.983.057-2.688.058-.713.18-1.317.46-1.868a4.752 4.752 0 0 1 2.077-2.076c.551-.281 1.155-.403 1.868-.461.705-.058 1.58-.057 2.688-.057h5.2c1.107 0 1.984 0 2.688.057.713.058 1.317.18 1.868.46a4.752 4.752 0 0 1 2.076 2.077c.281.551.403 1.155.461 1.868.058.705.057 1.58.057 2.688v5.2Z"/>
</svg>
