<svg xmlns="http://www.w3.org/2000/svg" fill="none" viewBox="0 0 24 24">
  <path fill="currentColor" d="M2.25 12A9.75 9.75 0 0 0 12 21.75 9.75 9.75 0 0 0 21.75 12 9.75 9.75 0 0 0 12 2.25 9.75 9.75 0 0 0 2.25 12ZM7.4 8.55a.75.75 0 0 1 1.05-.15l2 1.5a.75.75 0 0 1 0 1.2l-2 1.5a.749.749 0 1 1-.9-1.2l1.2-.9-1.2-.9a.75.75 0 0 1-.15-1.05Zm9.05 1.05-1.2.9 1.2.9a.75.75 0 1 1-.9 1.2l-2-1.5a.75.75 0 0 1 0-1.2l2-1.5a.75.75 0 0 1 .9 1.2Zm-7.567 5.05a.75.75 0 0 1 .9 0l.884.662.883-.662a.75.75 0 0 1 .9 0l.883.662.884-.662a.75.75 0 0 1 .9 0l1.333 1a.75.75 0 1 1-.9 1.2l-.883-.663-.884.663a.75.75 0 0 1-.9 0L12 16.187l-.883.663a.75.75 0 0 1-.9 0l-.884-.663-.883.663a.749.749 0 1 1-.9-1.2l1.333-1Z"/>
</svg>
