<svg xmlns="http://www.w3.org/2000/svg" fill="none" viewBox="0 0 24 24">
  <path fill="currentColor" d="M20.25 12a8.25 8.25 0 1 0-16.5-.001 8.25 8.25 0 0 0 16.5.001Zm-6.033 2.65a.75.75 0 0 1 .9 0l1.333 1 .059.05a.75.75 0 0 1-.96 1.15l-.882-.663-.884.664a.75.75 0 0 1-.9-.001L12 16.186l-.883.664a.75.75 0 0 1-.9 0l-.885-.663-.882.663a.75.75 0 0 1-.9-1.2l1.333-1 .104-.066a.751.751 0 0 1 .796.065l.884.663.883-.662.104-.066a.75.75 0 0 1 .796.066l.882.662.885-.663ZM7.4 8.55a.75.75 0 0 1 .987-.193l.063.043 2 1.5a.75.75 0 0 1 0 1.2l-2 1.5a.75.75 0 0 1-.9-1.2l1.2-.9-1.2-.9a.75.75 0 0 1-.15-1.05Zm8.15-.15a.75.75 0 0 1 .9 1.2l-1.201.9 1.201.9.059.05a.75.75 0 0 1-.96 1.15l-2-1.5a.75.75 0 0 1 0-1.2l2-1.5Zm6.2 3.6a9.75 9.75 0 1 1-19.502 0 9.75 9.75 0 0 1 19.502 0Z"/>
</svg>
