<svg xmlns="http://www.w3.org/2000/svg" fill="none" viewBox="0 0 24 24">
  <path fill="currentColor" d="M21.068 7.125c0-.202-.106-.398-.4-.581a2.157 2.157 0 0 0-1.073-.294H9.298a1.25 1.25 0 0 0-.872.355l-5.35 5.216a.252.252 0 0 0-.056.276c.012.03.031.059.055.082l5.35 5.216c.234.227.547.355.873.355h10.297c.352 0 .768-.105 1.073-.294.294-.183.4-.38.4-.581v-9.75ZM16.97 9.47a.75.75 0 0 1 1.06 1.06L16.56 12l1.47 1.47.052.056a.75.75 0 0 1-1.056 1.056l-.056-.052-1.47-1.47-1.47 1.47a.75.75 0 0 1-1.06-1.06L14.44 12l-1.47-1.47-.052-.056a.75.75 0 0 1 1.056-1.056l.056.052 1.47 1.47 1.47-1.47Zm5.598 7.405c0 .882-.531 1.498-1.11 1.856a3.652 3.652 0 0 1-1.863.519H9.298c-.717 0-1.407-.28-1.92-.781l-5.35-5.216a1.75 1.75 0 0 1 0-2.506l5.35-5.216a2.751 2.751 0 0 1 1.92-.781h10.297a3.65 3.65 0 0 1 1.863.519c.579.358 1.11.974 1.11 1.856v9.75Z"/>
</svg>
