<svg xmlns="http://www.w3.org/2000/svg" fill="none" viewBox="0 0 24 24">
  <path fill="currentColor" d="M7.378 5.531a2.75 2.75 0 0 1 1.92-.781h10.297c.598 0 1.294.166 1.863.519.579.358 1.11.974 1.11 1.856v9.75c0 .882-.531 1.497-1.11 1.856a3.649 3.649 0 0 1-1.863.519H9.298a2.75 2.75 0 0 1-1.92-.781l-5.35-5.216a1.75 1.75 0 0 1 0-2.506l5.35-5.216ZM14.03 9.47a.749.749 0 1 0-1.06 1.06L14.44 12l-1.47 1.47a.749.749 0 0 0 .816 1.234.75.75 0 0 0 .244-.174l1.47-1.47 1.47 1.47a.75.75 0 1 0 1.06-1.06L16.56 12l1.47-1.47a.75.75 0 1 0-1.06-1.06l-1.47 1.47-1.47-1.47Z"/>
</svg>
