<svg xmlns="http://www.w3.org/2000/svg" fill="none" viewBox="0 0 24 24">
  <path fill="currentColor" d="M20.25 3.947a.206.206 0 0 0-.214-.197H7.567a1.076 1.076 0 0 0-.226.21c-.204.234-.44.601-.69 1.086-.498.963-.986 2.273-1.345 3.598-.36 1.332-.573 2.615-.555 3.535.009.469.077.761.152.91a.35.35 0 0 0 .033.056h5.524a1.272 1.272 0 0 1 .897.366l.097.106.084.116c.051.081.093.167.125.257l.04.138.024.14c.017.143.01.288-.022.428l-.002.005c-.217.924-.531 2.437-.434 3.695.05.63.196 1.1.422 1.398.196.257.502.456 1.087.456h.005a.121.121 0 0 0 .06-.017.12.12 0 0 0 .026-.018l.018-.026 1.28-2.265c.684-1.211 1.705-2.048 2.771-2.711 1.034-.643 2.243-1.194 3.205-1.71a.203.203 0 0 0 .078-.073.2.2 0 0 0 .029-.103v-9.38Zm1.5 9.39a1.699 1.699 0 0 1-.899 1.487l.001.001c-1.1.59-2.13 1.046-3.12 1.661-.899.559-1.648 1.186-2.16 2.01l-.099.166-1.28 2.266a1.62 1.62 0 0 1-1.415.821h-.004v.001c-1.003-.001-1.77-.38-2.277-1.048-.478-.628-.665-1.431-.724-2.19-.106-1.37.191-2.908.407-3.867H4.928c-.662 0-1.118-.388-1.366-.881-.224-.447-.3-1.005-.311-1.557-.021-1.123.23-2.563.607-3.955.379-1.4.902-2.814 1.46-3.894.276-.536.577-1.021.893-1.383.28-.322.726-.725 1.304-.725h12.52c.934 0 1.715.747 1.715 1.697v9.39Z"/>
</svg>
