<svg xmlns="http://www.w3.org/2000/svg" fill="none" viewBox="0 0 24 24">
  <path fill="currentColor" fill-rule="evenodd" d="M12.348 2.895a12.848 12.848 0 0 0-.942-.047 12.865 12.865 0 0 0-3.33.486c-1.144.326-2.309.838-3.174 1.586-.568.49-1.143 1.252-1.622 2.1a10.532 10.532 0 0 0-1.02 2.46l-.095.371A6.5 6.5 0 0 0 2 11.236c0 .53.082 1.054.285 1.533.39.926 1.175 1.562 2.327 1.793l.075.014-.007.076-.005.066c-.03.392-.046.782-.046 1.162 0 2.27.75 3.77 2.117 4.64 1.282.814 2.979.98 4.661.98 1.682 0 3.38-.166 4.66-.98 1.368-.87 2.117-2.37 2.117-4.64 0-.38-.015-.767-.046-1.16l-.005-.069-.006-.074.073-.015.122-.027c.938-.216 1.619-.71 2.03-1.413.128-.218.229-.453.3-.698.177-.596.175-1.332.085-2.018-.032-.25-.334-.357-.534-.18-.363.325-.834.735-1.158.981-.05.039-.097.073-.135.1l-.013.01-.055.04a1.57 1.57 0 0 1-1.82 0l-.014-.01-.01-.007-.034-.026-.01-.006a18.18 18.18 0 0 1-.242-.184.38.38 0 0 0-.435-.014.366.366 0 0 0-.18.389c.137.668.273 1.41.384 2.165l.1.76c.05.502.078.993.078 1.457 0 .935-.146 1.632-.394 2.16a2.64 2.64 0 0 1-.998 1.14c-.889.566-2.202.746-3.86.746-1.66 0-2.97-.18-3.86-.745-.4-.253-.749-.61-.998-1.14-.248-.528-.395-1.227-.395-2.163.003-.485.03-.972.077-1.455l.068-.529c.171-1.234.417-2.445.632-3.384a46.587 46.587 0 0 1 .412-1.667l.02-.07.007-.026.01-.035 1.109-3.822.013-.046.046-.012a11.12 11.12 0 0 1 2.86-.412c.218.003.437.012.654.028.254.018.486-.17.546-.428.032-.143.072-.284.12-.42a.592.592 0 0 0-.032-.464.432.432 0 0 0-.348-.242Zm.032 11.793a3.323 3.323 0 0 0-.973-.142c-.415 0-.76.074-.975.142a.868.868 0 0 0-.476.372.87.87 0 0 0-.057.79c.239.561.73.995 1.01 1.185l.116.067c.28.133.619.11.88-.067.28-.19.773-.625 1.01-1.186a.872.872 0 0 0-.058-.788.869.869 0 0 0-.476-.373Zm-2.547-3.63a.776.776 0 0 0-.763-.786.775.775 0 0 0-.762.787v.683c0 .21.081.41.224.556.143.148.337.23.538.23a.753.753 0 0 0 .54-.23.8.8 0 0 0 .223-.556v-.683Zm4.674 0a.775.775 0 0 0-.762-.786.776.776 0 0 0-.763.787v.683c0 .21.08.41.224.556.143.148.337.23.539.23a.751.751 0 0 0 .538-.23.798.798 0 0 0 .224-.556v-.683Z" clip-rule="evenodd"/>
  <path fill="currentColor" d="M18.841 1.294A1.291 1.291 0 0 0 17.992 1c-.296.003-.603.1-.843.306a1.171 1.171 0 0 0-.406.912c0 .182-.117.373-.317.493-.199.119-.415.13-.573.036l-.01-.006c-.34-.185-.686-.207-.99-.094a1.26 1.26 0 0 0-.662.595c-.276.514-.25 1.27.388 1.704l.019.012c.145.086.25.283.25.53 0 .249-.105.446-.25.531l-.005.003a1.198 1.198 0 0 0-.575.819 1.33 1.33 0 0 0 .167.886c.148.257.381.478.675.587.302.113.648.1.983-.082l.01-.006c.176-.103.383-.082.572.05a.705.705 0 0 1 .318.554c0 .385.162.69.414.893.242.194.55.28.841.277.29-.002.597-.092.837-.286.249-.2.413-.503.413-.884 0-.21.122-.43.313-.563.184-.127.392-.15.577-.04l.01.005c.343.187.695.197 1 .078.297-.116.53-.344.675-.606.144-.261.215-.58.156-.892-.06-.32-.254-.61-.59-.795-.142-.087-.246-.283-.246-.53 0-.25.105-.448.25-.533l.005-.003a1.19 1.19 0 0 0 .575-.819 1.33 1.33 0 0 0-.166-.886 1.33 1.33 0 0 0-.676-.587 1.167 1.167 0 0 0-.983.082l-.01.006c-.15.088-.366.08-.57-.04-.203-.122-.32-.312-.32-.489 0-.394-.156-.711-.407-.924ZM16.514 5.5c0-.398.157-.78.435-1.06a1.479 1.479 0 0 1 2.101 0 1.507 1.507 0 0 1 0 2.12 1.478 1.478 0 0 1-2.1 0 1.507 1.507 0 0 1-.436-1.06Z"/>
</svg>
