<svg xmlns="http://www.w3.org/2000/svg" fill="none" viewBox="0 0 24 24">
  <path fill="currentColor" d="M11.406 2.848c.315.005.63.02.942.047a.432.432 0 0 1 .348.242c.07.134.087.306.032.463a3.919 3.919 0 0 0-.12.42c-.06.26-.292.447-.546.43a11.183 11.183 0 0 0-.654-.029c-.822 0-1.857.133-2.86.412l-.046.012-.013.046-1.11 3.822v.004l-.003.006-.006.025-.027.096a46.587 46.587 0 0 0-.413 1.666c-.214.94-.46 2.15-.63 3.385l-.07.53c-.047.482-.073.969-.076 1.454 0 .936.147 1.635.395 2.164.249.53.599.886.998 1.139.89.566 2.2.745 3.86.745 1.658 0 2.971-.18 3.86-.746.399-.254.749-.61.998-1.14.248-.528.394-1.225.394-2.16 0-.464-.027-.955-.078-1.457l-.1-.76a38.382 38.382 0 0 0-.384-2.165.366.366 0 0 1 .18-.39.38.38 0 0 1 .435.015c.08.062.161.124.242.184l.002.001.008.005.034.026h.001l.01.008.013.01a1.569 1.569 0 0 0 1.82 0l.001-.002.005-.004.05-.035.147-.11c.324-.246.795-.656 1.158-.98.2-.178.502-.07.534.179.09.686.092 1.422-.086 2.018-.07.245-.171.48-.3.698-.41.704-1.091 1.197-2.03 1.413l-.122.027-.072.015.006.074.005.069c.03.393.046.78.046 1.16 0 2.27-.75 3.77-2.117 4.64-1.28.814-2.978.98-4.66.98s-3.379-.166-4.661-.98c-1.367-.87-2.117-2.37-2.117-4.64 0-.38.015-.77.046-1.162l.005-.066.007-.076-.075-.014c-1.152-.231-1.936-.867-2.327-1.793A3.923 3.923 0 0 1 2 11.235a6.5 6.5 0 0 1 .165-1.385l.094-.371c.236-.861.579-1.688 1.021-2.459.479-.848 1.054-1.61 1.622-2.1.865-.748 2.03-1.26 3.173-1.586a12.865 12.865 0 0 1 3.331-.486Zm.001 11.698c.415 0 .76.074.973.142a.869.869 0 0 1 .6.76.872.872 0 0 1-.065.401c-.237.56-.73.995-1.01 1.186-.261.178-.6.2-.88.067l-.116-.067c-.28-.19-.771-.624-1.01-1.186a.872.872 0 0 1 .057-.79v.002a.862.862 0 0 1 .476-.373 3.33 3.33 0 0 1 .975-.142ZM9.07 10.272c.42 0 .763.35.763.787v.683a.8.8 0 0 1-.224.556.753.753 0 0 1-.539.23.751.751 0 0 1-.538-.23.798.798 0 0 1-.224-.556v-.683c0-.436.343-.786.762-.787Zm4.675 0c.419 0 .762.351.762.787v.683c0 .21-.081.41-.224.556a.751.751 0 0 1-.538.23.753.753 0 0 1-.54-.23.799.799 0 0 1-.223-.556v-.683c0-.436.344-.787.763-.787ZM16.122 2.5c.613 0 1.166.259 1.57.675.13.134.35.134.48 0a2.18 2.18 0 0 1 1.568-.674l.114.003c.038.002.076.001.113.004.26.02.511.078.742.174a2.08 2.08 0 0 1 .463.268c.056.044.111.092.163.143.421.41.665 1.016.665 1.806 0 .66-.263 1.322-.633 1.933a9.267 9.267 0 0 1-1.152 1.483c-.066.07-.132.14-.198.207l-.192.192-.008.01-.01.01a16.338 16.338 0 0 1-1.694 1.448l-.047.034-.03.018a.234.234 0 0 1-.102.024l-.042-.002a.24.24 0 0 1-.062-.02l-.036-.023-.01-.006-.033-.025a16.35 16.35 0 0 1-1.903-1.659 11.87 11.87 0 0 1-.704-.785 8.097 8.097 0 0 1-.646-.906c-.37-.611-.633-1.274-.633-1.933l.001-.1a2.475 2.475 0 0 1 .64-1.575 2.18 2.18 0 0 1 1.616-.724Z"/>
</svg>
