<svg xmlns="http://www.w3.org/2000/svg" fill="none" viewBox="0 0 24 24">
  <path fill="currentColor" fill-rule="evenodd" d="M12.348 2.895a12.854 12.854 0 0 0-.942-.046 12.864 12.864 0 0 0-3.33.485c-1.144.326-2.309.838-3.174 1.586-.568.49-1.143 1.252-1.622 2.1a10.531 10.531 0 0 0-1.02 2.46l-.095.37A6.5 6.5 0 0 0 2 11.236c0 .53.082 1.054.285 1.533.39.926 1.175 1.562 2.327 1.793l.075.014-.007.076-.005.066c-.03.393-.046.782-.046 1.163 0 2.269.75 3.77 2.117 4.64 1.282.813 2.979.98 4.661.98 1.682 0 3.38-.167 4.66-.98 1.368-.87 2.117-2.372 2.117-4.64 0-.381-.015-.768-.046-1.161l-.005-.069-.006-.073.073-.016.122-.027c.938-.216 1.619-.709 2.03-1.413.128-.218.229-.453.3-.697.177-.597.175-1.332.085-2.02-.032-.248-.334-.356-.534-.178-.363.324-.834.735-1.158.98-.05.04-.097.073-.135.1l-.013.01-.055.04a1.568 1.568 0 0 1-1.82 0l-.014-.009-.01-.008-.034-.026-.01-.005a18.18 18.18 0 0 1-.242-.184.38.38 0 0 0-.435-.015.366.366 0 0 0-.18.389c.137.669.273 1.41.384 2.165l.1.76c.05.502.078.993.078 1.457 0 .935-.146 1.633-.394 2.161a2.64 2.64 0 0 1-.998 1.139c-.889.566-2.202.747-3.86.747-1.66 0-2.97-.18-3.86-.746-.4-.253-.749-.61-.998-1.139-.248-.529-.395-1.228-.395-2.163.003-.486.03-.972.077-1.455l.068-.53c.171-1.234.417-2.445.632-3.384a46.585 46.585 0 0 1 .44-1.763l.008-.034L8.49 4.89l.013-.045.046-.013a11.12 11.12 0 0 1 2.86-.412c.218.003.437.013.654.028.254.018.486-.17.546-.428.032-.143.072-.284.12-.42a.592.592 0 0 0-.032-.464.432.432 0 0 0-.348-.242Zm.032 11.793a3.323 3.323 0 0 0-.973-.142c-.415 0-.76.074-.975.142a.868.868 0 0 0-.476.372.87.87 0 0 0-.057.79c.239.561.73.995 1.01 1.185l.116.067c.28.133.619.111.88-.067.28-.19.773-.625 1.01-1.185a.872.872 0 0 0-.058-.789.869.869 0 0 0-.476-.373Zm-2.547-3.63a.776.776 0 0 0-.763-.785.775.775 0 0 0-.762.786v.683c0 .21.081.41.224.557.143.147.337.23.538.23a.753.753 0 0 0 .54-.23.799.799 0 0 0 .223-.557v-.683Zm4.674 0a.775.775 0 0 0-.762-.785.776.776 0 0 0-.763.786v.683c0 .21.08.41.224.557.143.147.337.23.539.23a.751.751 0 0 0 .538-.23.798.798 0 0 0 .224-.557v-.683Z" clip-rule="evenodd"/>
  <path fill="currentColor" fill-rule="evenodd" d="m18.012 2.221-.065-.078c.024.024.046.05.065.078Zm3.038 3.024.042.047.022.031a.511.511 0 0 0-.064-.078Zm.151.366-.01.1a.518.518 0 0 0 .01-.1Zm-.151.365-.038.034-.038.029a.526.526 0 0 0 .076-.063Zm-2.951 2.737-.01.101a.52.52 0 0 0 .01-.101Zm-.152.366-.037.033-.038.03a.517.517 0 0 1 .075-.063Zm-.365.151-.102-.01c.033.006.067.01.102.01Zm3.153-4.134a.521.521 0 0 1 .05.007l-.05-.007-.051-.002a.41.41 0 0 1 .05.002Zm-6.281-.002h.025-.025l-.017.001-.059.009a.517.517 0 0 1 .076-.01Zm-.405.23.065-.079a.519.519 0 0 0-.065.08Zm3.103-3.102.064-.08a.511.511 0 0 0-.064.08Zm-2.774 3.895c.033.007.067.01.101.01l-.1-.01Zm2.69 2.647a.54.54 0 0 1-.003-.051l.002.05.002.013.006.038a.528.528 0 0 1-.006-.038l-.002-.012Z" clip-rule="evenodd"/>
  <path fill="currentColor" fill-rule="evenodd" d="M17.947 2.143c.024.024.046.05.065.078l-.065-.078Zm-.73 0a.511.511 0 0 0-.065.079l.064-.08Zm-2.738 2.95a.95.95 0 0 0-.025.001h.025Zm6.635.23a.511.511 0 0 0-.064-.078l.042.047.022.031Zm.087.288-.01.1a.518.518 0 0 0 .01-.1ZM18.1 8.713l-.01.101a.52.52 0 0 0 .01-.101Zm-.517.517-.102-.01a.517.517 0 0 1 .102.01ZM14.05 5.324l.065-.079a.519.519 0 0 0-.065.08Zm.43.804-.1-.01c.032.006.066.01.1.01Zm-.1-1.024a.517.517 0 0 1 .059-.009l-.06.009Z" clip-rule="evenodd"/>
  <path fill="currentColor" fill-rule="evenodd" d="M14.48 5.094a.95.95 0 0 0-.026 0l-.017.001a.52.52 0 0 0-.059.009l.101-.01Zm-.102.01a.517.517 0 0 1 .06-.009l-.06.009Zm.101-.01h-.025.025Zm6.57.151.065.078a.511.511 0 0 0-.064-.078Zm0 .731ZM17.948 9.08Zm-.467.14Zm-3.366-3.974Zm.246.868Z" clip-rule="evenodd"/>
  <path fill="currentColor" d="M17.947 2.143c.024.024.046.05.065.078l-.065-.078Zm2.737 2.651h-2.285V2.508a.817.817 0 0 0-1.634 0v2.286h-2.286a.817.817 0 0 0 0 1.634h2.286v2.285a.818.818 0 0 0 1.634 0V6.428h2.285a.818.818 0 1 0 0-1.634Zm-6.23.3h.025l-.1.01a.518.518 0 0 0 .059-.009h.016Zm2.762-2.951a.511.511 0 0 0-.064.079l.064-.08Zm3.898 3.18-.064-.078a.5.5 0 0 1 .064.078Zm.087.288a.517.517 0 0 1-.01.1l.01-.1Zm-3.113 3.203.01-.101a.517.517 0 0 1-.01.101Zm-.608.406.102.01a.517.517 0 0 1-.102-.01Zm-3.43-3.896a.518.518 0 0 0 .064-.079l-.065.08Zm.328.793.101.01a.517.517 0 0 1-.1-.01Z"/>
</svg>
