<svg xmlns="http://www.w3.org/2000/svg" fill="none" viewBox="0 0 24 24">
  <path fill="currentColor" d="M21.25 12a1.66 1.66 0 0 0-.377-1.053l-.11-.122-7.589-7.588a1.66 1.66 0 0 0-2.348 0l-7.588 7.588a1.664 1.664 0 0 0-.001 2.35l7.589 7.588.12.11a1.663 1.663 0 0 0 1.69.25c.202-.083.384-.206.538-.36l7.59-7.588A1.663 1.663 0 0 0 21.25 12Zm-6 2.139c0-.707-.646-1.389-1.582-1.389h-.917v2.778h.917c.936 0 1.583-.682 1.583-1.39Zm1.5 0c0 1.655-1.443 2.889-3.082 2.889h-.917v.472a.75.75 0 0 1-1.5 0v-.472H8a.75.75 0 0 1 0-1.5h3.25V12.75h-.917c-1.64 0-3.084-1.235-3.084-2.888 0-1.656 1.444-2.89 3.084-2.89h.917V6.5a.75.75 0 0 1 1.5 0v.472h2.583a.75.75 0 0 1 0 1.5H12.75v2.778h.917c1.639 0 3.082 1.234 3.082 2.889Zm6-2.139a3.16 3.16 0 0 1-.926 2.236l-7.588 7.587a3.16 3.16 0 0 1-4.472 0l-7.587-7.587a3.16 3.16 0 0 1-.107-4.359l.107-.113 7.587-7.587.113-.107a3.16 3.16 0 0 1 4.359.107l7.587 7.587A3.166 3.166 0 0 1 22.75 12Zm-14-2.138c0 .704.647 1.388 1.584 1.388h.917V8.472h-.917c-.937 0-1.583.682-1.584 1.39Z"/>
</svg>
