<svg xmlns="http://www.w3.org/2000/svg" fill="none" viewBox="0 0 24 24">
  <path fill="currentColor" d="M10.333 8.472h.917v2.778h-.917c-.937 0-1.583-.682-1.583-1.389s.646-1.389 1.583-1.389Zm2.417 7.056V12.75h.917c.937 0 1.583.682 1.583 1.39 0 .706-.646 1.388-1.583 1.388h-.917Z"/>
  <path fill="currentColor" d="M10.565 2.075a3.33 3.33 0 0 1 2.87 0c.394.19.755.497 1.26.928l.08.066c.48.41.938.604 1.58.655l.101.008c.662.053 1.135.09 1.547.236a3.33 3.33 0 0 1 2.03 2.03c.145.411.182.884.235 1.546l.008.102c.051.641.246 1.1.655 1.58l.066.078c.431.506.74.867.928 1.261a3.33 3.33 0 0 1 0 2.87c-.189.394-.497.755-.928 1.26l-.066.08c-.418.49-.605.95-.655 1.58l-.008.101c-.053.662-.09 1.135-.236 1.547a3.331 3.331 0 0 1-2.029 2.03c-.412.145-.885.182-1.547.235l-.102.008c-.64.051-1.1.246-1.58.655l-.079.066c-.505.431-.866.74-1.26.928a3.33 3.33 0 0 1-2.87 0c-.394-.189-.755-.497-1.26-.928l-.079-.066a2.56 2.56 0 0 0-1.58-.655l-.102-.008c-.662-.053-1.135-.09-1.547-.236a3.33 3.33 0 0 1-2.03-2.029c-.145-.412-.182-.885-.235-1.547l-.008-.102a2.56 2.56 0 0 0-.655-1.58l-.066-.079c-.43-.505-.74-.866-.928-1.26a3.33 3.33 0 0 1 0-2.87c.19-.394.497-.755.928-1.26l.066-.079a2.56 2.56 0 0 0 .655-1.58l.008-.102c.053-.662.09-1.135.236-1.547a3.33 3.33 0 0 1 2.03-2.03c.411-.145.884-.182 1.546-.235l.102-.008a2.56 2.56 0 0 0 1.58-.655l.078-.066c.506-.43.867-.74 1.261-.928ZM12.75 6.5a.75.75 0 0 0-1.5 0v.472h-.917c-1.64 0-3.083 1.234-3.083 2.89 0 1.655 1.443 2.888 3.083 2.888h.917v2.778H8a.75.75 0 1 0 0 1.5h3.25v.472a.75.75 0 0 0 1.5 0v-.472h.917c1.64 0 3.083-1.233 3.083-2.89 0-1.655-1.443-2.888-3.083-2.888h-.917V8.472h2.583a.75.75 0 0 0 0-1.5H12.75V6.5Z"/>
</svg>
