<svg xmlns="http://www.w3.org/2000/svg" fill="none" viewBox="0 0 24 24">
  <path fill="currentColor" d="M20.25 12a8.25 8.25 0 1 0-16.5-.001 8.25 8.25 0 0 0 16.5.001Zm-5 2.139c0-.707-.647-1.389-1.583-1.389h-.917v2.778h.917c.936 0 1.583-.683 1.583-1.39Zm1.5 0c0 1.655-1.443 2.89-3.083 2.89h-.917v.471a.75.75 0 0 1-1.5 0v-.472H8a.75.75 0 0 1 0-1.5h3.25V12.75h-.917c-1.64 0-3.083-1.235-3.083-2.888 0-1.656 1.443-2.89 3.083-2.89h.917V6.5a.75.75 0 0 1 1.5 0v.472h2.583a.75.75 0 0 1 0 1.5H12.75v2.778h.917c1.64 0 3.083 1.234 3.083 2.889Zm5-2.139a9.75 9.75 0 1 1-19.502 0 9.75 9.75 0 0 1 19.502 0Zm-13-2.138c0 .705.647 1.388 1.583 1.388h.917V8.472h-.917c-.936 0-1.583.682-1.583 1.39Z"/>
</svg>
