<svg xmlns="http://www.w3.org/2000/svg" fill="none" viewBox="0 0 24 24">
  <path fill="currentColor" fill-rule="evenodd" d="M21.711 7.765a2.084 2.084 0 0 0-1.268-1.55c-1.275-.537-4.065-1.234-8.665-.125-3.335.804-5.514.563-6.716.25-.592-.154-1.246-.118-1.798.138-.574.267-1.032.778-1.107 1.483C2.07 8.774 2 9.953 2 11.643c0 2.5.153 3.882.288 4.621a2.07 2.07 0 0 0 1.277 1.544c1.275.526 4.062 1.203 8.658.095 3.311-.798 5.481-.555 6.686-.237.599.157 1.26.12 1.817-.136.579-.268 1.044-.783 1.12-1.496.086-.813.154-1.984.154-3.65 0-2.49-.153-3.877-.289-4.62Zm-4.504 5.063a.923.923 0 0 1-.629-.243.802.802 0 0 1-.26-.586.8.8 0 0 1 .26-.586.922.922 0 0 1 .629-.243h.433c.236 0 .462.088.629.243.167.155.26.366.26.586a.8.8 0 0 1-.26.586.923.923 0 0 1-.629.243h-.433ZM7.683 12c0 .22-.094.43-.26.586a.923.923 0 0 1-.629.243H6.36a.923.923 0 0 1-.628-.243.802.802 0 0 1-.26-.586.8.8 0 0 1 .26-.586.922.922 0 0 1 .628-.243h.434c.236 0 .462.088.629.243.166.155.26.366.26.586Zm5.206-3.002v.024a3.964 3.964 0 0 1 1.085.435c.043.026.086.053.127.082l.04.027.015.01.01.008a.846.846 0 0 1 .224.247.788.788 0 0 1 .077.63.812.812 0 0 1-.158.288.876.876 0 0 1-.265.209.934.934 0 0 1-.676.072.936.936 0 0 1-.312-.15 2.007 2.007 0 0 0-1.017-.303 1.105 1.105 0 0 0-.627.166c-.107.071-.128.12-.13.133a.167.167 0 0 0 .004.05.308.308 0 0 0 .05.032c.157.083.408.142.85.23l.056.012c.36.071.881.175 1.306.402.242.129.49.316.675.59.188.28.274.597.274.933 0 .669-.418 1.175-.874 1.479a2.793 2.793 0 0 1-.734.343V15c0 .22-.093.431-.26.586a.922.922 0 0 1-.629.243.922.922 0 0 1-.628-.243.801.801 0 0 1-.26-.586v-.025a3.965 3.965 0 0 1-1.085-.436 3.343 3.343 0 0 1-.128-.081l-.04-.028-.014-.01-.01-.007a.848.848 0 0 1-.224-.247.79.79 0 0 1-.077-.63.81.81 0 0 1 .158-.288.877.877 0 0 1 .265-.21.936.936 0 0 1 .676-.072c.112.03.22.083.311.15.313.196.68.302 1.056.304.21 0 .415-.058.589-.167.106-.07.127-.12.13-.133a.23.23 0 0 0-.004-.05.305.305 0 0 0-.05-.031c-.158-.084-.408-.143-.851-.231l-.054-.011c-.36-.072-.882-.176-1.307-.402a1.845 1.845 0 0 1-.675-.59 1.641 1.641 0 0 1-.274-.934c0-.669.418-1.174.874-1.478.225-.149.472-.264.734-.343v-.054a.8.8 0 0 1 .26-.586.923.923 0 0 1 .628-.242c.236 0 .462.087.629.243.167.155.26.366.26.586Z" clip-rule="evenodd"/>
</svg>
