<svg xmlns="http://www.w3.org/2000/svg" fill="none" viewBox="0 0 24 24">
  <path fill="currentColor" d="M17.25 15.5a2.751 2.751 0 0 0-2.75-2.75h-1.75v5.5h1.75a2.751 2.751 0 0 0 2.75-2.75Zm1.5 0a4.251 4.251 0 0 1-4.041 4.245l-.209.005h-1.75V21a.75.75 0 0 1-1.5 0v-1.25H6a.75.75 0 0 1 0-1.5h5.25v-5.5H9.5a4.25 4.25 0 0 1-4.245-4.04L5.25 8.5A4.25 4.25 0 0 1 9.5 4.25h1.75V3a.75.75 0 0 1 1.5 0v1.25H17a.75.75 0 0 1 0 1.5h-4.25v5.5h1.75l.209.005A4.251 4.251 0 0 1 18.75 15.5ZM6.764 8.771A2.75 2.75 0 0 0 9.5 11.25h1.75v-5.5H9.5A2.75 2.75 0 0 0 6.75 8.5l.014.271Z"/>
</svg>
