<svg xmlns="http://www.w3.org/2000/svg" fill="none" viewBox="0 0 24 24">
  <path fill="currentColor" d="M17.083 5.497c0-.69-.558-1.247-1.25-1.247H8.167a1.25 1.25 0 0 0-1.25 1.25v14.25h10.166V5.497Zm-2.845 6.822h-.715l-.02.001H9.762a.056.056 0 0 0-.012.036v2.358c0 .02.007.03.012.036h4.476a.054.054 0 0 0 .012-.036v-2.358a.056.056 0 0 0-.012-.037Zm-1.485-2.322c0-.315-.108-.481-.215-.575a.77.77 0 0 0-.523-.172c-.44.009-.768.278-.768.747v.822h1.506v-.822Zm1.5.822c.86.003 1.497.722 1.497 1.537v2.358c0 .816-.64 1.536-1.502 1.536H9.752c-.862 0-1.502-.72-1.502-1.536v-2.358c0-.815.637-1.534 1.497-1.537v-.822c0-1.467 1.175-2.225 2.238-2.246a2.267 2.267 0 0 1 1.543.544c.457.401.725.99.725 1.702v.822Zm4.33 8.931H20.5a.75.75 0 0 1 0 1.5h-17a.75.75 0 0 1 0-1.5h1.917V5.5a2.75 2.75 0 0 1 2.75-2.75h7.666a2.747 2.747 0 0 1 2.75 2.747V19.75Z"/>
</svg>
