<svg xmlns="http://www.w3.org/2000/svg" fill="none" viewBox="0 0 24 24">
  <path fill="currentColor" d="M17.083 5.665c0-.641-.539-1.195-1.25-1.195H14.75v15.06h2.333V5.665Zm-4.143-2.41.001.001-6.021 1.31v14.865l6.021 1.313c.182.04.309-.098.309-.22V3.476c0-.12-.127-.259-.31-.22Zm-2.69 9.72v-1.95a.75.75 0 0 1 1.5 0v1.95a.75.75 0 0 1-1.5 0Zm8.333 6.555H20.5a.75.75 0 0 1 0 1.5h-5.828a1.755 1.755 0 0 1-2.05 1.178l-5.477-1.193A.748.748 0 0 1 7 21.03H3.5a.75.75 0 0 1 0-1.5h1.917V5.668c0-.02.001-.039.003-.058V3.963c0-.352.246-.658.59-.733l6.612-1.44h.002a1.756 1.756 0 0 1 2.048 1.18h1.161c1.499 0 2.75 1.185 2.75 2.695V19.53Z"/>
</svg>
