<svg xmlns="http://www.w3.org/2000/svg" fill="none" viewBox="0 0 24 24">
  <path fill="currentColor" d="M11.625 5h.75c.621 0 1.125.495 1.125 1.105s-.504 1.106-1.125 1.106h-.75A1.115 1.115 0 0 1 10.5 6.105c0-.61.504-1.105 1.125-1.105Zm0 5.895h.75c.621 0 1.125.495 1.125 1.105s-.504 1.105-1.125 1.105h-.75A1.115 1.115 0 0 1 10.5 12c0-.61.504-1.105 1.125-1.105Zm0 5.895h.75c.621 0 1.125.494 1.125 1.105 0 .61-.504 1.105-1.125 1.105h-.75a1.115 1.115 0 0 1-1.125-1.105c0-.61.504-1.105 1.125-1.105Z"/>
</svg>
