<svg xmlns="http://www.w3.org/2000/svg" fill="none" viewBox="0 0 24 24">
  <path fill="currentColor" d="M7.74 7.4c-.477.493-.964.994-1.42 1.503-.91 1.023-1.745 2.14-2.174 3.423-.44 1.314-.435 2.75.235 4.36l.124.283C5.84 19.86 8.812 21.75 12 21.75l.308-.006c3.173-.12 6.082-2.106 7.31-5.058l.119-.3c.552-1.49.53-2.83.118-4.062-.43-1.283-1.265-2.4-2.177-3.423a47.97 47.97 0 0 0-1.435-1.516l-.031-.033m-6.404 9.16c.534.378 1.19.66 1.89.724l.302.014.076.004a.75.75 0 0 1 0 1.492L12 18.75l-.222-.005c-1.097-.05-2.08-.474-2.836-1.008-.786-.555-1.42-1.297-1.654-2a.75.75 0 0 1 1.423-.474c.1.297.467.805 1.097 1.25"/>
  <path fill="currentColor" d="M12.692 2.72c.452 1.13 1.219 2.153 2.13 3.167.444.494.913.976 1.39 1.465l.03.033c.49.495.969 1 1.436 1.515.912 1.023 1.747 2.14 2.177 3.423.412 1.232.434 2.573-.118 4.063l-.118.3c-1.23 2.951-4.138 4.937-7.311 5.058L12 21.75c-3.188 0-6.16-1.892-7.495-4.78l-.124-.285c-.67-1.61-.675-3.045-.235-4.359.429-1.283 1.264-2.4 2.175-3.423.455-.509.942-1.01 1.42-1.503l.014-.013c.487-.5.965-.994 1.419-1.5.91-1.013 1.675-2.036 2.125-3.165l.05-.102a.75.75 0 0 1 1.342.1M9.808 16.513c-.63-.445-.998-.952-1.097-1.249a.75.75 0 1 0-1.423.473c.234.703.868 1.446 1.654 2.001.756.534 1.739.956 2.836 1.007l.222.005.076-.004a.75.75 0 0 0 0-1.492L12 17.25l-.303-.014c-.7-.064-1.354-.346-1.89-.723Z"/>
</svg>
