<svg xmlns="http://www.w3.org/2000/svg" fill="none" viewBox="0 0 24 24">
  <path fill="currentColor" d="M20.47 2.47a.75.75 0 1 1 1.06 1.06l-4.586 4.585c.996 1.043 1.971 2.15 2.576 3.393.734 1.51.921 3.203.098 5.178-1.267 3.048-4.326 5.064-7.618 5.064-2.314 0-4.508-.997-6.049-2.642l-2.42 2.422a.75.75 0 1 1-1.061-1.06l18-18ZM7.014 18.046C8.279 19.417 10.095 20.25 12 20.25c2.693 0 5.202-1.658 6.233-4.14.647-1.553.497-2.797-.062-3.946-.497-1.022-1.321-1.973-2.287-2.987l-8.87 8.869Zm4.98-15.796a.75.75 0 0 1 .697.47c.325.811.814 1.57 1.405 2.312a.75.75 0 0 1-1.173.936 12.972 12.972 0 0 1-.927-1.314 14.544 14.544 0 0 1-1.465 1.963c-.843.969-1.83 1.927-2.641 2.794-1.652 1.764-2.755 3.33-2.516 5.277l.028.189.008.077a.75.75 0 0 1-1.472.243l-.016-.074-.037-.262c-.327-2.683 1.256-4.71 2.909-6.475.893-.954 1.776-1.8 2.605-2.753.811-.932 1.488-1.878 1.9-2.911l.05-.102a.75.75 0 0 1 .645-.37Z"/>
</svg>
