<svg xmlns="http://www.w3.org/2000/svg" fill="none" viewBox="0 0 24 24">
  <path fill="currentColor" d="M11.299 2.722a.75.75 0 1 1 1.393.556c-.547 1.371-1.449 2.549-2.4 3.61A52.65 52.65 0 0 1 8.83 8.434c-.487.5-.956.982-1.388 1.467-.871.978-1.543 1.912-1.874 2.902-.321.96-.338 2.021.198 3.306C6.8 18.593 9.308 20.25 12 20.25s5.2-1.658 6.235-4.142a.75.75 0 0 1 1.384.578C18.35 19.734 15.292 21.75 12 21.75s-6.35-2.016-7.619-5.064c-.67-1.61-.675-3.046-.235-4.36.429-1.283 1.264-2.4 2.175-3.423.459-.514.951-1.02 1.434-1.516.487-.5.965-.994 1.419-1.5.91-1.013 1.675-2.036 2.125-3.165Zm3.697 1.528c.31 0 .587.19.7.478.212.544.569 1.053 1.017 1.576.223.26.462.515.71.778.245.259.503.53.746.8.961 1.073 1.93 2.42 1.46 4.259-.05.193-.115.388-.193.583-.734 1.814-2.509 3.026-4.436 3.026-1.928 0-3.701-1.213-4.435-3.025-.32-.79-.385-1.53-.245-2.225.137-.684.462-1.277.841-1.8.376-.518.834-1.003 1.261-1.455.44-.465.851-.9 1.201-1.36.29-.382.523-.761.675-1.155l.049-.104a.75.75 0 0 1 .65-.376Zm-.178 2.543c-.408.536-.88 1.032-1.306 1.482-.438.464-.828.88-1.137 1.306-.306.422-.505.815-.585 1.214-.077.386-.053.827.165 1.366.51 1.26 1.742 2.09 3.045 2.09s2.535-.829 3.045-2.089c.056-.138.098-.27.13-.392l.042-.194c.165-.955-.303-1.73-1.165-2.692-.227-.253-.465-.504-.719-.772a23.39 23.39 0 0 1-.759-.832 9.879 9.879 0 0 1-.577-.737c-.06.085-.118.169-.18.25Z"/>
</svg>
