<svg xmlns="http://www.w3.org/2000/svg" fill="none" viewBox="0 0 24 24">
  <path fill="currentColor" d="M12.274 2.304a.75.75 0 0 0-.975.418c-.45 1.129-1.216 2.152-2.125 3.166-.454.505-.932.998-1.42 1.499l-.013.014c-.478.492-.965.993-1.42 1.502-.911 1.023-1.746 2.14-2.175 3.423-.44 1.314-.435 2.75.235 4.36l.124.283c1.336 2.889 4.307 4.78 7.495 4.78l.308-.005c3.173-.121 6.082-2.106 7.31-5.058a.75.75 0 0 0-1.383-.577c-1.002 2.406-3.388 4.036-5.983 4.136L12 20.25c-2.608 0-5.044-1.556-6.134-3.91l-.1-.23c-.536-1.286-.52-2.35-.2-3.308.333-.99 1.005-1.923 1.876-2.9.452-.5.915-.99 1.388-1.47.497-.505.984-1.02 1.46-1.543.953-1.062 1.854-2.24 2.4-3.61a.75.75 0 0 0-.417-.975"/>
  <path fill="currentColor" d="M14.996 4.25c.31 0 .588.19.7.478l.086.203c.217.469.539.916.93 1.373.224.26.463.515.71.778l.104.109c.213.225.433.458.643.692.9 1.005 1.808 2.25 1.53 3.918l-.071.34a3.96 3.96 0 0 1-.085.29l-.107.294c-.688 1.7-2.29 2.87-4.076 3.01l-.36.015c-1.807 0-3.48-1.065-4.286-2.692l-.15-.333c-.32-.79-.384-1.53-.245-2.225.138-.684.463-1.277.842-1.8.376-.518.834-1.003 1.26-1.455l.022-.022c.432-.457.836-.885 1.18-1.337l.206-.286a4.4 4.4 0 0 0 .469-.871l.05-.104a.75.75 0 0 1 .648-.375Z"/>
</svg>
