<svg xmlns="http://www.w3.org/2000/svg" fill="none" viewBox="0 0 24 24">
  <path fill="currentColor" d="M11.994 2.25a.75.75 0 0 1 .698.47c.452 1.13 1.219 2.153 2.13 3.167.454.505.934.997 1.421 1.498.484.496.976 1.002 1.435 1.516.912 1.023 1.748 2.14 2.178 3.423.439 1.315.434 2.75-.237 4.362-1.27 3.048-4.327 5.064-7.619 5.064s-6.35-2.016-7.619-5.064c-.67-1.61-.675-3.046-.235-4.36.429-1.283 1.264-2.4 2.175-3.423.459-.514.951-1.02 1.434-1.516.487-.5.966-.994 1.419-1.5.91-1.013 1.675-2.036 2.125-3.165l.05-.102a.75.75 0 0 1 .645-.37Zm.002 2.401c-.492.809-1.086 1.55-1.705 2.239-.477.532-.978 1.046-1.46 1.543-.488.5-.957.983-1.39 1.468-.87.978-1.542 1.91-1.873 2.9-.321.96-.338 2.022.198 3.307C6.8 18.592 9.308 20.25 12 20.25s5.2-1.658 6.235-4.142c.535-1.286.519-2.349.198-3.308-.331-.99-1.004-1.924-1.875-2.9a46.68 46.68 0 0 0-1.39-1.468c-.483-.497-.985-1.011-1.463-1.543-.62-.69-1.215-1.43-1.709-2.238ZM7.763 14.788a.75.75 0 0 1 .92.403l.03.072.048.12c.145.303.496.74 1.047 1.13.534.377 1.19.659 1.89.723l.302.014.076.004a.75.75 0 0 1 0 1.492L12 18.75l-.22-.005c-1.098-.05-2.082-.474-2.837-1.008-.738-.52-1.34-1.205-1.606-1.868l-.049-.132-.02-.074a.75.75 0 0 1 .495-.875Z"/>
</svg>
