<svg xmlns="http://www.w3.org/2000/svg" fill="none" viewBox="0 0 24 24">
  <path fill="currentColor" d="M11.466 2.469a.75.75 0 0 1 1.058-.001c.902.896 1.877 1.763 2.924 2.772 1.016.98 2.034 2.036 2.866 3.18 1.68 2.305 2.647 5.043 1.305 8.266-1.27 3.048-4.327 5.064-7.62 5.064-3.29 0-6.349-2.016-7.618-5.064-1.342-3.22-.376-5.957 1.3-8.264.832-1.143 1.849-2.2 2.864-3.18 1.046-1.01 2.02-1.876 2.92-2.773Zm.529 1.575c-.77.74-1.628 1.524-2.408 2.277-.995.961-1.938 1.946-2.692 2.983-1.493 2.054-2.2 4.235-1.13 6.804C6.8 18.593 9.308 20.25 12 20.25s5.2-1.658 6.234-4.142c1.071-2.572.363-4.753-1.132-6.806-.755-1.037-1.699-2.021-2.695-2.982-.781-.753-1.64-1.537-2.412-2.276Z"/>
</svg>
