<svg xmlns="http://www.w3.org/2000/svg" fill="none" viewBox="0 0 24 24">
  <path fill="currentColor" d="M21.53 3.53a.75.75 0 0 0-1.06-1.06l-3.62 3.62c-1.406-1.953-3.819-2.623-5.958-2.232C8.342 4.324 6 6.33 6 9.618a.75.75 0 1 0 1.5 0c0-2.43 1.683-3.923 3.662-4.285 1.757-.32 3.61.273 4.606 1.84l-1.133 1.131a3.02 3.02 0 0 0-2.367-1.575c-1.39-.13-2.792.724-3.168 2.494-.163.762.204 1.346.508 1.722.125.154.267.305.384.43l.07.075c.142.152.237.263.301.36.138.208.178.43.146.62l-.757.758a.7.7 0 0 1-.252.062.75.75 0 0 0-.73.92l-6.3 6.3a.75.75 0 1 0 1.06 1.06l3.514-3.514c.126.38.303.73.533 1.041A2.9 2.9 0 0 0 9.97 20.25c1.996 0 3.498-1.48 3.955-3.635.15-.7.505-1.292.985-1.878.242-.296.507-.58.79-.879l.098-.105c.247-.26.507-.535.75-.817.554-.64 1.085-1.39 1.323-2.335.23-.916.165-1.937-.287-3.124L21.53 3.53Zm-5.14 5.141c.152.632.133 1.138.026 1.565-.153.61-.508 1.146-1.003 1.72-.22.254-.454.502-.704.766l-.1.106c-.283.3-.58.618-.86.958-.56.685-1.074 1.493-1.292 2.518-.348 1.645-1.37 2.446-2.487 2.446-.53 0-.915-.22-1.189-.588-.25-.337-.424-.824-.466-1.417l2.333-2.332c.23-.134.444-.29.642-.467.236-.207.41-.447.53-.705l2.803-2.804a.75.75 0 0 0 .347-.347l1.42-1.419Z"/>
</svg>
