<svg xmlns="http://www.w3.org/2000/svg" fill="none" viewBox="0 0 24 24">
  <path fill="currentColor" d="M14.964 10.096a.746.746 0 0 1-.338.338l-2.809 2.808c-.09.196-.211.383-.369.55l-.159.154c-.171.15-.387.317-.635.46l-2.339 2.338c.042.593.215 1.081.466 1.418.274.368.658.588 1.189.588 1.115 0 2.14-.802 2.487-2.445.218-1.025.732-1.833 1.292-2.518.279-.34.577-.66.86-.959.287-.305.556-.584.804-.872.495-.574.85-1.11 1.003-1.72.107-.427.123-.932-.03-1.563l-1.422 1.423Zm-2.837-1.873c-.633-.06-1.343.29-1.56 1.312-.018.083-.01.198.206.465.11.135.231.261.387.429.142.152.315.342.454.554.046.07.087.142.125.216l1.746-1.746c-.201-.783-.79-1.176-1.358-1.23ZM6 9.618c0-3.289 2.342-5.294 4.893-5.76 2.138-.392 4.55.28 5.955 2.233L20.47 2.47a.75.75 0 1 1 1.06 1.06l-3.947 3.947c.452 1.187.518 2.208.288 3.123-.237.946-.77 1.695-1.323 2.337-.276.32-.574.63-.85.921a17.17 17.17 0 0 0-.788.878c-.48.587-.837 1.18-.985 1.88-.457 2.156-1.961 3.634-3.955 3.634a2.9 2.9 0 0 1-2.392-1.192 3.68 3.68 0 0 1-.531-1.044L3.53 21.53a.75.75 0 1 1-1.06-1.06l6.3-6.302a.75.75 0 0 1 .73-.918.665.665 0 0 0 .253-.065l.753-.752a.86.86 0 0 0-.143-.623v-.002a2.954 2.954 0 0 0-.3-.358c-.128-.136-.303-.318-.455-.505-.304-.375-.67-.96-.508-1.722.377-1.77 1.779-2.625 3.168-2.494a3.02 3.02 0 0 1 2.366 1.576l1.133-1.133c-.997-1.565-2.847-2.16-4.605-1.839C9.182 5.695 7.5 7.188 7.5 9.618a.75.75 0 0 1-1.5 0Z"/>
</svg>
