<svg xmlns="http://www.w3.org/2000/svg" fill="none" viewBox="0 0 24 24">
  <path fill="currentColor" d="M12.268 6.73c1.369.129 2.623 1.207 2.775 2.967a.75.75 0 0 1-1.483.205l-.011-.076-.024-.188c-.15-.907-.786-1.358-1.398-1.416-.633-.06-1.343.29-1.56 1.313-.018.083-.01.198.206.466.11.134.231.26.387.427.142.152.315.343.454.555.587.888.58 2.173-.325 2.964v-.001c-.403.353-1.042.804-1.789.804a.75.75 0 0 1 0-1.5c.173 0 .455-.129.8-.432h.002c.239-.21.312-.628.061-1.008a2.956 2.956 0 0 0-.3-.36c-.128-.137-.303-.318-.455-.505-.304-.376-.67-.96-.508-1.723.377-1.77 1.779-2.624 3.168-2.493ZM6 9.617c0-3.29 2.342-5.295 4.893-5.76 2.532-.464 5.448.561 6.62 3.44.515 1.264.6 2.341.358 3.302-.237.945-.77 1.695-1.323 2.336-.276.32-.574.63-.85.922a16.59 16.59 0 0 0-.788.879c-.48.587-.836 1.178-.985 1.879-.457 2.156-1.961 3.634-3.955 3.634a2.9 2.9 0 0 1-2.392-1.193c-.529-.71-.773-1.64-.773-2.597a.75.75 0 0 1 1.5 0c0 .722.186 1.312.476 1.702.274.368.658.588 1.189.588 1.115 0 2.14-.802 2.487-2.446l.045-.19c.238-.935.722-1.686 1.247-2.327.279-.34.577-.66.86-.96.287-.304.556-.584.804-.871.495-.574.85-1.11 1.003-1.72.15-.595.127-1.342-.292-2.371-.847-2.08-2.965-2.897-4.962-2.532C9.182 5.695 7.5 7.188 7.5 9.618a.75.75 0 0 1-1.5 0Z"/>
</svg>
