<svg xmlns="http://www.w3.org/2000/svg" fill="none" viewBox="0 0 24 24">
  <path fill="currentColor" d="M20.25 12a8.25 8.25 0 0 0-7.01-8.156 4.25 4.25 0 0 0 .845 6.708l.232.125h.001c.806.405 1.316.335 1.797.233.478-.1 1.305-.38 2.166.2a2.3 2.3 0 0 1 .624 3.19c-.157.233-.332.43-.472.588a4.87 4.87 0 0 0-.351.418c-.15.21-.246.428-.201.829.038.34.22.686.54 1.042A8.25 8.25 0 0 0 20.25 12Zm-8.876-8.225a8.249 8.249 0 0 0-5.208 2.391 8.246 8.246 0 0 0-1.695 2.466 5.729 5.729 0 0 1 2.932 2.04 5.73 5.73 0 0 1 1.142 3.94c-.023.275.178.672.545.913a3.461 3.461 0 0 1 1.15 4.533 8.25 8.25 0 0 0 4.917-.436 8.246 8.246 0 0 0 2.218-1.367c-.484-.518-.897-1.166-.985-1.954-.09-.816.137-1.397.47-1.864.15-.211.321-.4.454-.548.142-.16.253-.29.347-.428a.798.798 0 0 0-.217-1.107c-.23-.155-.335-.12-1.02.024-.68.144-1.566.249-2.778-.36a5.752 5.752 0 0 1-2.272-8.243ZM3.75 12a8.25 8.25 0 0 0 5.015 7.587c.1-.134.184-.279.247-.435a1.96 1.96 0 0 0-.744-2.372c-.683-.448-1.298-1.316-1.217-2.292a4.233 4.233 0 0 0-.843-2.909l-.001-.002a4.232 4.232 0 0 0-2.223-1.526A8.246 8.246 0 0 0 3.75 12Zm18 0a9.75 9.75 0 1 1-8.759-9.698.75.75 0 0 1 .217.026 9.747 9.747 0 0 1 5.687 2.777A9.75 9.75 0 0 1 21.75 12Z"/>
</svg>
