<svg xmlns="http://www.w3.org/2000/svg" fill="none" viewBox="0 0 24 24">
  <path fill="currentColor" d="M4.467 8.63a5.73 5.73 0 0 1 2.938 2.044 5.73 5.73 0 0 1 1.14 3.939c-.023.275.178.672.546.912a3.46 3.46 0 0 1 1.15 4.537A8.295 8.295 0 0 0 12 20.25c2.054 0 3.932-.75 5.376-1.992-.486-.518-.898-1.169-.986-1.958-.09-.816.136-1.396.47-1.864.13-.178.27-.348.42-.51l.033-.037c.142-.16.254-.289.347-.428a.8.8 0 0 0-.216-1.107c-.217-.146-.322-.124-.909 0l-.11.024c-.682.144-1.568.249-2.78-.36a5.75 5.75 0 0 1-2.267-8.246A8.26 8.26 0 0 0 4.467 8.63Zm8.511-6.332a.78.78 0 0 1 .209.023C18.01 2.906 21.75 7.017 21.75 12A9.75 9.75 0 0 1 12 21.75 9.75 9.75 0 0 1 2.25 12a9.75 9.75 0 0 1 10.728-9.702Z"/>
</svg>
