<svg xmlns="http://www.w3.org/2000/svg" fill="none" viewBox="0 0 24 24">
  <path fill="currentColor" d="M10.031 2.449a9.751 9.751 0 0 1 11.516 11.536A9.75 9.75 0 0 1 11.01 21.71 9.75 9.75 0 0 1 2.25 12a9.751 9.751 0 0 1 7.781-9.55Zm-.746 1.757A8.253 8.253 0 0 0 3.75 12a8.252 8.252 0 0 0 7.413 8.22 8.249 8.249 0 0 0 8.63-5.504c-5.782.43-10.955-4.66-10.508-10.51Zm5.083-.112a8.251 8.251 0 0 0-3.534-.265c-.738 5.293 4.103 10.06 9.333 9.34a8.25 8.25 0 0 0-2.332-7.006 8.251 8.251 0 0 0-3.467-2.069Z"/>
</svg>
