<svg xmlns="http://www.w3.org/2000/svg" fill="none" viewBox="0 0 24 24">
  <path fill="currentColor" d="M2.25 12c0-2.1-.001-3.75.172-5.037.176-1.309.544-2.354 1.366-3.175.822-.822 1.866-1.19 3.175-1.366C8.25 2.249 9.9 2.25 12 2.25a.75.75 0 0 1 0 1.5c-2.142 0-3.674.001-4.838.158-1.142.154-1.817.444-2.313.94-.497.497-.787 1.172-.94 2.314C3.751 8.326 3.75 9.858 3.75 12s.002 3.674.158 4.838c.154 1.142.444 1.817.94 2.313.497.497 1.172.787 2.314.94 1.164.157 2.696.159 4.838.159s3.674-.002 4.838-.158c1.142-.154 1.817-.444 2.313-.94.497-.497.787-1.172.94-2.314.157-1.164.159-2.696.159-4.838a.75.75 0 0 1 1.5 0c0 2.1.001 3.75-.172 5.038-.176 1.308-.545 2.353-1.366 3.175-.822.821-1.866 1.19-3.175 1.366-1.287.173-2.937.17-5.037.17s-3.75.003-5.037-.17c-1.309-.176-2.353-.545-3.175-1.366-.822-.822-1.19-1.867-1.366-3.176C2.249 15.75 2.25 14.099 2.25 12Zm18.002-6.427a1.07 1.07 0 0 0-.314-.757l-.753-.753a1.07 1.07 0 0 0-1.516 0l-7.606 7.616a1.078 1.078 0 0 0-.313.758v1.813h1.828c.284 0 .558-.113.759-.315l7.6-7.604a1.07 1.07 0 0 0 .315-.758Zm1.5 0a2.573 2.573 0 0 1-.755 1.82l-7.6 7.603a2.574 2.574 0 0 1-1.819.754H9a.75.75 0 0 1-.75-.75v-2.562a2.57 2.57 0 0 1 .752-1.818l7.605-7.616a2.57 2.57 0 0 1 3.64 0l.75.75a2.575 2.575 0 0 1 .755 1.819Z"/>
</svg>
