<svg xmlns="http://www.w3.org/2000/svg" fill="none" viewBox="0 0 24 24">
  <path fill="currentColor" d="M20 20.25a.75.75 0 0 1 0 1.5H4a.75.75 0 0 1 0-1.5h16Zm-.751-14.032c0-.406-.161-.795-.447-1.082l-.938-.939a1.528 1.528 0 0 0-2.049-.1l-.11.101-9.508 9.519a1.532 1.532 0 0 0-.447 1.08v2.453h2.473a1.53 1.53 0 0 0 1.08-.448l9.5-9.505a1.53 1.53 0 0 0 .446-1.08Zm1.5 0c0 .802-.318 1.571-.885 2.14l-9.5 9.503a3.023 3.023 0 0 1-2.141.889H5a.75.75 0 0 1-.75-.75v-3.203c0-.803.318-1.572.885-2.14l9.508-9.519a3.026 3.026 0 0 1 4.283-.002l.938.94a3.04 3.04 0 0 1 .885 2.142Z"/>
</svg>
