<svg xmlns="http://www.w3.org/2000/svg" fill="none" viewBox="0 0 24 24">
  <path fill="currentColor" d="M18.5 13.8c0-1.825-.759-4.394-2.018-6.507-.625-1.05-1.352-1.951-2.131-2.582-.779-.63-1.572-.961-2.351-.961-.78 0-1.572.331-2.35.96-.78.632-1.507 1.533-2.132 2.583C6.259 9.406 5.5 11.975 5.5 13.8c0 3.557 2.905 6.45 6.5 6.45s6.5-2.893 6.5-6.45Zm1.5 0c0 4.395-3.587 7.95-8 7.95s-8-3.555-8-7.95c0-2.151.864-4.982 2.23-7.275.686-1.153 1.52-2.207 2.476-2.98C9.662 2.77 10.778 2.25 12 2.25s2.338.521 3.294 1.295c.955.773 1.79 1.827 2.476 2.98C19.136 8.818 20 11.65 20 13.8Z"/>
</svg>
