<svg xmlns="http://www.w3.org/2000/svg" fill="none" viewBox="0 0 24 24">
  <path fill="currentColor" d="M20.25 12a8.25 8.25 0 1 0-16.5-.001 8.25 8.25 0 0 0 16.5.001Zm-6.5 2c0-.283-.243-.595-.835-.892a4.717 4.717 0 0 0-.915-.337 4.86 4.86 0 0 0-.915.337c-.592.296-.835.61-.835.892 0 .535.184.79.41.945.272.189.72.305 1.34.305.62 0 1.068-.116 1.34-.305.226-.155.41-.41.41-.945Zm0-4c0-.535-.184-.79-.41-.945-.272-.189-.72-.305-1.34-.305-.62 0-1.068.116-1.34.305-.226.155-.41.41-.41.945 0 .283.243.595.835.892a4.888 4.888 0 0 0 .915.335 4.717 4.717 0 0 0 .915-.336c.592-.296.835-.608.835-.891Zm8 2a9.75 9.75 0 1 1-19.502 0 9.75 9.75 0 0 1 19.502 0Zm-6.5-2c0 .984-.66 1.618-1.259 2 .6.382 1.259 1.016 1.259 2 0 .965-.377 1.71-1.057 2.18-.632.436-1.434.57-2.193.57-.759 0-1.561-.134-2.193-.57-.68-.47-1.057-1.215-1.057-2.18 0-.983.659-1.618 1.258-2-.6-.382-1.258-1.017-1.258-2 0-.965.377-1.71 1.057-2.18.632-.436 1.434-.57 2.193-.57.759 0 1.561.134 2.193.57.68.47 1.057 1.215 1.057 2.18Z"/>
</svg>
