<svg xmlns="http://www.w3.org/2000/svg" fill="none" viewBox="0 0 24 24">
  <path fill="currentColor" d="M21.25 12a1.66 1.66 0 0 0-.377-1.053l-.11-.122-7.589-7.588a1.66 1.66 0 0 0-2.348 0l-7.588 7.588a1.664 1.664 0 0 0-.001 2.35l7.589 7.588.12.11a1.663 1.663 0 0 0 1.69.25c.202-.083.384-.206.538-.36l7.59-7.588A1.663 1.663 0 0 0 21.25 12Zm-7.5 2c0-.283-.243-.595-.835-.891a4.733 4.733 0 0 0-.74-.29 3.29 3.29 0 0 0-.176-.047 4.733 4.733 0 0 0-.914.337c-.592.296-.834.608-.834.891 0 .535.182.79.408.946.272.188.72.304 1.341.304s1.069-.116 1.341-.304c.226-.156.41-.411.41-.946Zm0-4c0-.534-.183-.79-.409-.945-.272-.188-.72-.305-1.34-.305-.621 0-1.07.117-1.342.305-.226.156-.409.41-.409.945 0 .283.243.596.835.892.262.13.532.226.74.288.066.02.126.034.175.047.049-.013.108-.027.175-.047.208-.063.477-.157.74-.288.592-.296.835-.61.836-.892Zm9 2a3.16 3.16 0 0 1-.926 2.236l-7.588 7.587a3.16 3.16 0 0 1-4.472 0l-7.587-7.587a3.16 3.16 0 0 1-.107-4.359l.107-.113 7.587-7.587.113-.107a3.16 3.16 0 0 1 4.359.107l7.587 7.587A3.166 3.166 0 0 1 22.75 12Zm-7.5-2c0 .984-.659 1.618-1.258 2 .599.382 1.258 1.017 1.258 2 0 .965-.377 1.71-1.056 2.18-.632.436-1.435.57-2.194.57-.759 0-1.562-.134-2.194-.57-.68-.47-1.055-1.215-1.056-2.18 0-.983.66-1.618 1.258-2-.599-.382-1.257-1.017-1.258-2 0-.965.377-1.71 1.056-2.18.632-.436 1.435-.57 2.195-.57.758 0 1.56.134 2.193.57.68.47 1.056 1.215 1.056 2.18Z"/>
</svg>
