<svg xmlns="http://www.w3.org/2000/svg" fill="none" viewBox="0 0 24 24">
  <path fill="currentColor" d="M20.25 8.937a.85.85 0 0 0-.046-.33.846.846 0 0 0-.203-.272l-4.336-4.336a.846.846 0 0 0-.271-.203.851.851 0 0 0-.33-.046H8.936a.85.85 0 0 0-.33.046.859.859 0 0 0-.272.204l-.001-.001-4.335 4.336a.852.852 0 0 0-.201.267.849.849 0 0 0-.048.335v6.127c0 .183.022.271.046.329.023.057.07.138.204.272l4.335 4.336a.85.85 0 0 0 .267.201.846.846 0 0 0 .335.048h6.127a.85.85 0 0 0 .33-.046.846.846 0 0 0 .271-.203L20 15.665a.85.85 0 0 0 .201-.267.845.845 0 0 0 .048-.335V8.938ZM13.75 14c0-.283-.243-.595-.835-.892a4.717 4.717 0 0 0-.915-.337 4.86 4.86 0 0 0-.915.337c-.592.296-.835.61-.835.892 0 .535.184.79.41.945.272.189.72.305 1.34.305.62 0 1.068-.116 1.34-.305.226-.155.41-.41.41-.945Zm0-4c0-.535-.184-.79-.41-.945-.272-.189-.72-.305-1.34-.305-.62 0-1.068.116-1.34.305-.226.155-.41.41-.41.945 0 .283.243.595.835.892a4.888 4.888 0 0 0 .915.335 4.717 4.717 0 0 0 .915-.336c.592-.296.835-.608.835-.891Zm1.5 0c0 .984-.66 1.618-1.259 2 .6.382 1.259 1.016 1.259 2 0 .965-.377 1.71-1.057 2.18-.632.436-1.434.57-2.193.57-.759 0-1.561-.134-2.193-.57-.68-.47-1.057-1.215-1.057-2.18 0-.983.659-1.618 1.258-2-.6-.382-1.258-1.017-1.258-2 0-.965.377-1.71 1.057-2.18.632-.436 1.434-.57 2.193-.57.759 0 1.561.134 2.193.57.68.47 1.057 1.215 1.057 2.18Zm6.5 5.063c0 .313-.04.616-.164.914-.124.297-.31.535-.524.749l-4.336 4.335a2.32 2.32 0 0 1-.763.53 2.32 2.32 0 0 1-.9.159H8.938c-.313 0-.616-.04-.914-.164a2.321 2.321 0 0 1-.749-.524L2.94 16.725a2.326 2.326 0 0 1-.53-.763 2.316 2.316 0 0 1-.159-.9V8.938c0-.313.04-.616.164-.914.124-.297.31-.535.524-.749l4.337-4.337c.222-.22.464-.406.762-.529.298-.122.598-.158.9-.158h6.127c.301 0 .6.036.899.158.299.123.541.31.763.53l4.335 4.336c.222.222.408.464.53.763.123.298.159.598.159.9v6.127Z"/>
</svg>
