<svg xmlns="http://www.w3.org/2000/svg" fill="none" viewBox="0 0 24 24">
  <path fill="currentColor" d="M12 1.75c.463 0 .916.124 1.316.355h.001l6.613 3.8.006.003a2.661 2.661 0 0 1 1.314 2.291v7.6l-.005.173a2.652 2.652 0 0 1-1.311 2.123l-.004.001-6.613 3.8a2.628 2.628 0 0 1-2.634 0l-6.613-3.8-.006-.003a2.659 2.659 0 0 1-1.314-2.29V8.2a2.65 2.65 0 0 1 1.316-2.293l.004-.002 6.613-3.8c.4-.233.854-.354 1.317-.354Zm0 1.5c-.2 0-.395.053-.567.153l-.003.002-6.61 3.797h.001a1.151 1.151 0 0 0-.571.997V15.8l.01.15a1.16 1.16 0 0 0 .563.849l6.607 3.797.003.001a1.13 1.13 0 0 0 1.134 0l.003-.002 6.609-3.797.125-.084a1.15 1.15 0 0 0 .446-.912V8.2a1.16 1.16 0 0 0-.573-1L12.57 3.406l-.003-.002A1.13 1.13 0 0 0 12 3.251ZM13.75 14c0-.283-.243-.596-.835-.892a4.717 4.717 0 0 0-.915-.337 5.104 5.104 0 0 0-.915.337c-.592.296-.835.61-.835.892 0 .534.184.79.41.945.272.188.72.305 1.34.305.62 0 1.068-.117 1.34-.305.226-.156.41-.41.41-.945Zm0-4c0-.535-.184-.79-.41-.946-.272-.188-.72-.304-1.34-.304-.62 0-1.068.116-1.34.304-.226.156-.41.411-.41.946 0 .282.243.595.835.891.262.131.532.227.74.29.067.02.126.034.175.046a4.74 4.74 0 0 0 .915-.336c.592-.296.835-.609.835-.891Zm1.5 0c0 .983-.66 1.618-1.259 2 .6.382 1.259 1.016 1.259 2 0 .965-.377 1.71-1.057 2.18-.632.436-1.434.57-2.193.57-.76 0-1.561-.134-2.193-.57-.68-.47-1.057-1.215-1.057-2.18 0-.983.659-1.618 1.258-2-.6-.382-1.258-1.017-1.258-2 0-.965.377-1.71 1.057-2.18.632-.436 1.434-.57 2.193-.57.759 0 1.561.134 2.193.57.68.47 1.057 1.215 1.057 2.18Z"/>
</svg>
