<svg xmlns="http://www.w3.org/2000/svg" fill="none" viewBox="0 0 24 24">
  <path fill="currentColor" d="M14.25 14.5c0-.47-.4-.908-1.148-1.282a6.092 6.092 0 0 0-1.227-.447 6.427 6.427 0 0 0-1.227.447c-.749.374-1.148.812-1.148 1.282 0 .722.253 1.102.592 1.336.386.266.99.414 1.783.414.793 0 1.397-.148 1.783-.414.339-.234.592-.614.592-1.336Zm0-5c0-.722-.253-1.102-.592-1.336-.386-.266-.99-.414-1.783-.414-.793 0-1.397.148-1.783.414-.339.234-.592.614-.592 1.336 0 .47.4.908 1.148 1.282a6.092 6.092 0 0 0 1.227.447 6.07 6.07 0 0 0 1.227-.447c.749-.374 1.148-.812 1.148-1.282Zm1.5 0c0 1.277-.962 2.062-1.748 2.5.786.438 1.748 1.223 1.748 2.5 0 1.153-.447 2.023-1.24 2.57-.745.515-1.703.68-2.635.68-.932 0-1.89-.165-2.636-.68C8.447 16.523 8 15.653 8 14.5c0-1.276.961-2.062 1.747-2.5C8.961 11.562 8 10.776 8 9.5c0-1.153.447-2.023 1.24-2.57.745-.515 1.703-.68 2.635-.68.932 0 1.89.165 2.636.68.792.547 1.239 1.417 1.239 2.57Z"/>
</svg>
