<svg xmlns="http://www.w3.org/2000/svg" fill="none" viewBox="0 0 24 24">
  <path fill="currentColor" d="M20.25 9.4c0-1.132 0-1.937-.052-2.566-.044-.543-.124-.905-.247-1.191l-.056-.119A3.25 3.25 0 0 0 18.7 4.23l-.223-.125c-.305-.155-.69-.252-1.31-.302-.63-.052-1.434-.052-2.566-.052H9.4c-1.132 0-1.937 0-2.566.052-.543.044-.905.124-1.191.247l-.119.055A3.25 3.25 0 0 0 4.23 5.301l-.125.223c-.155.305-.252.69-.302 1.31-.052.63-.052 1.434-.052 2.566v5.2c0 1.132 0 1.937.052 2.566.05.62.147 1.005.302 1.31l.125.223c.313.51.76.924 1.295 1.196l.119.056c.286.123.648.203 1.191.247.63.052 1.434.052 2.566.052h5.2c1.132 0 1.937 0 2.566-.052.62-.05 1.005-.147 1.31-.303l.223-.125a3.25 3.25 0 0 0 1.196-1.294l.056-.119c.123-.286.203-.648.247-1.191.052-.63.052-1.434.052-2.566V9.4Zm-6.5 4.6c0-.283-.243-.595-.835-.892a4.717 4.717 0 0 0-.915-.337 4.86 4.86 0 0 0-.915.337c-.592.296-.835.61-.835.892 0 .535.184.79.41.945.272.189.72.305 1.34.305.62 0 1.068-.116 1.34-.305.226-.155.41-.41.41-.945Zm0-4c0-.535-.184-.79-.41-.945-.272-.189-.72-.305-1.34-.305-.62 0-1.068.116-1.34.305-.226.155-.41.41-.41.945 0 .283.243.595.835.892a4.888 4.888 0 0 0 .915.335 4.717 4.717 0 0 0 .915-.336c.592-.296.835-.608.835-.891Zm1.5 0c0 .984-.66 1.618-1.259 2 .6.382 1.259 1.016 1.259 2 0 .965-.377 1.71-1.057 2.18-.632.436-1.434.57-2.193.57-.759 0-1.561-.134-2.193-.57-.68-.47-1.057-1.215-1.057-2.18 0-.983.659-1.618 1.258-2-.6-.382-1.258-1.017-1.258-2 0-.965.377-1.71 1.057-2.18.632-.436 1.434-.57 2.193-.57.759 0 1.561.134 2.193.57.68.47 1.057 1.215 1.057 2.18Zm6.5 4.6c0 1.107 0 1.984-.057 2.688-.058.713-.18 1.317-.46 1.868a4.751 4.751 0 0 1-2.077 2.076c-.551.281-1.155.403-1.868.461-.704.058-1.58.057-2.688.057H9.4c-1.107 0-1.983 0-2.688-.057-.713-.058-1.317-.18-1.868-.46a4.752 4.752 0 0 1-2.076-2.077c-.281-.551-.403-1.155-.461-1.868-.058-.704-.057-1.58-.057-2.688V9.4c0-1.107 0-1.983.057-2.688.058-.713.18-1.317.46-1.868a4.752 4.752 0 0 1 2.077-2.076c.551-.281 1.155-.403 1.868-.461.705-.058 1.58-.057 2.688-.057h5.2c1.107 0 1.984 0 2.688.057.713.058 1.317.18 1.868.46a4.752 4.752 0 0 1 2.076 2.077c.281.551.403 1.155.461 1.868.058.705.057 1.58.057 2.688v5.2Z"/>
</svg>
