<svg xmlns="http://www.w3.org/2000/svg" fill="none" viewBox="0 0 24 24">
  <path fill="currentColor" d="M14.15 2.464a.75.75 0 0 0-1.05 1.072l1.626 1.589a.75.75 0 0 0 1.048 0l1.626-1.59a.75.75 0 1 0-1.048-1.071L15.25 3.54l-1.1-1.076Zm-4.876 0a.75.75 0 0 0-1.048 0L6.6 4.052a.75.75 0 0 0 1.048 1.073L8.75 4.049l1.1 1.076a.75.75 0 0 0 1.05-1.073L9.274 2.464ZM12.75 21.75h3.75A2.75 2.75 0 0 0 19.25 19v-8.706a2.75 2.75 0 0 0-2.75-2.75h-3.75V21.75Zm-1.5-14.206H7.5a2.75 2.75 0 0 0-2.75 2.75V19a2.75 2.75 0 0 0 2.75 2.75h3.75V7.544Z"/>
</svg>
