<svg xmlns="http://www.w3.org/2000/svg" fill="none" viewBox="0 0 24 24">
  <path fill="currentColor" d="M17.75 10.294a1.25 1.25 0 0 0-1.25-1.25h-3.75V20.25h3.75A1.25 1.25 0 0 0 17.75 19v-8.706Zm-9.524-7.83a.75.75 0 0 1 1.048 0L10.9 4.052l.052.056a.75.75 0 0 1-1.1 1.016L8.75 4.048l-1.1 1.076A.75.75 0 0 1 6.6 4.052l1.626-1.588Zm8.125 0a.75.75 0 0 1 1.048 1.072l-1.625 1.588a.75.75 0 0 1-1.048 0L13.1 3.536a.75.75 0 0 1 .99-1.123l.058.05L15.25 3.54l1.1-1.075ZM6.25 19l.006.124A1.25 1.25 0 0 0 7.5 20.25h3.75V9.044H7.5a1.25 1.25 0 0 0-1.25 1.25V19Zm13 0a2.75 2.75 0 0 1-2.75 2.75h-9A2.75 2.75 0 0 1 4.75 19v-8.706a2.75 2.75 0 0 1 2.75-2.75h9a2.75 2.75 0 0 1 2.75 2.75V19Z"/>
</svg>
