<svg xmlns="http://www.w3.org/2000/svg" fill="none" viewBox="0 0 24 24">
  <path fill="currentColor" d="m20.892 9.115-5.813 3.877c-.914.608-1.524 1.029-2.205 1.193a3.758 3.758 0 0 1-1.748 0c-.68-.164-1.291-.585-2.205-1.193L3.107 9.115V14.7l.005 1.1c.005.314.014.578.033.81.037.453.106.714.207.912.216.423.56.767.983.983.198.1.459.17.913.207.462.038 1.056.038 1.909.038h9.686c.852 0 1.447 0 1.91-.038.453-.037.714-.107.912-.207l.154-.087c.352-.216.64-.526.828-.896.1-.198.17-.46.207-.913.038-.462.04-1.057.04-1.909V9.3l-.002-.185ZM7.157 5.25c-.853 0-1.447 0-1.91.038-.34.028-.571.074-.75.138l-.162.07c-.422.215-.767.56-.982.983-.097.19-.165.439-.203.862l6.603 4.403c1.013.674 1.364.895 1.723.982.345.082.704.082 1.048 0l.136-.04c.321-.109.701-.353 1.587-.942l6.602-4.403c-.038-.423-.104-.672-.201-.862a2.25 2.25 0 0 0-.983-.984c-.198-.1-.459-.17-.913-.207-.462-.038-1.056-.038-1.909-.038H7.157Zm15.236 9.45c0 .828 0 1.494-.044 2.031-.045.547-.139 1.028-.366 1.472h-.001a3.749 3.749 0 0 1-1.636 1.638c-.444.226-.925.321-1.471.366-.538.044-1.204.043-2.032.043H7.157c-.828 0-1.494.001-2.032-.043-.546-.045-1.026-.14-1.47-.366a3.75 3.75 0 0 1-1.639-1.639c-.226-.444-.321-.924-.366-1.47-.022-.27-.033-.57-.038-.908L1.607 14.7V9.3c0-.55.002-1.028.015-1.446a.746.746 0 0 1 .014-.336c.005-.086.008-.17.015-.25.045-.546.14-1.026.366-1.47a3.75 3.75 0 0 1 1.637-1.639c.444-.226.925-.321 1.471-.366.538-.044 1.204-.043 2.032-.043h9.686c.828 0 1.494-.001 2.032.043.546.045 1.026.14 1.47.366a3.75 3.75 0 0 1 1.639 1.639c.226.444.32.924.365 1.47.007.082.01.166.015.253.03.11.035.224.014.333.013.417.015.896.015 1.446v5.4Z"/>
</svg>
