<svg xmlns="http://www.w3.org/2000/svg" fill="none" viewBox="0 0 24 24">
  <path fill="currentColor" d="m20.89 9.11-5.81 3.876c-.914.61-1.525 1.03-2.206 1.193a3.752 3.752 0 0 1-1.748 0c-.682-.164-1.292-.584-2.204-1.191v-.001L3.11 9.11v5.588c0 .852 0 1.446.038 1.909.037.453.107.713.207.91l.087.156c.216.352.526.64.896.828.198.101.46.17.912.207.463.038 1.057.04 1.91.04h9.68c.852 0 1.447-.002 1.91-.04.453-.037.714-.105.912-.206a2.25 2.25 0 0 0 .983-.983c.1-.198.169-.459.206-.912.038-.463.04-1.057.04-1.91V9.11Zm-8.437-5.532a2.25 2.25 0 0 0-.907 0v.001c-.31.064-.62.226-1.513.723L3.798 7.766l5.955 3.973c1.012.674 1.363.896 1.723.982.345.082.704.082 1.048 0l.136-.04c.322-.109.703-.353 1.588-.942L20.2 7.766l-6.234-3.464c-.893-.496-1.203-.66-1.514-.724Zm9.937 11.12c0 .827 0 1.493-.044 2.03-.044.547-.139 1.027-.365 1.471a3.751 3.751 0 0 1-1.38 1.495l-.259.144c-.444.226-.924.32-1.47.365-.538.044-1.204.044-2.032.044H7.16c-.828 0-1.494 0-2.032-.044-.546-.044-1.027-.139-1.471-.366A3.752 3.752 0 0 1 2.019 18.2c-.226-.445-.321-.925-.366-1.471-.044-.538-.043-1.204-.043-2.031v-6.99a.75.75 0 0 1 .386-.655L9.303 2.99c.808-.448 1.351-.759 1.94-.88a3.75 3.75 0 0 1 1.325-.035l.188.035.22.054c.364.105.724.282 1.158.517l.562.31 7.308 4.062a.75.75 0 0 1 .386.655v6.99Z"/>
</svg>
