<svg xmlns="http://www.w3.org/2000/svg" fill="none" viewBox="0 0 24 24">
  <path fill="currentColor" d="M6.25 12c0-.433.016-.85.044-1.25H4a.75.75 0 0 1 0-1.5h2.48c.358-1.934 1.146-3.42 2.434-4.435C10.33 3.702 12.23 3.25 14.5 3.25c2.357 0 4.314.487 5.741 1.691l.279.25.052.057a.75.75 0 0 1-1.033 1.076l-.059-.05-.203-.183c-1.052-.888-2.6-1.341-4.777-1.341-2.098 0-3.613.421-4.658 1.244-.877.69-1.506 1.73-1.833 3.256H14a.75.75 0 0 1 0 1.5H7.798a16.071 16.071 0 0 0 0 2.5H14a.75.75 0 0 1 0 1.5H8.009c.327 1.526.956 2.566 1.833 3.256 1.045.823 2.56 1.244 4.658 1.244 2.322 0 3.928-.515 4.98-1.524a.75.75 0 0 1 1.04 1.083l-.279.25c-1.427 1.203-3.384 1.691-5.741 1.691-2.271 0-4.171-.452-5.586-1.565-1.288-1.014-2.076-2.5-2.434-4.435H4a.75.75 0 0 1 0-1.5h2.294c-.028-.4-.044-.817-.044-1.25Z"/>
</svg>
