<svg xmlns="http://www.w3.org/2000/svg" fill="none" viewBox="0 0 24 24">
  <path fill="currentColor" d="M12 1.75c.463 0 .916.124 1.316.355h.001l6.613 3.8.006.003a2.661 2.661 0 0 1 1.314 2.291v7.6l-.005.173a2.652 2.652 0 0 1-1.311 2.123l-.004.001-6.613 3.8a2.628 2.628 0 0 1-2.634 0l-6.613-3.8-.006-.003a2.659 2.659 0 0 1-1.314-2.29V8.2a2.65 2.65 0 0 1 1.316-2.293l.004-.002 6.613-3.8c.4-.233.854-.354 1.317-.354Zm0 1.5c-.2 0-.395.053-.567.153l-.003.002-6.61 3.797h.001a1.151 1.151 0 0 0-.571.997V15.8l.01.15a1.16 1.16 0 0 0 .563.849l6.607 3.797.003.001a1.13 1.13 0 0 0 1.134 0l.003-.002 6.609-3.797.125-.084a1.15 1.15 0 0 0 .446-.912V8.2a1.16 1.16 0 0 0-.573-1L12.57 3.406l-.003-.002A1.13 1.13 0 0 0 12 3.251Zm.25 4c1.223 0 2.304.252 3.111.932l.159.143.052.056a.75.75 0 0 1-1.033 1.077l-.059-.051-.172-.146c-.434-.321-1.083-.511-2.058-.511-1.029 0-1.755.402-2.236.98-.348.418-.58.947-.69 1.52H12a.75.75 0 0 1 0 1.5H9.34c.32 1.365 1.478 2.5 2.91 2.5 1.114 0 1.804-.247 2.23-.658l.058-.05a.75.75 0 0 1 .982 1.132l-.158.142c-.807.682-1.89.934-3.112.934-2.394 0-4.099-1.931-4.438-4H7a.75.75 0 0 1 0-1.5h.802c.123-.897.47-1.772 1.06-2.48.768-.922 1.917-1.52 3.388-1.52Z"/>
</svg>
