<svg xmlns="http://www.w3.org/2000/svg" fill="none" viewBox="0 0 24 24">
  <path fill="currentColor" d="M21.25 12a1.66 1.66 0 0 0-.377-1.053l-.11-.122-7.589-7.588a1.66 1.66 0 0 0-2.348 0l-7.588 7.588a1.664 1.664 0 0 0-.001 2.35l7.589 7.588.12.11a1.663 1.663 0 0 0 1.69.25c.202-.083.384-.206.538-.36l7.59-7.588A1.663 1.663 0 0 0 21.25 12Zm-9-4.75c1.223 0 2.305.252 3.112.933l.158.141.052.057a.75.75 0 0 1-1.033 1.076l-.058-.05-.173-.146c-.433-.322-1.083-.51-2.057-.51-1.03 0-1.755.401-2.237.979-.348.417-.58.947-.69 1.52H12l.076.004a.75.75 0 0 1 0 1.492L12 12.75H9.34c.32 1.366 1.478 2.5 2.91 2.5 1.113 0 1.803-.248 2.229-.658a.75.75 0 0 1 1.04 1.082l-.158.142c-.807.682-1.889.934-3.111.934-2.394 0-4.099-1.93-4.438-4H7a.75.75 0 0 1 0-1.5h.802c.123-.897.47-1.772 1.06-2.48.768-.922 1.918-1.52 3.389-1.52ZM22.75 12a3.16 3.16 0 0 1-.926 2.236l-7.588 7.587a3.16 3.16 0 0 1-4.472 0l-7.587-7.587a3.16 3.16 0 0 1-.107-4.359l.107-.113 7.587-7.587.113-.107a3.16 3.16 0 0 1 4.359.107l7.587 7.587A3.166 3.166 0 0 1 22.75 12Z"/>
</svg>
