<svg xmlns="http://www.w3.org/2000/svg" fill="none" viewBox="0 0 24 24">
  <path fill="currentColor" d="M8.037 2.408a2.3 2.3 0 0 1 .9-.158h6.126c.302 0 .602.036.9.158.298.122.54.31.762.53l4.337 4.337c.22.221.408.463.53.762.123.298.158.598.158.9v6.126c0 .313-.04.616-.163.914a2.3 2.3 0 0 1-.525.748l-4.337 4.337a2.3 2.3 0 0 1-.762.53 2.301 2.301 0 0 1-.9.158H8.937c-.313 0-.616-.039-.914-.163a2.301 2.301 0 0 1-.748-.525l-4.337-4.337a2.302 2.302 0 0 1-.53-.762 2.3 2.3 0 0 1-.158-.9V8.937c0-.313.039-.616.163-.914a2.3 2.3 0 0 1 .525-.748l4.337-4.337c.22-.22.463-.408.762-.53ZM8.86 8.77c-.59.708-.937 1.583-1.06 2.48H7a.75.75 0 1 0 0 1.5h.812c.339 2.07 2.044 4 4.438 4 1.305 0 2.448-.287 3.27-1.075a.752.752 0 0 0-.505-1.292.75.75 0 0 0-.535.21c-.427.41-1.117.657-2.23.657-1.432 0-2.593-1.134-2.913-2.5H12a.75.75 0 0 0 0-1.5H9.32c.11-.573.346-1.102.694-1.52.48-.578 1.207-.98 2.236-.98 1.113 0 1.803.248 2.23.658a.75.75 0 0 0 1.04-1.083c-.822-.788-1.965-1.075-3.27-1.075-1.471 0-2.62.598-3.39 1.52"/>
</svg>
