<svg xmlns="http://www.w3.org/2000/svg" fill="none" viewBox="0 0 24 24">
  <path fill="currentColor" d="M20.25 12a8.25 8.25 0 1 0-16.5-.001 8.25 8.25 0 0 0 16.5.001Zm-8-4.75c1.223 0 2.304.252 3.111.933l.159.142.052.056a.75.75 0 0 1-1.033 1.076l-.059-.05-.172-.145c-.434-.322-1.083-.512-2.058-.512-1.029 0-1.755.403-2.236.98-.348.418-.58.947-.69 1.52H12a.75.75 0 0 1 0 1.5H9.34c.32 1.366 1.479 2.5 2.91 2.5 1.114 0 1.804-.247 2.23-.657l.058-.051a.75.75 0 0 1 .982 1.132l-.158.141c-.807.683-1.89.935-3.112.935-2.394 0-4.099-1.931-4.438-4H7a.75.75 0 0 1 0-1.5h.802c.123-.897.47-1.772 1.06-2.48.768-.923 1.917-1.52 3.388-1.52Zm9.5 4.75a9.75 9.75 0 1 1-19.502 0 9.75 9.75 0 0 1 19.502 0Z"/>
</svg>
