<svg xmlns="http://www.w3.org/2000/svg" fill="none" viewBox="0 0 24 24">
  <path fill="currentColor" d="M20.25 8.937a.85.85 0 0 0-.046-.33.846.846 0 0 0-.203-.272l-4.336-4.336a.846.846 0 0 0-.271-.203.851.851 0 0 0-.33-.046H8.936a.85.85 0 0 0-.33.046.859.859 0 0 0-.272.204l-.001-.001-4.335 4.336a.852.852 0 0 0-.201.267.849.849 0 0 0-.048.335v6.127c0 .183.022.271.046.329.023.057.07.138.204.272l4.335 4.336a.85.85 0 0 0 .267.201.846.846 0 0 0 .335.048h6.127a.85.85 0 0 0 .33-.046.846.846 0 0 0 .271-.203L20 15.665a.85.85 0 0 0 .201-.267.845.845 0 0 0 .048-.335V8.938Zm-8-1.687c1.223 0 2.304.252 3.111.933l.159.142.052.056a.75.75 0 0 1-1.033 1.076l-.059-.05-.172-.145c-.434-.322-1.083-.512-2.058-.512-1.029 0-1.755.403-2.236.98-.348.418-.58.947-.69 1.52H12a.75.75 0 0 1 0 1.5H9.34c.32 1.366 1.479 2.5 2.91 2.5 1.114 0 1.804-.247 2.23-.657l.058-.051a.75.75 0 0 1 .982 1.132l-.158.141c-.807.683-1.89.935-3.112.935-2.394 0-4.099-1.931-4.438-4H7a.75.75 0 0 1 0-1.5h.802c.123-.897.47-1.772 1.06-2.48.768-.923 1.917-1.52 3.388-1.52Zm9.5 7.813c0 .313-.04.616-.164.914-.124.297-.31.535-.524.749l-4.336 4.335a2.32 2.32 0 0 1-.763.53 2.32 2.32 0 0 1-.9.159H8.938c-.313 0-.616-.04-.914-.164a2.321 2.321 0 0 1-.749-.524L2.94 16.725a2.326 2.326 0 0 1-.53-.763 2.316 2.316 0 0 1-.159-.9V8.938c0-.313.04-.616.164-.914.124-.297.31-.535.524-.749l4.337-4.337c.222-.22.464-.406.762-.529.298-.122.598-.158.9-.158h6.127c.301 0 .6.036.899.158.299.123.541.31.763.53l4.335 4.336c.222.222.408.464.53.763.123.298.159.598.159.9v6.127Z"/>
</svg>
