<svg xmlns="http://www.w3.org/2000/svg" fill="none" viewBox="0 0 24 24">
  <path fill="currentColor" d="M14.85 13.8a.75.75 0 0 1 1.5 0 2.549 2.549 0 0 1-2.55 2.55.75.75 0 0 1 0-1.5 1.05 1.05 0 0 0 .97-.648 1.05 1.05 0 0 0 .08-.402Zm-7.2-3.6a2.55 2.55 0 0 1 2.55-2.55.75.75 0 0 1 0 1.5 1.052 1.052 0 0 0-.97.648c-.053.127-.08.264-.08.402a.75.75 0 0 1-1.5 0Zm7.2 0V9.15H13.8a.75.75 0 0 1 0-1.5h1.05V6a2.25 2.25 0 0 0-2.25-2.25H6A2.25 2.25 0 0 0 3.75 6v6.6A2.252 2.252 0 0 0 6 14.85h1.65V13.8a.75.75 0 0 1 1.5 0v1.05h1.05l.076.004a.75.75 0 0 1 0 1.492l-.076.004H9.15V18a2.25 2.25 0 0 0 2.25 2.25H18l.223-.01a2.25 2.25 0 0 0 2.016-2.017L20.25 18v-6.6A2.252 2.252 0 0 0 18 9.15h-1.65v1.05a.75.75 0 0 1-1.5 0Zm1.5-2.55H18a3.75 3.75 0 0 1 3.75 3.75V18A3.75 3.75 0 0 1 18 21.75h-6.6A3.752 3.752 0 0 1 7.65 18v-1.65H6a3.75 3.75 0 0 1-3.75-3.75V6A3.75 3.75 0 0 1 6 2.25h6.6A3.752 3.752 0 0 1 16.35 6v1.65Z"/>
</svg>
