<svg xmlns="http://www.w3.org/2000/svg" fill="none" viewBox="0 0 24 24">
  <path fill="currentColor" d="M20.47 2.47a.75.75 0 0 1 1.06 1.06l-3.008 3.008c1.61 1.193 2.8 2.608 3.534 3.614l.191.267c.151.218.28.434.376.723l.055.182.01.044a3.255 3.255 0 0 1-.01 1.306c-.134.514-.354.803-.623 1.172h.001C20.541 15.927 17.082 19.75 12 19.75c-2.007 0-3.76-.598-5.242-1.448L3.531 21.53a.75.75 0 0 1-1.06-1.06l3.006-3.008c-1.402-1.039-2.486-2.245-3.227-3.205l-.306-.41c-.27-.368-.487-.659-.621-1.171l-.011-.044a3.252 3.252 0 0 1 0-1.263l.01-.043c.135-.514.353-.805.623-1.174C3.46 8.072 6.919 4.25 12 4.25c2.007 0 3.76.598 5.242 1.447L20.47 2.47ZM13.25 12c0-.06-.006-.118-.014-.176l-1.411 1.411c.057.009.116.015.175.015A1.25 1.25 0 0 0 13.25 12ZM12 5.75c-4.311 0-7.38 3.276-8.843 5.286l-.001.002c-.265.362-.324.452-.376.645a1.75 1.75 0 0 0 0 .633c.052.193.11.284.376.648.739 1.014 1.886 2.35 3.394 3.425l3.05-3.05a2.748 2.748 0 0 1 3.74-3.74l2.796-2.796C14.928 6.17 13.544 5.75 12 5.75ZM10.75 12c0 .06.005.118.013.176l1.412-1.412A1.252 1.252 0 0 0 10.75 12Zm4 0a2.75 2.75 0 0 1-4.09 2.4l-2.796 2.796c1.208.632 2.592 1.054 4.136 1.054 4.312 0 7.38-3.276 8.844-5.286v-.002c.265-.363.323-.453.375-.646a1.747 1.747 0 0 0 0-.632c-.052-.193-.11-.284-.375-.648-.738-1.013-1.886-2.35-3.395-3.425l-3.05 3.05c.226.406.351.866.351 1.34Z"/>
</svg>
