<svg xmlns="http://www.w3.org/2000/svg" fill="none" viewBox="0 0 24 24">
  <path fill="currentColor" d="M12 4.25c5.082 0 8.542 3.823 10.056 5.902l.191.267c.151.218.28.434.376.723l.055.182.01.044a3.256 3.256 0 0 1-.01 1.306c-.134.514-.354.803-.623 1.172h.001C20.541 15.927 17.082 19.75 12 19.75c-4.764 0-8.103-3.36-9.75-5.493l-.306-.41c-.27-.368-.487-.659-.621-1.171l-.011-.044a3.252 3.252 0 0 1 0-1.263l.01-.043c.135-.514.353-.805.623-1.174C3.46 8.072 6.919 4.25 12 4.25Zm0 1.5c-4.311 0-7.38 3.276-8.843 5.286l-.001.002c-.265.362-.324.452-.376.645a1.75 1.75 0 0 0 0 .633c.052.193.11.284.376.648C4.62 14.975 7.69 18.25 12 18.25c4.312 0 7.38-3.276 8.844-5.286v-.002c.265-.363.323-.453.375-.647a1.747 1.747 0 0 0 0-.631c-.052-.193-.11-.284-.375-.648C19.381 9.027 16.312 5.75 12 5.75ZM13.25 12a1.25 1.25 0 1 0-2.5 0 1.25 1.25 0 0 0 2.5 0Zm1.5 0a2.75 2.75 0 1 1-5.5-.001 2.75 2.75 0 0 1 5.5.001Z"/>
</svg>
