<svg xmlns="http://www.w3.org/2000/svg" fill="none" viewBox="0 0 24 24">
  <path fill="currentColor" d="M14.736 2.25c.288.007.563.115.78.302l.089.085.08.092c.172.221.264.495.261.777l.001 8.85h3.57c1.158 0 1.595 1.386.884 2.13a.799.799 0 0 1-.037.035l-7.516 6.884h-.001a1.214 1.214 0 0 1-.361.244 1.217 1.217 0 0 1-1.334-.245l-7.515-6.883a.741.741 0 0 1-.035-.034c-.714-.743-.28-2.132.882-2.132h3.568v-8.85a1.245 1.245 0 0 1 .084-.46l.049-.11c.055-.11.126-.21.21-.3l.089-.083a1.244 1.244 0 0 1 .782-.302h5.47Zm-2.72 18.247-.016.036.027-.024-.011-.012Zm.01.012-.026.024.016-.036.01.012Zm-2.474-7.91c0 .66-.52 1.256-1.233 1.256H5.13L12 20.146l6.871-6.29H15.68l-.018-.002a1.246 1.246 0 0 1-1.215-1.272V3.75H9.552v8.849Z"/>
</svg>
