<svg xmlns="http://www.w3.org/2000/svg" fill="none" viewBox="0 0 24 24">
  <path fill="currentColor" d="M11.832 2.354a.75.75 0 0 1 .894.097l7.785 7.253a.75.75 0 0 1-.51 1.299h-4.066c-.194 2.749-1.34 5.12-3.42 7.083-2.252 2.125-5.054 3.339-8.365 3.66a.75.75 0 0 1-.536-1.337c2.793-2.188 4.198-4.003 4.516-5.437.31-1.393.39-2.714.251-3.968h-4.38a.75.75 0 0 1-.497-1.313l8.214-7.254.114-.083Zm-5.85 7.15h3.052l.134.012a.75.75 0 0 1 .606.61c.283 1.652.218 3.378-.18 5.17-.316 1.425-1.329 2.906-2.922 4.45a11.735 11.735 0 0 0 4.814-2.752c1.974-1.863 2.958-4.098 2.98-6.747l.005-.076a.75.75 0 0 1 .745-.668h2.879L12.2 4.013l-6.217 5.49Z"/>
</svg>
