<svg xmlns="http://www.w3.org/2000/svg" fill="none" viewBox="0 0 24 24">
  <path fill="currentColor" d="M15.43 3.25c.608.015 1.018.458 1.2.813.175.34.33 1.007-.167 1.504l-.007.007-2.595 2.533 6.51 6.51a1.26 1.26 0 0 1 .03 1.774l-.012.012-3.986 3.986v-.001c-.513.513-1.313.456-1.786-.017l-6.51-6.51-2.533 2.595-.007.007c-.497.496-1.163.341-1.505.167-.354-.182-.799-.592-.812-1.2V5.66c0-.278 0-.531.017-.742a1.83 1.83 0 0 1 .177-.691l.001-.002c.172-.336.445-.61.782-.78a1.8 1.8 0 0 1 .691-.178c.21-.018.465-.017.742-.017h9.77ZM4.75 15.152l2.466-2.524.02-.02a1.264 1.264 0 0 1 1.77.032l6.514 6.511 3.631-3.631-6.511-6.512a1.265 1.265 0 0 1-.03-1.774l.019-.018 2.524-2.466H5.66c-.302 0-.485 0-.62.012a.87.87 0 0 0-.118.015l-.015.004a.291.291 0 0 0-.126.123c.006-.01-.009.01-.02.136a8.661 8.661 0 0 0-.011.62v9.492Z"/>
</svg>
