<svg xmlns="http://www.w3.org/2000/svg" fill="none" viewBox="0 0 24 24">
  <path fill="currentColor" d="m3.853 12 6.292 6.87v-3.19c0-.715.597-1.233 1.256-1.233h8.849V9.552h-8.849a1.244 1.244 0 0 1-1.255-1.216l-.002-.017V5.13L3.854 12Zm17.897 2.715c0 .713-.596 1.232-1.256 1.232h-8.85v3.57c0 1.157-1.386 1.595-2.13.883a.753.753 0 0 1-.035-.036l-6.884-7.517A1.215 1.215 0 0 1 2.25 12a1.217 1.217 0 0 1 .346-.848l6.883-7.515a.76.76 0 0 1 .034-.036c.743-.713 2.132-.278 2.132.882v3.569h8.85c.115-.002.231.014.343.045l.116.039.111.048c.073.037.142.081.206.131l.093.08.084.088c.053.062.1.129.14.2l.056.109.044.114c.038.116.059.237.062.36v5.449Z"/>
</svg>
