<svg xmlns="http://www.w3.org/2000/svg" fill="none" viewBox="0 0 24 24">
  <path fill="currentColor" d="M13.48 3.299a.75.75 0 0 1 .829.205l7.254 8.214a.75.75 0 0 1-.014 1.008l-7.253 7.785A.75.75 0 0 1 12.997 20v-4.066c-2.749-.194-5.12-1.34-7.083-3.42-2.124-2.252-3.339-5.053-3.66-8.365a.75.75 0 0 1 1.337-.535C5.779 6.407 7.594 7.811 9.028 8.13c1.393.309 2.714.388 3.968.25V4a.75.75 0 0 1 .485-.701Zm1.016 5.735a.75.75 0 0 1-.623.74c-1.65.282-3.377.218-5.17-.18-1.424-.317-2.906-1.329-4.45-2.922a11.736 11.736 0 0 0 2.753 4.813c1.863 1.975 4.098 2.958 6.747 2.98a.75.75 0 0 1 .744.75v2.88l5.49-5.895-5.49-6.218v3.052Z"/>
</svg>
