<svg xmlns="http://www.w3.org/2000/svg" fill="none" viewBox="0 0 24 24">
  <path fill="currentColor" d="M19.25 5.66c0-.302 0-.484-.011-.62a.633.633 0 0 0-.02-.135.291.291 0 0 0-.127-.124.683.683 0 0 0-.132-.02 8.664 8.664 0 0 0-.62-.011H8.847l2.524 2.464.02.02a1.262 1.262 0 0 1-.031 1.77v.002l-6.512 6.512 3.633 3.632 6.511-6.51c.23-.235.543-.371.872-.38l.124.005c.248.018.486.11.682.262l.095.081.02.02 2.465 2.525V5.66Zm1.5 9.77c-.013.608-.457 1.018-.812 1.2-.341.174-1.007.33-1.505-.167l-.008-.007-2.533-2.596-6.498 6.497a1.262 1.262 0 0 1-1.784.042l-.013-.011-3.998-3.998a1.264 1.264 0 0 1-.349-.902l.01-.124a1.26 1.26 0 0 1 .37-.748l6.508-6.51-2.594-2.53-.008-.009c-.496-.497-.34-1.164-.166-1.505.182-.354.592-.799 1.2-.812h9.77c.278 0 .532 0 .742.017.22.017.458.058.693.178l-.001.001c.336.172.608.443.78.778l.002.003c.119.234.16.472.178.691.017.21.016.464.016.742v9.77Z"/>
</svg>
