<svg xmlns="http://www.w3.org/2000/svg" fill="none" viewBox="0 0 24 24">
  <path fill="currentColor" d="M21.75 12c0 .167-.034.332-.1.485a1.214 1.214 0 0 1-.246.362l-6.883 7.517a.799.799 0 0 1-.035.036c-.744.712-2.13.275-2.13-.883v-3.57h-8.85a1.245 1.245 0 0 1-1.256-1.212v-5.45c0-.714.596-1.233 1.256-1.233h8.85V4.483c0-1.088 1.22-1.537 1.985-1.002l.146.12.034.036 6.884 7.515c.074.076.137.16.189.251l.055.112.044.117c.038.119.057.243.057.368Zm-7.895-3.68c0 .713-.595 1.232-1.256 1.232H3.75v4.895h8.849a1.245 1.245 0 0 1 1.255 1.215l.002.018v3.19l6.29-6.87-6.29-6.87v3.19Z"/>
</svg>
