<svg xmlns="http://www.w3.org/2000/svg" fill="none" viewBox="0 0 24 24">
  <path fill="currentColor" d="M11.388 2.364a.75.75 0 0 1 .894.074l8.214 7.253A.75.75 0 0 1 20 11.004h-4.38c-.139 1.254-.059 2.575.25 3.968.319 1.434 1.723 3.25 4.516 5.437a.75.75 0 0 1-.535 1.337c-3.312-.321-6.113-1.535-8.366-3.66-2.08-1.962-3.226-4.334-3.42-7.083H4a.75.75 0 0 1-.51-1.299l7.784-7.253.114-.087ZM5.905 9.503h2.88l.075.004a.75.75 0 0 1 .674.74c.023 2.65 1.006 4.884 2.98 6.747a11.736 11.736 0 0 0 4.813 2.752c-1.593-1.543-2.604-3.025-2.92-4.449-.399-1.793-.463-3.52-.18-5.17a.75.75 0 0 1 .739-.623h3.052l-6.22-5.491-5.893 5.49Z"/>
</svg>
