<svg xmlns="http://www.w3.org/2000/svg" fill="none" viewBox="0 0 24 24">
  <path fill="currentColor" d="M19.85 2.254a.75.75 0 0 1 .536 1.337c-2.793 2.188-4.197 4.003-4.516 5.437-.309 1.393-.389 2.714-.25 3.968H20a.75.75 0 0 1 .496 1.313l-8.214 7.254a.75.75 0 0 1-1.008-.014L3.49 14.296A.75.75 0 0 1 4 12.997h4.066c.193-2.749 1.34-5.12 3.42-7.083 2.252-2.124 5.053-3.339 8.365-3.66Zm-2.525 2a11.736 11.736 0 0 0-4.81 2.752c-1.975 1.863-2.958 4.098-2.98 6.747a.75.75 0 0 1-.75.744h-2.88l5.894 5.49 6.219-5.49h-3.052a.75.75 0 0 1-.74-.624c-.282-1.65-.218-3.377.18-5.17.317-1.424 1.327-2.906 2.92-4.449Z"/>
</svg>
