<svg xmlns="http://www.w3.org/2000/svg" fill="none" viewBox="0 0 24 24">
  <path fill="currentColor" d="M5.13 10.145h3.207c.288.007.564.114.781.3l.09.085.08.093c.173.221.266.495.264.778v8.849h4.895v-8.849c-.003-.323.12-.636.344-.87l.09-.086c.217-.186.493-.293.781-.3h3.209l-6.87-6.292-6.871 6.292Zm10.817 10.35c0 .66-.519 1.255-1.232 1.255h-5.45a1.246 1.246 0 0 1-1.212-1.256l-.001-8.85H4.483c-1.16 0-1.594-1.388-.881-2.131l.035-.034 7.515-6.884a1.213 1.213 0 0 1 1.695 0l7.517 6.884a.755.755 0 0 1 .037.035c.711.744.274 2.13-.884 2.13h-3.57v8.85Z"/>
</svg>
