<svg xmlns="http://www.w3.org/2000/svg" fill="none" viewBox="0 0 24 24">
  <path fill="currentColor" d="M13.473 3.302a.75.75 0 0 1 .823.187l7.253 7.785a.75.75 0 0 1 .014 1.008l-7.254 8.214A.75.75 0 0 1 12.996 20v-4.38c-1.254-.139-2.575-.059-3.968.25-1.434.319-3.25 1.723-5.437 4.516a.75.75 0 0 1-1.337-.535c.321-3.312 1.536-6.113 3.66-8.366 1.962-2.08 4.334-3.226 7.083-3.42V4a.75.75 0 0 1 .476-.698ZM4.254 17.325c1.543-1.592 3.025-2.602 4.45-2.919 1.792-.398 3.518-.462 5.17-.18a.75.75 0 0 1 .622.74v3.05l5.49-6.217-5.489-5.895v2.88a.75.75 0 0 1-.744.75c-2.649.023-4.884 1.006-6.747 2.98a11.736 11.736 0 0 0-2.752 4.811Z"/>
</svg>
