<svg xmlns="http://www.w3.org/2000/svg" fill="none" viewBox="0 0 24 24">
  <path fill="currentColor" d="m19.25 8.846-2.465 2.526a1.263 1.263 0 0 1-1.792-.013L8.48 4.85 4.849 8.481l6.512 6.511c.473.473.53 1.275.015 1.788l-.005.005-2.524 2.465h9.493c.302 0 .485 0 .62-.011a.669.669 0 0 0 .131-.02.29.29 0 0 0 .128-.127.68.68 0 0 0 .02-.132c.01-.135.011-.317.011-.62V8.846Zm1.5 9.494c0 .278 0 .532-.016.742a1.83 1.83 0 0 1-.179.693v-.001a1.786 1.786 0 0 1-.781.78 1.81 1.81 0 0 1-.692.18c-.21.017-.464.016-.742.016H8.57c-.607-.015-1.017-.458-1.199-.812-.174-.34-.33-1.007.167-1.505l.007-.007 2.594-2.535-6.51-6.509h.001A1.262 1.262 0 0 1 3.6 7.61L7.61 3.6a1.27 1.27 0 0 1 .902-.349l.124.01c.283.035.545.165.746.37l.001-.002 6.51 6.509 2.533-2.594.008-.008c.498-.495 1.164-.34 1.505-.166.355.182.799.593.812 1.2v9.77Z"/>
</svg>
