<svg xmlns="http://www.w3.org/2000/svg" fill="none" viewBox="0 0 24 24">
  <path fill="currentColor" d="M9.691 3.504A.75.75 0 0 1 11.004 4v4.38c1.254.138 2.575.059 3.968-.25 1.434-.319 3.25-1.723 5.437-4.516a.75.75 0 0 1 1.337.535c-.321 3.312-1.535 6.113-3.66 8.366-1.962 2.08-4.334 3.225-7.083 3.419V20a.75.75 0 0 1-1.299.51l-7.253-7.785a.75.75 0 0 1-.013-1.007L9.69 3.504ZM4.013 12.2l5.49 5.895v-2.88a.75.75 0 0 1 .744-.75c2.65-.022 4.884-1.005 6.747-2.98a11.735 11.735 0 0 0 2.752-4.813c-1.543 1.593-3.024 2.605-4.45 2.922-1.792.398-3.518.462-5.169.18a.75.75 0 0 1-.623-.74V5.982L4.013 12.2Z"/>
</svg>
