<svg xmlns="http://www.w3.org/2000/svg" fill="none" viewBox="0 0 24 24">
  <path fill="currentColor" d="M4.15 2.254c3.311.321 6.113 1.536 8.365 3.66 2.08 1.962 3.226 4.334 3.42 7.083H20a.75.75 0 0 1 .511 1.299l-7.785 7.253a.75.75 0 0 1-1.008.014l-8.214-7.254A.75.75 0 0 1 4 12.996h4.381c.138-1.254.058-2.575-.25-3.968-.32-1.434-1.724-3.25-4.517-5.437a.75.75 0 0 1 .536-1.337Zm2.522 1.999c1.594 1.544 2.606 3.026 2.922 4.45.398 1.793.463 3.52.18 5.17a.75.75 0 0 1-.74.623H5.983l6.217 5.49 5.895-5.489h-2.879a.75.75 0 0 1-.75-.744c-.022-2.649-1.006-4.884-2.98-6.747a11.737 11.737 0 0 0-4.814-2.753Z"/>
</svg>
