<svg xmlns="http://www.w3.org/2000/svg" fill="none" viewBox="0 0 24 24">
  <path fill="currentColor" d="M9.704 3.49a.75.75 0 0 1 1.299.51v4.066c2.749.193 5.12 1.34 7.083 3.42 2.125 2.252 3.339 5.053 3.66 8.365a.75.75 0 0 1-1.337.535c-2.188-2.793-4.003-4.197-5.437-4.516-1.393-.309-2.714-.389-3.968-.25V20a.75.75 0 0 1-1.313.496l-7.253-8.214a.75.75 0 0 1 .013-1.008L9.704 3.49Zm-5.691 8.309 5.491 6.218v-3.051a.75.75 0 0 1 .623-.74c1.65-.282 3.377-.218 5.17.18 1.424.317 2.906 1.328 4.45 2.921a11.736 11.736 0 0 0-2.753-4.812c-1.863-1.975-4.098-2.958-6.747-2.98a.75.75 0 0 1-.744-.75v-2.88l-5.49 5.894Z"/>
</svg>
