<svg xmlns="http://www.w3.org/2000/svg" fill="none" viewBox="0 0 24 24">
  <path fill="currentColor" d="M15.614 3.254c.248.019.486.11.682.264l.095.08 3.998 3.999.011.013a1.263 1.263 0 0 1-.04 1.785l-.002-.001-6.497 6.497 2.595 2.535.006.007c.498.498.342 1.164.168 1.505-.182.354-.593.797-1.2.811l-.017.001H5.66c-.277 0-.531 0-.742-.016a2.007 2.007 0 0 1-.515-.103l-.176-.076a1.79 1.79 0 0 1-.782-.781l.001-.001a1.803 1.803 0 0 1-.18-.69c-.017-.21-.016-.464-.016-.743V8.57c.013-.608.458-1.018.813-1.2.34-.174 1.007-.33 1.504.166l.008.008 2.532 2.594 6.51-6.51c.23-.235.543-.37.872-.378l.125.004ZM4.75 18.34c0 .303 0 .486.012.621a.9.9 0 0 0 .015.118l.003.011.001.002c.028.055.073.1.127.127-.012-.006.005.01.132.02.135.01.318.011.62.011h9.493l-2.524-2.466-.019-.018a1.264 1.264 0 0 1-.348-.901l.008-.126c.035-.282.165-.546.37-.747l6.511-6.511-3.631-3.632-6.512 6.512c-.473.472-1.274.53-1.786.017l-.007-.006L4.75 8.847v9.493Z"/>
</svg>
