<svg xmlns="http://www.w3.org/2000/svg" fill="none" viewBox="0 0 24 24">
  <path fill="currentColor" d="M4.5 18.75V5.25a3 3 0 0 1 3-3h2.228c1.093 0 2.245.393 3.328.987 1.09.599 2.158 1.428 3.097 2.367.94.94 1.767 2.008 2.364 3.093.591 1.077.983 2.221.983 3.303v6.75a3 3 0 0 1-3 3h-9a3 3 0 0 1-3-3Zm6.75-1.25v-1.25H10a.75.75 0 0 1 0-1.5h1.25V13.5a.75.75 0 0 1 1.5 0v1.25H14a.75.75 0 0 1 0 1.5h-1.25v1.25a.75.75 0 0 1-1.5 0ZM6 18.75a1.5 1.5 0 0 0 1.5 1.5h9l.148-.008A1.5 1.5 0 0 0 18 18.75V12a1.5 1.5 0 0 0-1.5-1.5h-2.25a3 3 0 0 1-3-3V5.25c0-.768-.601-1.415-1.367-1.492l-.155-.008H7.5A1.5 1.5 0 0 0 6 5.25v13.5ZM12.75 7.5a1.5 1.5 0 0 0 1.5 1.5h2.25c.163 0 .324.016.482.042a12.942 12.942 0 0 0-1.89-2.377 12.926 12.926 0 0 0-2.381-1.894c.025.156.039.316.039.479V7.5Z"/>
</svg>
