<svg xmlns="http://www.w3.org/2000/svg" fill="none" viewBox="0 0 24 24">
  <path fill="currentColor" d="M7.5 2.25a3 3 0 0 0-3 3v13.5a3 3 0 0 0 3 3h9a3 3 0 0 0 3-3V12c0-1.082-.392-2.226-.983-3.303-.597-1.086-1.424-2.153-2.364-3.092-.94-.939-2.008-1.77-3.098-2.368-1.082-.594-2.234-.987-3.327-.987H7.5Zm7.592 4.415c.72.715 1.355 1.511 1.89 2.373A3.001 3.001 0 0 0 16.5 9h-2.25a1.5 1.5 0 0 1-1.5-1.5V5.25c0-.163-.013-.323-.039-.48.822.5 1.64 1.154 2.381 1.895ZM12 12.75a.75.75 0 0 1 .75.75v1.25H14a.75.75 0 1 1 0 1.5h-1.25v1.25a.75.75 0 1 1-1.5 0v-1.25H10a.75.75 0 1 1 0-1.5h1.25V13.5a.75.75 0 0 1 .75-.75Z"/>
</svg>
