<svg xmlns="http://www.w3.org/2000/svg" fill="none" viewBox="0 0 24 24">
  <path fill="currentColor" d="M7.5 2.25h2.228c1.093 0 2.245.393 3.327.987 1.09.598 2.159 1.428 3.098 2.368.939.94 1.767 2.006 2.364 3.092.591 1.077.983 2.221.983 3.303v6.75a3 3 0 0 1-3 3h-9a3 3 0 0 1-3-3V5.25a3 3 0 0 1 3-3Zm7.592 4.415a13 13 0 0 0-2.38-1.894c.025.156.038.316.038.479V7.5a1.5 1.5 0 0 0 1.5 1.5h2.25c.164 0 .324.013.481.038a12.999 12.999 0 0 0-1.889-2.373ZM9 12.75a.75.75 0 1 0 0 1.5h4a.75.75 0 1 0 0-1.5H9Zm0 3a.75.75 0 1 0 0 1.5h6a.75.75 0 1 0 0-1.5H9Z"/>
</svg>
