<svg xmlns="http://www.w3.org/2000/svg" fill="none" viewBox="0 0 24 24">
  <path fill="currentColor" d="M12 2.25c2.1 0 3.75-.001 5.037.172 1.309.176 2.353.544 3.175 1.366.822.822 1.19 1.866 1.366 3.175.012.09.02.182.031.275a.747.747 0 0 1 .042.235.77.77 0 0 1-.007.096c.105 1.188.106 2.647.106 4.431 0 1.765-.001 3.213-.104 4.395a.743.743 0 0 1-.027.28c-.013.123-.025.244-.04.362-.177 1.309-.546 2.353-1.367 3.175-.822.822-1.866 1.19-3.175 1.366-1.287.173-2.937.172-5.037.172s-3.75.001-5.037-.172c-1.309-.176-2.353-.544-3.175-1.366-.822-.822-1.19-1.866-1.366-3.175C2.249 15.75 2.25 14.1 2.25 12s-.001-3.751.172-5.038c.176-1.308.545-2.352 1.366-3.174.822-.822 1.866-1.19 3.175-1.366C8.25 2.249 9.9 2.25 12 2.25ZM8.15 16.453l.001.02v3.712c1.014.063 2.264.065 3.849.065 1.482 0 2.672-.002 3.65-.055V12.75h-7.5v3.703Zm9 3.589c.956-.163 1.552-.441 2.001-.89.438-.439.715-1.015.88-1.93h-2.88v2.82Zm-13.18-2.82c.165.915.442 1.491.88 1.93.417.416.96.686 1.801.853v-2.782H3.97Zm13.181-1.5h3.041c.047-.822.056-1.796.057-2.972H17.15v2.973ZM3.752 12.75c.002 1.176.01 2.15.057 2.973H6.65V12.75H3.752Zm13.398-1.5h3.098c-.002-1.202-.01-2.193-.06-3.027H17.15v3.027ZM12 3.75c-1.585 0-2.835 0-3.85.064v3.64l.001.019v3.777h7.5V3.804c-.98-.054-2.17-.054-3.651-.054ZM3.812 8.223c-.05.834-.058 1.825-.06 3.027H6.65V8.223H3.812Zm13.338-1.5h2.87c-.165-.883-.44-1.445-.869-1.874-.449-.45-1.045-.729-2-.892v2.766ZM6.65 3.994c-.84.167-1.384.437-1.801.855-.43.429-.704.991-.87 1.874H6.65V3.994Z"/>
</svg>
