<svg xmlns="http://www.w3.org/2000/svg" fill="none" viewBox="0 0 24 24">
  <path fill="currentColor" d="M9.296 13.758c0-.58-.003-.778-.037-.962a2.258 2.258 0 0 0-.163-.51c-.079-.17-.19-.333-.526-.806L5.323 6.9c-.274-.386-.51-.717-.672-.995-.156-.27-.316-.608-.301-.996v-.002a1.732 1.732 0 0 1 .67-1.298h.001c.308-.237.677-.302.988-.33.32-.03.727-.029 1.201-.029h9.581c.474 0 .881 0 1.201.028.31.029.68.094.988.331l-.002.001a1.72 1.72 0 0 1 .672 1.296c.017.39-.144.73-.3 1-.162.277-.399.61-.672.995L15.43 11.48c-.336.474-.447.638-.526.807a2.253 2.253 0 0 0-.165.51h.001c-.034.184-.037.38-.037.963v5.87l-.008.105a.75.75 0 0 1-.402.565c-.99.504-2.203.607-3.204.202-1.053-.426-1.806-1.395-1.793-2.814l-.001-.011v-3.918Zm3.054 4.476c-.418-.162-.963-.178-1.5-.043.118.485.426.767.802.92.423.17.97.186 1.497.033a1.34 1.34 0 0 0-.191-.448 1.273 1.273 0 0 0-.608-.462Zm-1.554-1.564c.705-.126 1.443-.088 2.097.166.106.041.21.088.311.142v-3.22c0-.528-.003-.886.063-1.237v-.003a3.75 3.75 0 0 1 .275-.859l.001-.002c.15-.324.36-.615.664-1.045l3.247-4.578.363-.518c.099-.144.175-.261.235-.364a1.12 1.12 0 0 0 .097-.199.222.222 0 0 0-.022-.08.22.22 0 0 0-.053-.065 1.145 1.145 0 0 0-.219-.036c-.235-.021-.56-.022-1.064-.022H7.21c-.504 0-.83.001-1.064.022a1.205 1.205 0 0 0-.22.035.23.23 0 0 0-.075.145 1.1 1.1 0 0 0 .097.2c.06.102.136.22.235.363l.364.518 3.246 4.578c.306.432.515.722.665 1.046l.001.003c.094.205.17.418.225.637l.048.22.001.004c.066.351.063.71.063 1.237v2.912Z"/>
</svg>
