<svg xmlns="http://www.w3.org/2000/svg" fill="none" viewBox="0 0 24 24">
  <path fill="currentColor" d="M20.25 15.5a1.25 1.25 0 1 0-2.5 0 1.25 1.25 0 0 0 2.5 0ZM14 14.75a.75.75 0 0 1 0 1.5H3a.75.75 0 0 1 0-1.5h11ZM6.244 8.376a1.25 1.25 0 0 0-1.12-1.12L5 7.25A1.25 1.25 0 0 0 3.75 8.5l.006.124A1.25 1.25 0 0 0 6.25 8.5l-.006-.124ZM21 7.75a.75.75 0 0 1 0 1.5H10a.75.75 0 0 1 0-1.5h11Zm.75 7.75a2.75 2.75 0 1 1-5.499 0 2.75 2.75 0 0 1 5.499 0ZM7.736 8.771a2.75 2.75 0 0 1-5.472 0L2.25 8.5A2.75 2.75 0 0 1 5 5.75l.271.014A2.75 2.75 0 0 1 7.75 8.5l-.014.271Z"/>
</svg>
