<svg xmlns="http://www.w3.org/2000/svg" fill="none" viewBox="0 0 24 24">
  <path fill="currentColor" d="M7.9 2.495a.75.75 0 0 1 .855-.182c2.677 1.17 3.983 3.499 4.618 5.442.184.564.311 1.103.404 1.585l.105-.126c.843-.996 2.13-2.206 3.877-2.997l.073-.028a.75.75 0 0 1 .946.47c.504 1.482 1.137 3.142 1.474 4.78.34 1.655.405 3.39-.29 5.052a8.56 8.56 0 0 1-7.586 5.253l-.316.006c-4.726 0-8.56-3.827-8.56-8.55 0-4.574 1.806-6.55 4.318-10.595l.082-.11ZM6.25 13a.75.75 0 0 1 1.5 0A4.25 4.25 0 0 0 12 17.25a.75.75 0 0 1 0 1.5A5.75 5.75 0 0 1 6.25 13ZM5 13.2c0 3.893 3.16 7.05 7.06 7.05a7.063 7.063 0 0 0 6.518-4.337c.533-1.274.513-2.67.204-4.172-.257-1.25-.697-2.504-1.14-3.779-1.121.648-1.993 1.486-2.616 2.22-.374.443-.653.841-.838 1.127a7.718 7.718 0 0 0-.25.417l-.01.018-.002.001a.75.75 0 0 1-1.405-.217l-.01-.128v-.01l-.001-.042a10.546 10.546 0 0 0-.068-.875 11.946 11.946 0 0 0-.495-2.252c-.513-1.57-1.464-3.25-3.222-4.245C6.335 7.76 5 9.35 5 13.2Z"/>
</svg>
