<svg xmlns="http://www.w3.org/2000/svg" fill="none" viewBox="0 0 24 24">
  <path fill="currentColor" d="M20.25 9.4c0-1.132 0-1.937-.052-2.566-.044-.543-.124-.905-.247-1.191l-.056-.119A3.25 3.25 0 0 0 18.7 4.23l-.223-.125c-.305-.155-.69-.252-1.31-.302-.63-.052-1.434-.052-2.566-.052H9.4c-1.132 0-1.937 0-2.566.052-.543.044-.905.124-1.191.247l-.119.055A3.25 3.25 0 0 0 4.23 5.301l-.125.223c-.155.305-.252.69-.302 1.31-.052.63-.052 1.434-.052 2.566v5.2c0 1.132 0 1.937.052 2.566.05.62.147 1.005.302 1.31l.125.223c.313.51.76.924 1.295 1.196l.119.056c.286.123.648.203 1.191.247.63.052 1.434.052 2.566.052h5.2c1.132 0 1.937 0 2.566-.052.62-.05 1.005-.147 1.31-.303l.223-.125a3.25 3.25 0 0 0 1.196-1.294l.056-.119c.123-.286.203-.648.247-1.191.052-.63.052-1.434.052-2.566V9.4Zm-11.5 4.474a.75.75 0 0 1 1.5 0c0 .465.192.78.483 1.001.314.236.77.377 1.264.375.495-.002.953-.145 1.269-.384.294-.223.484-.539.484-.992v-1.12c0-.53-.546-1.152-1.472-1.152H9.5a.75.75 0 0 1-.75-.75V8a.75.75 0 0 1 .897-.735h.003l.017.004.074.013a13.915 13.915 0 0 0 1.312.157c.844.06 1.878.055 2.765-.167a.75.75 0 0 1 .364 1.456c-1.113.278-2.329.272-3.236.208a15.36 15.36 0 0 1-.696-.068v1.234h2.028c1.528 0 2.972 1.083 2.972 2.652v1.12c0 .955-.436 1.701-1.078 2.187-.622.471-1.414.686-2.17.689-.754.003-1.549-.206-2.173-.678-.646-.487-1.079-1.237-1.079-2.198Zm13 .726c0 1.107 0 1.984-.057 2.688-.058.713-.18 1.317-.46 1.868a4.751 4.751 0 0 1-2.077 2.076c-.551.281-1.155.403-1.868.461-.704.058-1.58.057-2.688.057H9.4c-1.107 0-1.983 0-2.688-.057-.713-.058-1.317-.18-1.868-.46a4.752 4.752 0 0 1-2.076-2.077c-.281-.551-.403-1.155-.461-1.868-.058-.704-.057-1.58-.057-2.688V9.4c0-1.107 0-1.983.057-2.688.058-.713.18-1.317.46-1.868a4.752 4.752 0 0 1 2.077-2.076c.551-.281 1.155-.403 1.868-.461.705-.058 1.58-.057 2.688-.057h5.2c1.107 0 1.984 0 2.688.057.713.058 1.317.18 1.868.46a4.752 4.752 0 0 1 2.076 2.077c.281.551.403 1.155.461 1.868.058.705.057 1.58.057 2.688v5.2Z"/>
</svg>
