<svg xmlns="http://www.w3.org/2000/svg" fill="none" viewBox="0 0 24 24">
  <path fill="currentColor" d="M8 14.342a.75.75 0 0 1 1.5 0c0 .643.27 1.093.679 1.401.43.325 1.042.51 1.693.507.65-.002 1.266-.19 1.698-.518.412-.313.68-.76.68-1.39v-1.399c0-.793-.794-1.627-2.027-1.627H8.75a.75.75 0 0 1-.75-.75V7l.005-.084a.75.75 0 0 1 .892-.651h.005l.023.005.094.017a17.597 17.597 0 0 0 1.66.2c1.062.075 2.377.07 3.514-.215a.75.75 0 0 1 .364 1.456c-1.363.34-2.86.335-3.986.254-.405-.029-.77-.07-1.071-.109v1.943h2.723c1.834 0 3.527 1.295 3.527 3.127v1.399c0 1.131-.514 2.01-1.273 2.585-.74.56-1.688.82-2.6.823-.91.003-1.861-.25-2.603-.81C8.511 16.364 8 15.482 8 14.343Z"/>
</svg>
