<svg xmlns="http://www.w3.org/2000/svg" fill="none" viewBox="0 0 24 24">
  <path fill="currentColor" d="M7.275 2.938c.22-.22.463-.408.762-.53a2.3 2.3 0 0 1 .9-.158h6.126c.302 0 .602.036.9.158.298.122.54.31.762.53l4.337 4.337c.22.221.408.463.53.762.123.298.158.598.158.9v6.126c0 .313-.04.616-.163.914a2.3 2.3 0 0 1-.525.748l-4.337 4.337a2.3 2.3 0 0 1-.762.53 2.301 2.301 0 0 1-.9.158H8.937c-.313 0-.616-.039-.914-.163a2.301 2.301 0 0 1-.748-.525l-4.337-4.337a2.302 2.302 0 0 1-.53-.762 2.3 2.3 0 0 1-.158-.9V8.937c0-.313.039-.616.163-.914a2.3 2.3 0 0 1 .525-.748l4.337-4.337Zm1.75 4.482A.75.75 0 0 0 8.75 8v2.852a.75.75 0 0 0 .75.75h2.778c.927 0 1.472.621 1.472 1.152v1.12c0 .453-.19.768-.484.992-.316.24-.774.382-1.27.384-.494.002-.95-.139-1.263-.375-.292-.22-.483-.537-.483-1a.75.75 0 1 0-1.5 0c0 .96.434 1.71 1.08 2.197.624.471 1.417.68 2.173.678.755-.003 1.547-.218 2.169-.689a2.67 2.67 0 0 0 1.078-2.187v-1.12c0-1.57-1.444-2.652-2.972-2.652H10.25V8.87c.206.024.44.047.697.066.906.064 2.123.07 3.235-.208a.75.75 0 1 0-.364-1.456c-.75.188-1.601.22-2.356.19a13.003 13.003 0 0 1-1.795-.194.77.77 0 0 0-.642.152Z"/>
</svg>
