<svg xmlns="http://www.w3.org/2000/svg" fill="none" viewBox="0 0 24 24">
  <path fill="currentColor" d="M20.25 12a8.25 8.25 0 1 0-16.5-.001 8.25 8.25 0 0 0 16.5.001Zm-11.5 1.874a.75.75 0 0 1 1.5 0c0 .465.192.78.483 1.001.314.236.77.377 1.264.375.495-.002.953-.145 1.269-.384.294-.223.484-.539.484-.992v-1.12c0-.53-.546-1.152-1.472-1.152H9.5a.75.75 0 0 1-.75-.75V8a.75.75 0 0 1 .897-.735h.003l.017.004.074.013a13.918 13.918 0 0 0 1.312.157c.844.06 1.878.055 2.765-.167a.75.75 0 0 1 .364 1.456c-1.113.278-2.329.272-3.236.208-.255-.019-.49-.044-.696-.068v1.234h2.028c1.528 0 2.972 1.083 2.972 2.652v1.12c0 .955-.436 1.701-1.078 2.187-.622.471-1.414.686-2.17.689-.754.003-1.549-.206-2.173-.678-.646-.487-1.079-1.237-1.079-2.198Zm13-1.874a9.75 9.75 0 1 1-19.502 0 9.75 9.75 0 0 1 19.502 0Z"/>
</svg>
