<svg xmlns="http://www.w3.org/2000/svg" fill="none" viewBox="0 0 24 24">
  <path fill="currentColor" d="M21.25 12a1.66 1.66 0 0 0-.377-1.053l-.11-.122-7.589-7.588a1.66 1.66 0 0 0-2.348 0l-7.588 7.588a1.664 1.664 0 0 0-.001 2.35l7.589 7.588.12.11a1.663 1.663 0 0 0 1.69.25c.202-.083.384-.206.538-.36l7.59-7.588A1.663 1.663 0 0 0 21.25 12Zm-12.5 1.874a.75.75 0 0 1 1.5 0c0 .465.191.781.483 1.001.313.237.77.377 1.265.375.494-.001.953-.146 1.268-.384a1.18 1.18 0 0 0 .485-.992v-1.12c0-.53-.547-1.152-1.473-1.152H9.5a.75.75 0 0 1-.75-.75V8a.75.75 0 0 1 .897-.735h.004l.016.004.075.012a13.925 13.925 0 0 0 1.312.158c.842.06 1.876.056 2.764-.166l.076-.016a.75.75 0 0 1 .288 1.47l-.42.092c-.991.184-2.022.173-2.815.117a13.86 13.86 0 0 1-.696-.068v1.234h2.027c1.527 0 2.973 1.083 2.973 2.652v1.12c0 .956-.437 1.701-1.08 2.188-.621.47-1.413.686-2.169.688-.755.003-1.548-.206-2.172-.677-.646-.488-1.08-1.238-1.08-2.199Zm14-1.874a3.16 3.16 0 0 1-.926 2.236l-7.588 7.587a3.16 3.16 0 0 1-4.472 0l-7.587-7.587a3.16 3.16 0 0 1-.107-4.359l.107-.113 7.587-7.587.113-.107a3.16 3.16 0 0 1 4.359.107l7.587 7.587A3.166 3.166 0 0 1 22.75 12Z"/>
</svg>
