<svg xmlns="http://www.w3.org/2000/svg" fill="none" viewBox="0 0 24 24">
  <path fill="currentColor" d="M12 1.75c.463 0 .916.124 1.316.355h.001l6.613 3.8.006.003a2.661 2.661 0 0 1 1.314 2.291v7.6l-.005.173a2.652 2.652 0 0 1-1.311 2.123l-.004.001-6.613 3.8a2.628 2.628 0 0 1-2.634 0l-6.613-3.8-.006-.003a2.659 2.659 0 0 1-1.314-2.29V8.2a2.65 2.65 0 0 1 1.316-2.293l.004-.002 6.613-3.8c.4-.233.854-.354 1.317-.354Zm0 1.5c-.2 0-.395.053-.567.153l-.003.002-6.61 3.797h.001a1.151 1.151 0 0 0-.571.997V15.8l.01.15a1.16 1.16 0 0 0 .563.849l6.607 3.797.003.001a1.13 1.13 0 0 0 1.134 0l.003-.002 6.609-3.797.125-.084a1.15 1.15 0 0 0 .446-.912V8.2a1.16 1.16 0 0 0-.573-1L12.57 3.406l-.003-.002A1.13 1.13 0 0 0 12 3.251ZM8.75 13.875a.75.75 0 0 1 1.5 0c0 .464.192.78.483 1 .314.237.77.377 1.264.376.495-.002.953-.145 1.269-.384.294-.223.484-.539.484-.992v-1.12c0-.53-.546-1.152-1.472-1.152H9.5a.75.75 0 0 1-.75-.75V8a.75.75 0 0 1 .897-.736l.003.001.017.003.074.014c.066.012.165.027.29.046.251.037.607.082 1.023.111.843.06 1.877.055 2.764-.167a.75.75 0 0 1 .364 1.455c-1.113.278-2.329.273-3.236.208a15.36 15.36 0 0 1-.696-.067v1.234h2.028c1.528 0 2.972 1.083 2.972 2.652v1.12c0 .955-.436 1.702-1.078 2.188-.622.471-1.414.685-2.17.688-.754.002-1.549-.207-2.173-.678-.646-.487-1.079-1.237-1.079-2.198Z"/>
</svg>
