<svg xmlns="http://www.w3.org/2000/svg" fill="none" viewBox="0 0 24 24">
  <path fill="currentColor" d="M20.25 8.937a.85.85 0 0 0-.046-.33.846.846 0 0 0-.203-.272l-4.336-4.336a.846.846 0 0 0-.271-.203.851.851 0 0 0-.33-.046H8.936a.85.85 0 0 0-.33.046.859.859 0 0 0-.272.204l-.001-.001-4.335 4.336a.852.852 0 0 0-.201.267.849.849 0 0 0-.048.335v6.127c0 .183.022.271.046.329.023.057.07.138.204.272l4.335 4.336a.85.85 0 0 0 .267.201.846.846 0 0 0 .335.048h6.127a.85.85 0 0 0 .33-.046.846.846 0 0 0 .271-.203L20 15.665a.85.85 0 0 0 .201-.267.845.845 0 0 0 .048-.335V8.938Zm-11.5 4.937a.75.75 0 0 1 1.5 0c0 .465.192.78.483 1.001.314.236.77.377 1.264.375.495-.002.953-.145 1.269-.384.294-.223.484-.539.484-.992v-1.12c0-.53-.546-1.152-1.472-1.152H9.5a.75.75 0 0 1-.75-.75V8a.75.75 0 0 1 .897-.735h.003l.017.004.074.013a13.918 13.918 0 0 0 1.312.157c.844.06 1.878.055 2.765-.167a.75.75 0 0 1 .364 1.456c-1.113.278-2.329.272-3.236.208-.255-.019-.49-.044-.696-.068v1.234h2.028c1.528 0 2.972 1.083 2.972 2.652v1.12c0 .955-.436 1.701-1.078 2.187-.622.471-1.414.686-2.17.689-.754.003-1.549-.206-2.173-.678-.646-.487-1.079-1.237-1.079-2.198Zm13 1.19c0 .312-.04.615-.164.913-.124.297-.31.535-.524.749l-4.336 4.335a2.32 2.32 0 0 1-.763.53 2.32 2.32 0 0 1-.9.159H8.938c-.313 0-.616-.04-.914-.164a2.321 2.321 0 0 1-.749-.524L2.94 16.725a2.326 2.326 0 0 1-.53-.763 2.316 2.316 0 0 1-.159-.9V8.938c0-.313.04-.616.164-.914.124-.297.31-.535.524-.749l4.337-4.337c.222-.22.464-.406.762-.529.298-.122.598-.158.9-.158h6.127c.301 0 .6.036.899.158.299.123.541.31.763.53l4.335 4.336c.222.222.408.464.53.763.123.298.159.598.159.9v6.127Z"/>
</svg>
