<svg xmlns="http://www.w3.org/2000/svg" fill="none" viewBox="0 0 24 24">
  <path fill="currentColor" d="M3.25 21V4.313a.75.75 0 0 1 .288-.59c1.61-1.26 3.168-1.598 4.679-1.435 1.457.157 2.84.782 4.089 1.34 1.296.58 2.459 1.092 3.638 1.22 1.126.12 2.294-.11 3.594-1.126a.75.75 0 0 1 1.212.591v11.374a.75.75 0 0 1-.288.59c-1.61 1.26-3.168 1.598-4.679 1.435-1.457-.157-2.84-.782-4.089-1.34-1.296-.58-2.459-1.092-3.638-1.22-1.042-.111-2.12.077-3.306.912V21a.75.75 0 0 1-1.5 0ZM8.056 3.779c-1.042-.113-2.12.076-3.306.91v9.621a5.953 5.953 0 0 1 3.467-.648c1.457.157 2.84.782 4.089 1.34 1.296.58 2.459 1.092 3.638 1.22 1.042.111 2.12-.078 3.306-.913V5.69a5.951 5.951 0 0 1-3.467.65c-1.457-.158-2.84-.783-4.089-1.341-1.296-.58-2.459-1.092-3.638-1.22Z"/>
</svg>
