<svg xmlns="http://www.w3.org/2000/svg" fill="none" viewBox="0 0 24 24">
  <path fill="currentColor" d="M18.843 15.36a.75.75 0 0 1 .314 1.466 53.511 53.511 0 0 0-4.921 1.306 64.59 64.59 0 0 1 4.25 1.873l.85.417.067.038a.75.75 0 0 1-.739 1.304 62.465 62.465 0 0 0-6.662-2.875 62.608 62.608 0 0 0-6.667 2.875.75.75 0 1 1-.67-1.342 65.383 65.383 0 0 1 5.104-2.29 53.92 53.92 0 0 0-4.024-1.104l-.902-.202-.074-.02a.75.75 0 0 1 .312-1.458l.076.011.928.208a56.088 56.088 0 0 1 5.916 1.73 55.743 55.743 0 0 1 6.842-1.938ZM10.038 1.855c.269-.1.563-.137.864-.078.3.06.561.203.783.394.425.365.75.941 1.015 1.637h.001c.076.2.168.523.242.755.086.272.176.517.277.706.05.093.09.15.118.182.015-.008.036-.015.058-.03.52-.353 1.043-.566 1.56-.596.765-.044 1.374.297 1.807.798.413.478.677 1.109.845 1.74.334 1.264.345 2.788.127 3.876-.57 2.847-3.168 4.339-5.464 4.57l-.221.019c-2.796.186-5.362-1.746-5.74-4.589-.294-2.21.556-4.687 1.386-6.465.338-.722.69-1.348 1.055-1.835.353-.47.778-.893 1.287-1.084Zm.568 1.394a.165.165 0 0 0-.041.01c-.11.042-.322.19-.614.58-.28.373-.582.899-.895 1.57-.804 1.722-1.493 3.867-1.259 5.632.267 2.007 2.091 3.428 4.153 3.29l.36-.036c1.8-.244 3.569-1.42 3.955-3.35.174-.874.166-2.165-.108-3.198-.136-.516-.322-.904-.529-1.144-.187-.216-.369-.293-.585-.28-.166.01-.43.086-.805.34-.448.303-.972.423-1.479.196-.437-.195-.702-.583-.861-.88a5.759 5.759 0 0 1-.385-.96c-.105-.329-.157-.526-.214-.675-.233-.61-.448-.91-.593-1.035a.374.374 0 0 0-.093-.06h-.007Zm1.03 3.812c.21.042.383.141.519.258.253.218.415.53.53.831l.05.11c.121.218.299.206.924.464.32.131.741.365.975.884.215.478.207 1.062.071 1.742-.285 1.43-1.602 2.11-2.662 2.184l-.008.001c-.736.049-1.37-.12-1.851-.528-.472-.4-.701-.947-.795-1.476-.183-1.03.101-2.22.477-3.027l.109-.223a4.11 4.11 0 0 1 .358-.586c.159-.211.392-.46.714-.582.175-.066.378-.093.59-.052Zm-.41 2.078c-.292.625-.472 1.495-.36 2.13.054.303.162.488.287.593.115.098.335.207.783.177l.117-.013c.583-.079 1.078-.452 1.182-.97.114-.572.054-.78.03-.832-.004-.01-.007-.044-.176-.114-.248-.102-1.253-.284-1.725-1.243a4.83 4.83 0 0 0-.138.272Z"/>
</svg>
