<svg xmlns="http://www.w3.org/2000/svg" fill="none" viewBox="0 0 24 24">
  <path fill="currentColor" d="M18.919 15.347a.75.75 0 0 1 .312 1.459l-.074.02c-1.66.358-3.304.793-4.923 1.306a64.969 64.969 0 0 1 4.252 1.872l.849.418.067.037a.75.75 0 0 1-.667 1.335l-.07-.03-.831-.41A61.986 61.986 0 0 0 12 18.89a61.982 61.982 0 0 0-5.836 2.467l-.83.408a.75.75 0 0 1-.67-1.342l.848-.417a64.963 64.963 0 0 1 4.254-1.873 53.997 53.997 0 0 0-4.022-1.105l-.902-.2-.075-.021a.75.75 0 0 1 .313-1.46l.076.013.928.207A56.005 56.005 0 0 1 12 17.296a55.98 55.98 0 0 1 6.842-1.937l.077-.012Zm-8.881-13.49c.268-.101.562-.138.864-.079.3.06.56.204.783.395.424.366.75.941 1.015 1.637l.122.365.12.39c.087.271.176.516.278.706.05.093.09.149.118.181.014-.008.035-.015.057-.03l.195-.126c.455-.277.912-.444 1.367-.47l.14-.004c.7.004 1.26.332 1.666.802.413.478.677 1.109.844 1.74.293 1.106.338 2.41.199 3.449l-.07.426c-.57 2.849-3.17 4.34-5.466 4.573l-.22.018c-2.71.18-5.202-1.629-5.7-4.327l-.041-.264c-.293-2.21.557-4.684 1.387-6.464l.256-.523a8.88 8.88 0 0 1 .799-1.313c.353-.47.778-.892 1.287-1.083m.567 1.393a.199.199 0 0 0-.04.01c-.11.042-.322.19-.614.58a7.73 7.73 0 0 0-.663 1.094l-.232.476c-.805 1.723-1.494 3.866-1.26 5.632l.03.187c.352 1.907 2.126 3.237 4.124 3.104l.36-.036c1.8-.245 3.568-1.42 3.955-3.352l.056-.345c.112-.847.075-1.948-.164-2.852-.137-.516-.323-.904-.53-1.143-.163-.19-.323-.272-.505-.282h-.08c-.144.008-.364.067-.67.253l-.136.088c-.447.303-.97.423-1.477.196-.437-.195-.701-.583-.86-.88a5.997 5.997 0 0 1-.385-.96l-.214-.675c-.234-.611-.45-.91-.594-1.035a.401.401 0 0 0-.071-.05l-.03-.01Zm1.032 3.813c.209.04.382.14.518.256.254.218.415.53.53.832l.05.109c.12.218.299.207.925.465.32.131.74.365.974.884.188.418.206.917.117 1.492l-.045.25c-.27 1.344-1.45 2.026-2.47 2.165l-.2.02c-.737.05-1.372-.12-1.854-.528-.47-.4-.7-.948-.793-1.477-.183-1.03.102-2.22.478-3.026l.108-.223a3.95 3.95 0 0 1 .358-.587c.159-.211.392-.46.715-.582a1.1 1.1 0 0 1 .589-.05Z"/>
</svg>
