<svg xmlns="http://www.w3.org/2000/svg" fill="none" viewBox="0 0 24 24">
  <path fill="currentColor" d="M8.236 3.003a.75.75 0 0 1 .873-.186c2.504 1.144 3.629 3.827 4.148 6.002.113.476.2.939.266 1.372.778-1.31 1.986-2.904 3.636-3.686l.074-.03a.75.75 0 0 1 .96.476c.456 1.4 1.028 2.97 1.332 4.518.308 1.563.367 3.204-.261 4.778-1.168 2.92-3.945 5.003-7.21 5.003-4.34 0-7.804-3.665-7.804-8.117 0-4.323 1.635-6.196 3.903-10.016l.083-.114ZM5.75 13.133c0 3.686 2.852 6.617 6.304 6.617 2.6 0 4.856-1.66 5.816-4.06.48-1.2.463-2.514.184-3.932-.225-1.142-.604-2.287-.991-3.45-.918.673-1.686 1.692-2.27 2.682a15.342 15.342 0 0 0-1.021 2.09l-.05.131-.012.031-.003.007a.751.751 0 0 1-1.457-.263v-.014l.001-.056c0-.05 0-.127-.003-.226a17.274 17.274 0 0 0-.45-3.521c-.441-1.85-1.263-3.689-2.732-4.664-2.13 3.522-3.316 5.021-3.316 8.628Z"/>
</svg>
