<svg xmlns="http://www.w3.org/2000/svg" fill="none" viewBox="0 0 24 24">
  <path fill="currentColor" d="M8.841 2.75a.75.75 0 0 0 0 1.5h.303v6.957l-3.46 3.75-.053.063c-.078.105-.168.223-.268.354-.43.559-1.013 1.319-1.335 2.079-.207.488-.347 1.06-.242 1.653.11.618.467 1.156 1.06 1.587.455.333 1.033.448 1.657.502.627.055 1.44.055 2.455.055h6.084c1.016 0 1.828 0 2.455-.055.624-.054 1.202-.17 1.658-.502.592-.431.95-.97 1.06-1.587.105-.594-.036-1.165-.243-1.653-.322-.76-.905-1.52-1.335-2.08-.1-.13-.19-.247-.268-.353l-.053-.064-3.46-3.75V4.25h.303a.75.75 0 0 0 0-1.5H8.841Z"/>
</svg>
