<svg xmlns="http://www.w3.org/2000/svg" fill="none" viewBox="0 0 24 24">
  <path fill="currentColor" d="M15.158 2.75a.75.75 0 1 1 0 1.5h-.303v6.956l3.461 3.75c.019.02.037.041.053.064.413.56 1.206 1.496 1.603 2.433.207.488.348 1.059.243 1.652-.11.619-.467 1.157-1.059 1.588-.457.332-1.035.448-1.66.502-.634.055-1.458.055-2.49.055h-6.01c-1.033 0-1.858 0-2.492-.055-.624-.054-1.202-.17-1.659-.502-.592-.431-.95-.97-1.06-1.588-.104-.593.036-1.164.242-1.652.397-.936 1.19-1.872 1.604-2.432l.052-.065 3.461-3.75V4.25h-.303a.75.75 0 0 1 0-1.5h6.317Zm-4.514 8.75c0 .188-.071.37-.199.509L6.81 15.944c-.513.693-1.1 1.385-1.401 2.094-.145.341-.182.604-.147.806.032.177.135.395.466.636.111.081.34.172.906.221.554.048 1.3.049 2.362.049h6.01c1.06 0 1.807 0 2.36-.049.565-.049.795-.14.906-.22.332-.242.435-.46.466-.637.036-.202-.002-.465-.146-.806-.3-.707-.887-1.397-1.4-2.088l-3.638-3.941a.75.75 0 0 1-.199-.509V4.25h-2.71v7.25Z"/>
</svg>
