<svg xmlns="http://www.w3.org/2000/svg" fill="none" viewBox="0 0 24 24">
  <path fill="currentColor" d="M14 18.48c0-.137-.04-.366-.143-.689a10.132 10.132 0 0 0-.412-1.047 33.609 33.609 0 0 0-1.022-2.031c-.14.022-.28.037-.423.037-.143 0-.284-.015-.423-.037-.325.607-.71 1.335-1.023 2.031a9.78 9.78 0 0 0-.41 1.047c-.103.323-.144.552-.144.69 0 1.067.916 1.969 2 1.97 1.084 0 2-.903 2-1.97Zm-4.544-5.438c-.673.022-1.467.053-2.2.128a10.15 10.15 0 0 0-1.113.167c-.33.072-.548.152-.668.22-.925.534-1.248 1.78-.707 2.717.54.937 1.781 1.281 2.707.747.12-.068.297-.217.526-.467.22-.242.457-.544.7-.88.438-.608.867-1.292 1.226-1.87a2.747 2.747 0 0 1-.471-.762Zm5.088 0a2.75 2.75 0 0 1-.472.762c.36.578.789 1.262 1.228 1.87.242.336.479.638.7.88.228.25.406.399.525.468.925.533 2.164.19 2.706-.748.508-.878.256-2.028-.54-2.608l-.167-.108c-.119-.07-.337-.148-.668-.221-.32-.07-.7-.125-1.112-.167a32.906 32.906 0 0 0-2.2-.128ZM12 10.75A1.251 1.251 0 1 0 13.25 12l-.006-.124A1.25 1.25 0 0 0 12 10.75ZM7.475 7.179c-.924-.534-2.165-.192-2.707.746-.541.937-.218 2.183.707 2.718.12.068.337.148.668.22.32.07.7.125 1.113.167.708.072 1.472.101 2.13.123.102-.316.26-.612.47-.874A31.683 31.683 0 0 0 8.7 8.526c-.243-.336-.48-.638-.7-.88-.229-.25-.406-.398-.526-.467Zm11.756.746c-.507-.879-1.629-1.235-2.53-.836l-.177.09c-.119.069-.296.217-.524.467-.22.242-.458.544-.7.88a31.75 31.75 0 0 0-1.156 1.753c.21.262.368.558.47.874.658-.022 1.422-.05 2.13-.123a9.914 9.914 0 0 0 1.113-.167c.331-.072.549-.152.668-.22.925-.534 1.248-1.78.706-2.718ZM14 5.72c0-1.067-.918-1.97-2-1.97-1.083 0-2 .904-2 1.97 0 .137.04.366.143.69.1.311.242.668.411 1.046.282.627.622 1.278.924 1.845a2.749 2.749 0 0 1 1.042 0c.302-.567.644-1.218.925-1.845.17-.378.313-.735.412-1.047.103-.323.143-.552.143-.69Zm1.5 0c0 .12-.014.245-.031.37.1-.078.2-.15.305-.21 1.664-.96 3.814-.34 4.757 1.295.944 1.634.407 3.806-1.256 4.766-.104.06-.219.111-.337.159.118.047.232.098.336.159l.152.093c1.544 1.001 2.019 3.09 1.104 4.673-.944 1.634-3.092 2.255-4.755 1.295a2.638 2.638 0 0 1-.306-.213c.018.127.03.252.03.373 0 1.92-1.611 3.47-3.5 3.47-1.887 0-3.499-1.55-3.5-3.47 0-.12.013-.245.031-.37-.1.077-.2.15-.304.21-1.663.96-3.812.34-4.756-1.296-.944-1.634-.408-3.805 1.255-4.765.105-.06.218-.112.336-.16a2.653 2.653 0 0 1-.336-.158c-1.663-.96-2.2-3.132-1.256-4.766C4.414 5.54 6.562 4.92 8.225 5.88c.104.06.205.133.305.21a2.656 2.656 0 0 1-.03-.37c0-1.918 1.613-3.47 3.5-3.47s3.5 1.55 3.5 3.47Z"/>
</svg>
