<svg xmlns="http://www.w3.org/2000/svg" fill="none" viewBox="0 0 24 24">
  <path fill="currentColor" d="M12.001 1.501c1.526 0 2.714 1.332 2.747 2.857 1.332-.742 2.954-.148 3.653 1.177.703 1.337.328 3.146-.977 3.973l-.02.01c.006.005.013.008.02.012 1.304.827 1.68 2.634.977 3.972-.72 1.371-2.428 1.957-3.78 1.1-.399-.252-.972-.794-1.394-1.21a33.007 33.007 0 0 1-.477-.482v5.107c.925-.72 2.226-1.017 3.85-1.017a.75.75 0 0 1 .75.75c0 1.436-.334 2.686-1.284 3.554-.934.852-2.312 1.196-4.066 1.196s-3.132-.344-4.065-1.196c-.95-.868-1.284-2.118-1.284-3.554A.75.75 0 0 1 7.4 17c1.624 0 2.924.296 3.85 1.017v-5.105c-.134.137-.298.304-.475.48-.423.416-.995.958-1.393 1.21-1.354.857-3.06.27-3.781-1.1-.703-1.336-.328-3.145.976-3.972l.02-.011-.02-.011c-1.305-.827-1.68-2.635-.976-3.972.697-1.326 2.32-1.92 3.651-1.178.033-1.525 1.222-2.857 2.748-2.857Zm-3.804 17.03c.1.782.357 1.308.748 1.665.433.395 1.132.682 2.257.773-.1-.782-.357-1.308-.748-1.665-.432-.395-1.131-.683-2.257-.774Zm7.605 0c-1.125.09-1.824.378-2.256.773-.391.357-.65.883-.749 1.665 1.125-.09 1.824-.378 2.257-.773.391-.357.649-.884.748-1.666Zm-1.304-8.14a2.77 2.77 0 0 1-.553.803 2.748 2.748 0 0 1-.43.349l.008.008.044.047.166.173c.14.146.334.344.546.553.449.442.906.86 1.143 1.011.53.336 1.292.154 1.651-.53.377-.718.127-1.64-.45-2.007l-.151-.07a2.685 2.685 0 0 0-.273-.086 6.52 6.52 0 0 0-.691-.136 11.09 11.09 0 0 0-.799-.087l-.05-.003-.01-.001h-.003l-.077-.009a.728.728 0 0 1-.07-.015Zm-5.144.024-.011.001-.05.003a11.41 11.41 0 0 0-.799.087c-.236.035-.478.08-.69.136a1.676 1.676 0 0 0-.423.155c-.579.367-.829 1.29-.452 2.007l.072.122c.383.583 1.082.723 1.58.409.237-.151.694-.569 1.142-1.01.212-.21.406-.408.547-.553l.166-.174.044-.047.005-.007a2.746 2.746 0 0 1-.984-1.152.754.754 0 0 1-.144.023h-.003ZM12 8a1.25 1.25 0 1 0 0 2.5A1.25 1.25 0 0 0 12 8ZM8.478 5.646c-.522-.254-1.212-.053-1.55.588-.376.717-.125 1.64.454 2.006.06.039.197.097.422.156.212.056.454.1.69.135a11.209 11.209 0 0 0 .8.088l.032.002a2.75 2.75 0 0 1 .73-1.315c.042-.043.088-.082.133-.121-.13-.134-.292-.3-.466-.471-.448-.442-.905-.86-1.143-1.01l-.102-.058Zm8.595.588c-.36-.685-1.12-.866-1.651-.53-.238.15-.694.568-1.143 1.01-.175.173-.337.337-.467.472.044.039.09.077.133.12.364.364.612.821.728 1.315.01 0 .022 0 .036-.002a10.965 10.965 0 0 0 .799-.088 6.51 6.51 0 0 0 .69-.135 1.68 1.68 0 0 0 .422-.156c.543-.344.797-1.176.517-1.869l-.064-.137Zm-5.072-3.233c-.614 0-1.25.59-1.25 1.423 0 .036.023.169.131.409.1.22.24.464.389.7a11.149 11.149 0 0 0 .543.781l.036.047.009.012.002.002c.031.04.058.083.08.127l.06-.002c.02 0 .039.003.059.003a.761.761 0 0 1 .08-.126l.002-.002.009-.012.037-.047a11.919 11.919 0 0 0 .544-.782c.149-.236.288-.48.387-.701.109-.24.133-.373.133-.41 0-.833-.637-1.422-1.25-1.422Z"/>
</svg>
