<svg xmlns="http://www.w3.org/2000/svg" fill="none" viewBox="0 0 24 24">
  <path fill="currentColor" d="M20.25 9a1.25 1.25 0 0 0-1.126-1.244L19 7.75h-1.69l-11.5 11.5H19A1.25 1.25 0 0 0 20.25 18V9Zm-18 7.5V6A2.75 2.75 0 0 1 5 3.25h1.745l.25.012c.58.053 1.13.288 1.568.675l2.272 2c.228.202.522.313.826.313H13a.75.75 0 0 1 0 1.5h-1.339c-.67 0-1.316-.245-1.818-.688l-2.272-2c-.2-.176-.45-.283-.713-.307l-.113-.005H5A1.25 1.25 0 0 0 3.75 6v10.5a.75.75 0 1 1-1.5 0Zm19.5 1.5A2.75 2.75 0 0 1 19 20.75H5c-.212 0-.42-.025-.62-.071l-.85.851a.75.75 0 1 1-1.06-1.06l18-18a.75.75 0 1 1 1.06 1.06l-2.72 2.72H19A2.75 2.75 0 0 1 21.75 9v9Z"/>
</svg>
