<svg xmlns="http://www.w3.org/2000/svg" fill="none" viewBox="0 0 24 24">
  <path fill="currentColor" d="M2.25 18V6A2.75 2.75 0 0 1 5 3.25h1.745l.25.012c.58.053 1.13.288 1.568.675v.001l2.272 2c.228.2.522.312.826.312H19A2.75 2.75 0 0 1 21.75 9v9A2.75 2.75 0 0 1 19 20.75H5A2.75 2.75 0 0 1 2.25 18Zm9-2v-5.5a.75.75 0 0 1 1.5 0V16a.75.75 0 0 1-1.5 0Zm-5-1.5v-4a.75.75 0 0 1 1.5 0v4a.75.75 0 0 1-1.5 0Zm10-2v-2a.75.75 0 0 1 1.5 0v2a.75.75 0 0 1-1.5 0ZM3.75 18A1.25 1.25 0 0 0 5 19.25h14A1.25 1.25 0 0 0 20.25 18V9a1.25 1.25 0 0 0-1.126-1.244L19 7.75h-7.339c-.67 0-1.316-.245-1.818-.688l-2.272-2c-.2-.176-.45-.283-.713-.307l-.113-.005H5A1.25 1.25 0 0 0 3.75 6v12Z"/>
</svg>
