<svg xmlns="http://www.w3.org/2000/svg" fill="none" viewBox="0 0 24 24">
  <path fill="currentColor" d="M20.25 9a1.25 1.25 0 0 0-1.126-1.244L19 7.75H3.75V18A1.25 1.25 0 0 0 5 19.25h14A1.25 1.25 0 0 0 20.25 18V9Zm1.5 9A2.75 2.75 0 0 1 19 20.75H5A2.75 2.75 0 0 1 2.25 18V6A2.75 2.75 0 0 1 5 3.25h1.745l.25.012c.58.053 1.13.288 1.568.675v.001l2.272 2c.228.2.522.312.826.312H19A2.75 2.75 0 0 1 21.75 9v9Zm-18-11.75h5.17L7.572 5.062c-.2-.176-.45-.283-.713-.307l-.113-.005H5A1.25 1.25 0 0 0 3.75 6v.25Z"/>
</svg>
