<svg xmlns="http://www.w3.org/2000/svg" fill="none" viewBox="0 0 24 24">
  <path fill="currentColor" d="M2.25 18V6A2.75 2.75 0 0 1 5 3.25h1.745l.25.012c.58.053 1.13.288 1.568.675v.001l2.272 2c.228.2.522.312.826.312H19A2.75 2.75 0 0 1 21.75 9v9A2.75 2.75 0 0 1 19 20.75H5A2.75 2.75 0 0 1 2.25 18Zm12.38-5.976c0-1.067-1.474-1.43-1.96-.461a.75.75 0 0 1-1.34-.002c-.225-.447-.688-.617-1.157-.508-.465.107-.803.455-.803.971 0 .287.128.653.407 1.084.274.423.653.844 1.052 1.227.397.38.796.706 1.098.936.025.02.05.037.073.054l.073-.053c.302-.231.701-.557 1.098-.937.4-.383.778-.804 1.052-1.227.28-.43.407-.797.407-1.084Zm1.5 0c0 .7-.294 1.355-.649 1.9-.36.556-.827 1.067-1.272 1.494a14.672 14.672 0 0 1-1.63 1.344l-.117.08-.032.022-.01.007-.002.002-.001.001a.751.751 0 0 1-.833 0l-.002-.001-.003-.002-.009-.007-.032-.021-.117-.081a14.669 14.669 0 0 1-1.63-1.344c-.445-.427-.913-.938-1.272-1.493-.354-.546-.649-1.202-.649-1.9 0-1.335.944-2.199 1.966-2.434.713-.165 1.53-.037 2.158.46 1.506-1.23 4.136-.32 4.136 1.973ZM3.75 18A1.25 1.25 0 0 0 5 19.25h14A1.25 1.25 0 0 0 20.25 18V9a1.25 1.25 0 0 0-1.126-1.244L19 7.75h-7.339c-.67 0-1.316-.245-1.818-.688l-2.272-2c-.2-.176-.45-.283-.713-.307l-.113-.005H5A1.25 1.25 0 0 0 3.75 6v12Z"/>
</svg>
