<svg xmlns="http://www.w3.org/2000/svg" fill="none" viewBox="0 0 24 24">
  <path fill="currentColor" d="M2.25 18V6A2.75 2.75 0 0 1 5 3.25h1.745l.25.012c.478.043.934.213 1.326.488H16.5a3.25 3.25 0 0 1 3.18 2.589A2.746 2.746 0 0 1 21.75 9v9A2.75 2.75 0 0 1 19 20.75H5A2.75 2.75 0 0 1 2.25 18Zm8.584-12.063c.228.202.522.313.826.313h6.42a1.747 1.747 0 0 0-1.58-1h-6.447l.781.688ZM3.75 18A1.25 1.25 0 0 0 5 19.25h14A1.25 1.25 0 0 0 20.25 18V9a1.25 1.25 0 0 0-1.126-1.244L19 7.75h-7.34c-.67 0-1.316-.245-1.818-.688l-2.272-2-.004-.003a1.25 1.25 0 0 0-.708-.304l-.113-.005H5A1.25 1.25 0 0 0 3.75 6v12Z"/>
</svg>
