<svg xmlns="http://www.w3.org/2000/svg" fill="none" viewBox="0 0 24 24">
  <path fill="currentColor" d="M13.435 2.075a3.33 3.33 0 0 0-2.87 0c-.394.19-.755.497-1.26.928l-.079.066a2.56 2.56 0 0 1-1.58.655l-.102.008c-.662.053-1.135.09-1.547.236a3.33 3.33 0 0 0-2.03 2.03c-.145.411-.182.884-.235 1.546l-.008.102a2.56 2.56 0 0 1-.655 1.58l-.066.078c-.43.506-.74.867-.928 1.261a3.33 3.33 0 0 0 0 2.87c.19.394.497.755.928 1.26l.066.08c.41.48.604.938.655 1.58l.008.101c.053.662.09 1.135.236 1.547a3.33 3.33 0 0 0 2.03 2.03c.411.145.884.182 1.546.235l.102.008c.63.05 1.09.238 1.58.655l.078.066c.506.431.867.74 1.261.928a3.33 3.33 0 0 0 2.87 0c.394-.189.755-.497 1.26-.928l.08-.066c.48-.41.938-.604 1.58-.655l.101-.008c.662-.053 1.135-.09 1.547-.236a3.331 3.331 0 0 0 2.03-2.029c.145-.412.182-.885.235-1.547l.008-.102c.05-.629.238-1.09.655-1.58l.066-.079c.431-.505.74-.866.928-1.26a3.33 3.33 0 0 0 0-2.87c-.189-.394-.497-.755-.928-1.26l-.066-.079a2.56 2.56 0 0 1-.655-1.58l-.008-.102c-.053-.662-.09-1.135-.236-1.547a3.33 3.33 0 0 0-2.029-2.03c-.412-.145-.885-.182-1.547-.235l-.102-.008a2.56 2.56 0 0 1-1.58-.655l-.079-.066c-.505-.43-.866-.74-1.26-.928ZM9.603 9.338c.183.112.366.23.532.345.19.133.388.287.581.445l.04.033c.301.245.6.488.811.735.254.295.433.648.433 1.104 0 .456-.18.81-.433 1.104-.212.247-.51.49-.81.736l-.04.032c-.194.158-.393.312-.582.445-.174.12-.351.236-.532.345l-.048.03c-.292.177-.6.365-.88.465a1.403 1.403 0 0 1-.586.09 1.2 1.2 0 0 1-.632-.24c-.368-.278-.504-.672-.569-1.01-.06-.314-.084-.71-.109-1.144l-.003-.046A13.988 13.988 0 0 1 6.75 12c0-.254.01-.53.026-.807l.003-.046c.025-.433.048-.83.11-1.145.064-.337.2-.73.57-1.008a1.17 1.17 0 0 1 .63-.24c.2-.012.4.018.587.09.278.1.587.287.88.465l.047.03Zm5.702-.03.048.03c.183.112.366.23.532.345.19.133.388.287.581.445l.04.033c.301.245.6.488.811.735.254.295.433.648.433 1.104 0 .456-.18.81-.433 1.104-.212.247-.51.49-.81.736l-.04.032c-.194.158-.393.312-.582.445-.174.12-.351.236-.532.345l-.048.03c-.292.177-.6.365-.88.465a1.403 1.403 0 0 1-.586.09 1.2 1.2 0 0 1-.632-.24c-.368-.278-.504-.672-.569-1.01-.06-.314-.084-.71-.109-1.144l-.002-.046A13.927 13.927 0 0 1 12.5 12c0-.254.01-.53.027-.807l.002-.046c.025-.433.048-.83.11-1.145.064-.337.2-.73.57-1.008a1.17 1.17 0 0 1 .63-.24c.2-.012.4.018.587.09.278.1.587.287.88.465"/>
</svg>
