<svg xmlns="http://www.w3.org/2000/svg" fill="none" viewBox="0 0 24 24">
  <path fill="currentColor" d="M12 2.25A9.75 9.75 0 0 0 2.25 12 9.75 9.75 0 0 0 12 21.75 9.75 9.75 0 0 0 21.75 12 9.75 9.75 0 0 0 12 2.25ZM9.603 9.338c.183.112.366.229.532.345.189.133.388.287.581.445l.04.033c.301.245.599.488.811.735.254.295.433.648.433 1.104 0 .456-.18.809-.433 1.104-.212.247-.51.49-.81.736l-.04.032c-.194.158-.393.312-.582.445-.174.12-.351.236-.532.345l-.048.03c-.292.177-.6.365-.88.465a1.4 1.4 0 0 1-.586.09 1.2 1.2 0 0 1-.632-.24c-.368-.278-.504-.672-.569-1.01-.061-.314-.084-.711-.109-1.144l-.003-.046A14.006 14.006 0 0 1 6.75 12c0-.254.01-.531.026-.807l.003-.046c.025-.433.048-.83.109-1.145.065-.337.2-.731.57-1.008.18-.136.392-.223.63-.24.2-.012.4.018.588.09.278.1.587.287.879.465l.048.029Zm5.702-.03.048.03c.183.112.366.229.532.345.189.133.388.287.581.445l.04.033c.301.245.599.488.811.735.254.295.433.648.433 1.104 0 .456-.18.809-.433 1.104-.212.247-.51.49-.81.736l-.04.032c-.194.158-.393.312-.582.445-.174.12-.351.236-.532.345l-.048.03c-.292.177-.6.365-.88.465a1.4 1.4 0 0 1-.586.09 1.2 1.2 0 0 1-.632-.24c-.368-.278-.504-.672-.569-1.01-.061-.314-.084-.711-.109-1.144l-.002-.046A13.927 13.927 0 0 1 12.5 12c0-.254.01-.531.027-.807l.002-.046c.025-.433.048-.83.109-1.145.065-.337.2-.731.57-1.008.18-.136.392-.223.63-.24.2-.012.4.018.588.09.278.1.587.287.879.465"/>
</svg>
