<svg xmlns="http://www.w3.org/2000/svg" fill="none" viewBox="0 0 24 24">
  <path fill="currentColor" d="M20.25 8.937a.85.85 0 0 0-.046-.33.846.846 0 0 0-.203-.272l-4.336-4.336a.846.846 0 0 0-.271-.203.851.851 0 0 0-.33-.046H8.936a.85.85 0 0 0-.33.046.859.859 0 0 0-.272.204l-.001-.001-4.335 4.336a.852.852 0 0 0-.201.267.849.849 0 0 0-.048.335v6.127c0 .183.022.271.046.329.023.057.07.138.204.272l4.335 4.336a.85.85 0 0 0 .267.201.846.846 0 0 0 .335.048h6.127a.85.85 0 0 0 .33-.046.846.846 0 0 0 .271-.203L20 15.665a.85.85 0 0 0 .201-.267.845.845 0 0 0 .048-.335V8.938ZM10.5 12c0-.013.01-.032-.071-.127a2.358 2.358 0 0 0-.24-.231l-.42-.35-.011-.01a8.445 8.445 0 0 0-.484-.37h-.002a8.362 8.362 0 0 0-.447-.293 14.421 14.421 0 0 0-.422-.249l-.051-.027a10.3 10.3 0 0 0-.079.936c-.014.26-.023.506-.023.721.001.24.01.48.023.719v.002c.027.45.046.735.079.935l.051-.026c.116-.065.25-.146.421-.25l.002-.001c.152-.092.3-.189.446-.29.149-.104.319-.234.494-.378l.003-.003c.356-.29.546-.448.66-.581.082-.095.071-.114.071-.127Zm5.75 0c0-.014.01-.033-.071-.128a2.329 2.329 0 0 0-.239-.23l-.42-.35-.002-.002-.258-.205a6.45 6.45 0 0 0-.236-.173 8.749 8.749 0 0 0-.45-.293c-.17-.104-.305-.184-.42-.249l-.052-.027c-.033.2-.052.485-.079.936-.014.26-.023.506-.023.721.001.24.01.48.023.719v.002c.027.45.046.735.079.935l.051-.026c.116-.065.25-.146.421-.25l.002-.001c.152-.092.3-.189.447-.29.148-.104.318-.234.493-.378l.003-.003c.357-.29.546-.448.66-.581.082-.095.071-.113.071-.127ZM12 12c0 .456-.18.809-.434 1.104-.221.259-.535.512-.85.768h-.001a9.89 9.89 0 0 1-.58.444l-.002.002c-.173.12-.35.234-.53.343-.306.186-.633.39-.927.496a1.423 1.423 0 0 1-.587.09 1.189 1.189 0 0 1-.632-.242c-.367-.277-.503-.67-.568-1.007-.064-.325-.086-.739-.113-1.19l-.018-.402a14.782 14.782 0 0 1-.008-.402V12l.007-.396c.004-.135.012-.273.02-.41v-.002c.026-.45.048-.865.11-1.19.058-.295.17-.634.444-.9l.128-.109c.18-.135.391-.221.629-.24a1.42 1.42 0 0 1 .587.09c.147.053.303.13.46.218l.468.277h.001c.183.112.364.228.529.344.19.133.39.289.583.446l.46.384c.146.127.28.255.39.383.254.296.434.649.434 1.105Zm5.75 0c0 .456-.18.81-.434 1.105-.221.258-.536.511-.85.767h-.001a9.89 9.89 0 0 1-.58.444l-.002.002a9.78 9.78 0 0 1-.53.343c-.306.186-.633.39-.927.496a1.422 1.422 0 0 1-.587.09 1.189 1.189 0 0 1-.632-.242c-.367-.277-.503-.67-.568-1.007-.064-.325-.086-.739-.113-1.19l-.018-.402a14.582 14.582 0 0 1-.008-.402V12l.007-.396c.005-.135.012-.273.02-.41v-.002c.026-.45.048-.865.11-1.19.058-.295.17-.634.444-.9l.128-.109c.18-.135.392-.221.63-.24.224-.016.426.032.587.09a3.2 3.2 0 0 1 .459.218l.469.277c.185.113.365.23.529.344.19.133.39.289.583.446l.011.01c.311.253.62.502.84.757.254.296.433.649.433 1.105Zm4 3.063c0 .313-.04.616-.164.914-.124.297-.31.535-.524.749l-4.336 4.335a2.32 2.32 0 0 1-.763.53 2.32 2.32 0 0 1-.9.159H8.938c-.313 0-.616-.04-.914-.164a2.321 2.321 0 0 1-.749-.524L2.94 16.725a2.326 2.326 0 0 1-.53-.763 2.316 2.316 0 0 1-.159-.9V8.938c0-.313.04-.616.164-.914.124-.297.31-.535.524-.749l4.337-4.337c.222-.22.464-.406.762-.529.298-.122.598-.158.9-.158h6.127c.301 0 .6.036.899.158.299.123.541.31.763.53l4.335 4.336c.222.222.408.464.53.763.123.298.159.598.159.9v6.127Z"/>
</svg>
