<svg xmlns="http://www.w3.org/2000/svg" fill="none" viewBox="0 0 24 24">
  <path fill="currentColor" d="M20.25 9.4c0-1.132 0-1.937-.052-2.566-.044-.543-.124-.905-.247-1.191l-.056-.119A3.25 3.25 0 0 0 18.7 4.23l-.223-.125c-.305-.155-.69-.252-1.31-.302-.63-.052-1.434-.052-2.566-.052H9.4c-1.132 0-1.937 0-2.566.052-.543.044-.905.124-1.191.247l-.119.055A3.25 3.25 0 0 0 4.23 5.301l-.125.223c-.155.305-.252.69-.302 1.31-.052.63-.052 1.434-.052 2.566v5.2c0 1.132 0 1.937.052 2.566.05.62.147 1.005.302 1.31l.125.223c.313.51.76.924 1.295 1.196l.119.056c.286.123.648.203 1.191.247.63.052 1.434.052 2.566.052h5.2c1.132 0 1.937 0 2.566-.052.62-.05 1.005-.147 1.31-.303l.223-.125a3.25 3.25 0 0 0 1.196-1.294l.056-.119c.123-.286.203-.648.247-1.191.052-.63.052-1.434.052-2.566V9.4ZM10.5 12c0-.013.01-.032-.071-.127a2.358 2.358 0 0 0-.24-.231l-.42-.35-.011-.01a8.495 8.495 0 0 0-.484-.37h-.002a8.362 8.362 0 0 0-.447-.293 14.408 14.408 0 0 0-.422-.249l-.051-.027a10.3 10.3 0 0 0-.079.936c-.014.26-.023.506-.023.721.001.24.01.48.023.719v.002c.027.45.046.735.079.935l.051-.026c.116-.065.25-.146.421-.25l.002-.001c.152-.092.3-.189.446-.29.149-.104.319-.234.494-.378l.003-.003c.356-.29.546-.448.66-.581.082-.095.071-.114.071-.127Zm5.75 0c0-.014.01-.033-.071-.128a2.329 2.329 0 0 0-.239-.23l-.42-.35-.002-.002-.258-.205a6.45 6.45 0 0 0-.236-.173 8.749 8.749 0 0 0-.45-.293c-.17-.104-.305-.184-.42-.249l-.052-.027c-.033.2-.052.485-.079.936-.014.26-.023.506-.023.721.001.24.01.48.023.719v.002c.027.45.046.735.079.935l.051-.026c.116-.065.25-.146.421-.25l.002-.001c.152-.092.3-.189.447-.29.148-.104.318-.234.493-.378l.003-.003c.357-.29.546-.448.66-.581.082-.095.071-.113.071-.127ZM12 12c0 .456-.18.809-.434 1.104-.221.259-.535.512-.85.768h-.001a9.89 9.89 0 0 1-.58.444l-.002.002c-.173.12-.35.234-.53.343-.306.186-.633.39-.927.496a1.423 1.423 0 0 1-.587.09 1.189 1.189 0 0 1-.632-.242c-.367-.277-.503-.67-.568-1.007-.064-.325-.086-.739-.113-1.19l-.018-.402a14.797 14.797 0 0 1-.008-.402V12l.007-.396c.004-.135.012-.273.02-.41v-.002c.026-.45.048-.865.11-1.19.058-.295.17-.634.444-.9l.128-.109c.18-.135.391-.221.629-.24.224-.016.426.032.587.09.147.053.303.13.46.218l.468.277h.001c.183.112.364.228.529.344.19.133.39.289.583.446l.46.384c.146.127.28.255.39.383.254.296.434.649.434 1.105Zm5.75 0c0 .456-.18.81-.434 1.105-.221.258-.536.511-.85.767h-.001a9.89 9.89 0 0 1-.58.444l-.002.002a9.78 9.78 0 0 1-.53.343c-.306.186-.633.39-.927.496a1.422 1.422 0 0 1-.587.09 1.189 1.189 0 0 1-.632-.242c-.367-.277-.503-.67-.568-1.007-.064-.325-.086-.739-.113-1.19l-.018-.402a14.597 14.597 0 0 1-.008-.402V12l.007-.396c.005-.135.012-.273.02-.41v-.002c.026-.45.048-.865.11-1.19.058-.295.17-.634.444-.9l.128-.109c.18-.135.392-.221.63-.24.224-.016.426.032.587.09a3.2 3.2 0 0 1 .459.218l.469.277c.185.113.365.23.529.344.19.133.39.289.583.446l.011.01c.311.253.62.502.84.757.254.296.433.649.433 1.105Zm4 2.6c0 1.107 0 1.984-.057 2.688-.058.713-.18 1.317-.46 1.868a4.751 4.751 0 0 1-2.077 2.076c-.551.281-1.155.403-1.868.461-.704.058-1.58.057-2.688.057H9.4c-1.107 0-1.983 0-2.688-.057-.713-.058-1.317-.18-1.868-.46a4.752 4.752 0 0 1-2.076-2.077c-.281-.551-.403-1.155-.461-1.868-.058-.704-.057-1.58-.057-2.688V9.4c0-1.107 0-1.983.057-2.688.058-.713.18-1.317.46-1.868a4.752 4.752 0 0 1 2.077-2.076c.551-.281 1.155-.403 1.868-.461.705-.058 1.58-.057 2.688-.057h5.2c1.107 0 1.984 0 2.688.057.713.058 1.317.18 1.868.46a4.752 4.752 0 0 1 2.076 2.077c.281.551.403 1.155.461 1.868.058.705.057 1.58.057 2.688v5.2Z"/>
</svg>
