<svg xmlns="http://www.w3.org/2000/svg" fill="none" viewBox="0 0 24 24">
  <path fill="currentColor" d="M8.937 2.25a2.3 2.3 0 0 0-.9.158c-.3.122-.54.31-.762.53L2.938 7.275c-.213.214-.4.45-.525.748a2.3 2.3 0 0 0-.163.914v6.126c0 .302.036.602.158.9.122.298.31.54.53.762l4.337 4.337c.214.213.45.4.748.524.298.125.6.164.914.164h6.126c.302 0 .602-.035.9-.158.299-.122.54-.31.762-.53l4.337-4.337c.213-.214.4-.45.524-.748.116-.29.172-.601.164-.914V8.937a2.298 2.298 0 0 0-.158-.9 2.298 2.298 0 0 0-.53-.762l-4.337-4.337a2.3 2.3 0 0 0-.762-.53 2.3 2.3 0 0 0-.9-.158H8.937Zm.666 7.088c.183.112.366.23.532.345.189.133.388.287.58.445l.04.033c.302.245.6.488.812.735.254.295.433.648.433 1.104 0 .456-.18.81-.433 1.104-.212.247-.51.49-.81.736l-.04.032c-.194.158-.393.312-.582.445-.174.12-.351.236-.532.345l-.048.03c-.292.177-.6.365-.88.465a1.403 1.403 0 0 1-.586.09 1.2 1.2 0 0 1-.632-.24c-.368-.278-.504-.672-.57-1.01-.06-.314-.083-.71-.108-1.144l-.003-.046A13.991 13.991 0 0 1 6.75 12c0-.254.01-.53.026-.807l.003-.046c.025-.433.048-.83.109-1.145.065-.337.2-.73.57-1.008.18-.136.392-.223.63-.24.2-.012.4.018.588.09.278.1.587.287.879.465l.048.03Zm5.702-.03.048.03c.183.112.366.23.532.345.189.133.388.287.58.445l.04.033c.302.245.6.488.812.735.254.295.433.648.433 1.104 0 .456-.18.81-.433 1.104-.212.247-.51.49-.81.736l-.04.032c-.194.158-.393.312-.582.445-.174.12-.351.236-.532.345l-.048.03c-.292.177-.6.365-.88.465a1.402 1.402 0 0 1-.586.09 1.2 1.2 0 0 1-.632-.24c-.368-.278-.504-.672-.57-1.01-.06-.314-.083-.71-.108-1.144l-.002-.046A14.108 14.108 0 0 1 12.5 12c0-.254.01-.53.027-.807l.002-.046c.025-.433.048-.83.109-1.145.065-.337.2-.73.57-1.008.18-.136.392-.223.63-.24.2-.012.4.018.588.09.278.1.587.287.879.465"/>
</svg>
