<svg xmlns="http://www.w3.org/2000/svg" fill="none" viewBox="0 0 24 24">
  <path fill="currentColor" d="M18.75 12c0-.247-.073-.45-.323-.742-.212-.247-.513-.513-.943-.87L17.011 10a17.868 17.868 0 0 0-1.034-.791l-.002-.002a13.258 13.258 0 0 0-.446-.3l-.492-.308c-.7-.426-1.125-.68-1.446-.795a.655.655 0 0 0-.246-.054c-.015.001-.035.003-.08.036-.082.061-.192.191-.28.647-.091.467-.13 1.116-.186 2.083-.03.527-.049 1.034-.049 1.484.001.246.006.493.015.74l.035.741v.003c.056.967.095 1.616.185 2.083.088.454.198.584.28.646l.051.03a.078.078 0 0 0 .029.006c.028.002.1 0 .246-.053.321-.115.747-.37 1.447-.796.339-.206.66-.41.939-.607A19.93 19.93 0 0 0 17.012 14c.692-.565 1.133-.929 1.415-1.258.25-.291.323-.495.323-.742ZM5.845 7.75c-.014.001-.034.003-.078.036l-.001.001c-.082.062-.193.19-.282.646-.09.467-.129 1.116-.185 2.083-.03.527-.049 1.034-.049 1.484.001.247.006.494.014.74l.035.742v.002c.056.967.095 1.616.185 2.083.089.456.2.584.282.646.044.034.065.035.079.036.028.002.1 0 .246-.053.321-.115.747-.37 1.447-.796l.003-.002c.32-.192.632-.395.938-.608.318-.223.671-.496 1.033-.79.692-.565 1.133-.929 1.415-1.258.25-.291.323-.495.323-.742s-.073-.45-.323-.742c-.212-.247-.513-.513-.943-.87L9.511 10a17.888 17.888 0 0 0-1.033-.791l-.003-.002a13.269 13.269 0 0 0-.446-.3L7.537 8.6c-.7-.426-1.126-.68-1.447-.795a.655.655 0 0 0-.245-.054ZM20.25 12c0 .69-.263 1.229-.685 1.72-.389.453-.956.912-1.606 1.443l-.001.001c-.38.309-.762.605-1.118.856-.316.221-.667.445-1.023.662-.64.39-1.22.747-1.72.926-.263.095-.555.16-.864.137a1.63 1.63 0 0 1-.868-.332c-.519-.39-.736-.959-.852-1.56-.078-.4-.121-.881-.159-1.437-.27.236-.572.483-.895.747l-.001.001c-.38.309-.762.605-1.118.856l-.004.002a18.8 18.8 0 0 1-1.02.662l-.002-.001c-.64.389-1.218.746-1.716.925a2.09 2.09 0 0 1-.865.137 1.608 1.608 0 0 1-.77-.264l-.097-.068c-.52-.39-.737-.959-.853-1.56-.115-.59-.159-1.36-.212-2.282a27.76 27.76 0 0 1-.051-1.568V12c0-.49.02-1.028.05-1.57.054-.923.098-1.693.213-2.283.116-.602.333-1.17.853-1.56a1.62 1.62 0 0 1 .866-.332 2.09 2.09 0 0 1 .865.137c.499.179 1.078.536 1.72.925.354.217.706.44 1.02.662l.273.197c.278.204.565.43.849.662l.47.386c.149.122.29.241.425.358.037-.555.08-1.036.158-1.435.116-.601.334-1.17.853-1.56.256-.192.546-.308.868-.332.309-.023.6.042.865.137.499.179 1.078.536 1.718.925.355.217.707.44 1.02.662l.274.197c.278.204.564.43.849.662l.47.386c.453.374.844.716 1.136 1.056.422.491.685 1.03.685 1.72Z"/>
</svg>
