<svg xmlns="http://www.w3.org/2000/svg" fill="none" viewBox="0 0 24 24">
  <path fill="currentColor" d="M12 1.75c.496 0 .986.111 1.434.325.414.197.793.529 1.34.994.48.41.939.604 1.579.654.716.058 1.217.092 1.65.244v.001a3.327 3.327 0 0 1 2.03 2.03l.051.165c.11.395.142.856.192 1.484.05.64.244 1.099.653 1.58.466.545.798.924.996 1.339l.076.172c.356.867.33 1.847-.076 2.697h-.001c-.198.413-.528.792-.993 1.338l-.011.013c-.383.43-.61.976-.643 1.55v.018c-.058.717-.092 1.217-.245 1.65a3.335 3.335 0 0 1-1.855 1.961l-.174.067c-.432.152-.933.187-1.65.245-.64.05-1.1.244-1.58.653-.547.465-.925.797-1.34.995a3.33 3.33 0 0 1-2.867 0c-.414-.198-.793-.529-1.34-.994l-.012-.012a2.55 2.55 0 0 0-1.55-.641l-.018-.001c-.716-.058-1.216-.092-1.649-.244l-.002-.001a3.331 3.331 0 0 1-2.027-2.029c-.153-.431-.187-.933-.244-1.65l-.001-.018a2.55 2.55 0 0 0-.642-1.55l-.01-.011c-.467-.547-.797-.924-.996-1.338v-.002a3.333 3.333 0 0 1-.32-1.249L1.75 12c0-.496.111-.985.325-1.433l.08-.154c.202-.358.507-.708.914-1.186.417-.49.605-.953.655-1.58.057-.717.091-1.217.244-1.65a3.334 3.334 0 0 1 2.03-2.028l.165-.052c.395-.11.857-.143 1.484-.193h.017a2.55 2.55 0 0 0 1.55-.643l.013-.011c.546-.465.925-.797 1.34-.994A3.33 3.33 0 0 1 12 1.75Zm0 1.5a1.83 1.83 0 0 0-.6.101l-.188.078c-.193.092-.397.257-1.013.781A4.05 4.05 0 0 1 7.75 5.22h-.001c-.793.063-1.051.092-1.252.162a1.83 1.83 0 0 0-1.115 1.112c-.07.204-.099.467-.163 1.272-.075.94-.385 1.701-1.008 2.433-.524.615-.69.82-.782 1.012a1.836 1.836 0 0 0-.002 1.576l.089.153c.11.167.298.395.685.849l.216.263a4.05 4.05 0 0 1 .8 2.18c.065.808.093 1.07.165 1.271a1.833 1.833 0 0 0 1.114 1.115c.202.07.46.098 1.252.162a4.05 4.05 0 0 1 2.45 1.009c.616.524.82.69 1.014.782l.188.078a1.83 1.83 0 0 0 1.388-.078c.193-.092.397-.258 1.013-.783a4.046 4.046 0 0 1 2.432-1.006l.51-.043c.424-.039.608-.068.76-.121a1.83 1.83 0 0 0 1.114-1.114c.072-.203.1-.465.164-1.27a4.05 4.05 0 0 1 1.019-2.446c.516-.606.68-.808.771-1l.078-.19c.157-.452.13-.95-.078-1.386-.092-.193-.258-.397-.783-1.012a4.048 4.048 0 0 1-1.007-2.433l-.043-.51c-.038-.424-.066-.609-.12-.76a1.828 1.828 0 0 0-1.114-1.115c-.203-.071-.466-.1-1.27-.164a4.05 4.05 0 0 1-2.433-1.007c-.616-.524-.82-.69-1.013-.782A1.83 1.83 0 0 0 12 3.25ZM10.5 12c0-.013.01-.033-.071-.127a2.346 2.346 0 0 0-.24-.232l-.42-.35-.01-.01a8.454 8.454 0 0 0-.485-.37h-.002a8.375 8.375 0 0 0-.447-.291 14.147 14.147 0 0 0-.422-.25l-.051-.027c-.033.2-.052.485-.079.937a10.687 10.687 0 0 0-.016 1.078l.016.361c.027.451.046.736.079.937l.051-.027c.116-.064.25-.145.421-.249h.002c.152-.092.3-.19.445-.29a8.46 8.46 0 0 0 .495-.38l.003-.002c.357-.29.546-.449.66-.582.082-.095.071-.114.071-.127Zm5.75 0c0-.014.01-.034-.071-.127-.114-.133-.303-.29-.66-.58l-.019-.017a8.371 8.371 0 0 0-.476-.364 7.457 7.457 0 0 0-.213-.144l-.237-.148c-.17-.104-.305-.185-.42-.25l-.052-.027c-.033.2-.052.485-.079.937A13.2 13.2 0 0 0 14 12c0 .119.003.239.007.358l.016.361c.027.451.046.736.079.937l.051-.027c.116-.064.25-.145.421-.249h.002a8.3 8.3 0 0 0 .445-.29c.149-.105.32-.236.495-.38l.003-.002c.357-.29.546-.448.66-.58.082-.095.071-.115.071-.129ZM12 12c0 .456-.18.81-.434 1.105-.221.258-.536.51-.85.767l-.001-.001a9.53 9.53 0 0 1-.58.446l-.002.002c-.173.12-.35.233-.53.342-.305.186-.633.39-.927.496a1.42 1.42 0 0 1-.587.09 1.19 1.19 0 0 1-.632-.242c-.367-.276-.503-.67-.568-1.007-.064-.325-.086-.739-.113-1.189l-.018-.402a14.741 14.741 0 0 1-.008-.403V12c0-.254.011-.531.026-.805v-.002c.027-.45.049-.864.112-1.19.065-.337.2-.73.569-1.007l.14-.092a1.17 1.17 0 0 1 .49-.15 1.42 1.42 0 0 1 .588.09c.293.106.622.31.928.494l.001.001c.183.112.365.228.53.344l.29.214c.098.075.196.153.292.231l.014.013c.31.252.618.501.836.755.254.296.434.649.434 1.104Zm5.75 0c0 .456-.18.81-.434 1.105-.221.258-.536.51-.85.767l-.001-.001a9.53 9.53 0 0 1-.58.446l-.002.002c-.173.12-.35.233-.53.342-.305.186-.633.39-.927.496a1.42 1.42 0 0 1-.587.09 1.19 1.19 0 0 1-.632-.242c-.367-.276-.503-.67-.568-1.007-.063-.325-.086-.739-.113-1.189l-.018-.402a14.582 14.582 0 0 1-.008-.403V12c0-.254.011-.531.026-.805v-.002c.027-.45.049-.864.112-1.19.065-.337.2-.73.569-1.007l.14-.092c.148-.083.313-.136.492-.15.224-.016.426.032.587.09.294.106.622.31.928.495.184.113.365.23.529.344.19.133.39.289.583.445l.011.011c.311.253.62.502.84.757.254.296.433.649.433 1.104Z"/>
</svg>
