<svg xmlns="http://www.w3.org/2000/svg" fill="none" viewBox="0 0 24 24">
  <path fill="currentColor" d="M12 1.25a3.16 3.16 0 0 0-2.235.926L2.177 9.765a3.16 3.16 0 0 0 0 4.47l7.588 7.588a3.16 3.16 0 0 0 4.47 0l7.588-7.588a3.16 3.16 0 0 0 0-4.47l-7.588-7.588A3.16 3.16 0 0 0 12 1.25ZM9.603 9.338c.183.112.366.229.532.345.19.133.388.287.581.445l.04.033c.301.245.6.488.811.735.254.295.433.648.433 1.104 0 .456-.18.809-.433 1.104-.212.247-.51.49-.81.736l-.04.032c-.194.158-.393.312-.582.445-.174.12-.351.236-.532.345l-.048.03c-.292.177-.6.365-.88.465a1.4 1.4 0 0 1-.586.09 1.2 1.2 0 0 1-.632-.24c-.368-.278-.504-.672-.569-1.01-.06-.314-.084-.711-.109-1.144l-.003-.046A14.006 14.006 0 0 1 6.75 12c0-.254.01-.531.026-.807l.003-.046c.025-.433.048-.83.11-1.145.064-.337.2-.731.57-1.008a1.17 1.17 0 0 1 .63-.24c.2-.012.4.018.587.09.278.1.587.287.88.465l.047.029Zm5.702-.03.048.03c.183.112.366.229.532.345.19.133.388.287.581.445l.04.033c.301.245.6.488.811.735.254.295.433.648.433 1.104 0 .456-.18.809-.433 1.104-.212.247-.51.49-.81.736l-.04.032c-.194.158-.393.312-.582.445-.174.12-.351.236-.532.345l-.048.03c-.292.177-.6.365-.88.465a1.4 1.4 0 0 1-.586.09 1.2 1.2 0 0 1-.632-.24c-.368-.278-.504-.672-.569-1.01-.06-.314-.084-.711-.109-1.144l-.002-.046A13.927 13.927 0 0 1 12.5 12c0-.254.01-.531.027-.807l.002-.046c.025-.433.048-.83.11-1.145.064-.337.2-.731.57-1.008a1.17 1.17 0 0 1 .63-.24c.2-.012.4.018.587.09.278.1.587.287.88.465"/>
</svg>
