<svg xmlns="http://www.w3.org/2000/svg" fill="none" viewBox="0 0 24 24">
  <path fill="currentColor" d="m8.317 7.318-.063-.04c-.616-.373-1.174-.713-1.656-.886a2.1 2.1 0 0 0-.865-.137c-.322.024-.612.14-.868.332-.519.39-.736.959-.853 1.56-.112.58-.155 1.33-.207 2.228l-.003.054c-.032.523-.05 1.047-.052 1.57 0 .49.02 1.029.052 1.572l.003.054c.052.899.095 1.649.207 2.227.117.602.334 1.17.853 1.56.256.193.546.31.868.333.309.023.6-.042.865-.137.482-.173 1.04-.513 1.656-.887l.063-.04c.357-.216.707-.44 1.022-.661.357-.251.74-.548 1.12-.857l.048-.04c.63-.514 1.178-.96 1.558-1.403.422-.491.685-1.03.685-1.72s-.263-1.23-.685-1.72c-.38-.442-.928-.89-1.558-1.403l-.048-.04c-.38-.31-.763-.606-1.12-.857-.315-.22-.665-.445-1.022-.662Z"/>
  <path fill="currentColor" d="m15.817 7.318-.063-.04c-.616-.373-1.173-.713-1.656-.886a2.1 2.1 0 0 0-.865-.137c-.322.024-.612.14-.868.332-.519.39-.736.959-.853 1.56-.112.58-.155 1.33-.207 2.228l-.003.054c-.032.523-.05 1.047-.052 1.57 0 .49.02 1.029.052 1.572l.003.054c.052.899.095 1.649.207 2.227.117.602.334 1.17.853 1.56.256.193.546.31.868.333.309.023.6-.042.865-.137.482-.173 1.04-.513 1.656-.887l.063-.04c.357-.216.707-.44 1.022-.661.358-.251.74-.548 1.12-.857l.048-.04c.63-.514 1.178-.96 1.558-1.403.422-.491.685-1.03.685-1.72s-.263-1.23-.685-1.72c-.38-.442-.928-.89-1.558-1.403l-.048-.04c-.38-.31-.762-.606-1.12-.857-.315-.22-.665-.445-1.022-.662Z"/>
</svg>
