<svg xmlns="http://www.w3.org/2000/svg" fill="none" viewBox="0 0 24 24">
  <path fill="currentColor" d="M10.79 1.49a3.16 3.16 0 0 1 3.445.687l7.588 7.588a3.16 3.16 0 0 1 0 4.47l-7.588 7.588a3.16 3.16 0 0 1-4.47 0l-7.588-7.588a3.16 3.16 0 0 1 0-4.47l7.588-7.589a3.2 3.2 0 0 1 1.025-.685m2.516 6.71a.75.75 0 1 0-1.445-.4c-.383 1.377-1.16 2.668-1.863 3.633a16.01 16.01 0 0 1-1.185 1.44l-.072.075-.022.022a.75.75 0 0 0 .531 1.28h3v1.75a.75.75 0 1 0 1.5 0v-1.75h.5a.75.75 0 0 0 0-1.5h-.5V12a.75.75 0 0 0-1.5 0v.75h-1.366c.106-.136.215-.28.326-.434.755-1.035 1.645-2.494 2.096-4.116Z"/>
</svg>
