<svg xmlns="http://www.w3.org/2000/svg" fill="none" viewBox="0 0 24 24">
  <path fill="currentColor" d="M20.25 12a8.25 8.25 0 1 0-16.5-.001 8.25 8.25 0 0 0 16.5.001Zm-8 4v-1.75h-3a.75.75 0 0 1-.53-1.28l.004-.004.016-.018.073-.076a15.856 15.856 0 0 0 1.185-1.438c.704-.965 1.48-2.257 1.862-3.634a.75.75 0 0 1 1.446.4c-.45 1.623-1.341 3.082-2.096 4.116-.112.154-.222.298-.327.434h1.367V12a.75.75 0 0 1 1.5 0v.75h.5a.75.75 0 0 1 0 1.5h-.5V16a.75.75 0 0 1-1.5 0Zm9.5-4a9.75 9.75 0 1 1-19.502 0 9.75 9.75 0 0 1 19.502 0Z"/>
</svg>
