<svg xmlns="http://www.w3.org/2000/svg" fill="none" viewBox="0 0 24 24">
  <path fill="currentColor" d="M12 1.75c.463 0 .916.124 1.316.355h.001l6.613 3.8.006.003a2.661 2.661 0 0 1 1.314 2.291v7.6l-.005.173a2.652 2.652 0 0 1-1.311 2.123l-.004.001-6.613 3.8a2.628 2.628 0 0 1-2.634 0l-6.613-3.8-.006-.003a2.659 2.659 0 0 1-1.314-2.29V8.2a2.65 2.65 0 0 1 1.316-2.293l.004-.002 6.613-3.8c.4-.233.854-.354 1.317-.354Zm0 1.5c-.2 0-.395.053-.567.153l-.003.002-6.61 3.797h.001a1.151 1.151 0 0 0-.571.997V15.8l.01.15a1.16 1.16 0 0 0 .563.849l6.607 3.797.003.001a1.13 1.13 0 0 0 1.134 0l.003-.002 6.609-3.797.125-.084a1.15 1.15 0 0 0 .446-.912V8.2a1.16 1.16 0 0 0-.573-1L12.57 3.406l-.003-.002A1.13 1.13 0 0 0 12 3.251ZM12.25 16v-1.75h-3a.75.75 0 0 1-.53-1.28l.004-.004.016-.018.073-.076a15.91 15.91 0 0 0 1.185-1.439c.704-.965 1.48-2.256 1.862-3.633l.025-.074a.75.75 0 0 1 1.42.475l-.09.302c-.471 1.5-1.298 2.844-2.005 3.814-.112.153-.222.297-.327.433h1.367V12a.75.75 0 0 1 1.5 0v.75h.5a.75.75 0 0 1 0 1.5h-.5V16a.75.75 0 0 1-1.5 0Z"/>
</svg>
