<svg xmlns="http://www.w3.org/2000/svg" fill="none" viewBox="0 0 24 24">
  <path fill="currentColor" d="M21.25 12a1.66 1.66 0 0 0-.377-1.053l-.11-.122-7.589-7.588a1.66 1.66 0 0 0-2.348 0l-7.588 7.588a1.664 1.664 0 0 0-.001 2.35l7.589 7.588.12.11a1.663 1.663 0 0 0 1.69.25c.202-.083.384-.206.538-.36l7.59-7.588A1.663 1.663 0 0 0 21.25 12Zm-9 4v-1.75h-3a.75.75 0 0 1-.53-1.28l.003-.004.018-.018.073-.076a16.1 16.1 0 0 0 1.185-1.44c.703-.964 1.48-2.256 1.862-3.633a.75.75 0 0 1 1.445.401c-.45 1.623-1.341 3.082-2.096 4.117-.111.153-.221.298-.327.433h1.368V12a.75.75 0 0 1 1.5 0v.75h.5a.75.75 0 0 1 0 1.5h-.5V16a.75.75 0 0 1-1.5 0Zm10.5-4a3.16 3.16 0 0 1-.926 2.236l-7.588 7.587a3.16 3.16 0 0 1-4.472 0l-7.587-7.587a3.16 3.16 0 0 1-.107-4.359l.107-.113 7.587-7.587.113-.107a3.16 3.16 0 0 1 4.359.107l7.587 7.587A3.166 3.166 0 0 1 22.75 12Z"/>
</svg>
