<svg xmlns="http://www.w3.org/2000/svg" fill="none" viewBox="0 0 24 24">
  <path fill="currentColor" d="M8.037 2.408a2.3 2.3 0 0 1 .9-.158h6.126c.302 0 .602.036.9.158.298.122.54.31.762.53l4.337 4.337c.22.221.408.463.53.762.123.298.158.598.158.9v6.126c0 .313-.04.616-.163.914a2.3 2.3 0 0 1-.525.748l-4.337 4.337a2.3 2.3 0 0 1-.762.53 2.301 2.301 0 0 1-.9.158H8.937c-.313 0-.616-.039-.914-.163a2.301 2.301 0 0 1-.748-.525l-4.337-4.337a2.302 2.302 0 0 1-.53-.762 2.3 2.3 0 0 1-.158-.9V8.937c0-.313.039-.616.163-.914a2.3 2.3 0 0 1 .525-.748l4.337-4.337c.22-.22.463-.408.762-.53ZM13.306 8.2a.748.748 0 0 0-.813-.954.75.75 0 0 0-.632.552c-.383 1.378-1.16 2.67-1.863 3.634a16.01 16.01 0 0 1-1.185 1.44l-.072.075-.022.022a.75.75 0 0 0 .53 1.28h3V16a.75.75 0 0 0 1.5 0v-1.75h.5a.75.75 0 0 0 0-1.5h-.5V12a.75.75 0 1 0-1.5 0v.75h-1.365c.106-.135.214-.28.326-.433.755-1.035 1.645-2.494 2.096-4.116"/>
</svg>
