<svg xmlns="http://www.w3.org/2000/svg" fill="none" viewBox="0 0 24 24">
  <path fill="currentColor" d="M2.25 12A9.75 9.75 0 0 1 12 2.25 9.75 9.75 0 0 1 21.75 12 9.75 9.75 0 0 1 12 21.75 9.75 9.75 0 0 1 2.25 12Zm11.056-3.8a.75.75 0 1 0-1.445-.4c-.383 1.377-1.16 2.668-1.863 3.633a16.01 16.01 0 0 1-1.185 1.44l-.072.075-.022.022a.75.75 0 0 0 .531 1.28h3V16a.75.75 0 1 0 1.5 0v-1.75h.5a.75.75 0 1 0 0-1.5h-.5V12a.75.75 0 1 0-1.5 0v.75h-1.366c.106-.135.215-.28.326-.433.755-1.035 1.645-2.494 2.096-4.116"/>
</svg>
