<svg xmlns="http://www.w3.org/2000/svg" fill="none" viewBox="0 0 24 24">
  <path fill="currentColor" d="M20.25 12a8.25 8.25 0 1 0-16.5-.001 8.25 8.25 0 0 0 16.5.001Zm-4.545.96a.75.75 0 0 1 1.044 1.08 8.24 8.24 0 0 1-.537.473l.219.444.088.203a2.25 2.25 0 0 1-4.128 1.78l-.273-.556a8.928 8.928 0 0 1-3.539-.026l-.262-.06-.073-.023a.75.75 0 0 1 .363-1.447l.076.015.431.092a7.602 7.602 0 0 0 3.315-.159c1.317-.353 2.439-1.005 3.276-1.815Zm-.748 2.4c-.43.24-.886.448-1.366.621l.147.3.001.001a.75.75 0 1 0 1.347-.66l-.001-.002-.128-.26Zm-5.524-4.87a.75.75 0 0 1-1.448.386l-.02-.074-.104-.49.734-.156.734-.156.104.49Zm4.89-1.04a.75.75 0 0 1-1.447.386l-.02-.074-.104-.49.734-.156.734-.156.103.49ZM8.44 9.422a.75.75 0 0 1 .89.578l-1.468.312a.75.75 0 0 1 .578-.89Zm4.891-1.04a.75.75 0 0 1 .89.578l-1.468.311a.75.75 0 0 1 .578-.888ZM21.75 12a9.75 9.75 0 1 1-19.502 0 9.75 9.75 0 0 1 19.502 0Z"/>
</svg>
