<svg xmlns="http://www.w3.org/2000/svg" fill="none" viewBox="0 0 24 24">
  <path fill="currentColor" d="M20.25 18.56v-6.516c0-4.583-3.698-8.294-8.25-8.294s-8.25 3.71-8.25 8.294v6.517c0 .4.176.852.425 1.134.24.272.388.246.488.196l.186-.088c.938-.422 2.053-.544 3.068.134.622.416 1.544.416 2.166 0 .507-.339 1.053-.558 1.65-.562.598-.004 1.156.208 1.685.563.622.415 1.544.415 2.165 0 .565-.378 1.28-.493 1.912-.479.643.015 1.31.165 1.842.432l.085.029c.095.015.223-.022.403-.226.25-.282.425-.735.425-1.133Zm-4.545-5.6a.75.75 0 0 1 1.044 1.08 8.24 8.24 0 0 1-.537.473l.219.444.088.203a2.25 2.25 0 0 1-4.128 1.78l-.273-.556a8.928 8.928 0 0 1-3.539-.026l-.262-.06-.073-.023a.75.75 0 0 1 .363-1.447l.076.015.431.092a7.602 7.602 0 0 0 3.315-.159c1.317-.353 2.439-1.005 3.276-1.815Zm-.748 2.4c-.43.24-.886.448-1.366.621l.147.3.001.001a.75.75 0 1 0 1.347-.66l-.001-.002-.128-.26Zm-5.524-4.87a.75.75 0 0 1-1.448.386l-.02-.074-.104-.49.734-.156.734-.156.104.49Zm4.89-1.04a.75.75 0 0 1-1.447.386l-.02-.074-.104-.49.734-.156.734-.156.103.49ZM8.44 9.422a.75.75 0 0 1 .89.578l-1.468.312a.75.75 0 0 1 .578-.89Zm4.891-1.04a.75.75 0 0 1 .89.578l-1.468.311a.75.75 0 0 1 .578-.888Zm8.42 10.179a3.33 3.33 0 0 1-.8 2.128c-.47.53-1.25.955-2.113.62l-.174-.078c-.304-.152-.748-.263-1.202-.273-.464-.01-.832.084-1.044.227-1.126.753-2.708.753-3.834 0l-.001-.001c-.355-.238-.622-.31-.84-.309-.219.002-.481.08-.825.31-1.126.753-2.708.753-3.834 0-.412-.276-.907-.302-1.49-.07l-.256.116c-.933.469-1.785.024-2.286-.543a3.327 3.327 0 0 1-.801-2.127v-6.517C2.25 6.639 6.612 2.25 12 2.25s9.75 4.39 9.75 9.794v6.517Z"/>
</svg>
