<svg xmlns="http://www.w3.org/2000/svg" fill="none" viewBox="0 0 24 24">
  <path fill="currentColor" d="M20.25 9.4c0-1.132 0-1.937-.052-2.566-.044-.543-.124-.905-.247-1.191l-.056-.119A3.25 3.25 0 0 0 18.7 4.23l-.223-.125c-.305-.155-.69-.252-1.31-.302-.63-.052-1.434-.052-2.566-.052H9.4c-1.132 0-1.937 0-2.566.052-.543.044-.905.124-1.191.247l-.119.055A3.25 3.25 0 0 0 4.23 5.301l-.125.223c-.155.305-.252.69-.302 1.31-.052.63-.052 1.434-.052 2.566v5.2c0 1.132 0 1.937.052 2.566.05.62.147 1.005.302 1.31l.125.223c.313.51.76.924 1.295 1.196l.119.056c.286.123.648.203 1.191.247.63.052 1.434.052 2.566.052h5.2c1.132 0 1.937 0 2.566-.052.62-.05 1.005-.147 1.31-.303l.223-.125a3.25 3.25 0 0 0 1.196-1.294l.056-.119c.123-.286.203-.648.247-1.191.052-.63.052-1.434.052-2.566V9.4Zm-4.545 3.56a.75.75 0 0 1 1.044 1.08 8.24 8.24 0 0 1-.537.473l.219.444.088.203a2.25 2.25 0 0 1-4.128 1.78l-.273-.556a8.928 8.928 0 0 1-3.539-.026l-.262-.06-.073-.023a.75.75 0 0 1 .363-1.447l.076.015.431.092a7.602 7.602 0 0 0 3.315-.159c1.317-.353 2.439-1.005 3.276-1.815Zm-.748 2.4c-.43.24-.886.448-1.366.621l.147.3.001.001a.75.75 0 1 0 1.347-.66l-.001-.002-.128-.26Zm-5.524-4.87a.75.75 0 0 1-1.448.386l-.02-.074-.104-.49.734-.156.734-.156.104.49Zm4.89-1.04a.75.75 0 0 1-1.447.386l-.02-.074-.104-.49.734-.156.734-.156.103.49ZM8.44 9.422a.75.75 0 0 1 .89.578l-1.468.312a.75.75 0 0 1 .578-.89Zm4.891-1.04a.75.75 0 0 1 .89.578l-1.468.311a.75.75 0 0 1 .578-.888Zm8.42 6.218c0 1.107 0 1.984-.057 2.688-.058.713-.18 1.317-.46 1.868a4.751 4.751 0 0 1-2.077 2.076c-.551.281-1.155.403-1.868.461-.704.058-1.58.057-2.688.057H9.4c-1.107 0-1.983 0-2.688-.057-.713-.058-1.317-.18-1.868-.46a4.752 4.752 0 0 1-2.076-2.077c-.281-.551-.403-1.155-.461-1.868-.058-.704-.057-1.58-.057-2.688V9.4c0-1.107 0-1.983.057-2.688.058-.713.18-1.317.46-1.868a4.752 4.752 0 0 1 2.077-2.076c.551-.281 1.155-.403 1.868-.461.705-.058 1.58-.057 2.688-.057h5.2c1.107 0 1.984 0 2.688.057.713.058 1.317.18 1.868.46a4.752 4.752 0 0 1 2.076 2.077c.281.551.403 1.155.461 1.868.058.705.057 1.58.057 2.688v5.2Z"/>
</svg>
