<svg xmlns="http://www.w3.org/2000/svg" fill="none" viewBox="0 0 24 24">
  <path fill="currentColor" d="M12 2.25A9.75 9.75 0 0 0 2.25 12 9.75 9.75 0 0 0 12 21.75 9.75 9.75 0 0 0 21.75 12 9.75 9.75 0 0 0 12 2.25Zm1.33 6.133a.75.75 0 0 1 .89.578l.103.489a.75.75 0 1 1-1.467.312l-.104-.49a.75.75 0 0 1 .578-.889Zm-4.891 1.04a.75.75 0 0 1 .89.578l.103.489a.75.75 0 1 1-1.467.311l-.104-.489a.75.75 0 0 1 .578-.89m8.327 3.555a.75.75 0 0 1-.017 1.06c-.171.167-.35.325-.536.476l.218.445a2.25 2.25 0 0 1-4.039 1.983l-.273-.557a8.901 8.901 0 0 1-3.801-.087.75.75 0 0 1 .364-1.455c1.13.283 2.429.287 3.746-.066 1.317-.353 2.44-1.005 3.278-1.816a.75.75 0 0 1 1.06.017Z"/>
  <path fill="currentColor" d="M13.592 15.982c.48-.173.936-.38 1.366-.62l.127.258a.75.75 0 0 1-1.346.66l-.147-.298Z"/>
</svg>
