<svg xmlns="http://www.w3.org/2000/svg" fill="none" viewBox="0 0 24 24">
  <path fill="currentColor" d="M19.25 12.75h-6.5v7.5H18A1.25 1.25 0 0 0 19.25 19v-6.25Zm-3.2-9c-1.202 0-2.014.748-2.569 1.645a6.27 6.27 0 0 0-.436.855h3.005c.54 0 .883-.181 1.09-.396.215-.223.332-.531.332-.854 0-.323-.117-.631-.332-.854-.207-.215-.55-.396-1.09-.396Zm-8.1 0c-.555 0-.89.183-1.085.39a1.184 1.184 0 0 0-.306.844c.013.637.458 1.266 1.391 1.266h3.005a6.27 6.27 0 0 0-.436-.855C9.964 4.498 9.152 3.75 7.95 3.75ZM4.756 19.124A1.25 1.25 0 0 0 6 20.25h5.25v-7.5h-6.5V19l.006.124ZM20.25 9a1.25 1.25 0 0 0-1.126-1.244L19 7.75H5A1.25 1.25 0 0 0 3.75 9v2.25h16.5V9Zm1.5 3a.75.75 0 0 1-.75.75h-.25V19A2.75 2.75 0 0 1 18 21.75H6A2.75 2.75 0 0 1 3.25 19v-6.25H3a.75.75 0 0 1-.75-.75V9A2.75 2.75 0 0 1 5 6.25h.37a2.853 2.853 0 0 1-.311-1.234 2.683 2.683 0 0 1 .716-1.906c.514-.543 1.26-.86 2.175-.86 1.948 0 3.161 1.252 3.844 2.355.074.12.142.24.206.357.064-.118.132-.237.206-.357.683-1.103 1.896-2.355 3.844-2.355.907 0 1.652.319 2.169.854.508.527.753 1.219.753 1.896 0 .426-.097.857-.295 1.25H19A2.75 2.75 0 0 1 21.75 9v3Z"/>
</svg>
