<svg xmlns="http://www.w3.org/2000/svg" fill="none" viewBox="0 0 24 24">
  <path fill="currentColor" d="M8.25 6a2.25 2.25 0 0 0-2.027-2.24L6 3.75A2.25 2.25 0 0 0 3.75 6l.01.223A2.25 2.25 0 0 0 8.25 6Zm11.99 11.777A2.25 2.25 0 1 0 18 20.25l.223-.01A2.25 2.25 0 0 0 20.25 18l-.01-.223Zm1.505.409a3.75 3.75 0 1 1-4.495-3.86V7.5a1.25 1.25 0 0 0-1.126-1.244L16 6.25h-2.19l1.22 1.22.052.056a.75.75 0 0 1-1.056 1.056l-.056-.052-2.5-2.5a.75.75 0 0 1 0-1.06l2.5-2.5a.75.75 0 1 1 1.06 1.06l-1.22 1.22H16a2.75 2.75 0 0 1 2.75 2.75v6.825a3.75 3.75 0 0 1 3 3.675l-.005.186ZM9.75 6a3.75 3.75 0 0 1-3 3.674V16.5l.006.124A1.25 1.25 0 0 0 8 17.75h2.19l-1.22-1.22-.052-.056a.75.75 0 0 1 1.056-1.056l.056.052 2.5 2.5a.75.75 0 0 1 0 1.06l-2.5 2.5a.75.75 0 1 1-1.06-1.06l1.22-1.22H8a2.75 2.75 0 0 1-2.75-2.75V9.674a3.75 3.75 0 0 1-2.995-3.488L2.25 6A3.75 3.75 0 0 1 6 2.25l.186.005A3.75 3.75 0 0 1 9.75 6Z"/>
</svg>
