<svg xmlns="http://www.w3.org/2000/svg" fill="none" viewBox="0 0 24 24">
  <path fill="currentColor" d="M12 10.75a1.25 1.25 0 1 0 0 2.5 1.25 1.25 0 0 0 0-2.5Z"/>
  <path fill="currentColor" d="M10.79 1.49a3.2 3.2 0 0 0-1.025.686l-7.588 7.59a3.16 3.16 0 0 0 0 4.47l7.588 7.587a3.16 3.16 0 0 0 4.47 0l7.588-7.588a3.16 3.16 0 0 0 0-4.47l-7.588-7.588a3.16 3.16 0 0 0-3.445-.686m-1.436 9.76a2.75 2.75 0 0 1 5.293 0H17a.75.75 0 0 1 0 1.5h-2.354a2.751 2.751 0 0 1-5.292 0H7a.75.75 0 1 1 0-1.5h2.354Z"/>
</svg>
