<svg xmlns="http://www.w3.org/2000/svg" fill="none" viewBox="0 0 24 24">
  <path fill="currentColor" d="M20.24 17.777A2.25 2.25 0 1 0 18 20.25l.223-.01A2.25 2.25 0 0 0 20.25 18l-.01-.223ZM8.25 6a2.25 2.25 0 0 0-2.027-2.24L6 3.75A2.25 2.25 0 0 0 3.75 6l.01.223A2.25 2.25 0 0 0 8.25 6Zm1.5 0a3.75 3.75 0 0 1-2.972 3.667 8.25 8.25 0 0 0 2.388 5.167 8.248 8.248 0 0 0 5.166 2.387A3.75 3.75 0 0 1 21.75 18l-.005.186a3.75 3.75 0 0 1-3.56 3.56L18 21.75a3.75 3.75 0 0 1-3.68-3.027 9.748 9.748 0 0 1-6.215-2.828A9.74 9.74 0 0 1 6.75 14.19V21a.75.75 0 0 1-1.5 0V9.674a3.75 3.75 0 0 1-2.995-3.488L2.25 6A3.75 3.75 0 0 1 6 2.25l.186.005A3.75 3.75 0 0 1 9.75 6Z"/>
</svg>
