<svg xmlns="http://www.w3.org/2000/svg" fill="none" viewBox="0 0 24 24">
  <path fill="currentColor" d="M20.24 5.777a2.25 2.25 0 1 0 .01.223l-.01-.223ZM3.75 18A2.25 2.25 0 0 0 6 20.25l.223-.01A2.25 2.25 0 1 0 3.75 18ZM21.745 6.186a3.75 3.75 0 0 1-3.022 3.494 9.747 9.747 0 0 1-2.828 6.215 9.747 9.747 0 0 1-6.215 2.828 3.75 3.75 0 0 1-3.494 3.022L6 21.75a3.75 3.75 0 0 1-.75-7.425V3a.75.75 0 0 1 1.5 0v11.325a3.75 3.75 0 0 1 2.917 2.896 8.248 8.248 0 0 0 5.167-2.387 8.248 8.248 0 0 0 2.387-5.167 3.749 3.749 0 1 1 3.43-6.318A3.75 3.75 0 0 1 21.75 6l-.005.186Z"/>
</svg>
