<svg xmlns="http://www.w3.org/2000/svg" fill="none" viewBox="0 0 24 24">
  <path fill="currentColor" d="M8.212 5.764a.75.75 0 0 1-.476.948c-.88.292-1.265.466-1.492.695-.186.19-.347.505-.425 1.365L5.544 11.8a3.75 3.75 0 0 1 5.622 2.405 4.602 4.602 0 0 1 1.668 0 3.75 3.75 0 0 1 5.622-2.405l-.275-3.028c-.078-.86-.239-1.177-.425-1.365-.227-.229-.61-.402-1.492-.695a.75.75 0 1 1 .472-1.424c.817.272 1.564.537 2.085 1.063.562.567.766 1.32.854 2.285l.52 5.716a3.75 3.75 0 0 1-7.373 1.384 3.2 3.2 0 0 0-1.644 0 3.751 3.751 0 0 1-7.372-1.384l.52-5.716c.087-.965.292-1.718.853-2.285.521-.526 1.268-.792 2.085-1.063a.75.75 0 0 1 .948.476Z"/>
</svg>
