<svg xmlns="http://www.w3.org/2000/svg" fill="none" viewBox="0 0 24 24">
  <path fill="currentColor" d="M15.788 5.764a.75.75 0 0 1 .874-.496l.074.02.597.207c.58.214 1.097.462 1.488.857.561.566.766 1.32.854 2.284l.52 5.734c.036.207.055.418.055.63l-.005.186a3.75 3.75 0 0 1-7.423.553 3.203 3.203 0 0 0-1.645 0 3.75 3.75 0 0 1-7.372-1.369l.52-5.734c.088-.965.293-1.718.854-2.284.521-.527 1.268-.792 2.085-1.064a.75.75 0 0 1 .472 1.424c-.88.293-1.265.466-1.492.695-.187.189-.346.506-.425 1.366L5.543 11.8a3.75 3.75 0 0 1 5.621 2.404 4.618 4.618 0 0 1 1.671 0 3.75 3.75 0 0 1 5.621-2.404l-.275-3.03c-.079-.86-.239-1.175-.425-1.364-.17-.171-.429-.312-.92-.495l-.572-.2-.072-.028a.75.75 0 0 1-.404-.92ZM7.5 12.75a2.25 2.25 0 0 0-2.208 1.818l-.041.455A2.25 2.25 0 0 0 7.5 17.25l.223-.01a2.25 2.25 0 0 0-.223-4.49Zm9 0a2.25 2.25 0 0 0 0 4.5l.223-.01a2.25 2.25 0 0 0 2.025-2.217l-.041-.455A2.248 2.248 0 0 0 16.5 12.75Z"/>
</svg>
