<svg xmlns="http://www.w3.org/2000/svg" fill="none" viewBox="0 0 24 24">
  <path fill="currentColor" d="M7.309 12c0-.716.041-1.479.124-2.25H4.064A8.249 8.249 0 0 0 3.75 12c0 .762.107 1.52.314 2.25h3.369A21.335 21.335 0 0 1 7.309 12Zm1.865 3.75c.136.683.31 1.34.525 1.934.302.834.667 1.499 1.074 1.942.396.432.799.624 1.227.624.428 0 .831-.192 1.227-.624.407-.443.772-1.108 1.074-1.942.214-.594.39-1.25.525-1.934H9.174Zm-4.52 0c.392.768.9 1.472 1.512 2.084a8.25 8.25 0 0 0 2.677 1.788c.04.017.082.03.123.047a9.092 9.092 0 0 1-.677-1.475 15.387 15.387 0 0 1-.642-2.444H4.654Zm11.698 0a15.382 15.382 0 0 1-.641 2.444 9.094 9.094 0 0 1-.678 1.475c.041-.016.083-.03.124-.047a8.25 8.25 0 0 0 2.677-1.788 8.248 8.248 0 0 0 1.512-2.084h-2.994ZM15.034 4.33c.264.453.489.953.678 1.476.274.756.486 1.59.641 2.444h2.994a8.247 8.247 0 0 0-1.512-2.084 8.251 8.251 0 0 0-2.677-1.788c-.04-.017-.083-.032-.124-.048ZM12 3.75c-.428 0-.831.192-1.227.624-.407.443-.772 1.107-1.074 1.942-.215.594-.39 1.25-.525 1.934h5.652c-.136-.683-.31-1.34-.525-1.934-.302-.835-.667-1.499-1.074-1.942-.396-.432-.799-.624-1.227-.624Zm-3.157.628a8.25 8.25 0 0 0-2.677 1.788A8.248 8.248 0 0 0 4.654 8.25h2.993a15.33 15.33 0 0 1 .642-2.444 9.096 9.096 0 0 1 .677-1.476c-.041.016-.083.031-.123.048ZM8.809 12c0 .72.044 1.486.132 2.25h6.118c.088-.764.132-1.53.132-2.25s-.044-1.486-.132-2.25H8.94c-.088.764-.132 1.53-.132 2.25Zm7.882 0c0 .716-.041 1.479-.124 2.25h3.369c.207-.73.314-1.488.314-2.25s-.107-1.52-.314-2.25h-3.369c.083.771.124 1.534.124 2.25Zm5.059 0a9.748 9.748 0 0 1-.507 3.092.742.742 0 0 1-.1.286 8.843 8.843 0 0 1-.135.353 9.75 9.75 0 0 1-18.016 0c-.048-.116-.092-.235-.136-.353a.74.74 0 0 1-.1-.286A9.746 9.746 0 0 1 2.25 12c0-1.053.174-2.097.507-3.093a.74.74 0 0 1 .1-.286 8.8 8.8 0 0 1 .135-.352A9.75 9.75 0 0 1 12 2.25l.48.012a9.751 9.751 0 0 1 8.528 6.007c.048.116.092.234.136.352.05.086.086.182.1.286.332.996.506 2.04.506 3.093Z"/>
</svg>
