<svg xmlns="http://www.w3.org/2000/svg" fill="none" viewBox="0 0 24 24">
  <path fill="currentColor" d="M9.75 17.257c0-.905-.002-1.508-.063-1.957-.057-.427-.154-.6-.266-.712l-.002-.002c-.111-.112-.285-.21-.712-.267-.449-.06-1.052-.062-1.957-.062s-1.508.002-1.957.062c-.427.058-.6.155-.712.267l-.002.002c-.112.111-.209.285-.266.712-.06.449-.063 1.052-.063 1.957s.002 1.509.063 1.958c.043.32.108.498.185.613l.081.097.002.003c.111.111.285.21.712.267.449.06 1.052.062 1.957.062s1.508-.001 1.957-.062c.427-.057.6-.156.712-.267l.002-.002c.112-.111.209-.284.267-.711.06-.449.062-1.053.062-1.958Zm10.5 0c0-.905-.002-1.508-.063-1.957-.057-.427-.154-.6-.266-.712l-.002-.002c-.111-.112-.285-.21-.712-.267-.449-.06-1.052-.062-1.957-.062s-1.508.002-1.957.062c-.427.058-.6.155-.712.267l-.002.002c-.112.111-.209.285-.267.712-.06.449-.062 1.052-.062 1.957s.002 1.509.063 1.958c.043.32.108.498.186.613l.08.098.002.002c.111.111.285.21.712.267.449.06 1.052.062 1.957.062s1.508-.001 1.957-.062c.427-.057.6-.156.712-.267l.002-.002c.111-.111.209-.284.267-.711.06-.449.062-1.053.062-1.958ZM9.75 6.75c0-.905-.002-1.508-.063-1.957-.057-.427-.154-.6-.266-.712l-.002-.002c-.111-.112-.284-.209-.711-.266-.449-.06-1.052-.063-1.958-.063-.906 0-1.51.002-1.958.063-.427.057-.6.155-.71.266l-.003.002c-.112.111-.209.285-.266.712-.06.449-.063 1.052-.063 1.957 0 .906.002 1.51.063 1.958.043.32.108.497.185.612l.081.098.002.003c.111.112.285.209.712.267.449.06 1.052.062 1.957.062s1.508-.002 1.957-.063c.427-.057.6-.154.712-.266l.002-.002c.112-.111.209-.285.267-.712.06-.449.062-1.052.062-1.957Zm10.5 0c0-.905-.002-1.508-.063-1.957-.057-.427-.154-.6-.266-.712l-.002-.002c-.111-.112-.285-.209-.712-.266-.449-.06-1.052-.063-1.957-.063s-1.508.002-1.957.063c-.427.057-.6.154-.712.266l-.002.002c-.112.111-.209.285-.267.712-.06.449-.062 1.052-.062 1.957s.002 1.508.063 1.957c.043.32.109.498.186.613l.08.099.002.002c.111.112.285.209.712.267.449.06 1.052.062 1.957.062s1.508-.002 1.957-.063c.427-.057.6-.154.712-.266l.002-.002c.112-.111.209-.285.267-.712.06-.449.062-1.052.062-1.957Zm-9 10.507c0 .863.002 1.586-.075 2.158-.08.593-.258 1.134-.695 1.57l.001.001c-.436.439-.98.616-1.574.696-.572.077-1.294.075-2.157.075s-1.585.002-2.157-.075c-.594-.08-1.138-.257-1.574-.696-.437-.436-.614-.979-.694-1.571-.077-.572-.075-1.295-.075-2.158s-.002-1.585.075-2.157c.08-.594.257-1.138.696-1.575.436-.436.979-.613 1.572-.693.572-.077 1.294-.075 2.157-.075s1.585-.002 2.157.075c.593.08 1.136.257 1.572.693l.153.17c.328.404.473.885.543 1.405.077.572.075 1.294.075 2.157Zm10.5 0c0 .863.002 1.586-.075 2.158-.08.593-.258 1.134-.695 1.57l.001.001c-.436.439-.98.616-1.574.696-.572.077-1.294.075-2.157.075s-1.585.002-2.157-.075c-.594-.08-1.138-.257-1.574-.696-.437-.436-.614-.978-.694-1.571-.077-.572-.075-1.295-.075-2.158s-.002-1.585.075-2.157c.08-.594.257-1.138.696-1.575.436-.436.979-.613 1.572-.693.572-.077 1.294-.075 2.157-.075s1.585-.002 2.157.075c.593.08 1.136.257 1.573.693l.152.17c.328.404.473.885.543 1.405.077.572.075 1.294.075 2.157ZM11.25 6.75c0 .863.002 1.585-.075 2.157-.08.593-.258 1.135-.695 1.572-.436.438-.979.616-1.573.696-.572.077-1.294.075-2.157.075s-1.585.002-2.157-.075c-.594-.08-1.138-.257-1.574-.696-.437-.435-.614-.978-.694-1.57-.077-.573-.075-1.296-.075-2.159 0-.863-.002-1.585.075-2.157.08-.594.257-1.138.696-1.574.435-.437.978-.614 1.57-.694.573-.077 1.296-.075 2.159-.075.863 0 1.586-.002 2.158.075.593.08 1.135.257 1.572.694l.152.168c.328.405.473.886.543 1.406.077.572.075 1.294.075 2.157Zm10.5 0c0 .863.002 1.585-.075 2.157-.08.593-.258 1.135-.695 1.572-.436.438-.979.616-1.573.696-.572.077-1.294.075-2.157.075s-1.585.002-2.157-.075c-.594-.08-1.138-.257-1.574-.696-.437-.436-.614-.98-.694-1.572-.077-.572-.075-1.294-.075-2.157s-.002-1.585.075-2.157c.08-.594.257-1.138.696-1.574.436-.437.979-.614 1.572-.694.572-.077 1.294-.075 2.157-.075s1.585-.002 2.157.075c.593.08 1.136.257 1.573.694l.152.168c.328.405.473.886.543 1.406.077.572.075 1.294.075 2.157Z"/>
</svg>
