<svg xmlns="http://www.w3.org/2000/svg" fill="none" viewBox="0 0 24 24">
  <path fill="currentColor" d="M6.699 2.25c-.84 0-1.546 0-2.106.075-.594.08-1.137.257-1.574.694-.437.437-.614.98-.694 1.574-.075.56-.075 1.266-.075 2.106V6.8c0 .84 0 1.546.075 2.106.08.594.257 1.137.694 1.574.437.437.98.614 1.574.694.56.075 1.266.075 2.106.075H6.8c.84 0 1.546 0 2.106-.075.594-.08 1.137-.257 1.574-.694.437-.437.614-.98.694-1.574.075-.56.075-1.266.075-2.106v-.1c0-.84 0-1.546-.075-2.106-.08-.594-.257-1.137-.694-1.574-.437-.437-.98-.614-1.574-.694-.56-.075-1.266-.075-2.106-.075l-.101-.001Zm10.5 0c-.84 0-1.546 0-2.106.075-.594.08-1.137.257-1.574.694-.437.437-.614.98-.694 1.574-.075.56-.075 1.266-.075 2.106V6.8c0 .84 0 1.546.075 2.106.08.594.257 1.137.694 1.574.437.437.98.614 1.574.694.56.075 1.266.075 2.106.075h.102c.84 0 1.546 0 2.106-.075.594-.08 1.137-.257 1.574-.694.437-.437.614-.98.694-1.574.075-.56.075-1.266.075-2.106v-.1c0-.84 0-1.546-.075-2.106-.08-.594-.257-1.137-.694-1.574-.437-.437-.98-.614-1.574-.694-.56-.075-1.265-.075-2.105-.075l-.103-.001Zm-10.5 10.507c-.84 0-1.546 0-2.106.075-.594.08-1.137.257-1.574.694-.437.437-.614.98-.694 1.574-.075.56-.075 1.266-.075 2.106v.102c0 .84 0 1.546.075 2.106.08.594.257 1.137.694 1.574.437.437.98.614 1.574.694.56.075 1.266.075 2.106.075H6.8c.84 0 1.546 0 2.106-.075.594-.08 1.137-.257 1.574-.694.437-.437.614-.98.694-1.574.075-.56.075-1.266.075-2.106v-.102c0-.84 0-1.545-.075-2.106-.08-.594-.257-1.137-.694-1.574-.437-.437-.98-.614-1.574-.694-.56-.075-1.266-.075-2.106-.075h-.101Zm10.5 0c-.84 0-1.546 0-2.106.075-.594.08-1.137.257-1.574.694-.437.437-.614.98-.694 1.574-.075.56-.075 1.266-.075 2.106v.102c0 .84 0 1.546.075 2.106.08.594.257 1.137.694 1.574.437.437.98.614 1.574.694.56.075 1.266.075 2.106.075h.102c.84 0 1.546 0 2.106-.075.594-.08 1.137-.257 1.574-.694.437-.437.614-.98.694-1.574.075-.56.075-1.266.075-2.106v-.102c0-.84 0-1.545-.075-2.106-.08-.594-.257-1.137-.694-1.574-.437-.437-.98-.614-1.574-.694-.56-.075-1.266-.075-2.105-.075h-.103Z"/>
</svg>
