<svg xmlns="http://www.w3.org/2000/svg" fill="none" viewBox="0 0 24 24">
  <path fill="currentColor" d="M14.6 2.25c1.107 0 1.984 0 2.688.057.713.058 1.317.18 1.868.46a4.752 4.752 0 0 1 2.076 2.077c.281.551.403 1.155.461 1.868.058.705.057 1.58.057 2.688v5.2c0 1.107 0 1.984-.057 2.688-.058.713-.18 1.317-.46 1.868a4.751 4.751 0 0 1-2.077 2.076c-.551.281-1.155.403-1.868.461-.704.058-1.58.057-2.688.057H9.4c-1.107 0-1.983 0-2.688-.057-.713-.058-1.317-.18-1.868-.46a4.752 4.752 0 0 1-2.076-2.077c-.281-.551-.403-1.155-.461-1.868-.058-.704-.057-1.58-.057-2.688V9.4c0-1.107 0-1.983.057-2.688.058-.713.18-1.317.46-1.868a4.752 4.752 0 0 1 2.077-2.076c.551-.281 1.155-.403 1.868-.461.705-.058 1.58-.057 2.688-.057h5.2Zm-4.45 18h3.7v-4.9h-3.7v4.9Zm-6.396-4.9c.002.753.008 1.335.048 1.816.05.62.147 1.005.302 1.31l.125.223c.313.51.76.924 1.295 1.196l.119.056c.286.123.648.203 1.191.247.48.04 1.063.046 1.816.048V15.35H3.754Zm11.596 4.896c.753-.002 1.335-.008 1.816-.048.62-.05 1.005-.147 1.31-.303l.223-.125a3.25 3.25 0 0 0 1.196-1.294l.056-.119c.123-.286.203-.648.247-1.191.04-.48.046-1.063.048-1.816H15.35v4.896Zm0-6.396h4.9v-3.7h-4.9v3.7Zm-5.2 0h3.7v-3.7h-3.7v3.7Zm-6.4 0h4.9v-3.7h-4.9v3.7Zm11.6-5.2h4.896c-.002-.753-.008-1.335-.048-1.816-.044-.543-.124-.905-.247-1.191l-.056-.119A3.25 3.25 0 0 0 18.7 4.23l-.223-.125c-.305-.155-.69-.252-1.31-.302-.48-.04-1.063-.047-1.816-.05V8.65Zm-5.2 0h3.7v-4.9h-3.7v4.9Zm-1.5-4.897c-.753.002-1.335.01-1.816.049-.543.044-.905.124-1.191.247l-.119.055A3.25 3.25 0 0 0 4.23 5.301l-.125.223c-.155.305-.252.69-.302 1.31-.04.48-.046 1.063-.048 1.816H8.65V3.753Z"/>
</svg>
