<svg xmlns="http://www.w3.org/2000/svg" fill="none" viewBox="0 0 24 24">
  <path fill="currentColor" d="M9.367 2.25h5.266c1.092 0 1.958 0 2.655.057.714.058 1.317.18 1.869.46a4.75 4.75 0 0 1 2.075 2.077c.281.55.403 1.154.461 1.868.057.697.057 1.563.057 2.655v5.266c0 1.092 0 1.958-.057 2.655-.058.714-.18 1.317-.46 1.869a4.75 4.75 0 0 1-2.076 2.075c-.552.281-1.155.403-1.869.461-.697.057-1.563.057-2.655.057H9.367c-1.092 0-1.958 0-2.655-.057-.714-.058-1.317-.18-1.868-.46a4.75 4.75 0 0 1-2.076-2.076c-.281-.552-.403-1.155-.461-1.869-.057-.697-.057-1.563-.057-2.655V9.367c0-1.092 0-1.958.057-2.655.058-.714.18-1.317.46-1.868a4.75 4.75 0 0 1 2.077-2.076c.55-.281 1.154-.403 1.868-.461.697-.057 1.563-.057 2.655-.057ZM6.834 3.802c-.62.05-1.005.147-1.31.302a3.25 3.25 0 0 0-1.42 1.42c-.155.305-.251.69-.302 1.31-.04.48-.049 1.063-.051 1.816H8.65v-4.9a25.002 25.002 0 0 0-1.816.052Zm3.316-.052v4.9h3.7v-4.9h-3.7Zm5.2 0v4.9h4.9a24.02 24.02 0 0 0-.052-1.816c-.05-.62-.147-1.005-.302-1.31a3.25 3.25 0 0 0-1.42-1.42c-.305-.155-.69-.251-1.31-.302-.48-.04-1.063-.05-1.816-.052Zm4.9 6.401h-4.9v3.7h4.9v-3.7Zm0 5.2h-4.9v4.9a24.02 24.02 0 0 0 1.816-.052c.62-.05 1.005-.147 1.31-.302a3.25 3.25 0 0 0 1.42-1.42c.155-.305.251-.69.302-1.31.04-.48.05-1.063.052-1.816Zm-6.401 4.9v-4.9h-3.7v4.9h3.7Zm-5.2 0v-4.9h-4.9c.003.753.013 1.336.052 1.816.05.62.147 1.005.302 1.31a3.25 3.25 0 0 0 1.42 1.42c.305.155.69.251 1.31.302.48.04 1.063.05 1.816.052Zm-4.9-6.401h4.9v-3.7h-4.9v3.7Zm6.4-3.7v3.7h3.7v-3.7h-3.7Z"/>
</svg>
