<svg xmlns="http://www.w3.org/2000/svg" fill="none" viewBox="0 0 24 24">
  <path fill="currentColor" d="M14.594 4.44a2.8 2.8 0 0 1 1.063-.19c1.176.023 2.521.832 2.521 2.462v.323c.34-.133.701-.19 1.05-.184 1.177.022 2.522.83 2.522 2.46v4.4c0 3.843-2.76 6.463-5.977 7.51-3.202 1.04-7.092.608-9.582-1.885l-.002-.002-3.214-3.24-.027-.028c-1.038-1.16-.82-2.85.01-3.828.434-.515 1.077-.885 1.854-.875.328.004.653.074.976.21V6.711c0-.81.332-1.458.864-1.887.513-.413 1.162-.586 1.773-.574.375.006.76.083 1.118.236.053-.693.352-1.259.816-1.65.495-.42 1.128-.598 1.726-.586 1.11.02 2.368.74 2.51 2.19Z"/>
</svg>
