<svg xmlns="http://www.w3.org/2000/svg" fill="none" viewBox="0 0 24 24">
  <path fill="currentColor" d="M16.678 6.712c0-.582-.44-.95-1.05-.961a1.102 1.102 0 0 0-.73.231c-.153.13-.285.342-.29.708V10a.75.75 0 0 1-1.5 0V6.738l-.002-.026.001-.021V4.712c0-.583-.44-.95-1.05-.961a1.102 1.102 0 0 0-.73.231c-.157.133-.292.351-.292.73v1.8a.738.738 0 0 1-.004.076c.002.041.003.083.003.124v4.05a.75.75 0 0 1-1.5 0v-4.05a.832.832 0 0 0-.31-.683 1.364 1.364 0 0 0-.828-.278c-.326-.006-.613.09-.803.243-.17.137-.306.353-.306.718v5.977l.78.78a.751.751 0 0 1-1.06 1.062L6.006 13.53c-.531-.533-.949-.664-1.213-.667-.257-.003-.496.112-.692.344-.434.511-.485 1.346-.043 1.85l3.194 3.219c1.989 1.991 5.24 2.434 8.057 1.518 2.803-.912 4.94-3.081 4.941-6.082v-4.4c0-.583-.441-.95-1.05-.96a1.1 1.1 0 0 0-.73.23c-.156.133-.292.35-.292.73v1.9a.75.75 0 0 1-1.5 0v-4.5Zm1.5.326c.34-.134.7-.194 1.05-.187 1.177.023 2.522.831 2.522 2.461v4.4c0 3.843-2.761 6.462-5.978 7.508-3.201 1.041-7.09.609-9.58-1.883l-.003-.003-3.214-3.24-.027-.027c-1.039-1.16-.82-2.851.008-3.83.436-.513 1.079-.884 1.855-.874.327.004.654.075.976.21v-4.86c0-.81.333-1.459.865-1.887.513-.413 1.161-.586 1.772-.575.376.007.763.084 1.122.238.053-.694.35-1.26.813-1.653.496-.418 1.128-.596 1.726-.585 1.11.022 2.369.742 2.509 2.19a2.738 2.738 0 0 1 1.062-.19c1.176.023 2.522.831 2.522 2.461v.326Z"/>
</svg>
