<svg xmlns="http://www.w3.org/2000/svg" fill="none" viewBox="0 0 24 24">
  <path fill="currentColor" d="M20.246 13.838c0-.03-.003-.059-.005-.088H3.76c-.005.11-.009.221-.009.332V19A1.25 1.25 0 0 0 5 20.25h14A1.25 1.25 0 0 0 20.25 19v-4.918l-.004-.244ZM14 16.25a.75.75 0 0 1 0 1.5h-1a.75.75 0 0 1 0-1.5h1Zm4 0a.75.75 0 0 1 0 1.5h-1a.75.75 0 0 1 0-1.5h1ZM7.067 3.762a1.251 1.251 0 0 0-.92.636l-2.136 7.758-.025.094h16.028l-.025-.094-2.137-7.758a1.248 1.248 0 0 0-.92-.636l-.172-.012H7.24l-.173.012ZM21.75 19A2.75 2.75 0 0 1 19 21.75H5A2.75 2.75 0 0 1 2.25 19v-4.918c0-.785.107-1.567.315-2.324L4.727 3.91l.051-.135A2.75 2.75 0 0 1 7.24 2.25h9.522l.191.007a2.75 2.75 0 0 1 2.179 1.351l.09.168.052.135 2.162 7.847c.208.757.315 1.539.315 2.324V19Z"/>
</svg>
