<svg xmlns="http://www.w3.org/2000/svg" fill="none" viewBox="0 0 24 24">
  <path fill="currentColor" d="M16.315 3.87a.75.75 0 0 1 1.477.26L17.1 8.032H21l.077.004a.75.75 0 0 1 0 1.492L21 9.531h-4.167l-1.054 5.938H21a.75.75 0 0 1 0 1.5h-5.487l-.74 4.162a.75.75 0 0 1-1.476-.262l.692-3.9H8.155l-.739 4.162a.75.75 0 1 1-1.477-.262l.693-3.9H3a.75.75 0 0 1 0-1.5h3.898L7.953 9.53H3a.75.75 0 0 1 0-1.5h5.22l.739-4.162a.75.75 0 1 1 1.476.262l-.692 3.9h5.833l.74-4.162ZM8.422 15.468h5.834L15.31 9.53H9.477l-1.055 5.94Z"/>
</svg>
