<svg xmlns="http://www.w3.org/2000/svg" fill="none" viewBox="0 0 24 24">
  <path fill="currentColor" d="M20.25 12a8.25 8.25 0 1 0-16.5-.001 8.25 8.25 0 0 0 16.5.001Zm-6.583-4.133a.75.75 0 1 1 1.477.266L14.898 9.5h1.384l.076.004a.75.75 0 0 1 0 1.492l-.076.004h-1.654l-.36 2h2.014a.75.75 0 0 1 0 1.5H14l-.293 1.633a.75.75 0 0 1-1.476-.266l.246-1.367H10.5l-.293 1.633a.75.75 0 0 1-1.477-.266l.247-1.367H7.718a.75.75 0 0 1 0-1.5h1.527l.36-2H7.717a.75.75 0 0 1 0-1.5h2.156l.293-1.633a.75.75 0 1 1 1.477.266L11.398 9.5h1.976l.293-1.633ZM10.769 13h1.976l.36-2h-1.977l-.36 2Zm10.981-1a9.75 9.75 0 1 1-19.502 0 9.75 9.75 0 0 1 19.502 0Z"/>
</svg>
