<svg xmlns="http://www.w3.org/2000/svg" fill="none" viewBox="0 0 24 24">
  <path fill="currentColor" d="M21.75 20.5a.75.75 0 0 0-.75-.75H3a.75.75 0 1 0 0 1.5h18a.75.75 0 0 0 .75-.75Zm0-3.5a.75.75 0 0 0-.75-.75H3a.75.75 0 1 0 0 1.5h18a.75.75 0 0 0 .75-.75ZM4.877 12.154 4.8 12.15H3a.75.75 0 1 0 0 1.5h1.8l.077-.004a.75.75 0 0 0 0-1.492Zm16 0-.077-.004H19a.75.75 0 1 0 0 1.5h1.8l.077-.004a.75.75 0 0 0 0-1.492ZM7.757 7.702l-.05-.056-1.278-1.279A.751.751 0 0 0 5.367 7.43l1.279 1.277.056.052a.75.75 0 0 0 1.056-1.056M5.367 7.43l1.062-1.063-.529.531-.533.532Zm13.067-1.062a.75.75 0 0 0-1.06 0l-1.28 1.279a.75.75 0 1 0 1.061 1.06l1.279-1.277a.75.75 0 0 0 0-1.062ZM11.25 3.5v2a.75.75 0 1 0 1.5 0v-2a.75.75 0 1 0-1.5 0ZM12 8.75A4.25 4.25 0 0 1 16.25 13a.75.75 0 0 1-.75.75h-7a.75.75 0 0 1-.75-.75A4.25 4.25 0 0 1 12 8.75Z"/>
</svg>
