<svg xmlns="http://www.w3.org/2000/svg" fill="none" viewBox="0 0 24 24">
  <path fill="currentColor" d="M21 19.75a.75.75 0 0 1 0 1.5H3a.75.75 0 0 1 0-1.5h18Zm0-3.5a.75.75 0 0 1 0 1.5H3a.75.75 0 0 1 0-1.5h18ZM14.75 13a2.751 2.751 0 0 0-3.803-2.541A2.748 2.748 0 0 0 9.25 13a.75.75 0 0 1-1.5 0 4.25 4.25 0 1 1 8.5 0 .75.75 0 0 1-1.5 0Zm-9.95-.85a.75.75 0 0 1 0 1.5H3a.75.75 0 0 1 0-1.5h1.8Zm16 0a.75.75 0 0 1 0 1.5H19a.75.75 0 0 1 0-1.5h1.8ZM7.706 7.646a.75.75 0 1 1-1.06 1.06L5.367 7.429l.531-.53.53-.532 1.278 1.279Zm9.666-1.279a.75.75 0 0 1 1.06 1.062l-1.278 1.277a.75.75 0 1 1-1.06-1.06l1.278-1.279Zm-12.005 0a.751.751 0 0 1 1.062 0L5.367 7.43a.751.751 0 0 1 0-1.062ZM11.25 5.5v-2a.75.75 0 0 1 1.5 0v2a.75.75 0 0 1-1.5 0Z"/>
</svg>
