<svg xmlns="http://www.w3.org/2000/svg" fill="none" viewBox="0 0 24 24">
  <path fill="currentColor" d="M12.5 19.5v-6.75h-8v6.75a.75.75 0 0 1-1.5 0v-15a.75.75 0 0 1 1.5 0v6.75h8V4.5a.75.75 0 0 1 1.5 0v15a.75.75 0 0 1-1.5 0Zm7.75-7.56c0-.603-.224-1.004-.523-1.263-.314-.273-.757-.427-1.227-.427-.47 0-.913.154-1.227.427-.3.26-.523.66-.523 1.263a.75.75 0 0 1-1.5 0c0-1.024.402-1.843 1.04-2.397.623-.54 1.43-.793 2.21-.793s1.587.253 2.21.793c.639.554 1.04 1.373 1.04 2.397 0 .941-.41 1.768-.925 2.475-.512.704-1.184 1.363-1.802 1.963-.64.62-1.22 1.174-1.649 1.727-.18.232-.318.446-.418.645H21a.75.75 0 0 1 0 1.5h-5a.75.75 0 0 1-.75-.75c0-.885.431-1.661.939-2.314.508-.656 1.178-1.294 1.788-1.885.632-.612 1.21-1.185 1.635-1.769.423-.58.638-1.098.638-1.592Z"/>
</svg>
