<svg xmlns="http://www.w3.org/2000/svg" fill="none" viewBox="0 0 24 24">
  <path fill="currentColor" d="M12.5 19.5v-6.75h-8v6.75a.75.75 0 0 1-1.5 0v-15a.75.75 0 0 1 1.5 0v6.75h8V4.5a.75.75 0 0 1 1.5 0v15a.75.75 0 0 1-1.5 0Zm7.75-3.125c0-.691-.218-1.099-.485-1.34-.28-.254-.709-.41-1.265-.41-.557 0-.985.156-1.265.41-.267.24-.485.648-.485 1.34 0 1.476.932 2.375 1.75 2.375s1.75-.9 1.75-2.375Zm1.5 0c0 1.974-1.308 3.875-3.25 3.875s-3.25-1.9-3.25-3.875V13.25c0-2.32 1.531-4.5 3.75-4.5h1a.75.75 0 0 1 0 1.5h-1c-1.095 0-2.25 1.178-2.25 3v.299c.53-.296 1.14-.424 1.75-.424.823 0 1.646.232 2.27.797.638.577.98 1.42.98 2.453Z"/>
</svg>
