<svg xmlns="http://www.w3.org/2000/svg" fill="none" viewBox="0 0 24 24">
  <path fill="currentColor" d="M12.5 19.5v-6.75h-8v6.75a.75.75 0 0 1-1.5 0v-15a.75.75 0 0 1 1.5 0v6.75h8V4.5a.75.75 0 0 1 1.5 0v15a.75.75 0 0 1-1.5 0Zm7.75-2.49c0-.794-.287-1.322-.719-1.667-.454-.364-1.146-.586-2.031-.586a.75.75 0 0 1-.593-1.21l2.56-3.297H16a.75.75 0 0 1 0-1.5h5a.75.75 0 0 1 .593 1.21l-2.689 3.46c.58.146 1.115.392 1.565.753.818.655 1.28 1.63 1.281 2.838 0 .85-.268 1.57-.738 2.119-.465.542-1.09.876-1.748 1.025-1.295.295-2.828-.096-3.82-1.188a.75.75 0 0 1 1.057-1.063l.055.055.116.12a2.548 2.548 0 0 0 2.259.613c.393-.09.718-.276.942-.538.218-.255.377-.621.377-1.143Z"/>
</svg>
