<svg xmlns="http://www.w3.org/2000/svg" fill="none" viewBox="0 0 24 24">
  <path fill="currentColor" d="M12.5 19.5v-6.75h-8v6.75a.75.75 0 0 1-1.5 0v-15a.75.75 0 0 1 1.5 0v6.75h8V4.5a.75.75 0 0 1 1.5 0v15a.75.75 0 0 1-1.5 0Zm2.75-2.658a.75.75 0 0 1 1.5 0c0 .705.241 1.166.546 1.454.315.297.749.456 1.201.454a1.765 1.765 0 0 0 1.206-.466c.307-.29.547-.751.547-1.442v-1.399c0-.947-.706-1.626-1.472-1.627H16a.75.75 0 0 1-.75-.75V9.5a.75.75 0 0 1 .848-.744l.084.016.003.001.015.003.073.017a11.14 11.14 0 0 0 1.294.194c.834.075 1.846.067 2.71-.203a.75.75 0 1 1 .447 1.432c-1.137.355-2.375.347-3.29.265a12.57 12.57 0 0 1-.684-.08v1.915h2.028c1.688 0 2.972 1.449 2.972 3.127v1.399c0 1.07-.386 1.936-1.016 2.532a3.265 3.265 0 0 1-2.231.876 3.233 3.233 0 0 1-2.236-.863c-.633-.597-1.017-1.467-1.017-2.545Z"/>
</svg>
