<svg xmlns="http://www.w3.org/2000/svg" fill="none" viewBox="0 0 24 24">
  <path fill="currentColor" d="M20.25 12a8.25 8.25 0 1 0-16.5 0v1.99c.084-.054.171-.106.262-.153.133-.07.266-.177.428-.339.12-.119.373-.397.554-.565a2.56 2.56 0 0 1 .871-.559c.381-.138.8-.164 1.264-.064.718.154 1.274.694 1.504 1.377.07.208.095.419.106.627.011.204.011.454.011.748v4.31c-.002.318-.017.6-.089.849-.203.702-.747 1.273-1.468 1.453-.438.11-.839.1-1.208-.023a2.357 2.357 0 0 1-.83-.506 7.258 7.258 0 0 1-.277-.264 6.218 6.218 0 0 0-.228-.22 1.228 1.228 0 0 0-.362-.25v-.002l-.062-.024-.01-.004c-1.36-.57-1.964-1.972-1.962-3.25v-.054A.755.755 0 0 1 2.25 17v-5a9.751 9.751 0 0 1 18.758-3.731A9.751 9.751 0 0 1 21.75 12v5a.755.755 0 0 1-.004.077v.15c-.004 1.212-.651 2.362-1.758 2.936-.133.07-.266.177-.428.339-.12.119-.373.397-.554.565a2.56 2.56 0 0 1-.871.559c-.381.138-.8.164-1.264.064-.718-.154-1.274-.694-1.504-1.377a2.336 2.336 0 0 1-.106-.627c-.011-.205-.011-.455-.011-.747v-4.311c.002-.265.013-.505.058-.722l.03-.128c.204-.701.748-1.272 1.469-1.452.438-.11.839-.1 1.208.023.356.118.626.322.83.505.101.09.196.185.277.265a7.4 7.4 0 0 0 .228.22c.141.13.252.207.362.252h.002l.07.028.008.003c.164.069.316.15.458.242V12Zm-13 3.062c0-.31 0-.512-.009-.666a.919.919 0 0 0-.03-.23.583.583 0 0 0-.338-.373l-.059-.017c-.217-.046-.348-.024-.438.01a1.083 1.083 0 0 0-.36.244c-.184.172-.27.284-.516.53a3.245 3.245 0 0 1-.798.609c-.58.3-.946.918-.948 1.601v.364c-.002.875.406 1.597 1.042 1.863l.053.022c.346.139.61.348.813.534.1.091.195.186.274.264.083.083.151.15.218.21.134.12.225.175.303.2.066.022.175.041.372-.008.159-.04.324-.182.392-.415l.013-.072c.012-.092.016-.266.016-.69v-3.98Zm9.5 3.877c0 .308 0 .51.009.666a.913.913 0 0 0 .03.229c.076.225.24.356.396.39l.148.022a.656.656 0 0 0 .291-.031c.102-.037.213-.108.36-.245.184-.172.27-.284.516-.53.203-.203.463-.436.798-.609l.106-.06a1.81 1.81 0 0 0 .842-1.546v-.359c.002-.875-.406-1.595-1.036-1.86l-.06-.025a2.708 2.708 0 0 1-.812-.534c-.1-.091-.195-.186-.274-.264a5.658 5.658 0 0 0-.218-.211.89.89 0 0 0-.302-.2c-.066-.021-.175-.04-.373.01-.159.039-.324.18-.392.414-.021.075-.029.197-.029.762v3.98Z"/>
</svg>
