<svg xmlns="http://www.w3.org/2000/svg" fill="none" viewBox="0 0 24 24">
  <path fill="currentColor" d="M12.5 19.5v-6.75h-8v6.75a.75.75 0 0 1-1.5 0v-15a.75.75 0 0 1 1.5 0v6.75h8V4.5a.75.75 0 0 1 1.5 0v15a.75.75 0 0 1-1.5 0Zm6.25 0v-2.375h-3a.75.75 0 0 1-.586-1.219l.004-.005.019-.022.074-.098a20.15 20.15 0 0 0 1.195-1.815c.708-1.214 1.501-2.858 1.895-4.63a.75.75 0 0 1 1.464.327c-.44 1.979-1.313 3.772-2.063 5.059a22.93 22.93 0 0 1-.557.903h1.555V14.5a.75.75 0 0 1 1.5 0v1.125h.5a.75.75 0 0 1 0 1.5h-.5V19.5a.75.75 0 0 1-1.5 0Z"/>
</svg>
