<svg xmlns="http://www.w3.org/2000/svg" fill="none" viewBox="0 0 24 24">
  <path fill="currentColor" d="M10.79 1.49a3.2 3.2 0 0 0-1.025.686l-7.588 7.59a3.16 3.16 0 0 0 0 4.47l7.588 7.587a3.16 3.16 0 0 0 4.47 0l7.588-7.588a3.16 3.16 0 0 0 0-4.47l-7.588-7.588a3.16 3.16 0 0 0-3.445-.686m1.511 14.634a.75.75 0 0 1-.832 0l-.005-.003-.009-.006-.032-.022-.117-.08a14.986 14.986 0 0 1-1.628-1.342c-.444-.427-.91-.938-1.27-1.492-.354-.545-.648-1.2-.648-1.898a2.531 2.531 0 0 1 4.125-1.966 2.52 2.52 0 0 1 1.594-.565c.628 0 1.27.18 1.764.63.505.458.767 1.12.767 1.901 0 .698-.295 1.353-.648 1.898-.36.554-.826 1.065-1.27 1.491-.545.518-1.128.993-1.745 1.423l-.032.022-.01.006-.004.003Z"/>
</svg>
