<svg xmlns="http://www.w3.org/2000/svg" fill="none" viewBox="0 0 24 24">
  <path fill="currentColor" d="M12 1.75c.496 0 .986.111 1.434.325.414.197.793.529 1.34.994.48.41.939.604 1.579.654.716.058 1.217.092 1.65.244v.001a3.327 3.327 0 0 1 2.03 2.03l.051.165c.11.395.142.856.192 1.484.05.64.244 1.099.653 1.58.466.545.798.924.996 1.339l.076.172c.356.867.33 1.847-.076 2.697h-.001c-.198.413-.528.792-.993 1.338l-.011.013c-.383.43-.61.976-.643 1.55v.018c-.058.717-.092 1.217-.245 1.65a3.335 3.335 0 0 1-1.855 1.961l-.174.067c-.432.152-.933.187-1.65.245-.64.05-1.1.244-1.58.653-.547.465-.925.797-1.34.995a3.33 3.33 0 0 1-2.867 0c-.414-.198-.793-.529-1.34-.994l-.012-.012a2.55 2.55 0 0 0-1.55-.641l-.018-.001c-.716-.058-1.216-.092-1.649-.244l-.002-.001a3.331 3.331 0 0 1-2.027-2.029c-.153-.431-.187-.933-.244-1.65l-.001-.018a2.55 2.55 0 0 0-.642-1.55l-.01-.011c-.467-.547-.797-.924-.996-1.338v-.002a3.333 3.333 0 0 1-.32-1.249L1.75 12c0-.496.111-.985.325-1.433l.08-.154c.202-.358.507-.708.914-1.186.417-.49.605-.953.655-1.58.057-.717.091-1.217.244-1.65a3.334 3.334 0 0 1 2.03-2.028l.165-.052c.395-.11.857-.143 1.484-.193h.017a2.55 2.55 0 0 0 1.55-.643l.013-.011c.546-.465.925-.797 1.34-.994A3.33 3.33 0 0 1 12 1.75Zm0 1.5a1.83 1.83 0 0 0-.6.101l-.188.078c-.193.092-.397.257-1.013.781A4.05 4.05 0 0 1 7.75 5.22h-.001c-.793.063-1.051.092-1.252.162a1.83 1.83 0 0 0-1.115 1.112c-.07.204-.099.467-.163 1.272-.075.94-.385 1.701-1.008 2.433-.524.615-.69.82-.782 1.012a1.836 1.836 0 0 0-.002 1.576l.089.153c.11.167.298.395.685.849l.216.263a4.05 4.05 0 0 1 .8 2.18c.065.808.093 1.07.165 1.271a1.833 1.833 0 0 0 1.114 1.115c.202.07.46.098 1.252.162a4.05 4.05 0 0 1 2.45 1.009c.616.524.82.69 1.014.782l.188.078a1.83 1.83 0 0 0 1.388-.078c.193-.092.397-.258 1.013-.783a4.046 4.046 0 0 1 2.432-1.006l.51-.043c.424-.039.608-.068.76-.121a1.83 1.83 0 0 0 1.114-1.114c.072-.203.1-.465.164-1.27a4.05 4.05 0 0 1 1.019-2.446c.516-.606.68-.808.771-1l.078-.19c.157-.452.13-.95-.078-1.386-.092-.193-.258-.397-.783-1.012a4.048 4.048 0 0 1-1.007-2.433l-.043-.51c-.038-.424-.066-.609-.12-.76a1.828 1.828 0 0 0-1.114-1.115c-.203-.071-.466-.1-1.27-.164a4.05 4.05 0 0 1-2.433-1.007c-.616-.524-.82-.69-1.013-.782A1.83 1.83 0 0 0 12 3.25Zm2.51 8.03c0-.436-.137-.665-.276-.791-.15-.138-.4-.24-.755-.24a1.03 1.03 0 0 0-.923.57.75.75 0 0 1-1.342 0 1.032 1.032 0 0 0-1.954.462l.006.111c.028.268.157.594.401.97.273.422.651.843 1.05 1.225.396.38.794.705 1.095.935.025.019.05.035.073.053.023-.018.048-.034.072-.053.302-.23.7-.555 1.097-.935.399-.382.776-.803 1.05-1.224.279-.43.406-.796.406-1.082Zm1.5 0c0 .699-.294 1.354-.648 1.9-.36.553-.825 1.064-1.27 1.49a14.632 14.632 0 0 1-1.628 1.341l-.116.081-.034.023-.011.008h-.001a.752.752 0 0 1-.736.056l-.097-.055-.001-.001-.003-.002-.01-.006-.032-.023a14.18 14.18 0 0 1-.52-.379 14.621 14.621 0 0 1-1.224-1.043c-.445-.426-.911-.937-1.27-1.49-.354-.546-.65-1.201-.65-1.9a2.532 2.532 0 0 1 4.126-1.965c.435-.353.99-.565 1.594-.565.628 0 1.27.18 1.764.628.505.46.767 1.121.767 1.903Z"/>
</svg>
