<svg xmlns="http://www.w3.org/2000/svg" fill="none" viewBox="0 0 24 24">
  <path fill="currentColor" d="M20.25 8.547c0-1.3-.33-2.244-.832-2.905L8.504 16.556A37.8 37.8 0 0 0 12 19.566a36.958 36.958 0 0 0 3.965-3.476c1.102-1.123 2.186-2.397 2.99-3.713.807-1.324 1.295-2.63 1.295-3.83Zm-7.816 12.565a.75.75 0 0 1-.868 0L12 20.5l.434.612ZM3.75 8.547c0 1.2.488 2.506 1.296 3.83.662 1.084 1.515 2.138 2.411 3.104L18.255 4.684c-.572-.286-1.251-.434-2.005-.434-1.54 0-2.902.941-3.571 2.36a.75.75 0 0 1-1.358 0c-.669-1.419-2.03-2.36-3.571-2.36-2.167 0-4 1.88-4 4.297Zm18 0c0 1.588-.637 3.17-1.517 4.611-.884 1.448-2.05 2.814-3.198 3.983a38.508 38.508 0 0 1-4.492 3.892l-.08.058-.02.014-.006.005-.002.001s-.002.001-.435-.611l-.434.612-.003-.002-.005-.005-.02-.014-.081-.058A36.633 36.633 0 0 1 10.121 20c-.74-.6-1.693-1.418-2.679-2.382L3.53 21.53a.75.75 0 1 1-1.06-1.06l3.926-3.927c-.956-1.027-1.892-2.177-2.63-3.385-.879-1.44-1.516-3.023-1.516-4.611 0-3.158 2.42-5.797 5.5-5.797 1.726 0 3.248.837 4.25 2.122 1.002-1.285 2.524-2.122 4.25-2.122 1.12 0 2.198.263 3.105.834L20.47 2.47a.75.75 0 1 1 1.06 1.06l-1.045 1.044c.813.979 1.265 2.316 1.265 3.973Z"/>
</svg>
