<svg xmlns="http://www.w3.org/2000/svg" fill="none" viewBox="0 0 24 24">
  <path fill="currentColor" d="M21.25 12a1.66 1.66 0 0 0-.377-1.053l-.11-.122-7.589-7.588a1.66 1.66 0 0 0-2.348 0l-7.588 7.588a1.664 1.664 0 0 0-.001 2.35l7.589 7.588.12.11a1.663 1.663 0 0 0 1.69.25c.202-.083.384-.206.538-.36l7.59-7.588A1.663 1.663 0 0 0 21.25 12Zm-6.74-.72c0-.436-.137-.665-.276-.791-.151-.138-.4-.239-.755-.239-.404 0-.753.23-.923.57a.75.75 0 0 1-1.342 0 1.032 1.032 0 0 0-1.954.46c0 .287.127.652.406 1.083.274.42.652.842 1.05 1.224.396.38.795.704 1.097.935.024.018.05.035.072.053l.072-.053c.302-.23.701-.555 1.097-.935.399-.382.777-.803 1.05-1.224.279-.43.406-.796.406-1.082Zm8.24.72a3.16 3.16 0 0 1-.926 2.236l-7.588 7.587a3.16 3.16 0 0 1-4.472 0l-7.587-7.587a3.16 3.16 0 0 1-.107-4.359l.107-.113 7.587-7.587.113-.107a3.16 3.16 0 0 1 4.359.107l7.587 7.587A3.166 3.166 0 0 1 22.75 12Zm-6.74-.72c0 .699-.295 1.354-.648 1.899-.36.554-.826 1.065-1.27 1.491a14.671 14.671 0 0 1-1.745 1.423c-.013.01-.024.016-.032.021l-.009.007-.003.002-.002.001a.75.75 0 0 1-.832 0l-.005-.003-.008-.006-.033-.022a10.326 10.326 0 0 1-.52-.379 14.671 14.671 0 0 1-1.224-1.044c-.445-.426-.91-.937-1.27-1.491-.31-.477-.574-1.038-.635-1.639l-.014-.26a2.53 2.53 0 0 1 4.125-1.965 2.52 2.52 0 0 1 1.594-.565c.629 0 1.271.18 1.765.628.505.46.766 1.121.766 1.902Z"/>
</svg>
