<svg xmlns="http://www.w3.org/2000/svg" fill="none" viewBox="0 0 24 24">
  <path fill="currentColor" d="M20.25 12a8.25 8.25 0 1 0-16.5-.001 8.25 8.25 0 0 0 16.5.001Zm-5.74-.719c0-.437-.136-.666-.276-.793-.15-.137-.4-.238-.755-.238-.404 0-.754.23-.923.57a.75.75 0 0 1-1.342 0 1.032 1.032 0 0 0-1.954.46c0 .287.128.652.407 1.082.273.422.65.843 1.05 1.225.396.38.794.704 1.095.934.025.02.05.036.073.053.023-.017.048-.034.072-.053.302-.23.7-.555 1.097-.934.399-.382.776-.803 1.05-1.225.278-.43.406-.795.406-1.08Zm7.24.719a9.75 9.75 0 1 1-19.502 0 9.75 9.75 0 0 1 19.502 0Zm-5.74-.719c0 .698-.294 1.353-.648 1.898-.36.554-.825 1.065-1.27 1.49a14.668 14.668 0 0 1-1.744 1.424l-.034.022-.011.008-.001.001a.752.752 0 0 1-.736.055l-.097-.055-.001-.001-.003-.002-.01-.006-.032-.022a14.38 14.38 0 0 1-.52-.379 14.673 14.673 0 0 1-1.224-1.044c-.445-.426-.911-.937-1.27-1.491-.31-.477-.574-1.038-.636-1.638l-.013-.26a2.53 2.53 0 0 1 4.125-1.966 2.52 2.52 0 0 1 1.594-.565c.628 0 1.27.18 1.764.628.505.46.767 1.121.767 1.903Z"/>
</svg>
