<svg xmlns="http://www.w3.org/2000/svg" fill="none" viewBox="0 0 24 24">
  <path fill="currentColor" d="M12 4.867C10.998 3.583 9.474 2.75 7.75 2.75c-3.08 0-5.5 2.639-5.5 5.797 0 1.588.637 3.171 1.516 4.612.884 1.448 2.051 2.813 3.199 3.982a38.498 38.498 0 0 0 4.6 3.97l.002.001a.75.75 0 0 0 .867 0l.008-.006.021-.015.08-.058a38.503 38.503 0 0 0 4.492-3.893c1.148-1.168 2.315-2.533 3.199-3.981.88-1.44 1.516-3.024 1.516-4.612 0-1.885-.585-3.358-1.62-4.358-1.03-.994-2.42-1.439-3.88-1.439-.513 0-1.007.074-1.476.21l-1.947 3.362-.006.013L11.239 9.5l3.093.774a.75.75 0 0 1 .442 1.143l-2 3a.751.751 0 0 1-1.365-.266.751.751 0 0 1 .117-.566l1.41-2.114-2.968-.742a.75.75 0 0 1-.489-1.063L11.161 6.3 12 4.867Z"/>
</svg>
