<svg xmlns="http://www.w3.org/2000/svg" fill="none" viewBox="0 0 24 24">
  <path fill="currentColor" d="M12.434 21.112a.75.75 0 0 1-.868 0L12 20.5l.434.612ZM20.25 8.547c0-1.568-.479-2.618-1.162-3.278-.69-.667-1.675-1.019-2.838-1.019-1.54 0-2.902.941-3.571 2.36a.75.75 0 0 1-1.358 0c-.669-1.419-2.03-2.36-3.571-2.36-2.167 0-4 1.88-4 4.297 0 1.2.488 2.506 1.296 3.83.803 1.316 1.887 2.59 2.99 3.713A36.967 36.967 0 0 0 12 19.566a36.961 36.961 0 0 0 3.965-3.477c1.102-1.122 2.186-2.396 2.99-3.712.807-1.324 1.295-2.63 1.295-3.83Zm1.5 0c0 1.588-.637 3.17-1.517 4.611-.884 1.448-2.05 2.814-3.198 3.983a38.49 38.49 0 0 1-4.492 3.892l-.08.058-.02.014-.006.005-.002.001s-.002.001-.435-.611l-.434.612-.003-.002-.005-.005-.02-.014c-.02-.013-.047-.033-.081-.058A36.485 36.485 0 0 1 10.121 20a38.47 38.47 0 0 1-3.156-2.858c-1.148-1.169-2.314-2.535-3.198-3.983-.88-1.44-1.517-3.023-1.517-4.611 0-3.158 2.42-5.797 5.5-5.797 1.726 0 3.248.837 4.25 2.122 1.002-1.285 2.524-2.122 4.25-2.122 1.46 0 2.85.446 3.88 1.44 1.035 1 1.62 2.472 1.62 4.357Z"/>
</svg>
