<svg xmlns="http://www.w3.org/2000/svg" fill="none" viewBox="0 0 24 24">
  <path fill="currentColor" d="M20.25 8.937a.85.85 0 0 0-.046-.33.846.846 0 0 0-.203-.272l-4.336-4.336a.846.846 0 0 0-.271-.203.851.851 0 0 0-.33-.046H8.936a.85.85 0 0 0-.33.046.859.859 0 0 0-.272.204l-.001-.001-4.335 4.336a.852.852 0 0 0-.201.267.849.849 0 0 0-.048.335v6.127c0 .183.022.271.046.329.023.057.07.138.204.272l4.335 4.336a.85.85 0 0 0 .267.201.846.846 0 0 0 .335.048h6.127a.85.85 0 0 0 .33-.046.846.846 0 0 0 .271-.203L20 15.665a.85.85 0 0 0 .201-.267.845.845 0 0 0 .048-.335V8.938Zm-5.74 2.344c0-.437-.136-.666-.276-.793-.15-.137-.4-.238-.755-.238-.404 0-.754.23-.923.57a.75.75 0 0 1-1.342 0 1.032 1.032 0 0 0-1.954.46c0 .287.128.652.407 1.082.273.422.65.843 1.05 1.225.396.38.794.704 1.095.934.025.02.05.036.073.053.023-.017.048-.034.072-.053.302-.23.7-.555 1.097-.934.399-.382.776-.803 1.05-1.225.278-.43.406-.795.406-1.08Zm1.5 0c0 .698-.294 1.353-.648 1.898-.36.554-.825 1.065-1.27 1.49a14.668 14.668 0 0 1-1.744 1.424l-.034.022-.011.008-.001.001-.417-.624.417.624a.752.752 0 0 1-.736.055l-.097-.055-.001-.001-.003-.002-.01-.006-.032-.022a14.38 14.38 0 0 1-.52-.379 14.673 14.673 0 0 1-1.224-1.044c-.445-.426-.911-.937-1.27-1.491-.31-.477-.574-1.038-.636-1.638l-.013-.26a2.53 2.53 0 0 1 4.125-1.966 2.52 2.52 0 0 1 1.594-.565c.628 0 1.27.18 1.764.628.505.46.767 1.121.767 1.903Zm5.74 3.782c0 .313-.04.616-.164.914-.124.297-.31.535-.524.749l-4.336 4.335a2.32 2.32 0 0 1-.763.53 2.32 2.32 0 0 1-.9.159H8.938c-.313 0-.616-.04-.914-.164a2.321 2.321 0 0 1-.749-.524L2.94 16.725a2.326 2.326 0 0 1-.53-.763 2.316 2.316 0 0 1-.159-.9V8.938c0-.313.04-.616.164-.914.124-.297.31-.535.524-.749l4.337-4.337c.222-.22.464-.406.762-.529.298-.122.598-.158.9-.158h6.127c.301 0 .6.036.899.158.299.123.541.31.763.53l4.335 4.336c.222.222.408.464.53.763.123.298.159.598.159.9v6.127Z"/>
</svg>
