<svg xmlns="http://www.w3.org/2000/svg" fill="none" viewBox="0 0 24 24">
  <path fill="currentColor" d="M12 1.75c.463 0 .916.124 1.316.355h.001l6.613 3.8.006.003a2.661 2.661 0 0 1 1.314 2.291v7.6l-.005.173a2.652 2.652 0 0 1-1.311 2.123l-.004.001-6.613 3.8a2.628 2.628 0 0 1-2.634 0l-6.613-3.8-.006-.003a2.659 2.659 0 0 1-1.314-2.29V8.2a2.65 2.65 0 0 1 1.316-2.293l.004-.002 6.613-3.8c.4-.233.854-.354 1.317-.354Zm0 1.5c-.2 0-.395.053-.567.153l-.003.002-6.61 3.797h.001a1.151 1.151 0 0 0-.571.997V15.8l.01.15a1.16 1.16 0 0 0 .563.849l6.607 3.797.003.001a1.13 1.13 0 0 0 1.134 0l.003-.002 6.609-3.797.125-.084a1.15 1.15 0 0 0 .446-.912V8.2a1.16 1.16 0 0 0-.573-1L12.57 3.406l-.003-.002A1.13 1.13 0 0 0 12 3.251Zm2.51 8.031c0-.437-.136-.667-.276-.793-.15-.137-.4-.238-.755-.238-.404 0-.754.23-.923.57a.75.75 0 0 1-1.342 0 1.03 1.03 0 0 0-1.318-.492 1.032 1.032 0 0 0-.636.952c0 .286.128.653.407 1.083.273.421.651.843 1.05 1.225.395.379.794.703 1.095.933l.073.053c.023-.017.048-.034.072-.053.301-.23.7-.554 1.097-.933.399-.383.776-.804 1.05-1.225.279-.43.406-.796.406-1.082Zm1.5 0c0 .698-.294 1.352-.648 1.897-.36.555-.825 1.066-1.27 1.493a14.629 14.629 0 0 1-1.744 1.422l-.034.022-.011.008h-.001l-.417-.623.417.624a.752.752 0 0 1-.736.055l-.097-.055-.001-.001-.003-.002-.01-.006-.032-.022a14.219 14.219 0 0 1-.52-.379 14.653 14.653 0 0 1-1.224-1.043c-.445-.427-.911-.938-1.27-1.492-.31-.478-.574-1.038-.636-1.638l-.013-.26a2.53 2.53 0 0 1 4.125-1.966 2.52 2.52 0 0 1 1.594-.565c.628 0 1.27.18 1.764.629.505.459.767 1.12.767 1.902Z"/>
</svg>
