<svg xmlns="http://www.w3.org/2000/svg" fill="none" viewBox="0 0 24 24">
  <path fill="currentColor" d="M2.25 12A9.75 9.75 0 0 1 12 2.25 9.75 9.75 0 0 1 21.75 12 9.75 9.75 0 0 1 12 21.75 9.75 9.75 0 0 1 2.25 12Zm10.051 4.124.005-.003.009-.006.032-.022.117-.081a14.993 14.993 0 0 0 1.628-1.341c.444-.427.91-.938 1.27-1.492.354-.545.648-1.2.648-1.898 0-.782-.262-1.443-.767-1.902-.494-.449-1.136-.629-1.764-.629a2.52 2.52 0 0 0-1.594.565A2.531 2.531 0 0 0 7.76 11.28c0 .698.294 1.353.648 1.898.36.554.826 1.065 1.27 1.491.545.517 1.128.993 1.745 1.423l.032.022.01.006.004.003a.75.75 0 0 0 .832 0"/>
</svg>
