<svg xmlns="http://www.w3.org/2000/svg" fill="none" viewBox="0 0 24 24">
  <path fill="currentColor" d="M13.75 15.5a1.25 1.25 0 0 0-1.25-1.25h-1a1.25 1.25 0 0 0-1.25 1.25v4.75h3.5V15.5Zm1.5 4.75h2.617c.745 0 1.383-.625 1.383-1.44v-8.802c0-.445-.198-.86-.526-1.13l-5.867-4.819-.002-.002a1.34 1.34 0 0 0-.739-.302L12 3.75a1.34 1.34 0 0 0-.854.307l-.003.002-5.867 4.819c-.328.27-.526.685-.526 1.13v8.802c0 .815.638 1.44 1.383 1.44H8.75V15.5a2.75 2.75 0 0 1 2.75-2.75h1a2.75 2.75 0 0 1 2.75 2.75v4.75Zm5.5-1.44c0 1.606-1.272 2.94-2.883 2.94H6.133c-1.61 0-2.883-1.334-2.883-2.94v-8.802c0-.885.393-1.73 1.074-2.29l5.864-4.815a2.841 2.841 0 0 1 3.623 0l5.864 4.816.124.108c.606.557.95 1.35.951 2.18v8.803Z"/>
</svg>
