<svg xmlns="http://www.w3.org/2000/svg" fill="none" viewBox="0 0 24 24">
  <path fill="currentColor" d="M19.25 10.008c0-.445-.198-.86-.526-1.13l-5.867-4.819-.002-.002a1.34 1.34 0 0 0-.739-.302L12 3.75a1.34 1.34 0 0 0-.854.307l-.003.002-5.867 4.819c-.328.27-.526.685-.526 1.13v8.802c0 .815.638 1.44 1.383 1.44h11.734c.745 0 1.383-.625 1.383-1.44v-8.802Zm-4.696 5.39a.75.75 0 0 1 .892 1.204A5.768 5.768 0 0 1 12 17.75a5.757 5.757 0 0 1-3.262-1.016l-.184-.132-.06-.049a.75.75 0 0 1 .952-1.156A4.27 4.27 0 0 0 12 16.25a4.27 4.27 0 0 0 2.554-.853ZM8.75 11.5V11a.75.75 0 0 1 1.5 0v.5a.75.75 0 0 1-1.5 0Zm5 0V11a.75.75 0 0 1 1.5 0v.5a.75.75 0 0 1-1.5 0Zm7 7.31c0 1.606-1.272 2.94-2.883 2.94H6.133c-1.61 0-2.883-1.334-2.883-2.94v-8.802c0-.885.393-1.73 1.074-2.29l5.864-4.815a2.841 2.841 0 0 1 3.623 0l5.864 4.816.124.108c.606.557.95 1.35.951 2.18v8.803Z"/>
</svg>
