<svg xmlns="http://www.w3.org/2000/svg" fill="none" viewBox="0 0 24 24">
  <path fill="currentColor" d="M20.25 10.669c-5.862-.494-10.726 3.873-10.51 9.581h4.86c1.132 0 1.937 0 2.566-.052.62-.05 1.005-.147 1.31-.303l.223-.125a3.25 3.25 0 0 0 1.196-1.294l.056-.119c.123-.286.203-.648.247-1.191.052-.63.052-1.434.052-2.566v-3.931ZM9.75 8a1.25 1.25 0 0 0-1.126-1.244L8.5 6.75A1.25 1.25 0 0 0 7.25 8l.006.124A1.25 1.25 0 0 0 9.75 8Zm-6 6.6c0 1.132 0 1.937.052 2.566.05.62.147 1.005.302 1.31l.125.223c.313.51.76.924 1.295 1.196l.119.056c.286.123.648.203 1.191.247.389.032.845.041 1.403.046a10.7 10.7 0 0 1 .593-3.913c-1.12-1.608-2.978-2.645-5.08-2.577v.846Zm18 0c0 1.107 0 1.984-.057 2.688-.058.713-.18 1.317-.46 1.868a4.751 4.751 0 0 1-2.077 2.076c-.551.281-1.155.403-1.868.461-.704.058-1.58.057-2.688.057H9.4c-1.107 0-1.983 0-2.688-.057-.713-.058-1.317-.18-1.868-.46a4.752 4.752 0 0 1-2.076-2.077c-.281-.551-.403-1.155-.461-1.868-.058-.704-.057-1.58-.057-2.688V9.4c0-1.107 0-1.983.057-2.688.058-.713.18-1.317.46-1.868a4.752 4.752 0 0 1 2.077-2.076c.551-.281 1.155-.403 1.868-.461.705-.058 1.58-.057 2.688-.057h5.2c1.107 0 1.984 0 2.688.057.713.058 1.317.18 1.868.46a4.752 4.752 0 0 1 2.076 2.077c.281.551.403 1.155.461 1.868.058.705.057 1.58.057 2.688v5.2Zm-18-2.347c2.301-.06 4.365.938 5.771 2.531 2.008-3.66 6.13-5.956 10.727-5.619 0-1.01-.002-1.746-.05-2.331-.044-.543-.124-.905-.247-1.191l-.056-.119A3.25 3.25 0 0 0 18.7 4.23l-.223-.125c-.305-.155-.69-.252-1.31-.302-.63-.052-1.434-.052-2.566-.052H9.4c-1.132 0-1.937 0-2.566.052-.543.044-.905.124-1.191.247l-.119.055A3.25 3.25 0 0 0 4.23 5.301l-.125.223c-.155.305-.252.69-.302 1.31-.052.63-.052 1.434-.052 2.566v2.853ZM11.25 8a2.75 2.75 0 0 1-5.486.271L5.75 8A2.75 2.75 0 0 1 8.5 5.25l.271.014A2.75 2.75 0 0 1 11.25 8Z"/>
</svg>
