<svg xmlns="http://www.w3.org/2000/svg" fill="none" viewBox="0 0 24 24">
  <path fill="currentColor" d="M20.25 12c0-.41-.03-.818-.09-1.219-5.667-.419-10.37 3.698-10.407 9.155A8.25 8.25 0 0 0 20.25 12ZM3.94 13.75a8.251 8.251 0 0 0 2.227 4.084 8.25 8.25 0 0 0 2.102 1.521 10.58 10.58 0 0 1 .6-2.966c-1.082-1.592-2.881-2.64-4.93-2.639ZM10.25 9a1.25 1.25 0 0 0-1.126-1.244L9 7.75A1.25 1.25 0 0 0 7.75 9l.006.124A1.25 1.25 0 0 0 10.25 9Zm-6.494 3.252c2.327-.058 4.41.965 5.816 2.59 1.948-3.496 5.832-5.73 10.207-5.584A8.25 8.25 0 0 0 3.75 12c.001.084.004.168.007.252ZM21.75 12a9.75 9.75 0 1 1-19.502 0 9.75 9.75 0 0 1 19.502 0Zm-10-3a2.75 2.75 0 0 1-5.486.271L6.25 9A2.75 2.75 0 0 1 9 6.25l.271.014A2.75 2.75 0 0 1 11.75 9Z"/>
</svg>
