<svg xmlns="http://www.w3.org/2000/svg" fill="none" viewBox="0 0 24 24">
  <path fill="currentColor" d="M7.75 9a1.25 1.25 0 1 1 2.5 0 1.25 1.25 0 0 1-2.5 0Z"/>
  <path fill="currentColor" d="M20.16 10.78c-5.667-.42-10.375 3.7-10.41 9.16a8.266 8.266 0 0 0 8.5-2.555 8.25 8.25 0 0 0 1.91-6.605ZM8.268 19.36c.06-1.046.268-2.043.603-2.974-1.082-1.593-2.886-2.639-4.935-2.636a8.26 8.26 0 0 0 4.332 5.61ZM2.25 12A9.75 9.75 0 0 1 12 2.25 9.75 9.75 0 0 1 21.75 12 9.75 9.75 0 0 1 12 21.75 9.75 9.75 0 0 1 2.25 12Zm4-3a2.75 2.75 0 1 0 5.5 0 2.75 2.75 0 0 0-5.5 0Zm1.5 0a1.25 1.25 0 1 1 2.5 0 1.25 1.25 0 0 1-2.5 0Z"/>
</svg>
