<svg xmlns="http://www.w3.org/2000/svg" fill="none" viewBox="0 0 24 24">
  <path fill="currentColor" d="M9.25 17.5a2.75 2.75 0 0 0-2.479-2.736L6.5 14.75a2.75 2.75 0 1 0 2.75 2.75Zm11 0a2.75 2.75 0 1 0-2.75 2.75l.271-.014A2.75 2.75 0 0 0 20.25 17.5Zm-6.3-15.201c.794-.087 1.678-.073 2.36.16.598.204 1.005.48 1.296.924.128.196.218.404.295.592.086.208.147.373.247.607.71 1.65 1.104 3.42 1.49 5.08H21a.75.75 0 0 1 0 1.5H3a.75.75 0 0 1 0-1.5h1.362l.522-2.212c.268-1.138.483-2.053.739-2.764.262-.728.594-1.325 1.146-1.78.212-.176.475-.32.793-.343.312-.022.567.082.744.175.162.086.335.21.453.29a3.7 3.7 0 0 0 .423.253c.646.323 1.506.103 2.522-.393.607-.298 1.442-.502 2.245-.59Zm1.876 1.579c-.38-.13-1.01-.165-1.715-.088-.696.076-1.347.249-1.748.445-.939.46-2.306.997-3.594.501l-.257-.113a5.169 5.169 0 0 1-.592-.352c-.118-.08-.19-.129-.247-.165-.24.216-.437.53-.638 1.087-.22.613-.415 1.43-.691 2.602l-.442 1.867H18.1c-.366-1.571-.721-3.077-1.328-4.486-.103-.24-.197-.485-.257-.633a2.056 2.056 0 0 0-.164-.339c-.059-.09-.145-.197-.524-.326ZM21.75 17.5a4.25 4.25 0 0 1-4.04 4.245l-.21.005a4.25 4.25 0 0 1-4.188-4.972l-.322-.17v-.002a2.102 2.102 0 0 0-1.98 0v.001l-.323.171A4.251 4.251 0 1 1 6.5 13.25l.21.005a4.25 4.25 0 0 1 3.458 2.1l.139-.073a3.6 3.6 0 0 1 3.386 0l.138.073A4.245 4.245 0 0 1 17.5 13.25l.21.005a4.25 4.25 0 0 1 4.04 4.245Z"/>
</svg>
