<svg xmlns="http://www.w3.org/2000/svg" fill="none" viewBox="0 0 24 24">
  <path fill="currentColor" d="M2.25 12A4.75 4.75 0 0 1 7 7.25c1.376 0 2.457.621 3.342 1.454.866.816 1.6 1.888 2.276 2.871.699 1.017 1.34 1.945 2.067 2.63.71.666 1.441 1.045 2.315 1.045l.161-.004a3.25 3.25 0 0 0 0-6.492L17 8.75c-.936 0-1.711.435-2.469 1.196a.75.75 0 0 1-1.062-1.058C14.387 7.965 15.522 7.25 17 7.25a4.75 4.75 0 0 1 0 9.5c-1.376 0-2.457-.621-3.342-1.454-.866-.816-1.6-1.888-2.276-2.871-.699-1.017-1.34-1.945-2.068-2.63C8.606 9.13 7.874 8.75 7 8.75A3.25 3.25 0 0 0 3.75 12l.004.161A3.25 3.25 0 0 0 7 15.25c.936 0 1.711-.435 2.469-1.196a.75.75 0 0 1 1.062 1.058C9.613 16.035 8.478 16.75 7 16.75a4.75 4.75 0 0 1-4.744-4.515L2.25 12Z"/>
</svg>
