<svg xmlns="http://www.w3.org/2000/svg" fill="none" viewBox="0 0 24 24">
  <path fill="currentColor" d="M8.583 4.507C9.538 3.159 10.582 2.25 12 2.25c1.418 0 2.462.91 3.417 2.257.948 1.338 1.953 3.318 3.24 5.852l.39.769c1.065 2.098 1.904 3.75 2.344 5.076.448 1.348.55 2.552-.121 3.623-.67 1.066-1.801 1.511-3.22 1.719-1.398.204-3.272.204-5.656.204h-.788c-2.384 0-4.258 0-5.656-.204-1.419-.208-2.55-.653-3.22-1.72-.671-1.07-.569-2.274-.12-3.622.44-1.325 1.278-2.978 2.344-5.076l.39-.768C6.63 7.825 7.633 5.845 8.583 4.507ZM12.75 9a.75.75 0 1 0-1.5 0v.5a.75.75 0 1 0 1.5 0V9Zm-1.25 2.25a.75.75 0 0 0-.25 1.457v3.586a.75.75 0 0 0 .25 1.457h1a.75.75 0 0 0 .25-1.457V12a.75.75 0 0 0-.75-.75h-.5Z"/>
</svg>
