<svg xmlns="http://www.w3.org/2000/svg" fill="none" viewBox="0 0 24 24">
  <path fill="currentColor" d="M13.435 2.075a3.33 3.33 0 0 0-2.87 0c-.394.19-.755.497-1.26.928l-.079.066a2.56 2.56 0 0 1-1.58.655l-.102.008c-.662.053-1.135.09-1.547.236a3.33 3.33 0 0 0-2.03 2.03c-.145.411-.182.884-.235 1.546l-.008.102a2.56 2.56 0 0 1-.655 1.58l-.066.078c-.43.506-.74.867-.928 1.261a3.33 3.33 0 0 0 0 2.87c.19.394.497.755.928 1.26l.066.08c.41.48.604.938.655 1.58l.008.101c.053.662.09 1.135.236 1.547a3.33 3.33 0 0 0 2.03 2.03c.411.145.884.182 1.546.235l.102.008c.63.05 1.09.238 1.58.655l.078.066c.506.431.867.74 1.261.928a3.33 3.33 0 0 0 2.87 0c.394-.189.755-.497 1.26-.928l.08-.066c.48-.41.938-.604 1.58-.655l.101-.008c.662-.053 1.135-.09 1.547-.236a3.331 3.331 0 0 0 2.03-2.029c.145-.412.182-.885.235-1.547l.008-.102c.05-.629.238-1.09.655-1.58l.066-.079c.431-.505.74-.866.928-1.26a3.33 3.33 0 0 0 0-2.87c-.189-.394-.497-.755-.928-1.26l-.066-.079a2.56 2.56 0 0 1-.655-1.58l-.008-.102c-.053-.662-.09-1.135-.236-1.547a3.33 3.33 0 0 0-2.029-2.03c-.412-.145-.885-.182-1.547-.235l-.102-.008a2.56 2.56 0 0 1-1.58-.655l-.079-.066c-.505-.43-.866-.74-1.26-.928ZM12 7.25a.75.75 0 0 1 .75.75v.5a.75.75 0 0 1-1.5 0V8a.75.75 0 0 1 .75-.75ZM10.75 16a.75.75 0 0 1 .5-.707v-3.586a.75.75 0 0 1 .25-1.457h.5a.75.75 0 0 1 .75.75v4.293a.75.75 0 0 1-.25 1.457h-1a.75.75 0 0 1-.75-.75Z"/>
</svg>
