<svg xmlns="http://www.w3.org/2000/svg" fill="none" viewBox="0 0 24 24">
  <path fill="currentColor" d="M7.65 19.65a.75.75 0 0 1 1.5 0v.6h1.05l.076.004a.75.75 0 0 1 0 1.492l-.076.004H8.4a.75.75 0 0 1-.75-.75v-1.35Zm7.95.6a.75.75 0 0 1 0 1.5h-1.8a.75.75 0 0 1 0-1.5h1.8Zm4.65-1.05a.75.75 0 0 1 1.5 0V21a.75.75 0 0 1-.75.75h-1.8a.75.75 0 0 1 0-1.5h1.05V19.2Zm-5.4-10.05H13.2c-.852 0-1.446 0-1.909.038-.454.038-.715.106-.913.207a2.251 2.251 0 0 0-.982.984c-.101.198-.17.458-.208.912-.037.463-.038 1.057-.038 1.91v1.649h1.65c.852 0 1.446 0 1.909-.038.454-.037.714-.107.912-.207.423-.216.768-.56.983-.984.101-.198.17-.458.208-.912.037-.463.038-1.057.038-1.91V9.15ZM2.25 13.8a.75.75 0 0 1 1.5 0v1.05h.6a.75.75 0 0 1 0 1.5H3a.75.75 0 0 1-.75-.75v-1.8Zm18 1.8v-1.8a.75.75 0 0 1 1.5 0v1.8a.75.75 0 0 1-1.5 0Zm-18-5.4V8.4a.75.75 0 0 1 1.5 0v1.8a.75.75 0 0 1-1.5 0Zm18 0V9.15h-.6a.75.75 0 0 1 0-1.5H21a.75.75 0 0 1 .75.75v1.8a.75.75 0 0 1-1.5 0Zm-18-5.4V3A.75.75 0 0 1 3 2.25h1.8a.75.75 0 1 1 0 1.5H3.75V4.8a.75.75 0 1 1-1.5 0Zm12.6-.45v-.6H13.8a.75.75 0 0 1 0-1.5h1.8a.75.75 0 0 1 .75.75v1.35a.75.75 0 0 1-1.5 0Zm-4.65-2.1.076.004a.75.75 0 0 1 0 1.492l-.076.004H8.4a.75.75 0 0 1 0-1.5h1.8Zm6.15 8.55c0 .827 0 1.493-.043 2.031-.045.547-.14 1.027-.366 1.472a3.75 3.75 0 0 1-1.638 1.638c-.445.227-.925.321-1.472.366-.538.044-1.204.043-2.031.043H9.15v.15a.75.75 0 0 1-1.5 0v-.15H7.5a.75.75 0 0 1 0-1.5h.15V13.2c0-.827 0-1.493.043-2.031.045-.547.14-1.027.366-1.472A3.75 3.75 0 0 1 9.697 8.06c.445-.227.925-.321 1.472-.366.538-.044 1.204-.043 2.031-.043h1.65V7.5a.75.75 0 0 1 1.5 0v.15h.15l.077.004a.75.75 0 0 1 0 1.492l-.077.004h-.15v1.65Z"/>
</svg>
