<svg xmlns="http://www.w3.org/2000/svg" fill="none" viewBox="0 0 24 24">
  <path fill="currentColor" d="M11.25 16.5a3.751 3.751 0 0 0-3.75-3.75 3.75 3.75 0 1 0 3.75 3.75Zm4.959-7.648 1.003 1.002a.407.407 0 0 0 .034.03c.033-.025.08-.063.14-.12.294-.277.928-1.026 1.906-1.189.198-.033.304-.072.363-.11.037-.022.072-.051.104-.144.02-.056.02-.092-.007-.16-.04-.1-.143-.26-.388-.506l-.98-.98-2.175 2.177ZM12.75 16.5a5.25 5.25 0 1 1-2.107-4.204L20.47 2.47a.75.75 0 1 1 1.06 1.06l-2.085 2.085.98.98c.308.307.57.637.719 1.006.16.397.172.804.035 1.205-.144.422-.403.73-.732.934-.306.19-.64.27-.907.315h-.002c-.41.068-.646.35-1.123.8-.184.174-.51.472-.946.552-.53.097-.974-.148-1.318-.492l-1.003-1.003-3.445 3.444A5.25 5.25 0 0 1 12.75 16.5Z"/>
</svg>
