<svg xmlns="http://www.w3.org/2000/svg" fill="none" viewBox="0 0 24 24">
  <path fill="currentColor" d="M6 16.25a.75.75 0 0 1 0 1.5H3a.75.75 0 0 1 0-1.5h3Zm8 0a.75.75 0 0 1 0 1.5h-4a.75.75 0 0 1 0-1.5h4Zm7 0a.75.75 0 0 1 0 1.5h-3a.75.75 0 0 1 0-1.5h3ZM4.386 10.57a.75.75 0 0 1 .98-.225l.064.04 2.457 1.72a.75.75 0 0 1-.795 1.27l-.065-.041-2.457-1.72-.06-.047a.75.75 0 0 1-.124-.997Zm13.764-.184a.75.75 0 1 1 .86 1.228l-2.46 1.721a.75.75 0 0 1-.859-1.23l2.46-1.72Zm-6.9.614V8a.75.75 0 0 1 1.5 0v3a.75.75 0 0 1-1.5 0Z"/>
</svg>
