<svg xmlns="http://www.w3.org/2000/svg" fill="none" viewBox="0 0 24 24">
  <path fill="currentColor" d="M4 16.25a.75.75 0 0 1 0 1.5H3a.75.75 0 0 1 0-1.5h1Zm12 0a.75.75 0 0 1 0 1.5H8a.75.75 0 0 1 0-1.5h8Zm5 0a.75.75 0 0 1 0 1.5h-1a.75.75 0 0 1 0-1.5h1ZM4.47 10.97a.75.75 0 0 1 1.004-.052l.056.052.707.707.052.056a.75.75 0 0 1-1.056 1.056l-.056-.052-.707-.707-.052-.056a.75.75 0 0 1 .052-1.004Zm13.707 0a.75.75 0 1 1 1.06 1.06l-.707.707a.75.75 0 1 1-1.06-1.06l.707-.707ZM11.25 10V9a.75.75 0 0 1 1.5 0v1a.75.75 0 0 1-1.5 0Z"/>
</svg>
