<svg xmlns="http://www.w3.org/2000/svg" fill="none" viewBox="0 0 24 24">
  <path fill="currentColor" d="M11.514 2.345h-.001a2.75 2.75 0 0 1 1.913.806l7.298 7.298c.424.424.8 1.034.953 1.688.156.664.096 1.476-.529 2.1l-6.91 6.91c-.625.625-1.437.686-2.101.53a3.655 3.655 0 0 1-1.687-.952l-7.299-7.298a2.758 2.758 0 0 1-.806-1.912l-.095-7.49.001-.002a1.75 1.75 0 0 1 1.092-1.645 1.75 1.75 0 0 1 .68-.127l.001-.001 7.49.095ZM4.004 3.75a.25.25 0 0 0-.25.204l-.004.05v.002l.095 7.488.008.122c.03.283.158.548.36.75l7.298 7.298c.25.25.619.47.969.552.338.08.554.015.698-.13l6.91-6.91c.143-.143.208-.358.129-.697a2.146 2.146 0 0 0-.461-.87l-.092-.098-7.299-7.3a1.25 1.25 0 0 0-.87-.366l-7.49-.095h-.001Zm2.778 2.564a.75.75 0 0 1 1.003-.05l.058.05.707.707.05.058a.75.75 0 0 1-1.054 1.055l-.057-.052-.707-.707-.052-.057a.75.75 0 0 1 .052-1.004Z"/>
</svg>
