<svg xmlns="http://www.w3.org/2000/svg" fill="none" viewBox="0 0 24 24">
  <path fill="currentColor" d="M20.695 15.314a.75.75 0 0 1 .61 1.372l-9 4a.75.75 0 0 1-.61 0l-9-4-.068-.036a.75.75 0 0 1 .606-1.363l.072.027L12 19.18l8.695-3.865Zm0-4a.75.75 0 0 1 .61 1.371l-9 4a.751.751 0 0 1-.61 0l-9-4-.068-.035a.75.75 0 0 1 .606-1.363l.072.027L12 15.18l8.695-3.865ZM11.77 3.286a.75.75 0 0 1 .536.028l9 4a.75.75 0 0 1 0 1.371l-9 4a.751.751 0 0 1-.61 0l-9-4a.75.75 0 0 1 0-1.37l9-4 .074-.029ZM4.846 8 12 11.179l7.152-3.18L12 4.82 4.846 8Z"/>
</svg>
