<svg xmlns="http://www.w3.org/2000/svg" fill="none" viewBox="0 0 24 24">
  <path fill="currentColor" d="M12.305 3.315a.75.75 0 0 0-.61 0l-9 4a.75.75 0 0 0 0 1.37l9 4a.75.75 0 0 0 .61 0l9-4a.75.75 0 0 0 0-1.37l-9-4Z"/>
  <path fill="currentColor" d="M3.305 11.315a.75.75 0 0 0-.61 1.37l9 4a.75.75 0 0 0 .61 0l9-4a.75.75 0 0 0-.61-1.37L12 15.18l-8.695-3.864Z"/>
  <path fill="currentColor" d="M3.305 15.315a.75.75 0 0 0-.61 1.37l9 4a.75.75 0 0 0 .61 0l9-4a.75.75 0 0 0-.61-1.37L12 19.18l-8.695-3.864Z"/>
</svg>
