<svg xmlns="http://www.w3.org/2000/svg" fill="none" viewBox="0 0 24 24">
  <path fill="currentColor" d="M5.919 7.87c2.517-2.517 6.951-3.857 12.524-3.585l.543.031.136.022a.75.75 0 0 1 .563.676c.388 5.828-.957 10.47-3.555 13.068-1.311 1.31-2.932 2.088-4.758 2.208-1.663.109-3.447-.33-5.274-1.327L4.53 20.53a.75.75 0 0 1-1.06-1.062L5.038 17.9c-.996-1.827-1.435-3.609-1.326-5.271.12-1.827.896-3.448 2.207-4.76Zm12.304-2.094C12.95 5.546 9.062 6.85 6.98 8.931c-1.072 1.072-1.678 2.358-1.772 3.796-.08 1.217.205 2.584.941 4.063l3.42-3.42a.75.75 0 0 1 1.062 1.06L7.21 17.85c1.48.738 2.846 1.024 4.063.944 1.438-.095 2.724-.7 3.796-1.773 2.082-2.081 3.385-5.97 3.154-11.245Z"/>
</svg>
