<svg xmlns="http://www.w3.org/2000/svg" fill="none" viewBox="0 0 24 24">
  <path fill="currentColor" d="M11.25 20v-6.223c-4.476-.378-8-4.096-8-8.645l.006-.314c.011-.311.039-.62.083-.924a.75.75 0 0 1 .749-.644A8.752 8.752 0 0 1 12 8.413a8.754 8.754 0 0 1 7.912-5.163l.138.012a.75.75 0 0 1 .611.632c.059.406.088.819.089 1.237 0 4.549-3.524 8.268-8 8.646V20a.75.75 0 0 1-1.5 0ZM4.759 4.79a6.497 6.497 0 0 0-.009.344c0 3.705 2.839 6.76 6.49 7.137.006-.114.01-.229.01-.343 0-3.706-2.84-6.764-6.491-7.139Zm14.481 0c-3.651.375-6.49 3.434-6.49 7.14 0 .114.003.228.009.341 3.652-.376 6.49-3.432 6.491-7.137l-.005-.262c0-.028-.003-.055-.005-.083Z"/>
</svg>
