<svg xmlns="http://www.w3.org/2000/svg" fill="none" viewBox="0 0 24 24">
  <path fill="currentColor" d="M21.25 12a1.66 1.66 0 0 0-.377-1.053l-.11-.122-7.589-7.588a1.66 1.66 0 0 0-2.348 0l-7.588 7.588a1.664 1.664 0 0 0-.001 2.35l7.589 7.588.12.11a1.663 1.663 0 0 0 1.69.25c.202-.083.384-.206.538-.36l7.59-7.588A1.663 1.663 0 0 0 21.25 12Zm-8.08-4.75c1.572 0 2.438 1.203 2.563 2.393.085.805-.154 1.706-.768 2.357.614.652.853 1.551.768 2.357-.125 1.19-.99 2.393-2.563 2.393H9.5a.75.75 0 0 1-.75-.75V8a.75.75 0 0 1 .75-.75h3.67Zm-2.92 8h2.92c.62 0 1.005-.426 1.07-1.05.064-.603-.203-1.191-.76-1.45h-3.23v2.5Zm0-4h3.228c.558-.258.826-.847.763-1.45-.066-.625-.45-1.05-1.07-1.05H10.25v2.5Zm12.5.75a3.16 3.16 0 0 1-.926 2.236l-7.588 7.587a3.16 3.16 0 0 1-4.472 0l-7.587-7.587a3.16 3.16 0 0 1-.107-4.359l.107-.113 7.587-7.587.113-.107a3.16 3.16 0 0 1 4.359.107l7.587 7.587A3.166 3.166 0 0 1 22.75 12Z"/>
</svg>
