<svg xmlns="http://www.w3.org/2000/svg" fill="none" viewBox="0 0 24 24">
  <path fill="currentColor" d="M20.25 12a8.25 8.25 0 1 0-16.5-.001 8.25 8.25 0 0 0 16.5.001Zm-7.08-4.75c1.573 0 2.438 1.204 2.563 2.394.085.805-.153 1.705-.767 2.356.614.651.852 1.55.767 2.356-.125 1.19-.99 2.394-2.562 2.394H9.5a.75.75 0 0 1-.75-.75V8a.75.75 0 0 1 .75-.75h3.67Zm-2.92 8h2.92c.62 0 1.005-.425 1.071-1.05.064-.603-.204-1.192-.762-1.45H10.25v2.5Zm0-4h3.229c.558-.258.826-.847.762-1.45-.066-.625-.45-1.05-1.07-1.05H10.25v2.5Zm11.5.75a9.75 9.75 0 1 1-19.502 0 9.75 9.75 0 0 1 19.502 0Z"/>
</svg>
