<svg xmlns="http://www.w3.org/2000/svg" fill="none" viewBox="0 0 24 24">
  <path fill="currentColor" d="M20.25 12a8.25 8.25 0 1 0-16.5-.001 8.25 8.25 0 0 0 16.5.001Zm-6.5-2.5a.75.75 0 0 0-.602-.735L13 8.75h-2a.75.75 0 0 0-.75.75v5l.015.148a.751.751 0 0 0 .735.602h2.75v-2.5h-.917a.75.75 0 0 1 0-1.5H14c.29 0 .57.101.792.283l.092.083.083.092c.182.222.283.502.283.792v3A1.25 1.25 0 0 1 14 16.75h-3a2.25 2.25 0 0 1-2.25-2.25v-5A2.25 2.25 0 0 1 11 7.25h2a2.25 2.25 0 0 1 2.25 2.25.75.75 0 0 1-1.5 0Zm8 2.5a9.75 9.75 0 1 1-19.502 0 9.75 9.75 0 0 1 19.502 0Z"/>
</svg>
