<svg xmlns="http://www.w3.org/2000/svg" fill="none" viewBox="0 0 24 24">
  <path fill="currentColor" d="M20.25 12a8.25 8.25 0 1 0-16.5-.001 8.25 8.25 0 0 0 16.5.001Zm-6.5-2.75V9a.25.25 0 0 0-.25-.25h-3a.25.25 0 0 0-.25.25v.984l.009.112a.749.749 0 0 0 .463.585l3.114 1.246a2.25 2.25 0 0 1 1.414 2.089V15a1.75 1.75 0 0 1-1.75 1.75h-3A1.75 1.75 0 0 1 8.75 15v-.25a.75.75 0 0 1 1.5 0V15a.25.25 0 0 0 .25.25h3a.25.25 0 0 0 .25-.25v-.984a.75.75 0 0 0-.37-.647l-.102-.05-3.114-1.246a2.25 2.25 0 0 1-1.414-2.09V9a1.75 1.75 0 0 1 1.75-1.75h3l.173.009A1.75 1.75 0 0 1 15.25 9v.25a.75.75 0 0 1-1.5 0Zm8 2.75a9.75 9.75 0 1 1-19.502 0 9.75 9.75 0 0 1 19.502 0Z"/>
</svg>
