<svg xmlns="http://www.w3.org/2000/svg" fill="none" viewBox="0 0 24 24">
  <path fill="currentColor" d="M14.241 9.8c.064.602-.204 1.191-.76 1.45h-3.23v-2.5h2.92c.62 0 1.005.425 1.07 1.05Zm-3.99 5.45v-2.5h3.23c.556.26.824.848.76 1.45-.065.625-.45 1.05-1.07 1.05h-2.92Z"/>
  <path fill="currentColor" d="M10.79 1.49a3.16 3.16 0 0 1 3.445.687l7.588 7.588a3.16 3.16 0 0 1 0 4.47l-7.588 7.588a3.16 3.16 0 0 1-4.47 0l-7.588-7.588a3.16 3.16 0 0 1 0-4.47l7.588-7.589a3.2 3.2 0 0 1 1.025-.685M9.5 7.251a.75.75 0 0 0-.75.75v8c0 .413.336.75.75.75h3.671c1.572 0 2.437-1.205 2.562-2.394.085-.806-.153-1.706-.767-2.357.614-.65.852-1.55.767-2.357-.125-1.19-.99-2.393-2.562-2.393h-3.67Z"/>
</svg>
