<svg xmlns="http://www.w3.org/2000/svg" fill="none" viewBox="0 0 24 24">
  <path fill="currentColor" d="M21.25 12a1.66 1.66 0 0 0-.377-1.053l-.11-.122-7.589-7.588a1.66 1.66 0 0 0-2.348 0l-7.588 7.588a1.664 1.664 0 0 0-.001 2.35l7.589 7.588.12.11a1.663 1.663 0 0 0 1.69.25c.202-.083.384-.206.538-.36l7.59-7.588A1.663 1.663 0 0 0 21.25 12Zm-6.8-4.51a.75.75 0 0 1 1.15.96L12.937 12l2.663 3.55.043.063a.75.75 0 0 1-1.193.896l-.05-.059-2.4-3.2-2.4 3.2a.75.75 0 0 1-1.2-.9L11.062 12 8.4 8.45l1.2-.9 2.4 3.2 2.4-3.2.05-.06Zm-5.9-.09a.75.75 0 0 1 1.05.15l-1.2.9a.751.751 0 0 1 .15-1.05Zm14.2 4.6a3.16 3.16 0 0 1-.926 2.236l-7.588 7.587a3.16 3.16 0 0 1-4.472 0l-7.587-7.587a3.16 3.16 0 0 1-.107-4.359l.107-.113 7.587-7.587.113-.107a3.16 3.16 0 0 1 4.359.107l7.587 7.587A3.166 3.166 0 0 1 22.75 12Z"/>
</svg>
