<svg xmlns="http://www.w3.org/2000/svg" fill="none" viewBox="0 0 24 24">
  <path fill="currentColor" d="M20.25 8.937a.85.85 0 0 0-.046-.33.846.846 0 0 0-.203-.272l-4.336-4.336a.846.846 0 0 0-.271-.203.851.851 0 0 0-.33-.046H8.936a.85.85 0 0 0-.33.046.859.859 0 0 0-.272.204l-.001-.001-4.335 4.336a.852.852 0 0 0-.201.267.849.849 0 0 0-.048.335v6.127c0 .183.022.271.046.329.023.057.07.138.204.272l4.335 4.336a.85.85 0 0 0 .267.201.846.846 0 0 0 .335.048h6.127a.85.85 0 0 0 .33-.046.846.846 0 0 0 .271-.203L20 15.665a.85.85 0 0 0 .201-.267.845.845 0 0 0 .048-.335V8.938ZM13.17 7.25c1.573 0 2.438 1.204 2.563 2.394.085.805-.153 1.705-.767 2.356.614.651.852 1.55.767 2.356-.125 1.19-.99 2.394-2.562 2.394H9.5a.75.75 0 0 1-.75-.75V8a.75.75 0 0 1 .75-.75h3.67Zm-2.92 8h2.92c.62 0 1.005-.425 1.071-1.05.064-.603-.204-1.192-.762-1.45H10.25v2.5Zm0-4h3.229c.558-.258.826-.847.762-1.45-.066-.625-.45-1.05-1.07-1.05H10.25v2.5Zm11.5 3.813c0 .313-.04.616-.164.914-.124.297-.31.535-.524.749l-4.336 4.335a2.32 2.32 0 0 1-.763.53 2.32 2.32 0 0 1-.9.159H8.938c-.313 0-.616-.04-.914-.164a2.321 2.321 0 0 1-.749-.524L2.94 16.725a2.326 2.326 0 0 1-.53-.763 2.316 2.316 0 0 1-.159-.9V8.938c0-.313.04-.616.164-.914.124-.297.31-.535.524-.749l4.337-4.337c.222-.22.464-.406.762-.529.298-.122.598-.158.9-.158h6.127c.301 0 .6.036.899.158.299.123.541.31.763.53l4.335 4.336c.222.222.408.464.53.763.123.298.159.598.159.9v6.127Z"/>
</svg>
