<svg xmlns="http://www.w3.org/2000/svg" fill="none" viewBox="0 0 24 24">
  <path fill="currentColor" d="M14.241 9.8c.064.602-.204 1.191-.761 1.45h-3.23v-2.5h2.921c.62 0 1.005.425 1.07 1.05Zm-3.991 5.45v-2.5h3.23c.557.259.825.848.761 1.45-.065.625-.45 1.05-1.07 1.05H10.25Z"/>
  <path fill="currentColor" d="M2.25 12A9.75 9.75 0 0 1 12 2.25 9.75 9.75 0 0 1 21.75 12 9.75 9.75 0 0 1 12 21.75 9.75 9.75 0 0 1 2.25 12ZM9.5 7.25a.75.75 0 0 0-.75.75v8c0 .414.336.75.75.75h3.671c1.572 0 2.437-1.204 2.562-2.393.085-.806-.153-1.706-.767-2.357.614-.651.852-1.551.767-2.357-.125-1.19-.99-2.393-2.562-2.393H9.5Z"/>
</svg>
