<svg xmlns="http://www.w3.org/2000/svg" fill="none" viewBox="0 0 24 24">
  <path fill="currentColor" d="M21.25 12a1.66 1.66 0 0 0-.377-1.053l-.11-.122-7.589-7.588a1.66 1.66 0 0 0-2.348 0l-7.588 7.588a1.664 1.664 0 0 0-.001 2.35l7.589 7.588.12.11a1.663 1.663 0 0 0 1.69.25c.202-.083.384-.206.538-.36l7.59-7.588A1.663 1.663 0 0 0 21.25 12Zm-7.5-2.5a.75.75 0 0 0-.75-.75h-2a.75.75 0 0 0-.75.75v5a.75.75 0 0 0 .75.75h2.75v-2.5h-.916a.75.75 0 0 1 0-1.5H14c.29 0 .57.101.792.283l.091.084.083.091c.182.223.284.502.284.792v3A1.25 1.25 0 0 1 14 16.75h-3a2.25 2.25 0 0 1-2.25-2.25v-5A2.25 2.25 0 0 1 11 7.25h2a2.25 2.25 0 0 1 2.25 2.25.75.75 0 0 1-1.5 0Zm9 2.5a3.16 3.16 0 0 1-.926 2.236l-7.588 7.587a3.16 3.16 0 0 1-4.472 0l-7.587-7.587a3.16 3.16 0 0 1-.107-4.359l.107-.113 7.587-7.587.113-.107a3.16 3.16 0 0 1 4.359.107l7.587 7.587A3.166 3.166 0 0 1 22.75 12Z"/>
</svg>
