<svg xmlns="http://www.w3.org/2000/svg" fill="none" viewBox="0 0 24 24">
  <path fill="currentColor" d="M21.25 12a1.66 1.66 0 0 0-.377-1.053l-.11-.122-7.589-7.588a1.66 1.66 0 0 0-2.348 0l-7.588 7.588a1.664 1.664 0 0 0-.001 2.35l7.589 7.588.12.11a1.663 1.663 0 0 0 1.69.25c.202-.083.384-.206.538-.36l7.59-7.588A1.663 1.663 0 0 0 21.25 12Zm-7.5-2.75V9a.25.25 0 0 0-.25-.25h-3a.25.25 0 0 0-.25.25v.984a.751.751 0 0 0 .472.697l3.113 1.246a2.25 2.25 0 0 1 1.415 2.089V15a1.75 1.75 0 0 1-1.75 1.75h-3A1.75 1.75 0 0 1 8.75 15v-.25a.75.75 0 0 1 1.5 0V15a.25.25 0 0 0 .25.25h3a.25.25 0 0 0 .25-.25v-.984a.75.75 0 0 0-.471-.696l-3.114-1.247a2.25 2.25 0 0 1-1.415-2.09V9a1.75 1.75 0 0 1 1.75-1.75h3A1.75 1.75 0 0 1 15.25 9v.25a.75.75 0 0 1-1.5 0Zm9 2.75a3.16 3.16 0 0 1-.926 2.236l-7.588 7.587a3.16 3.16 0 0 1-4.472 0l-7.587-7.587a3.16 3.16 0 0 1-.107-4.359l.107-.113 7.587-7.587.113-.107a3.16 3.16 0 0 1 4.359.107l7.587 7.587A3.166 3.166 0 0 1 22.75 12Z"/>
</svg>
