<svg xmlns="http://www.w3.org/2000/svg" fill="none" viewBox="0 0 24 24">
  <path fill="currentColor" d="M2.25 12A9.75 9.75 0 0 1 12 2.25 9.75 9.75 0 0 1 21.75 12 9.75 9.75 0 0 1 12 21.75 9.75 9.75 0 0 1 2.25 12Zm8.25-4.75A1.75 1.75 0 0 0 8.75 9v.984c0 .92.56 1.748 1.414 2.09l3.114 1.245a.75.75 0 0 1 .472.696V15a.25.25 0 0 1-.25.25h-3a.25.25 0 0 1-.25-.25v-.25a.75.75 0 1 0-1.5 0V15c0 .966.784 1.75 1.75 1.75h3A1.75 1.75 0 0 0 15.25 15v-.985c0-.92-.56-1.747-1.414-2.088l-3.114-1.246a.75.75 0 0 1-.472-.697V9a.25.25 0 0 1 .25-.25h3a.25.25 0 0 1 .25.25v.25a.75.75 0 1 0 1.5 0V9a1.75 1.75 0 0 0-1.75-1.75h-3Z"/>
</svg>
