<svg xmlns="http://www.w3.org/2000/svg" fill="none" viewBox="0 0 24 24">
  <path fill="currentColor" d="M21.25 12a1.66 1.66 0 0 0-.377-1.053l-.11-.122-7.589-7.588a1.66 1.66 0 0 0-2.348 0l-7.588 7.588a1.664 1.664 0 0 0-.001 2.35l7.589 7.588.12.11a1.663 1.663 0 0 0 1.69.25c.202-.083.384-.206.538-.36l7.59-7.588A1.663 1.663 0 0 0 21.25 12Zm-7-2A1.25 1.25 0 0 0 13 8.75h-2A1.25 1.25 0 0 0 9.75 10v4A1.25 1.25 0 0 0 11 15.25h2A1.25 1.25 0 0 0 14.25 14v-4Zm8.5 2a3.16 3.16 0 0 1-.926 2.236l-7.588 7.587a3.16 3.16 0 0 1-4.472 0l-7.587-7.587a3.16 3.16 0 0 1-.107-4.359l.107-.113 7.587-7.587.113-.107a3.16 3.16 0 0 1 4.359.107l7.587 7.587A3.166 3.166 0 0 1 22.75 12Zm-7 2A2.75 2.75 0 0 1 13 16.75h-2A2.75 2.75 0 0 1 8.25 14v-4A2.75 2.75 0 0 1 11 7.25h2A2.75 2.75 0 0 1 15.75 10v4Z"/>
</svg>
