<svg xmlns="http://www.w3.org/2000/svg" fill="none" viewBox="0 0 24 24">
  <path fill="currentColor" d="M20.25 12a8.25 8.25 0 1 0-16.5-.001 8.25 8.25 0 0 0 16.5.001Zm-6-2a1.25 1.25 0 0 0-1.126-1.244L13 8.75h-2A1.25 1.25 0 0 0 9.75 10v4A1.25 1.25 0 0 0 11 15.25h2.19l-.72-.72-.052-.056a.75.75 0 0 1 1.056-1.056l.056.052.72.72V10Zm7.5 2a9.75 9.75 0 1 1-19.502 0 9.75 9.75 0 0 1 19.502 0Zm-6 3.69.28.28.052.056a.75.75 0 0 1-1.056 1.056l-.056-.052-.28-.28H11A2.75 2.75 0 0 1 8.25 14v-4A2.75 2.75 0 0 1 11 7.25h2A2.75 2.75 0 0 1 15.75 10v5.69Z"/>
</svg>
