<svg xmlns="http://www.w3.org/2000/svg" fill="none" viewBox="0 0 24 24">
  <path fill="currentColor" d="M20.25 12a8.25 8.25 0 1 0-16.5-.001 8.25 8.25 0 0 0 16.5.001Zm-6-2v-.25a1 1 0 0 0-1-1H11A1.25 1.25 0 0 0 9.75 10v4A1.25 1.25 0 0 0 11 15.25h2.25a1 1 0 0 0 1-1V14a.75.75 0 0 1 1.5 0v.25l-.013.247a2.5 2.5 0 0 1-2.24 2.24l-.247.013H11A2.75 2.75 0 0 1 8.25 14v-4A2.75 2.75 0 0 1 11 7.25h2.25a2.5 2.5 0 0 1 2.5 2.5V10a.75.75 0 0 1-1.5 0Zm7.5 2a9.75 9.75 0 1 1-19.502 0 9.75 9.75 0 0 1 19.502 0Z"/>
</svg>
