<svg xmlns="http://www.w3.org/2000/svg" fill="none" viewBox="0 0 24 24">
  <path fill="currentColor" d="m12.924 6.25.158.004a3.22 3.22 0 0 1 3.053 3.217v7.1l.396.4a.75.75 0 0 1-1.006 1.11l-.056-.052-.396-.397H10.46a3.218 3.218 0 0 1-3.21-3.22V9.47a3.216 3.216 0 0 1 3.21-3.22h2.464Zm-2.631 1.509a1.717 1.717 0 0 0-1.543 1.71v4.944a1.717 1.717 0 0 0 1.713 1.719h3.115l-1.186-1.19a.75.75 0 0 1 1.006-1.11l.056.05 1.18 1.184V9.47a1.718 1.718 0 0 0-1.056-1.588 1.715 1.715 0 0 0-.488-.123l-.168-.009h-2.46l-.169.009Z"/>
</svg>
