<svg xmlns="http://www.w3.org/2000/svg" fill="none" viewBox="0 0 24 24">
  <path fill="currentColor" d="M21.25 12a1.66 1.66 0 0 0-.377-1.053l-.11-.122-7.589-7.588a1.66 1.66 0 0 0-2.348 0l-7.588 7.588a1.664 1.664 0 0 0-.001 2.35l7.589 7.588.12.11a1.663 1.663 0 0 0 1.69.25c.202-.083.384-.206.538-.36l7.59-7.588A1.663 1.663 0 0 0 21.25 12ZM14 9.5a.75.75 0 0 0-.75-.75H10.5v2.5h2.75a.75.75 0 0 0 .75-.75v-1Zm8.75 2.5a3.16 3.16 0 0 1-.926 2.236l-7.588 7.587a3.16 3.16 0 0 1-4.472 0l-7.587-7.587a3.16 3.16 0 0 1-.107-4.359l.107-.113 7.587-7.587.113-.107a3.16 3.16 0 0 1 4.359.107l7.587 7.587A3.166 3.166 0 0 1 22.75 12Zm-7.25-1.5a2.25 2.25 0 0 1-2.25 2.25H10.5V16A.75.75 0 0 1 9 16V8.5c0-.331.132-.65.367-.884l.091-.083a1.25 1.25 0 0 1 .793-.283h3A2.25 2.25 0 0 1 15.5 9.5v1Z"/>
</svg>
