<svg xmlns="http://www.w3.org/2000/svg" fill="none" viewBox="0 0 24 24">
  <path fill="currentColor" d="M15.424 2.25c.899 0 1.476.907 1.164 1.714v.002L14.49 9.35H17c1.05 0 1.603 1.2.998 2.011l-7.47 10.045v.002c-.541.724-1.615.222-1.527-.601v-.004l.786-6.91H6.992a1.257 1.257 0 0 1-1.145-1.743l.002-.005 3.907-9.127a1.251 1.251 0 0 1 1.145-.768h4.523ZM7.376 12.393h2.699a1.253 1.253 0 0 1 .839.333l.092.093.082.105c.05.072.094.149.128.23l.046.123.032.128c.025.127.03.258.014.387l.001.001-.544 4.783 5.746-7.726H14.12a1.256 1.256 0 0 1-1.153-1.723l2.095-5.377h-3.987l-3.699 8.643Z"/>
</svg>
