<svg xmlns="http://www.w3.org/2000/svg" fill="none" viewBox="0 0 24 24">
  <path fill="currentColor" d="M20.47 2.47a.75.75 0 1 1 1.06 1.06l-5.82 5.82H17c1.05 0 1.604 1.199 1 2.01l-7.47 10.046v.002c-.542.725-1.617.222-1.528-.601v-.004l.608-5.354-6.08 6.081a.75.75 0 1 1-1.06-1.06l18-18Zm-9.16 11.278c0 .015 0 .03-.002.044l-.542 4.783 5.745-7.725H14.21l-2.9 2.898ZM15.424 2.25c.899 0 1.476.907 1.165 1.714l-.001.003-.353.902-1.397-.545.224-.574h-3.987L7.34 12.477a.748.748 0 0 1-.27 1.413l-.077.003-.153-.011a1.256 1.256 0 0 1-.991-1.732l.002-.005 3.9-9.113a1.25 1.25 0 0 1 1.15-.782h4.524Zm.811 2.62a.75.75 0 1 1-1.397-.546l1.397.545Z"/>
</svg>
