<svg xmlns="http://www.w3.org/2000/svg" fill="none" viewBox="0 0 24 24">
  <path fill="currentColor" d="M16.637 3.813c.192-.765-.37-1.563-1.212-1.563h-4.518a1.25 1.25 0 0 0-1.15.768L5.85 12.146l-.005.01c-.31.76.18 1.62.99 1.726l.165.01.076-.003a.747.747 0 0 0 .263-1.412l3.736-8.727h3.987l-.224.574a.75.75 0 1 0 1.398.545l.352-.903.05-.153Zm3.89-1.395a.75.75 0 0 1 1.055 1.056l-.052.056-5.82 5.82H17c.985 0 1.532 1.054 1.1 1.854l-.1.156-7.47 10.047c-.54.725-1.62.224-1.527-.605l.607-5.353-6.08 6.08a.75.75 0 1 1-1.06-1.06l18-18 .056-.051Z"/>
</svg>
