<svg xmlns="http://www.w3.org/2000/svg" fill="none" viewBox="0 0 24 24">
  <path fill="currentColor" d="M12.226 2.251c1.002 0 1.77.38 2.277 1.047.477.628.665 1.431.724 2.19.106 1.37-.191 2.908-.408 3.867h5.254c.662 0 1.117.388 1.364.881.225.447.302 1.005.312 1.557.021 1.123-.23 2.563-.607 3.955-.38 1.4-.901 2.814-1.458 3.894-.277.536-.579 1.021-.895 1.383-.28.322-.725.725-1.304.725H4.964a1.705 1.705 0 0 1-1.714-1.69v-9.392c0-.628.35-1.198.897-1.492 1.1-.59 2.132-1.047 3.123-1.662.957-.596 1.745-1.27 2.257-2.176l1.28-2.266a1.62 1.62 0 0 1 1.415-.821h.004ZM4.75 20.046l.004.04a.207.207 0 0 0 .204.164h12.476c.026-.017.1-.069.225-.21.204-.235.441-.601.692-1.086.497-.963.984-2.273 1.342-3.598.36-1.332.573-2.615.556-3.535-.009-.469-.076-.761-.151-.91a.342.342 0 0 0-.034-.056H14.54v-.002a1.268 1.268 0 0 1-1.243-.98 1.271 1.271 0 0 1-.001-.57V9.3c.218-.924.533-2.437.435-3.695-.048-.63-.195-1.1-.421-1.398-.196-.257-.503-.456-1.088-.456h-.004a.12.12 0 0 0-.06.017.122.122 0 0 0-.046.042h.001l-1.28 2.267c-.685 1.211-1.705 2.048-2.771 2.711-1.034.643-2.244 1.193-3.206 1.71a.197.197 0 0 0-.106.171v9.378Z"/>
</svg>
