<svg xmlns="http://www.w3.org/2000/svg" fill="none" viewBox="0 0 24 24">
  <path fill="currentColor" d="M12.533 10.396a.75.75 0 0 1 1.003-.051l.057.051.145.152c1.449 1.598 1.452 4.063-.082 5.596l-.033.029-.03.033-4.38 4.385c-1.582 1.583-4.154 1.53-5.744-.063-1.589-1.591-1.642-4.165-.06-5.747l3.803-3.806a.75.75 0 0 1 1.061 1.06L4.47 15.842c-.97.97-.97 2.593.06 3.626 1.031 1.032 2.652 1.033 3.622.063l4.38-4.385.033-.03a.81.81 0 0 1 .031-.034l.17-.188c.796-.982.735-2.47-.233-3.437a.75.75 0 0 1 0-1.06Zm2.253-6.988c1.582-1.582 4.153-1.526 5.743.064 1.54 1.541 1.64 4.004.206 5.595l-.144.15-3.802 3.808-1.062-1.06 3.804-3.807c.909-.909.965-2.393.119-3.426l-.182-.2c-1.031-1.031-2.652-1.032-3.622-.062l-4.38 4.384c-.97.97-.97 2.594.062 3.626a.75.75 0 1 1-1.06 1.06c-1.59-1.59-1.646-4.165-.062-5.747l4.38-4.385Zm2.003 9.617a.75.75 0 0 1-1.062-1.06l1.062 1.06Z"/>
</svg>
