<svg xmlns="http://www.w3.org/2000/svg" fill="none" viewBox="0 0 24 24">
  <path fill="currentColor" d="M7.496 10.469a.75.75 0 0 1 1.058 1.062l-3.891 3.881c-1.09 1.088-1.223 2.62-.295 3.79l.2.229.106.104c1.103 1.041 2.754.925 3.905-.224l3.891-3.88a.75.75 0 1 1 1.059 1.062l-3.892 3.88c-1.676 1.673-4.37 1.958-6.153.094-1.743-1.821-1.584-4.42.12-6.117l3.892-3.881Zm6.973-2A.75.75 0 0 1 15.53 9.53l-6 6a.75.75 0 0 1-1.06-1.06l6-6Zm-.097-4.889c1.708-1.708 4.464-1.8 6.155-.107l.153.16c1.532 1.701 1.396 4.34-.26 5.995l-3.902 3.902a.75.75 0 0 1-1.06-1.06l3.902-3.903c1.092-1.092 1.166-2.747.294-3.826l-.188-.208c-1.063-1.064-2.868-1.058-4.034.108L11.53 8.542a.75.75 0 0 1-1.06-1.06l3.902-3.902Z"/>
</svg>
