<svg xmlns="http://www.w3.org/2000/svg" fill="none" viewBox="0 0 24 24">
  <path fill="currentColor" d="m6.596 7.75 3.396.007.077.004a.75.75 0 0 1-.08 1.496L6.593 9.25c-1.597-.002-2.806 1.107-2.842 2.757-.034 1.593 1.222 2.734 2.854 2.736L10 14.75a.75.75 0 0 1-.003 1.5l-3.396-.007c-2.342-.003-4.406-1.71-4.35-4.268.053-2.502 1.967-4.228 4.344-4.225ZM20.25 12c0-1.499-1.257-2.75-2.85-2.75H14a.75.75 0 0 1 0-1.5h3.4c2.382 0 4.35 1.883 4.35 4.25s-1.968 4.25-4.35 4.25H14a.75.75 0 0 1 0-1.5h3.4c1.593 0 2.85-1.251 2.85-2.75Zm-4.007-.75.077.004a.75.75 0 0 1 0 1.492l-.077.004H7.757a.75.75 0 0 1 0-1.5h8.486Z"/>
</svg>
