<svg xmlns="http://www.w3.org/2000/svg" fill="none" viewBox="0 0 24 24">
  <path fill="currentColor" d="M8.082 4.973a.75.75 0 0 0-1.164-.946L4.541 6.953l-1.118-.764a.75.75 0 1 0-.846 1.238L4.264 8.58a.75.75 0 0 0 1.006-.146l2.812-3.46Zm0 5.77a.75.75 0 0 0-1.164-.947l-2.377 2.926-1.118-.764a.75.75 0 0 0-.846 1.238l1.687 1.154a.75.75 0 0 0 1.006-.146l2.812-3.462Zm0 5.768a.75.75 0 0 0-1.164-.945L4.541 18.49l-1.118-.764a.748.748 0 0 0-1.175.459.75.75 0 0 0 .33.78l1.686 1.153a.75.75 0 0 0 1.006-.146l2.812-3.46ZM11 5.751a.75.75 0 1 0 0 1.499h10a.75.75 0 1 0 0-1.5H11Zm0 5.5a.75.75 0 1 0 0 1.5h10a.75.75 0 0 0 0-1.5H11Zm0 5.5a.75.75 0 1 0 0 1.5h10a.75.75 0 0 0 0-1.5H11Z"/>
</svg>
