<svg xmlns="http://www.w3.org/2000/svg" fill="none" viewBox="0 0 24 24">
  <path fill="currentColor" d="M6.918 15.566a.75.75 0 1 1 1.164.946l-2.811 3.46a.75.75 0 0 1-1.006.147l-1.688-1.154a.75.75 0 1 1 .846-1.238l1.118.763 2.377-2.923ZM21 16.75a.75.75 0 0 1 0 1.5H11a.75.75 0 0 1 0-1.5h10ZM6.969 9.74a.75.75 0 0 1 1.113 1.002l-2.811 3.462a.75.75 0 0 1-1.006.147l-1.688-1.155-.061-.046a.75.75 0 0 1 .841-1.232l.066.04 1.117.764 2.378-2.926.05-.057ZM21 11.25a.75.75 0 0 1 0 1.5H11a.75.75 0 0 1 0-1.5h10ZM6.918 4.027a.75.75 0 1 1 1.164.946L5.271 8.435a.75.75 0 0 1-1.006.146L2.577 7.427a.75.75 0 1 1 .846-1.238l1.118.763 2.377-2.925ZM21 5.75a.75.75 0 0 1 0 1.5H11a.75.75 0 0 1 0-1.5h10Z"/>
</svg>
