<svg xmlns="http://www.w3.org/2000/svg" fill="none" viewBox="0 0 24 24">
  <path fill="currentColor" d="M5.75 15.243c0-.296-.27-.618-.71-.618H5c-.46 0-.75.339-.75.656v.174a.75.75 0 0 1-1.5 0v-.174c0-1.236 1.055-2.156 2.25-2.156h.04c1.175 0 2.21.904 2.21 2.118 0 .504-.176.987-.49 1.379l.002.001L5.06 18.75H6.5a.75.75 0 0 1 0 1.5h-3a.75.75 0 0 1-.586-1.219l2.677-3.345a.707.707 0 0 0 .159-.443ZM21 16.75a.75.75 0 0 1 0 1.5H11a.75.75 0 1 1 0-1.5h10Zm0-5.5a.75.75 0 0 1 0 1.5H11a.75.75 0 1 1 0-1.5h10ZM4.75 10.125V5.679l-.932.437a.75.75 0 0 1-.636-1.358l2-.937A.75.75 0 0 1 6.25 4.5v5.625a.75.75 0 1 1-1.5 0ZM21 5.75a.75.75 0 0 1 0 1.5H11a.75.75 0 0 1 0-1.5h10Z"/>
</svg>
