<svg xmlns="http://www.w3.org/2000/svg" fill="none" viewBox="0 0 24 24">
  <path fill="currentColor" d="M12.41 2.26c2.047.1 3.991.948 5.45 2.387 1.408 1.391 2.143 2.947 2.337 4.562.192 1.603-.152 3.21-.809 4.718-1.307 3-3.903 5.728-6.393 7.504v-.001a1.708 1.708 0 0 1-1.993-.001c-2.488-1.775-5.083-4.502-6.39-7.5-.656-1.507-1.002-3.116-.809-4.719.194-1.615.928-3.17 2.337-4.562h.001a8.35 8.35 0 0 1 5.86-2.398l.41.01ZM12 3.75a6.85 6.85 0 0 0-4.807 1.967c-1.181 1.166-1.75 2.414-1.9 3.673-.153 1.27.114 2.607.695 3.94 1.167 2.68 3.548 5.211 5.887 6.879l.002.002a.21.21 0 0 0 .245 0l.002-.002c2.34-1.669 4.721-4.2 5.889-6.88.58-1.334.847-2.67.694-3.941-.15-1.259-.72-2.506-1.901-3.673a6.845 6.845 0 0 0-4.807-1.965Zm-.75 8.75v-1.75H9.5a.75.75 0 0 1 0-1.5h1.75V7.5a.75.75 0 0 1 1.5 0v1.75h1.75l.076.004a.75.75 0 0 1 0 1.492l-.076.004h-1.75v1.75a.75.75 0 0 1-1.5 0Z"/>
</svg>
