<svg xmlns="http://www.w3.org/2000/svg" fill="none" viewBox="0 0 24 24">
  <path fill="currentColor" d="M17.165 16.33a.75.75 0 0 1 .968.268l.038.067 2 4a.75.75 0 0 1-.671 1.085h-15a.75.75 0 0 1-.671-1.085l2-4a.75.75 0 0 1 1.342.67L5.714 20.25h12.572l-1.457-2.915a.75.75 0 0 1 .336-1.006ZM12 2.25a6.65 6.65 0 0 1 4.675 1.912c1.12 1.107 1.71 2.35 1.866 3.647.154 1.283-.123 2.564-.643 3.755-.967 2.22-2.824 4.244-4.66 5.636l-.368.27a1.5 1.5 0 0 1-1.643.064l-.097-.064c-1.953-1.392-3.996-3.536-5.029-5.904-.519-1.191-.796-2.472-.642-3.755.155-1.296.745-2.541 1.866-3.648l.24-.224A6.649 6.649 0 0 1 12 2.251Zm-.001 1.499a5.15 5.15 0 0 0-3.62 1.482h-.001c-.894.882-1.317 1.82-1.43 2.758-.114.952.085 1.96.528 2.978.893 2.048 2.72 3.995 4.523 5.28 1.803-1.286 3.631-3.233 4.524-5.281.443-1.017.643-2.026.529-2.978-.113-.939-.537-1.876-1.431-2.759a5.154 5.154 0 0 0-3.622-1.48ZM13.249 9a1.25 1.25 0 0 0-1.125-1.244L12 7.75A1.25 1.25 0 1 0 13.25 9Zm1.5 0A2.75 2.75 0 1 1 12 6.25l.272.014A2.75 2.75 0 0 1 14.75 9Z"/>
</svg>
