<svg xmlns="http://www.w3.org/2000/svg" fill="none" viewBox="0 0 24 24">
  <path fill="currentColor" d="M10.5 11V9.022L12 7.928l1.5 1.094V11a.25.25 0 0 1-.25.25h-2.5a.25.25 0 0 1-.25-.25Z"/>
  <path fill="currentColor" d="M6.14 4.648A8.34 8.34 0 0 1 12 2.25c2.196 0 4.304.861 5.86 2.398 1.409 1.39 2.143 2.946 2.337 4.562.193 1.602-.152 3.21-.81 4.718-1.306 3-3.902 5.728-6.392 7.503a1.71 1.71 0 0 1-1.99 0c-2.49-1.775-5.086-4.504-6.393-7.503-.657-1.508-1.001-3.116-.81-4.719.195-1.615.929-3.17 2.338-4.561Zm6.302 1.746a.75.75 0 0 0-.884 0l-2.25 1.64A.75.75 0 0 0 9 8.64V11c0 .966.784 1.75 1.75 1.75h2.5A1.75 1.75 0 0 0 15 11V8.64a.748.748 0 0 0-.308-.606l-2.25-1.64Z"/>
</svg>
