<svg xmlns="http://www.w3.org/2000/svg" fill="none" viewBox="0 0 24 24">
  <path fill="currentColor" d="M20.47 2.47a.75.75 0 1 1 1.06 1.06l-2.514 2.513a7.225 7.225 0 0 1 1.18 3.166c.193 1.603-.152 3.21-.808 4.718-1.307 3-3.904 5.728-6.393 7.504v-.001c-.255.181-.552.29-.861.315L12 21.75a1.71 1.71 0 0 1-.995-.32 21.619 21.619 0 0 1-3.844-3.532l-3.63 3.632a.75.75 0 1 1-1.061-1.06l3.757-3.758a15.068 15.068 0 0 1-1.615-2.783c-.656-1.507-1-3.116-.808-4.719.194-1.615.927-3.17 2.336-4.562A8.351 8.351 0 0 1 12 2.25a8.344 8.344 0 0 1 6.073 2.615L20.47 2.47ZM8.225 16.835a20.095 20.095 0 0 0 3.65 3.374l.003.002a.21.21 0 0 0 .122.039l.064-.01a.209.209 0 0 0 .058-.03l.003-.001c2.34-1.669 4.72-4.201 5.888-6.88.58-1.334.847-2.67.694-3.941a5.684 5.684 0 0 0-.777-2.258l-9.705 9.705Zm3.438-13.077a6.85 6.85 0 0 0-4.47 1.959c-1.18 1.167-1.749 2.414-1.9 3.673-.153 1.27.114 2.607.694 3.94.344.787.794 1.561 1.316 2.306l3.28-3.281c-.036-.023-.074-.045-.11-.069a2.75 2.75 0 1 1 3.813-3.813c.024.036.046.074.068.111l2.659-2.658A6.843 6.843 0 0 0 12 3.75l-.337.008Zm.093 5.016a1.25 1.25 0 0 0-.45 2.265c.127.085.27.142.418.176l1.49-1.491a1.245 1.245 0 0 0-.175-.418 1.25 1.25 0 0 0-1.283-.532Z"/>
</svg>
