<svg xmlns="http://www.w3.org/2000/svg" fill="none" viewBox="0 0 24 24">
  <path fill="currentColor" d="M12.41 2.26c2.047.1 3.991.948 5.45 2.387 1.408 1.391 2.143 2.947 2.337 4.562.192 1.603-.152 3.21-.809 4.718-1.307 3-3.903 5.728-6.393 7.504v-.001a1.708 1.708 0 0 1-1.993-.001c-2.488-1.775-5.083-4.502-6.39-7.5-.656-1.507-1.002-3.116-.809-4.719.194-1.615.928-3.17 2.337-4.562h.001a8.35 8.35 0 0 1 5.86-2.398l.41.01ZM12 3.75a6.85 6.85 0 0 0-4.807 1.967c-1.181 1.166-1.75 2.414-1.9 3.673-.153 1.27.114 2.607.695 3.94 1.167 2.68 3.548 5.211 5.887 6.879l.002.002a.21.21 0 0 0 .245 0l.002-.002c2.34-1.669 4.721-4.2 5.889-6.88.58-1.334.847-2.67.694-3.941-.15-1.259-.72-2.506-1.901-3.673a6.845 6.845 0 0 0-4.807-1.965ZM13.25 9a1.25 1.25 0 1 0-2.5 0 1.25 1.25 0 0 0 2.5 0Zm1.5 0c0 .699-.268 1.367-.744 1.876.191.11.375.237.545.383.733.629 1.2 1.563 1.2 2.741a.75.75 0 0 1-1.5 0c0-.752-.284-1.266-.676-1.602-.408-.35-.977-.543-1.575-.543-.597 0-1.166.193-1.574.543-.392.336-.676.85-.676 1.602a.75.75 0 0 1-1.5 0c0-1.178.467-2.112 1.2-2.741.17-.146.352-.273.543-.383A2.747 2.747 0 0 1 12 6.25 2.75 2.75 0 0 1 14.75 9Z"/>
</svg>
