<svg xmlns="http://www.w3.org/2000/svg" fill="none" viewBox="0 0 24 24">
  <path fill="currentColor" d="M12 1.75c.463 0 .916.124 1.316.355h.001l6.613 3.8.006.003a2.661 2.661 0 0 1 1.314 2.291v7.6l-.005.173a2.652 2.652 0 0 1-1.311 2.123l-.004.001-6.613 3.8a2.628 2.628 0 0 1-2.634 0l-6.613-3.8-.006-.003a2.659 2.659 0 0 1-1.314-2.29V8.2a2.65 2.65 0 0 1 1.316-2.293l.004-.002 6.613-3.8c.4-.233.854-.354 1.317-.354Zm0 1.5c-.2 0-.395.053-.567.153l-.003.002-6.61 3.797h.001a1.151 1.151 0 0 0-.571.997V15.8l.01.15a1.16 1.16 0 0 0 .563.849l6.607 3.797.003.001a1.13 1.13 0 0 0 1.134 0l.003-.002 6.609-3.797.125-.084a1.15 1.15 0 0 0 .446-.912V8.2a1.16 1.16 0 0 0-.573-1L12.57 3.406l-.003-.002A1.13 1.13 0 0 0 12 3.251Zm3.25 8.707c0-.15-.12-.26-.252-.261h-.975l-.02.001-.019-.001H9.002a.257.257 0 0 0-.252.26v3.037c0 .034.007.066.02.098.012.03.03.06.054.084a.256.256 0 0 0 .18.075h5.994c.133 0 .252-.11.252-.261v-3.032Zm-1.996-3.032c0-.453-.163-.724-.361-.892-.215-.182-.53-.289-.88-.282-.716.013-1.267.45-1.267 1.174v1.271h2.508V8.925Zm1.5 1.271h.244c.974 0 1.752.795 1.752 1.76v3.033c0 .966-.778 1.76-1.752 1.76H8.999a1.759 1.759 0 0 1-1.24-.519 1.755 1.755 0 0 1-.509-1.243v-3.03c0-.966.779-1.76 1.752-1.761h.244V8.925c0-1.768 1.453-2.65 2.74-2.674.653-.012 1.34.183 1.876.637.554.47.892 1.169.892 2.037v1.271Z"/>
</svg>
