<svg xmlns="http://www.w3.org/2000/svg" fill="none" viewBox="0 0 24 24">
  <path fill="currentColor" d="M20.25 8.937a.85.85 0 0 0-.046-.33.846.846 0 0 0-.203-.272l-4.336-4.336a.846.846 0 0 0-.271-.203.851.851 0 0 0-.33-.046H8.936a.85.85 0 0 0-.33.046.859.859 0 0 0-.272.204l-.001-.001-4.335 4.336a.852.852 0 0 0-.201.267.849.849 0 0 0-.048.335v6.127c0 .183.022.271.046.329.023.057.07.138.204.272l4.335 4.336a.85.85 0 0 0 .267.201.846.846 0 0 0 .335.048h6.127a.85.85 0 0 0 .33-.046.846.846 0 0 0 .271-.203L20 15.665a.85.85 0 0 0 .201-.267.845.845 0 0 0 .048-.335V8.938Zm-5 3.02c0-.15-.12-.26-.252-.26H9.002a.257.257 0 0 0-.252.26v3.036a.255.255 0 0 0 .074.18.256.256 0 0 0 .18.076h5.994a.256.256 0 0 0 .252-.26v-3.032Zm-1.996-3.032c0-.453-.163-.724-.361-.892-.215-.182-.53-.29-.88-.283-.716.014-1.267.452-1.267 1.175v1.271h2.508V8.925Zm8.496 6.138c0 .313-.04.616-.164.914-.124.297-.31.535-.524.749l-4.336 4.335a2.32 2.32 0 0 1-.763.53 2.32 2.32 0 0 1-.9.159H8.938c-.313 0-.616-.04-.914-.164a2.321 2.321 0 0 1-.749-.524L2.94 16.725a2.326 2.326 0 0 1-.53-.763 2.316 2.316 0 0 1-.159-.9V8.938c0-.313.04-.616.164-.914.124-.297.31-.535.524-.749l4.337-4.337c.222-.22.464-.406.762-.529.298-.122.598-.158.9-.158h6.127c.301 0 .6.036.899.158.299.123.541.31.763.53l4.335 4.336c.222.222.408.464.53.763.123.298.159.598.159.9v6.127Zm-6.996-4.867h.244c.974 0 1.752.795 1.752 1.761v3.032c0 .966-.779 1.761-1.752 1.761H8.999a1.758 1.758 0 0 1-1.749-1.763v-3.03c0-.966.778-1.76 1.752-1.76h.244V8.924c0-1.768 1.453-2.65 2.74-2.674.653-.012 1.34.183 1.876.638.554.469.892 1.168.892 2.036v1.271Z"/>
</svg>
