<svg xmlns="http://www.w3.org/2000/svg" fill="none" viewBox="0 0 24 24">
  <path fill="currentColor" d="M21.25 12a1.66 1.66 0 0 0-.377-1.053l-.11-.122-7.589-7.588a1.66 1.66 0 0 0-2.348 0l-7.588 7.588a1.664 1.664 0 0 0-.001 2.35l7.589 7.588.12.11a1.663 1.663 0 0 0 1.69.25c.202-.083.384-.206.538-.36l7.59-7.588A1.663 1.663 0 0 0 21.25 12Zm-6-.043c0-.15-.12-.261-.252-.261H9.002a.258.258 0 0 0-.252.261v3.036a.256.256 0 0 0 .075.181.257.257 0 0 0 .18.076h5.993a.258.258 0 0 0 .253-.261v-3.032Zm7.5.043a3.16 3.16 0 0 1-.926 2.236l-7.588 7.587a3.16 3.16 0 0 1-4.472 0l-7.587-7.587a3.16 3.16 0 0 1-.107-4.359l.107-.113 7.587-7.587.113-.107a3.16 3.16 0 0 1 4.359.107l7.587 7.587A3.166 3.166 0 0 1 22.75 12Zm-9.496-3.075c0-.453-.163-.725-.36-.893-.216-.182-.53-.288-.88-.282-.716.014-1.267.452-1.267 1.175v1.27h2.507v-1.27Zm1.5 1.27H15c.973 0 1.751.796 1.751 1.762v3.031c0 .966-.778 1.762-1.752 1.762H9a1.758 1.758 0 0 1-1.75-1.763v-3.03c0-.966.779-1.761 1.752-1.761h.245v-1.27c0-1.768 1.452-2.652 2.739-2.676.652-.012 1.34.183 1.877.638.553.469.891 1.17.891 2.037v1.27Z"/>
</svg>
