<svg xmlns="http://www.w3.org/2000/svg" fill="none" viewBox="0 0 24 24">
  <path fill="currentColor" d="M20.25 12a8.25 8.25 0 1 0-16.5-.001 8.25 8.25 0 0 0 16.5.001Zm-5-.043c0-.15-.12-.26-.252-.26H9.002a.257.257 0 0 0-.252.26v3.036a.255.255 0 0 0 .074.18.256.256 0 0 0 .18.076h5.994a.256.256 0 0 0 .252-.26v-3.032Zm6.5.043a9.75 9.75 0 1 1-19.502 0 9.75 9.75 0 0 1 19.502 0Zm-8.496-3.075c0-.453-.163-.724-.361-.892-.215-.182-.53-.29-.88-.283-.716.014-1.267.452-1.267 1.175v1.271h2.508V8.925Zm1.5 1.271h.244c.974 0 1.752.795 1.752 1.761v3.032c0 .966-.779 1.761-1.752 1.761H8.999a1.758 1.758 0 0 1-1.749-1.763v-3.03c0-.966.778-1.76 1.752-1.76h.244V8.924c0-1.768 1.453-2.65 2.74-2.674.653-.012 1.34.183 1.876.638.554.469.892 1.168.892 2.036v1.271Z"/>
</svg>
