<svg xmlns="http://www.w3.org/2000/svg" fill="none" viewBox="0 0 24 24">
  <path fill="currentColor" d="M19.75 13.2c0-.572 0-.957-.024-1.253-.024-.287-.066-.424-.113-.514a1.249 1.249 0 0 0-.546-.546c-.09-.046-.229-.088-.514-.112-.296-.024-.68-.024-1.253-.024H6.7c-.572 0-.957 0-1.253.024-.287.024-.424.066-.515.112l-.001-.001c-.235.12-.425.312-.544.547h-.001c-.046.09-.088.228-.112.514-.024.296-.024.68-.024 1.253v4.6c0 .572 0 .957.024 1.253.024.287.066.424.112.514.12.235.311.427.547.546.09.047.227.09.514.113.296.024.68.024 1.253.024h10.6c.572 0 .957 0 1.253-.024.287-.024.424-.066.514-.113.235-.12.427-.31.546-.546.047-.09.09-.227.113-.514.024-.296.024-.68.024-1.253v-4.6Zm1.5 4.6c0 .547.001 1.004-.03 1.375-.03.38-.098.736-.27 1.073a2.752 2.752 0 0 1-1.202 1.202c-.337.172-.693.24-1.073.27-.371.031-.828.03-1.375.03H6.7c-.547 0-1.004.001-1.375-.03-.38-.03-.736-.098-1.073-.27a2.75 2.75 0 0 1-1.201-1.202l-.001.001c-.172-.337-.24-.694-.27-1.073-.031-.371-.03-.828-.03-1.376v-4.6c0-.547-.001-1.004.03-1.375.03-.38.098-.736.27-1.073a2.752 2.752 0 0 1 1.2-1.202l.002-.001c.337-.171.694-.238 1.073-.269.371-.03.827-.029 1.374-.029h.55V8c0-1.478.33-2.9 1.107-3.975C9.158 2.92 10.387 2.25 12 2.25c1.211 0 2.221.377 2.996 1.06.67.59 1.124 1.371 1.402 2.24l.109.378.014.076a.75.75 0 0 1-1.445.37l-.022-.074-.085-.294c-.213-.667-.54-1.197-.964-1.57-.475-.419-1.123-.686-2.005-.686-1.148 0-1.919.45-2.428 1.154C9.04 5.64 8.75 6.717 8.75 8v1.251h8.55c.547 0 1.003 0 1.374.03.38.03.736.097 1.073.268h.001c.517.264.939.686 1.202 1.203.172.337.24.693.27 1.073.031.371.03.828.03 1.375v4.6Z"/>
</svg>
