<svg xmlns="http://www.w3.org/2000/svg" fill="none" viewBox="0 0 24 24">
  <path fill="currentColor" d="M3.75 18.429V5.57c0-1.647 1.066-3.32 2.75-3.32h7a.75.75 0 0 1 0 1.5h-7c-.526 0-1.25.63-1.25 1.82v12.86c0 1.192.724 1.821 1.25 1.821h6.996l.076.004a.75.75 0 0 1 0 1.492l-.076.004H6.5c-1.684 0-2.75-1.673-2.75-3.321Zm8.72-10.46a.75.75 0 1 1 1.06 1.061l-2.215 2.216H19.5l.077.004a.75.75 0 0 1 0 1.492l-.077.004h-8.193l2.223 2.224.052.056a.75.75 0 0 1-1.056 1.056l-.056-.052-3.5-3.5a.745.745 0 0 1-.22-.534.744.744 0 0 1 .241-.549L12.47 7.97Z"/>
</svg>
