<svg xmlns="http://www.w3.org/2000/svg" fill="none" viewBox="0 0 24 24">
  <path fill="currentColor" d="M7.875 12V8.25H3.75V12A8.25 8.25 0 0 0 12 20.25l.405-.01A8.25 8.25 0 0 0 20.25 12V8.25h-4.125V12a4.125 4.125 0 1 1-8.25 0Zm0-7a1.25 1.25 0 0 0-1.126-1.244l-.124-.006H5A1.25 1.25 0 0 0 3.75 5v1.75h4.125V5ZM20.25 5A1.25 1.25 0 0 0 19 3.75h-1.625A1.25 1.25 0 0 0 16.125 5v1.75h4.125V5Zm1.5 7-.012.48a9.752 9.752 0 0 1-9.258 9.258l-.48.012a9.751 9.751 0 0 1-9.738-9.27L2.25 12V5A2.75 2.75 0 0 1 5 2.25h1.625A2.75 2.75 0 0 1 9.375 5v7l.013.26a2.625 2.625 0 0 0 5.237-.26V5a2.75 2.75 0 0 1 2.75-2.75H19A2.75 2.75 0 0 1 21.75 5v7Z"/>
</svg>
