<svg xmlns="http://www.w3.org/2000/svg" fill="none" viewBox="0 0 24 24">
  <path fill="currentColor" d="M20.25 6.99c0-.557-.001-.914-.031-1.185-.028-.253-.074-.354-.117-.416-.042-.06-.114-.134-.33-.237a5.018 5.018 0 0 0-.43-.177l-.638-.226c-.321-.11-.655-.244-.97-.37a18.483 18.483 0 0 0-.945-.358 5.168 5.168 0 0 0-1.039-.252v13.007c.359.041.704.14 1.018.25.43.151.894.361 1.273.517.407.168.755.293 1.064.346.3.052.516.028.69-.052l.07-.036a.753.753 0 0 0 .179-.15c.046-.052.118-.17.161-.55.043-.386.045-.909.045-1.69V6.99Zm-6-2.936c-.533.26-1.055.67-1.648 1.161-.78.646-1.709 1.458-2.852 1.835v12.9c.533-.262 1.056-.67 1.648-1.16.78-.647 1.709-1.46 2.852-1.837V4.055Zm-10.5 12.96c0 .558.001.915.031 1.186.028.252.074.352.117.415l.107.123c.135.133.359.296.685.47.418.223.934.428 1.48.597.544.169 1.1.297 1.588.371.18.028.345.045.492.057V7.229a4.7 4.7 0 0 1-1.018-.25c-.43-.152-.895-.362-1.274-.518-.407-.168-.754-.292-1.063-.345-.3-.052-.517-.029-.69.051a.736.736 0 0 0-.247.185l-.003.003c-.045.051-.118.17-.16.549-.043.385-.045.908-.045 1.69v8.42Zm18-1.603c0 .745.001 1.369-.054 1.858-.055.494-.18.979-.527 1.372a2.25 2.25 0 0 1-.744.558c-.534.246-1.082.252-1.574.167-.484-.083-.96-.262-1.381-.436-.45-.185-.819-.354-1.201-.49-.375-.131-.667-.193-.902-.185a2.246 2.246 0 0 0-.436.06c-.89.218-1.637.85-2.575 1.629-.874.724-1.934 1.587-3.298 1.776v.001c-.427.06-.975.022-1.527-.063a12.732 12.732 0 0 1-1.805-.42 10.169 10.169 0 0 1-1.742-.706c-.504-.27-1.009-.618-1.317-1.061-.24-.344-.334-.718-.377-1.107-.04-.372-.04-.826-.04-1.35v-8.42c0-.746-.001-1.37.054-1.858.055-.494.18-.978.525-1.371a2.23 2.23 0 0 1 .747-.56l.2-.082c.47-.165.942-.16 1.373-.086.484.084.96.263 1.381.437.45.185.819.355 1.201.49.374.132.666.192.9.184a2.08 2.08 0 0 0 .437-.06c.89-.217 1.637-.85 2.577-1.628.873-.724 1.932-1.588 3.297-1.776.818-.115 1.627.08 2.326.316.354.12.701.258 1.022.386.328.13.624.25.904.346.479.166.898.31 1.23.47.35.168.668.384.909.73.24.345.334.72.377 1.109.04.372.04.825.04 1.349v8.421Z"/>
</svg>
