<svg xmlns="http://www.w3.org/2000/svg" fill="none" viewBox="0 0 24 24">
  <path fill="currentColor" d="M4.95 7.35a.6.6 0 0 0-1.2 0v2.188a1.25 1.25 0 0 0 1.2 1.247V7.35Zm7.964.623a3.25 3.25 0 0 0-1.828 0L6.45 9.33v2.37A5.55 5.55 0 0 0 12 17.25l.273-.007A5.55 5.55 0 0 0 17.55 11.7V9.33l-4.636-1.357Zm7.336-.623a.6.6 0 0 0-1.2 0v3.435a1.248 1.248 0 0 0 1.2-1.247V7.35Zm1.5 2.188a2.75 2.75 0 0 1-2.727 2.748 7.049 7.049 0 0 1-.51 2.112 7.054 7.054 0 0 1-3.815 3.815 7.05 7.05 0 0 1-2.351.528L12 18.75a7.052 7.052 0 0 1-6.514-4.352 7.048 7.048 0 0 1-.51-2.112A2.748 2.748 0 0 1 2.25 9.538V7.35a2.1 2.1 0 0 1 4.2 0v.418l4.214-1.235a4.75 4.75 0 0 1 2.672 0l4.214 1.234V7.35a2.1 2.1 0 0 1 4.2 0v2.188Z"/>
</svg>
