<svg xmlns="http://www.w3.org/2000/svg" fill="none" viewBox="0 0 24 24">
  <path fill="currentColor" d="M19.912 15.509a.75.75 0 0 1 1.073 1.048l-1.913 1.959 1.913 1.96.051.058a.75.75 0 0 1-1.124.99l-1.888-1.935-1.887 1.934-.057.053a.75.75 0 0 1-1.016-1.1l1.913-1.96-1.914-1.96a.75.75 0 0 1 1.074-1.047l1.887 1.933 1.888-1.933ZM9.43 17.616a.75.75 0 0 1 0 1.5h-6a.75.75 0 0 1 0-1.5h6Zm-3.75-7.592V7.262H3a.75.75 0 0 1 0-1.5h2.679V3a.75.75 0 0 1 1.5 0v2.762h2.678l.077.004a.75.75 0 0 1 0 1.492l-.077.004H7.18v2.762a.75.75 0 0 1-1.5 0ZM21 7.957l.077.004a.75.75 0 0 1 0 1.492L21 9.457h-6a.75.75 0 0 1 0-1.5h6Zm0-4.39.077.004a.75.75 0 0 1 0 1.492L21 5.067h-6a.75.75 0 0 1 0-1.5h6Z"/>
</svg>
