<svg xmlns="http://www.w3.org/2000/svg" fill="none" viewBox="0 0 24 24">
  <path fill="currentColor" d="M6.429 2.25a.75.75 0 0 1 .75.75v2.762h2.678a.75.75 0 0 1 0 1.5H7.18v2.762a.75.75 0 1 1-1.5 0V7.262H3a.75.75 0 0 1 0-1.5h2.679V3a.75.75 0 0 1 .75-.75Zm7.821 2.067a.75.75 0 0 1 .75-.75h6a.75.75 0 1 1 0 1.5h-6a.75.75 0 0 1-.75-.75Zm0 4.39a.75.75 0 0 1 .75-.75h6a.75.75 0 1 1 0 1.5h-6a.75.75 0 0 1-.75-.75Zm.826 6.789a.75.75 0 0 1 1.06.013l1.889 1.934 1.887-1.934a.75.75 0 1 1 1.074 1.048l-1.913 1.96 1.913 1.959a.749.749 0 0 1-.258 1.22.75.75 0 0 1-.816-.172l-1.887-1.934-1.888 1.934a.75.75 0 1 1-1.074-1.048l1.914-1.96-1.914-1.96a.75.75 0 0 1 .013-1.06ZM2.68 18.366a.75.75 0 0 1 .75-.75h6a.75.75 0 1 1 0 1.5h-6a.75.75 0 0 1-.75-.75Z"/>
</svg>
