<svg xmlns="http://www.w3.org/2000/svg" fill="none" viewBox="0 0 24 24">
  <path fill="currentColor" d="M21.25 11c0-1.912-.003-3.252-.173-4.265-.163-.97-.466-1.541-1.01-1.977-.57-.455-1.357-.725-2.66-.865C16.093 3.75 14.373 3.75 12 3.75s-4.094.001-5.406.143c-1.304.14-2.092.41-2.661.865-.545.435-.847 1.006-1.01 1.977C2.753 7.748 2.75 9.088 2.75 11c0 1.927.005 2.99.166 3.73.075.343.18.59.324.805.111.166.259.332.465.516l.228.191c.494.396 1.153.651 2.177.804a.75.75 0 0 1 .64.742v1.833c.108-.076.215-.152.322-.23.455-.329.926-.684 1.403-.993.978-.636 2.071-1.148 3.525-1.148 2.374 0 4.094-.001 5.406-.143 1.305-.14 2.093-.41 2.66-.865l.228-.191a2.75 2.75 0 0 0 .466-.516 2.25 2.25 0 0 0 .324-.806c.161-.74.166-1.802.166-3.729Zm-7.78-3.03a.75.75 0 1 1 1.06 1.06l-1.47 1.47 1.47 1.47.052.056a.75.75 0 0 1-1.056 1.056l-.056-.052L12 11.56l-1.47 1.47a.75.75 0 1 1-1.06-1.06l1.47-1.47-1.47-1.47-.052-.056a.75.75 0 0 1 1.056-1.056l.056.052L12 9.44l1.47-1.47ZM22.75 11c0 1.844.005 3.11-.2 4.049a3.738 3.738 0 0 1-.545 1.323c-.264.392-.601.722-1.002 1.042-.895.717-2.018 1.033-3.437 1.186-1.41.151-3.226.15-5.566.15-1.056 0-1.864.357-2.708.905-.434.283-.854.6-1.339.951-.475.345-.994.708-1.58 1.044A.75.75 0 0 1 5.25 21v-2.589c-.878-.19-1.623-.492-2.255-.998-.4-.32-.737-.649-1-1.04a3.74 3.74 0 0 1-.545-1.324c-.204-.939-.2-2.205-.2-4.049 0-1.86-.002-3.348.193-4.514.203-1.207.633-2.165 1.552-2.9.896-.716 2.02-1.033 3.439-1.186 1.41-.15 3.226-.15 5.566-.15s4.155-.001 5.566.15c1.419.153 2.542.47 3.438 1.187.919.736 1.349 1.693 1.552 2.9.196 1.166.194 2.654.194 4.513Z"/>
</svg>
