<svg xmlns="http://www.w3.org/2000/svg" fill="none" viewBox="0 0 24 24">
  <path fill="currentColor" d="m15.25 9.81-4.297 4.296c.337.097.688.146 1.042.144H12c1.908 0 3.25-1.303 3.25-2.679v-1.76Zm-8.928 3.806a.75.75 0 0 1-1.362.628l1.362-.628ZM4.25 11a.75.75 0 0 1 1.5 0c0 .935.206 1.822.572 2.616l-.681.314-.681.314A7.729 7.729 0 0 1 4.25 11Zm3 .571V6.43c0-2.413 2.238-4.18 4.75-4.18 1.51 0 2.882.622 3.764 1.626a.75.75 0 0 1-1.075 1.045l-.052-.056-.114-.12C13.938 4.15 13.038 3.75 12 3.75c-1.908 0-3.25 1.303-3.25 2.68v5.141a.75.75 0 0 1-1.5 0Zm9.5 0c0 2.411-2.236 4.176-4.746 4.178v.001l-.002-.001-.002.001a5.187 5.187 0 0 1-2.209-.481l-1.059 1.058A6.25 6.25 0 0 0 18.25 11a.75.75 0 0 1 1.5 0 7.75 7.75 0 0 1-7 7.714v1.536H16a.75.75 0 1 1 0 1.5H8a.75.75 0 0 1 0-1.5h3.25v-1.537c-.06-.006-.121-.01-.182-.018a7.75 7.75 0 0 1-3.42-1.283L3.53 21.53a.75.75 0 1 1-1.06-1.06l18-18a.75.75 0 1 1 1.06 1.06l-4.78 4.78v3.261Z"/>
</svg>
