<svg xmlns="http://www.w3.org/2000/svg" fill="none" viewBox="0 0 24 24">
  <path fill="currentColor" d="M4.25 11a.75.75 0 0 1 1.5 0 6.25 6.25 0 1 0 12.5 0 .75.75 0 0 1 1.5 0 7.752 7.752 0 0 1-7 7.713v1.537H16a.75.75 0 0 1 0 1.5H8a.75.75 0 0 1 0-1.5h3.25v-1.537a7.752 7.752 0 0 1-4.73-2.233A7.751 7.751 0 0 1 4.25 11Zm11-4.571c0-1.376-1.342-2.679-3.25-2.679S8.75 5.053 8.75 6.429v5.142c0 1.376 1.342 2.679 3.25 2.679s3.25-1.303 3.25-2.679V6.43Zm1.5 5.142c0 2.412-2.238 4.179-4.75 4.179s-4.75-1.767-4.75-4.179V6.43c0-2.414 2.238-4.18 4.75-4.18s4.75 1.766 4.75 4.179v5.142Z"/>
</svg>
