<svg xmlns="http://www.w3.org/2000/svg" fill="none" viewBox="0 0 24 24">
  <path fill="currentColor" d="M3.02 13.51c2.737.04 4.644.22 5.952 1.527 1.144 1.145 1.426 2.747 1.505 4.964l.023.989-.003.076a.75.75 0 0 1-1.492.021L9 21.011l-.025-.994c-.083-2.155-.352-3.207-1.064-3.919-.712-.712-1.764-.98-3.919-1.062L3 15.01l-.076-.005a.75.75 0 0 1 .098-1.495Zm17.97 0a.75.75 0 0 1 .02 1.5c-2.84.04-4.098.274-4.912 1.088-.814.814-1.047 2.071-1.088 4.913a.75.75 0 0 1-1.5-.021c.04-2.738.219-4.644 1.527-5.953 1.308-1.308 3.215-1.488 5.952-1.527ZM9.76 2.26a.75.75 0 0 1 .74.76c-.04 2.739-.22 4.643-1.527 5.952l-.001.001c-1.31 1.306-3.214 1.488-5.951 1.527A.75.75 0 0 1 2.999 9c2.84-.04 4.098-.275 4.913-1.089C8.726 7.096 8.96 5.841 9 3a.75.75 0 0 1 .76-.739Zm4.49 0a.75.75 0 0 1 .755.663L15.01 3l.025.994c.083 2.154.35 3.205 1.063 3.918.712.712 1.765.98 3.92 1.064L21.01 9l.076.005a.75.75 0 0 1-.021 1.492l-.077.003-.988-.023c-2.216-.079-3.818-.36-4.963-1.504v-.001c-1.309-1.309-1.489-3.213-1.528-5.951a.75.75 0 0 1 .74-.76Z"/>
</svg>
