<svg xmlns="http://www.w3.org/2000/svg" fill="none" viewBox="0 0 24 24">
  <path fill="currentColor" d="M10.5 3.02A.75.75 0 0 0 9 3c-.04 2.84-.275 4.098-1.09 4.91-.812.815-2.07 1.05-4.91 1.091a.75.75 0 1 0 .02 1.5c2.737-.04 4.643-.22 5.95-1.529 1.309-1.308 1.49-3.215 1.53-5.952ZM3.02 13.51a.75.75 0 1 0-.02 1.5c2.842.04 4.099.274 4.912 1.088.814.814 1.048 2.071 1.09 4.913a.75.75 0 1 0 1.499-.022c-.04-2.737-.22-4.643-1.528-5.95-1.308-1.309-3.214-1.49-5.951-1.529M15.01 3a.75.75 0 0 0-1.5.021c.04 2.737.22 4.643 1.528 5.951 1.308 1.308 3.214 1.488 5.95 1.528a.75.75 0 0 0 .023-1.5c-2.842-.04-4.1-.275-4.913-1.089-.813-.813-1.047-2.07-1.088-4.912Zm6 12.01a.75.75 0 1 0-.02-1.5c-2.738.04-4.644.22-5.952 1.528-1.308 1.308-1.49 3.214-1.528 5.951a.75.75 0 1 0 1.5.022c.04-2.842.274-4.099 1.088-4.913.814-.813 2.07-1.047 4.912-1.088Z"/>
</svg>
