<svg xmlns="http://www.w3.org/2000/svg" fill="none" viewBox="0 0 24 24">
  <path fill="currentColor" d="M11.042 2.253a.75.75 0 0 1 .668 1.196c-2.089 2.79-1.342 5.99.712 8.028 2.056 2.04 5.3 2.794 8.136.725a.75.75 0 0 1 1.188.676c-.543 5.81-6.33 9.896-12.014 8.645-5.416-1.19-7.78-5.803-7.453-10.165.328-4.353 3.35-8.611 8.763-9.105ZM9.625 4.026c-3.58.99-5.6 4.13-5.85 7.445-.282 3.759 1.724 7.587 6.279 8.587l.453.086c4.153.672 8.257-1.955 9.44-5.86-3.143 1.408-6.45.373-8.582-1.741-2.132-2.116-3.175-5.404-1.74-8.517Z"/>
</svg>
