<svg xmlns="http://www.w3.org/2000/svg" fill="none" viewBox="0 0 24 24">
  <path fill="currentColor" d="M10.498 3.25a2.39 2.39 0 0 1 2.175 1.455h.002l2.654 6.027a2.388 2.388 0 0 1 3.585.938l2.596 5.542c.753 1.604-.361 3.538-2.176 3.538H4.666c-1.81 0-2.925-1.924-2.182-3.527l5.808-12.56a2.392 2.392 0 0 1 2.206-1.413Zm-.015 1.5a.893.893 0 0 0-.824.531l-.005.012-5.809 12.56c-.314.68.183 1.397.82 1.397h14.669c.639 0 1.137-.721.818-1.401l-2.597-5.542-.006-.012a.89.89 0 0 0-.737-.522.887.887 0 0 0-.812.395l-.005.008-.251.37-2.116 3.139a.75.75 0 0 1-1.244-.84l1.885-2.797-2.967-6.737-.006-.014a.892.892 0 0 0-.813-.547Z"/>
</svg>
