<svg xmlns="http://www.w3.org/2000/svg" fill="none" viewBox="0 0 24 24">
  <path fill="currentColor" d="M10.498 3.25a2.39 2.39 0 0 1 2.175 1.455h.002l2.654 6.027a2.388 2.388 0 0 1 3.585.938l2.596 5.542c.753 1.604-.361 3.538-2.176 3.538H4.666c-1.81 0-2.925-1.924-2.182-3.527l5.808-12.56a2.392 2.392 0 0 1 2.206-1.413Zm-.384 12.393c-1.028-.617-2.316-.642-3.435-.465a9.34 9.34 0 0 0-1.822.486l-1.012 2.189c-.314.68.183 1.397.82 1.397h14.669c.639 0 1.137-.721.818-1.401l-.806-1.719a6.214 6.214 0 0 1-1.892.933c-1.729.515-4.196.466-7.34-1.42Zm6.698-3.87a.887.887 0 0 0-.812.395l-.005.008-.251.37-2.054 3.045c1.42.38 2.528.275 3.335.034a4.71 4.71 0 0 0 1.461-.723c.08-.06.149-.116.207-.166l-1.138-2.43-.006-.011a.89.89 0 0 0-.737-.522ZM10.483 4.75a.893.893 0 0 0-.824.531l-.005.012-3.955 8.55c.23-.053.48-.105.746-.147 1.257-.198 2.969-.222 4.44.66.489.293.954.533 1.395.73a.744.744 0 0 1 .104-.24l1.885-2.798-2.967-6.737-.006-.014a.892.892 0 0 0-.813-.547Z"/>
</svg>
