<svg xmlns="http://www.w3.org/2000/svg" fill="none" viewBox="0 0 24 24">
  <path fill="currentColor" d="M3.348 5.706c-.47-1.412.816-2.757 2.221-2.398l.137.04 12.94 4.312c1.626.543 1.718 2.808.144 3.483l-4.611 1.975 6.351 6.352.052.056a.75.75 0 0 1-1.056 1.056l-.056-.052-6.352-6.351-1.974 4.61c-.676 1.574-2.941 1.483-3.484-.144L3.348 5.706ZM5.23 4.77a.366.366 0 0 0-.46.461l4.312 12.94a.365.365 0 0 0 .682.027l2.412-5.628.068-.125a.75.75 0 0 1 .325-.268l5.628-2.412.055-.029a.366.366 0 0 0-.082-.653L5.23 4.77Z"/>
</svg>
