<svg xmlns="http://www.w3.org/2000/svg" fill="none" viewBox="0 0 24 24">
  <path fill="currentColor" d="M11.526 2.418a.75.75 0 0 1 1.004.052l2.7 2.7.052.057a.75.75 0 0 1-1.056 1.055l-.056-.051-1.42-1.42v6.44h6.44l-1.42-1.42a.75.75 0 0 1 1.06-1.061l2.7 2.7a.75.75 0 0 1 0 1.06l-2.7 2.7a.75.75 0 0 1-1.06-1.06l1.42-1.42h-6.44v6.44l1.42-1.42a.75.75 0 0 1 1.06 1.06l-2.7 2.7a.75.75 0 0 1-1.06 0l-2.7-2.7a.75.75 0 0 1 1.06-1.06l1.42 1.42v-6.44H4.81l1.42 1.42.052.057a.75.75 0 0 1-1.055 1.055l-.057-.051-2.7-2.7a.75.75 0 0 1 0-1.061l2.7-2.7a.75.75 0 0 1 1.06 1.06l-1.42 1.42h6.44V4.81L9.83 6.23a.75.75 0 0 1-1.06-1.06l2.7-2.7.056-.052Z"/>
</svg>
