<svg xmlns="http://www.w3.org/2000/svg" fill="none" viewBox="0 0 24 24">
  <path fill="currentColor" fill-rule="evenodd" d="M9.763 3.02h6.274c.209 0 .369 0 .51.014.19.019.165.28-.022.32-.787.173-1.704.539-2.044 1.01-.07.097-.176.173-.296.173H7.538c-.21 0-.347-.213-.23-.386.413-.607 1.117-1.035 1.946-1.117.138-.013.298-.013.509-.013ZM7.785 5.469c-1.03 0-1.92.555-2.394 1.31-.125.201.073.42.306.373.184-.037.37-.067.558-.09.97-.125 2.199-.125 3.625-.125h4.31c.286 0 .45-.437.312-.687a2.01 2.01 0 0 1-.2-.52c-.035-.146-.158-.26-.307-.26h-6.21Zm12.531.473h2.697a.674.674 0 0 0 0-1.348h-2.697V1.897a.674.674 0 1 0-1.348 0v2.697h-2.697a.674.674 0 1 0 0 1.348h2.697V8.64a.674.674 0 1 0 1.348 0V5.942Z" clip-rule="evenodd"/>
  <path fill="currentColor" fill-rule="evenodd" d="M9.908 8.003h5.984c.524 0 1.003 0 1.442.004a.29.29 0 0 1 .285.29v.342a2.023 2.023 0 0 0 3.656 1.195c.149-.204.473-.219.53.027.2.878.019 2.122-.26 4.028l-.38 2.6c-.314 2.148-.472 3.224-1.278 3.867C19.08 21 17.89 21 15.51 21h-5.22c-2.38 0-3.568 0-4.376-.644-.806-.643-.963-1.718-1.278-3.867l-.38-2.6c-.401-2.742-.602-4.112.25-4.999.853-.887 2.37-.887 5.403-.887Zm4.496 3.76h1.153a.73.73 0 0 0 .49-.185.605.605 0 0 0 .203-.447.605.605 0 0 0-.203-.447.728.728 0 0 0-.49-.184h-1.292c-.689 0-1.246.508-1.246 1.136v3.182a2.267 2.267 0 0 0-1.29-.028 2.09 2.09 0 0 0-1.059.671 1.79 1.79 0 0 0-.42 1.113c-.007.402.126.796.38 1.124.255.329.618.575 1.035.703.418.128.87.131 1.29.01a2.08 2.08 0 0 0 1.048-.687c.26-.325.4-.717.4-1.119v-4.842Zm-1.588 4.396a.727.727 0 0 0-.49-.185.728.728 0 0 0-.489.185.605.605 0 0 0-.203.446c0 .168.073.328.203.447a.73.73 0 0 0 .49.185c.183 0 .36-.067.49-.185a.605.605 0 0 0 .202-.447.605.605 0 0 0-.203-.446Z" clip-rule="evenodd"/>
</svg>
