<svg xmlns="http://www.w3.org/2000/svg" fill="none" viewBox="0 0 24 24">
  <path fill="currentColor" d="M7.875 17.65c0-1.168-.932-2.1-2.062-2.1s-2.063.933-2.063 2.1c0 1.17.933 2.1 2.063 2.1 1.129 0 2.062-.93 2.062-2.1Zm1.495.185c-.095 1.894-1.643 3.415-3.557 3.415-1.977 0-3.563-1.621-3.563-3.6 0-1.978 1.587-3.6 3.563-3.6.77 0 1.481.247 2.062.665V5.462c0-.904.686-1.665 1.59-1.748l10.375-.956A1.755 1.755 0 0 1 21.604 3.8c.097.222.147.462.146.705V16.51c0 1.977-1.586 3.6-3.561 3.6-1.978 0-3.564-1.623-3.564-3.6 0-1.978 1.587-3.6 3.564-3.6.77 0 1.48.247 2.061.665V4.502a.25.25 0 0 0-.22-.25h-.053l-10.374.956a.253.253 0 0 0-.228.254V17.65l-.005.185Zm6.755-1.325c0 1.168.933 2.1 2.064 2.1 1.127 0 2.06-.931 2.061-2.098 0-1.17-.933-2.102-2.061-2.102-1.13 0-2.064.932-2.064 2.1Z"/>
</svg>
