<svg xmlns="http://www.w3.org/2000/svg" fill="none" viewBox="0 0 24 24">
  <path fill="currentColor" d="M21.25 12a1.66 1.66 0 0 0-.377-1.053l-.11-.122-7.589-7.588a1.66 1.66 0 0 0-2.348 0l-7.588 7.588a1.664 1.664 0 0 0-.001 2.35l7.589 7.588.12.11a1.663 1.663 0 0 0 1.69.25c.202-.083.384-.206.538-.36l7.59-7.588A1.663 1.663 0 0 0 21.25 12Zm-9.5 2.5a.75.75 0 1 0-1.5.001.75.75 0 0 0 1.5 0Zm1.49.22a2.248 2.248 0 0 1-.649 1.371 2.251 2.251 0 0 1-3.84-1.59 2.25 2.25 0 0 1 3-2.12V8.6c0-.358.142-.701.395-.954l.099-.09a1.35 1.35 0 0 1 .855-.306h1.4a.75.75 0 0 1 0 1.5h-1.25v5.75l-.01.22ZM22.75 12a3.16 3.16 0 0 1-.926 2.236l-7.588 7.587a3.16 3.16 0 0 1-4.472 0l-7.587-7.587a3.16 3.16 0 0 1-.107-4.359l.107-.113 7.587-7.587.113-.107a3.16 3.16 0 0 1 4.359.107l7.587 7.587A3.166 3.166 0 0 1 22.75 12Z"/>
</svg>
