<svg xmlns="http://www.w3.org/2000/svg" fill="none" viewBox="0 0 24 24">
  <path fill="currentColor" d="M19.978 4.25c.141-.012.272.1.272.256v9.07a3.5 3.5 0 0 0-2.062-.665c-1.977 0-3.563 1.62-3.563 3.6 0 1.979 1.586 3.6 3.563 3.6 1.976 0 3.562-1.622 3.562-3.6V4.506c0-1.03-.88-1.843-1.91-1.75l-10.375.957a1.753 1.753 0 0 0-1.59 1.748v9.254a3.5 3.5 0 0 0-2.062-.664c-1.977 0-3.563 1.62-3.563 3.6 0 1.978 1.586 3.599 3.563 3.599 1.976 0 3.562-1.62 3.562-3.6V5.462c0-.135.102-.243.228-.254l10.375-.957Z"/>
</svg>
