<svg xmlns="http://www.w3.org/2000/svg" fill="none" viewBox="0 0 24 24">
  <path fill="currentColor" d="M20.25 9.4c0-1.132 0-1.937-.052-2.566-.044-.543-.124-.905-.247-1.191l-.056-.119A3.25 3.25 0 0 0 18.7 4.23l-.223-.125c-.305-.155-.69-.252-1.31-.302-.63-.052-1.434-.052-2.566-.052H9.4c-1.132 0-1.937 0-2.566.052-.543.044-.905.124-1.191.247l-.119.055A3.25 3.25 0 0 0 4.23 5.301l-.125.223c-.155.305-.252.69-.302 1.31-.043.522-.049 1.165-.05 2.016l1.1-1.029c2.51-2.562 6.55-2.563 9.04.011l4.217 3.941.005.005.072.076a1.038 1.038 0 0 1-.072 1.43l-.005.005-7.446 6.961H14.6c1.132 0 1.937 0 2.566-.052.62-.05 1.005-.147 1.31-.303l.223-.125a3.25 3.25 0 0 0 1.196-1.294l.056-.119c.123-.286.203-.648.247-1.191.052-.63.052-1.434.052-2.566V9.4Zm-16.5 5.2c0 1.132 0 1.937.052 2.566.05.62.147 1.005.302 1.31l.125.223c.313.51.76.924 1.295 1.196l.119.056c.286.123.648.203 1.191.247.442.036.97.044 1.637.047l8.252-7.714-3.867-3.614a.83.83 0 0 1-.028-.028c-1.904-1.984-4.998-1.987-6.925.002l-.026.026-2.114 1.978-.013.01V14.6Zm18 0c0 1.107 0 1.984-.057 2.688-.058.713-.18 1.317-.46 1.868a4.751 4.751 0 0 1-2.077 2.076c-.551.281-1.155.403-1.868.461-.704.058-1.58.057-2.688.057H9.4c-1.107 0-1.983 0-2.688-.057-.713-.058-1.317-.18-1.868-.46a4.752 4.752 0 0 1-2.076-2.077c-.281-.551-.403-1.155-.461-1.868-.058-.704-.057-1.58-.057-2.688V9.4c0-1.107 0-1.983.057-2.688.058-.713.18-1.317.46-1.868a4.752 4.752 0 0 1 2.077-2.076c.551-.281 1.155-.403 1.868-.461.705-.058 1.58-.057 2.688-.057h5.2c1.107 0 1.984 0 2.688.057.713.058 1.317.18 1.868.46a4.752 4.752 0 0 1 2.076 2.077c.281.551.403 1.155.461 1.868.058.705.057 1.58.057 2.688v5.2Z"/>
</svg>
