<svg xmlns="http://www.w3.org/2000/svg" fill="none" viewBox="0 0 24 24">
  <path fill="currentColor" d="M12.097 2.256c.193.015.379.075.544.175l.08.053.077.06c.164.14.288.318.361.52L19.66 19.98a1.314 1.314 0 0 1-.289 1.402 1.21 1.21 0 0 1-1.457.214L12 18.357l-5.915 3.24c-.54.296-1.113.13-1.456-.215a1.312 1.312 0 0 1-.289-1.4l6.5-16.918c.085-.232.237-.435.438-.58l.082-.053c.192-.117.414-.18.64-.18l.097.005ZM5.955 19.958l5.453-2.987.14-.067c.143-.058.297-.088.452-.088l.155.01a1.2 1.2 0 0 1 .437.145l5.452 2.986L12 4.227l-6.045 15.73Z"/>
</svg>
