<svg xmlns="http://www.w3.org/2000/svg" fill="none" viewBox="0 0 24 24">
  <path fill="currentColor" d="m20.574 2.258.1.014.097.02a1.296 1.296 0 0 1 .852 1.81v.001l-8.007 16.905h-.001a1.296 1.296 0 0 1-2.43-.239l-1.589-6.365-6.362-1.59a1.297 1.297 0 0 1-.979-1.13 1.296 1.296 0 0 1 .163-.767l.053-.086c.13-.193.31-.348.523-.447l16.903-8.006v-.001c.212-.1.445-.14.677-.119ZM4.148 11.496l5.93 1.483.002.001c.17.043.329.12.467.225l.132.115.115.13c.07.093.129.195.172.303l.055.166 1.482 5.932 7.518-15.873-15.873 7.518Z"/>
</svg>
