<svg xmlns="http://www.w3.org/2000/svg" fill="none" viewBox="0 0 24 24">
  <path fill="currentColor" d="M10.25 10.5a1.75 1.75 0 1 1 3.5 0c0 .458-.17.73-.422.91-.283.205-.735.34-1.328.34-.593 0-1.045-.135-1.328-.34-.25-.18-.422-.452-.422-.91Z"/>
  <path fill="currentColor" d="M10.565 2.075c-.394.19-.755.497-1.26.928l-.079.066a2.56 2.56 0 0 1-1.58.655l-.102.008c-.662.053-1.135.09-1.547.236a3.33 3.33 0 0 0-2.03 2.03c-.145.411-.182.884-.235 1.546l-.008.102a2.56 2.56 0 0 1-.655 1.58l-.066.078c-.43.506-.74.867-.928 1.261a3.33 3.33 0 0 0 0 2.87c.19.394.497.755.928 1.26l.066.08c.41.48.604.938.655 1.58l.008.101c.053.662.09 1.135.236 1.547a3.33 3.33 0 0 0 2.03 2.03c.411.145.884.182 1.546.235l.102.008c.63.05 1.09.238 1.58.655l.08.066c.504.431.865.74 1.26.928a3.33 3.33 0 0 0 2.87 0c.393-.189.754-.497 1.26-.928l.078-.066c.48-.41.94-.604 1.58-.655l.102-.008c.662-.053 1.135-.09 1.547-.236a3.331 3.331 0 0 0 2.03-2.029c.145-.412.182-.885.235-1.547l.008-.102c.05-.629.238-1.09.655-1.58l.066-.079c.431-.505.74-.866.928-1.26a3.33 3.33 0 0 0 0-2.87c-.189-.394-.497-.755-.928-1.26l-.066-.079a2.56 2.56 0 0 1-.655-1.58l-.008-.102c-.053-.662-.09-1.135-.236-1.547a3.33 3.33 0 0 0-2.029-2.03c-.412-.145-.885-.182-1.547-.235l-.102-.008a2.56 2.56 0 0 1-1.58-.655l-.079-.066c-.505-.43-.866-.74-1.26-.928a3.33 3.33 0 0 0-2.87 0ZM13.75 13v-.105c-.533.252-1.144.355-1.75.355-.788 0-1.586-.175-2.207-.625-.654-.473-1.043-1.202-1.043-2.125a3.25 3.25 0 1 1 6.5 0V13a3.75 3.75 0 0 1-3.75 3.75h-1a.75.75 0 0 1 0-1.5h1A2.25 2.25 0 0 0 13.75 13Z"/>
</svg>
