<svg xmlns="http://www.w3.org/2000/svg" fill="none" viewBox="0 0 24 24">
  <path fill="currentColor" d="M10.25 10.5a1.75 1.75 0 0 1 3.5 0c0 .458-.171.729-.422.91-.283.205-.735.34-1.328.34-.593 0-1.045-.135-1.328-.34-.251-.181-.422-.452-.422-.91Z"/>
  <path fill="currentColor" d="M2.25 12A9.75 9.75 0 0 0 12 21.75 9.75 9.75 0 0 0 21.75 12 9.75 9.75 0 0 0 12 2.25 9.75 9.75 0 0 0 2.25 12Zm11.5 1v-.105c-.533.252-1.144.355-1.75.355-.788 0-1.586-.175-2.207-.625-.654-.473-1.043-1.202-1.043-2.125a3.25 3.25 0 0 1 6.5 0V13a3.75 3.75 0 0 1-3.75 3.75h-1a.75.75 0 1 1 0-1.5h1A2.25 2.25 0 0 0 13.75 13Z"/>
</svg>
