<svg xmlns="http://www.w3.org/2000/svg" fill="none" viewBox="0 0 24 24">
  <path fill="currentColor" d="M20.25 12a8.25 8.25 0 1 0-16.5-.001 8.25 8.25 0 0 0 16.5.001Zm-6.509-1.673a1.75 1.75 0 0 0-3.491.173c0 .457.17.728.422.91.283.205.736.34 1.328.34.592 0 1.045-.135 1.328-.34.251-.182.422-.453.422-.91l-.009-.173ZM21.75 12a9.75 9.75 0 1 1-19.502 0 9.75 9.75 0 0 1 19.502 0Zm-6.5 1a3.75 3.75 0 0 1-3.75 3.75h-1a.75.75 0 0 1 0-1.5h1A2.25 2.25 0 0 0 13.75 13v-.108c-.533.252-1.144.358-1.75.358-.788 0-1.585-.175-2.207-.625-.613-.444-.993-1.112-1.038-1.954L8.75 10.5a3.25 3.25 0 0 1 6.5 0V13Z"/>
</svg>
