<svg xmlns="http://www.w3.org/2000/svg" fill="none" viewBox="0 0 24 24">
  <path fill="currentColor" d="M14.238 9.892a2.376 2.376 0 0 0-2.13-2.13l-.233-.012A2.377 2.377 0 0 0 9.5 10.125c0 .63.241 1.027.605 1.29.397.287 1.005.46 1.77.46.765 0 1.373-.173 1.77-.46.364-.263.605-.66.605-1.29l-.012-.233Zm1.512 3.358a4.5 4.5 0 0 1-4.5 4.5H10a.75.75 0 0 1 0-1.5h1.25a3 3 0 0 0 3-3v-.443c-.69.402-1.53.568-2.375.568-.96 0-1.914-.213-2.65-.745C8.46 12.075 8 11.22 8 10.125a3.875 3.875 0 0 1 3.875-3.875l.19.005a3.875 3.875 0 0 1 3.685 3.87v3.125Z"/>
</svg>
