<svg xmlns="http://www.w3.org/2000/svg" fill="none" viewBox="0 0 24 24">
  <path fill="currentColor" d="M8.094 6.25c.245 0 .51-.006.762.053l.108.029.002.001c.173.055.334.136.481.24l.142.112v.001c.226.199.376.465.52.705l5.068 8.446c.09.15.14.234.182.295a.61.61 0 0 0 .041.055.258.258 0 0 0 .092.051.558.558 0 0 0 .068.007c.074.004.173.005.346.005H21a.75.75 0 1 1 0 1.5h-5.094c-.28 0-.586.008-.87-.082l-.006-.002a1.756 1.756 0 0 1-.619-.352c-.226-.199-.375-.463-.52-.706L8.823 8.163a6.79 6.79 0 0 0-.182-.295c-.037-.054-.048-.061-.042-.057a.244.244 0 0 0-.09-.05.557.557 0 0 0-.069-.006 6.69 6.69 0 0 0-.346-.005H3a.75.75 0 0 1 0-1.5h5.094ZM21 6.25l.077.004A.75.75 0 0 1 21 7.75h-6a.75.75 0 0 1 0-1.5h6Z"/>
</svg>
