<svg xmlns="http://www.w3.org/2000/svg" fill="none" viewBox="0 0 24 24">
  <path fill="currentColor" d="M8.44 7.755a7.003 7.003 0 0 0-.346-.005H3a.75.75 0 0 1 0-1.5h5.16c.262 0 .542-.001.805.083.23.073.442.193.624.353.208.183.352.424.487.65l5.101 8.501c.089.15.14.233.182.295l.042.056a.301.301 0 0 0 .088.05l.07.007c.075.005.174.005.347.005H21a.75.75 0 1 1 0 1.5h-5.159c-.262 0-.544.001-.807-.083a1.75 1.75 0 0 1-.624-.353c-.208-.183-.351-.424-.486-.65l-.034-.055-5.067-8.446a7.003 7.003 0 0 0-.182-.295l-.043-.056M14.25 7a.75.75 0 0 1 .75-.75h6a.75.75 0 1 1 0 1.5h-6a.75.75 0 0 1-.75-.75Z"/>
</svg>
