<svg xmlns="http://www.w3.org/2000/svg" fill="none" viewBox="0 0 24 24">
  <path fill="currentColor" d="M11.67 2.282a1.71 1.71 0 0 1 .661 0c.251.048.48.167.691.277l.053.028 8.27 4.28a.75.75 0 0 1 .405.666v7.898c0 .283.002.583-.093.862a1.8 1.8 0 0 1-.395.652c-.205.214-.473.351-.723.48l-.063.033-8.13 4.208a.75.75 0 0 1-.69 0l-8.132-4.208-.063-.033c-.25-.129-.518-.266-.723-.48a1.8 1.8 0 0 1-.395-.652c-.095-.28-.094-.58-.093-.863V7.533a.75.75 0 0 1 .405-.666l8.27-4.28.052-.027c.213-.111.44-.23.692-.278Zm.225 1.496a6.99 6.99 0 0 0-.282.141L4.668 7.514l2.827 1.384 7.356-3.703-2.465-1.276a6.925 6.925 0 0 0-.282-.141l-.058-.024m4.45 2.292-7.31 3.68L12 11.102l7.332-3.588-2.836-1.468Zm-5.246 13.72v-7.36l-3-1.469v1a.75.75 0 1 1-1.5 0v-1.734l-3-1.468v6.624c0 .187 0 .294.005.375l.01.078a.3.3 0 0 0 .056.095c.005.004.021.017.064.042.068.042.163.09.328.176l7.037 3.641Z"/>
</svg>
