<svg xmlns="http://www.w3.org/2000/svg" fill="none" viewBox="0 0 24 24">
  <path fill="currentColor" d="m20.25 8.735-7.5 3.67v7.362l7.035-3.641c.167-.087.262-.135.331-.177.06-.036.067-.046.06-.04l.003-.002a.253.253 0 0 0 .056-.094v-.001a.333.333 0 0 0 .01-.078c.005-.08.005-.186.005-.373V8.735Zm-13.5 3.202v-1.734l-3-1.468v6.624c0 .188 0 .295.005.375l.01.078v.002a.248.248 0 0 0 .023.05l.033.043.002.002c-.006-.006 0 .004.06.04.07.042.165.09.332.177l7.035 3.64v-7.362l-3-1.467v1a.75.75 0 0 1-1.5 0Zm2.437-2.212L12 11.102l7.332-3.588-2.837-1.469-7.308 3.68Zm2.766-5.97a.484.484 0 0 0-.056.023c-.063.029-.142.07-.285.143V3.92L4.667 7.514l2.826 1.384 7.356-3.705-2.464-1.273a6.767 6.767 0 0 0-.282-.142.49.49 0 0 0-.057-.022.25.25 0 0 0-.094 0Zm9.797 11.837a2.238 2.238 0 0 1-.094.7h.001a1.753 1.753 0 0 1-.395.653h-.001c-.223.232-.52.376-.784.513l-8.132 4.208a.75.75 0 0 1-.69 0l-8.13-4.208c-.265-.137-.563-.28-.786-.514a1.752 1.752 0 0 1-.396-.652 2.244 2.244 0 0 1-.093-.701V7.533a.75.75 0 0 1 .405-.666l8.269-4.28h.002c.222-.115.47-.251.743-.304.218-.042.444-.043.662 0 .272.052.52.19.743.305l8.27 4.28a.75.75 0 0 1 .406.665v8.059Z"/>
</svg>
