<svg xmlns="http://www.w3.org/2000/svg" fill="none" viewBox="0 0 24 24">
  <path fill="currentColor" d="M15.75 4a.25.25 0 0 0-.201-.245L15.5 3.75h-10a.25.25 0 0 0-.25.25v3a.25.25 0 0 0 .25.25h10a.25.25 0 0 0 .25-.25V4Zm1.5.75h.25c.621 0 1.29.107 1.825.458.585.383.925 1 .925 1.792v2a2.75 2.75 0 0 1-2.75 2.75h-7a.25.25 0 0 0-.25.25v8a.25.25 0 0 0 .25.25h1a.75.75 0 0 1 0 1.5h-1A1.75 1.75 0 0 1 8.75 20v-8a1.75 1.75 0 0 1 1.75-1.75h7A1.25 1.25 0 0 0 18.75 9V7c0-.313-.107-.446-.246-.537-.188-.123-.52-.213-1.004-.213h-.25V7a1.75 1.75 0 0 1-1.75 1.75h-10A1.75 1.75 0 0 1 3.75 7V4A1.75 1.75 0 0 1 5.5 2.25h10A1.75 1.75 0 0 1 17.25 4v.75Z"/>
</svg>
