<svg xmlns="http://www.w3.org/2000/svg" fill="none" viewBox="0 0 24 24">
  <path fill="currentColor" d="M9.355 3.887c3.034-2.645 6.882-1.775 9.195.4 1.2 1.127 2.047 2.65 2.182 4.308.136 1.683-.469 3.426-2.031 4.933l-7.112 6.861c-2.203 2.126-5.082 1.5-6.77-.087-.85-.798-1.459-1.884-1.556-3.08-.099-1.218.343-2.47 1.451-3.54l7.01-6.762c1.33-1.284 3.066-.887 4.054.043.499.47.87 1.119.928 1.85.062.755-.216 1.516-.87 2.148l-.002.002-5.823 5.579L9.493 16l-.52-.541 5.823-5.58c.353-.34.438-.67.415-.945-.024-.298-.184-.617-.462-.879-.566-.532-1.375-.643-1.983-.056l-7.01 6.763c-.808.78-1.058 1.6-.998 2.34.062.761.46 1.518 1.088 2.108 1.266 1.19 3.22 1.529 4.701.1l7.113-6.862c1.262-1.218 1.674-2.53 1.577-3.731-.1-1.226-.737-2.418-1.714-3.337-1.966-1.849-5.065-2.416-7.418-.146l-5.74 5.53a.75.75 0 0 1-1.04-1.08l5.739-5.53.29-.267Zm.656 12.655a.75.75 0 0 1-1.038-1.083l1.038 1.083Z"/>
</svg>
