<svg xmlns="http://www.w3.org/2000/svg" fill="none" viewBox="0 0 24 24">
  <path fill="currentColor" d="M17.523 5.38c-1.966-1.85-5.065-2.416-7.418-.146l-5.74 5.53a.749.749 0 1 1-1.04-1.08l5.738-5.53c3.076-2.966 7.1-2.112 9.487.133 1.2 1.127 2.047 2.65 2.181 4.309.137 1.682-.468 3.425-2.03 4.932L11.59 20.39c-2.203 2.125-5.083 1.5-6.77-.088-.85-.798-1.459-1.884-1.556-3.08-.098-1.218.343-2.47 1.451-3.54l7.01-6.763c1.33-1.283 3.065-.886 4.053.043.5.47.87 1.12.93 1.85.06.756-.217 1.518-.872 2.149v.002l-5.824 5.579a.75.75 0 1 1-1.038-1.084l5.821-5.577c.355-.342.44-.671.417-.946-.024-.3-.184-.62-.46-.88-.568-.533-1.377-.643-1.986-.056l-7.01 6.763c-.808.78-1.056 1.6-.997 2.34.062.76.46 1.517 1.088 2.108 1.266 1.19 3.22 1.529 4.701.1l7.112-6.862c1.263-1.218 1.675-2.53 1.577-3.731-.1-1.226-.736-2.418-1.713-3.337Z"/>
</svg>
