<svg xmlns="http://www.w3.org/2000/svg" fill="none" viewBox="0 0 24 24">
  <path fill="currentColor" d="M12.776 11.85H11.25v-2.1h1.526c.36 0 .58.132.722.299.155.182.252.452.252.751s-.097.569-.252.751c-.142.167-.363.299-.722.299Z"/>
  <path fill="currentColor" d="M2.25 12A9.75 9.75 0 0 1 12 2.25 9.75 9.75 0 0 1 21.75 12 9.75 9.75 0 0 1 12 21.75 9.75 9.75 0 0 1 2.25 12Zm8.25-3.75a.75.75 0 0 0-.75.75v6a.75.75 0 1 0 1.5 0v-1.65h1.526c.79 0 1.431-.318 1.864-.826.42-.493.61-1.123.61-1.724s-.19-1.231-.61-1.724c-.433-.508-1.075-.826-1.864-.826H10.5Z"/>
</svg>
