<svg xmlns="http://www.w3.org/2000/svg" fill="none" viewBox="0 0 24 24">
  <path fill="currentColor" d="M20.25 12a8.25 8.25 0 1 0-16.5-.001 8.25 8.25 0 0 0 16.5.001Zm-10.5 3V9a.75.75 0 0 1 .75-.75h2.276c.79 0 1.432.318 1.865.826.419.492.609 1.123.609 1.724s-.19 1.231-.61 1.723c-.432.509-1.074.827-1.864.827H11.25V15a.75.75 0 0 1-1.5 0Zm1.5-3.15h1.526c.36 0 .58-.132.722-.298.156-.183.252-.454.252-.752 0-.299-.096-.569-.252-.751-.142-.167-.362-.299-.722-.299H11.25v2.1Zm10.5.15a9.75 9.75 0 1 1-19.502 0 9.75 9.75 0 0 1 19.502 0Z"/>
</svg>
