<svg xmlns="http://www.w3.org/2000/svg" fill="none" viewBox="0 0 24 24">
  <path fill="currentColor" d="M6.08 8.665a.75.75 0 0 1 1.34.67l-.956 1.915H7.5a.75.75 0 1 1 0 1.5H6.464l.957 1.915.03.07a.75.75 0 0 1-1.372.6l-.829-1.658-.83 1.658a.75.75 0 0 1-1.34-.67l.956-1.915H3a.75.75 0 0 1 0-1.5h1.036L3.08 9.335a.75.75 0 0 1 1.304-.737l.038.067.829 1.658.83-1.658Zm6.75 0a.75.75 0 0 1 1.34.67l-.956 1.915h1.036a.75.75 0 1 1 0 1.5h-1.036l.957 1.915.03.07a.75.75 0 0 1-1.372.6L12 13.677l-.83 1.658a.75.75 0 0 1-1.34-.67l.956-1.915H9.75a.75.75 0 0 1 0-1.5h1.036L9.83 9.335a.75.75 0 0 1 1.304-.737l.038.067.829 1.658.83-1.658Zm6.75 0a.75.75 0 0 1 1.34.67l-.956 1.915H21a.75.75 0 1 1 0 1.5h-1.036l.957 1.915.03.07a.75.75 0 0 1-1.372.6l-.829-1.658-.83 1.658a.75.75 0 0 1-1.34-.67l.956-1.915H16.5a.75.75 0 0 1 0-1.5h1.036l-.957-1.915a.75.75 0 0 1 1.304-.737l.038.067.829 1.658.83-1.658Z"/>
</svg>
