<svg xmlns="http://www.w3.org/2000/svg" fill="none" viewBox="0 0 24 24">
  <path fill="currentColor" d="M10.165 8.33a.75.75 0 0 1 1.006.334L12 10.323l.83-1.659a.75.75 0 1 1 1.34.671l-.957 1.915h1.037a.75.75 0 1 1 0 1.5h-1.037l.958 1.915a.75.75 0 1 1-1.342.67L12 13.677l-.83 1.658a.75.75 0 1 1-1.34-.67l.957-1.915H9.75a.75.75 0 1 1 0-1.5h1.037l-.958-1.915a.75.75 0 0 1 .336-1.005Zm-6.75-.001a.75.75 0 0 1 1.006.335l.829 1.658.83-1.658a.75.75 0 0 1 1.34.67l-.956 1.915H7.5a.75.75 0 1 1 0 1.5H6.464l.957 1.915a.75.75 0 0 1-1.342.67l-.829-1.658-.83 1.658a.75.75 0 0 1-1.34-.67l.956-1.915H3a.75.75 0 1 1 0-1.5h1.036L3.08 9.335a.75.75 0 0 1 .335-1.006Zm13.501 0a.75.75 0 0 1 1.006.335l.829 1.658.83-1.658a.75.75 0 1 1 1.34.67l-.957 1.915H21a.75.75 0 1 1 0 1.5h-1.037l.958 1.915a.75.75 0 0 1-1.342.67l-.829-1.658-.83 1.658a.75.75 0 0 1-1.34-.67l.957-1.915H16.5a.75.75 0 1 1 0-1.5h1.037l-.958-1.915a.75.75 0 0 1 .336-1.006"/>
</svg>
