<svg xmlns="http://www.w3.org/2000/svg" fill="none" viewBox="0 0 24 24">
  <path fill="currentColor" d="M8.25 18a2.25 2.25 0 1 0-4.502.002A2.25 2.25 0 0 0 8.25 18ZM20.252 5.998a2.255 2.255 0 0 0-.66-1.59 2.252 2.252 0 0 0-3.841 1.59c0 .577.223 1.13.62 1.548a.768.768 0 0 1 .082.082 2.25 2.25 0 0 0 1.548.621A2.252 2.252 0 0 0 20.252 6Zm1.5 0a3.752 3.752 0 0 1-5.818 3.128l-6.807 6.807A3.75 3.75 0 1 1 2.249 18a3.75 3.75 0 0 1 5.818-3.129l6.805-6.804a3.752 3.752 0 0 1 5.781-4.72 3.75 3.75 0 0 1 1.099 2.651Z"/>
</svg>
