<svg xmlns="http://www.w3.org/2000/svg" fill="none" viewBox="0 0 24 24">
  <path fill="currentColor" d="M9.25 7.5A.25.25 0 0 0 9 7.25H8a.25.25 0 0 0-.25.25v10a.25.25 0 0 0 .25.25h1a.25.25 0 0 0 .25-.25v-10Zm6.5 0a.25.25 0 0 0-.25-.25h-1a.25.25 0 0 0-.25.25v10a.25.25 0 0 0 .25.25h1a.25.25 0 0 0 .25-.25v-10Zm-5 10A1.75 1.75 0 0 1 9 19.25H8a1.75 1.75 0 0 1-1.75-1.75v-10A1.75 1.75 0 0 1 8 5.75h1a1.75 1.75 0 0 1 1.75 1.75v10Zm6.5 0a1.75 1.75 0 0 1-1.75 1.75h-1a1.75 1.75 0 0 1-1.75-1.75v-10a1.75 1.75 0 0 1 1.75-1.75h1a1.75 1.75 0 0 1 1.75 1.75v10Z"/>
</svg>
