<svg xmlns="http://www.w3.org/2000/svg" fill="none" viewBox="0 0 24 24">
  <path fill="currentColor" d="M9.111 3c.609 0 1.168.225 1.574.64.407.416.648 1.01.648 1.725a3.45 3.45 0 0 1-.626 1.97c-.387.538-.947.933-1.596.933-.649 0-1.209-.395-1.595-.934a3.45 3.45 0 0 1-.627-1.968c0-.717.241-1.31.648-1.726.407-.415.965-.64 1.574-.64ZM4.222 6.951c.61 0 1.168.225 1.574.64.407.416.648 1.01.648 1.726a3.45 3.45 0 0 1-.626 1.969c-.387.538-.947.934-1.596.934-.649 0-1.209-.396-1.595-.934A3.45 3.45 0 0 1 2 9.317c0-.716.241-1.31.648-1.726.407-.415.965-.64 1.574-.64ZM12 10.024c-3.166 0-5.79 2.663-6.615 6.002-.366 1.481.192 3.07 1.57 3.823C8.05 20.448 9.688 21 12 21s3.95-.552 5.045-1.151c1.377-.753 1.936-2.342 1.57-3.823-.826-3.339-3.45-6.002-6.615-6.002Zm7.778-3.073c-.61 0-1.168.225-1.574.64-.407.416-.648 1.01-.648 1.726 0 .712.238 1.427.626 1.969.387.538.947.934 1.596.934.649 0 1.209-.396 1.595-.934A3.45 3.45 0 0 0 22 9.317c0-.716-.241-1.31-.648-1.726a2.175 2.175 0 0 0-1.574-.64ZM14.888 3c-.608 0-1.167.225-1.573.64-.407.416-.648 1.01-.648 1.725 0 .713.238 1.428.626 1.97.387.538.947.933 1.596.933.649 0 1.209-.395 1.595-.934a3.45 3.45 0 0 0 .627-1.968c0-.717-.241-1.31-.648-1.726A2.175 2.175 0 0 0 14.89 3Z"/>
</svg>
