<svg xmlns="http://www.w3.org/2000/svg" fill="none" viewBox="0 0 24 24">
  <path fill="currentColor" d="M12 9.496c3.255 0 5.83 2.766 6.643 6.058.404 1.638-.195 3.459-1.785 4.327C15.764 20.478 14.18 21 12 21c-1.907 0-3.359-.4-4.424-.9l-.434-.219c-1.59-.868-2.19-2.688-1.785-4.327C6.17 12.262 8.745 9.496 12 9.496Zm0 1.543c-2.313 0-4.443 2.025-5.15 4.886-.263 1.067.145 2.12 1.027 2.601.867.473 2.2.931 4.123.931 1.924 0 3.256-.458 4.123-.931.882-.481 1.29-1.533 1.026-2.6-.706-2.863-2.836-4.887-5.149-4.887ZM5.517 9.593c0-.424-.137-.705-.3-.876a.932.932 0 0 0-.69-.277.93.93 0 0 0-.688.277c-.164.171-.3.453-.3.876 0 .44.147.886.373 1.208.232.33.466.427.615.428.15 0 .383-.098.615-.428.226-.322.375-.768.375-1.208Zm14.945 0c0-.423-.137-.705-.3-.876a.93.93 0 0 0-.689-.277.931.931 0 0 0-.69.277c-.163.17-.3.452-.3.876 0 .44.149.886.375 1.208.232.33.466.428.615.428.15 0 .383-.098.615-.428a2.17 2.17 0 0 0 .373-1.208Zm-10.33-3.897c0-.424-.137-.705-.3-.876a.931.931 0 0 0-.69-.277.93.93 0 0 0-.688.277c-.163.17-.3.452-.3.876 0 .44.147.886.373 1.207.233.33.466.428.615.428.15 0 .383-.098.615-.428a2.16 2.16 0 0 0 .375-1.207Zm5.714 0c0-.424-.137-.705-.3-.876a.93.93 0 0 0-.688-.277.93.93 0 0 0-.69.277c-.163.17-.3.452-.3.876 0 .44.148.886.375 1.207.232.33.466.428.615.428.149 0 .382-.098.615-.428.226-.321.373-.768.373-1.207Zm-8.79 3.897c0 .757-.247 1.515-.657 2.098-.404.573-1.05 1.08-1.872 1.08-.822 0-1.467-.507-1.871-1.08A3.713 3.713 0 0 1 2 9.593c0-.771.258-1.452.73-1.944a2.465 2.465 0 0 1 1.797-.752c.682 0 1.326.26 1.798.75.472.493.73 1.174.73 1.946Zm14.944 0c0 .757-.246 1.515-.656 2.098-.404.573-1.05 1.08-1.871 1.08-.822 0-1.468-.507-1.872-1.08a3.713 3.713 0 0 1-.656-2.098c0-.772.258-1.453.73-1.945a2.467 2.467 0 0 1 1.798-.75c.682 0 1.325.259 1.797.75.472.493.73 1.174.73 1.945ZM11.67 5.696a3.71 3.71 0 0 1-.656 2.096c-.403.574-1.05 1.082-1.872 1.082-.822 0-1.467-.508-1.87-1.082a3.71 3.71 0 0 1-.657-2.096c0-.772.258-1.453.73-1.946A2.465 2.465 0 0 1 9.143 3c.682 0 1.327.259 1.798.75.473.493.73 1.174.73 1.946Zm5.715 0a3.71 3.71 0 0 1-.656 2.096c-.404.574-1.05 1.082-1.871 1.082-.823 0-1.469-.508-1.872-1.082a3.71 3.71 0 0 1-.657-2.096c0-.772.258-1.453.73-1.946a2.466 2.466 0 0 1 1.8-.75c.681 0 1.325.259 1.796.75.473.493.73 1.174.73 1.946Z"/>
</svg>
