<svg xmlns="http://www.w3.org/2000/svg" fill="none" viewBox="0 0 24 24">
  <path fill="currentColor" d="M20.25 16.984a.303.303 0 0 0-.088-.213l-2.456-2.455c-.496-.496-.62-1.193-.484-1.79.082-.361.124-.73.126-1.104 0-2.45-1.606-4.344-4.056-5.044L4.135 3.764l-.002-.001a.3.3 0 0 0-.372.365l.002.006 2.616 9.157c.7 2.449 2.594 4.054 5.041 4.055a4.849 4.849 0 0 0 1.095-.127l.003-.001c.561-.13 1.21-.028 1.699.394l.096.09 2.46 2.46a.3.3 0 0 0 .424 0l2.965-2.966a.304.304 0 0 0 .088-.212ZM7.1 7.1a.75.75 0 0 1 1.06 0l3.006 3.005a.75.75 0 0 1-1.06 1.061L7.1 8.16l-.052-.057A.75.75 0 0 1 7.1 7.1Zm14.65 9.884a1.801 1.801 0 0 1-.527 1.273l-2.965 2.966a1.8 1.8 0 0 1-2.545 0l-2.459-2.46-.067-.05a.47.47 0 0 0-.33-.034 6.4 6.4 0 0 1-1.433.168h-.002c-3.214 0-5.63-2.148-6.485-5.144L2.324 4.56c0-.004-.003-.008-.004-.011A1.8 1.8 0 0 1 4.55 2.32l-.001.001 9.156 2.614c2.997.856 5.144 3.271 5.144 6.486v.003a6.49 6.49 0 0 1-.164 1.432v.001c-.041.185.012.327.084.398l2.454 2.454a1.802 1.802 0 0 1 .528 1.274Z"/>
</svg>
