<svg xmlns="http://www.w3.org/2000/svg" fill="none" viewBox="0 0 24 24">
  <path fill="currentColor" d="M20.254 6.86c0-.526-.21-1.03-.581-1.402l-1.126-1.127a1.985 1.985 0 0 0-2.806.001l-.897.897 3.93 3.931.899-.897.132-.146c.289-.353.449-.797.449-1.257ZM4.86 15.223l3.937 3.916 8.915-8.92-3.93-3.928-8.922 8.932ZM3.75 20.25h3.12c.26 0 .517-.052.757-.151l.006-.004-3.728-3.707a1.981 1.981 0 0 0-.155.768v3.094ZM21.754 6.86c0 .924-.367 1.81-1.02 2.463L9.33 20.728a3.484 3.484 0 0 1-2.291 1.018l-.17.004H3a.75.75 0 0 1-.75-.75v-3.844c0-.923.367-1.81 1.02-2.462L14.68 3.271a3.484 3.484 0 0 1 4.927 0l1.126 1.126.12.125c.578.64.9 1.472.9 2.338Z"/>
</svg>
