<svg xmlns="http://www.w3.org/2000/svg" fill="none" viewBox="0 0 24 24">
  <path fill="currentColor" d="M20.25 12a8.25 8.25 0 1 0-16.5-.001 8.25 8.25 0 0 0 16.5.001Zm-6.63 1.62a.75.75 0 0 1 1.003-.052l.058.052.353.354a.75.75 0 1 1-1.06 1.06l-.354-.353-.052-.058a.75.75 0 0 1 .052-1.003Zm.35-4.65a.75.75 0 1 1 1.06 1.06l-5 5a.75.75 0 1 1-1.06-1.06l5-5Zm-3.585.353a.751.751 0 0 1-1.062 1.062l1.062-1.062ZM8.97 8.97a.75.75 0 0 1 1.004-.052l.056.052.355.353-.531.53-.53.532-.354-.355-.052-.056A.75.75 0 0 1 8.97 8.97ZM21.75 12a9.75 9.75 0 1 1-19.502 0 9.75 9.75 0 0 1 19.502 0Z"/>
</svg>
