<svg xmlns="http://www.w3.org/2000/svg" fill="none" viewBox="0 0 24 24">
  <path fill="currentColor" d="M19.25 17c0-.999-.199-1.531-.442-1.813-.222-.257-.597-.437-1.308-.437-.71 0-1.086.18-1.308.437-.243.282-.442.814-.442 1.813s.199 1.531.442 1.814c.222.256.597.436 1.308.436.71 0 1.086-.18 1.308-.436.243-.283.442-.815.442-1.814Zm-.78-12.53a.75.75 0 1 1 1.06 1.06l-14 14a.75.75 0 1 1-1.06-1.06l14-14ZM8.25 7c0-.999-.199-1.531-.442-1.813C7.586 4.93 7.21 4.75 6.5 4.75c-.71 0-1.086.18-1.308.437C4.95 5.469 4.75 6 4.75 7s.199 1.531.442 1.813c.222.257.597.437 1.308.437.71 0 1.086-.18 1.308-.437C8.05 8.531 8.25 8 8.25 7Zm12.5 10c0 1.144-.218 2.112-.808 2.794-.611.707-1.486.956-2.442.956-.956 0-1.831-.249-2.442-.956-.59-.682-.808-1.65-.808-2.794 0-1.144.218-2.112.808-2.794.611-.707 1.486-.956 2.442-.956.956 0 1.831.249 2.442.956.59.682.808 1.65.808 2.794Zm-11-10c0 1.144-.218 2.112-.808 2.794-.611.707-1.486.956-2.442.956-.956 0-1.831-.249-2.442-.956-.59-.682-.808-1.65-.808-2.794 0-1.144.218-2.112.808-2.794C4.669 3.5 5.544 3.25 6.5 3.25c.956 0 1.831.249 2.442.956.59.682.808 1.65.808 2.794Z"/>
</svg>
