<svg xmlns="http://www.w3.org/2000/svg" fill="none" viewBox="0 0 24 24">
  <path fill="currentColor" fill-rule="evenodd" d="M8.922 7.48a.313.313 0 0 0-.313-.44l-.014.002-.017.001a9.546 9.546 0 0 0-1.137.185c-.723.152-1.059.27-1.34.367-.1.035-.196.069-.297.1a3.93 3.93 0 0 1-.3.078l-.049.01a.51.51 0 0 1-.102.01c-.265 0-.714-.147-1.206-.308l-.011-.004c-.693-.226-1.465-.478-1.908-.385-.805.17-1.644.84-1.357 2.2l.321 1.526.01.038.009.03.006.023c.115.44.445 1.33.851 1.224a.379.379 0 0 0 .155-.089c-.523.966-.392 1.936-.187 2.859-.178.095-.354.194-.528.297-.532.317-1.09.695-1.328.93a.642.642 0 0 0 .906.912c.114-.112.546-.421 1.082-.74l.178-.103c.115.355.282.667.49.938l-.018.015c-.264.223-.517.459-.758.705l-.083.082a.642.642 0 1 0 .908.911l.094-.095c.178-.177.406-.404.662-.616.06-.05.118-.096.173-.138.082.05.166.096.251.14 1.427.74 4.645.524 5.758.422a.3.3 0 0 0 .252-.406l-.323-.868a.308.308 0 0 0-.31-.2l-2.122.146a9.324 9.324 0 0 1-.341-.012l-.055-.003-.119-.007a30.34 30.34 0 0 1-.31-.018c-.696-.044-1.218-.124-1.85-.567a1.27 1.27 0 0 1-.091-.072l-.016-.014a2.977 2.977 0 0 1-.71-.976c-.16-.372-.272-.983-.272-.983l-.011-.05a10.464 10.464 0 0 1-.023-.108c-.158-.762-.148-1.165.022-1.676.222-.778.403-1.188.83-1.874.428-.69 1.04-1.348 1.412-1.525.136-.065.299-.125.45-.175.264-.086.495-.143.495-.143s.487-.121 1.042-.238c.168-.035.332-.068.477-.096a.32.32 0 0 0 .237-.201c.118-.309.294-.71.435-1.02Z" clip-rule="evenodd"/>
  <path fill="currentColor" fill-rule="evenodd" d="M9.286 14.23a.29.29 0 0 1 .282.318c-.025.368-.06.995-.045 1.424.003.106-.04.214-.14.25a.573.573 0 0 1-.433-.02 2.156 2.156 0 0 1-.85-.71.766.766 0 0 1-.1-.62.63.63 0 0 1 .262-.363 1.98 1.98 0 0 1 .604-.246 1.95 1.95 0 0 1 .42-.033Z" clip-rule="evenodd"/>
  <path fill="currentColor" d="M5.512 13.088c-.095-.4.109-.79.455-.872.346-.083.704.174.8.573l.134.567a.804.804 0 0 1-.062.555.605.605 0 0 1-.394.317.605.605 0 0 1-.494-.106.804.804 0 0 1-.305-.468l-.134-.566Z"/>
  <path fill="currentColor" fill-rule="evenodd" d="M18.669 10.52c.353.044.598.41.546.818l-.073.578a.804.804 0 0 1-.253.497.605.605 0 0 1-.48.159.605.605 0 0 1-.425-.273.804.804 0 0 1-.122-.545l.005-.037.064-.506.005-.035c.051-.407.38-.701.733-.656Zm-2.222 3.392a2.374 2.374 0 0 0-.77.027.744.744 0 0 0-.44.297.904.904 0 0 0-.14.728c.07.287.204.545.343.751.11.165.225.297.312.382.223.22.553.262.823.104.238-.137.669-.466.917-.935a.906.906 0 0 0 .045-.74.745.745 0 0 0-.351-.396 2.338 2.338 0 0 0-.74-.218Zm-1.307-3.838a.584.584 0 0 0-.377.082.779.779 0 0 0-.356.574l-.073.578a.804.804 0 0 0 .122.545.604.604 0 0 0 .425.273.605.605 0 0 0 .48-.159.823.823 0 0 0 .253-.498l.004-.036.066-.503.003-.038c.051-.407-.194-.774-.547-.818Z" clip-rule="evenodd"/>
  <path fill="currentColor" fill-rule="evenodd" d="M10.751 13.16c.162.101.34.187.534.258l-.01.054c-.066.332-.12.662-.16.986-.1.789-.092 1.484.018 2.09.105.574.3 1.068.58 1.488.15.226.326.43.525.614.22.203.464.374.725.52.8.446 1.763.648 2.722.77 1.271.16 2.586.185 3.658-.392 1.152-.619 1.888-1.844 2.133-3.78.04-.325.07-.655.09-.992l.003-.059.095-.01c.747-.095 1.331-.456 1.73-1.03.123-.178.227-.371.309-.577.277-.684.332-1.475.28-2.215a9.735 9.735 0 0 0-.546-2.521c-.272-.767-.628-1.476-1.01-1.952-.583-.727-1.416-1.275-2.249-1.663a8.872 8.872 0 0 0-2.48-.733 8.872 8.872 0 0 0-2.585.094c-.795.147-1.622.416-2.317.86a4.42 4.42 0 0 0-.274.19c-.49.366-1.01.963-1.465 1.639a9.644 9.644 0 0 0-1.155 2.306 6.312 6.312 0 0 0-.276 1.171 3.775 3.775 0 0 0 .078 1.452c.168.61.52 1.1 1.047 1.432Zm4.575-7.595L14.08 8.693s-.348.894-.746 2.129a34.407 34.407 0 0 0-.728 2.581c-.087.402-.158.808-.212 1.216a5.666 5.666 0 0 0-.03 1.334c.077.69.319 1.143.64 1.465l.066.062c.596.55 1.55.826 2.801.985 1.251.158 2.245.128 2.958-.257.637-.342 1.169-1.034 1.367-2.602.05-.39.081-.805.096-1.232.05-2.415-.254-4.928-.254-4.928l-.429-3.34a7.602 7.602 0 0 0-2.098-.616 7.552 7.552 0 0 0-2.185.075Z" clip-rule="evenodd"/>
</svg>
