<svg xmlns="http://www.w3.org/2000/svg" fill="none" viewBox="0 0 24 24">
  <path fill="currentColor" d="M14.102 2.664c.589-.39 1.56-.675 2.341-.048l.155.14 4.646 4.647.138.153c.63.782.343 1.753-.047 2.342a2.952 2.952 0 0 1-.863.85c-.335.211-.757.373-1.211.349-.228-.012-.494-.05-.725-.08a8.813 8.813 0 0 0-.708-.073c-.378-.02-.582.023-.686.072l-.074.048-2.489 2.489c-.08.08-.181.258-.257.6a6.22 6.22 0 0 0-.113 1.187c-.008.448.01.907.025 1.347.015.423.03.855.008 1.194-.065 1.031-.867 1.792-1.657 2.142-.79.35-1.917.435-2.701-.349l-2.25-2.249L3.53 21.53a.75.75 0 0 1-1.06-1.06l4.104-4.105-2.25-2.25c-.783-.784-.697-1.911-.347-2.7.35-.79 1.11-1.593 2.14-1.658.34-.022.772-.006 1.195.009.44.015.9.032 1.348.024.45-.007.856-.039 1.187-.112.341-.075.519-.177.6-.257l2.49-2.49.047-.073c.049-.104.091-.309.073-.687a8.791 8.791 0 0 0-.074-.707c-.03-.23-.068-.495-.08-.723v-.168c.016-.392.162-.752.348-1.045.216-.34.515-.641.851-.864Zm1.434 1.152c-.054-.054-.226-.152-.605.1-.168.11-.316.26-.413.414a.728.728 0 0 0-.115.276l-.003.05.001.003c.008.153.034.346.069.608.032.245.07.537.085.83.026.532-.001 1.337-.557 1.893l-2.49 2.492c-.374.373-.877.558-1.338.66a7.64 7.64 0 0 1-1.485.148c-.494.009-.995-.01-1.425-.025a12.11 12.11 0 0 0-1.047-.01c-.274.016-.647.277-.864.768-.217.49-.134.86.036 1.03l5.56 5.56.072.06c.193.128.532.168.96-.022.49-.218.75-.59.768-.864.016-.25.005-.6-.01-1.047a26.942 26.942 0 0 1-.026-1.426 7.629 7.629 0 0 1 .148-1.484c.102-.46.288-.963.66-1.337l2.49-2.49c.558-.556 1.364-.584 1.896-.557.294.014.585.05.83.084.262.034.454.06.607.069.052.003.168-.017.328-.118.155-.099.306-.246.417-.413.251-.379.154-.55.1-.604l-4.649-4.648Z"/>
</svg>
