<svg xmlns="http://www.w3.org/2000/svg" fill="none" viewBox="0 0 24 24">
  <path fill="currentColor" d="m16.895 3.514 4.778 15.928c.41 1.367-.864 2.641-2.23 2.231l-15.93-4.778c-.92-.277-1.496-1.258-1.175-2.222A19.5 19.5 0 0 1 14.673 2.34c.964-.322 1.945.254 2.222 1.175m-1.747.248A18 18 0 0 0 3.762 15.148c-.037.11.02.261.183.31l1.802.54A16.73 16.73 0 0 1 16 5.75l-.54-1.803c-.05-.163-.2-.22-.31-.183m.381 6.708a.75.75 0 1 0-1.06 1.06l.353.354a.75.75 0 0 0 1.06-1.06l-.353-.354Zm-4 4a.75.75 0 1 0-1.06 1.06l.353.354a.75.75 0 0 0 1.06-1.06l-.353-.354Zm5 1a.75.75 0 1 0-1.06 1.06l.353.354a.75.75 0 0 0 1.06-1.06l-.353-.354Z"/>
</svg>
