<svg xmlns="http://www.w3.org/2000/svg" fill="none" viewBox="0 0 24 24">
  <path fill="currentColor" d="M14.675 2.339c.963-.323 1.945.252 2.22 1.174l4.78 15.927.03.117a1.792 1.792 0 0 1-2.146 2.146l-.117-.031-15.927-4.777c-.923-.276-1.496-1.26-1.175-2.222l.187-.536A19.513 19.513 0 0 1 14.675 2.339Zm1.756 4.847a15.228 15.228 0 0 0-9.244 9.244l12.687 3.805.078.013a.288.288 0 0 0 .213-.086.292.292 0 0 0 .073-.29L16.432 7.186Zm-.961 8.284a.75.75 0 0 1 1.004-.052l.056.052.355.353.051.058a.75.75 0 0 1-1.055 1.055l-.057-.052-.354-.354-.052-.057a.75.75 0 0 1 .052-1.003Zm-5-1a.75.75 0 0 1 1.003-.052l.057.052.355.353.051.058a.75.75 0 0 1-1.055 1.055l-.057-.052-.354-.354-.052-.057a.75.75 0 0 1 .052-1.003Zm4.989-10.527c-.048-.162-.2-.218-.308-.182h-.002A18.011 18.011 0 0 0 3.763 15.149a.244.244 0 0 0 .127.287l.055.022 1.804.541a16.728 16.728 0 0 1 3.955-6.293A16.73 16.73 0 0 1 16 5.748l-.541-1.805Zm-.99 6.527a.75.75 0 0 1 1.005-.052l.056.052.355.353.051.058a.75.75 0 0 1-1.055 1.055l-.057-.052-.354-.354-.052-.057a.75.75 0 0 1 .052-1.003Z"/>
</svg>
