<svg xmlns="http://www.w3.org/2000/svg" fill="none" viewBox="0 0 24 24">
  <path fill="currentColor" d="M12.437 3.75c1.736 0 3.343.55 4.663 1.484.918-.14 1.772-.157 2.494-.008.764.157 1.47.522 1.864 1.213.387.68.35 1.463.113 2.197-.209.648-.594 1.324-1.1 2 .073.446.113.9.113 1.363 0 4.546-3.637 8.25-8.146 8.25a8.05 8.05 0 0 1-4.909-1.664c-1.033.211-1.991.284-2.8.176-.893-.12-1.739-.48-2.186-1.268-.46-.806-.326-1.752.042-2.614.345-.809.944-1.665 1.716-2.516a8.277 8.277 0 0 1-.009-.365C4.293 7.453 7.93 3.75 12.437 3.75Zm6.641 8.466c-1.272 1.257-2.938 2.525-4.85 3.645-1.622.95-3.245 1.688-4.74 2.189a6.55 6.55 0 0 0 2.95.7c3.59 0 6.528-2.897 6.64-6.534Zm-14.453 2.12a6.066 6.066 0 0 0-.66 1.133c-.25.585-.249.962-.161 1.193l.042.09c.117.207.412.433 1.08.522.354.047.774.047 1.254.001a8.28 8.28 0 0 1-1.12-1.774 8.275 8.275 0 0 1-.435-1.165Zm7.812-9.086c-3.66 0-6.645 3.012-6.645 6.75v.002a6.78 6.78 0 0 0 2.133 4.952c1.644-.43 3.579-1.236 5.545-2.388 2.313-1.354 4.193-2.905 5.388-4.311-.759-2.888-3.352-5.005-6.421-5.005Zm6.177 1.373c.532.626.97 1.333 1.3 2.1.098-.195.176-.378.23-.548.163-.504.115-.811.01-.994-.104-.184-.343-.379-.862-.486a3.89 3.89 0 0 0-.678-.072Z"/>
</svg>
