<svg xmlns="http://www.w3.org/2000/svg" fill="none" viewBox="0 0 24 24">
  <path fill="currentColor" d="M19.08 12.215c-.112 3.638-3.052 6.535-6.642 6.535a6.499 6.499 0 0 1-2.948-.699c1.495-.501 3.116-1.24 4.738-2.19 1.913-1.12 3.58-2.389 4.852-3.646Zm-11.548 6.37a8.05 8.05 0 0 0 4.906 1.665c4.51 0 8.146-3.704 8.146-8.25 0-.465-.037-.919-.11-1.363.505-.676.89-1.353 1.1-2.001.235-.734.271-1.518-.116-2.197-.394-.692-1.1-1.056-1.864-1.213-.722-.149-1.576-.132-2.494.008a8.03 8.03 0 0 0-4.662-1.484C7.93 3.75 4.293 7.454 4.293 12c0 .12.003.242.008.363-.773.851-1.37 1.707-1.716 2.516-.368.862-.502 1.808-.043 2.615.448.786 1.293 1.148 2.186 1.267.81.108 1.77.037 2.804-.175m-1.354-1.307a8.3 8.3 0 0 1-1.554-2.942 6 6 0 0 0-.66 1.132c-.285.67-.242 1.067-.118 1.284.118.207.413.433 1.081.522.352.047.773.05 1.251.004ZM18.616 6.623c.252.007.477.03.676.072.52.107.758.303.862.486.105.183.153.49-.01.994-.053.17-.13.353-.229.548a8.298 8.298 0 0 0-1.299-2.1Z"/>
</svg>
