<svg xmlns="http://www.w3.org/2000/svg" fill="none" viewBox="0 0 24 24">
  <path fill="currentColor" d="M20.25 8.937a.85.85 0 0 0-.046-.33.846.846 0 0 0-.203-.272l-4.336-4.336a.846.846 0 0 0-.271-.203.851.851 0 0 0-.33-.046H8.936a.85.85 0 0 0-.33.046.859.859 0 0 0-.272.204l-.001-.001-4.335 4.336a.852.852 0 0 0-.201.267.849.849 0 0 0-.048.335v6.127c0 .183.022.271.046.329.023.057.07.138.204.272l4.335 4.336a.85.85 0 0 0 .267.201.846.846 0 0 0 .335.048h6.127a.85.85 0 0 0 .33-.046.846.846 0 0 0 .271-.203L20 15.665a.85.85 0 0 0 .201-.267.845.845 0 0 0 .048-.335V8.938ZM13.5 12c0-.013.01-.032-.071-.127a2.358 2.358 0 0 0-.24-.231l-.42-.35-.011-.01a8.42 8.42 0 0 0-.484-.37 8.749 8.749 0 0 0-.45-.293c-.17-.104-.305-.184-.42-.249l-.052-.027c-.033.2-.052.485-.079.936-.014.26-.023.506-.023.721.001.24.01.48.023.719v.002c.027.45.046.735.079.935l.051-.026c.116-.065.25-.146.421-.25l.002-.001c.152-.092.3-.189.447-.29.148-.104.318-.234.493-.378l.003-.003c.356-.29.546-.448.66-.581.082-.095.071-.114.071-.127Zm1.5 0c0 .456-.18.809-.434 1.104-.221.259-.535.512-.85.768h-.001a9.89 9.89 0 0 1-.58.444l-.002.002a9.78 9.78 0 0 1-.53.343c-.306.186-.633.39-.927.496a1.422 1.422 0 0 1-.587.09 1.189 1.189 0 0 1-.632-.242c-.367-.277-.503-.67-.568-1.007-.064-.325-.086-.739-.113-1.19l-.018-.402a14.782 14.782 0 0 1-.008-.402V12c0-.254.011-.531.026-.806v-.002c.027-.45.049-.865.112-1.19.057-.295.168-.634.443-.9l.128-.109c.18-.135.392-.221.63-.24.224-.016.426.032.587.09a3.2 3.2 0 0 1 .459.218l.469.277c.185.113.365.23.529.344.19.133.39.289.583.446l.46.384c.146.127.28.255.39.383.254.296.434.649.434 1.105Zm6.75 3.063c0 .313-.04.616-.164.914-.124.297-.31.535-.524.749l-4.336 4.335a2.32 2.32 0 0 1-.763.53 2.32 2.32 0 0 1-.9.159H8.938c-.313 0-.616-.04-.914-.164a2.321 2.321 0 0 1-.749-.524L2.94 16.725a2.326 2.326 0 0 1-.53-.763 2.316 2.316 0 0 1-.159-.9V8.938c0-.313.04-.616.164-.914.124-.297.31-.535.524-.749l4.337-4.337c.222-.22.464-.406.762-.529.298-.122.598-.158.9-.158h6.127c.301 0 .6.036.899.158.299.123.541.31.763.53l4.335 4.336c.222.222.408.464.53.763.123.298.159.598.159.9v6.127Z"/>
</svg>
