<svg xmlns="http://www.w3.org/2000/svg" fill="none" viewBox="0 0 24 24">
  <path fill="currentColor" fill-rule="evenodd" d="M7.486 5.474h6.086a2.177 2.177 0 0 0 .123 1.467H9.58c-1.425 0-2.652 0-3.623.125a7.75 7.75 0 0 0-.541.087c-.24.048-.444-.178-.313-.384a2.842 2.842 0 0 1 2.383-1.295Zm10.46-.93h-.779a2.13 2.13 0 0 0-2.123-.573l-.155.05a2.131 2.131 0 0 0-.791.522H7.253c-.215 0-.357-.22-.235-.397.413-.6 1.113-1.024 1.937-1.105.138-.014.298-.014.508-.014h6.273c.208 0 .368 0 .508.014.824.08 1.524.505 1.937 1.105.122.177-.02.397-.235.397ZM9.609 8.008h4.922l.463.505.092.101c.146.162.362.402.58.603.287.264.708.59 1.271.762l.285.073a3.13 3.13 0 0 0 1.993-.247l.028-.013.028-.015c.438-.234.78-.545 1.052-.873l.014-.016.012-.017c.08-.101.157-.204.232-.306.152.094.288.202.41.33.851.886.651 2.256.25 4.997l-.38 2.598c-.314 2.149-.472 3.223-1.278 3.867-.806.643-1.995.643-4.373.643H9.99c-2.38 0-3.567 0-4.374-.643-.806-.644-.964-1.719-1.278-3.867l-.38-2.6c-.401-2.74-.601-4.109.25-4.996.852-.886 2.37-.886 5.401-.886Zm5.31 7.415c.502-.31.502-1.116 0-1.427l-3.03-1.878c-.487-.303-1.087.09-1.087.713v3.757c0 .622.6 1.015 1.088.713l3.029-1.878Z" clip-rule="evenodd"/>
  <path fill="currentColor" d="M22.867 2.662a.677.677 0 0 0 .019-.73.643.643 0 0 0-.399-.287.632.632 0 0 0-.658.258l-3.153 4.539a20.43 20.43 0 0 1-.38.534 3.635 3.635 0 0 1-.1.126l-.02.025a.56.56 0 0 1-.154.146.383.383 0 0 1-.281.022c-.007-.002-.055-.018-.185-.137a8.114 8.114 0 0 1-.22-.21 17.737 17.737 0 0 1-.763-.825l-.128-.144a30.297 30.297 0 0 0-.34-.379.634.634 0 0 0-.794-.126.656.656 0 0 0-.26.295.674.674 0 0 0 .126.727l.92 1.004.062.067.07.077c.11.122.222.247.34.365.238.237.499.444.807.538.393.12.817.089 1.188-.09.172-.093.323-.21.46-.349.051-.05.1-.105.147-.161.184-.236.357-.48.53-.727l3.166-4.558Z"/>
</svg>
