<svg xmlns="http://www.w3.org/2000/svg" fill="none" viewBox="0 0 24 24">
  <path fill="currentColor" d="M10.565 2.075a3.33 3.33 0 0 1 2.87 0c.394.19.755.497 1.26.928l.08.066c.48.41.938.604 1.58.655l.101.008c.662.053 1.135.09 1.547.236a3.33 3.33 0 0 1 2.03 2.03c.145.411.182.884.235 1.546l.008.102c.051.641.246 1.1.655 1.58l.066.078c.431.506.74.867.928 1.261a3.33 3.33 0 0 1 0 2.87c-.189.394-.497.755-.928 1.26l-.066.08c-.418.49-.605.95-.655 1.58l-.008.101c-.053.662-.09 1.135-.236 1.547a3.331 3.331 0 0 1-2.029 2.03c-.412.145-.885.182-1.547.235l-.102.008c-.64.051-1.1.246-1.58.655l-.079.066c-.505.431-.866.74-1.26.928a3.33 3.33 0 0 1-2.87 0c-.394-.189-.755-.497-1.26-.928l-.079-.066a2.56 2.56 0 0 0-1.58-.655l-.102-.008c-.662-.053-1.135-.09-1.547-.236a3.33 3.33 0 0 1-2.03-2.029c-.145-.412-.182-.885-.235-1.547l-.008-.102a2.56 2.56 0 0 0-.655-1.58l-.066-.079c-.43-.505-.74-.866-.928-1.26a3.33 3.33 0 0 1 0-2.87c.19-.394.497-.755.928-1.26l.066-.079a2.56 2.56 0 0 0 .655-1.58l.008-.102c.053-.662.09-1.135.236-1.547a3.33 3.33 0 0 1 2.03-2.03c.411-.145.884-.182 1.546-.235l.102-.008a2.56 2.56 0 0 0 1.58-.655l.078-.066c.506-.43.867-.74 1.261-.928Zm1.99 7.234c-.292-.178-.6-.366-.88-.466a1.4 1.4 0 0 0-.586-.09 1.2 1.2 0 0 0-.632.24c-.368.278-.504.672-.569 1.01-.06.314-.084.711-.109 1.144l-.003.046A15.21 15.21 0 0 0 9.75 12c0 .254.01.531.026.807l.003.046c.025.433.048.83.11 1.145.064.337.2.731.57 1.008.18.136.391.223.63.24.224.017.425-.03.587-.09.278-.1.587-.287.88-.465l.047-.03c.39-.234.763-.498 1.113-.789l.04-.033c.301-.245.6-.488.811-.735.254-.295.433-.648.433-1.104 0-.456-.18-.809-.433-1.104-.212-.247-.51-.49-.81-.735l-.04-.033a10.006 10.006 0 0 0-.582-.445c-.174-.12-.351-.236-.532-.345l-.048-.029Z"/>
</svg>
