<svg xmlns="http://www.w3.org/2000/svg" fill="none" viewBox="0 0 24 24">
  <path fill="currentColor" d="M16.25 12.5c0-.34-.107-.619-.424-.988-.35-.407-.892-.853-1.72-1.529l-.002-.003a22.247 22.247 0 0 0-1.25-.957 21.276 21.276 0 0 0-1.131-.732c-.834-.507-1.36-.823-1.764-.968-.187-.067-.296-.077-.357-.072a.306.306 0 0 0-.173.072c-.143.107-.286.307-.395.868-.111.574-.158 1.364-.225 2.52A31.792 31.792 0 0 0 8.75 12.5c.003.596.023 1.192.06 1.787v.003c.066 1.156.114 1.946.225 2.52.109.56.251.759.394.866.074.056.125.07.173.073.061.005.17-.005.357-.072.303-.11.675-.314 1.193-.623l.572-.345c.407-.248.793-.496 1.13-.732l.633-.468c.209-.16.415-.323.617-.49l.003-.002c.828-.675 1.37-1.12 1.72-1.528.316-.37.423-.648.423-.99Zm1.5 0c0 .784-.296 1.397-.785 1.967-.457.532-1.125 1.072-1.91 1.713l-.001-.001a24.27 24.27 0 0 1-1.33 1.02l-.004.003c-.374.262-.792.53-1.217.788-.775.471-1.455.89-2.036 1.099-.305.11-.633.181-.976.156a1.8 1.8 0 0 1-.962-.37c-.579-.434-.83-1.073-.966-1.78-.135-.695-.186-1.605-.25-2.716l-.044-.937c-.01-.312-.017-.625-.019-.938V12.5c0-.582.024-1.227.062-1.877.064-1.111.115-2.021.25-2.717.137-.708.388-1.347.967-1.782.286-.214.606-.343.962-.37a2.38 2.38 0 0 1 .976.158c.435.157.927.43 1.473.756l.563.34c.425.26.843.527 1.217.79l.004.003c.456.325.901.666 1.334 1.022.784.64 1.45 1.18 1.906 1.711.489.57.786 1.182.786 1.966Z"/>
</svg>
