<svg xmlns="http://www.w3.org/2000/svg" fill="none" viewBox="0 0 24 24">
  <path fill="currentColor" d="M8.86 3h6.28c.21 0 .37 0 .51.014.791.077 1.468.47 1.887 1.033.155.207-.014.471-.273.471H6.736c-.258 0-.428-.264-.273-.471.419-.563 1.096-.956 1.887-1.033C8.488 3 8.649 3 8.86 3ZM6.88 5.45a2.85 2.85 0 0 0-2.323 1.2c-.168.24.075.513.363.46.141-.026.284-.047.427-.065.972-.125 2.202-.125 3.63-.125h6.202c1.427 0 2.655 0 3.628.125.143.018.285.04.426.065.289.052.532-.22.364-.461a2.85 2.85 0 0 0-2.321-1.198H6.879Z"/>
  <path fill="currentColor" fill-rule="evenodd" d="M14.995 7.988h-5.99c-3.037 0-4.556 0-5.409.888-.853.888-.652 2.26-.25 5.004l.38 2.603c.315 2.152.472 3.228 1.28 3.873.808.644 1.997.644 4.38.644h5.228c2.382 0 3.573 0 4.38-.644.808-.645.965-1.721 1.28-3.873l.38-2.602c.402-2.745.603-4.117-.25-5.005-.853-.888-2.372-.888-5.409-.888Zm-.672 7.427c.503-.312.503-1.118 0-1.43l-3.034-1.88c-.489-.304-1.089.09-1.089.714v3.762c0 .624.6 1.017 1.089.715l3.034-1.881Z" clip-rule="evenodd"/>
</svg>
