<svg xmlns="http://www.w3.org/2000/svg" fill="none" viewBox="0 0 24 24">
  <path fill="currentColor" d="M10.79 1.49a3.16 3.16 0 0 1 3.445.687l7.588 7.588a3.16 3.16 0 0 1 0 4.47l-7.588 7.588a3.16 3.16 0 0 1-4.47 0l-7.588-7.588a3.16 3.16 0 0 1 0-4.47l7.588-7.589a3.2 3.2 0 0 1 1.025-.685m1.765 7.82c-.292-.179-.6-.367-.88-.467a1.4 1.4 0 0 0-.586-.09 1.2 1.2 0 0 0-.632.24c-.368.278-.504.672-.569 1.01-.06.314-.084.711-.109 1.144l-.003.046a15.21 15.21 0 0 0-.026.807c0 .254.01.531.026.807l.003.046c.025.433.048.83.11 1.145.064.337.2.731.57 1.008.18.136.391.223.63.24.224.017.425-.03.587-.09.278-.1.587-.287.88-.465l.047-.03c.39-.234.763-.498 1.113-.789l.04-.033c.301-.245.6-.488.811-.735.254-.295.433-.648.433-1.104 0-.456-.18-.809-.433-1.104-.212-.247-.51-.49-.81-.735l-.04-.033a10.02 10.02 0 0 0-.582-.445c-.174-.12-.351-.236-.532-.345l-.048-.029Z"/>
</svg>
