<svg xmlns="http://www.w3.org/2000/svg" fill="none" viewBox="0 0 24 24">
  <path fill="currentColor" fill-rule="evenodd" d="M9.763 3.02h6.274c.209 0 .369 0 .51.014.19.019.165.28-.022.32-.787.173-1.704.539-2.044 1.01-.07.097-.176.173-.296.173H7.538c-.21 0-.347-.213-.23-.386.413-.607 1.117-1.035 1.946-1.117.138-.013.298-.013.509-.013ZM7.785 5.469c-1.03 0-1.92.555-2.394 1.31-.125.201.073.42.306.373.184-.037.37-.067.558-.09.97-.125 2.199-.125 3.625-.125h4.31c.286 0 .45-.437.312-.687a2.01 2.01 0 0 1-.2-.52c-.035-.146-.158-.26-.307-.26h-6.21Zm8.107 2.534H9.908c-3.033 0-4.55 0-5.402.887-.853.887-.652 2.257-.25 4.998l.38 2.6c.314 2.15.471 3.225 1.277 3.868C6.721 21 7.91 21 10.29 21h5.223c2.378 0 3.568 0 4.375-.644.806-.643.963-1.719 1.278-3.868l.38-2.599c.279-1.906.46-3.15.26-4.028-.057-.246-.381-.23-.53-.027A2.023 2.023 0 0 1 17.62 8.64v-.343a.29.29 0 0 0-.287-.29c-.438-.004-.917-.004-1.441-.004Zm-.672 7.418c.503-.311.503-1.116 0-1.428l-3.03-1.878c-.488-.303-1.088.09-1.088.713v3.758c0 .623.6 1.016 1.088.714l3.03-1.879Z" clip-rule="evenodd"/>
  <path fill="currentColor" fill-rule="evenodd" d="M20.316 5.942h2.697a.674.674 0 0 0 0-1.348h-2.697V1.897a.674.674 0 1 0-1.348 0v2.697h-2.697a.674.674 0 1 0 0 1.348h2.697V8.64a.674.674 0 1 0 1.348 0V5.942Z" clip-rule="evenodd"/>
</svg>
