<svg xmlns="http://www.w3.org/2000/svg" fill="none" viewBox="0 0 24 24">
  <path fill="currentColor" d="M20.25 12a8.25 8.25 0 1 0-16.5-.001 8.25 8.25 0 0 0 16.5.001Zm-6.75 0c0-.013.01-.032-.071-.127a2.358 2.358 0 0 0-.24-.231l-.42-.35-.011-.01a8.42 8.42 0 0 0-.484-.37 8.749 8.749 0 0 0-.45-.293c-.17-.104-.305-.184-.42-.249l-.052-.027c-.033.2-.052.485-.079.936-.014.26-.023.506-.023.721.001.24.01.48.023.719v.002c.027.45.046.735.079.935l.051-.026c.116-.065.25-.146.421-.25l.002-.001c.152-.092.3-.189.447-.29.148-.104.318-.234.493-.378l.003-.003c.356-.29.546-.448.66-.581.082-.095.071-.114.071-.127Zm1.5 0c0 .456-.18.809-.434 1.104-.221.259-.535.512-.85.768h-.001a9.89 9.89 0 0 1-.58.444l-.002.002a9.78 9.78 0 0 1-.53.343c-.306.186-.633.39-.927.496a1.422 1.422 0 0 1-.587.09 1.189 1.189 0 0 1-.632-.242c-.367-.277-.503-.67-.568-1.007-.064-.325-.086-.739-.113-1.19l-.018-.402a14.782 14.782 0 0 1-.008-.402V12c0-.254.011-.531.026-.806v-.002c.027-.45.049-.865.112-1.19.057-.295.168-.634.443-.9l.128-.109c.18-.135.392-.221.63-.24.224-.016.426.032.587.09a3.2 3.2 0 0 1 .459.218l.469.277c.185.113.365.23.529.344.19.133.39.289.583.446l.46.384c.146.127.28.255.39.383.254.296.434.649.434 1.105Zm6.75 0a9.75 9.75 0 1 1-19.502 0 9.75 9.75 0 0 1 19.502 0Z"/>
</svg>
