<svg xmlns="http://www.w3.org/2000/svg" fill="none" viewBox="0 0 24 24">
  <path fill="currentColor" d="M12 1.75c.463 0 .916.124 1.316.355h.001l6.613 3.8.006.003a2.661 2.661 0 0 1 1.314 2.291v7.6l-.005.173a2.652 2.652 0 0 1-1.311 2.123l-.004.001-6.613 3.8a2.628 2.628 0 0 1-2.634 0l-6.613-3.8-.006-.003a2.659 2.659 0 0 1-1.314-2.29V8.2a2.65 2.65 0 0 1 1.316-2.293l.004-.002 6.613-3.8c.4-.233.854-.354 1.317-.354Zm0 1.5c-.2 0-.395.053-.567.153l-.003.002-6.61 3.797h.001a1.151 1.151 0 0 0-.571.997V15.8l.01.15a1.16 1.16 0 0 0 .563.849l6.607 3.797.003.001a1.13 1.13 0 0 0 1.134 0l.003-.002 6.609-3.797.125-.084a1.15 1.15 0 0 0 .446-.912V8.2a1.16 1.16 0 0 0-.573-1L12.57 3.406l-.003-.002A1.13 1.13 0 0 0 12 3.251ZM13.5 12c0-.013.01-.032-.071-.127a2.347 2.347 0 0 0-.24-.232l-.42-.35-.011-.009c-.086-.07-.169-.136-.248-.197l-.236-.173a7.668 7.668 0 0 0-.213-.144l-.237-.148c-.17-.104-.305-.185-.42-.25l-.052-.027c-.033.2-.052.484-.079.936-.014.26-.023.505-.023.72.001.24.01.48.023.72v.002c.027.45.046.735.079.935.015-.009.033-.016.051-.026.116-.065.25-.147.421-.25l.002-.001c.153-.093.303-.19.45-.291a8.46 8.46 0 0 0 .49-.377l.003-.002c.357-.29.545-.45.66-.582.082-.096.071-.114.071-.127Zm1.5 0c0 .456-.18.809-.434 1.104-.221.258-.535.512-.85.768l-.001-.001a9.53 9.53 0 0 1-.58.446l-.002.001c-.173.12-.35.234-.53.343-.305.186-.633.39-.927.496a1.42 1.42 0 0 1-.587.089 1.187 1.187 0 0 1-.632-.241c-.367-.277-.503-.67-.568-1.007-.064-.325-.086-.739-.113-1.189l-.018-.402a14.822 14.822 0 0 1-.008-.403V12l.007-.396c.004-.135.012-.273.02-.41v-.002c.026-.45.048-.865.11-1.19.058-.296.17-.634.444-.9l.128-.11c.18-.134.392-.22.63-.238.224-.017.426.032.587.09.294.105.622.308.928.494.185.113.365.23.529.344.19.133.39.289.583.446l.014.012c.31.252.618.501.836.755.254.296.434.649.434 1.105Z"/>
</svg>
