<svg xmlns="http://www.w3.org/2000/svg" fill="none" viewBox="0 0 24 24">
  <path fill="currentColor" d="M21.25 12a1.66 1.66 0 0 0-.377-1.053l-.11-.122-7.589-7.588a1.66 1.66 0 0 0-2.348 0l-7.588 7.588a1.664 1.664 0 0 0-.001 2.35l7.589 7.588.12.11a1.663 1.663 0 0 0 1.69.25c.202-.083.384-.206.538-.36l7.59-7.588A1.663 1.663 0 0 0 21.25 12Zm-7.75 0c0-.013.011-.031-.07-.127-.115-.133-.304-.291-.661-.582l-.259-.206-.235-.173a8.683 8.683 0 0 0-.45-.293 13.84 13.84 0 0 0-.421-.249l-.052-.027c-.033.2-.052.485-.078.937a12.706 12.706 0 0 0-.017 1.078l.017.361c.026.451.045.737.078.938.016-.01.034-.017.052-.027.116-.065.25-.146.42-.25h.003c.152-.093.302-.19.449-.293a8.51 8.51 0 0 0 .49-.377l.003-.002c.357-.29.546-.448.66-.58.082-.095.072-.115.072-.128Zm1.5 0c0 .456-.18.81-.433 1.105-.221.257-.536.508-.85.763l.001.001c-.195.16-.395.316-.583.448l-.003.002c-.172.12-.349.234-.529.342-.305.186-.634.39-.928.495a1.42 1.42 0 0 1-.587.09 1.188 1.188 0 0 1-.631-.24c-.368-.277-.503-.67-.569-1.008-.063-.325-.085-.739-.111-1.19l-.019-.402a14.749 14.749 0 0 1-.008-.402V12c0-.254.011-.532.027-.806.026-.45.048-.866.111-1.192.066-.337.2-.73.569-1.007l.141-.092c.147-.083.311-.136.49-.15a1.42 1.42 0 0 1 .587.09c.147.053.303.13.46.218l.469.277a7.928 7.928 0 0 1 .82.558l.292.232.01.009c.31.253.621.503.84.759.255.295.434.648.434 1.104Zm7.75 0a3.16 3.16 0 0 1-.926 2.236l-7.588 7.587a3.16 3.16 0 0 1-4.472 0l-7.587-7.587a3.16 3.16 0 0 1-.107-4.359l.107-.113 7.587-7.587.113-.107a3.16 3.16 0 0 1 4.359.107l7.587 7.587A3.166 3.166 0 0 1 22.75 12Z"/>
</svg>
