<svg xmlns="http://www.w3.org/2000/svg" fill="none" viewBox="0 0 24 24">
  <path fill="currentColor" d="M18.35 4.75H5.65v9.026l.005.101a1.019 1.019 0 0 0 .3.624c.196.194.464.304.745.304h10.6c.28 0 .548-.11.745-.303a1.02 1.02 0 0 0 .305-.724V4.75Zm1.5 9.028a2.52 2.52 0 0 1-.75 1.79v.001a2.565 2.565 0 0 1-1.8.736h-3.475l3.202 3.162.052.056a.75.75 0 0 1-1.106 1.01L12 16.61l-3.973 3.923a.75.75 0 0 1-1.054-1.066l3.202-3.162H6.7a2.567 2.567 0 0 1-1.612-.569L4.9 15.57a2.523 2.523 0 0 1-.75-1.79V4.75H3a.75.75 0 0 1 0-1.5h18a.75.75 0 0 1 0 1.5h-1.15v9.028Z"/>
</svg>
