<svg xmlns="http://www.w3.org/2000/svg" fill="none" viewBox="0 0 24 24">
  <path fill="currentColor" d="M16.75 17a.25.25 0 0 0-.25-.25H11a.25.25 0 0 0-.25.25v2.25h6V17ZM8 12.25a.75.75 0 0 1 0 1.5H6a.75.75 0 0 1 0-1.5h2Zm10.25 7H20a.25.25 0 0 0 .25-.25v-8a.25.25 0 0 0-.25-.25H4a.25.25 0 0 0-.25.25v8l.005.049A.25.25 0 0 0 4 19.25h5.25V17A1.75 1.75 0 0 1 11 15.25h5.5A1.75 1.75 0 0 1 18.25 17v2.25Zm0-14.25a.25.25 0 0 0-.201-.245L18 4.75H6a.25.25 0 0 0-.25.25v4.25h12.5V5Zm1.5 4.25H20A1.75 1.75 0 0 1 21.75 11v8A1.75 1.75 0 0 1 20 20.75H4A1.75 1.75 0 0 1 2.25 19v-8A1.75 1.75 0 0 1 4 9.25h.25V5A1.75 1.75 0 0 1 6 3.25h12A1.75 1.75 0 0 1 19.75 5v4.25Z"/>
</svg>
