<svg xmlns="http://www.w3.org/2000/svg" fill="none" viewBox="0 0 24 24">
  <path fill="currentColor" d="M16.2 5.7a1.95 1.95 0 0 0-3.9 0 1.65 1.65 0 0 1-1.65 1.65H9.1c-.293 0-.467 0-.596.011-.12.01-.134.024-.117.016a.251.251 0 0 0-.11.11c.009-.017-.006-.003-.016.117-.01.13-.011.304-.011.596v2.2c0 .268 0 .514-.017.718a1.773 1.773 0 0 1-.173.676c-.168.33-.436.598-.765.766a1.77 1.77 0 0 1-.677.173c-.204.017-.45.017-.718.017h-.2a1.951 1.951 0 0 0 0 3.9h.2c.268 0 .514 0 .718.016.213.017.446.058.676.175.33.168.598.435.766.764.117.23.156.464.173.677.017.205.017.45.017.718v.4c0 .293 0 .467.01.596.01.12.026.134.017.117a.251.251 0 0 0 .11.11c-.017-.009-.003.006.117.016.129.01.303.011.596.011h10.3c.293 0 .467 0 .596-.01.12-.01.134-.026.117-.017a.251.251 0 0 0 .11-.11c-.009.017.006.003.016-.117a8.71 8.71 0 0 0 .011-.596V19c0-.292 0-.467-.01-.596-.01-.12-.025-.134-.017-.118a.25.25 0 0 0-.11-.108.696.696 0 0 0-.117-.017c-.129-.01-.303-.01-.596-.01h-.2a3.45 3.45 0 0 1 0-6.901h.2c.293 0 .467 0 .596-.01.12-.01.134-.026.117-.017a.251.251 0 0 0 .11-.11c-.009.017.006.003.016-.117a8.71 8.71 0 0 0 .011-.596V8.2c0-.292 0-.466-.01-.596-.01-.12-.026-.134-.017-.118a.251.251 0 0 0-.11-.109c.017.008.003-.006-.117-.016a8.245 8.245 0 0 0-.596-.011h-1.55A1.65 1.65 0 0 1 16.2 5.7Zm1.5 0a.15.15 0 0 0 .15.15h1.55c.268 0 .514 0 .718.016.213.018.446.058.676.175.329.168.598.436.766.765.117.23.156.463.173.676.017.205.017.45.017.718v2.2c0 .268 0 .514-.017.718a1.774 1.774 0 0 1-.173.676c-.168.33-.436.598-.765.766a1.77 1.77 0 0 1-.677.173c-.204.017-.45.017-.718.017h-.2a1.95 1.95 0 0 0 0 3.9h.2c.268 0 .514 0 .718.016.213.017.446.058.676.175.329.168.598.435.766.764.117.23.156.464.173.677.017.205.017.45.017.718v.4c0 .268 0 .514-.017.718a1.774 1.774 0 0 1-.173.676c-.168.33-.436.598-.765.766a1.77 1.77 0 0 1-.677.173c-.204.017-.45.017-.718.017H9.1c-.268 0-.514 0-.718-.017a1.774 1.774 0 0 1-.676-.173 1.754 1.754 0 0 1-.766-.765 1.778 1.778 0 0 1-.173-.677c-.017-.204-.017-.45-.017-.718V19c0-.292 0-.467-.01-.596-.01-.12-.025-.134-.017-.118a.25.25 0 0 0-.11-.108.695.695 0 0 0-.117-.017c-.129-.01-.303-.01-.596-.01h-.2a3.452 3.452 0 0 1-3.187-4.771A3.45 3.45 0 0 1 5.7 11.25h.2c.293 0 .467 0 .596-.01.12-.01.134-.026.117-.017a.251.251 0 0 0 .11-.11c-.009.017.006.003.016-.117a8.71 8.71 0 0 0 .011-.596V8.2c0-.267 0-.513.017-.718.017-.213.056-.446.173-.676.168-.33.436-.597.765-.765.23-.117.464-.157.677-.175.204-.016.45-.016.718-.016h1.55a.15.15 0 0 0 .15-.15 3.45 3.45 0 0 1 6.9 0Z"/>
</svg>
