<svg xmlns="http://www.w3.org/2000/svg" fill="none" viewBox="0 0 24 24">
  <path fill="currentColor" fill-rule="evenodd" d="M5 3a2 2 0 0 0-2 2v2a2 2 0 0 0 2 2h2a2 2 0 0 0 2-2V5a2 2 0 0 0-2-2H5Zm8 1a1 1 0 0 0-2 0v1a1 1 0 0 0 2 0V4Zm4-1a2 2 0 0 0-2 2v2a2 2 0 0 0 2 2h2a2 2 0 0 0 2-2V5a2 2 0 0 0-2-2h-2Zm-4 6a1 1 0 0 0-2 0v2a2 2 0 0 0 2 2h1a1 1 0 0 0 0-2h-1V9Zm-9 2a1 1 0 0 0 0 2h4a1 1 0 0 0 0-2H4Zm14 0a1 1 0 0 0 0 2h2a1 1 0 0 0 0-2h-2ZM5 15a2 2 0 0 0-2 2v2a2 2 0 0 0 2 2h2a2 2 0 0 0 2-2v-2a2 2 0 0 0-2-2H5Zm8 0a2 2 0 0 0-2 2v3a1 1 0 0 0 2 0v-3h1a1 1 0 0 0 0-2h-1Zm5 0a1 1 0 0 0 0 2h2a1 1 0 0 0 0-2h-2Zm-2 4a1 1 0 0 0 0 2h4a1 1 0 0 0 0-2h-4Z" clip-rule="evenodd"/>
</svg>
