<svg xmlns="http://www.w3.org/2000/svg" fill="none" viewBox="0 0 24 24">
  <path fill="currentColor" d="M21.25 12a1.66 1.66 0 0 0-.377-1.053l-.11-.122-7.589-7.588a1.66 1.66 0 0 0-2.348 0l-7.588 7.588a1.664 1.664 0 0 0-.001 2.35l7.589 7.588.12.11a1.663 1.663 0 0 0 1.69.25c.202-.083.384-.206.538-.36l7.59-7.588A1.663 1.663 0 0 0 21.25 12Zm-10 3.997v-.5a.75.75 0 0 1 1.5 0v.5a.75.75 0 0 1-1.5 0Zm0-2.5c0-.64.164-1.14.45-1.545.266-.377.613-.63.85-.808.263-.199.416-.32.525-.475.09-.127.176-.317.176-.68 0-.46-.167-.75-.374-.933a1.326 1.326 0 0 0-.877-.31c-.34 0-.657.114-.877.31-.207.183-.372.473-.372.934a.75.75 0 0 1-1.5 0c0-.87.333-1.576.876-2.057A2.826 2.826 0 0 1 12 7.245c.66 0 1.343.219 1.873.688.543.481.877 1.188.878 2.056 0 .64-.164 1.14-.45 1.544-.266.378-.614.633-.85.81-.264.198-.416.32-.525.474-.09.127-.175.317-.175.68a.75.75 0 0 1-1.5 0ZM22.75 12a3.16 3.16 0 0 1-.926 2.236l-7.588 7.587a3.16 3.16 0 0 1-4.472 0l-7.587-7.587a3.16 3.16 0 0 1-.107-4.359l.107-.113 7.587-7.587.113-.107a3.16 3.16 0 0 1 4.359.107l7.587 7.587A3.166 3.166 0 0 1 22.75 12Z"/>
</svg>
