<svg xmlns="http://www.w3.org/2000/svg" fill="none" viewBox="0 0 24 24">
  <path fill="currentColor" d="M11.25 21v-.5a.75.75 0 0 1 1.5 0v.5a.75.75 0 0 1-1.5 0Zm0-3.5c0-1.41.35-2.44.914-3.256.546-.79 1.268-1.334 1.88-1.802.638-.488 1.167-.9 1.558-1.465.373-.538.648-1.262.648-2.4 0-1.493-.545-2.555-1.315-3.25C14.15 4.618 13.087 4.25 12 4.25s-2.15.369-2.935 1.076c-.77.696-1.315 1.758-1.315 3.25a.75.75 0 0 1-1.5 0c0-1.891.705-3.368 1.81-4.364C9.15 3.227 10.587 2.75 12 2.75c1.413 0 2.85.477 3.94 1.462 1.105.996 1.81 2.473 1.81 4.364 0 1.41-.35 2.44-.915 3.255-.547.79-1.268 1.335-1.879 1.803-.638.488-1.166.899-1.558 1.464-.372.538-.648 1.263-.648 2.402a.75.75 0 0 1-1.5 0Z"/>
</svg>
