<svg xmlns="http://www.w3.org/2000/svg" fill="none" viewBox="0 0 24 24">
  <path fill="currentColor" d="M12 1.75c.463 0 .916.124 1.316.355h.001l6.613 3.8.006.003a2.661 2.661 0 0 1 1.314 2.291v7.6l-.005.173a2.652 2.652 0 0 1-1.311 2.123l-.004.001-6.613 3.8a2.628 2.628 0 0 1-2.634 0l-6.613-3.8-.006-.003a2.659 2.659 0 0 1-1.314-2.29V8.2a2.65 2.65 0 0 1 1.316-2.293l.004-.002 6.613-3.8c.4-.233.854-.354 1.317-.354Zm0 1.5c-.2 0-.395.053-.567.153l-.003.002-6.61 3.797h.001a1.151 1.151 0 0 0-.571.997V15.8l.01.15a1.16 1.16 0 0 0 .563.849l6.607 3.797.003.001a1.13 1.13 0 0 0 1.134 0l.003-.002 6.609-3.797.125-.084a1.15 1.15 0 0 0 .446-.912V8.2a1.16 1.16 0 0 0-.573-1L12.57 3.406l-.003-.002A1.13 1.13 0 0 0 12 3.251Zm-.75 12.747v-.5a.75.75 0 0 1 1.5 0v.5a.75.75 0 0 1-1.5 0Zm0-2.501c0-.64.164-1.138.45-1.543.266-.378.614-.632.85-.81.264-.198.415-.32.524-.474.09-.128.176-.317.176-.679 0-.46-.165-.751-.372-.935a1.327 1.327 0 0 0-.878-.31c-.34 0-.657.115-.878.31-.207.184-.372.475-.372.935a.75.75 0 0 1-1.5 0c0-.869.335-1.575.878-2.057A2.823 2.823 0 0 1 12 7.246c.66 0 1.343.218 1.872.687.543.482.878 1.188.878 2.057 0 .64-.164 1.138-.45 1.543-.266.378-.614.632-.85.81-.264.198-.415.32-.524.474-.09.127-.176.317-.176.679a.75.75 0 1 1-1.5 0Z"/>
</svg>
