<svg xmlns="http://www.w3.org/2000/svg" fill="none" viewBox="0 0 24 24">
  <path fill="currentColor" d="M20.25 12a8.25 8.25 0 1 0-16.5-.001 8.25 8.25 0 0 0 16.5.001Zm-9 3.997v-.5a.75.75 0 0 1 1.5 0v.5a.75.75 0 0 1-1.5 0Zm0-2.5c0-.64.164-1.139.45-1.544.266-.378.614-.632.85-.81.264-.198.415-.32.524-.474.09-.127.176-.317.176-.679 0-.46-.165-.751-.372-.934a1.327 1.327 0 0 0-.878-.31c-.34 0-.657.114-.878.31-.207.183-.372.474-.372.934a.75.75 0 0 1-1.5 0c0-.869.335-1.576.878-2.057.53-.47 1.213-.687 1.872-.687s1.343.218 1.872.687c.543.481.878 1.188.878 2.057 0 .64-.164 1.138-.45 1.543-.266.378-.614.632-.85.81-.263.198-.415.32-.524.473-.09.128-.176.318-.176.68a.75.75 0 0 1-1.5 0ZM21.75 12a9.75 9.75 0 1 1-19.502 0 9.75 9.75 0 0 1 19.502 0Z"/>
</svg>
