<svg xmlns="http://www.w3.org/2000/svg" fill="none" viewBox="0 0 24 24">
  <path fill="currentColor" d="M4.985 4.967a.75.75 0 0 1 1.056 1.066A8.394 8.394 0 0 0 3.543 12a8.4 8.4 0 0 0 2.208 5.667l.288.3.052.056a.75.75 0 0 1-1.107 1.01 9.902 9.902 0 0 1-2.941-7.032c0-2.64 1.059-5.17 2.942-7.034Zm13.61 14.066a.75.75 0 1 1-1.053-1.066l1.054 1.066Zm-1.059-14.06a.75.75 0 0 1 1.06-.006 9.902 9.902 0 0 1 2.943 7.032v.002a9.903 9.903 0 0 1-2.943 7.032l-1.054-1.066A8.403 8.403 0 0 0 20.039 12l-.01-.416a8.402 8.402 0 0 0-2.486-5.552.75.75 0 0 1-.007-1.06ZM8.026 7.76a.75.75 0 0 1 1.05 1.07 4.441 4.441 0 0 0-1.098 4.574l.117.31a4.44 4.44 0 0 0 .982 1.457.75.75 0 0 1-.995 1.119l-.058-.05-.205-.214a5.95 5.95 0 0 1-1.108-1.731A5.94 5.94 0 0 1 8.025 7.76Zm6.68.008a.75.75 0 0 1 1.003-.058l.058.05.205.214a5.95 5.95 0 0 1 1.108 1.732 5.94 5.94 0 0 1-1.314 6.534.75.75 0 0 1-1.052-1.07 4.442 4.442 0 0 0 .153-6.182l-.153-.159-.053-.057a.75.75 0 0 1 .045-1.004Zm-1.97 4.084A.75.75 0 0 0 11.25 12l.015.147A.75.75 0 0 0 12.75 12l-.015-.148Zm1.503.37a2.25 2.25 0 0 1-4.478 0L9.75 12a2.25 2.25 0 0 1 4.5 0l-.01.223Z"/>
</svg>
