<svg xmlns="http://www.w3.org/2000/svg" fill="none" viewBox="0 0 24 24">
  <path fill="currentColor" fill-rule="evenodd" d="M4 6.05c0-.676.28-1.325.781-1.803A2.73 2.73 0 0 1 6.667 3.5h10.666a2.73 2.73 0 0 1 1.886.747c.5.478.781 1.127.781 1.803v13.6c0 .16-.047.317-.137.452a.878.878 0 0 1-.367.314.927.927 0 0 1-.94-.103l-1.715-1.31-2.125 1.354a.92.92 0 0 1-1.05-.043L12 19.038l-1.667 1.275a.92.92 0 0 1-1.049.043L7.16 19.001l-1.715 1.312a.926.926 0 0 1-.94.102.877.877 0 0 1-.367-.313A.823.823 0 0 1 4 19.65V6.05Zm4.444.85a.91.91 0 0 0-.628.249.832.832 0 0 0-.26.601.83.83 0 0 0 .26.601.91.91 0 0 0 .628.249h7.112a.91.91 0 0 0 .628-.249.831.831 0 0 0 .26-.601.832.832 0 0 0-.26-.601.91.91 0 0 0-.628-.249H8.444Zm0 3.4a.91.91 0 0 0-.628.249.832.832 0 0 0-.26.6.83.83 0 0 0 .26.602.91.91 0 0 0 .628.249h7.112a.91.91 0 0 0 .628-.25.831.831 0 0 0 .26-.6.831.831 0 0 0-.26-.601.91.91 0 0 0-.628-.25H8.444Zm0 3.4a.91.91 0 0 0-.628.249.832.832 0 0 0-.26.6.83.83 0 0 0 .26.602.91.91 0 0 0 .628.249H12a.91.91 0 0 0 .629-.25.832.832 0 0 0 .26-.6.832.832 0 0 0-.26-.601.91.91 0 0 0-.629-.25H8.444Z" clip-rule="evenodd"/>
</svg>
