<svg xmlns="http://www.w3.org/2000/svg" fill="none" viewBox="0 0 24 24">
  <path fill="currentColor" d="M21.5 18.75a.75.75 0 0 1 0 1.5h-19a.75.75 0 0 1 0-1.5h19Zm-2.86-5.68c0-2.474-1.913-4.479-4.296-4.601l-.232-.006H9.89c-2.49.001-4.528 2.054-4.528 4.608v2.465H18.64V13.07Zm1.5 3.216a.75.75 0 0 1-.75.75H4.61a.75.75 0 0 1-.75-.75v-3.215c0-3.361 2.688-6.107 6.028-6.107h1.361V5.25h-1.36a.75.75 0 0 1 0-1.5h4.222l.076.004a.75.75 0 0 1 0 1.492l-.076.004H12.75v1.713h1.362c3.34 0 6.028 2.746 6.028 6.107v3.216Z"/>
</svg>
