<svg xmlns="http://www.w3.org/2000/svg" fill="none" viewBox="0 0 24 24">
  <path fill="currentColor" d="M18.75 6.978c0-.884 0-1.502-.038-1.985-.038-.474-.108-.751-.212-.963l-.001-.003a2.31 2.31 0 0 0-.988-1.024l-.16-.071c-.176-.066-.406-.113-.745-.142-.23-.02-.494-.03-.806-.035l-1.1-.005H9.3c-.853 0-1.445 0-1.906.04-.452.038-.71.11-.905.213v-.001A2.312 2.312 0 0 0 5.5 4.027l-.001.001c-.104.213-.175.49-.212.965-.038.483-.038 1.101-.038 1.985v10.044c0 .884 0 1.503.038 1.985.037.474.108.751.212.963l.001.003c.213.437.56.795.988 1.024l.16.071c.176.066.406.113.745.142.46.04 1.053.04 1.906.04h5.4c.853 0 1.446-.001 1.907-.04.45-.038.707-.109.902-.211a2.31 2.31 0 0 0 .99-1.025l.001-.002c.104-.213.174-.49.212-.965.038-.483.038-1.102.038-1.985V6.979Zm1.5 10.044c0 .86 0 1.548-.043 2.103-.044.563-.137 1.054-.36 1.508l-.001-.001a3.81 3.81 0 0 1-1.631 1.691l-.003.001c-.447.236-.93.335-1.479.381-.539.046-1.206.045-2.033.045H9.3c-.827 0-1.494 0-2.033-.045-.55-.047-1.033-.145-1.48-.382h-.002a3.81 3.81 0 0 1-1.632-1.693l.001-.001c-.222-.453-.317-.942-.361-1.504-.044-.555-.043-1.243-.043-2.102V6.978c0-.86 0-1.548.043-2.103.044-.563.138-1.054.36-1.508a3.812 3.812 0 0 1 1.632-1.69h.002c.447-.237.93-.335 1.48-.382.539-.046 1.206-.045 2.033-.045h5.4l1.125.006c.338.005.639.016.908.039.48.04.912.122 1.31.3l.17.082h.002a3.81 3.81 0 0 1 1.63 1.691l.079.172c.168.405.244.843.283 1.335.044.555.043 1.243.043 2.103v10.044Z"/>
</svg>
