<svg xmlns="http://www.w3.org/2000/svg" fill="none" viewBox="0 0 24 24">
  <path fill="currentColor" d="M20.893 9.3c0-.853-.001-1.447-.039-1.91-.037-.453-.106-.713-.207-.91a2.254 2.254 0 0 0-.828-.898l-.154-.087c-.198-.1-.459-.17-.913-.207-.462-.038-1.056-.038-1.909-.038H7.157c-.853 0-1.447 0-1.91.038-.453.037-.714.106-.912.207a2.25 2.25 0 0 0-.983.984c-.1.197-.17.458-.207.912-.038.462-.038 1.057-.038 1.909v5.4l.005 1.1c.005.314.014.578.033.81.028.34.074.57.138.748l.07.162c.215.424.56.769.982.985l.163.07c.178.063.41.11.75.137.462.038 1.056.038 1.909.038h9.686c.852 0 1.447 0 1.91-.038.453-.037.714-.107.912-.207.423-.216.767-.56.983-.983.1-.198.17-.46.207-.913.038-.462.038-1.057.038-1.909V9.3Zm1.5 5.4c0 .828 0 1.494-.044 2.031-.044.547-.139 1.027-.365 1.471a3.75 3.75 0 0 1-1.639 1.639c-.444.226-.924.321-1.47.366-.538.044-1.204.043-2.032.043H7.157c-.828 0-1.494.001-2.032-.043-.546-.045-1.026-.14-1.47-.366a3.754 3.754 0 0 1-1.639-1.639h.001c-.226-.445-.321-.924-.366-1.47-.022-.27-.034-.57-.04-.908L1.608 14.7V9.3c0-.828-.001-1.494.043-2.031.045-.547.14-1.027.366-1.471a3.75 3.75 0 0 1 1.639-1.639c.444-.226.924-.321 1.47-.366.538-.044 1.204-.043 2.032-.043h9.686c.828 0 1.494-.001 2.032.043.546.045 1.026.14 1.47.366a3.75 3.75 0 0 1 1.637 1.638c.227.444.322.925.367 1.472.044.537.044 1.203.044 2.03V14.7Z"/>
</svg>
