<svg xmlns="http://www.w3.org/2000/svg" fill="none" viewBox="0 0 24 24">
  <path fill="currentColor" d="M2.25 20.1v-3.96a1.292 1.292 0 0 1 1.291-1.29h3.97a.75.75 0 0 1 0 1.5H4.517c1.41 2.45 4.303 3.9 7.506 3.9 4.29 0 7.816-3.258 8.23-7.425a.75.75 0 1 1 1.493.15c-.491 4.928-4.657 8.775-9.723 8.775-3.273 0-6.425-1.349-8.273-3.838V20.1a.75.75 0 0 1-1.5 0Zm1.496-8.925a.75.75 0 1 1-1.492-.15l1.492.15Zm8.231-8.925c3.273 0 6.425 1.348 8.273 3.837V3.9a.75.75 0 0 1 1.5 0v3.96l-.006.126A1.291 1.291 0 0 1 20.46 9.15l-3.97.001a.75.75 0 0 1 0-1.5h2.994c-1.41-2.45-4.303-3.9-7.506-3.9-4.29 0-7.816 3.258-8.23 7.425L3 11.1l-.746-.075C2.745 6.097 6.91 2.25 11.977 2.25Z"/>
</svg>
