<svg xmlns="http://www.w3.org/2000/svg" fill="none" viewBox="0 0 24 24">
  <path fill="currentColor" d="M20.25 20.1v-2.188c-1.848 2.49-5 3.838-8.273 3.838-5.066 0-9.232-3.847-9.723-8.775L3 12.9l.746-.075c.415 4.167 3.94 7.425 8.231 7.425 3.203 0 6.097-1.45 7.506-3.9H16.49a.75.75 0 0 1 0-1.5h3.97c.127 0 .252.019.373.055l.12.042.114.055a1.287 1.287 0 0 1 .684 1.138v3.96a.75.75 0 1 1-1.5 0ZM2.926 12.153a.75.75 0 0 1 .82.672l-1.492.15a.75.75 0 0 1 .672-.822Zm9.096-9.903c5.067 0 9.233 3.847 9.724 8.775a.75.75 0 0 1-1.492.15c-.415-4.167-3.94-7.425-8.232-7.425-3.202 0-6.096 1.45-7.506 3.9h2.995l.077.004a.75.75 0 0 1 0 1.492l-.077.004H3.54a1.29 1.29 0 0 1-1.29-1.29V3.9a.75.75 0 0 1 1.5 0v2.186c1.848-2.488 5-3.836 8.271-3.836Z"/>
</svg>
