<svg xmlns="http://www.w3.org/2000/svg" fill="none" viewBox="0 0 24 24">
  <path fill="currentColor" d="M21.25 12a1.66 1.66 0 0 0-.377-1.053l-.11-.122-7.589-7.588a1.66 1.66 0 0 0-2.348 0l-7.588 7.588a1.664 1.664 0 0 0-.001 2.35l7.589 7.588.12.11a1.663 1.663 0 0 0 1.69.25c.202-.083.384-.206.538-.36l7.59-7.588A1.663 1.663 0 0 0 21.25 12ZM10 12c0-.215-.01-.461-.024-.72a10.304 10.304 0 0 0-.078-.937l-.05.027c-.117.065-.251.146-.423.25v.001a8.2 8.2 0 0 0-.45.291 9.218 9.218 0 0 0-.477.366l-.017.014c-.357.29-.546.448-.66.58-.082.095-.07.114-.07.128 0 .014-.011.033.07.127.057.067.133.14.24.232l.42.35.003.001c.175.144.345.275.493.38.134.092.286.19.45.29.17.104.303.185.42.25.017.01.034.018.05.026.033-.2.053-.484.08-.936.014-.259.024-.506.024-.72Zm5.75 0c0-.215-.01-.461-.024-.72a10.296 10.296 0 0 0-.078-.937l-.05.027c-.117.065-.251.146-.423.25v.001a8.2 8.2 0 0 0-.45.291 9.183 9.183 0 0 0-.477.366l-.016.013c-.357.29-.547.45-.661.582-.082.095-.07.114-.07.127 0 .013-.012.032.07.127.057.067.133.14.24.232l.42.35.003.001c.175.144.345.275.493.38.134.092.286.19.45.29.17.104.303.185.42.25.017.01.034.018.05.026.033-.2.053-.484.08-.936a13.3 13.3 0 0 0 .024-.72Zm-4.25 0c0 .254-.01.532-.026.806v.002c-.026.45-.049.865-.112 1.19-.066.338-.201.73-.569 1.007-.18.136-.393.223-.631.241a1.42 1.42 0 0 1-.587-.09c-.294-.105-.623-.308-.928-.494h-.001c-.185-.113-.365-.23-.53-.344l-.001-.001a10.012 10.012 0 0 1-.583-.448c-.314-.255-.628-.507-.849-.764-.254-.296-.432-.649-.433-1.105 0-.456.179-.81.433-1.105.216-.252.521-.498.828-.747l.022-.019.285-.226c.096-.074.194-.146.293-.216l.007-.005c.173-.12.35-.236.53-.345.306-.185.634-.389.927-.494a1.42 1.42 0 0 1 .587-.089c.237.018.449.105.628.24.37.276.506.67.572 1.008.031.163.053.348.07.548l.042.643c.015.274.027.553.027.807Zm5.75 0c0 .254-.01.532-.026.806v.002c-.026.45-.049.865-.112 1.19-.066.338-.201.73-.568 1.007a1.192 1.192 0 0 1-.632.241 1.42 1.42 0 0 1-.587-.09c-.294-.105-.623-.308-.928-.494h-.001a10.27 10.27 0 0 1-.53-.344l-.001-.001a10.026 10.026 0 0 1-.583-.448c-.314-.255-.628-.507-.849-.764-.254-.296-.432-.649-.432-1.105 0-.456.178-.809.432-1.104.22-.255.529-.506.84-.759l.01-.008.285-.226c.096-.074.194-.146.293-.216l.007-.005c.173-.12.35-.236.53-.345.306-.185.633-.389.927-.494a1.42 1.42 0 0 1 .587-.089c.237.018.449.105.629.24.37.276.505.67.57 1.008.032.163.054.348.071.548l.042.643c.015.274.026.553.026.807Zm5.5 0a3.16 3.16 0 0 1-.926 2.236l-7.588 7.587a3.16 3.16 0 0 1-4.472 0l-7.587-7.587a3.16 3.16 0 0 1-.107-4.359l.107-.113 7.587-7.587.113-.107a3.16 3.16 0 0 1 4.359.107l7.587 7.587A3.166 3.166 0 0 1 22.75 12Z"/>
</svg>
