<svg xmlns="http://www.w3.org/2000/svg" fill="none" viewBox="0 0 24 24">
  <path fill="currentColor" d="M12 2.25A9.75 9.75 0 0 0 2.25 12 9.75 9.75 0 0 0 12 21.75 9.75 9.75 0 0 0 21.75 12 9.75 9.75 0 0 0 12 2.25Zm-1.207 6.744c.368.277.504.67.569 1.008.061.315.084.712.109 1.145l.002.046c.016.276.027.553.027.807s-.01.531-.027.807l-.002.046c-.025.433-.048.83-.109 1.145-.065.337-.2.731-.57 1.008-.18.136-.392.223-.63.24a1.4 1.4 0 0 1-.588-.09c-.278-.1-.587-.287-.879-.465l-.048-.03a9.963 9.963 0 0 1-.532-.344 9.99 9.99 0 0 1-.581-.445l-.04-.033c-.301-.245-.599-.488-.811-.735-.254-.295-.433-.648-.433-1.104 0-.456.18-.809.433-1.104.212-.247.51-.49.81-.735l.04-.033c.194-.158.393-.312.582-.445.174-.12.351-.236.532-.345l.048-.03c.292-.177.6-.365.88-.465a1.4 1.4 0 0 1 .586-.09c.239.018.451.105.632.24m5.118-.24c.239.017.451.104.632.24.368.277.504.67.569 1.008.061.315.084.712.109 1.145l.003.046c.015.276.026.553.026.807s-.01.531-.026.807l-.003.046c-.025.433-.048.83-.109 1.145-.065.337-.2.731-.57 1.008-.18.136-.392.223-.63.24-.2.013-.4-.018-.588-.09-.278-.1-.587-.287-.879-.465l-.048-.03a9.988 9.988 0 0 1-.532-.344 10.01 10.01 0 0 1-.581-.445l-.04-.033c-.301-.245-.599-.488-.811-.735C12.179 12.81 12 12.456 12 12c0-.456.18-.809.433-1.104.212-.247.51-.49.81-.735l.04-.033c.194-.158.393-.312.582-.445.174-.12.351-.236.532-.345l.048-.03c.292-.177.6-.365.88-.465a1.4 1.4 0 0 1 .586-.09Z"/>
</svg>
