<svg xmlns="http://www.w3.org/2000/svg" fill="none" viewBox="0 0 24 24">
  <path fill="currentColor" d="M12 1.25a3.16 3.16 0 0 0-2.235.926L2.177 9.765a3.16 3.16 0 0 0 0 4.47l7.588 7.588a3.16 3.16 0 0 0 4.47 0l7.588-7.588a3.16 3.16 0 0 0 0-4.47l-7.588-7.588A3.16 3.16 0 0 0 12 1.25Zm-1.207 7.744c.368.277.504.67.57 1.008.06.315.083.712.108 1.145l.002.046c.016.276.027.553.027.807s-.01.531-.027.807l-.002.046c-.025.433-.048.83-.109 1.145-.065.337-.2.731-.57 1.008-.18.136-.392.223-.63.24a1.4 1.4 0 0 1-.588-.09c-.278-.1-.587-.287-.879-.465l-.048-.03a9.963 9.963 0 0 1-.532-.344 9.99 9.99 0 0 1-.58-.445l-.04-.033c-.302-.245-.6-.488-.812-.735-.254-.295-.433-.648-.433-1.104 0-.456.18-.809.433-1.104.212-.247.51-.49.81-.735l.04-.033c.194-.158.393-.312.582-.445a10 10 0 0 1 .532-.345l.048-.03c.292-.177.6-.365.88-.465a1.4 1.4 0 0 1 .586-.09c.24.018.451.105.632.24m5.118-.24c.24.017.451.104.632.24.368.277.504.67.57 1.008.06.315.083.712.108 1.145l.003.046c.015.276.026.553.026.807s-.01.531-.026.807l-.003.046c-.025.433-.048.83-.109 1.145-.065.337-.2.731-.57 1.008-.18.136-.392.223-.63.24-.2.013-.4-.018-.588-.09-.278-.1-.587-.287-.879-.465l-.048-.03a9.907 9.907 0 0 1-.532-.344 9.679 9.679 0 0 1-.58-.445l-.04-.033c-.302-.245-.6-.488-.812-.735C12.18 12.81 12 12.456 12 12c0-.456.18-.809.433-1.104.212-.247.51-.49.81-.735l.04-.033c.194-.158.393-.312.582-.445.174-.12.351-.236.532-.345l.048-.03c.292-.177.6-.365.88-.465a1.4 1.4 0 0 1 .586-.09Z"/>
</svg>
