<svg xmlns="http://www.w3.org/2000/svg" fill="none" viewBox="0 0 24 24">
  <path fill="currentColor" d="M11.25 12c0-.45-.02-.957-.049-1.484l-.08-1.229a8.102 8.102 0 0 0-.105-.854c-.089-.456-.2-.585-.282-.646-.044-.033-.065-.036-.079-.037a.655.655 0 0 0-.246.054c-.321.115-.747.37-1.446.795H8.96c-.32.194-.633.398-.94.61a17.69 17.69 0 0 0-.499.367L6.99 10c-.692.565-1.133.929-1.416 1.258-.25.291-.323.495-.323.742s.073.45.323.742c.283.329.723.693 1.415 1.258.363.295.717.568 1.035.792.28.196.6.402.939.608.7.426 1.126.68 1.447.796a.644.644 0 0 0 .246.053c.015-.001.035-.002.08-.036.082-.062.192-.192.28-.646.09-.467.13-1.116.186-2.083.03-.527.049-1.034.049-1.484Zm1.504.09c.017.21.1.397.32.652.281.329.722.693 1.414 1.258.363.295.718.568 1.035.792.28.196.6.402.939.608.7.426 1.126.68 1.447.796a.644.644 0 0 0 .246.053c.015-.001.035-.002.08-.036.082-.062.192-.192.28-.646.09-.467.13-1.116.186-2.083.03-.527.049-1.034.049-1.484 0-.45-.02-.957-.049-1.484l-.08-1.229a8.102 8.102 0 0 0-.105-.854c-.089-.456-.2-.585-.282-.646-.044-.033-.065-.036-.079-.037a.655.655 0 0 0-.246.054c-.321.115-.747.37-1.446.795h-.002c-.32.194-.633.398-.94.61-.352.25-.694.514-1.028.789L14.49 10c-.693.565-1.134.929-1.417 1.258-.219.255-.302.443-.32.651L12.75 12l.004.09ZM20.25 12c0 .49-.02 1.028-.05 1.57-.055.923-.098 1.693-.213 2.282-.116.602-.333 1.17-.851 1.56l-.001.001a1.631 1.631 0 0 1-.868.332c-.309.023-.6-.042-.865-.137-.499-.179-1.079-.536-1.72-.926-.355-.216-.707-.44-1.022-.662a20.1 20.1 0 0 1-1.118-.856h-.001c-.323-.265-.625-.51-.896-.747-.037.555-.08 1.036-.158 1.435-.116.602-.333 1.17-.851 1.56l-.001.001a1.631 1.631 0 0 1-.868.332c-.309.023-.6-.042-.865-.137-.499-.179-1.078-.536-1.72-.926-.355-.216-.707-.44-1.022-.662a20.1 20.1 0 0 1-1.118-.856h-.001c-.65-.532-1.217-.99-1.606-1.444-.422-.491-.685-1.03-.685-1.72s.263-1.229.685-1.72c.389-.453.956-.911 1.606-1.442l.568-.451c.189-.145.374-.282.554-.408h.001c.167-.117.336-.23.506-.34l.516-.324c.64-.389 1.218-.744 1.716-.923a2.09 2.09 0 0 1 .865-.137c.282.02.539.113.77.264l.098.068.181.154c.391.378.57.88.672 1.406.078.4.12.88.158 1.436.27-.236.57-.48.893-.743a19.7 19.7 0 0 1 1.12-.858l.005-.004c.167-.115.336-.229.506-.34l.515-.323c.64-.389 1.219-.744 1.717-.923a2.09 2.09 0 0 1 .865-.137c.282.02.539.113.77.264l.098.068.181.154c.391.378.57.88.672 1.406.086.443.131.986.171 1.619l.04.663c.03.542.051 1.082.051 1.571Z"/>
</svg>
