<svg xmlns="http://www.w3.org/2000/svg" fill="none" viewBox="0 0 24 24">
  <path fill="currentColor" d="M12 1.75c.463 0 .916.124 1.316.355h.001l6.613 3.8.006.003a2.661 2.661 0 0 1 1.314 2.291v7.6l-.005.173a2.652 2.652 0 0 1-1.311 2.123l-.004.001-6.613 3.8a2.628 2.628 0 0 1-2.634 0l-6.613-3.8-.006-.003a2.659 2.659 0 0 1-1.314-2.29V8.2a2.65 2.65 0 0 1 1.316-2.293l.004-.002 6.613-3.8c.4-.233.854-.354 1.317-.354Zm0 1.5c-.2 0-.395.053-.567.153l-.003.002-6.61 3.797h.001a1.151 1.151 0 0 0-.571.997V15.8l.01.15a1.16 1.16 0 0 0 .563.849l6.607 3.797.003.001a1.13 1.13 0 0 0 1.134 0l.003-.002 6.609-3.797.125-.084a1.15 1.15 0 0 0 .446-.912V8.2a1.16 1.16 0 0 0-.573-1L12.57 3.406l-.003-.002A1.13 1.13 0 0 0 12 3.251ZM10 12c0-.216-.009-.462-.023-.72l-.04-.605a4.147 4.147 0 0 0-.04-.333c-.015.01-.032.018-.05.028-.116.065-.25.146-.422.25h-.001a8.25 8.25 0 0 0-.45.293 9.26 9.26 0 0 0-.49.376l-.005.002h.001c-.356.29-.545.448-.659.58-.081.095-.071.115-.071.129 0 .013-.011.032.07.127.057.066.133.139.24.231l.421.35.003.003c.174.143.343.273.49.377a14.03 14.03 0 0 0 .872.542l.051.026c.033-.2.053-.484.08-.936.014-.259.023-.506.023-.72Zm5.75 0c0-.216-.009-.462-.023-.72l-.04-.605a4.156 4.156 0 0 0-.04-.333c-.015.01-.032.018-.05.028-.117.065-.25.146-.422.25h-.001a8.25 8.25 0 0 0-.45.293c-.167.12-.33.245-.49.376l-.003.003-.42.35a2.347 2.347 0 0 0-.24.23c-.081.096-.071.115-.071.128 0 .013-.01.031.071.127.057.066.133.139.24.231l.42.35.003.003c.174.143.343.273.49.377a13.95 13.95 0 0 0 .872.542l.052.026c.032-.2.052-.484.079-.936.014-.259.023-.506.023-.72Zm-4.25 0c0 .253-.011.532-.026.806-.027.451-.05.866-.113 1.192-.065.337-.2.73-.568 1.007-.18.136-.393.223-.632.24a1.42 1.42 0 0 1-.587-.088c-.294-.105-.622-.31-.928-.495a10.3 10.3 0 0 1-.529-.344h-.002a9.93 9.93 0 0 1-.58-.447c-.315-.256-.63-.508-.851-.766-.255-.296-.434-.649-.434-1.105 0-.456.18-.81.434-1.106.22-.256.53-.506.842-.76a.304.304 0 0 0 .006-.004l.285-.227c.097-.074.194-.146.293-.217l.007-.005a9.26 9.26 0 0 1 .263-.176l.268-.168c.306-.185.634-.388.927-.493a1.42 1.42 0 0 1 .587-.09c.237.018.448.104.628.239.37.276.507.671.572 1.009.063.325.085.74.112 1.19v.002c.015.274.026.551.026.806Zm5.75 0c0 .253-.011.532-.026.806-.027.451-.05.866-.113 1.192-.065.337-.2.73-.568 1.007-.18.136-.393.223-.632.24a1.42 1.42 0 0 1-.587-.088c-.294-.105-.622-.31-.928-.495-.184-.113-.365-.23-.529-.344h-.002a9.93 9.93 0 0 1-.58-.447c-.316-.256-.63-.509-.851-.767C12.18 12.81 12 12.456 12 12c0-.456.18-.81.434-1.105.219-.255.528-.505.84-.758l.008-.007.285-.227c.097-.074.194-.146.293-.217l.007-.005a9.26 9.26 0 0 1 .263-.176l.268-.168c.306-.185.634-.388.927-.493.161-.058.363-.107.587-.09.237.018.448.104.628.239.37.276.507.671.572 1.009.063.325.085.74.112 1.19v.002c.015.274.026.551.026.806Z"/>
</svg>
