<svg xmlns="http://www.w3.org/2000/svg" fill="none" viewBox="0 0 24 24">
  <path fill="currentColor" d="M13.435 2.075a3.33 3.33 0 0 0-2.87 0c-.394.19-.755.497-1.26.928l-.079.066a2.56 2.56 0 0 1-1.58.655l-.102.008c-.662.053-1.135.09-1.547.236a3.33 3.33 0 0 0-2.03 2.03c-.145.411-.182.884-.235 1.546l-.008.102a2.56 2.56 0 0 1-.655 1.58l-.066.078c-.43.506-.74.867-.928 1.261a3.33 3.33 0 0 0 0 2.87c.19.394.497.755.928 1.26l.066.08c.41.48.604.938.655 1.58l.008.101c.053.662.09 1.135.236 1.547a3.33 3.33 0 0 0 2.03 2.03c.411.145.884.182 1.546.235l.102.008c.63.05 1.09.238 1.58.655l.078.066c.506.431.867.74 1.261.928a3.33 3.33 0 0 0 2.87 0c.394-.189.755-.497 1.26-.928l.08-.066c.48-.41.938-.604 1.58-.655l.101-.008c.662-.053 1.135-.09 1.547-.236a3.331 3.331 0 0 0 2.03-2.029c.145-.412.182-.885.235-1.547l.008-.102c.05-.629.238-1.09.655-1.58l.066-.079c.431-.505.74-.866.928-1.26a3.33 3.33 0 0 0 0-2.87c-.189-.394-.497-.755-.928-1.26l-.066-.079a2.56 2.56 0 0 1-.655-1.58l-.008-.102c-.053-.662-.09-1.135-.236-1.547a3.33 3.33 0 0 0-2.029-2.03c-.412-.145-.885-.182-1.547-.235l-.102-.008a2.56 2.56 0 0 1-1.58-.655l-.079-.066c-.505-.43-.866-.74-1.26-.928Zm-2.642 6.92c.368.276.504.67.57 1.007.06.315.083.712.108 1.145l.002.046c.016.276.027.553.027.807s-.01.531-.027.807l-.002.046c-.025.433-.048.83-.109 1.145-.065.337-.2.731-.57 1.008-.18.136-.392.223-.63.24-.2.012-.4-.018-.588-.09-.278-.1-.587-.287-.879-.465l-.048-.03a10.71 10.71 0 0 1-.532-.344 9.679 9.679 0 0 1-.58-.445l-.04-.033c-.302-.245-.6-.488-.812-.735-.254-.295-.433-.648-.433-1.104 0-.456.18-.809.433-1.104.212-.247.51-.49.81-.735l.04-.033c.194-.158.393-.312.582-.445.174-.12.351-.236.532-.345l.048-.03c.292-.177.6-.365.88-.465a1.4 1.4 0 0 1 .586-.09c.24.018.451.105.632.24m5.118-.24c.24.017.451.104.632.24.368.277.504.67.57 1.008.06.315.083.712.108 1.145l.003.046c.015.276.026.553.026.807s-.01.531-.026.807l-.003.046c-.025.433-.048.83-.109 1.145-.065.337-.2.731-.57 1.008-.18.136-.392.223-.63.24-.2.013-.4-.018-.588-.09-.278-.1-.587-.287-.879-.465l-.048-.03a10.71 10.71 0 0 1-.532-.344 9.679 9.679 0 0 1-.58-.445l-.04-.033c-.302-.245-.6-.488-.812-.735C12.18 12.81 12 12.456 12 12c0-.456.18-.809.433-1.104.212-.247.51-.49.81-.735l.04-.033c.194-.158.393-.312.582-.445.174-.12.351-.236.532-.345l.048-.03c.292-.177.6-.365.88-.465a1.4 1.4 0 0 1 .586-.09Z"/>
</svg>
