<svg xmlns="http://www.w3.org/2000/svg" fill="none" viewBox="0 0 24 24">
  <path fill="currentColor" d="M20.25 12a8.25 8.25 0 1 0-16.5-.001 8.25 8.25 0 0 0 16.5.001ZM10 12c0-.215-.009-.461-.023-.72l-.04-.605a4.14 4.14 0 0 0-.04-.332l-.05.027c-.116.065-.25.146-.422.25l-.001.001c-.153.092-.303.19-.45.291-.167.12-.33.246-.49.377l-.005.002.001.001c-.356.29-.545.447-.659.58-.081.095-.071.114-.071.128 0 .014-.011.032.07.127.115.133.304.29.661.581l.003.003c.175.144.345.274.494.378a14.258 14.258 0 0 0 .87.541c.016.01.034.018.05.026.032-.2.052-.484.079-.935.014-.26.023-.507.023-.721Zm5.75 0c0-.215-.009-.461-.023-.72l-.04-.605a4.147 4.147 0 0 0-.04-.332l-.05.027c-.117.065-.25.146-.422.25l-.001.001c-.153.092-.303.19-.45.291-.167.12-.33.246-.49.377l-.003.003c-.356.29-.546.448-.66.581-.082.095-.071.114-.071.127 0 .013-.01.032.071.127.114.133.304.29.66.581l.003.003c.175.144.345.274.493.378a14.165 14.165 0 0 0 .87.541c.017.01.035.018.05.026.033-.2.053-.484.08-.935.014-.26.023-.507.023-.721Zm-4.25 0c0 .253-.011.531-.026.806v.002c-.027.45-.05.865-.113 1.19-.065.338-.2.73-.568 1.007-.18.136-.393.223-.632.241a1.422 1.422 0 0 1-.587-.089c-.294-.105-.622-.31-.928-.495a10.27 10.27 0 0 1-.529-.344l-.002-.002a9.944 9.944 0 0 1-.58-.445c-.315-.256-.63-.508-.851-.766-.255-.295-.434-.649-.434-1.105 0-.456.18-.81.434-1.105.217-.253.523-.5.83-.75l.018-.016.285-.226c.097-.074.194-.146.293-.216l.007-.005c.087-.06.174-.12.263-.177l.268-.168c.306-.185.634-.389.927-.494a1.42 1.42 0 0 1 .587-.09c.237.019.448.106.628.24.37.277.507.671.572 1.009.063.325.085.74.112 1.19v.002c.015.274.026.552.026.806Zm5.75 0c0 .253-.011.531-.026.806v.002c-.027.45-.05.865-.113 1.19-.065.338-.2.73-.568 1.007-.18.136-.393.223-.632.241a1.422 1.422 0 0 1-.587-.089c-.294-.105-.622-.31-.928-.495a10.274 10.274 0 0 1-.529-.344l-.002-.002a9.943 9.943 0 0 1-.58-.445c-.316-.256-.63-.509-.851-.767C12.18 12.81 12 12.457 12 12c0-.456.18-.809.434-1.104.219-.256.528-.507.84-.76l.008-.007.285-.226c.097-.074.194-.146.293-.216l.007-.005c.087-.06.174-.12.263-.177l.268-.168c.306-.185.634-.389.927-.494a1.42 1.42 0 0 1 .587-.09c.237.019.448.106.628.24.37.277.507.671.572 1.009.063.325.085.74.112 1.19v.002c.015.274.026.552.026.806Zm4.5 0a9.75 9.75 0 1 1-19.502 0 9.75 9.75 0 0 1 19.502 0Z"/>
</svg>
