<svg xmlns="http://www.w3.org/2000/svg" fill="none" viewBox="0 0 24 24">
  <path fill="currentColor" d="M12 2.25a1.77 1.77 0 0 1 1.42.714l5.96 7.925a1.854 1.854 0 0 1 0 2.222l-5.956 7.918a1.773 1.773 0 0 1-2.222.53 1.771 1.771 0 0 1-.623-.525L4.62 13.111a1.852 1.852 0 0 1 0-2.221l5.96-7.926A1.77 1.77 0 0 1 12 2.25ZM5.75 12a.35.35 0 0 0 .07.21l5.958 7.924.004.006.044.046a.27.27 0 0 0 .296.035.272.272 0 0 0 .096-.081l.004-.006 5.96-7.925.03-.048a.355.355 0 0 0-.03-.37l-5.96-7.926-.004-.005a.271.271 0 0 0-.436 0l-.004.005-5.96 7.924A.351.351 0 0 0 5.75 12Z"/>
</svg>
