<svg xmlns="http://www.w3.org/2000/svg" fill="none" viewBox="0 0 24 24">
  <path fill="currentColor" d="M17.25 9a5.25 5.25 0 0 0-10.5 0l.007.26A5.249 5.249 0 0 0 17.25 9Zm-1.803 5.802a6.749 6.749 0 0 1-6.895 0l-.787 5.07.022.023c.084.075.234.165.438.237.2.07.411.111.591.119a.72.72 0 0 0 .272-.024l2.106-1.147a1.68 1.68 0 0 1 1.612 0l2.106 1.148c-.001-.002.078.031.272.023.18-.008.391-.05.59-.12.204-.073.354-.16.439-.236.01-.008.015-.017.021-.024l-.787-5.07ZM18.75 9c0 1.777-.701 3.48-1.95 4.743l.941 6.053a.754.754 0 0 1 .009.115c0 .496-.274.868-.541 1.106a2.85 2.85 0 0 1-.932.528c-.329.117-.688.19-1.029.205a2.162 2.162 0 0 1-.925-.144l-.129-.061-2.106-1.148h-.001a.18.18 0 0 0-.087-.022.18.18 0 0 0-.087.021v.002l-2.107 1.147c-.337.183-.73.219-1.054.205-.34-.015-.7-.088-1.028-.205a2.85 2.85 0 0 1-.933-.527c-.267-.238-.541-.61-.541-1.106 0-.038.003-.077.009-.115l.94-6.054A6.75 6.75 0 1 1 18.75 9Z"/>
</svg>
