<svg xmlns="http://www.w3.org/2000/svg" fill="none" viewBox="0 0 24 24">
  <path fill="currentColor" d="M6.476 15.506c.457.014.896.174 1.254.453l.148.128.014.013c.799.79.785 2.053.103 2.864-.295.353-.698.608-1.077.794a7.26 7.26 0 0 1-1.176.44 11.116 11.116 0 0 1-1.27.282l-.087.013-.024.004-.007.001H4.35a.75.75 0 0 1-.843-.842v-.004l.001-.008.004-.024.013-.086a11.195 11.195 0 0 1 .282-1.274c.106-.373.25-.79.438-1.178.185-.38.44-.784.791-1.08l.004-.003c.403-.334.913-.51 1.436-.493ZM19.75 3.5a.75.75 0 0 1 .75.75c0 3.201-1.088 6.682-3.612 8.92-.06 1.016-.372 2.033-.821 2.926-.5.994-1.196 1.886-1.974 2.477-.761.578-1.745.964-2.717.602-.92-.343-1.54-1.25-1.9-2.538l-2.113-2.114c-1.288-.36-2.196-.979-2.539-1.899-.362-.972.024-1.956.602-2.717.591-.778 1.484-1.473 2.478-1.973.893-.45 1.91-.762 2.924-.823C13.067 4.587 16.55 3.5 19.75 3.5ZM6.43 17.005a.644.644 0 0 0-.43.148c-.124.105-.265.298-.406.586-.138.283-.252.61-.344.933l-.03.111c.037-.01.074-.017.11-.027a5.79 5.79 0 0 0 .93-.345c.29-.142.483-.286.587-.41L6.848 18c.215-.256.19-.626-.007-.828a.644.644 0 0 0-.412-.167Zm8.679-2.506a27.353 27.353 0 0 1-2.54 1.459c-.6.305-1.125.548-1.504.716.278.742.61 1.011.836 1.096.275.102.71.046 1.286-.391.558-.424 1.119-1.12 1.54-1.957.15-.299.278-.61.382-.923Zm3.865-9.473c-2.764.168-5.513 1.234-7.21 3.3-.958 1.168-1.788 2.613-2.384 3.785a30.86 30.86 0 0 0-.69 1.451l-.051.115 1.684 1.684.116-.05c.36-.16.868-.394 1.45-.69 1.173-.596 2.618-1.426 3.786-2.385l.209-.177c1.93-1.708 2.928-4.364 3.09-7.033ZM9.5 8.892a6.84 6.84 0 0 0-.922.382c-.836.421-1.532.982-1.957 1.54-.437.576-.493 1.01-.39 1.286.084.225.352.557 1.094.835.169-.378.412-.903.717-1.503A27.35 27.35 0 0 1 9.5 8.892Zm5.127-.672a.75.75 0 0 1 1.06 1.06l-.706.707a.75.75 0 0 1-1.06-1.06l.706-.707Z"/>
</svg>
