<svg xmlns="http://www.w3.org/2000/svg" fill="none" viewBox="0 0 24 24">
  <path fill="currentColor" d="M10.83 7.11c2.238-2.523 5.72-3.61 8.92-3.61a.75.75 0 0 1 .75.75c0 3.2-1.087 6.682-3.61 8.92-.061 1.016-.375 2.033-.824 2.926-.5.994-1.195 1.887-1.973 2.478-.761.578-1.745.963-2.717.601-.92-.343-1.54-1.25-1.9-2.538l-2.113-2.114c-1.288-.359-2.195-.979-2.538-1.899-.362-.972.023-1.956.601-2.717.591-.778 1.484-1.473 2.478-1.973.893-.449 1.91-.763 2.925-.823M9.5 8.892a7 7 0 0 0-.922.383c-.836.421-1.533.982-1.957 1.54-.437.576-.493 1.01-.39 1.286.083.226.352.557 1.094.836.169-.379.412-.903.717-1.504A27.24 27.24 0 0 1 9.5 8.892Zm1.564 7.785c.278.742.61 1.01.836 1.095.275.102.71.046 1.286-.39.558-.425 1.119-1.122 1.54-1.958.151-.3.279-.608.383-.922a27.008 27.008 0 0 1-2.54 1.458c-.602.305-1.126.548-1.505.717Zm-6.029-.672a2.144 2.144 0 0 1 2.848.088l.009.01c.799.79.786 2.054.103 2.865-.295.352-.698.606-1.077.792-.387.19-.804.333-1.175.44-.446.127-.9.225-1.358.295l-.032.004H4.35a.75.75 0 0 1-.843-.842v-.003l.001-.008.004-.024a10.922 10.922 0 0 1 .294-1.36c.112-.405.26-.799.439-1.178.185-.38.439-.782.79-1.079ZM15.687 8.22a.75.75 0 0 0-1.06 0l-.707.707a.75.75 0 0 0 1.06 1.06l.707-.707a.75.75 0 0 0 0-1.06Z"/>
</svg>
