<svg xmlns="http://www.w3.org/2000/svg" fill="none" viewBox="0 0 24 24">
  <path fill="currentColor" d="M20.25 14.5a.25.25 0 0 0-.25-.25H4a.25.25 0 0 0-.25.25v3l.005.049A.25.25 0 0 0 4 17.75h16a.25.25 0 0 0 .25-.25v-3Zm0-8a.25.25 0 0 0-.25-.25H4a.25.25 0 0 0-.25.25v3l.005.049A.25.25 0 0 0 4 9.75h16a.25.25 0 0 0 .25-.25v-3Zm1.5 11A1.75 1.75 0 0 1 20 19.25H4a1.75 1.75 0 0 1-1.75-1.75v-3A1.75 1.75 0 0 1 4 12.75h16a1.75 1.75 0 0 1 1.75 1.75v3Zm0-8A1.75 1.75 0 0 1 20 11.25H4A1.75 1.75 0 0 1 2.25 9.5v-3A1.75 1.75 0 0 1 4 4.75h16a1.75 1.75 0 0 1 1.75 1.75v3Z"/>
</svg>
