<svg xmlns="http://www.w3.org/2000/svg" fill="none" viewBox="0 0 24 24">
  <path fill="currentColor" d="M14.909 2.393a2.908 2.908 0 0 1 1.79 0h.003c.376.122.692.338 1.002.601.303.257.647.602 1.063 1.019l1.22 1.218c.418.418.763.763 1.02 1.067.23.271.424.546.551.863l.05.138.001.002a2.91 2.91 0 0 1 0 1.792l-.001.002c-.123.376-.338.691-.6 1-.258.304-.603.65-1.02 1.067l-8.826 8.826c-.418.418-.763.763-1.067 1.02-.31.264-.626.479-1.002.601h-.002a2.907 2.907 0 0 1-1.79 0h-.003c-.376-.122-.691-.338-1.002-.601-.303-.258-.648-.603-1.066-1.02l-1.22-1.22c-.415-.416-.76-.76-1.017-1.063-.263-.31-.478-.625-.6-1.003a2.9 2.9 0 0 1 0-1.794c.122-.376.337-.692.6-1.002.257-.303.602-.648 1.02-1.066l8.826-8.826c.417-.418.763-.764 1.066-1.02.31-.264.625-.479 1-.601h.004Zm1.328 1.425a1.41 1.41 0 0 0-.866 0v.001c-.113.038-.256.116-.495.319-.246.208-.542.502-.977.936l-.84.84 1.754 1.752.052.057a.75.75 0 0 1-1.055 1.055l-.058-.051L12 6.974l-1.983 1.983 1.753 1.752.052.057a.75.75 0 0 1-1.055 1.055l-.057-.051-1.753-1.752-1.982 1.981 1.752 1.754.052.056a.75.75 0 0 1-1.056 1.055l-.056-.05-1.753-1.754-.84.84c-.434.435-.728.73-.937.976-.203.24-.28.383-.318.497a1.401 1.401 0 0 0 0 .865c.037.115.116.258.318.496.209.246.502.54.935.974l1.22 1.219c.435.434.73.729.976.937.24.203.383.281.497.319.282.09.582.09.865 0l.091-.037c.1-.047.225-.13.405-.282.246-.208.541-.502.976-.936l8.825-8.827c.435-.434.73-.73.938-.975.203-.24.281-.383.318-.497.091-.282.09-.584 0-.866-.038-.114-.117-.258-.318-.495-.209-.246-.503-.541-.937-.975l-1.22-1.22c-.434-.434-.729-.728-.974-.936-.239-.203-.382-.281-.496-.319Z"/>
</svg>
