<svg xmlns="http://www.w3.org/2000/svg" fill="none" viewBox="0 0 24 24">
  <path fill="currentColor" d="M17.5 2.75a.75.75 0 0 1 0 1.5h-4.463c.075.076.148.154.218.235.73.846 1.15 1.904 1.282 2.987H17.5a.75.75 0 0 1 0 1.5h-2.963c-.132 1.083-.553 2.14-1.282 2.986-.91 1.056-2.266 1.736-4.005 1.736h-.898l6.463 6.268.051.056a.75.75 0 0 1-1.096 1.02l-7.792-7.556a.75.75 0 0 1 .522-1.288h2.75c1.316 0 2.252-.5 2.87-1.216.475-.55.782-1.254.904-2.006H6.5a.75.75 0 0 1 0-1.5h6.524c-.122-.753-.43-1.456-.905-2.006-.617-.715-1.553-1.216-2.869-1.216H6.5a.75.75 0 0 1 0-1.5h11Z"/>
</svg>
