<svg xmlns="http://www.w3.org/2000/svg" fill="none" viewBox="0 0 24 24">
  <path fill="currentColor" d="M12 1.75c.463 0 .916.124 1.316.355h.001l6.613 3.8.006.003a2.661 2.661 0 0 1 1.314 2.291v7.6l-.005.173a2.652 2.652 0 0 1-1.311 2.123l-.004.001-6.613 3.8a2.628 2.628 0 0 1-2.634 0l-6.613-3.8-.006-.003a2.659 2.659 0 0 1-1.314-2.29V8.2a2.65 2.65 0 0 1 1.316-2.293l.004-.002 6.613-3.8c.4-.233.854-.354 1.317-.354Zm0 1.5c-.2 0-.395.053-.567.153l-.003.002-6.61 3.797h.001a1.151 1.151 0 0 0-.571.997V15.8l.01.15a1.16 1.16 0 0 0 .563.849l6.607 3.797.003.001a1.13 1.13 0 0 0 1.134 0l.003-.002 6.609-3.797.125-.084a1.15 1.15 0 0 0 .446-.912V8.2a1.16 1.16 0 0 0-.573-1L12.57 3.406l-.003-.002A1.13 1.13 0 0 0 12 3.251Zm3 3.5a.75.75 0 0 1 0 1.5h-1.796c.239.393.394.83.476 1.278H15l.077.004a.75.75 0 0 1 0 1.492l-.077.004h-1.32a3.645 3.645 0 0 1-.72 1.628c-.512.64-1.265 1.075-2.215 1.14l3.047 3.185a.75.75 0 0 1-1.028 1.09l-.056-.053-4.25-4.444A.75.75 0 0 1 9 12.306h1.5c.6 0 1.012-.24 1.29-.586a2.05 2.05 0 0 0 .352-.692H9a.75.75 0 0 1 0-1.5h3.142a2.05 2.05 0 0 0-.352-.691c-.277-.347-.69-.587-1.29-.587H9a.75.75 0 0 1 0-1.5h6Z"/>
</svg>
