<svg xmlns="http://www.w3.org/2000/svg" fill="none" viewBox="0 0 24 24">
  <path fill="currentColor" d="M21.25 12a1.66 1.66 0 0 0-.377-1.053l-.11-.122-7.589-7.588a1.66 1.66 0 0 0-2.348 0l-7.588 7.588a1.664 1.664 0 0 0-.001 2.35l7.589 7.588.12.11a1.663 1.663 0 0 0 1.69.25c.202-.083.384-.206.538-.36l7.59-7.588A1.663 1.663 0 0 0 21.25 12ZM15 6.75a.75.75 0 0 1 0 1.5h-1.794c.238.393.393.83.474 1.278H15l.077.003a.75.75 0 0 1 0 1.493l-.076.004h-1.32a3.648 3.648 0 0 1-.72 1.628c-.512.64-1.265 1.076-2.214 1.14l3.046 3.186.05.057a.75.75 0 0 1-1.079 1.032l-.055-.052-4.25-4.444A.75.75 0 0 1 9 12.305h1.5c.601 0 1.012-.24 1.29-.586a2.05 2.05 0 0 0 .352-.691H9a.75.75 0 0 1 0-1.5h3.142a2.048 2.048 0 0 0-.352-.69 1.524 1.524 0 0 0-1.074-.577l-.215-.01H9a.75.75 0 0 1 0-1.5h6ZM22.75 12a3.16 3.16 0 0 1-.926 2.236l-7.588 7.587a3.16 3.16 0 0 1-4.472 0l-7.587-7.587a3.16 3.16 0 0 1-.107-4.359l.107-.113 7.587-7.587.113-.107a3.16 3.16 0 0 1 4.359.107l7.587 7.587A3.166 3.166 0 0 1 22.75 12Z"/>
</svg>
