<svg xmlns="http://www.w3.org/2000/svg" fill="none" viewBox="0 0 24 24">
  <path fill="currentColor" d="M20.25 12a8.25 8.25 0 1 0-16.5-.001 8.25 8.25 0 0 0 16.5.001ZM15 6.75a.75.75 0 0 1 0 1.5h-1.795c.239.393.393.831.475 1.278H15l.077.004a.75.75 0 0 1 0 1.492l-.077.004h-1.32a3.645 3.645 0 0 1-.72 1.628c-.512.641-1.265 1.076-2.215 1.14l3.047 3.185a.75.75 0 0 1-1.028 1.09l-.056-.052-4.25-4.445A.75.75 0 0 1 9 12.306h1.5c.6 0 1.012-.24 1.29-.586.155-.193.273-.43.352-.692H9a.75.75 0 0 1 0-1.5h3.142a2.05 2.05 0 0 0-.352-.691c-.277-.347-.69-.587-1.29-.587H9a.75.75 0 0 1 0-1.5h6ZM21.75 12a9.75 9.75 0 1 1-19.502 0 9.75 9.75 0 0 1 19.502 0Z"/>
</svg>
