<svg xmlns="http://www.w3.org/2000/svg" fill="none" viewBox="0 0 24 24">
  <path fill="currentColor" d="M10.79 1.49a3.2 3.2 0 0 0-1.025.686l-7.588 7.59a3.16 3.16 0 0 0 0 4.47l7.588 7.587a3.16 3.16 0 0 0 4.47 0l7.588-7.588a3.16 3.16 0 0 0 0-4.47l-7.588-7.588a3.16 3.16 0 0 0-3.445-.686m-2.54 6.01A.75.75 0 0 1 9 6.75h6a.75.75 0 0 1 0 1.5h-1.794c.238.392.395.83.476 1.277H15a.75.75 0 0 1 0 1.5h-1.318a3.65 3.65 0 0 1-.72 1.628 3.031 3.031 0 0 1-2.215 1.141l3.045 3.185a.75.75 0 0 1-1.084 1.036l-4.25-4.444A.75.75 0 0 1 9 12.306h1.5c.6 0 1.012-.24 1.29-.587.161-.205.28-.44.352-.69H9a.75.75 0 1 1 0-1.5h3.142a2.001 2.001 0 0 0-.352-.692c-.278-.347-.69-.587-1.29-.587H9a.75.75 0 0 1-.75-.75Z"/>
</svg>
