<svg xmlns="http://www.w3.org/2000/svg" fill="none" viewBox="0 0 24 24">
  <path fill="currentColor" d="M20.25 12a8.25 8.25 0 1 0-16.5-.001 8.25 8.25 0 0 0 16.5.001ZM12 14.25c1.204 0 2.325.375 3.262 1.016l.184.132.06.048a.75.75 0 0 1-.889 1.2l-.063-.044-.28-.19a4.247 4.247 0 0 0-4.828.19.75.75 0 0 1-.892-1.204A5.768 5.768 0 0 1 12 14.25ZM8.75 10.5V10a.75.75 0 0 1 1.5 0v.5a.75.75 0 0 1-1.5 0Zm5 0V10a.75.75 0 0 1 1.5 0v.5a.75.75 0 0 1-1.5 0Zm8 1.5a9.75 9.75 0 1 1-19.502 0 9.75 9.75 0 0 1 19.502 0Z"/>
</svg>
