<svg xmlns="http://www.w3.org/2000/svg" fill="none" viewBox="0 0 24 24">
  <path fill="currentColor" d="M2.25 12A9.75 9.75 0 0 0 12 21.75 9.75 9.75 0 0 0 21.75 12 9.75 9.75 0 0 0 12 2.25 9.75 9.75 0 0 0 2.25 12Zm6.303 3.398A5.77 5.77 0 0 1 12 14.25c1.285 0 2.474.427 3.447 1.148a.75.75 0 0 1-.894 1.204A4.27 4.27 0 0 0 12 15.75a4.27 4.27 0 0 0-2.553.852.748.748 0 0 1-1.189-.413.75.75 0 0 1 .295-.791ZM10.25 10v.5a.75.75 0 1 1-1.5 0V10a.75.75 0 0 1 1.5 0Zm4.25-.75a.75.75 0 0 1 .75.75v.5a.75.75 0 1 1-1.5 0V10a.75.75 0 0 1 .75-.75Z"/>
</svg>
