<svg xmlns="http://www.w3.org/2000/svg" fill="none" viewBox="0 0 24 24">
  <path fill="currentColor" d="M14.93 2.25c.562 0 1.118.12 1.63.352l.158.076c.364.185.7.428.994.72h.002l2.382 2.375A3.917 3.917 0 0 1 21.25 8.55v9.272l-.005.194a3.93 3.93 0 0 1-3.931 3.733l-10.626.001a3.931 3.931 0 0 1-3.938-3.927V6.175l.005-.194a3.933 3.933 0 0 1 2.429-3.435 3.931 3.931 0 0 1 1.504-.295l8.242-.001Zm-8.243 1.5a2.432 2.432 0 0 0-2.25 1.496 2.433 2.433 0 0 0-.187.93v11.646l.012.239a2.43 2.43 0 0 0 2.425 2.189H7v-4.016a2.343 2.343 0 0 1 2.344-2.337h5.312A2.34 2.34 0 0 1 17 16.235v4.016h.314a2.432 2.432 0 0 0 2.436-2.428V8.551l-.012-.239a2.426 2.426 0 0 0-.7-1.475l-.002-.001L17 4.805v.843a2.34 2.34 0 0 1-2.344 2.336l-5.312.001A2.34 2.34 0 0 1 7 5.648V3.75h-.313Zm2.655 11.648a.838.838 0 0 0-.842.838v4.014h7v-4.014l-.004-.083a.841.841 0 0 0-.838-.755H9.342ZM8.5 5.646l.004.083a.841.841 0 0 0 .838.756h5.316a.84.84 0 0 0 .842-.838V3.82a2.45 2.45 0 0 0-.57-.069H8.5v1.896Z"/>
</svg>
