<svg xmlns="http://www.w3.org/2000/svg" fill="none" viewBox="0 0 24 24">
  <path fill="currentColor" d="M20.959 15.754a.75.75 0 0 1 .674.82c-.15 1.528-.505 2.721-1.42 3.638-.822.822-1.867 1.19-3.176 1.366-1.287.173-2.937.172-5.037.172s-3.75.001-5.037-.172c-1.309-.176-2.353-.544-3.175-1.366-.917-.917-1.27-2.111-1.42-3.639l1.492-.146c.138 1.396.435 2.171.989 2.724.496.497 1.17.787 2.313.94 1.164.157 2.696.159 4.838.159s3.674-.002 4.838-.158c1.142-.154 1.817-.444 2.313-.94.553-.554.851-1.329.989-2.725a.75.75 0 0 1 .819-.673Zm-17.919 0a.75.75 0 0 1 .82.673l-1.493.146a.75.75 0 0 1 .673-.82Zm.46-4.504a.75.75 0 0 1 0 1.5H3a.75.75 0 0 1 0-1.5h.5Zm4.25 0a.75.75 0 0 1 0 1.5h-.5a.75.75 0 0 1 0-1.5h.5Zm4.5 0a.75.75 0 0 1 0 1.5h-.5a.75.75 0 0 1 0-1.5h.5Zm4.5 0a.75.75 0 0 1 0 1.5h-.5a.75.75 0 0 1 0-1.5h.5Zm4.25 0a.75.75 0 0 1 0 1.5h-.5a.75.75 0 0 1 0-1.5h.5Zm-9-9c2.1 0 3.75-.001 5.037.172 1.309.176 2.353.544 3.175 1.366.917.917 1.27 2.111 1.42 3.639a.75.75 0 0 1-1.492.146c-.138-1.396-.435-2.171-.989-2.724-.496-.497-1.17-.787-2.313-.94-1.164-.157-2.696-.159-4.838-.159s-3.674.002-4.838.158c-1.142.154-1.817.444-2.313.94h-.001c-.553.553-.85 1.329-.988 2.725a.75.75 0 0 1-1.493-.146c.15-1.53.506-2.723 1.421-3.639.822-.822 1.866-1.19 3.175-1.366C8.25 2.249 9.9 2.25 12 2.25Z"/>
</svg>
