<svg xmlns="http://www.w3.org/2000/svg" fill="none" viewBox="0 0 24 24">
  <path fill="currentColor" d="M20.588 5.325a.75.75 0 0 1 .824 1.254L8.168 15.274c.364.51.582 1.13.582 1.806l-.004.165C8.658 18.94 7.216 20.25 5.5 20.25c-1.77 0-3.25-1.395-3.25-3.169 0-1.773 1.48-3.169 3.25-3.169.53 0 1.032.127 1.478.35L10.423 12 6.979 9.74c-.446.222-.949.35-1.479.35-1.771 0-3.25-1.397-3.25-3.171 0-1.775 1.48-3.169 3.25-3.169s3.25 1.396 3.25 3.17c0 .676-.216 1.296-.58 1.806l3.62 2.376 8.798-5.777Zm-6.281 8.328a.75.75 0 0 1 .972-.254l.067.04 6.066 3.982.062.046a.75.75 0 0 1-.886 1.208l-6.066-3.983-.062-.046a.75.75 0 0 1-.153-.993ZM3.75 17.081c0 .899.76 1.669 1.75 1.669.988 0 1.749-.77 1.75-1.668l-.009-.167c-.087-.825-.814-1.503-1.741-1.503-.99 0-1.75.77-1.75 1.67Zm0-10.162c0 .9.761 1.67 1.75 1.67.99 0 1.75-.77 1.75-1.67 0-.899-.76-1.669-1.75-1.669s-1.75.77-1.75 1.669Z"/>
</svg>
