<svg xmlns="http://www.w3.org/2000/svg" fill="none" viewBox="0 0 24 24">
  <path fill="currentColor" d="M17 17.331c.894 0 1.775.21 2.573.612l1.764.887a.75.75 0 0 1-.674 1.34l-1.764-.887a4.224 4.224 0 0 0-3.797 0H15.1l-.529.265A5.72 5.72 0 0 1 12 20.16a5.72 5.72 0 0 1-2.572-.613l-.529-.263v-.001a4.22 4.22 0 0 0-1.652-.445L7 18.831c-.66 0-1.31.155-1.898.452l-1.765.887a.75.75 0 0 1-.674-1.34l1.764-.887.303-.142a5.72 5.72 0 0 1 2.27-.47l.334.01c.779.046 1.54.25 2.24.602l.527.264v.002a4.221 4.221 0 0 0 3.797 0l.002-.002.527-.264.303-.142a5.72 5.72 0 0 1 2.27-.47Zm0-4.528c.893 0 1.774.21 2.572.612l1.765.888.067.038a.75.75 0 0 1-.67 1.333l-.07-.03-1.766-.89a4.22 4.22 0 0 0-1.65-.443L17 14.303c-.66 0-1.31.155-1.898.451l-.529.267a5.72 5.72 0 0 1-5.146 0l-.528-.267a4.22 4.22 0 0 0-1.652-.443L7 14.303c-.66 0-1.31.155-1.898.451l-1.765.89a.75.75 0 0 1-.674-1.34l1.764-.89a5.72 5.72 0 0 1 5.146.002l.529.265a4.22 4.22 0 0 0 1.898.451l.247-.006a4.22 4.22 0 0 0 1.652-.445l.528-.265A5.72 5.72 0 0 1 17 12.803Zm.334-4.516a5.72 5.72 0 0 1 2.24.601l1.763.888a.75.75 0 0 1-.604 1.371l-.07-.031-1.765-.888a4.22 4.22 0 0 0-1.65-.444L17 9.777c-.66 0-1.31.154-1.898.451l-.529.266a5.72 5.72 0 0 1-5.146 0l-.528-.266a4.22 4.22 0 0 0-1.652-.444L7 9.777c-.66 0-1.31.154-1.898.451l-1.765.888a.75.75 0 0 1-.674-1.34l1.764-.888.303-.141A5.72 5.72 0 0 1 7 8.277l.334.01a5.72 5.72 0 0 1 2.24.601l.528.266A4.22 4.22 0 0 0 12 9.605l.247-.007a4.22 4.22 0 0 0 1.652-.444l.528-.266A5.72 5.72 0 0 1 17 8.277l.334.01ZM17 3.75a5.73 5.73 0 0 1 2.573.61l1.764.888a.75.75 0 0 1-.674 1.34L18.9 5.701a4.224 4.224 0 0 0-3.797 0l-.529.265a5.72 5.72 0 0 1-5.146 0L8.9 5.701a4.22 4.22 0 0 0-1.652-.445L7 5.25c-.66 0-1.31.154-1.898.45l-1.765.888a.75.75 0 0 1-.674-1.34l1.764-.887.303-.142a5.72 5.72 0 0 1 4.843.142l.529.266a4.221 4.221 0 0 0 3.796 0l.529-.266A5.72 5.72 0 0 1 17 3.75Z"/>
</svg>
