<svg xmlns="http://www.w3.org/2000/svg" fill="none" viewBox="0 0 24 24">
  <path fill="currentColor" d="M18.25 11.5a6.75 6.75 0 1 0-13.5 0l.008.335A6.751 6.751 0 0 0 18.25 11.5Zm-5.5-1.5a1.25 1.25 0 0 0-1.126-1.244L11.5 8.75A1.25 1.25 0 1 0 12.75 10Zm7 1.5a8.25 8.25 0 0 1-1.924 5.293l2.677 2.677.052.056a.75.75 0 0 1-1.113 1.004l-2.678-2.678A8.25 8.25 0 1 1 19.75 11.5Zm-5.5-1.5c0 .699-.268 1.367-.744 1.876.191.11.374.237.545.383.733.629 1.199 1.563 1.199 2.741a.75.75 0 0 1-1.5 0c0-.752-.284-1.266-.676-1.602-.408-.35-.977-.543-1.574-.543-.597 0-1.166.193-1.574.543-.392.336-.676.85-.676 1.602a.75.75 0 0 1-1.5 0c0-1.178.466-2.112 1.2-2.741.17-.146.352-.273.543-.383A2.747 2.747 0 0 1 11.5 7.25l.271.014A2.75 2.75 0 0 1 14.25 10Z"/>
</svg>
