<svg xmlns="http://www.w3.org/2000/svg" fill="none" viewBox="0 0 24 24">
  <path fill="currentColor" d="M18.25 11.5a6.75 6.75 0 1 0-13.5 0l.008.335A6.751 6.751 0 0 0 18.25 11.5Zm-5.53-1.78a.75.75 0 1 1 1.06 1.06l-.97.97.97.97.052.056a.75.75 0 0 1-1.056 1.056l-.056-.052-.97-.97-.97.97a.75.75 0 1 1-1.06-1.06l.97-.97-.97-.97-.052-.056a.75.75 0 0 1 1.056-1.056l.056.052.97.97.97-.97Zm7.03 1.78a8.25 8.25 0 0 1-1.924 5.293l2.677 2.677.052.056a.75.75 0 0 1-1.113 1.004l-2.678-2.678A8.25 8.25 0 1 1 19.75 11.5Z"/>
</svg>
