<svg xmlns="http://www.w3.org/2000/svg" fill="none" viewBox="0 0 24 24">
  <path fill="currentColor" d="M18.25 11.5a6.747 6.747 0 0 0-1.062-3.629l-9.317 9.317A6.747 6.747 0 0 0 18.25 11.5Zm-13.5 0c0 1.776.7 3.48 1.946 4.742l9.546-9.546A6.75 6.75 0 0 0 4.75 11.5Zm15 0a8.248 8.248 0 0 1-1.924 5.293l2.677 2.677.052.056a.75.75 0 0 1-1.113 1.004l-2.678-2.678a8.25 8.25 0 0 1-9.975.418L3.53 21.53a.75.75 0 1 1-1.06-1.06l3.166-3.167A8.25 8.25 0 0 1 17.303 5.636L20.47 2.47a.75.75 0 1 1 1.06 1.06l-3.26 3.26a8.248 8.248 0 0 1 1.48 4.71Z"/>
</svg>
