<svg xmlns="http://www.w3.org/2000/svg" fill="none" viewBox="0 0 24 24">
  <path fill="currentColor" d="M20.25 8.937a.85.85 0 0 0-.046-.33.846.846 0 0 0-.203-.272l-4.336-4.336a.846.846 0 0 0-.271-.203.851.851 0 0 0-.33-.046H8.936a.85.85 0 0 0-.33.046.859.859 0 0 0-.272.204l-.001-.001-4.335 4.336a.852.852 0 0 0-.201.267.849.849 0 0 0-.048.335v6.127c0 .183.022.271.046.329.023.057.07.138.204.272l4.335 4.336a.85.85 0 0 0 .267.201.846.846 0 0 0 .335.048h6.127a.85.85 0 0 0 .33-.046.846.846 0 0 0 .271-.203L20 15.665a.85.85 0 0 0 .201-.267.845.845 0 0 0 .048-.335V8.938Zm-8.821-1.732a4.182 4.182 0 0 1 4.223 4.212 4.179 4.179 0 0 1-.778 2.393l1.657 1.66.051.057a.75.75 0 0 1-1.113 1.002l-1.671-1.675A4.177 4.177 0 0 1 8.46 8.489a4.18 4.18 0 0 1 2.969-1.283Zm.016 1.5a2.682 2.682 0 0 0-1.903.822 2.68 2.68 0 1 0 1.903-.822Zm10.305 6.358c0 .313-.04.616-.164.914-.124.297-.31.535-.524.749l-4.336 4.335a2.32 2.32 0 0 1-.763.53 2.32 2.32 0 0 1-.9.159H8.938c-.313 0-.616-.04-.914-.164a2.321 2.321 0 0 1-.749-.524L2.94 16.725a2.326 2.326 0 0 1-.53-.763 2.316 2.316 0 0 1-.159-.9V8.938c0-.313.04-.616.164-.914.124-.297.31-.535.524-.749l4.337-4.337c.222-.22.464-.406.762-.529.298-.122.598-.158.9-.158h6.127c.301 0 .6.036.899.158.299.123.541.31.763.53l4.335 4.336c.222.222.408.464.53.763.123.298.159.598.159.9v6.127Z"/>
</svg>
