<svg xmlns="http://www.w3.org/2000/svg" fill="none" viewBox="0 0 24 24">
  <path fill="currentColor" d="M18.25 11.5a6.75 6.75 0 1 0-13.5 0l.008.335A6.751 6.751 0 0 0 18.25 11.5ZM13 11.02l-1.5-1.092L10 11.02V13a.25.25 0 0 0 .25.25h2.5A.25.25 0 0 0 13 13v-1.98ZM14.5 13a1.75 1.75 0 0 1-1.75 1.75h-2.5A1.75 1.75 0 0 1 8.5 13v-2.36a.75.75 0 0 1 .309-.606l2.25-1.64.102-.063a.75.75 0 0 1 .78.063l2.25 1.64a.75.75 0 0 1 .309.606V13Zm5.25-1.5a8.25 8.25 0 0 1-1.924 5.293l2.677 2.677.052.056a.75.75 0 0 1-1.113 1.004l-2.678-2.678A8.25 8.25 0 1 1 19.75 11.5Z"/>
</svg>
