<svg xmlns="http://www.w3.org/2000/svg" fill="none" viewBox="0 0 24 24">
  <path fill="currentColor" d="M8.75 11.43a2.68 2.68 0 1 1 5.357-.104 2.68 2.68 0 0 1-5.357.103Z"/>
  <path fill="currentColor" d="M10.79 1.49a3.16 3.16 0 0 1 3.445.687l7.588 7.588a3.16 3.16 0 0 1 0 4.47l-7.588 7.588a3.16 3.16 0 0 1-4.47 0l-7.588-7.588a3.16 3.16 0 0 1 0-4.47l7.588-7.589a3.2 3.2 0 0 1 1.025-.685m.64 5.76a4.18 4.18 0 1 0 2.38 7.614l1.66 1.665a.748.748 0 0 0 1.233-.235.751.751 0 0 0-.172-.824l-1.663-1.668a4.18 4.18 0 0 0-3.439-6.552Z"/>
</svg>
