<svg xmlns="http://www.w3.org/2000/svg" fill="none" viewBox="0 0 24 24">
  <path fill="currentColor" d="M10.25 10a1.25 1.25 0 1 1 2.5 0 1.25 1.25 0 0 1-2.5 0Z"/>
  <path fill="currentColor" d="M3.25 11.5a8.25 8.25 0 1 1 14.578 5.294l2.675 2.676a.75.75 0 0 1-1.06 1.06l-2.678-2.678A8.25 8.25 0 0 1 3.25 11.5Zm8.25-4.25a2.75 2.75 0 0 0-2.01 4.627c-.19.11-.37.237-.54.382-.734.629-1.2 1.563-1.2 2.741a.75.75 0 0 0 1.5 0c0-.752.284-1.266.676-1.603.408-.35.977-.543 1.574-.543.597 0 1.166.193 1.574.543.392.337.676.85.676 1.603a.75.75 0 1 0 1.5 0c0-1.178-.466-2.112-1.2-2.741a3.605 3.605 0 0 0-.54-.382A2.75 2.75 0 0 0 11.5 7.25Z"/>
</svg>
