<svg xmlns="http://www.w3.org/2000/svg" fill="none" viewBox="0 0 24 24">
  <path fill="currentColor" d="m20.574 2.257.178.028.172.053c.111.043.217.1.312.172l.136.119.117.135c.072.096.13.201.173.313l.053.173.028.177c.016.18-.007.36-.066.53l-.001.003-5.924 16.93a1.288 1.288 0 0 1-1.161.859 1.286 1.286 0 0 1-1.227-.763L10.18 13.82l-7.166-3.186h-.001a1.285 1.285 0 0 1-.76-1.225l.022-.19c.036-.188.114-.367.228-.522l.125-.145c.135-.135.3-.239.481-.303l.002-.001 16.93-5.925.003-.001a1.28 1.28 0 0 1 .531-.065ZM4.118 9.483l6.462 2.875 2.89-2.889a.75.75 0 0 1 1.06 1.061l-2.888 2.888 2.873 6.464L20.11 3.886 4.118 9.483Z"/>
</svg>
