<svg xmlns="http://www.w3.org/2000/svg" fill="none" viewBox="0 0 24 24">
  <path fill="currentColor" d="M20.25 14.7a.58.58 0 0 0-.12-.368c-.06-.074-.11-.082-.13-.082H4c-.02 0-.07.008-.13.082a.58.58 0 0 0-.12.368v3.6a.58.58 0 0 0 .12.368c.06.074.11.082.13.082h16c.02 0 .07-.008.13-.082a.58.58 0 0 0 .12-.368v-3.6ZM8 15.75a.75.75 0 0 1 0 1.5H6a.75.75 0 0 1 0-1.5h2ZM20.25 5.7a.58.58 0 0 0-.12-.368c-.06-.074-.11-.082-.13-.082H4c-.02 0-.07.008-.13.082a.58.58 0 0 0-.12.368v3.6a.58.58 0 0 0 .12.368c.06.074.11.082.13.082h16c.02 0 .07-.008.13-.082a.58.58 0 0 0 .12-.368V5.7ZM8 6.75a.75.75 0 0 1 0 1.5H6a.75.75 0 0 1 0-1.5h2ZM21.75 18.3c0 .943-.662 1.95-1.75 1.95H4c-1.088 0-1.75-1.007-1.75-1.95v-3.6c0-.943.662-1.95 1.75-1.95h16c1.088 0 1.75 1.007 1.75 1.95v3.6Zm0-9c0 .943-.662 1.95-1.75 1.95H4c-1.088 0-1.75-1.007-1.75-1.95V5.7c0-.943.662-1.95 1.75-1.95h16c1.088 0 1.75 1.007 1.75 1.95v3.6Z"/>
</svg>
