<svg xmlns="http://www.w3.org/2000/svg" fill="none" viewBox="0 0 24 24">
  <path fill="currentColor" d="M12 1.75c.463 0 .916.124 1.316.355h.001l6.613 3.8.006.003a2.661 2.661 0 0 1 1.314 2.291v7.6l-.005.173a2.652 2.652 0 0 1-1.311 2.123l-.004.001-6.613 3.8a2.628 2.628 0 0 1-2.634 0l-6.613-3.8-.006-.003a2.659 2.659 0 0 1-1.314-2.29V8.2a2.65 2.65 0 0 1 1.316-2.293l.004-.002 6.613-3.8c.4-.233.854-.354 1.317-.354Zm0 1.5c-.2 0-.395.053-.567.153l-.003.002-6.61 3.797h.001a1.151 1.151 0 0 0-.571.997V15.8l.01.15a1.16 1.16 0 0 0 .563.849l6.607 3.797.003.001a1.13 1.13 0 0 0 1.134 0l.003-.002 6.609-3.797.125-.084a1.15 1.15 0 0 0 .446-.912V8.2a1.16 1.16 0 0 0-.573-1L12.57 3.406l-.003-.002A1.13 1.13 0 0 0 12 3.251ZM10 16c0-.897.294-1.88.684-2.807.395-.938.916-1.88 1.427-2.71.355-.578.71-1.108 1.02-1.555l-.084.008c-.892.056-2.032.068-3.05-.117l-.429-.092-.073-.022a.75.75 0 0 1 .437-1.433c.884.221 2.04.229 3.021.167a19.754 19.754 0 0 0 1.646-.175l.022-.003h.005a.75.75 0 0 1 .774 1.113l-.064.095-.002.001-.04.05-.121.157a31.79 31.79 0 0 0-1.784 2.59c-.489.795-.968 1.665-1.323 2.508-.36.855-.566 1.622-.566 2.225a.75.75 0 0 1-1.5 0Z"/>
</svg>
