<svg xmlns="http://www.w3.org/2000/svg" fill="none" viewBox="0 0 24 24">
  <path fill="currentColor" d="M8.037 2.408a2.3 2.3 0 0 1 .9-.158h6.126c.302 0 .602.036.9.158.298.122.54.31.762.53l4.337 4.337c.22.221.408.463.53.762.123.298.158.598.158.9v6.126c0 .313-.04.616-.163.914a2.3 2.3 0 0 1-.525.748l-4.337 4.337a2.3 2.3 0 0 1-.762.53 2.301 2.301 0 0 1-.9.158H8.937c-.313 0-.616-.039-.914-.163a2.301 2.301 0 0 1-.748-.525l-4.337-4.337a2.302 2.302 0 0 1-.53-.762 2.3 2.3 0 0 1-.158-.9V8.937c0-.313.039-.616.163-.914a2.3 2.3 0 0 1 .525-.748l4.337-4.337c.22-.22.463-.408.762-.53Zm1.895 4.864a.75.75 0 1 0-.364 1.456c1.116.28 2.46.272 3.479.208l.084-.005c-.311.445-.665.975-1.02 1.55-.511.832-1.032 1.774-1.427 2.712-.39.926-.684 1.91-.684 2.807a.75.75 0 1 0 1.5 0c0-.603.206-1.37.566-2.225.355-.843.834-1.713 1.323-2.507a31.999 31.999 0 0 1 1.906-2.748l.03-.04.009-.01.002-.002a.75.75 0 0 0-.71-1.208l-.005.001-.022.004-.091.014a20.284 20.284 0 0 1-1.555.16c-.981.061-2.137.054-3.021-.167Z"/>
</svg>
