<svg xmlns="http://www.w3.org/2000/svg" fill="none" viewBox="0 0 24 24">
  <path fill="currentColor" d="M9.75 17c0-1.085.356-2.287.84-3.436.489-1.16 1.135-2.33 1.771-3.364a40.987 40.987 0 0 1 1.5-2.255c-.16.013-.328.027-.502.038-1.268.08-2.925.086-4.29-.256a.75.75 0 0 1 .363-1.455c1.134.284 2.602.29 3.834.213a25.001 25.001 0 0 0 2.075-.22l.028-.003.007-.001.001-.001a.75.75 0 0 1 .709 1.209l-.003.003-.01.011-.039.051-.154.198a39.91 39.91 0 0 0-2.241 3.255c-.614.997-1.218 2.094-1.666 3.16-.454 1.077-.723 2.062-.723 2.853a.75.75 0 1 1-1.5 0Z"/>
</svg>
