<svg xmlns="http://www.w3.org/2000/svg" fill="none" viewBox="0 0 24 24">
  <path fill="currentColor" d="M20.25 12a8.25 8.25 0 1 0-16.5-.001 8.25 8.25 0 0 0 16.5.001ZM10 16c0-.897.294-1.88.684-2.807.395-.938.916-1.88 1.427-2.712a32.47 32.47 0 0 1 1.02-1.552l-.084.008c-.892.055-2.032.067-3.05-.118l-.429-.091-.073-.023a.75.75 0 0 1 .361-1.447l.076.014.343.074c.827.148 1.82.146 2.678.092a19.859 19.859 0 0 0 1.646-.173l.022-.004a.75.75 0 0 1 .78 1.112l-.065.096-.002.002-.04.049-.121.157a31.791 31.791 0 0 0-1.784 2.592c-.489.793-.968 1.664-1.323 2.506-.36.856-.566 1.622-.566 2.225a.75.75 0 0 1-1.5 0Zm11.75-4a9.75 9.75 0 1 1-19.502 0 9.75 9.75 0 0 1 19.502 0Z"/>
</svg>
