<svg xmlns="http://www.w3.org/2000/svg" fill="none" viewBox="0 0 24 24">
  <path fill="currentColor" d="M21.25 12a1.66 1.66 0 0 0-.377-1.053l-.11-.122-7.589-7.588a1.66 1.66 0 0 0-2.348 0l-7.588 7.588a1.664 1.664 0 0 0-.001 2.35l7.589 7.588.12.11a1.663 1.663 0 0 0 1.69.25c.202-.083.384-.206.538-.36l7.59-7.588A1.663 1.663 0 0 0 21.25 12ZM10 16c0-.897.294-1.88.684-2.806.395-.939.916-1.881 1.428-2.712.355-.578.71-1.108 1.021-1.554l-.086.008c-1.018.063-2.364.07-3.48-.208L9.75 8l.182-.727c.884.22 2.04.227 3.022.166a19.84 19.84 0 0 0 1.645-.174l.023-.004.005-.001a.75.75 0 0 1 .71 1.208l-.002.001v.002l-.008.009-.032.04-.122.157a31.775 31.775 0 0 0-1.784 2.59c-.488.795-.967 1.666-1.322 2.509-.36.855-.566 1.621-.566 2.224a.75.75 0 0 1-1.5 0Zm-.977-8.182a.75.75 0 0 1 .91-.545l-.365 1.455a.75.75 0 0 1-.545-.91ZM22.75 12a3.16 3.16 0 0 1-.926 2.236l-7.588 7.587a3.16 3.16 0 0 1-4.472 0l-7.587-7.587a3.16 3.16 0 0 1-.107-4.359l.107-.113 7.587-7.587.113-.107a3.16 3.16 0 0 1 4.359.107l7.587 7.587A3.166 3.166 0 0 1 22.75 12Z"/>
</svg>
