<svg xmlns="http://www.w3.org/2000/svg" fill="none" viewBox="0 0 24 24">
  <path fill="currentColor" d="M20.25 8.937a.85.85 0 0 0-.046-.33.846.846 0 0 0-.203-.272l-4.336-4.336a.846.846 0 0 0-.271-.203.851.851 0 0 0-.33-.046H8.936a.85.85 0 0 0-.33.046.859.859 0 0 0-.272.204l-.001-.001-4.335 4.336a.852.852 0 0 0-.201.267.849.849 0 0 0-.048.335v6.127c0 .183.022.271.046.329.023.057.07.138.204.272l4.335 4.336a.85.85 0 0 0 .267.201.846.846 0 0 0 .335.048h6.127a.85.85 0 0 0 .33-.046.846.846 0 0 0 .271-.203L20 15.665a.85.85 0 0 0 .201-.267.845.845 0 0 0 .048-.335V8.938ZM10 16c0-.897.294-1.88.684-2.807.395-.938.916-1.88 1.427-2.712a32.47 32.47 0 0 1 1.02-1.552l-.084.008c-.892.055-2.032.067-3.05-.118l-.429-.091-.073-.023a.75.75 0 0 1 .361-1.447l.076.014.343.074c.827.148 1.82.146 2.678.092a19.859 19.859 0 0 0 1.646-.173l.022-.004a.75.75 0 0 1 .78 1.112l-.065.096-.002.002-.04.049-.121.157a31.791 31.791 0 0 0-1.784 2.592c-.489.793-.968 1.664-1.323 2.506-.36.856-.566 1.622-.566 2.225a.75.75 0 0 1-1.5 0Zm11.75-.937c0 .313-.04.616-.164.914-.124.297-.31.535-.524.749l-4.336 4.335a2.32 2.32 0 0 1-.763.53 2.32 2.32 0 0 1-.9.159H8.938c-.313 0-.616-.04-.914-.164a2.321 2.321 0 0 1-.749-.524L2.94 16.725a2.326 2.326 0 0 1-.53-.763 2.316 2.316 0 0 1-.159-.9V8.938c0-.313.04-.616.164-.914.124-.297.31-.535.524-.749l4.337-4.337c.222-.22.464-.406.762-.529.298-.122.598-.158.9-.158h6.127c.301 0 .6.036.899.158.299.123.541.31.763.53l4.335 4.336c.222.222.408.464.53.763.123.298.159.598.159.9v6.127Z"/>
</svg>
