<svg xmlns="http://www.w3.org/2000/svg" fill="none" viewBox="0 0 24 24">
  <path fill="currentColor" d="M2.25 12A9.75 9.75 0 0 1 12 2.25 9.75 9.75 0 0 1 21.75 12 9.75 9.75 0 0 1 12 21.75 9.75 9.75 0 0 1 2.25 12Zm7.682-4.728a.75.75 0 0 0-.364 1.456c1.116.279 2.46.272 3.479.208l.084-.005c-.311.445-.665.975-1.02 1.55-.511.832-1.032 1.774-1.427 2.712-.39.926-.684 1.91-.684 2.807a.75.75 0 1 0 1.5 0c0-.603.206-1.37.566-2.225.355-.843.834-1.713 1.323-2.507a31.998 31.998 0 0 1 1.906-2.748l.031-.04.008-.01.002-.002a.75.75 0 0 0-.71-1.208l-.005.001-.022.004-.091.014a20.184 20.184 0 0 1-1.555.16c-.981.061-2.137.054-3.021-.167Z"/>
</svg>
