<svg xmlns="http://www.w3.org/2000/svg" fill="none" viewBox="0 0 24 24">
  <path fill="currentColor" d="M18.75 18.5a1.75 1.75 0 0 0-1.577-1.741L17 16.75a1.75 1.75 0 1 0 1.75 1.75Zm-10-6.5a1.75 1.75 0 0 0-1.577-1.741L7 10.25A1.75 1.75 0 1 0 8.75 12Zm10-6.5A1.75 1.75 0 1 0 17 7.25l.173-.009A1.75 1.75 0 0 0 18.75 5.5Zm1.5 0a3.25 3.25 0 0 1-3.089 3.246L17 8.75a3.25 3.25 0 0 1-2.582-1.278l-4.481 3.136c.204.431.313.906.313 1.392l-.004.161c-.021.43-.128.847-.31 1.23l4.482 3.136A3.25 3.25 0 0 1 17 15.25l.161.004a3.25 3.25 0 1 1-3.36 2.672l-4.73-3.312-.061-.047L9 14.56a3.248 3.248 0 0 1-4.299-4.857A3.25 3.25 0 0 1 7 8.75l.161.004a3.25 3.25 0 0 1 1.84.686.762.762 0 0 1 .07-.054l4.73-3.313A3.25 3.25 0 1 1 20.25 5.5Z"/>
</svg>
