<svg xmlns="http://www.w3.org/2000/svg" fill="none" viewBox="0 0 24 24">
  <path fill="currentColor" d="M14.514 2.75a2.9 2.9 0 0 1 1.717.599c.503.383.917.943 1.238 1.683.665.224 1.478.637 2.053 1.3.316.364.57.814.668 1.352.094.51.037 1.053-.177 1.619.47.257.753.725.92 1.146.178.449.277.967.307 1.468a5.027 5.027 0 0 1-.122 1.491c-.11.442-.323.948-.741 1.27a.74.74 0 0 1-.051.035l-5.472 3.537a.268.268 0 0 0-.08.115.27.27 0 0 0-.008.152c.09.368.167.883.034 1.372a1.6 1.6 0 0 1-.434.743c-.232.221-.523.36-.849.426l.001.001c-1.235.254-2.076.255-3.316 0a1.701 1.701 0 0 1-.831-.413 1.6 1.6 0 0 1-.44-.722c-.144-.482-.079-.99.013-1.366l.008-.084a.26.26 0 0 0-.11-.198H8.84L3.6 14.702c-.42-.287-.61-.79-.706-1.163a5.27 5.27 0 0 1-.143-1.347c.006-.454.062-.927.177-1.335.102-.358.302-.86.733-1.129a.89.89 0 0 0 .111-.082c.026-.022.044-.044.06-.062-.13-.752-.137-1.7.283-2.525.452-.888 1.323-1.492 2.642-1.62.267-.714.772-1.567 1.613-2.05.95-.545 2.132-.51 3.456.297.68-.483 1.655-.96 2.688-.936Zm-.034 1.5c-.636-.015-1.361.328-1.92.757v-.001a1.179 1.179 0 0 1-1.372.051c-1.06-.698-1.693-.583-2.072-.366-.46.263-.81.825-1 1.404a1.2 1.2 0 0 1-1.063.825h-.005c-.998.06-1.404.443-1.596.821-.226.444-.248 1.061-.13 1.675.089.455-.106.83-.275 1.054-.165.22-.376.392-.561.511.009-.004-.05.059-.114.287a3.81 3.81 0 0 0-.122.946 3.8 3.8 0 0 0 .096.954c.058.226.117.3.118.308l5.221 3.56.11.081c.534.427.768 1.13.607 1.795-.066.27-.067.474-.034.584.012.043.025.052.025.053a.09.09 0 0 0 .022.013l.089.028c1.04.213 1.676.212 2.712 0a.398.398 0 0 0 .093-.029c.014-.007.02-.012.02-.012.002-.001.003-.004.007-.01a.203.203 0 0 0 .016-.044c.033-.12.026-.335-.044-.622a1.773 1.773 0 0 1 .634-1.817l.053-.037 5.471-3.538c.032-.03.124-.146.197-.437a3.55 3.55 0 0 0 .08-1.036 3.365 3.365 0 0 0-.204-1.005c-.113-.285-.221-.372-.244-.385l-.112-.064a1.544 1.544 0 0 1-.555-.647 1.338 1.338 0 0 1-.04-1.073c.152-.37.168-.656.127-.879a1.344 1.344 0 0 0-.326-.64c-.364-.419-.96-.73-1.499-.895l-.003-.001a1.19 1.19 0 0 1-.752-.695c-.253-.619-.544-.978-.812-1.182a1.401 1.401 0 0 0-.843-.292ZM11.25 13V8a.75.75 0 0 1 1.5 0v5a.75.75 0 0 1-1.5 0ZM7.675 9.294a.75.75 0 0 1 .896.457l.023.073.778 2.898.015.075a.75.75 0 0 1-1.441.386l-.024-.073-.776-2.898-.016-.075a.75.75 0 0 1 .545-.843Zm7.754.455a.75.75 0 0 1 1.425.46l-.776 2.9a.75.75 0 0 1-1.45-.39l.778-2.897.023-.073Z"/>
</svg>
