<svg xmlns="http://www.w3.org/2000/svg" fill="none" viewBox="0 0 24 24">
  <path fill="currentColor" d="M16.231 3.35a2.9 2.9 0 0 0-1.717-.599c-1.032-.024-2.007.453-2.688.937-1.324-.809-2.505-.842-3.456-.297-.84.482-1.345 1.335-1.612 2.048-1.32.13-2.192.733-2.644 1.622-.42.824-.412 1.772-.282 2.524l-.06.063-.11.082c-.43.27-.63.77-.732 1.13a5.3 5.3 0 0 0-.18 1.333c-.006.455.037.93.143 1.347.096.373.287.875.707 1.162l5.24 3.573.056.053c.032.04.052.092.056.146l-.008.083c-.09.375-.158.885-.014 1.367a1.6 1.6 0 0 0 .44.721c.23.214.514.35.832.415l.448.084c1.008.166 1.787.137 2.867-.084l.12-.029a1.66 1.66 0 0 0 .73-.4c.23-.22.362-.484.433-.742.1-.367.082-.749.028-1.072l-.062-.3a.27.27 0 0 1 .085-.267l5.475-3.537.026-.017.023-.018c.42-.322.633-.828.743-1.27.117-.465.152-.99.121-1.49a4.901 4.901 0 0 0-.306-1.469c-.168-.42-.45-.89-.92-1.146.214-.566.27-1.11.177-1.62a2.84 2.84 0 0 0-.668-1.352c-.575-.662-1.389-1.076-2.053-1.3-.321-.74-.734-1.3-1.238-1.682ZM11.251 13V8a.75.75 0 0 1 1.5 0v5a.75.75 0 0 1-1.5 0ZM7.676 9.294c.4-.107.81.13.918.53l.777 2.898.016.075a.75.75 0 0 1-1.442.387l-.023-.074-.777-2.897a.75.75 0 0 1 .531-.919Zm7.481 4.344a.75.75 0 0 1-.53-.918l.776-2.899a.75.75 0 1 1 1.45.39l-.778 2.896a.75.75 0 0 1-.918.531Z"/>
</svg>
