<svg xmlns="http://www.w3.org/2000/svg" fill="none" viewBox="0 0 24 24">
  <path fill="currentColor" d="m18.25 6.813-9.976 9.972c1.156 1.394 2.445 2.502 3.28 3.155l.362.279.005.004a.131.131 0 0 0 .158 0l.004-.004c.794-.595 2.357-1.861 3.716-3.522 1.37-1.674 2.45-3.651 2.45-5.68V6.813Zm-14 4.204v-4.93c0-.64.479-1.193 1.129-1.26h.002a11.3 11.3 0 0 0 5.234-1.92l.61-.417c.229-.156.498-.24.775-.24l.104.004c.24.018.47.1.67.237l.61.416c.454.311.929.586 1.419.826l.495.229.068.033a.75.75 0 0 1-.592 1.37l-.072-.026-.56-.259a12.867 12.867 0 0 1-1.604-.935L12 3.777l-.538.369A12.798 12.798 0 0 1 5.75 6.292v4.725c0 .798.167 1.589.456 2.362l.13.33.027.072a.75.75 0 0 1-1.375.58l-.033-.07-.154-.386c-.341-.91-.551-1.88-.551-2.888Zm15.5 0c0 2.54-1.336 4.853-2.79 6.63-1.464 1.79-3.131 3.136-3.974 3.768a1.63 1.63 0 0 1-1.969.004c-.807-.605-2.382-1.876-3.807-3.568l-3.68 3.68a.75.75 0 1 1-1.06-1.061L17.89 5.05l.018-.02 2.562-2.56a.75.75 0 1 1 1.06 1.06l-1.94 1.94c.102.185.16.396.16.617v4.93Z"/>
</svg>
