<svg xmlns="http://www.w3.org/2000/svg" fill="none" viewBox="0 0 24 24">
  <path fill="currentColor" d="M18.25 6.291a12.798 12.798 0 0 1-5.712-2.147L12 3.776l-.538.369-.001-.001A12.797 12.797 0 0 1 5.75 6.29v4.725c0 2.029 1.081 4.006 2.451 5.68 1.359 1.66 2.922 2.927 3.716 3.522l.012.01a.13.13 0 0 0 .15-.004l.004-.004c.794-.596 2.357-1.863 3.716-3.524 1.37-1.675 2.451-3.651 2.451-5.68V6.29Zm-5.116 2.77a.75.75 0 0 1 1.216.878l-2.1 2.907h-.001a.974.974 0 0 1-1.522.07l-1.034-1.18-.047-.06a.75.75 0 0 1 1.123-.984l.053.056.599.684 1.713-2.371Zm6.616 1.955c0 2.54-1.335 4.853-2.79 6.63-1.464 1.79-3.131 3.138-3.974 3.77a1.629 1.629 0 0 1-1.864.077l-.11-.076-.033-.028c-.852-.642-2.495-1.977-3.939-3.742-1.455-1.778-2.79-4.09-2.79-6.631v-4.93c-.001-.31.112-.61.318-.843l.082-.084c.199-.185.452-.303.724-.334h.007a11.3 11.3 0 0 0 5.234-1.919l.61-.416a1.371 1.371 0 0 1 1.55 0l.609.416a11.304 11.304 0 0 0 5.235 1.92h.007c.272.03.525.148.724.333l.082.084.073.091c.16.217.246.48.245.752v4.93Z"/>
</svg>
