<svg xmlns="http://www.w3.org/2000/svg" fill="none" viewBox="0 0 24 24">
  <path fill="currentColor" d="M12 10.485c.357 0 .707.11.999.317l4.54 3.18c.441-.96.711-1.957.711-2.965V6.293a12.798 12.798 0 0 1-5.712-2.148L12 3.777l-.538.369-.001-.001A12.797 12.797 0 0 1 5.75 6.293v4.725c0 1.007.269 2.004.71 2.963l4.541-3.18.112-.072c.268-.16.574-.244.887-.244Zm0 1.5a.236.236 0 0 0-.136.043v.001l-4.677 3.275c1.282 2.01 3.12 3.649 4.253 4.548l.474.367.007.005a.13.13 0 0 0 .079.026.13.13 0 0 0 .08-.026l.006-.005c1.019-.763 3.243-2.592 4.726-4.915l-4.675-3.275h-.001a.236.236 0 0 0-.136-.044Zm7.75-.968c0 1.604-.533 3.112-1.28 4.442-1.614 2.875-4.334 5.096-5.48 5.954l.001.001a1.63 1.63 0 0 1-1.982 0c-1.146-.859-3.866-3.08-5.48-5.955-.746-1.33-1.279-2.838-1.279-4.441v-4.93c0-.64.477-1.195 1.13-1.26l.351-.043a11.3 11.3 0 0 0 4.884-1.878l.61-.416a1.371 1.371 0 0 1 1.55 0l.609.416a11.304 11.304 0 0 0 5.232 1.92 1.264 1.264 0 0 1 1.134 1.26v4.93Z"/>
</svg>
