<svg xmlns="http://www.w3.org/2000/svg" fill="none" viewBox="0 0 24 24">
  <path fill="currentColor" d="M18.25 6.291a12.798 12.798 0 0 1-5.712-2.147L12 3.776l-.538.369-.001-.001A12.797 12.797 0 0 1 5.75 6.29v4.725c0 2.029 1.081 4.006 2.451 5.68 1.359 1.66 2.922 2.927 3.716 3.522l.012.01a.13.13 0 0 0 .15-.004l.004-.004c.794-.596 2.357-1.863 3.716-3.524 1.37-1.675 2.451-3.651 2.451-5.68V6.29ZM12.798 8.97a.75.75 0 1 1 1.06 1.06l-.883.883.884.885.052.056a.75.75 0 0 1-1.056 1.056l-.056-.052-.885-.884-.884.884a.75.75 0 0 1-1.06-1.06l.883-.885-.883-.883a.75.75 0 0 1 1.004-1.112l.056.052.884.883.884-.883Zm6.952 2.046c0 2.54-1.335 4.853-2.79 6.63-1.464 1.79-3.131 3.138-3.974 3.77a1.629 1.629 0 0 1-1.864.077l-.11-.076-.033-.028c-.852-.642-2.495-1.977-3.939-3.742-1.455-1.778-2.79-4.09-2.79-6.631v-4.93c-.001-.31.112-.61.318-.843l.082-.084c.199-.185.452-.303.724-.334h.007a11.3 11.3 0 0 0 5.234-1.919l.61-.416a1.371 1.371 0 0 1 1.55 0l.609.416a11.304 11.304 0 0 0 5.235 1.92h.007c.272.03.525.148.724.333l.082.084.073.091c.16.217.246.48.245.752v4.93Z"/>
</svg>
