<svg xmlns="http://www.w3.org/2000/svg" fill="none" viewBox="0 0 24 24">
  <path fill="currentColor" d="M11.68 2.321a.75.75 0 0 1 .738.056l.96.646a11.446 11.446 0 0 0 5.24 1.885h.003a1.26 1.26 0 0 1 1.129 1.25V11c0 3.005-1.93 5.688-3.709 7.544a24.172 24.172 0 0 1-3.539 3.023l-.065.043-.017.012-.006.003-.002.002a.75.75 0 0 1-.727.054l-.097-.054-.002-.002-.006-.003c-.004-.003-.01-.008-.018-.012l-.064-.043a22.085 22.085 0 0 1-1.055-.78 24.177 24.177 0 0 1-2.484-2.243C6.179 16.688 4.25 14.004 4.25 11V6.156l.006-.115A1.262 1.262 0 0 1 5.379 4.91h.003a11.452 11.452 0 0 0 5.24-1.886l.96-.646.098-.056Zm-5.88 9.43c.282 2.124 1.701 4.149 3.241 5.755a22.64 22.64 0 0 0 2.209 2.005v-7.76H5.8Zm6.95 7.76a22.594 22.594 0 0 0 2.209-2.005c1.54-1.606 2.96-3.63 3.24-5.756H12.75v7.76Zm0-9.26h5.5V6.374a12.94 12.94 0 0 1-5.5-1.974v5.85Zm-1.5-5.85a12.947 12.947 0 0 1-5.5 1.975v3.874h5.5V4.401Z"/>
</svg>
