<svg xmlns="http://www.w3.org/2000/svg" fill="none" viewBox="0 0 24 24">
  <path fill="currentColor" d="M18.25 6.375a12.94 12.94 0 0 1-5.5-1.974v15.11a22.594 22.594 0 0 0 2.209-2.005c1.72-1.794 3.291-4.11 3.291-6.506V6.375ZM5.75 11c0 2.396 1.57 4.712 3.291 6.506a22.64 22.64 0 0 0 2.209 2.005V4.4a12.94 12.94 0 0 1-5.5 1.974V11Zm14 0c0 3.005-1.93 5.688-3.709 7.544a24.172 24.172 0 0 1-3.539 3.023l-.065.043-.017.012-.006.003-.002.002a.75.75 0 0 1-.727.054l-.097-.054-.002-.002-.006-.003c-.004-.003-.01-.008-.018-.012l-.064-.043a22.085 22.085 0 0 1-1.055-.78 24.177 24.177 0 0 1-2.484-2.243C6.179 16.688 4.25 14.004 4.25 11V6.16c0-.645.489-1.187 1.132-1.252l.351-.04a11.449 11.449 0 0 0 4.888-1.845l.961-.646.098-.056a.75.75 0 0 1 .738.056l.96.646a11.446 11.446 0 0 0 5.24 1.885h.003a1.26 1.26 0 0 1 1.129 1.25V11Z"/>
</svg>
