<svg xmlns="http://www.w3.org/2000/svg" fill="none" viewBox="0 0 24 24">
  <path fill="currentColor" d="M9.883 2.47a.75.75 0 0 0-1.06 1.06l2.647 2.647a.75.75 0 1 0 1.06-1.06L9.883 2.47ZM4.59 3.528A.751.751 0 0 0 3.527 4.59l5.824 5.824a.749.749 0 1 0 1.06-1.06L4.59 3.527ZM15.318 7.96a.75.75 0 0 0-1.342 0l-2.006 4.01-4.01 2.006a.75.75 0 0 0 0 1.342l4.01 2.006 2.007 4.011a.75.75 0 0 0 1.342 0l2.006-4.01 4.01-2.007a.75.75 0 0 0 0-1.342l-4.01-2.006-2.007-4.01ZM3.53 8.823a.75.75 0 0 0-1.06 1.06l2.647 2.647a.75.75 0 0 0 1.06-1.06L3.53 8.823Z"/>
</svg>
