<svg xmlns="http://www.w3.org/2000/svg" fill="none" viewBox="0 0 24 24">
  <path fill="currentColor" d="M14.648 7.544a.75.75 0 0 1 .67.415l2.005 4.01 4.013 2.008a.75.75 0 0 1 0 1.34l-4.013 2.006-2.006 4.013a.75.75 0 0 1-1.34 0l-2.007-4.013-4.011-2.006a.75.75 0 0 1 0-1.34l4.01-2.007 2.008-4.011.053-.09a.75.75 0 0 1 .618-.325Zm-1.448 5.32a.754.754 0 0 1-.336.336l-2.893 1.447 2.893 1.447c.145.072.264.19.336.336l1.447 2.893 1.447-2.893.063-.104a.75.75 0 0 1 .273-.232l2.893-1.448L16.43 13.2a.754.754 0 0 1-.336-.336l-1.448-2.893-1.446 2.893ZM2.47 8.822a.75.75 0 0 1 1.06 0l2.648 2.648.05.056a.75.75 0 0 1-1.112 1.004L2.47 9.884l-.052-.058a.75.75 0 0 1 .052-1.004ZM3.527 3.53a.75.75 0 0 1 1.06 0l5.826 5.822.052.056a.75.75 0 0 1-1.112 1.004L3.527 4.591l-.05-.058a.75.75 0 0 1 .05-1.003Zm5.295-1.06a.75.75 0 0 1 1.004-.052l.058.052 2.646 2.646a.751.751 0 0 1-1.004 1.113l-.056-.051L8.822 3.53a.75.75 0 0 1 0-1.06Z"/>
</svg>
