<svg xmlns="http://www.w3.org/2000/svg" fill="none" viewBox="0 0 24 24">
  <path fill="currentColor" d="M14.315 5c0-.676-.564-1.25-1.293-1.25H10.98c-.73 0-1.293.574-1.293 1.25v1.25h4.63V5ZM7.773 7.75c-.692 0-1.243.52-1.29 1.162l-.73 10.001c-.05.706.524 1.337 1.29 1.337h9.914c.766 0 1.34-.631 1.29-1.337l-.73-10c-.046-.642-.597-1.163-1.29-1.163H7.773Zm8.042-1.5h.412c1.451 0 2.681 1.1 2.787 2.554l.73 10 .006.15c.028 1.54-1.24 2.796-2.793 2.796H7.043c-1.604 0-2.903-1.338-2.786-2.946l.73-10 .032-.269C5.247 7.216 6.413 6.25 7.774 6.25h.413V5c0-1.534 1.266-2.75 2.793-2.75h2.043c1.527 0 2.793 1.216 2.793 2.75v1.25Z"/>
</svg>
