<svg xmlns="http://www.w3.org/2000/svg" fill="none" viewBox="0 0 24 24">
  <path fill="currentColor" d="M7.983 2.968a.75.75 0 0 1 1.058 1.064L7.07 5.99l6.969 6.903 1.702-1.685.006-.007a1.74 1.74 0 0 1 2.29-.11l.127.11.007.007c1.659 1.642 2.61 3.343 2.943 4.892.332 1.546.048 2.985-.84 3.97-.9.998-2.293 1.388-3.864 1.076-1.557-.31-3.315-1.304-5.126-3.098l-.006-.006a1.717 1.717 0 0 1 0-2.414l.006-.006 1.69-1.675-6.968-6.899-1.979 1.967A.75.75 0 1 1 2.972 7.95l5.011-4.982Zm4.3 13.866c0 .057.023.112.064.152 1.676 1.66 3.18 2.453 4.357 2.687 1.165.231 1.98-.081 2.456-.608.487-.54.747-1.449.49-2.652-.258-1.2-1.03-2.65-2.532-4.138a.24.24 0 0 0-.324 0l-1.688 1.671.462.458a.75.75 0 1 1-1.054 1.066l-.473-.468-1.695 1.679a.219.219 0 0 0-.063.153Z"/>
</svg>
