<svg xmlns="http://www.w3.org/2000/svg" fill="none" viewBox="0 0 24 24">
  <path fill="currentColor" d="M11.243 20.5v-1.596H9.395c-1.258 0-2.422-.667-3.352-1.578-.94-.92-1.715-2.155-2.207-3.464-.492-1.306-.722-2.74-.503-4.055.185-1.119.7-2.154 1.637-2.91-.33-.77-.377-1.523-.11-2.202.333-.846 1.085-1.392 1.914-1.677 1.503-.518 3.561-.3 5.226.806 1.91-1.173 4.096-.452 5.5.848 1.348 1.248 2.25 3.287 1.511 5.17.903.673 1.45 1.506 1.65 2.429.24 1.09-.027 2.193-.555 3.147-1.04 1.876-3.237 3.428-5.496 3.485l-.02.001h-1.847V20.5a.75.75 0 0 1-1.5 0Zm.278-15.172c-1.339-1.082-3.113-1.286-4.258-.892-.565.194-.884.499-1.006.81-.116.291-.128.772.32 1.495a.751.751 0 0 1-.26 1.045c-.874.505-1.344 1.299-1.505 2.267-.164.988.001 2.15.427 3.281.425 1.128 1.088 2.17 1.853 2.92.774.758 1.581 1.15 2.302 1.15h1.849v-1.933l-1.15-.574a.75.75 0 0 1 .601-1.373l.07.032 1.564.781a.754.754 0 0 1 .096.058l1.664-1.507.503.556.503.556-2.351 2.128v1.276h1.829c1.651-.042 3.4-1.232 4.222-2.713.401-.726.544-1.455.403-2.1-.137-.627-.565-1.284-1.526-1.84a.75.75 0 0 1-.262-1.045c.746-1.2.288-2.807-.928-3.933-1.2-1.112-2.793-1.436-4.016-.445a.75.75 0 0 1-.944 0Zm2.567 7.56A.75.75 0 0 1 15.094 14l-1.006-1.112Z"/>
</svg>
