<svg xmlns="http://www.w3.org/2000/svg" fill="none" viewBox="0 0 24 24">
  <path fill="currentColor" d="M11.243 18.903V20.5a.75.75 0 1 0 1.5 0v-1.597h-1.5Z"/>
  <path fill="currentColor" d="M6.043 17.326c.93.911 2.093 1.578 3.351 1.578h1.85V15.47l-1.15-.575-.068-.037a.75.75 0 0 1 .667-1.335l.07.03 1.565.783a.986.986 0 0 1 .096.057l1.664-1.505A.75.75 0 0 1 15.095 14l-2.352 2.128v2.775h.734l.61.001h.524l.211-.01c2.184-.146 4.278-1.66 5.284-3.477.53-.954.794-2.057.556-3.147-.202-.922-.748-1.755-1.65-2.428.738-1.883-.164-3.922-1.512-5.17-1.404-1.3-3.59-2.02-5.5-.848-1.665-1.106-3.723-1.324-5.226-.806-.83.285-1.58.83-1.914 1.677-.267.68-.219 1.431.11 2.202-.937.756-1.45 1.791-1.637 2.91-.218 1.315.011 2.75.503 4.055.492 1.31 1.268 2.545 2.207 3.464Z"/>
</svg>
