<svg xmlns="http://www.w3.org/2000/svg" fill="none" viewBox="0 0 24 24">
  <path fill="currentColor" d="M13.472 13.468a.75.75 0 0 1 1.004-.048l.056.052 4.718 4.752V15.5a.75.75 0 0 1 1.5 0V20a.75.75 0 0 1-.75.75h-4.5a.75.75 0 0 1 0-1.5h2.655l-4.687-4.722-.052-.056a.75.75 0 0 1 .056-1.004ZM3.47 3.47a.75.75 0 0 1 1.06 0l6 6 .052.056a.75.75 0 0 1-1.056 1.056l-.056-.052-6-6a.75.75 0 0 1 0-1.06Zm15.692 4.974V5.898L4.53 20.53a.75.75 0 1 1-1.06-1.06L18.19 4.75H15.5a.75.75 0 0 1 0-1.5h4.412a.75.75 0 0 1 .75.75v4.444a.75.75 0 0 1-1.5 0Z"/>
</svg>
