<svg xmlns="http://www.w3.org/2000/svg" fill="none" viewBox="0 0 24 24">
  <path fill="currentColor" d="M11.25 12c0-3.506-2.394-6.132-5.1-6.132H3a.75.75 0 0 1 0-1.5h3.15c2.601 0 4.765 1.698 5.85 4.103 1.085-2.405 3.249-4.103 5.85-4.103h1.41l-.805-.853-.05-.06a.75.75 0 0 1 1.14-.97l2 2.118a.75.75 0 0 1 0 1.03l-2 2.117a.75.75 0 1 1-1.09-1.03l.805-.852h-1.41c-2.707 0-5.1 2.626-5.1 6.132 0 3.505 2.393 6.131 5.1 6.132h1.41l-.805-.852-.05-.058a.75.75 0 0 1 1.084-1.025l.056.053 2 2.117a.75.75 0 0 1 0 1.03l-2 2.118a.75.75 0 1 1-1.09-1.03l.806-.853H17.85c-2.601 0-4.766-1.698-5.85-4.104-1.085 2.406-3.249 4.104-5.85 4.104H3a.75.75 0 0 1 0-1.5h3.15c2.706 0 5.1-2.627 5.1-6.132Z"/>
</svg>
