<svg xmlns="http://www.w3.org/2000/svg" fill="none" viewBox="0 0 24 24">
  <path fill="currentColor" d="M20.25 12a8.25 8.25 0 1 0-16.5-.001 8.25 8.25 0 0 0 16.5.001Zm-6.5 1.5c0-.457-.17-.728-.422-.91-.283-.205-.736-.34-1.328-.34-.592 0-1.045.135-1.328.34-.251.182-.422.453-.422.91l.009.173a1.75 1.75 0 0 0 3.491-.173Zm1.5 0a3.25 3.25 0 0 1-6.5 0V11a3.75 3.75 0 0 1 3.75-3.75h1a.75.75 0 0 1 0 1.5h-1A2.25 2.25 0 0 0 10.25 11v.107c.533-.252 1.144-.357 1.75-.357.788 0 1.585.175 2.207.625.654.473 1.043 1.202 1.043 2.125Zm6.5-1.5a9.75 9.75 0 1 1-19.502 0 9.75 9.75 0 0 1 19.502 0Z"/>
</svg>
