<svg xmlns="http://www.w3.org/2000/svg" fill="none" viewBox="0 0 24 24">
  <path fill="currentColor" d="M21.25 12a1.66 1.66 0 0 0-.377-1.053l-.11-.122-7.589-7.588a1.66 1.66 0 0 0-2.348 0l-7.588 7.588a1.664 1.664 0 0 0-.001 2.35l7.589 7.588.12.11a1.663 1.663 0 0 0 1.69.25c.202-.083.384-.206.538-.36l7.59-7.588A1.663 1.663 0 0 0 21.25 12Zm-7.5 1.5c0-.457-.171-.728-.422-.91-.284-.205-.736-.34-1.327-.34-.593 0-1.045.135-1.329.34-.25.182-.421.453-.421.91l.008.173a1.75 1.75 0 0 0 3.492-.173Zm1.5 0a3.25 3.25 0 0 1-6.496.161l-.004-.16V11a3.75 3.75 0 0 1 3.75-3.75h1a.75.75 0 0 1 0 1.5h-1A2.25 2.25 0 0 0 10.25 11v.106c.533-.253 1.145-.357 1.75-.357.788 0 1.586.175 2.207.625.654.473 1.043 1.203 1.043 2.125Zm7.5-1.5a3.16 3.16 0 0 1-.926 2.236l-7.588 7.587a3.16 3.16 0 0 1-4.472 0l-7.587-7.587a3.16 3.16 0 0 1-.107-4.359l.107-.113 7.587-7.587.113-.107a3.16 3.16 0 0 1 4.359.107l7.587 7.587A3.166 3.166 0 0 1 22.75 12Z"/>
</svg>
