<svg xmlns="http://www.w3.org/2000/svg" fill="none" viewBox="0 0 24 24">
  <path fill="currentColor" d="M14.24 13.65c-.052-.502-.277-.834-.595-1.065-.397-.287-1.005-.46-1.77-.46-.765 0-1.373.173-1.77.46-.364.263-.605.66-.605 1.29l.012.233a2.377 2.377 0 0 0 1.454 1.961 2.376 2.376 0 0 0 3.284-2.194l-.01-.226Zm1.505.415a3.874 3.874 0 0 1-7.74 0L8 13.875V10.75a4.5 4.5 0 0 1 4.5-4.5h1.25a.75.75 0 0 1 0 1.5H12.5a3 3 0 0 0-3 3v.442c.69-.402 1.53-.567 2.375-.567.96 0 1.915.213 2.65.745.766.555 1.225 1.41 1.225 2.505l-.005.19Z"/>
</svg>
