<svg xmlns="http://www.w3.org/2000/svg" fill="none" viewBox="0 0 24 24">
  <path fill="currentColor" d="M18.75 21V3a.75.75 0 0 1 1.5 0v18a.75.75 0 0 1-1.5 0Zm-15-15.92.005-.124a1.75 1.75 0 0 1 2.839-1.241l8.648 6.92a1.753 1.753 0 0 1 .484 2.122 1.751 1.751 0 0 1-.483.608l-8.65 6.921a1.753 1.753 0 0 1-2.573-.434 1.751 1.751 0 0 1-.27-.931V5.079Zm1.5 13.839.01.07a.251.251 0 0 0 .132.155.252.252 0 0 0 .263-.03l8.65-6.92a.25.25 0 0 0 0-.388l-8.649-6.92a.25.25 0 0 0-.368.061.25.25 0 0 0-.038.133v13.84Z"/>
</svg>
