<svg xmlns="http://www.w3.org/2000/svg" fill="none" viewBox="0 0 24 24">
  <path fill="currentColor" d="M2.25 12A9.75 9.75 0 0 1 12 2.25 9.75 9.75 0 0 1 21.75 12 9.75 9.75 0 0 1 12 21.75 9.75 9.75 0 0 1 2.25 12Zm6.148 2.553a.75.75 0 0 0 .155 1.05A5.77 5.77 0 0 0 12 16.75a5.77 5.77 0 0 0 3.447-1.148.75.75 0 0 0-.894-1.204A4.27 4.27 0 0 1 12 15.25a4.27 4.27 0 0 1-2.553-.852.75.75 0 0 0-1.049.155ZM15.25 10a.75.75 0 1 0-1.5 0v.5a.75.75 0 1 0 1.5 0V10ZM9.5 9.25a.75.75 0 0 0-.75.75v.5a.75.75 0 1 0 1.5 0V10a.75.75 0 0 0-.75-.75Z"/>
</svg>
