<svg xmlns="http://www.w3.org/2000/svg" fill="none" viewBox="0 0 24 24">
  <path fill="currentColor" d="M13.523 2.464a.75.75 0 0 1 1.049 1.072l-1.822 1.78V8.25h.272c.139 0 .309.016.488.09.18.073.315.181.419.286l.91.91L17.563 8l.667-2.43a.75.75 0 0 1 1.447.396l-.549 2 2.063.54.072.023a.75.75 0 0 1-.378 1.445l-.075-.016-2.502-.656-2.574 1.452a1.2 1.2 0 0 1 .015.224l.001 2.043a1.22 1.22 0 0 1-.016.224l2.574 1.452 2.502-.655a.75.75 0 0 1 .38 1.451l-2.063.54.55 2a.75.75 0 0 1-1.422.47l-.024-.072-.668-2.432-2.724-1.536-.91.911-.001-.001a1.22 1.22 0 0 1-.414.285 1.218 1.218 0 0 1-.492.091h-.272v2.934l1.822 1.78.051.056a.75.75 0 0 1-1.1 1.017L12 20.048l-1.522 1.488a.75.75 0 0 1-1.05-1.072l1.822-1.78V15.75h-.27a1.218 1.218 0 0 1-.907-.377v.002l-.913-.912-2.723 1.536-.667 2.432-.025.073a.75.75 0 0 1-1.422-.47l.55-2-2.063-.54-.072-.023a.75.75 0 0 1 .377-1.445l.076.016 2.5.655 2.576-1.452a1.449 1.449 0 0 1-.017-.224v-2.043a1.22 1.22 0 0 1 .016-.224L5.692 9.302l-2.501.656a.75.75 0 0 1-.381-1.451l2.061-.54-.548-2.001a.75.75 0 0 1 1.423-.469l.025.072L6.437 8 9.16 9.537l.912-.91a1.22 1.22 0 0 1 .415-.284l.128-.045c.118-.034.24-.049.364-.046l.271-.001V5.315L9.43 3.536a.75.75 0 0 1 .991-1.123l.058.05L12 3.952l1.523-1.487ZM9.75 11.068v1.863l.068.068 1.252 1.25h1.86L14.183 13l.068-.068v-1.863L12.93 9.75h-1.86l-1.32 1.318Z"/>
</svg>
