<svg xmlns="http://www.w3.org/2000/svg" fill="none" viewBox="0 0 24 24">
  <path fill="currentColor" d="M13.523 2.464a.75.75 0 0 1 1.049 1.072l-1.822 1.78v5.4L17.563 8l.667-2.43a.75.75 0 0 1 1.447.396l-.549 2 2.063.54.072.023a.75.75 0 0 1-.378 1.445l-.075-.016-2.502-.656L13.526 12l4.782 2.697 2.502-.655a.75.75 0 0 1 .38 1.451l-2.063.54.55 2a.75.75 0 0 1-1.422.47l-.024-.072-.668-2.432-4.813-2.716v5.4l1.822 1.78.051.056a.75.75 0 0 1-1.1 1.017L12 20.048l-1.522 1.488a.75.75 0 0 1-1.05-1.072l1.822-1.78v-5.4l-4.813 2.715-.667 2.432-.025.073a.75.75 0 0 1-1.422-.47l.55-2-2.063-.54-.072-.023a.75.75 0 0 1 .377-1.445l.076.016 2.5.655L10.475 12 5.692 9.302l-2.501.656a.75.75 0 0 1-.381-1.451l2.061-.54-.548-2.001a.75.75 0 0 1 1.423-.469l.025.072L6.437 8l4.813 2.717v-5.4L9.43 3.535a.75.75 0 0 1 .991-1.123l.058.05L12 3.952l1.523-1.487Z"/>
</svg>
