<svg xmlns="http://www.w3.org/2000/svg" fill="none" viewBox="0 0 24 24">
  <path fill="currentColor" d="M5.85 11c0-.071-.018-.145-.18-.236-.187-.106-.494-.178-.854-.17-.356.008-.675.094-.878.212-.198.115-.188.19-.188.194v4c0 1.319.946 2.25 1.95 2.25h12.6c1.004 0 1.95-.931 1.95-2.25v-4c0-.071-.018-.145-.18-.236-.188-.106-.494-.178-.853-.17-.357.008-.676.095-.88.212-.197.114-.187.189-.187.194 0 .693-.051 1.592-.408 2.336a2.444 2.444 0 0 1-.874 1.016c-.411.266-.905.398-1.468.398H8.6c-.563 0-1.057-.132-1.468-.398a2.444 2.444 0 0 1-.874-1.016C5.9 12.592 5.85 11.693 5.85 11Zm12.6-4c0-1.319-.945-2.25-1.95-2.25h-9c-1.004 0-1.95.931-1.95 2.25v2.156c.299.057.593.152.855.3.513.288.945.803.945 1.544 0 .67.061 1.27.26 1.687a.951.951 0 0 0 .335.406c.13.084.33.157.655.157h6.8c.325 0 .525-.073.655-.157a.95.95 0 0 0 .335-.406c.199-.416.26-1.017.26-1.687 0-.725.46-1.218.937-1.493a3.03 3.03 0 0 1 .863-.324V7Zm1.5 2.156c.3.057.593.152.856.3.512.288.944.803.944 1.544v4c0 1.995-1.473 3.75-3.45 3.75h-1.05V20a.75.75 0 0 1-1.5 0v-1.25h-7.5V20a.75.75 0 0 1-1.5 0v-1.25H5.7c-1.977 0-3.45-1.755-3.45-3.75v-4c0-.724.46-1.217.937-1.493a3.01 3.01 0 0 1 .863-.325V7c0-1.995 1.472-3.75 3.45-3.75h9c1.977 0 3.45 1.755 3.45 3.75v2.156Z"/>
</svg>
