<svg xmlns="http://www.w3.org/2000/svg" fill="none" viewBox="0 0 24 24">
  <path fill="currentColor" d="M14.77 5.523a.75.75 0 0 1 .729.574c.529 2.186 1.071 3.554 1.889 4.539.805.969 1.945 1.646 3.852 2.29a.75.75 0 0 1 0 1.42c-1.823.617-2.95 1.24-3.77 2.192-.83.964-1.418 2.346-1.971 4.638a.75.75 0 0 1-.076.184c-.01.018-.019.035-.03.051a.746.746 0 0 1-.2.203.757.757 0 0 1-.148.081l-.024.01a.757.757 0 0 1-.076.024l-.036.006a.825.825 0 0 1-.14.013.735.735 0 0 1-.114-.008c-.006 0-.013-.002-.02-.004l-.041-.006a.746.746 0 0 1-.077-.025l-.025-.01a.708.708 0 0 1-.146-.079.754.754 0 0 1-.23-.256.748.748 0 0 1-.076-.183c-.528-2.182-1.071-3.551-1.89-4.537-.807-.971-1.948-1.65-3.852-2.293a.75.75 0 0 1 0-1.421c1.823-.616 2.95-1.241 3.77-2.193.83-.963 1.42-2.345 1.973-4.636l.04-.121a.75.75 0 0 1 .689-.453Zm-.002 3.398c-.418 1.128-.915 2.039-1.564 2.792-.712.827-1.577 1.425-2.636 1.925 1.128.537 2.02 1.18 2.736 2.044.616.742 1.08 1.619 1.467 2.67.418-1.128.914-2.04 1.563-2.792.712-.827 1.576-1.427 2.634-1.926-1.128-.537-2.018-1.178-2.734-2.04-.616-.741-1.079-1.62-1.466-2.673ZM6.462 2.25a.75.75 0 0 1 .734.595c.242 1.143.578 1.886 1.022 2.402.435.507 1.03.863 1.917 1.125a.75.75 0 0 1 0 1.439c-.886.261-1.482.616-1.917 1.124-.444.516-.782 1.259-1.024 2.402a.75.75 0 0 1-1.466 0c-.242-1.143-.58-1.886-1.024-2.402-.436-.508-1.03-.863-1.917-1.125a.75.75 0 0 1 0-1.439C3.71 6.1 4.31 5.721 4.74 5.206c.44-.526.757-1.265.99-2.361l.038-.125a.75.75 0 0 1 .695-.47ZM6.46 5.304c-.165.31-.351.6-.57.863a4.564 4.564 0 0 1-1.054.924A4.54 4.54 0 0 1 6.46 8.877c.178-.337.382-.644.62-.92a4.537 4.537 0 0 1 1.004-.866A4.536 4.536 0 0 1 6.46 5.304Z"/>
</svg>
