<svg xmlns="http://www.w3.org/2000/svg" fill="none" viewBox="0 0 24 24">
  <path fill="currentColor" d="M18.5 12c0-2.138 0-3.68-.128-4.856-.126-1.168-.37-1.86-.768-2.356-.38-.472-.88-.738-1.75-.884-.91-.152-2.119-.154-3.854-.154-1.735 0-2.943.002-3.854.154-.87.146-1.37.412-1.75.884-.399.495-.642 1.188-.768 2.356C5.5 8.319 5.5 9.862 5.5 12s0 3.68.128 4.856c.126 1.168.37 1.86.768 2.356.38.472.88.739 1.75.884.91.152 2.119.154 3.854.154 1.735 0 2.943-.002 3.854-.154.87-.145 1.37-.412 1.75-.884.399-.495.642-1.188.768-2.356.127-1.175.128-2.718.128-4.856Zm-4.25 2a2.25 2.25 0 1 0-4.5 0 2.25 2.25 0 0 0 4.5 0ZM12.5 6.25a.75.75 0 0 1 0 1.5h-1a.75.75 0 0 1 0-1.5h1ZM15.75 14a3.75 3.75 0 1 1-7.5 0 3.75 3.75 0 0 1 7.5 0ZM20 12c0 2.104.001 3.743-.137 5.019-.13 1.203-.393 2.182-.971 2.977l-.12.156c-.68.846-1.566 1.239-2.67 1.423-1.063.178-2.42.175-4.102.175-1.683 0-3.039.003-4.102-.175-1.035-.173-1.878-.528-2.54-1.27l-.13-.153c-.663-.822-.952-1.85-1.091-3.133C3.999 15.743 4 14.104 4 12s-.001-3.743.137-5.019c.139-1.282.428-2.31 1.09-3.133l.13-.154c.663-.74 1.506-1.096 2.541-1.27 1.063-.177 2.42-.174 4.102-.174 1.683 0 3.039-.003 4.102.175 1.104.184 1.99.577 2.67 1.423l.12.156c.578.795.84 1.774.971 2.977C20.001 8.257 20 9.896 20 12Z"/>
</svg>
