<svg xmlns="http://www.w3.org/2000/svg" fill="none" viewBox="0 0 24 24">
  <path fill="currentColor" d="M11.25 21v-3a.75.75 0 0 1 1.5 0v3a.75.75 0 0 1-1.5 0Zm-4.026-5.284a.75.75 0 1 1 1.06 1.06l-2.12 2.12a.75.75 0 0 1-1.06-1.06l2.12-2.12Zm8.492 0a.75.75 0 0 1 1.004-.052l.056.052 2.12 2.12.052.057a.75.75 0 0 1-1.055 1.055l-.057-.052-2.12-2.12-.052-.056a.75.75 0 0 1 .052-1.004ZM6 11.25a.75.75 0 0 1 0 1.5H3a.75.75 0 0 1 0-1.5h3Zm15 0a.75.75 0 0 1 0 1.5h-3a.75.75 0 0 1 0-1.5h3ZM5.104 5.104a.75.75 0 0 1 1.06 0l2.12 2.12a.75.75 0 1 1-1.06 1.06l-2.12-2.12a.75.75 0 0 1 0-1.06Zm12.732 0a.75.75 0 0 1 1.06 1.06l-2.12 2.12a.75.75 0 1 1-1.06-1.06l2.12-2.12ZM11.25 6V3a.75.75 0 0 1 1.5 0v3a.75.75 0 0 1-1.5 0Z"/>
</svg>
