<svg xmlns="http://www.w3.org/2000/svg" fill="none" viewBox="0 0 24 24">
  <path fill="currentColor" d="M12 2.25a.75.75 0 0 1 .75.75v3a.75.75 0 1 1-1.5 0V3a.75.75 0 0 1 .75-.75ZM7.125 3.556a.75.75 0 0 1 1.025.275l1.5 2.598a.75.75 0 1 1-1.3.75L6.85 4.58a.75.75 0 0 1 .275-1.024ZM3.556 7.125a.75.75 0 0 1 1.025-.275l2.598 1.5a.75.75 0 0 1-.75 1.3L3.83 8.15a.75.75 0 0 1-.274-1.025ZM2.25 12a.75.75 0 0 1 .75-.75h3a.75.75 0 1 1 0 1.5H3a.75.75 0 0 1-.75-.75Zm15 0a.75.75 0 0 1 .75-.75h3a.75.75 0 1 1 0 1.5h-3a.75.75 0 0 1-.75-.75Zm-9.797 2.625a.75.75 0 0 1-.274 1.024l-2.598 1.5a.75.75 0 0 1-.75-1.299l2.598-1.5a.75.75 0 0 1 1.024.275Zm9.094 0a.75.75 0 0 1 1.024-.275l2.598 1.5a.749.749 0 0 1 .082 1.245.752.752 0 0 1-.832.055l-2.598-1.5a.75.75 0 0 1-.274-1.025Zm-1.922 1.922a.75.75 0 0 1 1.024.274l1.5 2.598a.75.75 0 0 1-1.299.75l-1.5-2.598a.75.75 0 0 1 .275-1.024Zm-5.25 0a.75.75 0 0 1 .275 1.024l-1.5 2.598a.75.75 0 0 1-1.3-.75l1.5-2.598a.75.75 0 0 1 1.025-.274ZM12 17.25a.75.75 0 0 1 .75.75v3a.75.75 0 1 1-1.5 0v-3a.75.75 0 0 1 .75-.75Z"/>
</svg>
