<svg xmlns="http://www.w3.org/2000/svg" fill="none" viewBox="0 0 24 24">
  <path fill="currentColor" d="M11.25 21v-3a.75.75 0 0 1 1.5 0v3a.75.75 0 0 1-1.5 0Zm-2.9-4.179a.75.75 0 1 1 1.3.75l-1.5 2.598a.75.75 0 1 1-1.3-.75l1.5-2.598Zm6.275-.274a.75.75 0 0 1 .982.21l.042.064 1.5 2.598a.75.75 0 0 1-1.256.814l-.042-.064-1.5-2.598-.036-.068a.75.75 0 0 1 .31-.956ZM6.429 14.35a.75.75 0 0 1 .75 1.298l-2.598 1.5a.75.75 0 1 1-.75-1.298l2.598-1.5Zm10.118.274a.75.75 0 0 1 .956-.31l.068.036 2.598 1.5.064.042a.75.75 0 0 1-.814 1.256l-2.598-1.5-.064-.042a.75.75 0 0 1-.21-.982ZM6 11.25a.75.75 0 0 1 0 1.5H3a.75.75 0 0 1 0-1.5h3Zm15 0a.75.75 0 0 1 0 1.5h-3a.75.75 0 0 1 0-1.5h3ZM3.557 7.125a.75.75 0 0 1 .956-.31l.068.036 2.598 1.5.064.042a.75.75 0 0 1-.814 1.256L3.83 8.15l-.064-.042a.75.75 0 0 1-.21-.982Zm3.568-3.568a.75.75 0 0 1 .982.21l.042.064 1.5 2.598a.75.75 0 0 1-1.256.814L8.35 7.18l-1.5-2.6-.036-.068a.75.75 0 0 1 .31-.956ZM11.25 6V3a.75.75 0 0 1 1.5 0v3a.75.75 0 0 1-1.5 0Z"/>
</svg>
