<svg xmlns="http://www.w3.org/2000/svg" fill="none" viewBox="0 0 24 24">
  <path fill="currentColor" d="M5.51 4.272a12.93 12.93 0 0 1 1.647.008c.704.055 1.558.204 2.125.66.777.586 1.172 1.487 1.254 2.374a3.87 3.87 0 0 1-.38 2.07c.36.47.667 1.046.926 1.63.354.798.651 1.687.892 2.511.097-.29.208-.582.332-.864.186-.424.414-.848.693-1.223-.63-1.322-.155-2.918 1.02-3.767.503-.386 1.221-.516 1.804-.567a11.999 11.999 0 0 1 1.825.004l.183.024c.835.153 1.387.915 1.337 1.743l-.02.178a12 12 0 0 1-.424 1.793c-.19.57-.49 1.256-.99 1.655-1.077.914-2.626.854-3.72.11a5.741 5.741 0 0 0-.335.654 11.001 11.001 0 0 0-.55 1.65 16.4 16.4 0 0 0-.253 1.18c2.416.07 4.748.88 6.9 1.779l1.024.439.068.034a.75.75 0 0 1-.595 1.368l-.073-.027-1.015-.435c-2.203-.92-4.41-1.665-6.632-1.666l-.514.014h-.078c-2.738-.144-5.452.907-8.16 2.087a.75.75 0 1 1-.6-1.375c2.414-1.052 5.091-2.126 7.88-2.216a33.997 33.997 0 0 0-.533-2.109 19.005 19.005 0 0 0-.837-2.365 7.996 7.996 0 0 0-.555-1.053c-1.228.88-2.9.682-4.047-.333-.547-.455-.88-1.236-1.093-1.901A13 13 0 0 1 3.62 6.72l-.08-.473c-.15-.95.506-1.862 1.498-1.942l.472-.033Z"/>
</svg>
