<svg xmlns="http://www.w3.org/2000/svg" fill="none" viewBox="0 0 24 24">
  <path fill="currentColor" d="M5.038 4.305a13.98 13.98 0 0 1 2.12-.025c.693.054 1.532.2 2.099.643v-.001c.793.585 1.196 1.497 1.28 2.393a3.867 3.867 0 0 1-.382 2.07c.36.47.668 1.045.927 1.63.354.798.652 1.687.893 2.512.098-.29.207-.583.33-.866.187-.424.415-.848.694-1.223-.629-1.322-.155-2.918 1.022-3.767.502-.386 1.22-.516 1.802-.568.638-.056 1.31-.032 1.825.005h.003c.995.075 1.655.991 1.497 1.946a12.163 12.163 0 0 1-.424 1.792c-.19.57-.49 1.256-.99 1.655l-.002-.001c-1.076.915-2.624.855-3.717.111-.117.193-.23.412-.336.654a10.841 10.841 0 0 0-.55 1.65c-.11.435-.193.844-.253 1.18 2.416.07 4.748.88 6.9 1.779l1.024.438.068.035a.75.75 0 0 1-.668 1.34c-2.709-1.18-5.423-2.231-8.16-2.088a.729.729 0 0 1-.079 0c-2.738-.143-5.452.908-8.161 2.088a.75.75 0 0 1-.6-1.375c2.415-1.051 5.091-2.126 7.88-2.216v-.005a33.77 33.77 0 0 0-.532-2.103 19.119 19.119 0 0 0-.837-2.365 7.798 7.798 0 0 0-.556-1.054c-1.228.88-2.9.684-4.046-.332C4.562 9.782 4.23 9 4.015 8.335c-.232-.722-.383-1.5-.476-2.088-.15-.951.508-1.862 1.5-1.942Zm12.502 4.3a10.186 10.186 0 0 0-1.584-.007c-.566.05-.9.163-1.026.265a.868.868 0 0 1-.032.025c-.724.522-.887 1.505-.388 2.162l.111.126c.584.596 1.583.668 2.152.172l.026-.02c.13-.105.32-.41.5-.956.169-.505.289-1.081.37-1.563l.002-.048a.18.18 0 0 0-.034-.104.13.13 0 0 0-.097-.053Zm-10.5-2.83c-.478-.037-.99-.03-1.446-.006l-.436.03a.14.14 0 0 0-.103.056.202.202 0 0 0-.034.157c.087.552.224 1.246.422 1.863.186.578.388.96.56 1.146l.072.068.03.025c.835.74 1.935.664 2.53-.107.31-.414.46-.99.408-1.555-.053-.567-.298-1.046-.677-1.325l-.025-.019c-.18-.145-.617-.28-1.3-.333Z"/>
</svg>
