<svg xmlns="http://www.w3.org/2000/svg" fill="none" viewBox="0 0 24 24">
  <path fill="currentColor" d="M14.6 20.25a.75.75 0 0 1 0 1.5H9.4a.75.75 0 0 1 0-1.5h5.2ZM3.096 18.148a.75.75 0 0 1 1.008.328 3.25 3.25 0 0 0 1.42 1.42.75.75 0 0 1-.68 1.336 4.752 4.752 0 0 1-2.076-2.076.75.75 0 0 1 .328-1.008Zm16.8.328a.75.75 0 0 1 1.336.68 4.751 4.751 0 0 1-2.076 2.076.75.75 0 0 1-.68-1.337 3.25 3.25 0 0 0 1.42-1.42ZM14 15.25a.75.75 0 0 1 0 1.5H7a.75.75 0 0 1 0-1.5h7ZM2.25 14.6V9.4a.75.75 0 0 1 1.5 0v5.2a.75.75 0 0 1-1.5 0Zm18 0V9.4a.75.75 0 0 1 1.5 0v5.2a.75.75 0 0 1-1.5 0ZM18 11.25a.75.75 0 0 1 0 1.5h-7a.75.75 0 0 1 0-1.5h7Zm-3-4a.75.75 0 0 1 0 1.5H8a.75.75 0 0 1 0-1.5h7ZM4.844 2.768a.75.75 0 0 1 .68 1.336 3.25 3.25 0 0 0-1.42 1.42.75.75 0 0 1-1.336-.68 4.752 4.752 0 0 1 2.076-2.076Zm13.303.328a.75.75 0 0 1 1.01-.328 4.752 4.752 0 0 1 2.075 2.076.75.75 0 0 1-1.337.68 3.25 3.25 0 0 0-1.42-1.42.75.75 0 0 1-.328-1.008ZM14.6 2.25a.75.75 0 0 1 0 1.5H9.4a.75.75 0 0 1 0-1.5h5.2Z"/>
</svg>
