<svg xmlns="http://www.w3.org/2000/svg" fill="none" viewBox="0 0 24 24">
  <path fill="currentColor" d="M9.4 2.25a.75.75 0 0 0 0 1.5h5.2a.75.75 0 1 0 0-1.5H9.4ZM5.525 4.104a.75.75 0 1 0-.681-1.336 4.75 4.75 0 0 0-2.076 2.076.75.75 0 1 0 1.336.68 3.252 3.252 0 0 1 1.421-1.42Zm13.632-1.336a.75.75 0 0 0-.681 1.336 3.25 3.25 0 0 1 1.42 1.42.75.75 0 1 0 1.336-.68 4.75 4.75 0 0 0-2.075-2.076ZM3.75 9.4a.75.75 0 0 0-1.5 0v5.2a.75.75 0 1 0 1.5 0V9.4Zm18 0a.75.75 0 1 0-1.5 0v5.2a.75.75 0 1 0 1.5 0V9.4ZM4.104 18.476a.75.75 0 1 0-1.336.68 4.75 4.75 0 0 0 2.076 2.076.75.75 0 0 0 .68-1.336 3.25 3.25 0 0 1-1.42-1.42Zm17.128.681a.75.75 0 0 0-1.336-.681 3.25 3.25 0 0 1-1.42 1.42.75.75 0 1 0 .68 1.336 4.75 4.75 0 0 0 2.076-2.075ZM9.4 20.25a.75.75 0 1 0 0 1.5h5.2a.75.75 0 1 0 0-1.5H9.4Z"/>
</svg>
