<svg xmlns="http://www.w3.org/2000/svg" fill="none" viewBox="0 0 24 24">
  <path fill="currentColor" d="M14.6 20a1 1 0 0 1 0 2H9.4a1 1 0 0 1 0-2h5.2ZM2.982 17.925a1 1 0 0 1 1.345.437 3 3 0 0 0 1.31 1.31 1 1 0 0 1-.907 1.783 5 5 0 0 1-2.185-2.185 1 1 0 0 1 .437-1.345Zm16.69.437a.999.999 0 0 1 1.843.145 1.001 1.001 0 0 1-.06.763 5 5 0 0 1-2.185 2.185 1 1 0 0 1-.908-1.782 3 3 0 0 0 1.31-1.31M14 15a1 1 0 0 1 0 2H7a1 1 0 0 1 0-2h7Zm-12-.4V9.4a1 1 0 0 1 2 0v5.2a1 1 0 1 1-2 0Zm18 0V9.4a1 1 0 0 1 2 0v5.2a1 1 0 0 1-2 0ZM18 11a1 1 0 0 1 0 2h-7a1 1 0 0 1 0-2h7Zm-3-4a1 1 0 1 1 0 2H8a1 1 0 0 1 0-2h7ZM4.73 2.545a1 1 0 0 1 .908 1.782 3 3 0 0 0-1.31 1.31 1 1 0 0 1-1.783-.907A5 5 0 0 1 4.73 2.545Zm13.195.437a1 1 0 0 1 1.345-.437 5 5 0 0 1 2.185 2.185 1 1 0 0 1-1.782.908 3 3 0 0 0-1.31-1.31 1 1 0 0 1-.438-1.346ZM14.6 2l.102.005a1 1 0 0 1 0 1.99L14.6 4H9.4a1 1 0 0 1 0-2h5.2Z"/>
</svg>
