<svg xmlns="http://www.w3.org/2000/svg" fill="none" viewBox="0 0 24 24">
  <path fill="currentColor" d="M13.51 3.139c-.652-1.185-2.368-1.185-3.021 0a28 28 0 0 0-2.114 4.894.35.35 0 0 1-.33.223 30 30 0 0 0-4.375.436c-1.337.233-1.926 1.837-.91 2.83a32.003 32.003 0 0 0 3.491 2.961.274.274 0 0 1 .11.31 27.6 27.6 0 0 0-1.172 5.065c-.19 1.424 1.318 2.298 2.495 1.694a29.298 29.298 0 0 0 4.085-2.537.4.4 0 0 1 .462 0 29.002 29.002 0 0 0 4.085 2.537c1.177.604 2.685-.27 2.495-1.694a27.6 27.6 0 0 0-1.171-5.065.274.274 0 0 1 .11-.31 31.996 31.996 0 0 0 3.49-2.96c1.016-.994.427-2.598-.91-2.831a30 30 0 0 0-4.376-.436.35.35 0 0 1-.33-.223 27.704 27.704 0 0 0-2.114-4.894Z"/>
</svg>
