<svg xmlns="http://www.w3.org/2000/svg" fill="none" viewBox="0 0 24 24">
  <path fill="currentColor" d="M12 2.25a1.73 1.73 0 0 1 1.448.785l.06.099.003.003a27.762 27.762 0 0 1 2.11 4.881.351.351 0 0 0 .324.238h.008c1.468.037 2.931.182 4.377.435 1.295.227 1.889 1.739 1.001 2.736l-.09.095a32.247 32.247 0 0 1-3.492 2.961.275.275 0 0 0-.11.31l.167.515c.321 1.033.581 2.084.78 3.148l.095.533v.002c.047.286.09.575.13.864v.003c.183 1.378-1.225 2.243-2.384 1.746l-.111-.052a29.244 29.244 0 0 1-4.08-2.534.4.4 0 0 0-.472.001h-.001a29.362 29.362 0 0 1-4.08 2.534C6.506 22.156 5 21.28 5.19 19.857c.23-1.72.623-3.417 1.172-5.064l.012-.081a.283.283 0 0 0-.123-.23 32.762 32.762 0 0 1-3.492-2.963h.001c-1.014-.995-.423-2.595.91-2.829a30.167 30.167 0 0 1 4.376-.435l.063-.007a.34.34 0 0 0 .267-.217l.16-.481a27.76 27.76 0 0 1 1.954-4.412l.002-.005a1.73 1.73 0 0 1 1.51-.884Zm0 1.5a.23.23 0 0 0-.2.117 26.255 26.255 0 0 0-1.997 4.625c-.242.75-.945 1.241-1.716 1.263a28.674 28.674 0 0 0-4.16.413h.002c-.115.02-.158.082-.172.125a.128.128 0 0 0-.004.07.128.128 0 0 0 .016.036l.04.051v.002c.122.119.244.236.368.351l.002.002a31.256 31.256 0 0 0 2.959 2.468c.583.427.856 1.155.685 1.854l-.04.14a26.254 26.254 0 0 0-1.108 4.787l.001.001a.153.153 0 0 0 .01.09.18.18 0 0 0 .063.068c.061.04.151.056.251.005a27.856 27.856 0 0 0 3.875-2.408l.005-.003a1.9 1.9 0 0 1 2.115-.084l.125.084.005.003A27.736 27.736 0 0 0 17 20.218l.072.026a.23.23 0 0 0 .18-.031.173.173 0 0 0 .06-.068.151.151 0 0 0 .012-.087c-.037-.276-.078-.55-.123-.823l-.088-.504c-.22-1.173-.52-2.33-.897-3.464a1.775 1.775 0 0 1 .647-1.995 30.759 30.759 0 0 0 3.329-2.822l.04-.05a.148.148 0 0 0 .015-.038.128.128 0 0 0-.004-.07.173.173 0 0 0-.098-.1l-.073-.023a28.25 28.25 0 0 0-4.157-.414 1.85 1.85 0 0 1-1.714-1.25l-.004-.013A26.258 26.258 0 0 0 12.2 3.866a.23.23 0 0 0-.2-.116Z"/>
</svg>
