<svg xmlns="http://www.w3.org/2000/svg" fill="none" viewBox="0 0 24 24">
  <path fill="currentColor" d="M20.25 12a8.25 8.25 0 1 0-16.5-.001 8.25 8.25 0 0 0 16.5.001Zm-6.5 0c0-.61-.002-.992-.04-1.271-.034-.258-.086-.312-.107-.332-.02-.02-.074-.073-.332-.108-.279-.037-.66-.039-1.271-.039-.61 0-.992.002-1.271.04-.258.034-.312.086-.332.107-.02.02-.073.074-.108.332-.037.279-.039.66-.039 1.271 0 .61.002.992.04 1.271.034.258.086.312.107.332.02.02.074.073.332.108.279.037.66.039 1.271.039.61 0 .992-.002 1.271-.04.258-.034.312-.086.332-.107.02-.02.073-.074.108-.332.037-.279.039-.66.039-1.271Zm1.5 0c0 .568.001 1.07-.053 1.472-.057.423-.187.846-.533 1.192-.346.346-.769.476-1.192.533-.402.054-.904.053-1.472.053s-1.07.001-1.472-.053c-.423-.057-.846-.187-1.192-.533-.346-.346-.476-.769-.533-1.192-.054-.402-.053-.904-.053-1.472s-.001-1.07.053-1.472c.057-.423.187-.846.533-1.192.346-.346.769-.476 1.192-.533.402-.054.904-.053 1.472-.053s1.07-.001 1.472.053c.423.057.846.187 1.192.533.346.346.476.769.533 1.192.054.402.053.904.053 1.472Zm6.5 0a9.75 9.75 0 1 1-19.502 0 9.75 9.75 0 0 1 19.502 0Z"/>
</svg>
