<svg xmlns="http://www.w3.org/2000/svg" fill="none" viewBox="0 0 24 24">
  <path fill="currentColor" d="M17.25 12.5c0-1.435-.002-2.436-.104-3.191-.086-.643-.234-1.02-.456-1.29l-.1-.11c-.276-.276-.665-.457-1.399-.555-.755-.102-1.756-.104-3.191-.104-1.435 0-2.436.002-3.191.104-.643.086-1.02.234-1.29.456l-.11.1c-.276.276-.457.665-.555 1.399-.102.755-.104 1.756-.104 3.191 0 1.435.002 2.436.104 3.191.098.734.279 1.123.555 1.4l.11.1c.269.22.647.37 1.29.456.755.101 1.756.103 3.191.103 1.435 0 2.436-.002 3.191-.104.734-.098 1.123-.279 1.4-.555l.1-.11c.22-.27.37-.647.456-1.29.101-.755.103-1.756.103-3.191Zm1.5 0c0 1.393.002 2.513-.116 3.392-.114.844-.349 1.563-.874 2.145l-.109.114c-.601.602-1.36.862-2.26.983-.878.118-1.998.116-3.391.116s-2.513.002-3.392-.116c-.844-.114-1.563-.349-2.145-.874l-.114-.109c-.603-.601-.862-1.36-.983-2.26-.118-.878-.116-1.998-.116-3.391s-.002-2.513.116-3.392c.121-.9.38-1.658.983-2.26l.114-.108c.582-.525 1.301-.76 2.145-.874.879-.118 2-.116 3.392-.116 1.393 0 2.513-.002 3.392.116.9.121 1.658.38 2.26.983l.108.114c.525.582.76 1.301.874 2.145.118.879.116 2 .116 3.392Z"/>
</svg>
