<svg xmlns="http://www.w3.org/2000/svg" fill="none" viewBox="0 0 24 24">
  <path fill="currentColor" d="M21.25 12a1.66 1.66 0 0 0-.377-1.053l-.11-.122-7.589-7.588a1.66 1.66 0 0 0-2.348 0l-7.588 7.588a1.664 1.664 0 0 0-.001 2.35l7.589 7.588.12.11a1.663 1.663 0 0 0 1.69.25c.202-.083.384-.206.538-.36l7.59-7.588A1.663 1.663 0 0 0 21.25 12Zm-7.5 0c0-.61-.001-.992-.039-1.271-.034-.257-.087-.312-.107-.332-.02-.02-.075-.073-.332-.108-.279-.037-.662-.039-1.271-.039-.61 0-.993.002-1.272.04-.258.034-.312.086-.332.107-.02.02-.073.074-.107.332-.038.279-.04.661-.04 1.271 0 .61.002.993.04 1.272.034.257.087.312.107.332.02.02.075.073.332.107.279.038.662.04 1.272.04s.992-.002 1.271-.04c.258-.034.312-.087.332-.107.02-.02.073-.075.107-.332.038-.28.04-.662.04-1.272Zm1.5 0c0 .568.002 1.069-.052 1.47-.057.424-.188.849-.533 1.194-.346.346-.77.477-1.194.534-.402.053-.903.052-1.47.052-.568 0-1.07.002-1.472-.053-.424-.056-.848-.187-1.194-.533-.345-.345-.476-.77-.533-1.193-.054-.402-.052-.903-.052-1.47 0-.569-.002-1.07.052-1.472.057-.424.188-.848.533-1.194.346-.346.77-.476 1.194-.533.402-.054.904-.052 1.472-.052.567 0 1.068-.002 1.47.052.424.057.848.188 1.194.533.345.346.476.77.533 1.194.054.402.053.903.053 1.471Zm7.5 0a3.16 3.16 0 0 1-.926 2.236l-7.588 7.587a3.16 3.16 0 0 1-4.472 0l-7.587-7.587a3.16 3.16 0 0 1-.107-4.359l.107-.113 7.587-7.587.113-.107a3.16 3.16 0 0 1 4.359.107l7.587 7.587A3.166 3.166 0 0 1 22.75 12Z"/>
</svg>
