<svg xmlns="http://www.w3.org/2000/svg" fill="none" viewBox="0 0 24 24">
  <path fill="currentColor" d="M12 1.75c.463 0 .916.124 1.316.355h.001l6.613 3.8.006.003a2.661 2.661 0 0 1 1.314 2.291v7.6l-.005.173a2.652 2.652 0 0 1-1.311 2.123l-.004.001-6.613 3.8a2.628 2.628 0 0 1-2.634 0l-6.613-3.8-.006-.003a2.659 2.659 0 0 1-1.314-2.29V8.2a2.65 2.65 0 0 1 1.316-2.293l.004-.002 6.613-3.8c.4-.233.854-.354 1.317-.354Zm0 1.5c-.2 0-.395.053-.567.153l-.003.002-6.61 3.797h.001a1.151 1.151 0 0 0-.571.997V15.8l.01.15a1.16 1.16 0 0 0 .563.849l6.607 3.797.003.001a1.13 1.13 0 0 0 1.134 0l.003-.002 6.609-3.797.125-.084a1.15 1.15 0 0 0 .446-.912V8.2a1.16 1.16 0 0 0-.573-1L12.57 3.406l-.003-.002A1.13 1.13 0 0 0 12 3.251ZM13.75 12c0-.61-.002-.993-.04-1.272-.034-.257-.086-.312-.107-.332-.02-.02-.074-.073-.332-.107-.278-.038-.66-.04-1.271-.04-.61 0-.992.002-1.271.04-.258.034-.312.087-.332.107-.02.02-.073.075-.108.332-.037.28-.039.662-.039 1.272s.002.992.04 1.271c.034.257.086.312.107.332.02.02.074.073.332.108.279.037.66.039 1.271.039.61 0 .992-.002 1.271-.04.258-.034.312-.086.332-.107.02-.02.073-.075.108-.332.037-.279.039-.661.039-1.271Zm1.5 0c0 .568.001 1.07-.053 1.471-.057.424-.187.847-.533 1.193-.345.345-.769.476-1.192.533-.402.054-.904.053-1.472.053s-1.07.001-1.472-.053c-.423-.057-.846-.188-1.192-.533-.346-.346-.476-.77-.533-1.193-.054-.402-.053-.903-.053-1.471 0-.568-.001-1.07.053-1.472.057-.423.187-.847.533-1.192.346-.346.769-.477 1.192-.534.402-.054.904-.052 1.472-.052s1.07-.002 1.472.052c.423.057.847.188 1.192.534.346.345.476.769.533 1.192.054.402.053.904.053 1.472Z"/>
</svg>
