<svg xmlns="http://www.w3.org/2000/svg" fill="none" viewBox="0 0 24 24">
  <path fill="currentColor" d="M17.952 2.25a2.75 2.75 0 0 1 2.66 2.056l1.044 4.007c.247.944-.01 1.771-.57 2.36-.106.11-.22.21-.34.3V19a2.75 2.75 0 0 1-2.75 2.75H6.004A2.75 2.75 0 0 1 3.254 19v-8.026a2.69 2.69 0 0 1-.34-.302c-.56-.588-.817-1.415-.57-2.36l1.044-4.006a2.75 2.75 0 0 1 2.66-2.056h11.904ZM12 10.746c-.068.072-.14.14-.214.205-.576.496-1.32.725-2.035.725-.715 0-1.459-.23-2.035-.725a3.01 3.01 0 0 1-.217-.208 2.599 2.599 0 0 1-.35.305c-.65.47-1.463.624-2.204.554a4.04 4.04 0 0 1-.19-.023V19c0 .69.559 1.25 1.248 1.25h11.994c.69 0 1.249-.56 1.249-1.25v-7.421c-.064.01-.127.017-.19.023-.742.07-1.555-.084-2.204-.554a2.6 2.6 0 0 1-.352-.305 3.03 3.03 0 0 1-.216.208c-.576.496-1.32.725-2.035.725-.715 0-1.459-.23-2.035-.725a3.002 3.002 0 0 1-.214-.205Z"/>
</svg>
