<svg xmlns="http://www.w3.org/2000/svg" fill="none" viewBox="0 0 24 24">
  <path fill="currentColor" d="M19.246 11.576c-.064.01-.127.02-.19.026-.741.07-1.555-.084-2.204-.554a2.648 2.648 0 0 1-.351-.306 2.69 2.69 0 0 1-.217.21c-.576.495-1.32.725-2.035.725-.716 0-1.459-.23-2.035-.726a2.76 2.76 0 0 1-.214-.205c-.068.072-.138.14-.213.205-.576.496-1.32.726-2.036.726s-1.459-.23-2.035-.726a2.74 2.74 0 0 1-.217-.209 2.649 2.649 0 0 1-.35.306c-.65.47-1.464.623-2.205.554-.063-.006-.126-.017-.19-.026V19a1.25 1.25 0 0 0 1.25 1.25h11.992a1.25 1.25 0 0 0 1.25-1.25v-7.424ZM8.253 8.777c.006.498.194.824.441 1.036.267.23.648.364 1.057.364.409 0 .79-.134 1.057-.364.252-.216.442-.55.442-1.063v-5H8.69l-.437 5.027Zm8.992-.092a.794.794 0 0 1 .003.065c0 .565.216.889.484 1.083.295.214.725.318 1.183.275.46-.043.853-.226 1.085-.47.204-.214.32-.507.206-.947L19.16 4.685a1.25 1.25 0 0 0-1.105-.931l-.103-.004h-1.136l.429 4.935Zm-11.3-4.931a1.25 1.25 0 0 0-1.105.93L3.795 8.692c-.115.44.002.732.206.947.231.243.625.427 1.085.47.457.043.887-.061 1.182-.275.268-.194.484-.518.484-1.083a.76.76 0 0 1 .003-.065l.428-4.935H6.05l-.104.004ZM20.745 19a2.75 2.75 0 0 1-2.75 2.75H6.005a2.75 2.75 0 0 1-2.736-2.479L3.255 19v-8.031a2.71 2.71 0 0 1-.341-.297c-.56-.588-.817-1.415-.57-2.36l1.045-4.006.066-.218A2.75 2.75 0 0 1 6.048 2.25h11.905l.227.01a2.75 2.75 0 0 1 2.432 2.046l1.045 4.006c.246.945-.01 1.773-.57 2.36-.105.11-.22.207-.341.297V19ZM12.75 8.75c0 .513.19.847.442 1.063.267.23.648.364 1.057.364.409 0 .79-.134 1.057-.364.248-.213.436-.541.44-1.042L15.31 3.75h-2.56v5Z"/>
</svg>
