<svg xmlns="http://www.w3.org/2000/svg" fill="none" viewBox="0 0 24 24">
  <path fill="currentColor" d="M2.25 13.8a.75.75 0 0 1 1.5 0v1.05h.6a.75.75 0 0 1 0 1.5H3a.75.75 0 0 1-.75-.75v-1.8Zm12.6 0a.75.75 0 0 1 1.5 0v1.8a.75.75 0 0 1-.75.75h-1.8a.75.75 0 0 1 0-1.5h1.05V13.8Zm-12.6-3.6V8.4a.75.75 0 0 1 1.5 0v1.8a.75.75 0 0 1-1.5 0Zm12.6 0V8.4a.75.75 0 0 1 .75-.75h.6c.828 0 1.494 0 2.031.043.547.045 1.027.14 1.471.366a3.75 3.75 0 0 1 1.639 1.638c.226.445.321.925.366 1.472.044.538.043 1.204.043 2.031v3c0 .828.001 1.494-.043 2.031-.045.547-.14 1.027-.366 1.471a3.75 3.75 0 0 1-1.639 1.639c-.444.226-.924.321-1.47.366-.538.044-1.204.043-2.032.043h-3c-.827 0-1.493.001-2.031-.043-.547-.045-1.027-.14-1.472-.366a3.75 3.75 0 0 1-1.638-1.639c-.227-.444-.321-.924-.366-1.47-.044-.538-.043-1.204-.043-2.032v-.6a.75.75 0 0 1 .75-.75h1.8a.75.75 0 0 1 0 1.5H9.151c0 .773.002 1.324.037 1.76.038.453.107.714.208.912.215.423.56.767.983.983.198.1.458.17.912.207.463.038 1.057.038 1.91.038h3c.851 0 1.446 0 1.908-.038.454-.037.715-.107.912-.207.424-.216.768-.56.984-.983.1-.198.17-.459.207-.913.038-.462.038-1.057.038-1.909v-3c0-.852 0-1.446-.038-1.909-.037-.454-.107-.714-.207-.912l-.087-.155a2.25 2.25 0 0 0-.896-.828c-.198-.101-.459-.17-.913-.208-.435-.035-.986-.037-1.76-.038v1.05a.75.75 0 0 1-1.5 0ZM2.25 4.8V3A.75.75 0 0 1 3 2.25h1.8a.75.75 0 1 1 0 1.5H3.75V4.8a.75.75 0 1 1-1.5 0Zm12.6-.45v-.6H13.8a.75.75 0 0 1 0-1.5h1.8a.75.75 0 0 1 .75.75v1.35a.75.75 0 0 1-1.5 0Zm-4.65-2.1.076.004a.75.75 0 0 1 0 1.492l-.076.004H8.4a.75.75 0 0 1 0-1.5h1.8Z"/>
</svg>
