<svg xmlns="http://www.w3.org/2000/svg" fill="none" viewBox="0 0 24 24">
  <path fill="currentColor" d="M12.745 20.417a.75.75 0 0 0-1.492.013l-.003.076.004.5.005.077a.75.75 0 0 0 1.492-.013l.003-.076-.004-.5-.005-.077Zm-4-2a.75.75 0 0 0-1.492.013l-.003.076.004.5.005.077a.75.75 0 0 0 1.492-.013l.003-.076-.004-.5-.005-.077Zm8 0a.75.75 0 0 0-1.492.013l-.003.076.004.5.005.077a.75.75 0 0 0 1.492-.013l.003-.076-.004-.5-.005-.077Zm-4-1.5a.75.75 0 0 0-1.492.013l-.003.076.004.5.005.077a.75.75 0 0 0 1.492-.013l.003-.076-.004-.5-.005-.077Zm-4-2a.75.75 0 0 0-1.492.013l-.003.076.004.5.005.077a.75.75 0 0 0 1.492-.013l.003-.076-.004-.5-.005-.077Zm8 0a.75.75 0 0 0-1.492.013l-.003.076.004.5.005.077a.75.75 0 0 0 1.492-.013l.003-.076-.004-.5-.005-.077ZM5.076 11.254 5 11.25H3.5a.75.75 0 1 0 0 1.5H5l.076-.004a.75.75 0 0 0 0-1.492ZM21.25 12a.75.75 0 0 0-.75-.75H19a.75.75 0 1 0 0 1.5h1.5a.75.75 0 0 0 .75-.75ZM6.474 5.418a.75.75 0 0 0-1.056 1.056l.052.056 1 1 .056.052a.75.75 0 0 0 1.056-1.056L7.53 6.47l-1-1-.056-.052Zm12.056.052a.75.75 0 0 0-1.004-.052l-.056.052-1 1a.75.75 0 1 0 1.06 1.06l1-1 .052-.056a.75.75 0 0 0-.052-1.004ZM11.25 3.5V5a.75.75 0 1 0 1.5 0V3.5a.75.75 0 1 0-1.5 0ZM12 7.25A4.75 4.75 0 0 1 16.75 12a.75.75 0 0 1-.75.75H8a.75.75 0 0 1-.75-.75A4.75 4.75 0 0 1 12 7.25Z"/>
</svg>
