<svg xmlns="http://www.w3.org/2000/svg" fill="none" viewBox="0 0 24 24">
  <path fill="currentColor" d="M11.25 19.004v.496a.75.75 0 1 0 1.5 0v-.496a.75.75 0 1 0-1.5 0ZM7.53 16.47a.75.75 0 0 0-1.06 0l-.5.5a.75.75 0 1 0 1.06 1.06l.5-.5a.75.75 0 0 0 0-1.06Zm9.944-.052a.75.75 0 0 0-1.056 1.056l.052.056.5.5.056.052a.75.75 0 0 0 1.056-1.056l-.052-.056-.5-.5-.056-.052ZM5.076 11.254 5 11.25h-.5a.75.75 0 1 0 0 1.5H5l.076-.004a.75.75 0 0 0 0-1.492Zm14.501 0-.077-.004H19a.75.75 0 1 0 0 1.5h.5l.077-.004a.75.75 0 0 0 0-1.492ZM6.974 5.918a.75.75 0 0 0-1.056 1.056l.052.056.5.5.056.052a.75.75 0 0 0 1.056-1.056L7.53 6.47l-.5-.5-.056-.052Zm11.056.052a.75.75 0 0 0-1.004-.052l-.056.052-.5.5a.75.75 0 1 0 1.06 1.06l.5-.5a.75.75 0 0 0 0-1.06ZM11.25 4.5V5a.75.75 0 1 0 1.5 0v-.5a.75.75 0 1 0-1.5 0Zm5.5 7.5a4.75 4.75 0 1 1-9.5 0 4.75 4.75 0 0 1 9.5 0Z"/>
</svg>
