<svg xmlns="http://www.w3.org/2000/svg" fill="none" viewBox="0 0 24 24">
  <path fill="currentColor" d="M11.994 19.75a.75.75 0 0 1 .751.667l.005.077.004.5-.003.076a.75.75 0 0 1-1.497-.064l-.004-.5a.75.75 0 0 1 .744-.756Zm-4-2a.75.75 0 0 1 .751.667l.005.077.004.5-.003.076a.75.75 0 0 1-1.497-.064l-.004-.5a.75.75 0 0 1 .744-.756Zm8 0a.75.75 0 0 1 .751.667l.005.077.004.5-.003.076a.75.75 0 0 1-1.497-.064l-.004-.5a.75.75 0 0 1 .744-.756Zm-4-1.5a.75.75 0 0 1 .751.667l.005.077.004.5-.003.076a.75.75 0 0 1-1.497-.064l-.004-.5a.75.75 0 0 1 .744-.756Zm-4-2a.75.75 0 0 1 .751.667l.005.077.004.5-.003.076a.75.75 0 0 1-1.497-.064l-.004-.5a.75.75 0 0 1 .744-.756Zm8 0a.75.75 0 0 1 .751.667l.005.077.004.5-.003.076a.75.75 0 0 1-1.497-.064l-.004-.5a.75.75 0 0 1 .744-.756ZM5 11.25a.75.75 0 0 1 0 1.5H3.5a.75.75 0 0 1 0-1.5H5Zm10.25.75a3.25 3.25 0 0 0-3.089-3.246L12 8.75A3.25 3.25 0 0 0 8.75 12a.75.75 0 0 1-1.5 0A4.75 4.75 0 0 1 12 7.25l.235.006A4.75 4.75 0 0 1 16.75 12a.75.75 0 0 1-1.5 0Zm5.25-.75a.75.75 0 0 1 0 1.5H19a.75.75 0 0 1 0-1.5h1.5ZM5.47 5.47a.75.75 0 0 1 1.004-.052l.056.052 1 1 .052.056a.75.75 0 0 1-1.056 1.056L6.47 7.53l-1-1-.052-.056A.75.75 0 0 1 5.47 5.47Zm12 0a.75.75 0 1 1 1.06 1.06l-1 1a.75.75 0 1 1-1.06-1.06l1-1ZM11.25 5V3.5a.75.75 0 0 1 1.5 0V5a.75.75 0 0 1-1.5 0Z"/>
</svg>
