<svg xmlns="http://www.w3.org/2000/svg" fill="none" viewBox="0 0 24 24">
  <path fill="currentColor" d="M11.25 21.004v-2a.75.75 0 0 1 1.5 0v2a.75.75 0 0 1-1.5 0ZM6.47 16.47a.75.75 0 1 1 1.06 1.06l-2 2a.75.75 0 1 1-1.06-1.06l2-2Zm10 0a.75.75 0 0 1 1.004-.052l.056.052 2 2 .052.056a.75.75 0 0 1-1.056 1.056l-.056-.052-2-2-.052-.056a.75.75 0 0 1 .052-1.004Zm-1.224-4.631a3.25 3.25 0 0 0-3.085-3.085L12 8.75A3.25 3.25 0 0 0 8.75 12l.004.161A3.25 3.25 0 0 0 12 15.25l.161-.004A3.25 3.25 0 0 0 15.25 12l-.004-.161ZM5 11.25a.75.75 0 0 1 0 1.5H3a.75.75 0 0 1 0-1.5h2Zm16 0a.75.75 0 0 1 0 1.5h-2a.75.75 0 0 1 0-1.5h2ZM4.47 4.47a.75.75 0 0 1 1.004-.052l.056.052 2 2 .052.056a.75.75 0 0 1-1.056 1.056L6.47 7.53l-2-2-.052-.056A.75.75 0 0 1 4.47 4.47Zm14 0a.75.75 0 1 1 1.06 1.06l-2 2a.75.75 0 1 1-1.06-1.06l2-2ZM11.25 5V3a.75.75 0 0 1 1.5 0v2a.75.75 0 0 1-1.5 0Zm5.494 7.235a4.75 4.75 0 0 1-4.509 4.51L12 16.75a4.75 4.75 0 0 1 0-9.5l.235.006A4.75 4.75 0 0 1 16.75 12l-.006.235Z"/>
</svg>
