<svg xmlns="http://www.w3.org/2000/svg" fill="none" viewBox="0 0 24 24">
  <path fill="currentColor" d="M8.995 14.495A4.25 4.25 0 0 1 16.25 17.5a.75.75 0 0 1-.75.75h-7a.75.75 0 0 1-.75-.75 4.25 4.25 0 0 1 1.245-3.005Zm-3.627-3.627a.75.75 0 0 1 1.06 0l1.278 1.278a.75.75 0 0 1-1.06 1.06l-1.278-1.278a.75.75 0 0 1 0-1.06ZM2.25 17.4a.75.75 0 0 1 .75-.75h1.8a.75.75 0 1 1 0 1.5H3a.75.75 0 0 1-.75-.75Zm16 0a.75.75 0 0 1 .75-.75h1.8a.75.75 0 1 1 0 1.5H19a.75.75 0 0 1-.75-.75Zm.182-6.532a.75.75 0 0 1 0 1.06l-1.278 1.278a.75.75 0 0 1-1.06-1.06l1.278-1.278a.75.75 0 0 1 1.06 0ZM2.25 21a.75.75 0 0 1 .75-.75h18a.75.75 0 1 1 0 1.5H3a.75.75 0 0 1-.75-.75ZM11.9 2.25c.199 0 .39.08.53.22l3.6 3.6a.75.75 0 0 1-1.06 1.06l-2.32-2.32V10a.75.75 0 1 1-1.5 0V4.81L8.83 7.13a.75.75 0 0 1-1.06-1.06l3.6-3.6a.75.75 0 0 1 .53-.22Z"/>
</svg>
