<svg xmlns="http://www.w3.org/2000/svg" fill="none" viewBox="0 0 24 24">
  <path fill="currentColor" d="M5.66 6.72A8.22 8.22 0 0 0 3.75 12c0 2.008.717 3.849 1.91 5.28l2.853-2.853a4.31 4.31 0 0 1 0-4.854L5.66 6.72Zm12.68 0-2.853 2.853a4.31 4.31 0 0 1 0 4.854l2.853 2.852A8.22 8.22 0 0 0 20.25 12a8.22 8.22 0 0 0-1.91-5.28ZM2.25 12A9.75 9.75 0 0 1 12 2.25 9.75 9.75 0 0 1 21.75 12 9.75 9.75 0 0 1 12 21.75 9.75 9.75 0 0 1 2.25 12Zm11.695-1.944C12.889 9 11.11 9 10.055 10.056 9 11.11 9 12.889 10.056 13.945c1.056 1.056 2.834 1.055 3.89 0 1.055-1.056 1.055-2.834 0-3.89"/>
</svg>
