<svg xmlns="http://www.w3.org/2000/svg" fill="none" viewBox="0 0 24 24">
  <path fill="currentColor" d="M20.25 12a8.25 8.25 0 0 0-1.911-5.28l-2.853 2.853a4.306 4.306 0 0 1 0 4.853l2.853 2.852A8.249 8.249 0 0 0 20.25 12Zm-5.824 3.486a4.306 4.306 0 0 1-4.853 0L6.721 18.34a8.25 8.25 0 0 0 8.436 1.283 8.249 8.249 0 0 0 2.121-1.283l-2.852-2.853Zm-.482-5.43C12.89 9 11.111 9 10.054 10.056c-1.054 1.056-1.053 2.834.002 3.888 1.055 1.055 2.832 1.056 3.888 0 1.055-1.055 1.056-2.832 0-3.888ZM12 3.75a8.25 8.25 0 0 0-5.28 1.91l2.853 2.853a4.307 4.307 0 0 1 4.853 0l2.852-2.853A8.25 8.25 0 0 0 12 3.75ZM3.75 12a8.25 8.25 0 0 0 1.91 5.278l2.853-2.852a4.307 4.307 0 0 1 0-4.853L5.66 6.721A8.25 8.25 0 0 0 3.75 12Zm18 0a9.75 9.75 0 1 1-19.502 0 9.75 9.75 0 0 1 19.502 0Z"/>
</svg>
