<svg xmlns="http://www.w3.org/2000/svg" fill="none" viewBox="0 0 24 24">
  <path fill="currentColor" d="M20.25 17.877c0-.72.026-1.244-.09-1.698a1.226 1.226 0 0 0-.256-.518c-.36.43-.81.779-1.325 1.015h-.002l-7.87 3.574H18c1.215 0 2.25-1.034 2.25-2.373ZM9.676 3.839c-1.096-.325-2.268.267-2.696 1.395l-.076.233-3.06 11.218c-.395 1.526.495 3.069 1.95 3.468 1.45.398 2.964-.479 3.362-2l.006-.023 3.224-10.956c.38-1.299-.344-2.632-1.54-2.987l-1.17-.348Zm8.932 7.074c-.501-1.215-1.813-1.729-2.915-1.252l-.218.11-2.751 1.568-2.122 7.215-.001-.001-.032.111 7.388-3.353a2.29 2.29 0 0 0 1.08-1.03l.001-.004a2.48 2.48 0 0 0 .184-1.835l-.089-.255-.525-1.274ZM6.98 18.06a.75.75 0 0 1-1.444-.41l1.444.41Zm-1.201-1.264a.75.75 0 0 1 1.443.41l-.242.854-.722-.205-.722-.204.243-.855Zm15.971 1.082c0 2.11-1.65 3.873-3.75 3.873H6.492a4.184 4.184 0 0 1-1.095-.15c-2.277-.625-3.603-3.008-3.002-5.303l.002-.008 3.06-11.217C6.012 3.03 8.08 1.8 10.103 2.4l1.17.35c2.034.604 3.15 2.802 2.55 4.847l-.49 1.667 1.398-.796.185-.1c1.93-.964 4.242-.053 5.077 1.974l.526 1.273.077.203a4 4 0 0 1 .219 1.492 3.983 3.983 0 0 1-.176.995c.532.402.827.929.973 1.503.176.69.137 1.48.137 2.069Z"/>
</svg>
