<svg xmlns="http://www.w3.org/2000/svg" fill="none" viewBox="0 0 24 24">
  <path fill="currentColor" d="M1.5 7.125c0-.882.531-1.498 1.11-1.856a3.648 3.648 0 0 1 1.862-.519H14.77l.267.013c.62.06 1.203.33 1.652.768l5.351 5.216a1.75 1.75 0 0 1 0 2.506l-5.35 5.216a2.75 2.75 0 0 1-1.92.781H4.473a3.649 3.649 0 0 1-1.863-.519c-.579-.359-1.109-.974-1.109-1.856v-9.75ZM7.75 14.5v-1.75H6a.75.75 0 0 1 0-1.5h1.75V9.5a.75.75 0 0 1 1.5 0v1.75H11a.75.75 0 0 1 0 1.5H9.25v1.75a.75.75 0 0 1-1.5 0ZM3 16.875c0 .202.106.4.4.582.305.188.72.293 1.072.293H14.77c.325 0 .64-.128.873-.355l5.35-5.216a.251.251 0 0 0 0-.358l-5.35-5.216a1.258 1.258 0 0 0-.751-.35l-.122-.005H4.472c-.352 0-.767.105-1.072.294-.294.183-.4.38-.4.581v9.75Z"/>
</svg>
