<svg xmlns="http://www.w3.org/2000/svg" fill="none" viewBox="0 0 24 24">
  <path fill="currentColor" d="M20.25 12a8.25 8.25 0 1 0-16.5-.001 8.25 8.25 0 0 0 16.5.001Zm-3.756-.223A4.499 4.499 0 1 0 12 16.5l.223-.006A4.498 4.498 0 0 0 16.5 12l-.006-.223Zm-3.759.075a.751.751 0 0 0-.587-.587L12 11.25a.75.75 0 0 0-.75.75l.015.148a.751.751 0 0 0 .735.602l.148-.015A.751.751 0 0 0 12.75 12l-.015-.148Zm1.504.37a2.25 2.25 0 0 1-4.478 0L9.75 12A2.25 2.25 0 0 1 12 9.75l.223.01A2.25 2.25 0 0 1 14.25 12l-.01.223Zm3.753.076a6 6 0 0 1-5.694 5.694L12 18a6 6 0 1 1 6-6l-.008.298ZM21.75 12a9.75 9.75 0 1 1-19.502 0 9.75 9.75 0 0 1 19.502 0Z"/>
</svg>
