<svg xmlns="http://www.w3.org/2000/svg" fill="none" viewBox="0 0 24 24">
  <path fill="currentColor" d="M20.47 2.47a.75.75 0 0 1 1.06 1.06l-9.764 9.763c.562.463 1.162.805 1.71.97.722.218 1.235.106 1.58-.258.443-.466.955-.726 1.505-.802.533-.073 1.043.034 1.49.196.448.163.875.396 1.25.62.21.124.38.233.54.332l.475.287.152.092c.737.478 1.141 1.162 1.25 1.922.113.777-.09 1.575-.43 2.268a5.782 5.782 0 0 1-1.442 1.84c-.51.427-1.118.772-1.765.902l-.28.042c-3.726.367-7.419-1.487-10.238-4.207L3.53 21.53a.75.75 0 1 1-1.06-1.06l18-18ZM8.624 16.436c2.619 2.52 5.896 4.084 9.03 3.776l.136-.02c.327-.067.708-.26 1.09-.582.43-.361.81-.843 1.061-1.352.254-.515.35-1.003.293-1.392-.05-.355-.232-.678-.667-.928-.303-.174-.73-.449-1.034-.63a6.038 6.038 0 0 0-.993-.498c-.313-.114-.567-.15-.775-.12-.191.026-.398.112-.622.348-.869.915-2.05.978-3.1.662-.817-.246-1.627-.738-2.339-1.345l-2.08 2.08ZM6.799 2.25c.84-.009 1.632.356 2.205 1.166l.354.481c.395.531.88 1.197 1.17 1.866.204.468.346 1.004.294 1.574-.053.585-.305 1.14-.778 1.638-.257.27-.373.618-.338 1.061l.023.196.01.077a.75.75 0 0 1-1.49.168c-.146-.883.015-1.807.707-2.536.26-.274.352-.52.372-.74.022-.237-.033-.513-.176-.842-.228-.526-.596-1.022-.983-1.544l-.39-.533c-.288-.407-.616-.536-.965-.532-.392.004-.877.182-1.376.531a4.739 4.739 0 0 0-1.25 1.31c-.32.508-.453.963-.436 1.284.114 2.132.981 4.446 2.374 6.557a.75.75 0 0 1-1.206.888l-.046-.062-.275-.43c-1.346-2.166-2.222-4.567-2.345-6.873-.04-.748.256-1.515.666-2.164a6.242 6.242 0 0 1 1.658-1.738c.648-.454 1.424-.795 2.22-.803Z"/>
</svg>
