<svg xmlns="http://www.w3.org/2000/svg" fill="none" viewBox="0 0 24 24">
  <path fill="currentColor" d="M6.8 2.25c.84-.009 1.632.356 2.205 1.166l.353.481c.395.532.88 1.197 1.171 1.866.203.468.345 1.004.293 1.574-.053.585-.305 1.14-.778 1.638-.35.368-.449.903-.225 1.631.226.736.758 1.549 1.46 2.245.702.698 1.51 1.214 2.229 1.422.7.204 1.2.092 1.54-.261l.008-.008c.443-.466.955-.725 1.505-.801.533-.073 1.044.034 1.491.196.448.163.874.396 1.248.62.421.25.686.428 1.017.619.834.48 1.286 1.204 1.402 2.014.112.777-.09 1.575-.431 2.267a5.782 5.782 0 0 1-1.443 1.84c-.581.488-1.292.87-2.043.944-3.836.379-7.636-1.599-10.481-4.445-2.758-2.76-4.746-6.46-5.044-9.964l-.023-.339c-.04-.749.255-1.516.666-2.165a6.24 6.24 0 0 1 1.658-1.737c.648-.454 1.424-.795 2.221-.803Zm.015 1.5c-.393.004-.877.182-1.376.531a4.742 4.742 0 0 0-1.25 1.31c-.321.507-.455.963-.438 1.284l.021.296c.262 3.066 2.035 6.45 4.61 9.026 2.661 2.662 6.043 4.333 9.273 4.014l.136-.02c.326-.067.707-.26 1.09-.58.43-.362.81-.845 1.061-1.354.254-.516.349-1.003.293-1.392a1.187 1.187 0 0 0-.515-.83l-.151-.097c-.303-.174-.731-.45-1.035-.63a6.038 6.038 0 0 0-.993-.498c-.313-.114-.567-.15-.776-.12-.19.025-.394.11-.616.342l-.005.007c-.856.9-2.016.976-3.054.675-1.026-.298-2.044-.98-2.868-1.798-.824-.818-1.519-1.836-1.837-2.868-.32-1.04-.28-2.21.572-3.107.26-.274.352-.52.372-.74.021-.236-.034-.513-.176-.84-.229-.527-.597-1.023-.984-1.546l-.389-.533c-.288-.408-.616-.536-.965-.532Zm10.716 3.78a.751.751 0 0 1-1.062-1.06l1.062 1.06Zm2.996-5.112a.75.75 0 0 1 1.004 1.112L20.061 5l1.47 1.47.05.056A.75.75 0 0 1 20.47 7.53L19 6.06l-1.468 1.47-1.062-1.06L17.94 5l-1.47-1.47a.75.75 0 0 1 1.062-1.06L19 3.938l1.47-1.468.057-.052Z"/>
</svg>
