<svg xmlns="http://www.w3.org/2000/svg" fill="none" viewBox="0 0 24 24">
  <path fill="currentColor" d="M12 3.75a.75.75 0 0 1 .576.27c1.915 2.297 3.98 3.574 6.729 4.794.27.12.445.39.445.686v9.25H21a.75.75 0 0 1 0 1.5H3a.75.75 0 0 1 0-1.5h1.25V9.5a.75.75 0 0 1 .445-.686c2.748-1.22 4.814-2.497 6.729-4.794l.056-.061A.75.75 0 0 1 12 3.75Zm0 1.885c-1.842 2.006-3.84 3.24-6.25 4.347v8.768h1.432c2.34-2.415 3.64-5.026 4.074-8.347l.031-.135a.75.75 0 0 1 1.457.135c.434 3.321 1.734 5.932 4.074 8.347h1.432V9.982c-2.41-1.106-4.408-2.34-6.25-4.347Zm0 8.2c-.613 1.797-1.539 3.407-2.8 4.915h5.6c-1.261-1.508-2.188-3.118-2.8-4.915Z"/>
</svg>
