<svg xmlns="http://www.w3.org/2000/svg" fill="none" viewBox="0 0 24 24">
  <path fill="currentColor" d="M6 2.75c.192 0 .383.03.566.088l.18.067.006.003 1.553.69a.75.75 0 0 1-.538 1.4l-.072-.03-.945-.42V5.57l.002.001 1.553.69.068.035a.751.751 0 0 1-.605 1.364l-.073-.027-.945-.421V9.06c1.78-.969 3.268-2.103 4.674-3.79l.056-.061a.75.75 0 0 1 1.096.06c1.406 1.688 2.895 2.822 4.674 3.79V6.05l-.945.42a.75.75 0 0 1-.61-1.37l1.553-.69a1.847 1.847 0 0 1 1.503 0l1.554.69.068.034a.75.75 0 0 1-.605 1.364l-.073-.027-.945-.421v3.763c.182.085.367.169.555.253a.75.75 0 0 1 .445.685V20H21a.75.75 0 0 1 0 1.5H3A.75.75 0 0 1 3 20h1.25v-9.25a.75.75 0 0 1 .445-.685c.188-.084.373-.168.555-.252v-2.6l-.945.42a.75.75 0 0 1-.61-1.37l1.553-.69.002-.002V4.548l-.945.42a.75.75 0 0 1-.61-1.37l1.553-.69.006-.003A1.87 1.87 0 0 1 6 2.75Zm6 4.135c-1.842 2.006-3.84 3.24-6.25 4.347V20h1.432c2.34-2.415 3.64-5.026 4.074-8.347l.031-.135a.75.75 0 0 1 1.457.135c.434 3.321 1.734 5.932 4.074 8.347h1.432v-8.768c-2.41-1.106-4.408-2.34-6.25-4.347Zm0 8.2c-.613 1.797-1.539 3.407-2.8 4.915h5.6c-1.261-1.508-2.188-3.118-2.8-4.915Z"/>
</svg>
