<svg xmlns="http://www.w3.org/2000/svg" fill="none" viewBox="0 0 24 24">
  <path fill="currentColor" d="M13.25 4.929a1.14 1.14 0 0 0-.355-.822l-.093-.082a1.29 1.29 0 0 0-.8-.275H12c-.34 0-.662.13-.893.354l-.003.002a1.15 1.15 0 0 0-.354.827v8.647l-.008.142a1.05 1.05 0 0 1-.127.383h.001l-.005.007-.005.011h-.002a1.04 1.04 0 0 1-.363.371l.001.002a3.22 3.22 0 0 0-1.132 1.211 3.05 3.05 0 0 0-.357 1.573l.03.301a3.052 3.052 0 0 0 .986 1.821 3.349 3.349 0 0 0 2.304.847h.003a3.321 3.321 0 0 0 2.26-.946 3.05 3.05 0 0 0 .914-2.159l-.006-.195a3.063 3.063 0 0 0-.387-1.302l-.104-.171a3.25 3.25 0 0 0-.996-.98 1.046 1.046 0 0 1-.362-.374l-.002.001-.005-.01-.004-.008a1.054 1.054 0 0 1-.134-.525V4.93Zm1.5 8.428a4.75 4.75 0 0 1 1.412 1.551l.002.002a4.56 4.56 0 0 1 .586 2.235v.003a4.553 4.553 0 0 1-1.208 3.065l-.157.162a4.82 4.82 0 0 1-3.279 1.373 4.85 4.85 0 0 1-3.335-1.226 4.55 4.55 0 0 1-1.516-3.166v-.004A4.552 4.552 0 0 1 7.787 15a4.721 4.721 0 0 1 1.463-1.644v-8.43a2.65 2.65 0 0 1 .817-1.902 2.784 2.784 0 0 1 1.93-.772H12a2.79 2.79 0 0 1 1.931.771l.003.002c.52.501.816 1.185.816 1.905v8.428Z"/>
</svg>
