<svg xmlns="http://www.w3.org/2000/svg" fill="none" viewBox="0 0 24 24">
  <path fill="currentColor" d="M8.25 4.929a1.14 1.14 0 0 0-.355-.822l-.093-.082a1.29 1.29 0 0 0-.8-.275H7c-.34 0-.662.13-.893.353l-.003.003a1.15 1.15 0 0 0-.354.827v8.647l-.008.142c-.017.134-.06.264-.127.382l.001.001-.005.007-.005.011-.002-.001c-.088.153-.212.28-.363.372l.001.002a3.22 3.22 0 0 0-1.132 1.21 3.05 3.05 0 0 0-.357 1.574l.03.301a3.052 3.052 0 0 0 .986 1.821 3.349 3.349 0 0 0 2.304.847h.003a3.32 3.32 0 0 0 2.26-.946 3.05 3.05 0 0 0 .914-2.159l-.006-.195a3.063 3.063 0 0 0-.387-1.302l-.104-.171a3.25 3.25 0 0 0-.996-.98 1.047 1.047 0 0 1-.362-.374l-.002.001-.005-.01-.004-.008a1.053 1.053 0 0 1-.134-.525V4.929Zm7.647-2.516a.75.75 0 0 1 .99 1.123L15.75 4.648v1.603c.081.004.162.017.24.039l.114.039.109.053c.092.05.175.116.248.191l.474.474 1.56-.881.418-1.52.023-.073a.75.75 0 0 1 1.423.47l-.3 1.09 1.13.297.074.022a.75.75 0 0 1-.378 1.444l-.076-.015-1.57-.412-1.49.84V9.69l1.49.841 1.57-.41a.75.75 0 0 1 .38 1.45l-1.13.296.3 1.09.017.075a.75.75 0 0 1-1.44.396l-.023-.074-.418-1.52-1.56-.88-.473.474-.001-.001c-.101.104-.222.19-.357.245a1.061 1.061 0 0 1-.354.077v1.603l1.138 1.113.052.055a.75.75 0 0 1-1.043 1.068l-.057-.051-.84-.821-.84.821a.75.75 0 0 1-1.049-1.072l1.139-1.114V11.75a1.058 1.058 0 0 1-.712-.323l-.965-.964a1.062 1.062 0 0 1-.322-.781L12.25 8.32c-.003-.145.024-.29.08-.425l.053-.108a1.06 1.06 0 0 1 .19-.248l.965-.965a1.06 1.06 0 0 1 .712-.322V4.648l-1.14-1.112a.75.75 0 0 1 .991-1.123l.058.05.84.821.84-.82.057-.051Zm-2.147 6.07v1.034l.733.733h1.034l.733-.733V8.483l-.733-.733h-1.034l-.733.733Zm-4 4.874a4.75 4.75 0 0 1 1.412 1.551l.002.002a4.56 4.56 0 0 1 .586 2.234v.004a4.553 4.553 0 0 1-1.208 3.065l-.157.162a4.82 4.82 0 0 1-3.279 1.373 4.85 4.85 0 0 1-3.335-1.226 4.55 4.55 0 0 1-1.516-3.167v-.003A4.552 4.552 0 0 1 2.787 15a4.721 4.721 0 0 1 1.463-1.644v-8.43a2.65 2.65 0 0 1 .817-1.902 2.784 2.784 0 0 1 1.93-.772H7a2.789 2.789 0 0 1 1.931.771l.003.002c.52.501.816 1.185.816 1.905v8.428Z"/>
</svg>
