<svg xmlns="http://www.w3.org/2000/svg" fill="none" viewBox="0 0 24 24">
  <path fill="currentColor" d="M10.565 2.075a3.33 3.33 0 0 1 2.87 0c.394.19.755.497 1.26.928l.08.066c.48.41.938.604 1.58.655l.101.008c.662.053 1.135.09 1.547.236a3.33 3.33 0 0 1 2.03 2.03c.145.411.182.884.235 1.546l.008.102c.051.641.246 1.1.655 1.58l.066.078c.431.506.74.867.928 1.261a3.33 3.33 0 0 1 0 2.87c-.189.394-.497.755-.928 1.26l-.066.08c-.418.49-.605.95-.655 1.58l-.008.101c-.053.662-.09 1.135-.236 1.547a3.331 3.331 0 0 1-2.029 2.03c-.412.145-.885.182-1.547.235l-.102.008c-.64.051-1.1.246-1.58.655l-.079.066c-.505.431-.866.74-1.26.928a3.33 3.33 0 0 1-2.87 0c-.394-.189-.755-.497-1.26-.928l-.079-.066a2.56 2.56 0 0 0-1.58-.655l-.102-.008c-.662-.053-1.135-.09-1.547-.236a3.33 3.33 0 0 1-2.03-2.029c-.145-.412-.182-.885-.235-1.547l-.008-.102a2.56 2.56 0 0 0-.655-1.58l-.066-.079c-.43-.505-.74-.866-.928-1.26a3.33 3.33 0 0 1 0-2.87c.19-.394.497-.755.928-1.26l.066-.079a2.56 2.56 0 0 0 .655-1.58l.008-.102c.053-.662.09-1.135.236-1.547a3.33 3.33 0 0 1 2.03-2.03c.411-.145.884-.182 1.546-.235l.102-.008a2.56 2.56 0 0 0 1.58-.655l.078-.066c.506-.43.867-.74 1.261-.928Zm4.685 7.92c0-.936-.453-1.652-1.097-2.108-.622-.44-1.408-.637-2.153-.637-.745 0-1.53.196-2.153.637-.643.456-1.097 1.172-1.097 2.107a.75.75 0 0 0 1.5 0c0-.394.172-.675.465-.884.316-.224.78-.36 1.285-.36.505 0 .97.136 1.285.36.292.207.463.486.465.877l-.002.027c-.003.03-.008.08-.02.141a1.403 1.403 0 0 1-.177.445c-.166.267-.542.65-1.55.65a.75.75 0 1 0 0 1.5c1.01 0 1.384.383 1.55.65a1.4 1.4 0 0 1 .2.613c-.003.39-.174.67-.466.877-.316.224-.78.36-1.285.36-.505 0-.969-.136-1.285-.36-.293-.209-.465-.49-.465-.884a.75.75 0 0 0-1.5 0c0 .935.454 1.65 1.097 2.107.622.441 1.408.637 2.153.637.745 0 1.531-.196 2.153-.637.643-.456 1.097-1.172 1.097-2.107v-.002a2.9 2.9 0 0 0-.426-1.398 2.701 2.701 0 0 0-.517-.606c.211-.184.382-.39.517-.606.26-.422.406-.903.426-1.398Z"/>
</svg>
