<svg xmlns="http://www.w3.org/2000/svg" fill="none" viewBox="0 0 24 24">
  <path fill="currentColor" d="M8 9.493c0-1.101.532-1.942 1.293-2.481.739-.524 1.68-.762 2.582-.762.901 0 1.843.238 2.582.762.761.54 1.293 1.38 1.293 2.481v.023l-.001.037a3.252 3.252 0 0 1-.064.484 3.39 3.39 0 0 1-.439 1.107c-.194.31-.453.605-.789.856.336.251.595.546.79.856a3.413 3.413 0 0 1 .502 1.591l.001.037v.022H15h.75c0 1.101-.532 1.943-1.293 2.482-.739.524-1.68.762-2.582.762-.901 0-1.843-.238-2.582-.762C8.532 16.448 8 15.608 8 14.507a.75.75 0 0 1 1.5 0c0 .56.25.966.66 1.258.433.307 1.054.485 1.715.485s1.282-.178 1.715-.485c.409-.29.658-.694.66-1.25v-.005a1.776 1.776 0 0 0-.033-.242 1.914 1.914 0 0 0-.244-.618c-.245-.392-.776-.9-2.098-.9a.75.75 0 0 1 0-1.5c1.322 0 1.853-.508 2.098-.9a1.914 1.914 0 0 0 .277-.857l-.012-.203c-.053-.457-.289-.8-.648-1.055-.433-.307-1.054-.485-1.715-.485s-1.282.178-1.715.485c-.41.292-.66.697-.66 1.258a.75.75 0 0 1-1.5 0Z"/>
</svg>
