<svg xmlns="http://www.w3.org/2000/svg" fill="none" viewBox="0 0 24 24">
  <path fill="currentColor" d="M20.25 9.4c0-1.132 0-1.937-.052-2.566-.044-.543-.124-.905-.247-1.191l-.056-.119A3.25 3.25 0 0 0 18.7 4.23l-.223-.125c-.305-.155-.69-.252-1.31-.302-.63-.052-1.434-.052-2.566-.052H9.4c-1.132 0-1.937 0-2.566.052-.543.044-.905.124-1.191.247l-.119.055A3.25 3.25 0 0 0 4.23 5.301l-.125.223c-.155.305-.252.69-.302 1.31-.052.63-.052 1.434-.052 2.566v5.2c0 1.132 0 1.937.052 2.566.05.62.147 1.005.302 1.31l.125.223c.313.51.76.924 1.295 1.196l.119.056c.286.123.648.203 1.191.247.63.052 1.434.052 2.566.052h5.2c1.132 0 1.937 0 2.566-.052.62-.05 1.005-.147 1.31-.303l.223-.125a3.25 3.25 0 0 0 1.196-1.294l.056-.119c.123-.286.203-.648.247-1.191.052-.63.052-1.434.052-2.566V9.4Zm-11.5.594c0-.935.454-1.65 1.098-2.107.621-.441 1.407-.637 2.152-.637.745 0 1.53.196 2.152.637.644.456 1.098 1.172 1.098 2.107v.02l-.001.034a2.757 2.757 0 0 1-.054.412 2.88 2.88 0 0 1-.37.934 2.667 2.667 0 0 1-.521.606c.212.184.385.39.52.606a2.88 2.88 0 0 1 .425 1.346l.001.033v.02h-.75.75c0 .935-.454 1.652-1.098 2.108-.621.441-1.407.637-2.152.637-.745 0-1.53-.196-2.152-.637-.644-.456-1.098-1.172-1.098-2.107a.75.75 0 0 1 1.5 0c0 .394.171.675.465.884.316.224.78.36 1.285.36.505 0 .97-.136 1.285-.36.293-.208.464-.489.465-.882l-.002-.022a1.384 1.384 0 0 0-.197-.587c-.167-.266-.542-.649-1.551-.649a.75.75 0 0 1 0-1.5c1.009 0 1.384-.383 1.55-.65a1.384 1.384 0 0 0 .198-.586l.002-.029c-.002-.39-.174-.668-.465-.875-.316-.224-.78-.36-1.285-.36-.505 0-.97.136-1.285.36-.294.209-.465.49-.465.884a.75.75 0 0 1-1.5 0Zm13 4.606c0 1.107 0 1.984-.057 2.688-.058.713-.18 1.317-.46 1.868a4.751 4.751 0 0 1-2.077 2.076c-.551.281-1.155.403-1.868.461-.704.058-1.58.057-2.688.057H9.4c-1.107 0-1.983 0-2.688-.057-.713-.058-1.317-.18-1.868-.46a4.752 4.752 0 0 1-2.076-2.077c-.281-.551-.403-1.155-.461-1.868-.058-.704-.057-1.58-.057-2.688V9.4c0-1.107 0-1.983.057-2.688.058-.713.18-1.317.46-1.868a4.752 4.752 0 0 1 2.077-2.076c.551-.281 1.155-.403 1.868-.461.705-.058 1.58-.057 2.688-.057h5.2c1.107 0 1.984 0 2.688.057.713.058 1.317.18 1.868.46a4.752 4.752 0 0 1 2.076 2.077c.281.551.403 1.155.461 1.868.058.705.057 1.58.057 2.688v5.2Z"/>
</svg>
