<svg xmlns="http://www.w3.org/2000/svg" fill="none" viewBox="0 0 24 24">
  <path fill="currentColor" d="M12 1.75c.463 0 .916.124 1.316.355h.001l6.613 3.8.006.003a2.661 2.661 0 0 1 1.314 2.291v7.6l-.005.173a2.652 2.652 0 0 1-1.311 2.123l-.004.001-6.613 3.8a2.628 2.628 0 0 1-2.634 0l-6.613-3.8-.006-.003a2.659 2.659 0 0 1-1.314-2.29V8.2a2.65 2.65 0 0 1 1.316-2.293l.004-.002 6.613-3.8c.4-.233.854-.354 1.317-.354Zm0 1.5c-.2 0-.395.053-.567.153l-.003.002-6.61 3.797h.001a1.151 1.151 0 0 0-.571.997V15.8l.01.15a1.16 1.16 0 0 0 .563.849l6.607 3.797.003.001a1.13 1.13 0 0 0 1.134 0l.003-.002 6.609-3.797.125-.084a1.15 1.15 0 0 0 .446-.912V8.2a1.16 1.16 0 0 0-.573-1L12.57 3.406l-.003-.002A1.13 1.13 0 0 0 12 3.251ZM8.75 9.995c0-.935.454-1.651 1.098-2.108.621-.44 1.407-.636 2.152-.636.745 0 1.53.196 2.152.636.644.457 1.098 1.173 1.098 2.108v.02l-.001.034a2.75 2.75 0 0 1-.054.412c-.052.25-.156.589-.37.933a2.668 2.668 0 0 1-.521.607c.212.184.385.39.52.606a2.88 2.88 0 0 1 .425 1.346l.001.033v.02h-.75.75c0 .935-.454 1.651-1.098 2.108-.621.44-1.407.637-2.152.637-.745 0-1.53-.196-2.152-.637-.644-.457-1.098-1.172-1.098-2.107a.75.75 0 0 1 1.5 0c0 .394.171.675.465.883.316.224.78.36 1.285.36.505 0 .97-.136 1.285-.36.293-.207.464-.488.465-.881l-.002-.022a1.386 1.386 0 0 0-.197-.587c-.167-.267-.542-.65-1.551-.65a.75.75 0 0 1 0-1.5c1.009 0 1.384-.382 1.55-.649a1.384 1.384 0 0 0 .2-.615c-.002-.39-.174-.668-.465-.875-.316-.224-.78-.36-1.285-.36-.505 0-.97.136-1.285.36-.294.208-.465.49-.465.884a.75.75 0 0 1-1.5 0Z"/>
</svg>
