<svg xmlns="http://www.w3.org/2000/svg" fill="none" viewBox="0 0 24 24">
  <path fill="currentColor" d="M21.25 12a1.66 1.66 0 0 0-.377-1.053l-.11-.122-7.589-7.588a1.66 1.66 0 0 0-2.348 0l-7.588 7.588a1.664 1.664 0 0 0-.001 2.35l7.589 7.588.12.11a1.663 1.663 0 0 0 1.69.25c.202-.083.384-.206.538-.36l7.59-7.588A1.663 1.663 0 0 0 21.25 12ZM8.75 9.994c0-.935.454-1.65 1.098-2.107.622-.44 1.407-.638 2.152-.638.746 0 1.531.197 2.153.638.644.457 1.098 1.173 1.098 2.107v.02l-.002.034-.006.099a2.88 2.88 0 0 1-.418 1.247 2.668 2.668 0 0 1-.52.605c.212.184.385.39.52.608a2.882 2.882 0 0 1 .418 1.247c.003.04.005.073.005.098l.003.034v.02h-.75.75c0 .934-.454 1.651-1.098 2.107-.622.441-1.407.637-2.152.637-.745 0-1.531-.196-2.153-.637-.644-.456-1.097-1.172-1.098-2.107a.75.75 0 0 1 1.5 0c0 .395.172.676.465.884.316.224.78.36 1.286.36.504 0 .969-.136 1.285-.36.29-.207.462-.485.465-.875l-.002-.028a1.384 1.384 0 0 0-.197-.587c-.157-.25-.496-.603-1.37-.646l-.181-.004-.078-.004a.75.75 0 0 1 .078-1.496l.181-.005c.873-.043 1.213-.394 1.37-.644a1.389 1.389 0 0 0 .197-.587l.002-.028c-.003-.39-.174-.669-.465-.875-.316-.224-.78-.362-1.285-.362-.505 0-.97.138-1.286.362-.293.208-.464.489-.464.883a.75.75 0 0 1-1.5 0Zm14 2.006a3.16 3.16 0 0 1-.926 2.236l-7.588 7.587a3.16 3.16 0 0 1-4.472 0l-7.587-7.587a3.16 3.16 0 0 1-.107-4.359l.107-.113 7.587-7.587.113-.107a3.16 3.16 0 0 1 4.359.107l7.587 7.587A3.166 3.166 0 0 1 22.75 12Z"/>
</svg>
