<svg xmlns="http://www.w3.org/2000/svg" fill="none" viewBox="0 0 24 24">
  <path fill="currentColor" d="M20.25 8.937a.85.85 0 0 0-.046-.33.846.846 0 0 0-.203-.272l-4.336-4.336a.846.846 0 0 0-.271-.203.851.851 0 0 0-.33-.046H8.936a.85.85 0 0 0-.33.046.859.859 0 0 0-.272.204l-.001-.001-4.335 4.336a.852.852 0 0 0-.201.267.849.849 0 0 0-.048.335v6.127c0 .183.022.271.046.329.023.057.07.138.204.272l4.335 4.336a.85.85 0 0 0 .267.201.846.846 0 0 0 .335.048h6.127a.85.85 0 0 0 .33-.046.846.846 0 0 0 .271-.203L20 15.665a.85.85 0 0 0 .201-.267.845.845 0 0 0 .048-.335V8.938ZM8.75 9.994c0-.935.454-1.65 1.098-2.107.621-.441 1.407-.637 2.152-.637.745 0 1.53.196 2.152.637.644.456 1.098 1.172 1.098 2.107v.02l-.001.034a2.757 2.757 0 0 1-.054.412 2.88 2.88 0 0 1-.37.934 2.667 2.667 0 0 1-.521.606c.212.184.385.39.52.606a2.88 2.88 0 0 1 .425 1.346l.001.033v.02h-.75.75c0 .935-.454 1.652-1.098 2.108-.621.441-1.407.637-2.152.637-.745 0-1.53-.196-2.152-.637-.644-.456-1.098-1.172-1.098-2.107a.75.75 0 0 1 1.5 0c0 .394.171.675.465.884.316.224.78.36 1.285.36.505 0 .97-.136 1.285-.36.293-.208.464-.489.465-.882l-.002-.022a1.384 1.384 0 0 0-.197-.587c-.167-.266-.542-.649-1.551-.649a.75.75 0 0 1 0-1.5c1.009 0 1.384-.383 1.55-.65a1.384 1.384 0 0 0 .198-.586l.002-.029c-.002-.39-.174-.668-.465-.875-.316-.224-.78-.36-1.285-.36-.505 0-.97.136-1.285.36-.294.209-.465.49-.465.884a.75.75 0 0 1-1.5 0Zm13 5.07c0 .312-.04.615-.164.913-.124.297-.31.535-.524.749l-4.336 4.335a2.32 2.32 0 0 1-.763.53 2.32 2.32 0 0 1-.9.159H8.938c-.313 0-.616-.04-.914-.164a2.321 2.321 0 0 1-.749-.524L2.94 16.725a2.326 2.326 0 0 1-.53-.763 2.316 2.316 0 0 1-.159-.9V8.938c0-.313.04-.616.164-.914.124-.297.31-.535.524-.749l4.337-4.337c.222-.22.464-.406.762-.529.298-.122.598-.158.9-.158h6.127c.301 0 .6.036.899.158.299.123.541.31.763.53l4.335 4.336c.222.222.408.464.53.763.123.298.159.598.159.9v6.127Z"/>
</svg>
