<svg xmlns="http://www.w3.org/2000/svg" fill="none" viewBox="0 0 24 24">
  <path fill="currentColor" d="M20.25 12a8.25 8.25 0 1 0-16.5-.001 8.25 8.25 0 0 0 16.5.001ZM8.75 9.994c0-.935.454-1.65 1.098-2.107.621-.441 1.407-.637 2.152-.637.745 0 1.53.196 2.152.637.644.456 1.098 1.172 1.098 2.107v.02l-.001.034a2.757 2.757 0 0 1-.054.412 2.88 2.88 0 0 1-.37.934 2.667 2.667 0 0 1-.521.606c.212.184.385.39.52.606a2.88 2.88 0 0 1 .425 1.346l.001.033v.02h-.75.75c0 .935-.454 1.652-1.098 2.108-.621.441-1.407.637-2.152.637-.745 0-1.53-.196-2.152-.637-.644-.456-1.098-1.172-1.098-2.107a.75.75 0 0 1 1.5 0c0 .394.171.675.465.884.316.224.78.36 1.285.36.505 0 .97-.136 1.285-.36.293-.208.464-.489.465-.882l-.002-.022a1.384 1.384 0 0 0-.197-.587c-.167-.266-.542-.649-1.551-.649a.75.75 0 0 1 0-1.5c1.009 0 1.384-.383 1.55-.65a1.384 1.384 0 0 0 .198-.586l.002-.029c-.002-.39-.174-.668-.465-.875-.316-.224-.78-.36-1.285-.36-.505 0-.97.136-1.285.36-.294.209-.465.49-.465.884a.75.75 0 0 1-1.5 0Zm13 2.006a9.75 9.75 0 1 1-19.502 0 9.75 9.75 0 0 1 19.502 0Z"/>
</svg>
