<svg xmlns="http://www.w3.org/2000/svg" fill="none" viewBox="0 0 24 24">
  <path fill="currentColor" d="M20.25 7a1.25 1.25 0 0 0-.973-1.218L6.811 18.25H19A1.25 1.25 0 0 0 20.25 17v-2.357a2.745 2.745 0 0 1 0-5.287V7Zm-18 10v-3a.75.75 0 0 1 .75-.75 1.25 1.25 0 0 0 1.244-1.126L4.25 12A1.25 1.25 0 0 0 3 10.75a.75.75 0 0 1-.75-.75V7A2.75 2.75 0 0 1 5 4.25h10a.75.75 0 0 1 0 1.5H5A1.25 1.25 0 0 0 3.75 7v2.356a2.747 2.747 0 0 1 2 2.644l-.014.271a2.746 2.746 0 0 1-1.986 2.371V17a.75.75 0 1 1-1.5 0Zm9-1v-.5a.75.75 0 0 1 1.5 0v.5a.75.75 0 1 1-1.5 0Zm0-7.5V8a.75.75 0 0 1 1.5 0v.5a.75.75 0 0 1-1.5 0Zm10.5 1.5a.75.75 0 0 1-.75.75 1.25 1.25 0 0 0 0 2.5.75.75 0 0 1 .75.75v3A2.75 2.75 0 0 1 19 19.75H5.31l-1.78 1.78a.75.75 0 1 1-1.06-1.06l18-18a.75.75 0 1 1 1.06 1.06l-1.116 1.115c.19.115.37.25.53.41A2.75 2.75 0 0 1 21.75 7v3Z"/>
</svg>
