<svg xmlns="http://www.w3.org/2000/svg" fill="none" viewBox="0 0 24 24">
  <path fill="currentColor" d="M14.572 6.91a2.517 2.517 0 0 1 .738-1.78l1.35-1.35a4.11 4.11 0 0 0-4.48 5.188l.085.268c.157.443.08.98-.294 1.354l-8.14 8.14a.275.275 0 0 0-.036.345l.035.042 1.053 1.053a.272.272 0 0 0 .386 0l8.14-8.14.148-.127c.36-.264.817-.307 1.206-.169a4.112 4.112 0 0 0 5.48-3.628l.007-.246c0-.175-.012-.347-.033-.517L18.87 8.69a2.517 2.517 0 0 1-4.298-1.78Zm1.5 0a1.02 1.02 0 0 0 1.018 1.017 1.018 1.018 0 0 0 .72-.297l1.722-1.723c.554-.555 1.622-.5 1.972.338l.06.178.08.348a5.6 5.6 0 0 1 .106 1.089l-.01.336a5.61 5.61 0 0 1-4.836 5.224 5.609 5.609 0 0 1-2.529-.236L6.33 21.23a1.773 1.773 0 0 1-2.508 0L2.77 20.178a1.773 1.773 0 0 1 0-2.508l8.045-8.045a5.608 5.608 0 0 1 1.196-5.569 5.61 5.61 0 0 1 5.568-1.62v.001c1.005.266 1.104 1.442.515 2.031L16.37 6.19a1.02 1.02 0 0 0-.298.72Z"/>
</svg>
