<svg xmlns="http://www.w3.org/2000/svg" fill="none" viewBox="0 0 24 24">
  <path fill="currentColor" d="M6.844 18.714a.75.75 0 0 1 .872-.5l.074.021.371.114c1.872.529 3.946.494 5.927.134l.076-.01a.75.75 0 0 1 .191 1.486l-.426.072c-2.007.318-4.161.331-6.177-.239l-.43-.132-.072-.027a.75.75 0 0 1-.406-.92Zm9.405-3.166a.75.75 0 0 1 .463 1.425l-.254.092c-1.293.448-2.892.66-4.458.66-1.566 0-3.165-.212-4.458-.66l-.254-.092-.07-.032a.75.75 0 0 1 .606-1.37c1.112.426 2.625.654 4.176.654 1.551 0 3.064-.228 4.176-.654l.073-.023Zm2.087-3.16a.75.75 0 0 1 .73 1.308l-.253.145c-.625.325-1.492.579-2.446.766-1.113.22-2.424.364-3.776.406-2.501.077-5.285-.193-7.237-1.102l-.378-.19-.066-.04a.75.75 0 0 1 .711-1.313l.07.033.311.157c1.618.749 4.106 1.03 6.543.956 1.28-.04 2.51-.177 3.532-.378 1.046-.206 1.801-.466 2.192-.71l.067-.038Zm2.257-3.227a.75.75 0 0 1 .593 1.378c-2.546 1.095-5.885 1.521-9.17 1.473-3.292-.05-6.612-.577-9.15-1.453l.245-.71.244-.708c2.358.814 5.516 1.324 8.684 1.37 3.175.048 6.278-.37 8.554-1.35Zm-18.19.444a.75.75 0 0 1 .952-.464l-.489 1.418a.75.75 0 0 1-.464-.954ZM12 3.75c2.788 0 5.33.182 7.19.48.923.149 1.714.33 2.29.55a3 3 0 0 1 .78.411c.206.162.49.464.49.914 0 .438-.235.765-.475.98-.236.211-.538.372-.85.5-.626.257-1.475.455-2.432.607-1.928.308-4.47.46-6.993.46-2.523 0-5.065-.152-6.993-.46-.957-.152-1.806-.35-2.433-.607-.31-.128-.613-.289-.85-.5-.21-.188-.415-.463-.463-.821l-.011-.159.005-.102c.048-.497.438-.796.667-.938.291-.18.67-.324 1.084-.446.838-.246 1.999-.447 3.357-.594a.75.75 0 0 1 .161 1.492l-.94.115c-.89.123-1.62.268-2.155.426a5.346 5.346 0 0 0-.343.113c.019.008.038.018.059.026.466.192 1.18.368 2.098.515 1.822.29 4.28.44 6.757.44 2.477 0 4.935-.15 6.757-.44.917-.147 1.632-.323 2.098-.515.021-.008.04-.019.06-.027-.438-.161-1.1-.32-1.963-.46-1.76-.282-4.218-.46-6.952-.46a.75.75 0 0 1 0-1.5Z"/>
</svg>
