<svg xmlns="http://www.w3.org/2000/svg" fill="none" viewBox="0 0 24 24">
  <path fill="currentColor" d="M18.25 11.75H5.75V15A2.25 2.25 0 0 0 8 17.25h8l.223-.01A2.25 2.25 0 0 0 18.25 15v-3.25ZM7.25 15v-1a.75.75 0 0 1 1.5 0v1a.75.75 0 0 1-1.5 0Zm8 0v-1a.75.75 0 0 1 1.5 0v1a.75.75 0 0 1-1.5 0Zm-2.5-4.75h5.5v-3.5h-5.5v3.5Zm-7 0h5.5v-3.5h-5.5v3.5ZM8 3.75a2.25 2.25 0 0 0-1.59.66c-.24.238-.417.527-.528.84h12.236a2.247 2.247 0 0 0-.527-.84A2.25 2.25 0 0 0 16 3.75H8ZM19.75 15a3.75 3.75 0 0 1-2.494 3.532l1.368 2.052.04.066a.75.75 0 0 1-1.242.828l-.046-.062-1.777-2.666H8.4l-1.777 2.666a.75.75 0 1 1-1.248-.832l1.367-2.052A3.749 3.749 0 0 1 4.25 15V6A3.75 3.75 0 0 1 8 2.25h8A3.75 3.75 0 0 1 19.75 6v9Z"/>
</svg>
