<svg xmlns="http://www.w3.org/2000/svg" fill="none" viewBox="0 0 24 24">
  <path fill="currentColor" d="M18.074 8.254a.75.75 0 0 1 .672.82l-.84 8.399c-.062.624-.112 1.136-.186 1.55-.076.422-.187.8-.398 1.15h.001c-.33.551-.817.992-1.397 1.267-.369.173-.758.244-1.186.278-.418.032-.932.032-1.56.032h-2.36c-.627 0-1.141 0-1.56-.032-.428-.034-.816-.106-1.185-.28a3.25 3.25 0 0 1-1.4-1.264c-.209-.35-.318-.729-.394-1.151a11.413 11.413 0 0 1-.098-.696l-.09-.854-.84-8.399-.003-.076a.75.75 0 0 1 1.484-.148l.012.076.839 8.397.088.831c.027.235.053.431.084.603.06.333.126.513.204.643.178.297.441.534.754.682.138.065.324.114.662.14.347.028.792.028 1.443.028h2.36c.651 0 1.097 0 1.444-.027.337-.027.522-.075.66-.14l.115-.06a1.75 1.75 0 0 0 .638-.622h.001c.079-.131.145-.31.205-.643.062-.343.106-.786.171-1.435l.84-8.397a.75.75 0 0 1 .82-.672ZM9.75 15.5v-5a.75.75 0 0 1 1.5 0v5a.75.75 0 0 1-1.5 0Zm3 0v-5a.75.75 0 0 1 1.5 0v5a.75.75 0 0 1-1.5 0Zm.769-13.25c.798 0 1.442.546 1.67 1.263l.04.145.012.063.293 2.029H19.5a.75.75 0 0 1 0 1.5h-15a.75.75 0 0 1 0-1.5h3.966l.293-2.03.012-.06c.181-.79.86-1.41 1.71-1.41h3.038Zm-3.038 1.5c-.075 0-.199.06-.245.23l-.255 1.77h4.038l-.256-1.768c-.047-.173-.17-.232-.244-.232H10.48Z"/>
</svg>
