<svg xmlns="http://www.w3.org/2000/svg" fill="none" viewBox="0 0 24 24">
  <path fill="currentColor" d="M13.519 2.25c.798 0 1.442.546 1.67 1.263l.04.145.012.063.293 2.029H19.5a.75.75 0 0 1 0 1.5h-.769l-.87 10.156c-.054.633-.098 1.152-.168 1.572-.07.428-.176.813-.385 1.168h-.001a3.248 3.248 0 0 1-1.186 1.174l-.215.113c-.372.177-.765.25-1.198.284-.424.033-.944.033-1.58.033h-2.256c-.636 0-1.157 0-1.581-.033-.379-.03-.727-.089-1.057-.222l-.14-.062a3.25 3.25 0 0 1-1.402-1.288c-.209-.355-.314-.74-.385-1.168-.035-.21-.064-.444-.09-.706l-.078-.865-.87-10.156H4.5a.75.75 0 0 1 0-1.5h3.966l.293-2.03.012-.06c.181-.79.86-1.41 1.71-1.41h3.038ZM7.633 17.277c.056.657.096 1.107.153 1.455.056.34.122.521.2.654.176.3.44.543.754.693l.115.047c.128.043.298.075.554.096.352.027.803.028 1.463.028h2.256c.66 0 1.111 0 1.463-.028.343-.027.53-.077.669-.143l.115-.06c.264-.152.485-.37.64-.633.077-.133.143-.315.199-.654.058-.348.097-.798.153-1.455l.859-10.027H6.774l.859 10.027ZM10.48 3.75c-.075 0-.199.06-.245.23L9.98 5.75h4.038l-.256-1.768c-.047-.173-.17-.232-.244-.232H10.48Z"/>
</svg>
