<svg xmlns="http://www.w3.org/2000/svg" fill="none" viewBox="0 0 24 24">
  <path fill="currentColor" d="m6.108 5.75.064.042c.252.154.666.32 1.243.47 1.144.296 2.766.488 4.585.488 1.82 0 3.44-.192 4.585-.489.578-.15.991-.315 1.243-.47a.641.641 0 0 0 .064-.041l-.064-.042c-.252-.154-.665-.32-1.243-.47C15.44 4.943 13.82 4.75 12 4.75c-1.82 0-3.44.192-4.585.489-.577.15-.99.315-1.243.47l-.064.041Zm-1.602.12a1 1 0 0 1-.006-.12c0-.657.5-1.082.89-1.32.43-.265 1.005-.477 1.649-.643C8.34 3.45 10.092 3.25 12 3.25c1.908 0 3.662.2 4.961.537.644.166 1.22.378 1.65.642.39.239.89.664.89 1.321v.012a1.23 1.23 0 0 1-.022.218l-1.715 12.091a4 4 0 0 1-.852 1.924 3.75 3.75 0 0 1-1.704 1.187l-.246.082a9.27 9.27 0 0 1-5.924 0l-.246-.082a3.74 3.74 0 0 1-1.704-1.187 4 4 0 0 1-.852-1.925v-.009L4.52 5.981a1 1 0 0 1-.015-.112"/>
</svg>
