<svg xmlns="http://www.w3.org/2000/svg" fill="none" viewBox="0 0 24 24">
  <path fill="currentColor" d="M12 3.25c1.909 0 3.662.2 4.96.537.645.167 1.22.378 1.651.643.39.238.889.663.889 1.32l-.001.02a.763.763 0 0 1-.004.078l-.003.034-1.726 12.18-.001.01a4.022 4.022 0 0 1-.853 1.923 3.744 3.744 0 0 1-1.703 1.187l-.249.083a9.27 9.27 0 0 1-5.923-.001l-.246-.083-.002-.001a3.75 3.75 0 0 1-1.702-1.187 4.017 4.017 0 0 1-.85-1.922l-.003-.01L4.508 5.884v-.002l-.002-.031A.754.754 0 0 1 4.5 5.77v-.02c0-.657.5-1.082.889-1.32.431-.265 1.006-.476 1.65-.643C8.338 3.45 10.092 3.25 12 3.25Zm5.753 4.217c-.247.09-.513.173-.792.246-1.299.337-3.052.537-4.961.537-1.909 0-3.662-.2-4.96-.537a8.773 8.773 0 0 1-.794-.246L7.72 17.85c.07.446.255.86.529 1.195l.001.002c.267.329.622.575 1.022.712l.245.083a7.771 7.771 0 0 0 4.966 0l.002-.001.246-.082a2.245 2.245 0 0 0 1.019-.713c.274-.337.46-.75.53-1.196l1.473-10.384ZM12 4.75c-1.82 0-3.44.192-4.585.488-.578.15-.992.316-1.243.47-.023.014-.042.03-.06.042.018.012.037.028.06.042.251.154.665.32 1.243.47 1.144.296 2.766.488 4.585.488 1.82 0 3.44-.192 4.585-.488.578-.15.992-.316 1.243-.47.023-.014.04-.03.059-.042-.018-.012-.036-.028-.059-.042-.251-.154-.665-.32-1.243-.47-1.144-.296-2.766-.488-4.585-.488Z"/>
</svg>
