<svg xmlns="http://www.w3.org/2000/svg" fill="none" viewBox="0 0 24 24">
  <path fill="currentColor" d="M5.951 2.323c2.707-.414 5.25.989 6.3 3.476 1.217-.568 2.636-.672 3.96-.46 1.55.25 3.077.949 4.138 2.002l.206.215.05.06a.75.75 0 0 1-1.106 1.002l-.055-.054-.154-.161c-.8-.791-2.017-1.373-3.317-1.582-.796-.128-1.583-.11-2.289.062 2.214 1.35 3.465 4.055 2.918 6.72a.75.75 0 1 1-1.47-.3c.476-2.321-.838-4.666-2.936-5.489-.242.548-.39 1.226-.442 2.018-.069 1.043.033 2.238.27 3.497.475 2.52 1.474 5.212 2.592 7.32a.75.75 0 0 1-.662 1.1H9.617a.751.751 0 0 1-.665-.402c-1.403-2.68-1.65-5.975-1.148-8.793.253-1.414.7-2.738 1.31-3.83a7.379 7.379 0 0 1 1.1-1.514 5.67 5.67 0 0 0-5.59 2.45.75.75 0 0 1-1.25-.83 7.17 7.17 0 0 1 7.162-3.087c-.948-1.505-2.713-2.274-4.583-1.898l-.076.012a.75.75 0 0 1-.22-1.482l.294-.052Zm4.304 7.453c-.433.863-.771 1.905-.974 3.042-.433 2.427-.238 5.18.804 7.432h2.657c-.952-2.02-1.766-4.386-2.191-6.643-.25-1.326-.37-2.637-.296-3.83Z"/>
</svg>
