<svg xmlns="http://www.w3.org/2000/svg" fill="none" viewBox="0 0 24 24">
  <path fill="currentColor" d="M11.25 21v-2.746c-.76.007-1.466.009-2.119-.107-.815-.145-1.556-.464-2.352-1.09l-.344-.288c-.615-.54-1.724-1.834-2.383-3.215-.33-.69-.583-1.476-.549-2.241.037-.813.401-1.57 1.217-2.082l.002-.001a.864.864 0 0 0 .108-.081c.026-.023.044-.046.06-.064-.13-.752-.136-1.699.281-2.523.448-.886 1.312-1.49 2.62-1.621.083-.265.183-.587.293-.866.14-.356.347-.775.694-1.09.384-.346.882-.515 1.471-.445.492.06 1.021.283 1.6.644.265-.2.556-.409.86-.573.373-.202.826-.376 1.327-.36 1.072.035 1.847.878 2.44 2.284.662.224 1.47.637 2.042 1.298.314.364.566.815.664 1.352.093.51.036 1.053-.178 1.618.884.473 1.349 1.207 1.466 2.047.111.798-.097 1.633-.402 2.371-.534 1.29-1.467 2.531-2.159 3.237l-.28.269c-.933.83-1.772 1.235-2.71 1.408-.67.123-1.39.124-2.169.118V21a.75.75 0 0 1-1.5 0Zm2.738-17.25c-.127-.004-.307.04-.565.18a6.575 6.575 0 0 0-.835.573 1.179 1.179 0 0 1-1.371.056l-.003-.002c-.569-.377-.932-.502-1.145-.527-.169-.02-.231.02-.284.067-.088.08-.19.239-.305.528-.117.295-.199.59-.32.962v.001a1.2 1.2 0 0 1-1.055.832h-.01c-.99.06-1.394.441-1.585.82-.197.389-.238.91-.165 1.447l.038.23v.001c.086.453-.107.827-.275 1.051a2.224 2.224 0 0 1-.591.533c-.363.229-.499.515-.515.878-.018.412.122.938.403 1.528.563 1.177 1.54 2.312 2.021 2.735l.274.23c.624.492 1.143.699 1.693.796.692.123 1.43.081 2.606.081h.009l1.502.003a6.79 6.79 0 0 0 1.136-.093c.636-.118 1.23-.381 1.985-1.053.545-.486 1.535-1.713 2.05-2.96.257-.622.362-1.168.304-1.59-.052-.373-.234-.693-.704-.94a1.526 1.526 0 0 1-.663-.711 1.341 1.341 0 0 1-.039-1.07c.152-.37.168-.658.127-.882a1.347 1.347 0 0 0-.324-.64c-.362-.419-.956-.73-1.491-.895l-.007-.002a1.19 1.19 0 0 1-.742-.69c-.556-1.372-1.003-1.472-1.154-1.477Z"/>
</svg>
