<svg xmlns="http://www.w3.org/2000/svg" fill="none" viewBox="0 0 24 24">
  <path fill="currentColor" d="M14.25 19v-1.25h-3.5V21a.75.75 0 0 1-1.5 0v-3.25H3a.75.75 0 0 1-.616-1.177l3.685-5.323H4.5a.75.75 0 0 1-.604-1.193l5.5-7.5.056-.069a.75.75 0 0 1 1.153.069l2.444 3.333 1.42-1.42.061-.055a.751.751 0 0 1 1.075.142l5.5 7.5a.75.75 0 0 1-.605 1.193h-1.467l2.559 3.29A.75.75 0 0 1 21 17.75h-5.25V19a.75.75 0 0 1-1.5 0ZM5.98 9.75H7.5a.75.75 0 0 1 .616 1.177L4.431 16.25h11.138l-3.685-5.323A.75.75 0 0 1 12.5 9.75h1.52L10 4.268 5.98 9.75Zm7.966-2.637 2.159 2.944a.75.75 0 0 1-.605 1.193h-1.57l3.463 5h2.074l-2.559-3.29a.75.75 0 0 1 .592-1.21h1.52l-4.108-5.603-.966.966Z"/>
</svg>
