<svg xmlns="http://www.w3.org/2000/svg" fill="none" viewBox="0 0 24 24">
  <path fill="currentColor" d="M11.25 21v-3.25H5a.75.75 0 0 1-.53-1.28l3.22-3.22H6.5a.75.75 0 0 1-.563-1.246l3.649-4.136 1.702-5.105.047-.11a.75.75 0 0 1 1.377.11l1.7 5.105 3.65 4.136a.75.75 0 0 1-.562 1.246h-1.19l3.22 3.22a.75.75 0 0 1-.53 1.28h-6.25V21a.75.75 0 0 1-1.5 0Zm-.288-12.513a.75.75 0 0 1-.15.26l-2.65 3.003H9.5a.75.75 0 0 1 .53 1.28l-3.22 3.22h10.38l-3.22-3.22a.75.75 0 0 1 .53-1.28h1.338l-2.65-3.004a.75.75 0 0 1-.15-.259L12 5.373l-1.038 3.114Z"/>
</svg>
