<svg xmlns="http://www.w3.org/2000/svg" fill="none" viewBox="0 0 24 24">
  <path fill="currentColor" d="M20.75 10a.75.75 0 0 1-1.5 0V8.83l-3.113 3.162 3.113 3.173V14a.75.75 0 0 1 1.5 0v3a.75.75 0 0 1-.75.75h-3a.75.75 0 0 1 0-1.5h1.214l-3.13-3.19-.396.404-.002.002c-.665.672-1.409.857-2.143.749-.653-.096-1.286-.428-1.769-.668-.542-.27-.941-.453-1.302-.49-.283-.03-.573.025-.928.397l-.009.009-4.001 4.063a.75.75 0 0 1-1.068-1.052l4-4.063c.667-.694 1.41-.925 2.162-.846.678.07 1.321.394 1.815.64.554.276.952.472 1.318.525.283.042.544 0 .86-.32l4.588-4.66h-1.21a.75.75 0 0 1 0-1.5h3a.75.75 0 0 1 .75.75v3Z"/>
</svg>
