<svg xmlns="http://www.w3.org/2000/svg" fill="none" viewBox="0 0 24 24">
  <path fill="currentColor" d="M3.473 6.466a.75.75 0 0 1 1.004-.044l.057.052 4 4.063.01.008c.355.372.645.428.927.398.361-.037.76-.22 1.303-.49.483-.24 1.116-.572 1.769-.668.734-.108 1.477.077 2.143.75l.002.001 4.562 4.633V10a.75.75 0 1 1 1.5 0v7a.75.75 0 0 1-.75.75h-7a.75.75 0 0 1 0-1.5h5.209l-4.588-4.66-.116-.107a.862.862 0 0 0-.745-.213c-.365.053-.763.25-1.317.525-.494.246-1.138.57-1.815.64-.756.08-1.502-.154-2.17-.855L3.466 7.526l-.051-.057a.75.75 0 0 1 .058-1.003Z"/>
</svg>
