<svg xmlns="http://www.w3.org/2000/svg" fill="none" viewBox="0 0 24 24">
  <path fill="currentColor" d="M12 2.25c1.418 0 2.462.91 3.417 2.257.956 1.35 1.97 3.351 3.272 5.916l.327.643c1.08 2.127 1.93 3.8 2.374 5.137.448 1.349.551 2.554-.12 3.624h-.002c-.669 1.065-1.8 1.511-3.219 1.719-1.41.206-3.307.204-5.722.204h-.653c-2.416 0-4.312.002-5.723-.204-1.42-.208-2.551-.653-3.22-1.72-.67-1.07-.569-2.273-.121-3.622.444-1.338 1.295-3.01 2.374-5.138l.327-.643c1.303-2.565 2.316-4.566 3.273-5.916C9.538 3.159 10.582 2.25 12 2.25Zm0 1.5c-.662 0-1.315.385-2.193 1.624-.657.928-1.359 2.218-2.228 3.905l-.93 1.823-.327.643c-1.103 2.173-1.888 3.726-2.288 4.932-.397 1.194-.347 1.85-.032 2.352.317.506.898.847 2.166 1.032 1.276.187 3.04.189 5.506.189h.653c2.465 0 4.23-.002 5.506-.189 1.267-.185 1.849-.526 2.166-1.032l.056-.095c.264-.49.284-1.138-.088-2.257-.3-.904-.817-2.004-1.522-3.414l-.767-1.518-.327-.643c-1.325-2.61-2.281-4.49-3.158-5.728C13.315 4.134 12.661 3.75 12 3.75Z"/>
</svg>
