<svg xmlns="http://www.w3.org/2000/svg" fill="none" viewBox="0 0 24 24">
  <path fill="currentColor" d="M14.043 6a.25.25 0 0 0-.25-.25H4a.25.25 0 0 0-.25.25v9.16c.491-1.17 1.629-2 2.974-2 1.545 0 2.815 1.097 3.147 2.544h4.172V6Zm-7.32 8.66c-.939 0-1.732.786-1.732 1.794 0 1.01.794 1.796 1.733 1.796.939 0 1.733-.787 1.733-1.795 0-1.009-.794-1.796-1.733-1.796Zm11.175 0c-.94 0-1.734.786-1.734 1.794 0 1.01.794 1.796 1.733 1.796.94 0 1.732-.786 1.732-1.796 0-1.009-.793-1.795-1.732-1.795Zm-2.355-.46a3.184 3.184 0 0 1 4.707 0v-2.531l-2.302-2.36a1.25 1.25 0 0 0-.894-.377h-1.511v5.267Zm0-6.768h1.51a2.754 2.754 0 0 1 1.968.829l2.516 2.58a.75.75 0 0 1 .213.523v5.09c0 .4-.312.724-.706.747-.33 1.45-1.6 2.549-3.146 2.549-1.546 0-2.817-1.097-3.149-2.546H9.871C9.54 18.652 8.27 19.75 6.724 19.75c-1.545 0-2.816-1.098-3.148-2.546H3a.75.75 0 0 1-.75-.75V6A1.75 1.75 0 0 1 4 4.25h9.793A1.75 1.75 0 0 1 15.543 6v1.432Z"/>
</svg>
