<svg xmlns="http://www.w3.org/2000/svg" fill="none" viewBox="0 0 24 24">
  <path fill="currentColor" d="M20.25 9.154c0-.829-.61-1.404-1.25-1.404H5c-.64 0-1.25.575-1.25 1.404v9.692l.007.152c.07.747.644 1.252 1.243 1.252h14c.64 0 1.25-.575 1.25-1.404V9.154Zm1.5 9.692c0 1.55-1.18 2.904-2.75 2.904H5c-1.473 0-2.601-1.19-2.736-2.616l-.014-.288V9.154C2.25 7.604 3.43 6.25 5 6.25h3.994L4.96 3.629a.75.75 0 0 1 .817-1.258l5.972 3.879h.042l6.455-3.893a.75.75 0 0 1 .774 1.286L14.697 6.25H19c1.57 0 2.75 1.353 2.75 2.904v9.692Z"/>
</svg>
