<svg xmlns="http://www.w3.org/2000/svg" fill="none" viewBox="0 0 24 24">
  <path fill="currentColor" d="M8.037 2.408a2.3 2.3 0 0 1 .9-.158h6.126c.302 0 .602.036.9.158.298.122.54.31.762.53l4.337 4.337c.22.22.408.463.53.762.123.298.158.598.158.9v6.126c0 .313-.04.616-.163.914a2.299 2.299 0 0 1-.525.748l-4.337 4.337a2.299 2.299 0 0 1-.762.53 2.3 2.3 0 0 1-.9.158H8.937c-.313 0-.616-.04-.914-.163a2.3 2.3 0 0 1-.748-.525l-4.337-4.337a2.3 2.3 0 0 1-.53-.762 2.3 2.3 0 0 1-.158-.9V8.937c0-.313.039-.616.163-.914a2.3 2.3 0 0 1 .525-.748l4.337-4.337c.22-.22.463-.408.762-.53Zm2.213 7.929c0-.58.207-.956.473-1.195.279-.251.67-.392 1.085-.392.415 0 .806.14 1.085.392.265.239.472.616.472 1.195 0 .862-.564 1.77-1.49 2.704-.692.698-1.484 1.313-2.195 1.864a78.46 78.46 0 0 0-.65.51.75.75 0 0 0 .47 1.335h5a.75.75 0 1 0 0-1.5h-2.84c.433-.357.876-.745 1.28-1.153.982-.99 1.925-2.271 1.925-3.76 0-.98-.37-1.77-.97-2.31-.586-.528-1.348-.777-2.087-.777-.74 0-1.502.249-2.09.777-.6.54-.968 1.33-.968 2.31a.75.75 0 1 0 1.5 0Z"/>
</svg>
