<svg xmlns="http://www.w3.org/2000/svg" fill="none" viewBox="0 0 24 24">
  <path fill="currentColor" d="M20.25 8.937a.85.85 0 0 0-.046-.33.846.846 0 0 0-.203-.272l-4.336-4.336a.846.846 0 0 0-.271-.203.851.851 0 0 0-.33-.046H8.936a.85.85 0 0 0-.33.046.859.859 0 0 0-.272.204l-.001-.001-4.335 4.336a.852.852 0 0 0-.201.267.849.849 0 0 0-.048.335v6.127c0 .183.022.271.046.329.023.057.07.138.204.272l4.335 4.336a.85.85 0 0 0 .267.201.846.846 0 0 0 .335.048h6.127a.85.85 0 0 0 .33-.046.846.846 0 0 0 .271-.203L20 15.665a.85.85 0 0 0 .201-.267.845.845 0 0 0 .048-.335V8.938Zm-6.885 1.4c0-.579-.207-.956-.472-1.195a1.624 1.624 0 0 0-1.085-.392c-.415 0-.806.14-1.085.392-.266.239-.473.616-.473 1.195a.75.75 0 0 1-1.5 0c0-.98.37-1.77.97-2.31.586-.528 1.348-.777 2.088-.777.739 0 1.501.249 2.088.776.6.54.97 1.332.97 2.31 0 1.49-.944 2.771-1.926 3.762-.325.327-.675.64-1.024.935.744-.018 1.575.01 2.338.148l.428.092.073.022a.75.75 0 0 1-.361 1.447l-.076-.015-.343-.073c-.827-.148-1.82-.146-2.678-.093a19.885 19.885 0 0 0-1.646.174l-.022.004h-.005a.75.75 0 0 1-.593-1.324c.844-.677 1.93-1.453 2.844-2.374.925-.933 1.49-1.841 1.49-2.704Zm8.385 4.726c0 .313-.04.616-.164.914-.124.297-.31.535-.524.749l-4.336 4.335a2.32 2.32 0 0 1-.763.53 2.32 2.32 0 0 1-.9.159H8.938c-.313 0-.616-.04-.914-.164a2.321 2.321 0 0 1-.749-.524L2.94 16.725a2.326 2.326 0 0 1-.53-.763 2.316 2.316 0 0 1-.159-.9V8.938c0-.313.04-.616.164-.914.124-.297.31-.535.524-.749l4.337-4.337c.222-.22.464-.406.762-.529.298-.122.598-.158.9-.158h6.127c.301 0 .6.036.899.158.299.123.541.31.763.53l4.335 4.336c.222.222.408.464.53.763.123.298.159.598.159.9v6.127Z"/>
</svg>
