<svg xmlns="http://www.w3.org/2000/svg" fill="none" viewBox="0 0 24 24">
  <path fill="currentColor" d="M20.25 12a8.25 8.25 0 1 0-16.5-.001 8.25 8.25 0 0 0 16.5.001Zm-6.885-1.663c0-.579-.207-.956-.472-1.195a1.624 1.624 0 0 0-1.085-.392c-.415 0-.806.14-1.085.392-.266.239-.473.616-.473 1.195a.75.75 0 0 1-1.5 0c0-.98.37-1.77.97-2.31.586-.528 1.348-.777 2.088-.777.739 0 1.501.249 2.088.776.6.54.97 1.332.97 2.31 0 1.49-.944 2.771-1.926 3.762-.325.327-.675.64-1.024.935.744-.018 1.575.01 2.338.148l.428.092.073.022a.75.75 0 0 1-.361 1.447l-.076-.015-.343-.073c-.827-.148-1.82-.146-2.678-.093a19.885 19.885 0 0 0-1.646.174l-.022.004h-.005a.75.75 0 0 1-.593-1.324c.844-.677 1.93-1.453 2.844-2.374.925-.933 1.49-1.841 1.49-2.704ZM21.75 12a9.75 9.75 0 1 1-19.502 0 9.75 9.75 0 0 1 19.502 0Z"/>
</svg>
