<svg xmlns="http://www.w3.org/2000/svg" fill="none" viewBox="0 0 24 24">
  <path fill="currentColor" d="M12 1.751c.463 0 .916.123 1.316.354h.001l6.613 3.8.006.003A2.661 2.661 0 0 1 21.25 8.2v7.6l-.005.174a2.651 2.651 0 0 1-1.311 2.122l-.004.002-6.613 3.8v-.002a2.628 2.628 0 0 1-2.634 0L4.07 18.097l-.006-.004a2.66 2.66 0 0 1-1.314-2.29V8.2a2.651 2.651 0 0 1 1.316-2.293l.004-.002 6.613-3.8c.4-.232.854-.354 1.317-.354Zm0 1.5c-.2 0-.395.052-.567.152l-.003.002-6.61 3.797.001.001a1.151 1.151 0 0 0-.571.996v7.602l.01.15a1.16 1.16 0 0 0 .563.848l6.607 3.797.003.002a1.13 1.13 0 0 0 1.134 0l.003-.002 6.609-3.798.125-.084a1.152 1.152 0 0 0 .446-.912v-7.6a1.16 1.16 0 0 0-.573-1L12.57 3.405l-.003-.002A1.13 1.13 0 0 0 12 3.251Zm1.365 7.086c0-.579-.207-.956-.472-1.195a1.624 1.624 0 0 0-1.085-.392c-.415 0-.806.14-1.085.392-.266.239-.473.616-.473 1.195a.75.75 0 0 1-1.5 0c0-.98.37-1.77.97-2.31.586-.528 1.348-.777 2.088-.777.739 0 1.501.25 2.088.777.599.54.97 1.33.97 2.31 0 1.49-.944 2.77-1.926 3.76-.325.328-.674.64-1.023.936.885-.021 1.895.022 2.765.24a.75.75 0 0 1-.288 1.47l-.076-.015-.343-.074c-.827-.148-1.82-.146-2.678-.093a19.885 19.885 0 0 0-1.646.174l-.022.004-.005.001a.751.751 0 0 1-.593-1.325c.844-.677 1.93-1.453 2.844-2.374.925-.933 1.49-1.841 1.49-2.704Z"/>
</svg>
