<svg xmlns="http://www.w3.org/2000/svg" fill="none" viewBox="0 0 24 24">
  <path fill="currentColor" d="M21.25 12a1.66 1.66 0 0 0-.377-1.053l-.11-.121-7.589-7.59a1.66 1.66 0 0 0-2.348 0l-7.588 7.59a1.663 1.663 0 0 0-.001 2.348l7.589 7.59.12.109a1.662 1.662 0 0 0 1.69.25c.202-.083.384-.206.538-.36l7.59-7.588A1.664 1.664 0 0 0 21.25 12Zm-7.884-1.663c0-.578-.208-.956-.474-1.195a1.622 1.622 0 0 0-1.084-.392c-.414 0-.806.141-1.085.392-.266.24-.473.617-.473 1.195a.75.75 0 0 1-1.5 0c0-.979.37-1.77.97-2.31.586-.528 1.349-.777 2.088-.777.74 0 1.502.249 2.088.777.6.54.97 1.331.97 2.31 0 1.49-.944 2.771-1.926 3.761-.325.327-.675.64-1.024.936.744-.018 1.576.009 2.338.147l.428.092.073.022a.75.75 0 0 1-.361 1.448l-.076-.015-.343-.073c-.827-.149-1.819-.148-2.678-.094a19.76 19.76 0 0 0-1.554.16l-.092.015-.022.003h-.004a.75.75 0 0 1-.594-1.324c.844-.676 1.93-1.452 2.845-2.373.925-.933 1.49-1.842 1.49-2.705Zm9.384 1.664a3.159 3.159 0 0 1-.926 2.235l-7.588 7.588a3.16 3.16 0 0 1-4.472 0l-7.587-7.588a3.16 3.16 0 0 1-.107-4.359l.107-.113 7.587-7.587.113-.107a3.16 3.16 0 0 1 4.359.107l7.587 7.587a3.166 3.166 0 0 1 .927 2.237Z"/>
</svg>
