<svg xmlns="http://www.w3.org/2000/svg" fill="none" viewBox="0 0 24 24">
  <path fill="currentColor" d="M10.79 1.49a3.16 3.16 0 0 1 3.445.687l7.588 7.588a3.16 3.16 0 0 1 0 4.47l-7.588 7.588a3.16 3.16 0 0 1-4.47 0l-7.588-7.588a3.16 3.16 0 0 1 0-4.47l7.588-7.59a3.2 3.2 0 0 1 1.025-.684m-.54 8.847c0-.58.207-.956.473-1.195.28-.251.67-.392 1.085-.392.415 0 .806.14 1.085.392.265.239.472.616.472 1.195 0 .862-.564 1.77-1.49 2.704-.692.698-1.484 1.313-2.195 1.864a78.46 78.46 0 0 0-.65.51.75.75 0 0 0 .47 1.335h5a.75.75 0 0 0 0-1.5h-2.84c.433-.357.876-.745 1.28-1.153.982-.99 1.925-2.271 1.925-3.76 0-.98-.37-1.77-.969-2.31-.587-.528-1.349-.777-2.088-.777-.739 0-1.502.249-2.089.777-.6.54-.969 1.33-.969 2.31a.75.75 0 1 0 1.5 0Z"/>
</svg>
