<svg xmlns="http://www.w3.org/2000/svg" fill="none" viewBox="0 0 24 24">
  <path fill="currentColor" d="M13.77 9.92c0-.772-.28-1.296-.653-1.632-.387-.349-.923-.538-1.482-.538-.56 0-1.095.19-1.482.538-.374.336-.653.86-.653 1.632a.75.75 0 0 1-1.5 0c0-1.173.442-2.11 1.15-2.748.694-.625 1.601-.922 2.485-.922.883 0 1.79.297 2.485.922.708.637 1.15 1.575 1.15 2.748 0 1.784-1.132 3.338-2.353 4.569a22.057 22.057 0 0 1-1.688 1.51c1.215-.059 2.705-.039 3.953.273a.75.75 0 0 1-.288 1.47l-.076-.014-.216-.05c-1.1-.235-2.463-.236-3.618-.164a24.879 24.879 0 0 0-2.075.22l-.028.005h-.007a.751.751 0 0 1-.593-1.324c1.044-.838 2.42-1.82 3.571-2.982 1.164-1.173 1.917-2.356 1.918-3.513Z"/>
</svg>
