<svg xmlns="http://www.w3.org/2000/svg" fill="none" viewBox="0 0 24 24">
  <path fill="currentColor" d="M20.25 20v-.661c-.888.655-1.948 1.083-2.92 1.216-.792.107-1.634.035-2.307-.381-.721-.445-1.125-1.208-1.125-2.189 0-.983.399-1.745 1.011-2.307.588-.54 1.352-.88 2.092-1.116.747-.236 1.534-.385 2.206-.503.41-.073.758-.133 1.043-.19v-.418c0-.724-.212-1.1-.442-1.311-.249-.227-.635-.369-1.161-.395-1.076-.054-2.38.392-3.068.828l-.067.038a.75.75 0 0 1-.737-1.304l.177-.107c.924-.532 2.421-1.021 3.77-.954.73.037 1.502.242 2.097.786.613.56.931 1.38.931 2.42V20a.75.75 0 0 1-1.5 0ZM7.764 3.25a.75.75 0 0 1 .719.536l4.766 16 .018.074a.75.75 0 0 1-1.43.426l-.025-.072-1.34-4.494H5.058L3.72 20.214a.75.75 0 0 1-1.438-.428l4.764-16a.75.75 0 0 1 .719-.536ZM5.503 14.22h4.522L7.764 6.627 5.503 14.22Zm9.895 3.765c0 .53.19.775.413.913.27.166.718.252 1.316.17 1.14-.155 2.43-.86 3.123-1.818v-1.854c-.255.048-.522.094-.782.14-.668.118-1.37.252-2.013.456-.65.206-1.176.464-1.531.79-.33.304-.526.676-.526 1.203Z"/>
</svg>
