<svg xmlns="http://www.w3.org/2000/svg" fill="none" viewBox="0 0 24 24">
  <path fill="currentColor" d="M18.745 16.314a3.77 3.77 0 0 0-1.085-2.468 3.694 3.694 0 0 0-2.44-1.091l-.182-.005H5.75v7.5h9.288a3.69 3.69 0 0 0 2.622-1.096l.127-.134c.62-.691.964-1.588.963-2.52l-.005-.186ZM16.25 7.5c0-1.02-.362-1.985-.982-2.684C14.65 4.121 13.83 3.75 13 3.75H5.75v7.5H13c.831 0 1.648-.37 2.268-1.066.62-.699.982-1.663.982-2.684Zm1.5 0c0 1.365-.48 2.69-1.361 3.68-.062.07-.127.137-.193.203a5.185 5.185 0 0 1 2.53 1.407 5.272 5.272 0 0 1 1.524 3.71l-.006.259a5.271 5.271 0 0 1-1.517 3.451l-.001-.001a5.19 5.19 0 0 1-3.431 1.534l-.257.007H5a.75.75 0 0 1-.75-.75V3A.75.75 0 0 1 5 2.25h8c1.29 0 2.507.577 3.389 1.57.879.989 1.361 2.315 1.361 3.68Z"/>
</svg>
