<svg xmlns="http://www.w3.org/2000/svg" fill="none" viewBox="0 0 24 24">
  <path fill="currentColor" d="m11.25 13.81-4 4v.963c0 .665.251 1.114.596 1.409.36.307.868.48 1.404.48.536 0 1.043-.173 1.404-.48.345-.294.596-.744.596-1.409V13.81ZM12 2.25c1.295 0 2.577.232 3.786.686l.514.208.068.035a.75.75 0 0 1-.668 1.34 9.25 9.25 0 0 0-3.699-.77c-4.561 0-8.35 3.303-9.11 7.646.62-.385 1.231-.637 1.863-.716 1.131-.143 2.16.285 3.233 1.064a.75.75 0 1 1-.88 1.214c-.93-.674-1.574-.864-2.166-.79-.632.08-1.376.48-2.453 1.402A.75.75 0 0 1 1.25 13C1.25 7.064 6.063 2.252 12 2.252Zm2.113 8.697a7.209 7.209 0 0 1 1.553 1.059c1.068-.838 2.07-1.354 3.152-1.354.787 0 1.531.272 2.29.743a9.225 9.225 0 0 0-.691-2.236 9.227 9.227 0 0 0-1.848-2.668l-4.456 4.456Zm-1.363 7.826c0 1.095-.437 1.965-1.123 2.55-.67.572-1.538.84-2.377.84-.839 0-1.707-.268-2.377-.84-.578-.492-.977-1.187-1.09-2.047L3.53 21.53a.75.75 0 1 1-1.06-1.06l18-18a.75.75 0 1 1 1.06 1.06l-1.9 1.899A10.73 10.73 0 0 1 22.75 13a.75.75 0 0 1-1.238.568c-1.22-1.044-2.01-1.417-2.694-1.417-.683 0-1.475.372-2.694 1.417a.75.75 0 0 1-1.018-.039c-.757-.756-1.471-1.214-2.14-1.435l-.216.215v6.463Z"/>
</svg>
