<svg xmlns="http://www.w3.org/2000/svg" fill="none" viewBox="0 0 24 24">
  <path fill="currentColor" d="M5.75 18.773a.75.75 0 0 1 1.5 0c0 .665.251 1.114.596 1.409.36.308.868.48 1.404.48.536 0 1.043-.172 1.404-.48.345-.294.596-.744.596-1.409V12.03c-.734.19-1.518.664-2.355 1.501a.75.75 0 0 1-1.019.04c-1.22-1.046-2.01-1.418-2.694-1.418-.684 0-1.475.373-2.694 1.417A.75.75 0 0 1 1.25 13C1.25 7.063 6.063 2.25 12 2.25S22.75 7.063 22.75 13a.75.75 0 0 1-1.238.57c-1.22-1.045-2.01-1.418-2.694-1.418-.683 0-1.475.373-2.694 1.417a.75.75 0 0 1-1.018-.039c-.838-.837-1.622-1.311-2.356-1.5v6.743c0 1.095-.437 1.965-1.123 2.55-.67.572-1.538.84-2.377.84-.839 0-1.707-.268-2.377-.84-.686-.585-1.123-1.456-1.123-2.55ZM12 3.75c-4.561 0-8.35 3.301-9.11 7.645.759-.471 1.505-.743 2.292-.743 1.08 0 2.082.516 3.148 1.352 1.151-1.005 2.377-1.572 3.67-1.572 1.293 0 2.518.567 3.669 1.572 1.066-.836 2.068-1.352 3.15-1.352.786 0 1.531.272 2.29.743C20.348 7.05 16.56 3.75 12 3.75Z"/>
</svg>
