<svg xmlns="http://www.w3.org/2000/svg" fill="none" viewBox="0 0 24 24">
  <path fill="currentColor" d="M13.95 7.8c0-.852-.001-1.447-.039-1.91-.037-.453-.105-.714-.206-.911a2.251 2.251 0 0 0-.983-.984c-.198-.1-.459-.17-.912-.207-.463-.038-1.057-.038-1.91-.038H7.8c-.852 0-1.447 0-1.91.038-.453.037-.714.106-.911.207a2.25 2.25 0 0 0-.984.984c-.1.197-.17.458-.207.912-.038.462-.038 1.057-.038 1.909v2.1c0 .853 0 1.447.038 1.91.037.453.106.714.207.912.216.423.56.767.984.983.197.1.458.17.912.206.462.038 1.057.04 1.909.04h1.5a.75.75 0 0 1 .75.75v1.5c0 .851.001 1.446.039 1.908.037.454.105.715.206.912.216.424.56.768.983.984.198.1.459.17.912.207.463.038 1.057.038 1.91.038h2.1c.852 0 1.447 0 1.91-.038.453-.037.714-.107.912-.207.423-.216.767-.56.983-.983.1-.198.17-.459.207-.913.038-.462.038-1.057.038-1.909v-2.1c0-.853 0-1.447-.038-1.91-.037-.453-.106-.714-.207-.912a2.251 2.251 0 0 0-.983-.983c-.198-.1-.46-.17-.913-.206-.462-.038-1.057-.04-1.909-.04h-1.5a.75.75 0 0 1-.75-.75V7.8Zm1.5.75h.75c.828 0 1.494 0 2.031.044.547.044 1.027.139 1.471.365a3.75 3.75 0 0 1 1.639 1.639c.226.444.321.924.366 1.47.044.538.043 1.204.043 2.032v2.1c0 .828.001 1.494-.043 2.031-.045.547-.14 1.027-.366 1.471a3.75 3.75 0 0 1-1.639 1.639c-.444.226-.924.321-1.47.366-.538.044-1.204.043-2.032.043h-2.1c-.828 0-1.494.001-2.032-.043-.546-.045-1.026-.14-1.47-.366a3.75 3.75 0 0 1-1.639-1.639c-.226-.444-.32-.924-.365-1.47-.044-.538-.044-1.204-.044-2.032v-.75H7.8c-.828 0-1.494 0-2.031-.044-.547-.044-1.027-.139-1.471-.365a3.75 3.75 0 0 1-1.639-1.639c-.226-.444-.321-.924-.366-1.47-.044-.538-.043-1.204-.043-2.032V7.8c0-.828-.001-1.494.043-2.031.045-.547.14-1.027.366-1.471a3.75 3.75 0 0 1 1.639-1.639c.444-.226.924-.321 1.47-.366.538-.044 1.204-.043 2.032-.043h2.1c.828 0 1.494-.001 2.032.043.546.045 1.026.14 1.47.366a3.75 3.75 0 0 1 1.639 1.639c.226.444.32.924.365 1.47.044.538.044 1.204.044 2.032v.75Z"/>
</svg>
