<svg xmlns="http://www.w3.org/2000/svg" fill="none" viewBox="0 0 24 24">
  <path fill="currentColor" d="M7.496 10.469a.75.75 0 0 1 1.058 1.062l-3.891 3.881c-1.163 1.16-1.236 2.826-.095 4.019 1.102 1.152 2.823 1.066 4.01-.12l3.892-3.88a.75.75 0 1 1 1.059 1.062l-3.892 3.88c-1.676 1.673-4.37 1.958-6.153.095-1.743-1.821-1.584-4.42.12-6.118l3.892-3.881ZM14.25 21v-1.5a.75.75 0 0 1 1.5 0V21a.75.75 0 0 1-1.5 0ZM21 14.25a.75.75 0 0 1 0 1.5h-1.5a.75.75 0 0 1 0-1.5H21ZM14.372 3.58c1.708-1.708 4.464-1.8 6.155-.107l.153.16c1.532 1.701 1.396 4.34-.26 5.995l-3.902 3.902a.75.75 0 0 1-1.06-1.06l3.902-3.903c1.092-1.092 1.166-2.747.294-3.826l-.188-.208c-1.063-1.064-2.868-1.058-4.034.108L11.53 8.542a.75.75 0 1 1-1.06-1.06l3.902-3.902ZM4.5 8.25a.75.75 0 0 1 0 1.5H3a.75.75 0 0 1 0-1.5h1.5ZM8.25 4.5V3a.75.75 0 0 1 1.5 0v1.5a.75.75 0 0 1-1.5 0Z"/>
</svg>
