<svg xmlns="http://www.w3.org/2000/svg" fill="none" viewBox="0 0 24 24">
  <path fill="currentColor" d="M12 7.5a1.75 1.75 0 1 0 0 3.5 1.75 1.75 0 0 0 0-3.5Z"/>
  <path fill="currentColor" d="M12 1.25a3.16 3.16 0 0 0-2.235.926L2.177 9.765a3.16 3.16 0 0 0 0 4.47l4.206 4.207C7.001 15.546 9.545 14.11 12 14.11s5 1.436 5.617 4.332l4.206-4.207a3.16 3.16 0 0 0 0-4.47l-7.588-7.588A3.16 3.16 0 0 0 12 1.25Zm-3.25 8a3.25 3.25 0 1 1 6.5 0 3.25 3.25 0 0 1-6.5 0Z"/>
  <path fill="currentColor" d="m16.253 19.805-.002-.267c-.134-2.608-2.137-3.928-4.25-3.928-2.115 0-4.118 1.32-4.252 3.928l-.002.267 2.018 2.018a3.16 3.16 0 0 0 4.47 0l2.018-2.018Z"/>
</svg>
