<svg xmlns="http://www.w3.org/2000/svg" fill="none" viewBox="0 0 24 24">
  <path fill="currentColor" d="M12 13.81c2.433 0 4.953 1.411 5.599 4.256L20 15.665a.85.85 0 0 0 .201-.267.845.845 0 0 0 .048-.335V8.938a.85.85 0 0 0-.046-.33.846.846 0 0 0-.203-.272L15.664 4a.846.846 0 0 0-.271-.203.851.851 0 0 0-.33-.046H8.936a.85.85 0 0 0-.33.046.859.859 0 0 0-.272.204L8.333 4 3.998 8.336a.852.852 0 0 0-.201.267.849.849 0 0 0-.048.335v6.127c0 .183.022.271.046.329.023.057.07.138.204.272l2.4 2.401c.646-2.845 3.167-4.256 5.6-4.256Zm0 1.5c-2.11 0-4.11 1.315-4.25 3.915v.19l.585.586a.85.85 0 0 0 .267.201.846.846 0 0 0 .335.048h6.127a.85.85 0 0 0 .33-.046.846.846 0 0 0 .271-.203l.585-.585v-.191c-.14-2.6-2.14-3.915-4.25-3.915Zm1.741-6.233a1.75 1.75 0 1 0 .009.173l-.009-.173Zm1.505.334a3.25 3.25 0 1 1 .004-.161l-.004.161Zm6.504 5.652c0 .313-.04.616-.164.914-.124.297-.31.535-.524.749l-4.336 4.335a2.32 2.32 0 0 1-.763.53 2.32 2.32 0 0 1-.9.159H8.938c-.313 0-.616-.04-.914-.164a2.321 2.321 0 0 1-.749-.524L2.94 16.725a2.326 2.326 0 0 1-.53-.763 2.316 2.316 0 0 1-.159-.9V8.938c0-.313.04-.616.164-.914.124-.297.31-.535.524-.749l4.337-4.337c.222-.22.464-.406.762-.529.298-.122.598-.158.9-.158h6.127c.301 0 .6.036.899.158.299.123.541.31.763.53l4.335 4.336c.222.222.408.464.53.763.123.298.159.598.159.9v6.127Z"/>
</svg>
