<svg xmlns="http://www.w3.org/2000/svg" fill="none" viewBox="0 0 24 24">
  <path fill="currentColor" d="M20.25 12a8.25 8.25 0 1 0-13.787 6.116C7.196 15.438 9.639 14.11 12 14.11c2.36 0 4.803 1.33 5.536 4.007A8.25 8.25 0 0 0 20.25 12ZM12 15.61c-1.99 0-3.882 1.17-4.208 3.485a8.25 8.25 0 0 0 8.415 0c-.326-2.315-2.217-3.486-4.207-3.486Zm1.741-6.533a1.75 1.75 0 1 0 .009.173l-.009-.173ZM21.75 12a9.75 9.75 0 0 1-2.855 6.895c-.42.42-.878.796-1.365 1.131a.743.743 0 0 1-.247.164 9.74 9.74 0 0 1-1.552.818 9.75 9.75 0 0 1-7.462 0 9.743 9.743 0 0 1-1.553-.818.745.745 0 0 1-.247-.164 9.746 9.746 0 0 1-1.364-1.131A9.75 9.75 0 1 1 21.75 12Zm-6.504-2.589a3.25 3.25 0 1 1 .004-.161l-.004.161Z"/>
</svg>
