<svg xmlns="http://www.w3.org/2000/svg" fill="none" viewBox="0 0 24 24">
  <path fill="currentColor" d="M16.25 19.5c0-.461-.316-1.007-1.1-1.478-.77-.462-1.882-.772-3.15-.772s-2.38.31-3.15.772c-.784.47-1.1 1.017-1.1 1.478a.75.75 0 0 1-1.5 0c0-1.195.804-2.15 1.83-2.764 1.039-.624 2.427-.986 3.92-.986 1.493 0 2.881.362 3.92.986 1.026.615 1.83 1.569 1.83 2.764a.75.75 0 0 1-1.5 0Zm-14-3c0-.884.446-1.645 1.086-2.22.638-.574 1.504-1.001 2.474-1.255a.75.75 0 0 1 .38 1.45c-.796.21-1.43.542-1.851.92-.419.376-.589.76-.589 1.105a.75.75 0 0 1-1.5 0Zm18 0c0-.346-.17-.729-.589-1.105-.368-.33-.9-.626-1.56-.835l-.291-.084-.074-.024a.75.75 0 0 1 .38-1.443l.074.016.359.103c.824.26 1.557.65 2.115 1.152.64.575 1.086 1.336 1.086 2.22a.75.75 0 0 1-1.5 0Zm-6-6a2.25 2.25 0 1 0-4.5.001 2.25 2.25 0 0 0 4.5 0ZM7.794 3.768a3.751 3.751 0 0 1 2.703.934.75.75 0 0 1-.994 1.124 2.25 2.25 0 0 0-3.156 3.198l.21.21a.75.75 0 0 1-1 1.107l-.06-.049-.135-.128a3.75 3.75 0 0 1 2.432-6.396Zm8.417-.025a3.75 3.75 0 0 1 2.286 6.555l-.06.048a.75.75 0 0 1-.934-1.172 2.249 2.249 0 1 0-3-3.353.75.75 0 0 1-1.006-1.113 3.75 3.75 0 0 1 2.714-.965ZM15.75 10.5a3.75 3.75 0 1 1-7.5 0 3.75 3.75 0 0 1 7.5 0Z"/>
</svg>
