<svg xmlns="http://www.w3.org/2000/svg" fill="none" viewBox="0 0 24 24">
  <path fill="currentColor" d="M12.999 18.665a1.847 1.847 0 0 0-.008-.14 5.659 5.659 0 0 0-.402-.226l-.002-.001-.134-.072a5.622 5.622 0 0 0-.404-.206L12 18.003l-.049.017a5.433 5.433 0 0 0-.405.205l-.133.073h-.002c-.21.113-.32.173-.396.223l-.006.003a2 2 0 0 0-.007.142c-.002.072-.002.156-.002.263v.142l.001.264c.001.063.004.108.007.14l.007.005c.037.024.084.052.147.087l.25.134.001.001.132.071.25.131c.065.033.114.058.156.076.023.009.04.013.049.016.01-.003.026-.007.049-.016.085-.036.197-.095.406-.207l.132-.07.002-.002c.21-.111.32-.172.396-.221l.005-.005c.003-.033.007-.077.008-.141.002-.072.002-.156.002-.263v-.142l-.001-.264ZM12 12.75c3.819 0 7.735 2.406 8.214 7.236l.035.476v.077a.75.75 0 0 1-1.49.075l-.008-.076-.028-.386c-.386-3.928-3.506-5.902-6.723-5.902-3.32 0-6.538 2.103-6.751 6.288a.75.75 0 1 1-1.498-.076C4.013 15.314 8.058 12.75 12 12.75Zm2.25-5.25a2.25 2.25 0 1 0-4.5 0 2.25 2.25 0 0 0 4.5 0Zm.25 11.571c0 .194.001.398-.018.573-.02.195-.07.412-.203.627l-.003.003c-.132.21-.303.35-.463.456-.149.098-.333.194-.517.293l-.133.073h-.002c-.185.1-.368.198-.534.267-.18.076-.386.137-.627.137s-.446-.061-.627-.137c-.165-.069-.35-.168-.534-.266l-.002-.001-.134-.073c-.183-.097-.368-.195-.515-.293a1.515 1.515 0 0 1-.464-.456 1.431 1.431 0 0 1-.206-.63c-.019-.175-.018-.38-.018-.573v-.142c0-.194-.001-.398.018-.573.02-.195.07-.412.203-.627l.003-.003c.132-.21.303-.35.463-.456.149-.099.334-.196.518-.294l.132-.072h.002c.185-.1.368-.198.534-.267.18-.076.386-.137.627-.137s.446.061.627.137c.083.034.17.076.26.122l.274.144.002.001.132.072.272.146c.088.049.171.098.245.148.12.079.247.177.359.31l.105.146.087.162c.072.161.104.321.12.467.018.176.017.38.017.574v.142ZM15.75 7.5a3.75 3.75 0 1 1-7.5-.001 3.75 3.75 0 0 1 7.5.001Z"/>
</svg>
