<svg xmlns="http://www.w3.org/2000/svg" fill="none" viewBox="0 0 24 24">
  <path fill="currentColor" d="M14.25 19.75c0-1.093-.568-2.419-1.557-3.483C11.711 15.21 10.398 14.5 9 14.5c-1.398 0-2.711.71-3.693 1.767-.99 1.064-1.557 2.39-1.557 3.483a.75.75 0 0 1-1.5 0c0-1.558.776-3.232 1.958-4.505C5.398 13.965 7.085 13 9 13s3.602.965 4.792 2.245c1.182 1.273 1.958 2.947 1.958 4.505a.75.75 0 0 1-1.5 0Zm6 0c0-.87-.357-1.997-1.005-2.991-.608-.933-1.41-1.655-2.275-1.96l-.174-.054-.072-.025a.75.75 0 0 1 .405-1.436l.075.018.259.08c1.278.448 2.318 1.452 3.039 2.558.77 1.182 1.248 2.59 1.248 3.81a.75.75 0 0 1-1.5 0Zm-9-12.5a2.25 2.25 0 1 0-4.5 0 2.25 2.25 0 0 0 4.5 0Zm6 0A2.25 2.25 0 0 0 15 5a.75.75 0 0 1 0-1.5 3.75 3.75 0 0 1 3.75 3.75l-.005.186A3.75 3.75 0 0 1 15 11a.75.75 0 0 1 0-1.5 2.25 2.25 0 0 0 2.24-2.027l.01-.223Zm-4.5 0a3.75 3.75 0 1 1-7.5 0 3.75 3.75 0 0 1 7.5 0Z"/>
</svg>
