<svg xmlns="http://www.w3.org/2000/svg" fill="none" viewBox="0 0 24 24">
  <path fill="currentColor" d="M21.25 12a1.66 1.66 0 0 0-.377-1.053l-.11-.121-7.589-7.59a1.66 1.66 0 0 0-2.348 0l-7.588 7.59a1.663 1.663 0 0 0-.001 2.348l3.619 3.62c1.02-2.021 3.14-2.994 5.177-2.984 2.016.01 4.101.986 5.11 2.984l3.62-3.619A1.664 1.664 0 0 0 21.25 12Zm-9.225 3.31c-1.75-.009-3.413.895-4.026 2.626l2.827 2.827.12.11a1.662 1.662 0 0 0 1.69.25c.202-.083.384-.206.538-.36l2.828-2.827c-.609-1.715-2.245-2.617-3.977-2.626Zm1.726-6.06a1.75 1.75 0 1 0-3.502.002 1.75 1.75 0 0 0 3.502-.002ZM22.75 12a3.159 3.159 0 0 1-.926 2.236l-7.588 7.588a3.16 3.16 0 0 1-4.472 0l-7.587-7.588a3.16 3.16 0 0 1-.107-4.359l.107-.113 7.587-7.587.113-.107a3.16 3.16 0 0 1 4.359.107l7.587 7.587a3.166 3.166 0 0 1 .927 2.237Zm-7.5-2.75a3.25 3.25 0 1 1-6.5 0 3.25 3.25 0 0 1 6.5 0Z"/>
</svg>
