<svg xmlns="http://www.w3.org/2000/svg" fill="none" viewBox="0 0 24 24">
  <path fill="currentColor" d="M12 12.75c3.819 0 7.735 2.406 8.214 7.236l.035.476v.077a.75.75 0 0 1-1.49.075l-.008-.076-.028-.386c-.386-3.928-3.506-5.902-6.723-5.902-3.32 0-6.538 2.103-6.751 6.288a.75.75 0 1 1-1.498-.076C4.013 15.314 8.058 12.75 12 12.75Zm1.134 4.06a.75.75 0 0 1 1.216.88l-2.1 2.906h-.001a.974.974 0 0 1-1.522.07l-1.034-1.18-.047-.06a.75.75 0 0 1 1.123-.984l.053.056.599.684 1.713-2.371ZM14.25 7.5a2.25 2.25 0 1 0-4.5 0 2.25 2.25 0 0 0 4.5 0Zm1.5 0a3.75 3.75 0 1 1-7.5-.001 3.75 3.75 0 0 1 7.5.001Z"/>
</svg>
