<svg xmlns="http://www.w3.org/2000/svg" fill="none" viewBox="0 0 24 24">
  <path fill="currentColor" d="M12 13.81c2.728 0 5.566 1.774 5.749 5.352l.001.038v.924c.302-.055.53-.129.726-.229l.223-.125a3.25 3.25 0 0 0 1.196-1.294l.056-.119c.123-.286.203-.648.247-1.191.052-.63.052-1.434.052-2.566V9.4c0-1.132 0-1.937-.052-2.566-.044-.543-.124-.905-.247-1.191l-.056-.119A3.25 3.25 0 0 0 18.7 4.23l-.223-.125c-.305-.155-.69-.252-1.31-.302-.63-.052-1.434-.052-2.566-.052H9.4c-1.132 0-1.937 0-2.566.052-.543.044-.905.124-1.191.247l-.119.055A3.25 3.25 0 0 0 4.23 5.301l-.125.223c-.155.305-.252.69-.302 1.31-.052.63-.052 1.434-.052 2.566v5.2c0 1.132 0 1.937.052 2.566.05.62.147 1.005.302 1.31l.125.223c.313.51.76.924 1.295 1.196l.119.056c.168.073.364.13.607.173V19.2l.001-.038c.182-3.578 3.02-5.352 5.748-5.352Zm0 1.5c-2.11 0-4.11 1.315-4.25 3.915v1.013c.462.01 1.003.012 1.65.012h5.2c.648 0 1.188-.002 1.65-.012v-1.013c-.14-2.6-2.14-3.915-4.25-3.915Zm1.741-6.233a1.75 1.75 0 1 0 .009.173l-.009-.173ZM21.75 14.6c0 1.107 0 1.984-.057 2.688-.058.713-.18 1.317-.46 1.868a4.751 4.751 0 0 1-2.077 2.076c-.551.281-1.155.403-1.868.461-.704.058-1.58.057-2.688.057H9.4c-1.107 0-1.983 0-2.688-.057-.713-.058-1.317-.18-1.868-.46a4.752 4.752 0 0 1-2.076-2.077c-.281-.551-.403-1.155-.461-1.868-.058-.704-.057-1.58-.057-2.688V9.4c0-1.107 0-1.983.057-2.688.058-.713.18-1.317.46-1.868a4.752 4.752 0 0 1 2.077-2.076c.551-.281 1.155-.403 1.868-.461.705-.058 1.58-.057 2.688-.057h5.2c1.107 0 1.984 0 2.688.057.713.058 1.317.18 1.868.46a4.752 4.752 0 0 1 2.076 2.077c.281.551.403 1.155.461 1.868.058.705.057 1.58.057 2.688v5.2Zm-6.504-5.19a3.25 3.25 0 1 1 .004-.161l-.004.161Z"/>
</svg>
