<svg xmlns="http://www.w3.org/2000/svg" fill="none" viewBox="0 0 24 24">
  <path fill="currentColor" d="M12 7.5a1.75 1.75 0 1 0 0 3.5 1.75 1.75 0 0 0 0-3.5Z"/>
  <path fill="currentColor" d="M8.937 2.25a2.3 2.3 0 0 0-.9.158c-.3.122-.54.31-.762.53L2.938 7.275c-.213.214-.4.45-.525.748a2.3 2.3 0 0 0-.163.914v6.126c0 .302.036.602.158.9.122.298.31.54.53.762l3.312 3.312v-.575c.184-3.58 3.022-5.352 5.75-5.352s5.566 1.773 5.749 5.352v.575l3.313-3.312c.213-.214.4-.45.524-.748.116-.29.172-.601.164-.914V8.937a2.298 2.298 0 0 0-.158-.9 2.298 2.298 0 0 0-.53-.762l-4.337-4.337a2.3 2.3 0 0 0-.762-.53 2.3 2.3 0 0 0-.9-.158H8.937Zm-.187 7a3.25 3.25 0 1 1 6.5 0 3.25 3.25 0 0 1-6.5 0Z"/>
  <path fill="currentColor" d="m16.262 21.439-.011-1.9c-.134-2.61-2.137-3.93-4.251-3.93-2.114 0-4.117 1.32-4.251 3.93-.002.03-.005.698-.01 1.9.088.055.183.105.284.148.298.124.6.163.914.163h6.126c.302 0 .602-.035.9-.158.106-.043.206-.095.299-.153Z"/>
</svg>
