<svg xmlns="http://www.w3.org/2000/svg" fill="none" viewBox="0 0 24 24">
  <path fill="currentColor" d="M14.75 8.25a1.25 1.25 0 0 0-1.126-1.244L13.5 7H5a1.25 1.25 0 0 0-1.25 1.25v7.5A1.25 1.25 0 0 0 5 17h8.5a1.25 1.25 0 0 0 1.25-1.25v-7.5Zm2 2.79v1.55l3.5 3.119V7.922l-3.5 3.118Zm-.5-1.564 3.419-3.045c.18-.16.404-.266.642-.302l.18-.014c.119 0 .238.015.353.048l.169.062.158.086c.1.064.192.142.27.232l.109.144.086.157c.075.163.114.34.114.521v8.902l-.013.18a1.252 1.252 0 0 1-2.067.755h-.001l-3.419-3.047v1.595a2.75 2.75 0 0 1-2.75 2.75H5a2.75 2.75 0 0 1-2.75-2.75v-7.5A2.75 2.75 0 0 1 5 5.5h8.5a2.75 2.75 0 0 1 2.75 2.75v1.226Z"/>
</svg>
