<svg xmlns="http://www.w3.org/2000/svg" fill="none" viewBox="0 0 24 24">
  <path fill="currentColor" d="M14.75 10.31 8.06 17h5.44a1.25 1.25 0 0 0 1.25-1.25v-5.44Zm-12.5 5.44v-7.5A2.75 2.75 0 0 1 5 5.5h8.5a.75.75 0 0 1 0 1.5H5a1.25 1.25 0 0 0-1.25 1.25v7.5a.75.75 0 1 1-1.5 0Zm14.5-4.71v1.55l3.5 3.119V7.922l-3.5 3.118Zm-.5 4.71a2.75 2.75 0 0 1-2.75 2.75H6.56l-3.03 3.03a.75.75 0 1 1-1.06-1.06l18-18a.75.75 0 1 1 1.06 1.06l-5.28 5.28v.666l3.419-3.045a1.255 1.255 0 0 1 1.175-.268l.169.062.158.085c.1.065.192.143.27.233l.109.143.086.158c.075.163.114.34.114.521v8.902l-.013.18a1.252 1.252 0 0 1-2.067.755h-.001l-3.419-3.047v1.595Z"/>
</svg>
