<svg xmlns="http://www.w3.org/2000/svg" fill="none" viewBox="0 0 24 24">
  <path fill="currentColor" d="M13 2.25a.75.75 0 0 1 .75.75v18a.75.75 0 0 1-.75.75c-2.07 0-3.782-1.34-4.906-2.523a14.288 14.288 0 0 1-1.581-2.01c-.05.006-.104.013-.16.017-.385.032-.91.058-1.443.03-.517-.028-1.119-.11-1.614-.337-.52-.24-1.046-.712-1.046-1.507V8.505c0-.795.525-1.268 1.046-1.507.495-.228 1.097-.31 1.614-.337a10.953 10.953 0 0 1 1.443.03c.057.004.112.011.164.016a14.1 14.1 0 0 1 1.581-1.976C9.224 3.565 10.935 2.25 13 2.25Zm7.47 7.22a.75.75 0 1 1 1.06 1.06L20.06 12l1.47 1.47.052.056a.75.75 0 0 1-1.056 1.056l-.056-.052L19 13.06l-1.47 1.47a.75.75 0 1 1-1.06-1.06L17.94 12l-1.47-1.47-.052-.056a.75.75 0 0 1 1.056-1.056l.056.052L19 10.94l1.47-1.47ZM3.75 15.42c0 .031.006.032.008.035a.462.462 0 0 0 .165.108c.235.109.61.178 1.067.203.441.023.892.002 1.239-.027.171-.014.315-.03.414-.042l.112-.014.027-.003.006-.001a.75.75 0 0 1 .764.37c0 .002.003.004.005.008l.018.032.08.132a12.789 12.789 0 0 0 1.526 1.973c.865.91 1.924 1.713 3.069 1.97V3.833c-1.149.252-2.21 1.045-3.073 1.94a12.592 12.592 0 0 0-1.605 2.068l-.018.031-.004.007-.065.095a.75.75 0 0 1-.583.28l-.114-.008h-.006c-.005-.002-.015-.003-.027-.005-.025-.003-.063-.009-.112-.014a10.957 10.957 0 0 0-.414-.042 9.457 9.457 0 0 0-1.239-.027c-.457.024-.832.094-1.067.202a.462.462 0 0 0-.165.109c-.002.003-.008.004-.008.035v6.915Z"/>
</svg>
