<svg xmlns="http://www.w3.org/2000/svg" fill="none" viewBox="0 0 24 24">
  <path fill="currentColor" d="M8.132 16.928c.391.539.96 1.236 1.657 1.855.744.661 1.58 1.183 2.461 1.38V12.81l-4.118 4.118ZM16.907 12a4.906 4.906 0 0 0-.949-2.898L13.75 11.31V21a.75.75 0 0 1-.75.75c-1.69 0-3.136-.894-4.207-1.845A13.077 13.077 0 0 1 7.061 18L3.53 21.53a.75.75 0 1 1-1.061-1.06l18-18a.75.75 0 1 1 1.06 1.06l-1.985 1.985c3.215 4.176 2.912 10.188-.915 14.015a.75.75 0 0 1-1.06-1.06c3.24-3.24 3.54-8.305.905-11.885l-1.448 1.447a6.405 6.405 0 0 1-.497 8.498.75.75 0 1 1-1.06-1.06A4.907 4.907 0 0 0 16.907 12ZM12.25 7V3.834c-1.149.252-2.21 1.045-3.073 1.94a12.592 12.592 0 0 0-1.605 2.068l-.018.031-.004.007-.065.095a.75.75 0 0 1-.583.28l-.113-.008h-.007c-.005-.002-.015-.003-.027-.005-.025-.003-.063-.009-.112-.014a10.843 10.843 0 0 0-.414-.042 9.468 9.468 0 0 0-1.239-.027c-.457.025-.831.094-1.067.202a.462.462 0 0 0-.166.11c-.003.002-.007.005-.007.034v6.914c0 .018.002.027.003.028a.219.219 0 0 0 .047.047l.111.066.068.036a.75.75 0 0 1-.64 1.348l-.07-.029-.192-.102c-.44-.265-.827-.713-.827-1.394V8.505c0-.794.526-1.267 1.046-1.506.495-.228 1.097-.31 1.614-.337a10.972 10.972 0 0 1 1.443.028l.164.017a14.1 14.1 0 0 1 1.581-1.976C9.224 3.565 10.935 2.25 13 2.25a.75.75 0 0 1 .75.75v4a.75.75 0 0 1-1.5 0Z"/>
</svg>
