<svg xmlns="http://www.w3.org/2000/svg" fill="none" viewBox="0 0 24 24">
  <path fill="currentColor" d="M16.75 10c0-1.306-.955-2.25-2-2.25h-5.5c-1.045 0-2 .944-2 2.25v4c0 1.306.955 2.25 2 2.25h5.5c1.045 0 2-.944 2-2.25v-4Zm-2 7.75h-5.5l-.009-.001c.02.108.038.214.058.316.082.428.175.836.306 1.19.133.359.285.61.452.765.147.138.332.23.624.23h2.638c.292 0 .477-.092.624-.23.167-.156.32-.406.452-.764.13-.355.224-.763.306-1.192.02-.1.037-.207.057-.315l-.008.001ZM11.25 10a.75.75 0 0 1 1.5 0v2.083l1.251.78a.75.75 0 0 1-.794 1.274l-1.604-1a.75.75 0 0 1-.353-.637V10Zm-.57-6.25c-.291 0-.476.09-.623.229-.167.156-.32.406-.452.764A7.672 7.672 0 0 0 9.3 5.936c-.02.1-.038.206-.058.314h5.517c-.02-.108-.037-.214-.057-.314a7.65 7.65 0 0 0-.306-1.192c-.133-.358-.285-.608-.452-.765-.147-.137-.332-.229-.624-.229h-2.64ZM18.25 14c0 1.413-.747 2.693-1.884 3.328-.06.29-.114.614-.191 1.019-.086.45-.198.956-.373 1.43-.174.47-.43.96-.834 1.34a2.349 2.349 0 0 1-1.649.633h-2.638c-.674 0-1.225-.237-1.649-.634-.405-.378-.66-.87-.834-1.34a9.092 9.092 0 0 1-.373-1.43c-.077-.404-.133-.729-.192-1.018C6.496 16.693 5.75 15.413 5.75 14v-4c0-1.414.747-2.695 1.884-3.33.06-.289.114-.614.191-1.017.086-.45.198-.956.373-1.43.174-.47.429-.96.833-1.34a2.349 2.349 0 0 1 1.649-.633h2.64c.673 0 1.223.237 1.648.634.405.378.66.87.834 1.34.175.473.287.98.373 1.43.077.403.132.728.191 1.017 1.137.635 1.884 1.915 1.884 3.329v4Z"/>
</svg>
