<svg xmlns="http://www.w3.org/2000/svg" fill="none" viewBox="0 0 24 24">
  <path fill="currentColor" d="M14.635 17.57a5.97 5.97 0 0 1 5.05.15l1.764.887.09.05a1 1 0 0 1-.894 1.778l-.094-.04-1.764-.889a3.97 3.97 0 0 0-3.36-.1l-.214.1-.527.265a5.97 5.97 0 0 1-5.05.15l-.32-.15-.529-.265a3.97 3.97 0 0 0-3.36-.1l-.214.1-1.764.888a1 1 0 0 1-.898-1.787l1.764-.887.32-.15a5.97 5.97 0 0 1 5.05.15l.528.265.214.1a3.97 3.97 0 0 0 3.36-.1l.528-.265.32-.15Zm0-4.527a5.97 5.97 0 0 1 5.05.15l1.764.886.09.05a1 1 0 0 1-.894 1.778l-.094-.04-1.764-.889a3.97 3.97 0 0 0-3.36-.1l-.214.1-.527.266a5.97 5.97 0 0 1-5.05.15l-.32-.15-.529-.265a3.97 3.97 0 0 0-3.36-.1l-.214.1-1.764.887a1 1 0 0 1-.898-1.787l1.764-.887.32-.149a5.97 5.97 0 0 1 5.05.15l.528.265.214.1a3.97 3.97 0 0 0 3.36-.1l.528-.266.32-.149Zm0-4.527a5.97 5.97 0 0 1 5.05.15l1.764.886.09.05a1 1 0 0 1-.894 1.778l-.094-.04-1.764-.889a3.969 3.969 0 0 0-3.36-.098l-.214.098-.527.266a5.97 5.97 0 0 1-5.05.15l-.32-.15-.529-.266a3.968 3.968 0 0 0-3.36-.098l-.214.098-1.764.888a1 1 0 0 1-.898-1.787l1.764-.887.32-.15a5.97 5.97 0 0 1 5.05.15l.528.266.214.1a3.97 3.97 0 0 0 3.36-.1l.528-.266.32-.149Zm0-4.528a5.97 5.97 0 0 1 5.05.15l1.764.887.09.05a1 1 0 0 1-.988 1.737l-1.764-.887a3.97 3.97 0 0 0-3.36-.1l-.214.1-.527.264a5.97 5.97 0 0 1-5.05.15l-.32-.15-.529-.264a3.97 3.97 0 0 0-3.36-.1l-.214.1-1.764.887-.093.042a1 1 0 0 1-.805-1.829l1.764-.887.32-.15a5.97 5.97 0 0 1 5.05.15l.528.265.214.1a3.97 3.97 0 0 0 3.36-.1l.528-.265.32-.15Z"/>
</svg>
