<svg xmlns="http://www.w3.org/2000/svg" fill="none" viewBox="0 0 24 24">
  <path fill="currentColor" d="m5.26 7.242 4.823 2.785c.155-.15.325-.28.508-.389L9.15 4.258a8.2 8.2 0 0 0-3.89 2.984m5.338-3.372 1.441 5.38c.213.003.425.03.635.083l2.785-4.824a8.2 8.2 0 0 0-4.86-.639Zm6.16 1.39-2.785 4.822c.15.156.28.325.39.508l5.38-1.442a8.197 8.197 0 0 0-2.985-3.889Zm3.372 5.336-5.38 1.441c-.002.214-.03.427-.083.635l4.824 2.785a8.2 8.2 0 0 0 .64-4.86Zm-1.389 6.16-4.823-2.785c-.156.15-.325.28-.508.39l1.442 5.38a8.198 8.198 0 0 0 3.89-2.985Zm-5.337 3.372-1.44-5.38a2.7 2.7 0 0 1-.636-.083L8.541 19.49a8.2 8.2 0 0 0 4.861.64m-6.16-1.39 2.785-4.823a2.696 2.696 0 0 1-.389-.508l-5.38 1.442a8.198 8.198 0 0 0 2.984 3.89ZM3.87 13.403l5.38-1.44c.003-.214.03-.425.083-.636L4.51 8.541a8.2 8.2 0 0 0-.64 4.861m-.314-6.277c2.695-4.663 8.657-6.26 13.32-3.569 4.663 2.692 6.261 8.656 3.57 13.32-2.693 4.662-8.657 6.26-13.32 3.568C2.462 17.75.864 11.788 3.556 7.125"/>
</svg>
