<svg xmlns="http://www.w3.org/2000/svg" fill="none" viewBox="0 0 24 24">
  <path fill="currentColor" d="M7.487 10.153a.75.75 0 0 1 .625 1.364A4.052 4.052 0 0 0 5.75 15.2a4.053 4.053 0 0 0 7.974 1.01.75.75 0 1 1 1.45.379A5.553 5.553 0 0 1 4.25 15.2l.014-.398a5.55 5.55 0 0 1 3.223-4.65ZM10.45 5.6a.85.85 0 1 0-1.7.001.85.85 0 0 0 1.7-.001Zm5.3 4.05.077.004a.75.75 0 0 1 0 1.492l-.077.004h-3a.75.75 0 0 1 0-1.5h3Zm-3.8-4.05c0 .623-.248 1.221-.688 1.662-.19.19-.412.34-.65.455l.628 5.658a.252.252 0 0 0 .087.164.252.252 0 0 0 .176.059l5.044-.288a1.753 1.753 0 0 1 1.272.447 1.753 1.753 0 0 1 .576 1.22l.11 2.434a.251.251 0 0 0 .25.24H19a.75.75 0 0 1 0 1.5h-.244a1.751 1.751 0 0 1-1.75-1.672l-.11-2.434a.252.252 0 0 0-.166-.225.253.253 0 0 0-.097-.013l-5.044.288A1.75 1.75 0 0 1 9.75 13.54l-.627-5.642A2.348 2.348 0 0 1 9.6 3.25a2.351 2.351 0 0 1 2.35 2.35Z"/>
</svg>
