<svg xmlns="http://www.w3.org/2000/svg" fill="none" viewBox="0 0 24 24">
  <path fill="currentColor" d="M9.477 2.582a9.75 9.75 0 0 1 5.046 18.835 9.751 9.751 0 0 1-11.94-6.894A9.75 9.75 0 0 1 9.476 2.582Zm-.935 16.905a8.234 8.234 0 0 0 4.858.64l-1.441-5.38a2.75 2.75 0 0 1-.632-.084l-2.785 4.824Zm5.371-5.516a2.747 2.747 0 0 1-.505.387l1.442 5.381a8.246 8.246 0 0 0 3.887-2.983l-4.824-2.785Zm-9.654.879a8.248 8.248 0 0 0 2.984 3.888l2.785-4.824a2.748 2.748 0 0 1-.388-.506L4.259 14.85Zm10.488-2.81a2.744 2.744 0 0 1-.084.632l4.824 2.785a8.249 8.249 0 0 0 .641-4.86l-5.38 1.443ZM4.511 8.542a8.248 8.248 0 0 0-.64 4.858l5.38-1.441c.003-.213.032-.425.084-.632L4.511 8.542Zm8.114 2.375a1.252 1.252 0 0 0-1.833 1.406 1.25 1.25 0 1 0 1.833-1.406Zm1.346-.832c.148.153.278.323.387.506l5.382-1.442a8.248 8.248 0 0 0-2.984-3.888l-2.785 4.824ZM9.149 4.259a8.25 8.25 0 0 0-3.89 2.983l4.825 2.786c.153-.149.323-.279.507-.388L9.149 4.259Zm6.308.252a8.248 8.248 0 0 0-4.86-.64l1.443 5.38c.213.003.425.032.632.084l2.785-4.824Z"/>
</svg>
