<svg xmlns="http://www.w3.org/2000/svg" fill="none" viewBox="0 0 24 24">
  <path fill="currentColor" d="M11.25 19.25v-.5a.75.75 0 0 1 1.5 0v.5a.75.75 0 0 1-1.5 0Zm.75-5.5c1.593 0 3.124.594 4.3 1.657l.23.22.052.057a.75.75 0 0 1-1.056 1.056l-.056-.052-.177-.168a4.907 4.907 0 0 0-6.763.168.75.75 0 0 1-1.06-1.06A6.407 6.407 0 0 1 12 13.75Zm-7.53-1.38c4.029-4.03 10.482-4.156 14.663-.378l.397.378.052.057a.75.75 0 0 1-1.056 1.055l-.056-.051-.342-.325a9.148 9.148 0 0 0-12.598.325.75.75 0 0 1-1.06-1.06ZM12 4.75a.75.75 0 0 1 0 1.5 13.75 13.75 0 0 0-9.483 3.777.75.75 0 0 1-1.033-1.087 15.251 15.251 0 0 1 10.518-4.19Zm7.037-1.19a.75.75 0 0 1 1.216.88l-2.8 3.876-.003.004a1.053 1.053 0 0 1-.798.427 1.049 1.049 0 0 1-.834-.35l-.004-.005-1.379-1.576 1.13-.988 1.004 1.149 2.468-3.416Zm-4.531 2.198a.75.75 0 0 1 1.058.07l-1.129.988a.75.75 0 0 1 .07-1.058Z"/>
</svg>
