<svg xmlns="http://www.w3.org/2000/svg" fill="none" viewBox="0 0 24 24">
  <path fill="currentColor" d="M11.25 19.25v-.5a.75.75 0 0 1 1.5 0v.5a.75.75 0 1 1-1.5 0Zm.75-5.5c1.593 0 3.124.593 4.3 1.657l.23.22.052.056a.75.75 0 0 1-1.056 1.056l-.056-.052-.177-.168a4.907 4.907 0 0 0-6.763.168.75.75 0 0 1-1.06-1.06A6.407 6.407 0 0 1 12 13.75Zm-7.53-1.38c4.029-4.03 10.482-4.156 14.663-.378l.397.378.052.057a.75.75 0 0 1-1.056 1.054l-.056-.05-.342-.326a9.148 9.148 0 0 0-12.598.326.75.75 0 0 1-1.06-1.06ZM12 4.75a.75.75 0 0 1 0 1.5 13.75 13.75 0 0 0-9.483 3.777.75.75 0 0 1-1.033-1.088 15.251 15.251 0 0 1 10.518-4.19Zm7.47-1.28a.75.75 0 1 1 1.06 1.06L19.06 6l1.47 1.47.052.056a.75.75 0 0 1-1.056 1.056l-.056-.052L18 7.06l-1.47 1.47a.75.75 0 1 1-1.06-1.06L16.94 6l-1.47-1.47-.052-.056A.75.75 0 0 1 16.53 3.47L18 4.94l1.47-1.47Z"/>
</svg>
