<svg xmlns="http://www.w3.org/2000/svg" fill="none" viewBox="0 0 24 24">
  <path fill="currentColor" d="M11.25 19.25v-.5a.75.75 0 0 1 1.5 0v.5a.75.75 0 0 1-1.5 0Zm.75-5.5c1.7 0 3.329.675 4.53 1.877a.75.75 0 0 1-1.004 1.112l-.056-.052-.177-.167a4.906 4.906 0 0 0-6.763.167.75.75 0 1 1-1.06-1.06A6.407 6.407 0 0 1 12 13.75Zm-7.53-1.38c4.159-4.16 10.902-4.16 15.06 0a.75.75 0 0 1-1.004 1.112l-.056-.052-.342-.324a9.148 9.148 0 0 0-12.598.324.75.75 0 1 1-1.06-1.06ZM1.484 8.94c5.893-5.585 15.14-5.585 21.032 0a.75.75 0 1 1-1.031 1.088c-5.314-5.036-13.656-5.036-18.97 0a.75.75 0 0 1-1.03-1.089Z"/>
</svg>
