<svg xmlns="http://www.w3.org/2000/svg" fill="none" viewBox="0 0 24 24">
  <path fill="currentColor" d="M11.25 19.25v-.5a.75.75 0 0 1 1.5 0v.5a.75.75 0 1 1-1.5 0Zm1.067-5.491a6.406 6.406 0 0 1 3.983 1.65l.23.218.052.056a.75.75 0 0 1-1.056 1.056l-.056-.052-.177-.168a4.907 4.907 0 0 0-6.763.168.75.75 0 0 1-1.06-1.06A6.407 6.407 0 0 1 12 13.75l.317.009ZM4.47 12.37c4.029-4.03 10.482-4.156 14.663-.378l.397.378.052.057a.75.75 0 0 1-1.056 1.055l-.056-.051-.342-.326a9.148 9.148 0 0 0-12.598.325.75.75 0 0 1-1.06-1.06Z"/>
</svg>
