<svg xmlns="http://www.w3.org/2000/svg" fill="none" viewBox="0 0 24 24">
  <path fill="currentColor" d="M18 2.75a.75.75 0 0 1 .75.75v1.75h1.75a.75.75 0 0 1 0 1.5h-1.75V8.5a.75.75 0 0 1-1.5 0V6.75H15.5a.75.75 0 1 1 0-1.5h1.75V3.5a.75.75 0 0 1 .75-.75Zm-6 3.5c-3.415 0-6.827 1.26-9.484 3.777a.75.75 0 1 1-1.032-1.089A15.25 15.25 0 0 1 12 4.75a.75.75 0 0 1 0 1.5Zm-7.53 7.18a.75.75 0 0 1 0-1.06c4.16-4.16 10.901-4.16 15.06 0a.752.752 0 0 1-.23 1.244.75.75 0 0 1-.83-.184 9.15 9.15 0 0 0-12.94 0 .75.75 0 0 1-1.06 0Zm3 3.257a.75.75 0 0 1 0-1.06 6.407 6.407 0 0 1 9.06 0 .75.75 0 0 1-1.06 1.06 4.909 4.909 0 0 0-6.94 0 .75.75 0 0 1-1.06 0ZM12 18a.75.75 0 0 1 .75.75v.5a.75.75 0 0 1-1.5 0v-.5A.75.75 0 0 1 12 18Z"/>
</svg>
