<svg xmlns="http://www.w3.org/2000/svg" fill="none" viewBox="0 0 24 24">
  <path fill="currentColor" d="M11.25 19.25v-.5a.75.75 0 0 1 1.5 0v.5a.75.75 0 0 1-1.5 0Zm.75-5.5c1.593 0 3.124.593 4.3 1.657l.23.22.052.057a.75.75 0 0 1-1.056 1.055l-.056-.052-.177-.168a4.907 4.907 0 0 0-6.763.169.75.75 0 0 1-1.06-1.061A6.407 6.407 0 0 1 12 13.75Zm-7.53-1.38c4.029-4.03 10.482-4.156 14.663-.378l.397.378.052.057a.75.75 0 0 1-1.056 1.055l-.056-.051-.342-.325a9.148 9.148 0 0 0-12.598.325.75.75 0 0 1-1.06-1.06ZM12 4.75a.75.75 0 0 1 0 1.5 13.75 13.75 0 0 0-9.483 3.777.75.75 0 0 1-1.033-1.088A15.251 15.251 0 0 1 12.001 4.75Zm8.5.5.077.004A.75.75 0 0 1 20.5 6.75h-5a.75.75 0 0 1 0-1.5h5Z"/>
</svg>
