<svg xmlns="http://www.w3.org/2000/svg" fill="none" viewBox="0 0 24 24">
  <path fill="currentColor" d="M20.47 2.47a.75.75 0 1 1 1.06 1.06l-2.785 2.784a15.249 15.249 0 0 1 3.51 2.383l.262.242.052.056a.75.75 0 0 1-1.027 1.082l-.059-.05-.473-.43a13.747 13.747 0 0 0-3.395-2.153l-2.324 2.324a10.6 10.6 0 0 1 3.96 2.332l.28.271.052.057a.75.75 0 0 1-1.058 1.053l-.056-.051-.24-.234a9.1 9.1 0 0 0-4.157-2.209l-2.805 2.806a6.407 6.407 0 0 1 5.033 1.614l.23.22.052.056a.75.75 0 0 1-1.056 1.056l-.056-.052-.177-.168a4.907 4.907 0 0 0-6.763.168.744.744 0 0 1-.353.196L3.53 21.53a.75.75 0 1 1-1.06-1.06l18-18Zm-9.22 16.78v-.5a.75.75 0 0 1 1.5 0v.5a.75.75 0 1 1-1.5 0ZM8.773 9.748a.75.75 0 0 1 .453 1.43 9.11 9.11 0 0 0-3.695 2.252l-.057.051a.75.75 0 0 1-1.005-1.11 10.612 10.612 0 0 1 4.304-2.623Zm3.228-4.998a.75.75 0 0 1-.002 1.5 13.75 13.75 0 0 0-9.483 3.777.75.75 0 0 1-1.033-1.088 15.251 15.251 0 0 1 10.518-4.19Z"/>
</svg>
