<svg xmlns="http://www.w3.org/2000/svg" fill="none" viewBox="0 0 24 24">
  <path fill="currentColor" d="M21.484 10.027c-5.314-5.036-13.654-5.036-18.968 0a.749.749 0 1 1-1.032-1.089c5.893-5.584 15.14-5.584 21.032 0a.75.75 0 1 1-1.032 1.089ZM4.47 12.37c4.16-4.159 10.901-4.159 15.06 0a.75.75 0 0 1-1.06 1.06 9.15 9.15 0 0 0-12.94 0 .75.75 0 1 1-1.06-1.06Zm3 3.258a6.407 6.407 0 0 1 9.06 0 .75.75 0 0 1-1.06 1.06 4.909 4.909 0 0 0-6.94 0 .75.75 0 0 1-1.06-1.06ZM12 18a.75.75 0 0 1 .75.75v.5a.75.75 0 0 1-1.5 0v-.5A.75.75 0 0 1 12 18Z"/>
</svg>
