<svg xmlns="http://www.w3.org/2000/svg" fill="none" viewBox="0 0 24 24">
  <path fill="currentColor" d="M18.411 15.25c1.058 0 1.91.39 2.493 1.023.573.622.846 1.435.846 2.227 0 .792-.273 1.605-.846 2.227-.583.633-1.435 1.023-2.493 1.023a.75.75 0 0 1 0-1.5c.668 0 1.11-.235 1.39-.54.29-.315.449-.752.449-1.21 0-.458-.159-.895-.45-1.21-.279-.305-.72-.54-1.389-.54H3a.75.75 0 0 1 0-1.5h15.411Zm.11-8.995c.973.045 1.762.422 2.314 1.016.578.621.854 1.435.854 2.229s-.276 1.608-.854 2.23c-.588.632-1.447 1.02-2.51 1.02H3a.75.75 0 0 1 0-1.5h15.325c.68 0 1.128-.238 1.411-.542a1.77 1.77 0 0 0 .453-1.208c0-.456-.16-.892-.453-1.208-.247-.266-.622-.482-1.167-.531l-.244-.011-.077-.004a.75.75 0 0 1 .077-1.496l.197.005Zm-7.452-4c.977.045 1.768.422 2.323 1.015.58.621.86 1.435.86 2.23 0 .795-.28 1.609-.86 2.23-.592.633-1.453 1.02-2.52 1.02H3a.75.75 0 0 1 0-1.5h7.872c.685 0 1.139-.238 1.424-.543.295-.316.456-.752.456-1.207 0-.455-.16-.891-.456-1.207-.25-.267-.628-.483-1.178-.532l-.246-.011-.077-.004a.75.75 0 0 1 .077-1.496l.197.005Z"/>
</svg>
