<svg xmlns="http://www.w3.org/2000/svg" fill="none" viewBox="0 0 24 24">
  <path fill="currentColor" d="M18.411 14.25c1.058 0 1.91.39 2.493 1.023.573.622.846 1.435.846 2.227 0 .792-.273 1.605-.846 2.227-.583.633-1.435 1.023-2.493 1.023a.75.75 0 0 1 0-1.5c.668 0 1.11-.235 1.39-.54.29-.315.449-.752.449-1.21 0-.458-.159-.895-.45-1.21-.279-.304-.72-.54-1.389-.54h-3.995c.216.376.334.8.334 1.25 0 1.51-1.301 2.75-3.339 2.75a.75.75 0 0 1 0-1.5c1.414 0 1.839-.76 1.839-1.25 0-.46-.373-1.156-1.585-1.241l-.254-.009H3a.75.75 0 0 1 0-1.5h15.411Zm-1.911-8c1.063 0 1.922.388 2.51 1.02.577.622.853 1.436.853 2.23s-.276 1.608-.853 2.23c-.588.632-1.447 1.02-2.51 1.02H3a.75.75 0 0 1 0-1.5h13.5c.68 0 1.128-.238 1.411-.542.293-.316.452-.752.452-1.208 0-.456-.159-.892-.452-1.208-.283-.305-.732-.542-1.411-.542a.75.75 0 0 1 0-1.5Zm-5.43-2.995c.976.045 1.767.422 2.322 1.015.58.621.86 1.435.86 2.23 0 .795-.28 1.609-.86 2.23-.592.633-1.453 1.02-2.52 1.02H3a.75.75 0 0 1 0-1.5h1.872c1.453 0 1.88-.77 1.88-1.25 0-.45-.376-1.155-1.62-1.241l-.26-.009-.077-.004a.75.75 0 0 1 .077-1.496l.376.015c1.838.14 3.004 1.31 3.004 2.735 0 .45-.118.875-.335 1.25h2.955c.685 0 1.139-.238 1.424-.543.295-.316.456-.752.456-1.207 0-.455-.16-.891-.456-1.207-.25-.267-.628-.483-1.178-.532l-.246-.011-.077-.004a.75.75 0 0 1 .077-1.496l.197.005Z"/>
</svg>
