<svg xmlns="http://www.w3.org/2000/svg" fill="none" viewBox="0 0 24 24">
  <path fill="currentColor" d="M2.25 12A9.75 9.75 0 0 0 12 21.75 9.75 9.75 0 0 0 21.75 12 9.75 9.75 0 0 0 12 2.25 9.75 9.75 0 0 0 2.25 12Zm6-1.5A.75.75 0 0 1 9 9.75h1a.75.75 0 1 1 0 1.5H9a.75.75 0 0 1-.75-.75Zm7-.5v.5a.75.75 0 1 1-1.5 0V10a.75.75 0 1 1 1.5 0Zm-6.852 4.553a.75.75 0 0 1 1.049-.155c.728.54 1.607.852 2.553.852a4.27 4.27 0 0 0 2.553-.852.749.749 0 0 1 1.201.71.751.751 0 0 1-.307.494A5.77 5.77 0 0 1 12 16.75a5.77 5.77 0 0 1-3.447-1.148.75.75 0 0 1-.155-1.049Z"/>
</svg>
