<svg xmlns="http://www.w3.org/2000/svg" fill="none" viewBox="0 0 24 24">
  <path fill="currentColor" d="M7.598 2.344a6.435 6.435 0 0 1 7.419 7.5c-.125.681.008 1.28.357 1.63l5.569 5.567a2.756 2.756 0 0 1 .632 3.023 2.764 2.764 0 0 1-2.583 1.716 2.76 2.76 0 0 1-1.953-.838l-5.565-5.566c-.307-.306-.803-.446-1.379-.393l-.252.035a6.434 6.434 0 0 1-7.287-4.364A6.433 6.433 0 0 1 2.343 7.6l.026-.122a1.491 1.491 0 0 1 1.13-1.104c.471-.107.984.004 1.391.318l.168.148 2.543 2.543.063.04a.196.196 0 0 0 .21-.04l1.507-1.505a.197.197 0 0 0 0-.275L6.838 5.059a1.687 1.687 0 0 1-.466-1.56 1.495 1.495 0 0 1 1.224-1.154l.002-.001Zm3.34 5.395a1.7 1.7 0 0 1-.486 1.188l-.004.006-1.516 1.514-.005.006a1.698 1.698 0 0 1-2.376 0L3.998 7.901l-.05-.04a.17.17 0 0 0-.118-.025c-.013.003-.012.006-.006 0 .008-.008.001-.01-.003.018a4.932 4.932 0 0 0 5.752 5.689c.957-.175 2.134-.053 2.96.773l5.567 5.567.01.01a1.26 1.26 0 1 0 1.782-1.78l-.01-.011-5.567-5.567c-.826-.827-.949-2.004-.774-2.96A4.936 4.936 0 0 0 7.853 3.82c-.027.005-.026.012-.018.004.006-.005.002-.006 0 .007-.007.03-.003.1.065.167l2.553 2.552c.31.317.485.744.485 1.188Z"/>
</svg>
