<svg xmlns="http://www.w3.org/2000/svg" fill="none" viewBox="0 0 24 24">
  <path fill="currentColor" d="M20.25 12a8.25 8.25 0 1 0-16.5-.001 8.25 8.25 0 0 0 16.5.001Zm-9 5.5v-1.75H8.818a.75.75 0 0 1 0-1.5h2.432v-1H8.818a.75.75 0 0 1 0-1.5h1.742L7.886 7.93l-.041-.065a.75.75 0 0 1 1.222-.855l.047.06L12 11.192l2.886-4.122a.75.75 0 0 1 1.228.86l-2.674 3.82h1.742a.75.75 0 1 1 0 1.5H12.75v1h2.432a.75.75 0 1 1 0 1.5H12.75v1.75a.75.75 0 0 1-1.5 0Zm10.5-5.5a9.75 9.75 0 1 1-19.502 0 9.75 9.75 0 0 1 19.502 0Z"/>
</svg>
