<svg xmlns="http://www.w3.org/2000/svg" fill="none" viewBox="0 0 24 24">
  <path fill="currentColor" d="M2.25 12A9.75 9.75 0 0 0 12 21.75 9.75 9.75 0 0 0 21.75 12 9.75 9.75 0 0 0 12 2.25 9.75 9.75 0 0 0 2.25 12Zm5.82-5.114a.75.75 0 0 1 1.044.184L12 11.192l2.886-4.122a.75.75 0 1 1 1.229.86l-2.674 3.82h1.74a.75.75 0 1 1 0 1.5h-2.43v1h2.43a.75.75 0 1 1 0 1.5h-2.43v1.75a.75.75 0 1 1-1.5 0v-1.75H8.817a.75.75 0 1 1 0-1.5h2.432v-1H8.818a.75.75 0 1 1 0-1.5h1.742L7.886 7.93a.75.75 0 0 1 .184-1.044Z"/>
</svg>
