<svg xmlns="http://www.w3.org/2000/svg" fill="none" viewBox="0 0 24 24">
  <path fill="currentColor" d="M21.25 12a1.66 1.66 0 0 0-.377-1.053l-.11-.121-7.589-7.59a1.66 1.66 0 0 0-2.348 0l-7.588 7.59a1.663 1.663 0 0 0-.001 2.348l7.589 7.59.12.109a1.662 1.662 0 0 0 1.69.25c.202-.083.384-.206.538-.36l7.59-7.588A1.664 1.664 0 0 0 21.25 12Zm-10 5.5v-1.75H8.819a.75.75 0 0 1 0-1.5h2.433v-1H8.818a.75.75 0 0 1 0-1.5h1.742L7.886 7.93 8.5 7.5l.615-.43L12 11.192l2.885-4.122a.75.75 0 0 1 1.229.86l-2.674 3.82h1.741a.75.75 0 0 1 0 1.5H12.75v1h2.431l.077.004a.75.75 0 0 1 0 1.493l-.077.004H12.75v1.75a.75.75 0 0 1-1.5 0ZM8.07 6.886a.75.75 0 0 1 1.045.184l-1.229.86a.75.75 0 0 1 .184-1.044Zm14.68 5.115a3.159 3.159 0 0 1-.926 2.235l-7.588 7.588a3.16 3.16 0 0 1-4.472 0l-7.587-7.588a3.16 3.16 0 0 1-.107-4.359l.107-.113 7.587-7.587.113-.107a3.16 3.16 0 0 1 4.359.107l7.587 7.587a3.166 3.166 0 0 1 .927 2.237Z"/>
</svg>
