<svg xmlns="http://www.w3.org/2000/svg" fill="none" viewBox="0 0 24 24">
  <path fill="currentColor" d="M20.47 2.47a.75.75 0 0 1 1.06 1.06l-5.69 5.69h3.685c.547 0 .944.35 1.117.743.17.39.153.895-.163 1.3h.001l-7.8 10.015-.001.001c-.384.49-.992.576-1.46.359a1.25 1.25 0 0 1-.71-1.297l.65-5.56h-.877l-6.75 6.75a.75.75 0 1 1-1.061-1.06l18-18Zm-8.722 10.84c.622.148 1.002.77.93 1.376l-.57 4.88 6.895-8.846H14.34l-2.592 2.59Zm-.427-10.587a1.195 1.195 0 0 1 1.461-.36c.46.212.78.708.711 1.295l-.46 3.928a.75.75 0 0 1-1.49-.174l.349-2.981-6.895 8.847H5.5a.75.75 0 0 1 0 1.5H4.475c-.547 0-.944-.348-1.117-.741a1.279 1.279 0 0 1 .162-1.303l7.801-10.011Z"/>
</svg>
