<svg xmlns="http://www.w3.org/2000/svg" fill="none" viewBox="0 0 24 24">
  <path fill="currentColor" d="M11.321 2.723a1.195 1.195 0 0 1 1.461-.36c.43.2.739.649.719 1.188l-.008.108-.65 5.562h6.682c.547 0 .944.349 1.116.742.172.391.156.897-.16 1.302l-.002-.001-7.8 10.013-.001.001c-.384.49-.992.576-1.46.359a1.25 1.25 0 0 1-.71-1.295l.65-5.563H4.474a1.22 1.22 0 0 1-1.117-.74 1.279 1.279 0 0 1 .162-1.304L11.32 2.723ZM4.998 13.279h6.465c.788 0 1.297.714 1.215 1.409l-.57 4.88 6.895-8.847h-6.466c-.788 0-1.297-.714-1.215-1.408l.57-4.882-6.894 8.848Z"/>
</svg>
