<svg xmlns="http://www.w3.org/2000/svg" fill="none" viewBox="0 0 24 24">
  <path fill="currentColor" d="M21.25 12a1.66 1.66 0 0 0-.377-1.053l-.11-.121-7.589-7.59a1.66 1.66 0 0 0-2.348 0l-7.588 7.59a1.663 1.663 0 0 0-.001 2.348l7.589 7.59.12.109a1.662 1.662 0 0 0 1.69.25c.202-.083.384-.206.538-.36l7.59-7.588A1.664 1.664 0 0 0 21.25 12Zm-7.5-1.5a1.75 1.75 0 0 0-3.5 0v3a1.75 1.75 0 0 0 3.5 0v-3Zm9 1.5a3.159 3.159 0 0 1-.926 2.236l-7.588 7.588a3.16 3.16 0 0 1-4.472 0l-7.587-7.588a3.16 3.16 0 0 1-.107-4.359l.107-.113 7.587-7.587.113-.107a3.16 3.16 0 0 1 4.359.107l7.587 7.587a3.166 3.166 0 0 1 .927 2.237Zm-7.5 1.5a3.25 3.25 0 0 1-6.5 0v-3a3.251 3.251 0 1 1 6.5 0v3Z"/>
</svg>
