<svg xmlns="http://www.w3.org/2000/svg" fill="none" viewBox="0 0 24 24">
  <path fill="currentColor" d="M12 1.751c.463 0 .916.123 1.316.354h.001l6.613 3.8.006.003A2.661 2.661 0 0 1 21.25 8.2v7.6l-.005.174a2.651 2.651 0 0 1-1.311 2.122l-.004.002-6.613 3.8v-.002a2.628 2.628 0 0 1-2.634 0L4.07 18.097l-.006-.004a2.66 2.66 0 0 1-1.314-2.29V8.2a2.651 2.651 0 0 1 1.316-2.293l.004-.002 6.613-3.8c.4-.232.854-.354 1.317-.354Zm0 1.5c-.2 0-.395.052-.567.152l-.003.002-6.61 3.797.001.001a1.151 1.151 0 0 0-.571.996v7.602l.01.15a1.16 1.16 0 0 0 .563.848l6.607 3.797.003.002a1.13 1.13 0 0 0 1.134 0l.003-.002 6.609-3.798.125-.084a1.152 1.152 0 0 0 .446-.912v-7.6a1.16 1.16 0 0 0-.573-1L12.57 3.405l-.003-.002A1.13 1.13 0 0 0 12 3.251Zm1.75 7.249a1.75 1.75 0 0 0-3.5 0v3a1.75 1.75 0 0 0 3.5 0v-3Zm1.5 3a3.25 3.25 0 0 1-6.5 0v-3a3.25 3.25 0 0 1 6.5 0v3Z"/>
</svg>
